M48
; DRILL file KiCad 10.0.0-10.0.0~ubuntu24.04.1 date 2026-07-03T06:11:11
; FORMAT={-:-/ absolute / metric / decimal}
; #@! TF.CreationDate,2026-07-03T06:11:11-07:00
; #@! TF.GenerationSoftware,Kicad,Pcbnew,10.0.0-10.0.0~ubuntu24.04.1
; #@! TF.FileFunction,Plated,1,2,PTH
FMAT,2
METRIC
; #@! TA.AperFunction,Plated,PTH,ViaDrill
T1C0.300
; #@! TA.AperFunction,Plated,PTH,ComponentDrill
T2C1.000
%
G90
G05
T1
X120.7Y-96.7
X127.245Y-92.755
X129.9Y-96.0
X132.0Y-108.2
X136.0Y-84.1
X137.05Y-113.25
X137.5Y-101.1
X137.6Y-107.1
X138.1Y-84.0
X141.2Y-81.7
X141.8Y-89.3
X142.0Y-90.5
X142.2Y-102.9
X144.0Y-87.9
X144.19Y-117.2
X144.39Y-90.89
X145.42Y-78.38
X146.3Y-80.2
X148.5Y-96.8
X148.9Y-86.0
X150.0Y-100.1
X152.7Y-84.0
X152.9Y-109.9
X153.8Y-82.5
X155.8Y-87.4
X162.542Y-98.742
X163.3Y-95.6
X167.7Y-96.7
T2
X127.48Y-85.777
X129.113Y-83.831
X141.66Y-84.2
X144.2Y-84.2
X146.74Y-84.2
M30
