%TF.GenerationSoftware,KiCad,Pcbnew,10.0.0-10.0.0~ubuntu24.04.1*%
%TF.CreationDate,2026-07-03T06:11:15-07:00*%
%TF.ProjectId,INNER_PCB,494e4e45-525f-4504-9342-2e6b69636164,rev?*%
%TF.SameCoordinates,Original*%
%TF.FileFunction,Paste,Bot*%
%TF.FilePolarity,Positive*%
%FSLAX46Y46*%
G04 Gerber Fmt 4.6, Leading zero omitted, Abs format (unit mm)*
G04 Created by KiCad (PCBNEW 10.0.0-10.0.0~ubuntu24.04.1) date 2026-07-03 06:11:15*
%MOMM*%
%LPD*%
G01*
G04 APERTURE LIST*
G04 Aperture macros list*
%AMRoundRect*
0 Rectangle with rounded corners*
0 $1 Rounding radius*
0 $2 $3 $4 $5 $6 $7 $8 $9 X,Y pos of 4 corners*
0 Add a 4 corners polygon primitive as box body*
4,1,4,$2,$3,$4,$5,$6,$7,$8,$9,$2,$3,0*
0 Add four circle primitives for the rounded corners*
1,1,$1+$1,$2,$3*
1,1,$1+$1,$4,$5*
1,1,$1+$1,$6,$7*
1,1,$1+$1,$8,$9*
0 Add four rect primitives between the rounded corners*
20,1,$1+$1,$2,$3,$4,$5,0*
20,1,$1+$1,$4,$5,$6,$7,0*
20,1,$1+$1,$6,$7,$8,$9,0*
20,1,$1+$1,$8,$9,$2,$3,0*%
G04 Aperture macros list end*
%ADD10RoundRect,0.218750X-0.218750X-0.256250X0.218750X-0.256250X0.218750X0.256250X-0.218750X0.256250X0*%
%ADD11RoundRect,0.135000X0.135000X0.185000X-0.135000X0.185000X-0.135000X-0.185000X0.135000X-0.185000X0*%
%ADD12RoundRect,0.172500X-0.172500X-0.172500X0.172500X-0.172500X0.172500X0.172500X-0.172500X0.172500X0*%
%ADD13RoundRect,0.050000X-0.375000X-0.050000X0.375000X-0.050000X0.375000X0.050000X-0.375000X0.050000X0*%
%ADD14RoundRect,0.050000X-0.050000X-0.375000X0.050000X-0.375000X0.050000X0.375000X-0.050000X0.375000X0*%
%ADD15RoundRect,0.135000X-0.185000X0.135000X-0.185000X-0.135000X0.185000X-0.135000X0.185000X0.135000X0*%
%ADD16RoundRect,0.135000X-0.135000X-0.185000X0.135000X-0.185000X0.135000X0.185000X-0.135000X0.185000X0*%
%ADD17RoundRect,0.140000X0.140000X0.170000X-0.140000X0.170000X-0.140000X-0.170000X0.140000X-0.170000X0*%
G04 APERTURE END LIST*
D10*
%TO.C,D13*%
X129925000Y-92800000D03*
X131500000Y-92800000D03*
%TD*%
D11*
%TO.C,R16*%
X135410000Y-81800000D03*
X134390000Y-81800000D03*
%TD*%
D12*
%TO.C,U2*%
X143980000Y-90480000D03*
X143980000Y-91300000D03*
X144800000Y-90480000D03*
X144800000Y-91300000D03*
D13*
X142940000Y-91690000D03*
X142940000Y-91290000D03*
X142940000Y-90890000D03*
X142940000Y-90490000D03*
X142940000Y-90090000D03*
D14*
X143590000Y-89440000D03*
X143990000Y-89440000D03*
X144390000Y-89440000D03*
X144790000Y-89440000D03*
X145190000Y-89440000D03*
D13*
X145840000Y-90090000D03*
X145840000Y-90490000D03*
X145840000Y-90890000D03*
X145840000Y-91290000D03*
X145840000Y-91690000D03*
D14*
X145190000Y-92340000D03*
X144790000Y-92340000D03*
X144390000Y-92340000D03*
X143990000Y-92340000D03*
X143590000Y-92340000D03*
%TD*%
D15*
%TO.C,R1*%
X140800000Y-88600000D03*
X140800000Y-89620000D03*
%TD*%
D16*
%TO.C,R11*%
X138390000Y-111600000D03*
X139410000Y-111600000D03*
%TD*%
%TO.C,R14*%
X130490000Y-91500000D03*
X131510000Y-91500000D03*
%TD*%
D11*
%TO.C,R17*%
X151610000Y-81300000D03*
X150590000Y-81300000D03*
%TD*%
D10*
%TO.C,D15*%
X133900000Y-83000000D03*
X135475000Y-83000000D03*
%TD*%
D16*
%TO.C,R13*%
X160790000Y-99600000D03*
X161810000Y-99600000D03*
%TD*%
D10*
%TO.C,D11*%
X143400000Y-98100000D03*
X144975000Y-98100000D03*
%TD*%
D16*
%TO.C,R15*%
X130690000Y-97100000D03*
X131710000Y-97100000D03*
%TD*%
D10*
%TO.C,D12*%
X160412500Y-100900000D03*
X161987500Y-100900000D03*
%TD*%
%TO.C,D14*%
X130200000Y-98500000D03*
X131775000Y-98500000D03*
%TD*%
%TO.C,D16*%
X150100000Y-82600000D03*
X151675000Y-82600000D03*
%TD*%
D17*
%TO.C,C3*%
X142770000Y-88640000D03*
X141810000Y-88640000D03*
%TD*%
D10*
%TO.C,D10*%
X138300000Y-110400000D03*
X139875000Y-110400000D03*
%TD*%
D16*
%TO.C,R12*%
X144000000Y-96800000D03*
X145020000Y-96800000D03*
%TD*%
M02*
