%TF.GenerationSoftware,KiCad,Pcbnew,10.0.0-10.0.0~ubuntu24.04.1*%
%TF.CreationDate,2026-07-05T09:47:00-07:00*%
%TF.ProjectId,INNER_PCB,494e4e45-525f-4504-9342-2e6b69636164,rev?*%
%TF.SameCoordinates,Original*%
%TF.FileFunction,Copper,L2,Bot*%
%TF.FilePolarity,Positive*%
%FSLAX46Y46*%
G04 Gerber Fmt 4.6, Leading zero omitted, Abs format (unit mm)*
G04 Created by KiCad (PCBNEW 10.0.0-10.0.0~ubuntu24.04.1) date 2026-07-05 09:47:00*
%MOMM*%
%LPD*%
G01*
G04 APERTURE LIST*
G04 Aperture macros list*
%AMRoundRect*
0 Rectangle with rounded corners*
0 $1 Rounding radius*
0 $2 $3 $4 $5 $6 $7 $8 $9 X,Y pos of 4 corners*
0 Add a 4 corners polygon primitive as box body*
4,1,4,$2,$3,$4,$5,$6,$7,$8,$9,$2,$3,0*
0 Add four circle primitives for the rounded corners*
1,1,$1+$1,$2,$3*
1,1,$1+$1,$4,$5*
1,1,$1+$1,$6,$7*
1,1,$1+$1,$8,$9*
0 Add four rect primitives between the rounded corners*
20,1,$1+$1,$2,$3,$4,$5,0*
20,1,$1+$1,$4,$5,$6,$7,0*
20,1,$1+$1,$6,$7,$8,$9,0*
20,1,$1+$1,$8,$9,$2,$3,0*%
%AMRotRect*
0 Rectangle, with rotation*
0 The origin of the aperture is its center*
0 $1 length*
0 $2 width*
0 $3 Rotation angle, in degrees counterclockwise*
0 Add horizontal line*
21,1,$1,$2,0,0,$3*%
G04 Aperture macros list end*
%TA.AperFunction,SMDPad,CuDef*%
%ADD10RoundRect,0.218750X-0.218750X-0.256250X0.218750X-0.256250X0.218750X0.256250X-0.218750X0.256250X0*%
%TD*%
%TA.AperFunction,SMDPad,CuDef*%
%ADD11RoundRect,0.135000X0.185000X-0.135000X0.185000X0.135000X-0.185000X0.135000X-0.185000X-0.135000X0*%
%TD*%
%TA.AperFunction,SMDPad,CuDef*%
%ADD12R,3.000000X3.000000*%
%TD*%
%TA.AperFunction,SMDPad,CuDef*%
%ADD13RoundRect,0.135000X0.135000X0.185000X-0.135000X0.185000X-0.135000X-0.185000X0.135000X-0.185000X0*%
%TD*%
%TA.AperFunction,SMDPad,CuDef*%
%ADD14RoundRect,0.050000X-0.375000X-0.050000X0.375000X-0.050000X0.375000X0.050000X-0.375000X0.050000X0*%
%TD*%
%TA.AperFunction,SMDPad,CuDef*%
%ADD15RoundRect,0.050000X-0.050000X-0.375000X0.050000X-0.375000X0.050000X0.375000X-0.050000X0.375000X0*%
%TD*%
%TA.AperFunction,HeatsinkPad*%
%ADD16R,1.650000X1.650000*%
%TD*%
%TA.AperFunction,SMDPad,CuDef*%
%ADD17RoundRect,0.135000X-0.185000X0.135000X-0.185000X-0.135000X0.185000X-0.135000X0.185000X0.135000X0*%
%TD*%
%TA.AperFunction,SMDPad,CuDef*%
%ADD18RoundRect,0.135000X-0.135000X-0.185000X0.135000X-0.185000X0.135000X0.185000X-0.135000X0.185000X0*%
%TD*%
%TA.AperFunction,ComponentPad*%
%ADD19R,1.700000X1.700000*%
%TD*%
%TA.AperFunction,ComponentPad*%
%ADD20C,1.700000*%
%TD*%
%TA.AperFunction,SMDPad,CuDef*%
%ADD21RoundRect,0.140000X0.140000X0.170000X-0.140000X0.170000X-0.140000X-0.170000X0.140000X-0.170000X0*%
%TD*%
%TA.AperFunction,ComponentPad*%
%ADD22RotRect,1.700000X1.700000X320.000000*%
%TD*%
%TA.AperFunction,ViaPad*%
%ADD23C,0.600000*%
%TD*%
%TA.AperFunction,Conductor*%
%ADD24C,0.200000*%
%TD*%
%TA.AperFunction,Conductor*%
%ADD25C,0.500000*%
%TD*%
G04 APERTURE END LIST*
D10*
%TO.P,D1,2,A_2*%
%TO.N,Net-(D1-A)*%
X153900000Y-100500000D03*
%TO.P,D1,1,K_1*%
%TO.N,GND*%
X152325000Y-100500000D03*
%TD*%
D11*
%TO.P,R2,1*%
%TO.N,+3.7V*%
X155137499Y-100910003D03*
%TO.P,R2,2*%
%TO.N,Net-(D1-A)*%
X155137505Y-99889997D03*
%TD*%
D10*
%TO.P,D13,1,K_1*%
%TO.N,GND*%
X129925000Y-92800000D03*
%TO.P,D13,2,A_2*%
%TO.N,Net-(D13-A)*%
X131500000Y-92800000D03*
%TD*%
D12*
%TO.P,TP6,1,1_1*%
%TO.N,/LED_DOUT*%
X144200000Y-120200000D03*
%TD*%
D13*
%TO.P,R16,1*%
%TO.N,+3.7V*%
X135410000Y-81800000D03*
%TO.P,R16,2*%
%TO.N,Net-(D15-A)*%
X134390000Y-81800000D03*
%TD*%
D14*
%TO.P,U2,1,PD7_1*%
%TO.N,/PD7*%
X142940000Y-91690000D03*
%TO.P,U2,2,PA1_2*%
%TO.N,/PA1*%
X142940000Y-91290000D03*
%TO.P,U2,3,PA2_3*%
%TO.N,/PA2*%
X142940000Y-90890000D03*
%TO.P,U2,4,VSS_4*%
%TO.N,GND*%
X142940000Y-90490000D03*
%TO.P,U2,5,PD0_5*%
%TO.N,/PD0*%
X142940000Y-90090000D03*
D15*
%TO.P,U2,6,VDD_6*%
%TO.N,+3.7V*%
X143590000Y-89440000D03*
%TO.P,U2,7,PC0_7*%
%TO.N,/LED_DOUT*%
X143990000Y-89440000D03*
%TO.P,U2,8,PC1_8*%
%TO.N,/PC1*%
X144390000Y-89440000D03*
%TO.P,U2,9,PC2_9*%
%TO.N,/PC2*%
X144790000Y-89440000D03*
%TO.P,U2,10,PC3_10*%
%TO.N,/PC0*%
X145190000Y-89440000D03*
D14*
%TO.P,U2,11,PC4_11*%
%TO.N,/PC4*%
X145840000Y-90090000D03*
%TO.P,U2,12,PC5_12*%
%TO.N,/PC5*%
X145840000Y-90490000D03*
%TO.P,U2,13,PC6_13*%
%TO.N,/PC6*%
X145840000Y-90890000D03*
%TO.P,U2,14,PC7_14*%
%TO.N,/PC7*%
X145840000Y-91290000D03*
%TO.P,U2,15,SWIO_15*%
%TO.N,/SWIO*%
X145840000Y-91690000D03*
D15*
%TO.P,U2,16,PD2_16*%
%TO.N,/PD2*%
X145190000Y-92340000D03*
%TO.P,U2,17,PD3_17*%
%TO.N,/PD3*%
X144790000Y-92340000D03*
%TO.P,U2,18,PD4_18*%
%TO.N,/PD4*%
X144390000Y-92340000D03*
%TO.P,U2,19,PD5_19*%
%TO.N,/PD5*%
X143990000Y-92340000D03*
%TO.P,U2,20,PD6_20*%
%TO.N,/PD6*%
X143590000Y-92340000D03*
D16*
%TO.P,U2,21,VSS_21*%
%TO.N,GND*%
X144390000Y-90890000D03*
%TD*%
D17*
%TO.P,R1,1*%
%TO.N,+3.7V*%
X140800000Y-88600000D03*
%TO.P,R1,2*%
%TO.N,/SWIO*%
X140800000Y-89620000D03*
%TD*%
D18*
%TO.P,R11,1*%
%TO.N,+3.7V*%
X138390000Y-111600000D03*
%TO.P,R11,2*%
%TO.N,Net-(D10-A)*%
X139410000Y-111600000D03*
%TD*%
%TO.P,R14,1*%
%TO.N,+3.7V*%
X130490000Y-91500000D03*
%TO.P,R14,2*%
%TO.N,Net-(D13-A)*%
X131510000Y-91500000D03*
%TD*%
D13*
%TO.P,R17,1*%
%TO.N,+3.7V*%
X151610000Y-81300000D03*
%TO.P,R17,2*%
%TO.N,Net-(D16-A)*%
X150590000Y-81300000D03*
%TD*%
D19*
%TO.P,J1,1,Pin_1_1*%
%TO.N,+3.7V*%
X147540000Y-83300000D03*
D20*
%TO.P,J1,2,Pin_2_2*%
%TO.N,GND*%
X145000000Y-83300000D03*
%TO.P,J1,3,Pin_3_3*%
%TO.N,/SWIO*%
X142460000Y-83300000D03*
%TD*%
D10*
%TO.P,D15,1,K_1*%
%TO.N,GND*%
X133900000Y-83000000D03*
%TO.P,D15,2,A_2*%
%TO.N,Net-(D15-A)*%
X135475000Y-83000000D03*
%TD*%
D18*
%TO.P,R13,1*%
%TO.N,+3.7V*%
X160790000Y-99600000D03*
%TO.P,R13,2*%
%TO.N,Net-(D12-A)*%
X161810000Y-99600000D03*
%TD*%
D12*
%TO.P,TP8,1,1_1*%
%TO.N,+3.7V*%
X167700000Y-96700000D03*
%TD*%
D10*
%TO.P,D11,1,K_1*%
%TO.N,GND*%
X143400000Y-98100000D03*
%TO.P,D11,2,A_2*%
%TO.N,Net-(D11-A)*%
X144975000Y-98100000D03*
%TD*%
D18*
%TO.P,R15,1*%
%TO.N,+3.7V*%
X130690000Y-97100000D03*
%TO.P,R15,2*%
%TO.N,Net-(D14-A)*%
X131710000Y-97100000D03*
%TD*%
D10*
%TO.P,D12,1,K_1*%
%TO.N,GND*%
X160412500Y-100900000D03*
%TO.P,D12,2,A_2*%
%TO.N,Net-(D12-A)*%
X161987500Y-100900000D03*
%TD*%
D12*
%TO.P,TP7,1,1_1*%
%TO.N,GND*%
X120700000Y-96700000D03*
%TD*%
%TO.P,TP5,1,1_1*%
%TO.N,GND*%
X144200000Y-73200000D03*
%TD*%
D10*
%TO.P,D14,1,K_1*%
%TO.N,GND*%
X130200000Y-98500000D03*
%TO.P,D14,2,A_2*%
%TO.N,Net-(D14-A)*%
X131775000Y-98500000D03*
%TD*%
%TO.P,D16,1,K_1*%
%TO.N,GND*%
X150100000Y-82600000D03*
%TO.P,D16,2,A_2*%
%TO.N,Net-(D16-A)*%
X151675000Y-82600000D03*
%TD*%
D21*
%TO.P,C3,1*%
%TO.N,+3.7V*%
X142770000Y-88640000D03*
%TO.P,C3,2*%
%TO.N,GND*%
X141810000Y-88640000D03*
%TD*%
D10*
%TO.P,D10,1,K_1*%
%TO.N,GND*%
X138300000Y-110400000D03*
%TO.P,D10,2,A_2*%
%TO.N,Net-(D10-A)*%
X139875000Y-110400000D03*
%TD*%
D22*
%TO.P,J2,1,Pin_1_1*%
%TO.N,GND*%
X127480446Y-85776707D03*
D20*
%TO.P,J2,2,Pin_2_2*%
%TO.N,+3.7V*%
X129113127Y-83830954D03*
%TD*%
D18*
%TO.P,R12,1*%
%TO.N,+3.7V*%
X144000000Y-96800000D03*
%TO.P,R12,2*%
%TO.N,Net-(D11-A)*%
X145020000Y-96800000D03*
%TD*%
D23*
%TO.N,/LED_DOUT*%
X143600000Y-84900000D03*
%TO.N,GND*%
X160400000Y-101700000D03*
X130200000Y-93800000D03*
%TO.N,+3.7V*%
X156500000Y-99100000D03*
X155774265Y-95774265D03*
X153974265Y-97574265D03*
X146900000Y-111400000D03*
X143800000Y-111800000D03*
%TO.N,/LED_DOUT*%
X144800000Y-75400000D03*
%TO.N,+3.7V*%
X141900000Y-87830000D03*
X138100000Y-88000000D03*
X130400000Y-90600000D03*
%TO.N,GND*%
X133200000Y-101300000D03*
%TO.N,+3.7V*%
X131400000Y-99600000D03*
%TO.N,GND*%
X138400000Y-109200000D03*
%TO.N,+3.7V*%
X140700000Y-112100000D03*
%TO.N,GND*%
X147700000Y-110500000D03*
%TO.N,+3.7V*%
X153500000Y-103500000D03*
X152600000Y-106100000D03*
%TO.N,GND*%
X155600000Y-101700000D03*
%TO.N,+3.7V*%
X158300000Y-104300000D03*
%TO.N,GND*%
X156800000Y-91400000D03*
%TO.N,+3.7V*%
X156500000Y-88900000D03*
%TO.N,GND*%
X140700000Y-82800000D03*
%TO.N,+3.7V*%
X138100000Y-84000000D03*
X153100000Y-83100000D03*
X165700000Y-96700000D03*
X167700000Y-96700000D03*
X129900000Y-96000000D03*
X137500000Y-101100000D03*
%TO.N,GND*%
X152900000Y-109900000D03*
X132000000Y-108200000D03*
X137600000Y-107100000D03*
X142200000Y-102900000D03*
X142000000Y-90500000D03*
X155800000Y-87400000D03*
X146300000Y-80200000D03*
X136000000Y-84100000D03*
X141800000Y-89300000D03*
X144390000Y-90890000D03*
X141200000Y-81700000D03*
X150000000Y-100100000D03*
X120700000Y-96700000D03*
X148500000Y-96800000D03*
X152700000Y-84000000D03*
X144190000Y-117200000D03*
X145420000Y-78380000D03*
%TO.N,/LED_DOUT*%
X144000000Y-87900000D03*
%TO.N,GND*%
X163300000Y-95600000D03*
%TD*%
%TO.N,/LED_DOUT*%
D24*
X143610000Y-84890000D02*
X143600000Y-84900000D01*
X143610000Y-82041471D02*
X143610000Y-84890000D01*
X146020000Y-79631471D02*
X143610000Y-82041471D01*
X146020000Y-78131471D02*
X146020000Y-79631471D01*
X145385686Y-77497157D02*
X146020000Y-78131471D01*
X145102843Y-77497157D02*
X145385686Y-77497157D01*
X144800000Y-77194314D02*
X145102843Y-77497157D01*
X144800000Y-75400000D02*
X144800000Y-77194314D01*
%TO.N,+3.7V*%
D25*
X146020000Y-84720000D02*
X147440000Y-83300000D01*
D24*
X154100000Y-84100000D02*
X154000000Y-84000000D01*
D25*
X146020000Y-84720000D02*
X146050000Y-84750000D01*
X146050000Y-84750000D02*
X153250000Y-84750000D01*
X153250000Y-84750000D02*
X154000000Y-84000000D01*
X141900000Y-87600000D02*
X143600000Y-85900000D01*
X141900000Y-87830000D02*
X141900000Y-87600000D01*
X143600000Y-85900000D02*
X144840000Y-85900000D01*
X144840000Y-85900000D02*
X146020000Y-84720000D01*
%TO.N,/SWIO*%
D24*
X142360000Y-83300000D02*
X140180000Y-85480000D01*
X140180000Y-85480000D02*
X140180000Y-89000000D01*
X140180000Y-89000000D02*
X140800000Y-89620000D01*
%TO.N,+3.7V*%
D25*
X138100000Y-88000000D02*
X136600000Y-86500000D01*
X136600000Y-86500000D02*
X136600000Y-85500000D01*
%TO.N,Net-(D1-A)*%
X155137505Y-99889997D02*
X154510003Y-99889997D01*
X154510003Y-99889997D02*
X153900000Y-100500000D01*
%TO.N,GND*%
X160412500Y-101687500D02*
X160400000Y-101700000D01*
X160412500Y-100900000D02*
X160412500Y-101687500D01*
X129925000Y-93525000D02*
X130200000Y-93800000D01*
X129925000Y-92800000D02*
X129925000Y-93525000D01*
%TO.N,+3.7V*%
D24*
X129900000Y-91500000D02*
X129187500Y-92212500D01*
X129187500Y-92212500D02*
X129187500Y-95287500D01*
X129187500Y-95287500D02*
X129900000Y-96000000D01*
X165700000Y-96700000D02*
X167700000Y-96700000D01*
X165700000Y-96700000D02*
X163700000Y-96700000D01*
X163700000Y-96700000D02*
X161658494Y-98741506D01*
X161658494Y-98741506D02*
X161648494Y-98741506D01*
X161648494Y-98741506D02*
X160790000Y-99600000D01*
X153974265Y-97574265D02*
X155774265Y-95774265D01*
X156500000Y-99637510D02*
X156500000Y-99100000D01*
X155137499Y-101000011D02*
X156500000Y-99637510D01*
X155137499Y-101000011D02*
X155900011Y-101000011D01*
X143800000Y-111800000D02*
X146500000Y-111800000D01*
X146500000Y-111800000D02*
X146900000Y-111400000D01*
X156500000Y-86500000D02*
X154100000Y-84100000D01*
D25*
X131400000Y-99600000D02*
X136000000Y-99600000D01*
X136000000Y-99600000D02*
X137500000Y-101100000D01*
X136600000Y-85500000D02*
X136800000Y-85300000D01*
X130490000Y-85500000D02*
X130490000Y-85133381D01*
X130490000Y-85500000D02*
X136600000Y-85500000D01*
X136800000Y-85300000D02*
X138100000Y-84000000D01*
X130490000Y-91500000D02*
X130490000Y-85500000D01*
X130490000Y-85133381D02*
X129568468Y-84211849D01*
D24*
X130400000Y-90600000D02*
X129900000Y-91100000D01*
X129900000Y-91100000D02*
X129900000Y-91500000D01*
X130490000Y-91500000D02*
X129900000Y-91500000D01*
X131037500Y-97447500D02*
X130690000Y-97100000D01*
X131400000Y-99600000D02*
X131037500Y-99237500D01*
X131037500Y-99237500D02*
X131037500Y-97447500D01*
X140700000Y-112100000D02*
X140580000Y-112220000D01*
X139010000Y-112220000D02*
X138390000Y-111600000D01*
X140580000Y-112220000D02*
X139010000Y-112220000D01*
X152600000Y-104400000D02*
X153500000Y-103500000D01*
X152600000Y-106100000D02*
X152600000Y-104400000D01*
X158300000Y-102700000D02*
X158550000Y-102450000D01*
X158200000Y-102100000D02*
X158550000Y-102450000D01*
X155900011Y-101000011D02*
X157000000Y-102100000D01*
X157000000Y-102100000D02*
X158200000Y-102100000D01*
X158300000Y-104300000D02*
X158300000Y-102700000D01*
X158550000Y-102450000D02*
X159348907Y-101651093D01*
X159348907Y-101651093D02*
X159348907Y-100748907D01*
X159348907Y-100748907D02*
X160497814Y-99600000D01*
X160497814Y-99600000D02*
X160790000Y-99600000D01*
X156500000Y-88900000D02*
X156500000Y-86500000D01*
X154000000Y-84000000D02*
X153100000Y-83100000D01*
X153100000Y-83100000D02*
X153100000Y-81800000D01*
X153100000Y-81800000D02*
X152600000Y-81300000D01*
X152600000Y-81300000D02*
X151610000Y-81300000D01*
D25*
X143260001Y-89440000D02*
X143440000Y-89440000D01*
D24*
X135900000Y-81800000D02*
X138100000Y-84000000D01*
X141800000Y-96800000D02*
X137500000Y-101100000D01*
X138390000Y-111600000D02*
X138390000Y-111910000D01*
D25*
X141250001Y-87880000D02*
X140800000Y-88330001D01*
X140800000Y-88330001D02*
X140800000Y-88600000D01*
X142770000Y-88640000D02*
X142770000Y-88949999D01*
X141900000Y-87880000D02*
X141250001Y-87880000D01*
X142198266Y-87880000D02*
X141900000Y-87880000D01*
D24*
X130690000Y-96790000D02*
X129900000Y-96000000D01*
X144000000Y-96800000D02*
X141800000Y-96800000D01*
D25*
X142770000Y-88640000D02*
X142770000Y-88451734D01*
D24*
X130690000Y-97100000D02*
X130690000Y-96790000D01*
X135410000Y-81800000D02*
X135900000Y-81800000D01*
D25*
X142770000Y-88949999D02*
X143260001Y-89440000D01*
X142770000Y-88451734D02*
X142198266Y-87880000D01*
%TO.N,GND*%
D24*
X142010000Y-90490000D02*
X142000000Y-90500000D01*
X141810000Y-88640000D02*
X141810000Y-89290000D01*
X144200000Y-77160000D02*
X145420000Y-78380000D01*
X141810000Y-89290000D02*
X141800000Y-89300000D01*
X144200000Y-73200000D02*
X144200000Y-77160000D01*
X142940000Y-90490000D02*
X142010000Y-90490000D01*
%TO.N,/LED_DOUT*%
X155500000Y-89900000D02*
X153000000Y-87400000D01*
X153400000Y-97300000D02*
X155500000Y-95200000D01*
X148500000Y-99000000D02*
X150200000Y-97300000D01*
X153000000Y-87400000D02*
X144500000Y-87400000D01*
X155500000Y-95200000D02*
X155500000Y-89900000D01*
X145100000Y-114300000D02*
X148500000Y-110900000D01*
X145100000Y-119300000D02*
X145100000Y-114300000D01*
X143990000Y-87910000D02*
X144000000Y-87900000D01*
X143990000Y-87910000D02*
X143990000Y-89440000D01*
X144500000Y-87400000D02*
X144000000Y-87900000D01*
X150200000Y-97300000D02*
X153400000Y-97300000D01*
X148500000Y-110900000D02*
X148500000Y-99000000D01*
X144200000Y-120200000D02*
X145100000Y-119300000D01*
X143590000Y-119590000D02*
X144200000Y-120200000D01*
%TO.N,Net-(D13-A)*%
X131510000Y-92790000D02*
X131500000Y-92800000D01*
X131510000Y-91500000D02*
X131510000Y-92790000D01*
%TO.N,Net-(D15-A)*%
X134390000Y-81800000D02*
X134390000Y-81915000D01*
X134390000Y-81915000D02*
X135475000Y-83000000D01*
%TO.N,Net-(D10-A)*%
X139875000Y-111135000D02*
X139410000Y-111600000D01*
X139875000Y-110400000D02*
X139875000Y-111135000D01*
%TO.N,Net-(D16-A)*%
X150590000Y-81515000D02*
X151675000Y-82600000D01*
X150590000Y-81300000D02*
X150590000Y-81515000D01*
%TO.N,Net-(D12-A)*%
X161810000Y-100722500D02*
X161987500Y-100900000D01*
X161810000Y-99600000D02*
X161810000Y-100722500D01*
%TO.N,Net-(D11-A)*%
X145020000Y-96800000D02*
X145020000Y-98055000D01*
X145020000Y-98055000D02*
X144975000Y-98100000D01*
%TO.N,Net-(D14-A)*%
X131710000Y-98435000D02*
X131775000Y-98500000D01*
X131710000Y-97100000D02*
X131710000Y-98435000D01*
%TO.N,/SWIO*%
X145600000Y-93000000D02*
X144500000Y-94100000D01*
X145840000Y-91690000D02*
X145600000Y-91930000D01*
X144500000Y-94100000D02*
X142500000Y-94100000D01*
X140800000Y-92400000D02*
X140800000Y-89620000D01*
X145600000Y-91930000D02*
X145600000Y-93000000D01*
X142500000Y-94100000D02*
X140800000Y-92400000D01*
%TD*%
%TA.AperFunction,Conductor*%
%TO.N,GND*%
G36*
X144393039Y-73219685D02*
G01*
X144438794Y-73272489D01*
X144450000Y-73324000D01*
X144450000Y-74920114D01*
X144430315Y-74987153D01*
X144413681Y-75007795D01*
X144359493Y-75061982D01*
X144359488Y-75061988D01*
X144287017Y-75187511D01*
X144287016Y-75187515D01*
X144249500Y-75327525D01*
X144249500Y-75472475D01*
X144287016Y-75612485D01*
X144287017Y-75612488D01*
X144359488Y-75738011D01*
X144359493Y-75738017D01*
X144413181Y-75791705D01*
X144446666Y-75853028D01*
X144449500Y-75879386D01*
X144449500Y-77240458D01*
X144461853Y-77286558D01*
X144473386Y-77329601D01*
X144473387Y-77329604D01*
X144519527Y-77409522D01*
X144519529Y-77409525D01*
X144519530Y-77409526D01*
X144887631Y-77777627D01*
X144887633Y-77777628D01*
X144887637Y-77777631D01*
X144960250Y-77819554D01*
X144960253Y-77819555D01*
X144967555Y-77823771D01*
X145056699Y-77847657D01*
X145056700Y-77847657D01*
X145148987Y-77847657D01*
X145189142Y-77847657D01*
X145256181Y-77867342D01*
X145276823Y-77883976D01*
X145633181Y-78240334D01*
X145666666Y-78301657D01*
X145669500Y-78328015D01*
X145669500Y-79434927D01*
X145649815Y-79501966D01*
X145633181Y-79522608D01*
X143329531Y-81826257D01*
X143329530Y-81826259D01*
X143299116Y-81878939D01*
X143298210Y-81880508D01*
X143298208Y-81880511D01*
X143283386Y-81906180D01*
X143259500Y-81995327D01*
X143259500Y-82277213D01*
X143239815Y-82344252D01*
X143187011Y-82390007D01*
X143117853Y-82399951D01*
X143062616Y-82377532D01*
X143036791Y-82358769D01*
X142882447Y-82280128D01*
X142882446Y-82280127D01*
X142882445Y-82280127D01*
X142717701Y-82226598D01*
X142717699Y-82226597D01*
X142717698Y-82226597D01*
X142586271Y-82205781D01*
X142546611Y-82199500D01*
X142373389Y-82199500D01*
X142333728Y-82205781D01*
X142202302Y-82226597D01*
X142037552Y-82280128D01*
X141883211Y-82358768D01*
X141815888Y-82407682D01*
X141743072Y-82460586D01*
X141743070Y-82460588D01*
X141743069Y-82460588D01*
X141620588Y-82583069D01*
X141620588Y-82583070D01*
X141620586Y-82583072D01*
X141608287Y-82600000D01*
X141518768Y-82723211D01*
X141440128Y-82877552D01*
X141440127Y-82877554D01*
X141440127Y-82877555D01*
X141423694Y-82928129D01*
X141386597Y-83042302D01*
X141365980Y-83172475D01*
X141359500Y-83213389D01*
X141359500Y-83386611D01*
X141362030Y-83402583D01*
X141386597Y-83557698D01*
X141417073Y-83651494D01*
X141419068Y-83721336D01*
X141386823Y-83777493D01*
X139899531Y-85264786D01*
X139899525Y-85264794D01*
X139863862Y-85326566D01*
X139863862Y-85326567D01*
X139853387Y-85344709D01*
X139853386Y-85344712D01*
X139829500Y-85433856D01*
X139829500Y-89046145D01*
X139846497Y-89109580D01*
X139853385Y-89135285D01*
X139853387Y-89135290D01*
X139899527Y-89215208D01*
X139899529Y-89215211D01*
X139899530Y-89215212D01*
X140057800Y-89373482D01*
X140193181Y-89508862D01*
X140226666Y-89570185D01*
X140229500Y-89596543D01*
X140229500Y-89791582D01*
X140240418Y-89866518D01*
X140240418Y-89866519D01*
X140240419Y-89866521D01*
X140296921Y-89982099D01*
X140296923Y-89982102D01*
X140387896Y-90073075D01*
X140396259Y-90079046D01*
X140394080Y-90082097D01*
X140431538Y-90116316D01*
X140449500Y-90180596D01*
X140449500Y-92446145D01*
X140462046Y-92492969D01*
X140473384Y-92535283D01*
X140473387Y-92535290D01*
X140519527Y-92615208D01*
X140519529Y-92615211D01*
X140519530Y-92615212D01*
X142284788Y-94380470D01*
X142364712Y-94426614D01*
X142453856Y-94450500D01*
X142453858Y-94450500D01*
X144546142Y-94450500D01*
X144546144Y-94450500D01*
X144635288Y-94426614D01*
X144715212Y-94380470D01*
X145880470Y-93215212D01*
X145926614Y-93135288D01*
X145928936Y-93126619D01*
X145928939Y-93126615D01*
X145928938Y-93126615D01*
X145935157Y-93103404D01*
X145950500Y-93046144D01*
X145950500Y-92164499D01*
X145970185Y-92097460D01*
X146022989Y-92051705D01*
X146074500Y-92040499D01*
X146259856Y-92040499D01*
X146259864Y-92040499D01*
X146259879Y-92040497D01*
X146259882Y-92040497D01*
X146284987Y-92037586D01*
X146284988Y-92037585D01*
X146284991Y-92037585D01*
X146387765Y-91992206D01*
X146467206Y-91912765D01*
X146512585Y-91809991D01*
X146515500Y-91784865D01*
X146515499Y-91595136D01*
X146512585Y-91570009D01*
X146505681Y-91554374D01*
X146499373Y-91540086D01*
X146490301Y-91470808D01*
X146499374Y-91439912D01*
X146512584Y-91409995D01*
X146512584Y-91409994D01*
X146512584Y-91409993D01*
X146512585Y-91409991D01*
X146515500Y-91384865D01*
X146515499Y-91195136D01*
X146512585Y-91170009D01*
X146505681Y-91154374D01*
X146499373Y-91140086D01*
X146490301Y-91070808D01*
X146499374Y-91039912D01*
X146512584Y-91009995D01*
X146512584Y-91009994D01*
X146512584Y-91009993D01*
X146512585Y-91009991D01*
X146515500Y-90984865D01*
X146515499Y-90795136D01*
X146512585Y-90770009D01*
X146505681Y-90754374D01*
X146499373Y-90740086D01*
X146490301Y-90670808D01*
X146499374Y-90639912D01*
X146512584Y-90609995D01*
X146512584Y-90609994D01*
X146512584Y-90609993D01*
X146512585Y-90609991D01*
X146515500Y-90584865D01*
X146515499Y-90395136D01*
X146512585Y-90370009D01*
X146505681Y-90354374D01*
X146499373Y-90340086D01*
X146490301Y-90270808D01*
X146499374Y-90239912D01*
X146512584Y-90209995D01*
X146512584Y-90209994D01*
X146512584Y-90209993D01*
X146512585Y-90209991D01*
X146515500Y-90184865D01*
X146515499Y-89995136D01*
X146512585Y-89970009D01*
X146467206Y-89867235D01*
X146387765Y-89787794D01*
X146387763Y-89787793D01*
X146284992Y-89742415D01*
X146259868Y-89739500D01*
X146259865Y-89739500D01*
X145664499Y-89739500D01*
X145597460Y-89719815D01*
X145551705Y-89667011D01*
X145540499Y-89615500D01*
X145540499Y-89020143D01*
X145540499Y-89020136D01*
X145540007Y-89015891D01*
X145537586Y-88995012D01*
X145537585Y-88995010D01*
X145537585Y-88995009D01*
X145492206Y-88892235D01*
X145412765Y-88812794D01*
X145309992Y-88767415D01*
X145284865Y-88764500D01*
X145095142Y-88764500D01*
X145095118Y-88764502D01*
X145070014Y-88767413D01*
X145070010Y-88767414D01*
X145040083Y-88780628D01*
X144970804Y-88789697D01*
X144939915Y-88780627D01*
X144909992Y-88767415D01*
X144884865Y-88764500D01*
X144695142Y-88764500D01*
X144695118Y-88764502D01*
X144670014Y-88767413D01*
X144670010Y-88767414D01*
X144640083Y-88780628D01*
X144570804Y-88789697D01*
X144564204Y-88788479D01*
X144551649Y-88785808D01*
X144509991Y-88767415D01*
X144484865Y-88764500D01*
X144451460Y-88764500D01*
X144438704Y-88761787D01*
X144418973Y-88751131D01*
X144397461Y-88744815D01*
X144388828Y-88734852D01*
X144377226Y-88728587D01*
X144366386Y-88708953D01*
X144351706Y-88692011D01*
X144348241Y-88676086D01*
X144343457Y-88667420D01*
X144344138Y-88657226D01*
X144340500Y-88640500D01*
X144340500Y-88389386D01*
X144360185Y-88322347D01*
X144376819Y-88301705D01*
X144396819Y-88281705D01*
X144440509Y-88238015D01*
X144512984Y-88112485D01*
X144550500Y-87972475D01*
X144550500Y-87896544D01*
X144570185Y-87829505D01*
X144586819Y-87808863D01*
X144608863Y-87786819D01*
X144670186Y-87753334D01*
X144696544Y-87750500D01*
X152803456Y-87750500D01*
X152870495Y-87770185D01*
X152891137Y-87786819D01*
X155113181Y-90008863D01*
X155146666Y-90070186D01*
X155149500Y-90096544D01*
X155149500Y-95003456D01*
X155129815Y-95070495D01*
X155113181Y-95091137D01*
X153291137Y-96913181D01*
X153229814Y-96946666D01*
X153203456Y-96949500D01*
X150153856Y-96949500D01*
X150064712Y-96973386D01*
X150064709Y-96973387D01*
X149984791Y-97019527D01*
X149984786Y-97019531D01*
X148219531Y-98784786D01*
X148219529Y-98784789D01*
X148210095Y-98801130D01*
X148199495Y-98819491D01*
X148196026Y-98825499D01*
X148196025Y-98825500D01*
X148173387Y-98864709D01*
X148173386Y-98864712D01*
X148149500Y-98953856D01*
X148149500Y-110703456D01*
X148129815Y-110770495D01*
X148113181Y-110791137D01*
X147629056Y-111275261D01*
X147567733Y-111308746D01*
X147498041Y-111303762D01*
X147442108Y-111261890D01*
X147421601Y-111219676D01*
X147412984Y-111187515D01*
X147386190Y-111141107D01*
X147340511Y-111061988D01*
X147340506Y-111061982D01*
X147238017Y-110959493D01*
X147238011Y-110959488D01*
X147112488Y-110887017D01*
X147112489Y-110887017D01*
X147099165Y-110883447D01*
X146972475Y-110849500D01*
X146827525Y-110849500D01*
X146700835Y-110883447D01*
X146687511Y-110887017D01*
X146561988Y-110959488D01*
X146561982Y-110959493D01*
X146459493Y-111061982D01*
X146459488Y-111061988D01*
X146387017Y-111187511D01*
X146349499Y-111327528D01*
X146348439Y-111335585D01*
X146346609Y-111335344D01*
X146329815Y-111392539D01*
X146277011Y-111438294D01*
X146225500Y-111449500D01*
X144279386Y-111449500D01*
X144212347Y-111429815D01*
X144191705Y-111413181D01*
X144138017Y-111359493D01*
X144138011Y-111359488D01*
X144012488Y-111287017D01*
X144012489Y-111287017D01*
X144001006Y-111283940D01*
X143872475Y-111249500D01*
X143727525Y-111249500D01*
X143598993Y-111283940D01*
X143587511Y-111287017D01*
X143461988Y-111359488D01*
X143461982Y-111359493D01*
X143359493Y-111461982D01*
X143359488Y-111461988D01*
X143287017Y-111587511D01*
X143287016Y-111587515D01*
X143249500Y-111727525D01*
X143249500Y-111872475D01*
X143287016Y-112012485D01*
X143287017Y-112012488D01*
X143359488Y-112138011D01*
X143359490Y-112138013D01*
X143359491Y-112138015D01*
X143461985Y-112240509D01*
X143461986Y-112240510D01*
X143461988Y-112240511D01*
X143587511Y-112312982D01*
X143587512Y-112312982D01*
X143587515Y-112312984D01*
X143727525Y-112350500D01*
X143727528Y-112350500D01*
X143872472Y-112350500D01*
X143872475Y-112350500D01*
X144012485Y-112312984D01*
X144138015Y-112240509D01*
X144191705Y-112186819D01*
X144253028Y-112153334D01*
X144279386Y-112150500D01*
X146454456Y-112150500D01*
X146521495Y-112170185D01*
X146567250Y-112222989D01*
X146577194Y-112292147D01*
X146548169Y-112355703D01*
X146542137Y-112362181D01*
X144819531Y-114084786D01*
X144819527Y-114084791D01*
X144773387Y-114164709D01*
X144773386Y-114164712D01*
X144749500Y-114253856D01*
X144749500Y-118325500D01*
X144729815Y-118392539D01*
X144677011Y-118438294D01*
X144625500Y-118449500D01*
X143324500Y-118449500D01*
X143257461Y-118429815D01*
X143211706Y-118377011D01*
X143200500Y-118325500D01*
X143200500Y-116662466D01*
X143204032Y-116615502D01*
X143200500Y-116596807D01*
X143200500Y-116577779D01*
X143188309Y-116532283D01*
X143179567Y-116486009D01*
X143171317Y-116468866D01*
X143166392Y-116450485D01*
X143142839Y-116409691D01*
X143122420Y-116367260D01*
X143110014Y-116352836D01*
X143100500Y-116336357D01*
X143070493Y-116306350D01*
X143064164Y-116299527D01*
X143036489Y-116267350D01*
X143036125Y-116267102D01*
X143020769Y-116256626D01*
X143007314Y-116243171D01*
X142966522Y-116219619D01*
X142949500Y-116208007D01*
X142927623Y-116193083D01*
X142927622Y-116193082D01*
X142927621Y-116193082D01*
X142920618Y-116190629D01*
X142899617Y-116180991D01*
X142893192Y-116177282D01*
X142893182Y-116177277D01*
X142852187Y-116166292D01*
X142852187Y-116166291D01*
X142847672Y-116165081D01*
X142803244Y-116149522D01*
X142784274Y-116148095D01*
X142773061Y-116145091D01*
X142765896Y-116143171D01*
X142765892Y-116143171D01*
X142729123Y-116143171D01*
X142717081Y-116142585D01*
X141878754Y-116060783D01*
X141873289Y-116060127D01*
X141021784Y-115938687D01*
X141016365Y-115937791D01*
X140769020Y-115891232D01*
X140171093Y-115778680D01*
X140165708Y-115777542D01*
X139328332Y-115581075D01*
X139323002Y-115579699D01*
X138495171Y-115346262D01*
X138489923Y-115344655D01*
X137673230Y-115074695D01*
X137668053Y-115072855D01*
X136864211Y-114766940D01*
X136859111Y-114764869D01*
X136069599Y-114423564D01*
X136064596Y-114421268D01*
X135291017Y-114045263D01*
X135286121Y-114042747D01*
X134530015Y-113632794D01*
X134525235Y-113630064D01*
X133788041Y-113186941D01*
X133783387Y-113184001D01*
X133066579Y-112708594D01*
X133062061Y-112705450D01*
X132367090Y-112198721D01*
X132362715Y-112195381D01*
X132334063Y-112172475D01*
X131690858Y-111658261D01*
X131686673Y-111654759D01*
X131609814Y-111587511D01*
X131099614Y-111141107D01*
X131039369Y-111088395D01*
X131035308Y-111084680D01*
X130620869Y-110688244D01*
X130580888Y-110650000D01*
X137362501Y-110650000D01*
X137362501Y-110704152D01*
X137372556Y-110802583D01*
X137425406Y-110962072D01*
X137425408Y-110962077D01*
X137513614Y-111105080D01*
X137632419Y-111223885D01*
X137775422Y-111312091D01*
X137775427Y-111312093D01*
X137784504Y-111315101D01*
X137841949Y-111354874D01*
X137868772Y-111419389D01*
X137869500Y-111432807D01*
X137869500Y-111821582D01*
X137880418Y-111896518D01*
X137880418Y-111896519D01*
X137880419Y-111896521D01*
X137936921Y-112012099D01*
X137936923Y-112012102D01*
X138027896Y-112103075D01*
X138027897Y-112103075D01*
X138027898Y-112103076D01*
X138099370Y-112138017D01*
X138125713Y-112150895D01*
X138158934Y-112174615D01*
X138174788Y-112190469D01*
X138174791Y-112190470D01*
X138174794Y-112190473D01*
X138254706Y-112236611D01*
X138254707Y-112236611D01*
X138254712Y-112236614D01*
X138343856Y-112260500D01*
X138343858Y-112260500D01*
X138436142Y-112260500D01*
X138436144Y-112260500D01*
X138460588Y-112253950D01*
X138530434Y-112255611D01*
X138580362Y-112286043D01*
X138729531Y-112435212D01*
X138794788Y-112500469D01*
X138794791Y-112500470D01*
X138794794Y-112500473D01*
X138874706Y-112546611D01*
X138874707Y-112546611D01*
X138874712Y-112546614D01*
X138963856Y-112570500D01*
X140380705Y-112570500D01*
X140442704Y-112587112D01*
X140487515Y-112612984D01*
X140627525Y-112650500D01*
X140627528Y-112650500D01*
X140772472Y-112650500D01*
X140772475Y-112650500D01*
X140912485Y-112612984D01*
X141038015Y-112540509D01*
X141140509Y-112438015D01*
X141212984Y-112312485D01*
X141250500Y-112172475D01*
X141250500Y-112027525D01*
X141212984Y-111887515D01*
X141174917Y-111821582D01*
X141140511Y-111761988D01*
X141140506Y-111761982D01*
X141038017Y-111659493D01*
X141038011Y-111659488D01*
X140912488Y-111587017D01*
X140912489Y-111587017D01*
X140901006Y-111583940D01*
X140772475Y-111549500D01*
X140627525Y-111549500D01*
X140498993Y-111583940D01*
X140487511Y-111587017D01*
X140361988Y-111659488D01*
X140361982Y-111659493D01*
X140259493Y-111761982D01*
X140259489Y-111761988D01*
X140233213Y-111807500D01*
X140182646Y-111855716D01*
X140125826Y-111869500D01*
X140054500Y-111869500D01*
X139987461Y-111849815D01*
X139941706Y-111797011D01*
X139930500Y-111745500D01*
X139930500Y-111626543D01*
X139950185Y-111559504D01*
X139966819Y-111538862D01*
X140056181Y-111449500D01*
X140155469Y-111350212D01*
X140201614Y-111270288D01*
X140220608Y-111199400D01*
X140225500Y-111181144D01*
X140225500Y-111177460D01*
X140227924Y-111166796D01*
X140242261Y-111141107D01*
X140254161Y-111114203D01*
X140259291Y-111110594D01*
X140261976Y-111105786D01*
X140279250Y-111096560D01*
X140305510Y-111078094D01*
X140320950Y-111072336D01*
X140428972Y-110991472D01*
X140509836Y-110883450D01*
X140556991Y-110757022D01*
X140560646Y-110723023D01*
X140562999Y-110701144D01*
X140563000Y-110701129D01*
X140563000Y-110098870D01*
X140562999Y-110098855D01*
X140560145Y-110072318D01*
X140556991Y-110042978D01*
X140509836Y-109916550D01*
X140428972Y-109808528D01*
X140320950Y-109727664D01*
X140320947Y-109727662D01*
X140194524Y-109680509D01*
X140138644Y-109674500D01*
X140138630Y-109674500D01*
X139611370Y-109674500D01*
X139611355Y-109674500D01*
X139555475Y-109680509D01*
X139429052Y-109727662D01*
X139429045Y-109727666D01*
X139317063Y-109811495D01*
X139251599Y-109835912D01*
X139183326Y-109821060D01*
X139137214Y-109777325D01*
X139086385Y-109694919D01*
X138967580Y-109576114D01*
X138824577Y-109487908D01*
X138824572Y-109487906D01*
X138665083Y-109435057D01*
X138566650Y-109425000D01*
X138550000Y-109425000D01*
X138550000Y-110276000D01*
X138530315Y-110343039D01*
X138477511Y-110388794D01*
X138426000Y-110400000D01*
X138300000Y-110400000D01*
X138300000Y-110526000D01*
X138280315Y-110593039D01*
X138227511Y-110638794D01*
X138176000Y-110650000D01*
X137362501Y-110650000D01*
X130580888Y-110650000D01*
X130569173Y-110638794D01*
X130413750Y-110490122D01*
X130409867Y-110486239D01*
X130327374Y-110400000D01*
X130036435Y-110095849D01*
X137362500Y-110095849D01*
X137362500Y-110150000D01*
X138050000Y-110150000D01*
X138050000Y-109424999D01*
X138033356Y-109425000D01*
X137934915Y-109435057D01*
X137775427Y-109487906D01*
X137775422Y-109487908D01*
X137632419Y-109576114D01*
X137513614Y-109694919D01*
X137425408Y-109837922D01*
X137425406Y-109837927D01*
X137372557Y-109997416D01*
X137362500Y-110095849D01*
X130036435Y-110095849D01*
X129815315Y-109864687D01*
X129811601Y-109860627D01*
X129245228Y-109213311D01*
X129241742Y-109209146D01*
X128704608Y-108537272D01*
X128701278Y-108532909D01*
X128194549Y-107837938D01*
X128191405Y-107833420D01*
X127715998Y-107116612D01*
X127713058Y-107111958D01*
X127413128Y-106612984D01*
X127269927Y-106374751D01*
X127267205Y-106369984D01*
X127236031Y-106312488D01*
X126857252Y-105613878D01*
X126854736Y-105608982D01*
X126478731Y-104835403D01*
X126476435Y-104830400D01*
X126393267Y-104638015D01*
X126135126Y-104040879D01*
X126133059Y-104035788D01*
X126096798Y-103940506D01*
X125827136Y-103231925D01*
X125825312Y-103226795D01*
X125555334Y-102410048D01*
X125553746Y-102404858D01*
X125320292Y-101576967D01*
X125318932Y-101571698D01*
X125122457Y-100734291D01*
X125121319Y-100728906D01*
X125118474Y-100713794D01*
X124962201Y-99883598D01*
X124961317Y-99878249D01*
X124839871Y-99026707D01*
X124839216Y-99021245D01*
X124835528Y-98983450D01*
X124818033Y-98804152D01*
X129262501Y-98804152D01*
X129272556Y-98902583D01*
X129325406Y-99062072D01*
X129325408Y-99062077D01*
X129413614Y-99205080D01*
X129532419Y-99323885D01*
X129675422Y-99412091D01*
X129675427Y-99412093D01*
X129834916Y-99464942D01*
X129933356Y-99474999D01*
X129950000Y-99474998D01*
X129950000Y-98750000D01*
X129262501Y-98750000D01*
X129262501Y-98804152D01*
X124818033Y-98804152D01*
X124761424Y-98224000D01*
X124757415Y-98182918D01*
X124757232Y-98180866D01*
X124756829Y-98175880D01*
X124756829Y-98134108D01*
X124751994Y-98116067D01*
X124751087Y-98104841D01*
X124751122Y-98104671D01*
X124751033Y-98104150D01*
X124750478Y-98096756D01*
X124736446Y-98056690D01*
X124733705Y-98047809D01*
X124722721Y-98006814D01*
X124713206Y-97990334D01*
X124706918Y-97972379D01*
X124680385Y-97933484D01*
X124678053Y-97929445D01*
X124666312Y-97909111D01*
X124656829Y-97892686D01*
X124643373Y-97879230D01*
X124632652Y-97863514D01*
X124596948Y-97832805D01*
X124591806Y-97827663D01*
X124563646Y-97799502D01*
X124563629Y-97799492D01*
X124557218Y-97795790D01*
X124547162Y-97789984D01*
X124532740Y-97777580D01*
X124490308Y-97757160D01*
X124449515Y-97733608D01*
X124449512Y-97733607D01*
X124449513Y-97733607D01*
X124442349Y-97731687D01*
X124431133Y-97728682D01*
X124413991Y-97720433D01*
X124367719Y-97711690D01*
X124363220Y-97710485D01*
X124363219Y-97710484D01*
X124335926Y-97703172D01*
X124322221Y-97699500D01*
X124322219Y-97699500D01*
X124303193Y-97699500D01*
X124284498Y-97695968D01*
X124237533Y-97699500D01*
X122824000Y-97699500D01*
X122756961Y-97679815D01*
X122711206Y-97627011D01*
X122700000Y-97575500D01*
X122700000Y-96950000D01*
X120824000Y-96950000D01*
X120756961Y-96930315D01*
X120711206Y-96877511D01*
X120700000Y-96826000D01*
X120700000Y-96574000D01*
X120719685Y-96506961D01*
X120772489Y-96461206D01*
X120824000Y-96450000D01*
X122700000Y-96450000D01*
X122700000Y-95824500D01*
X122719685Y-95757461D01*
X122772489Y-95711706D01*
X122824000Y-95700500D01*
X124237533Y-95700500D01*
X124284498Y-95704032D01*
X124303193Y-95700500D01*
X124322221Y-95700500D01*
X124363238Y-95689508D01*
X124372274Y-95687447D01*
X124413991Y-95679567D01*
X124420663Y-95676355D01*
X124442349Y-95668312D01*
X124442755Y-95668202D01*
X124449515Y-95666392D01*
X124490308Y-95642839D01*
X124532740Y-95622420D01*
X124547163Y-95610014D01*
X124563643Y-95600500D01*
X124596948Y-95567194D01*
X124632652Y-95536486D01*
X124643373Y-95520769D01*
X124656829Y-95507314D01*
X124680380Y-95466522D01*
X124706918Y-95427621D01*
X124713204Y-95409669D01*
X124719013Y-95399609D01*
X124719013Y-95399608D01*
X124719015Y-95399605D01*
X124720668Y-95396741D01*
X124722721Y-95393186D01*
X124733706Y-95352187D01*
X124736448Y-95343302D01*
X124739791Y-95333758D01*
X124750478Y-95303244D01*
X124751056Y-95295548D01*
X124751087Y-95295157D01*
X124751994Y-95283932D01*
X124756829Y-95265892D01*
X124756829Y-95224117D01*
X124757232Y-95219132D01*
X124757327Y-95218883D01*
X124757415Y-95217080D01*
X124807919Y-94699500D01*
X124839217Y-94378738D01*
X124839872Y-94373289D01*
X124961318Y-93521742D01*
X124962200Y-93516409D01*
X125121321Y-92671081D01*
X125122457Y-92665708D01*
X125134304Y-92615213D01*
X125318934Y-91828290D01*
X125320289Y-91823043D01*
X125553749Y-90995128D01*
X125555330Y-90989963D01*
X125825317Y-90173190D01*
X125827131Y-90168089D01*
X126133068Y-89364186D01*
X126135119Y-89359136D01*
X126476442Y-88569582D01*
X126478731Y-88564596D01*
X126480001Y-88561985D01*
X126854743Y-87791002D01*
X126857252Y-87786121D01*
X127071827Y-87390365D01*
X127121082Y-87340817D01*
X127189310Y-87325762D01*
X127254847Y-87349984D01*
X127260537Y-87354482D01*
X127300462Y-87387983D01*
X127350184Y-87421348D01*
X127350190Y-87421351D01*
X127485682Y-87469454D01*
X127629239Y-87477433D01*
X127769233Y-87444645D01*
X127894306Y-87373750D01*
X127894309Y-87373748D01*
X127937496Y-87332241D01*
X127937497Y-87332240D01*
X128353908Y-86835981D01*
X127793477Y-86365722D01*
X127754775Y-86307551D01*
X127753667Y-86237690D01*
X127769841Y-86202203D01*
X127786209Y-86177523D01*
X127787453Y-86176806D01*
X127880545Y-86083714D01*
X127946371Y-85969700D01*
X127949638Y-85957505D01*
X127963473Y-85945863D01*
X128032768Y-85936917D01*
X128093059Y-85964399D01*
X128675301Y-86452959D01*
X129091721Y-85956691D01*
X129125087Y-85906968D01*
X129125090Y-85906962D01*
X129173193Y-85771470D01*
X129181172Y-85627913D01*
X129148384Y-85487919D01*
X129077489Y-85362846D01*
X129077487Y-85362843D01*
X129035980Y-85319656D01*
X129035979Y-85319655D01*
X128810416Y-85130385D01*
X128771714Y-85072214D01*
X128770606Y-85002353D01*
X128807443Y-84942983D01*
X128870530Y-84912954D01*
X128909515Y-84912923D01*
X129026516Y-84931454D01*
X129026517Y-84931454D01*
X129199737Y-84931454D01*
X129199738Y-84931454D01*
X129370828Y-84904356D01*
X129436177Y-84883121D01*
X129506016Y-84881125D01*
X129562176Y-84913371D01*
X129953181Y-85304376D01*
X129986666Y-85365699D01*
X129989500Y-85392057D01*
X129989500Y-90180784D01*
X129969815Y-90247823D01*
X129963877Y-90256269D01*
X129959490Y-90261985D01*
X129887017Y-90387511D01*
X129887016Y-90387515D01*
X129849500Y-90527525D01*
X129849500Y-90527527D01*
X129849500Y-90603456D01*
X129829815Y-90670495D01*
X129813181Y-90691137D01*
X129619532Y-90884785D01*
X129619528Y-90884791D01*
X129587942Y-90939500D01*
X129573387Y-90964709D01*
X129573386Y-90964712D01*
X129549500Y-91053856D01*
X129549500Y-91303456D01*
X129529815Y-91370495D01*
X129513181Y-91391137D01*
X128907031Y-91997286D01*
X128907027Y-91997291D01*
X128882082Y-92040499D01*
X128882082Y-92040500D01*
X128860886Y-92077210D01*
X128851300Y-92112987D01*
X128837000Y-92166356D01*
X128837000Y-95333644D01*
X128852956Y-95393192D01*
X128858855Y-95415208D01*
X128860886Y-95422787D01*
X128860887Y-95422790D01*
X128907027Y-95502708D01*
X128907031Y-95502713D01*
X129313181Y-95908863D01*
X129346666Y-95970186D01*
X129349500Y-95996544D01*
X129349500Y-96072475D01*
X129370139Y-96149500D01*
X129387017Y-96212488D01*
X129459488Y-96338011D01*
X129459490Y-96338013D01*
X129459491Y-96338015D01*
X129561985Y-96440509D01*
X129561986Y-96440510D01*
X129561988Y-96440511D01*
X129687511Y-96512982D01*
X129687512Y-96512982D01*
X129687515Y-96512984D01*
X129827525Y-96550500D01*
X129903456Y-96550500D01*
X129970495Y-96570185D01*
X129991137Y-96586819D01*
X130139907Y-96735589D01*
X130173392Y-96796912D01*
X130174930Y-96841148D01*
X130169500Y-96878418D01*
X130169500Y-97321582D01*
X130178466Y-97383124D01*
X130168653Y-97452300D01*
X130122997Y-97505189D01*
X130055995Y-97525000D01*
X129933365Y-97525000D01*
X129933346Y-97525001D01*
X129834916Y-97535056D01*
X129675427Y-97587906D01*
X129675422Y-97587908D01*
X129532419Y-97676114D01*
X129413614Y-97794919D01*
X129325408Y-97937922D01*
X129325406Y-97937927D01*
X129272557Y-98097416D01*
X129262500Y-98195849D01*
X129262500Y-98250000D01*
X130076000Y-98250000D01*
X130143039Y-98269685D01*
X130188794Y-98322489D01*
X130200000Y-98374000D01*
X130200000Y-98500000D01*
X130326000Y-98500000D01*
X130393039Y-98519685D01*
X130438794Y-98572489D01*
X130450000Y-98624000D01*
X130450000Y-99474999D01*
X130466636Y-99474999D01*
X130466652Y-99474998D01*
X130565082Y-99464943D01*
X130645839Y-99438182D01*
X130715667Y-99435780D01*
X130772525Y-99468207D01*
X130813181Y-99508863D01*
X130846666Y-99570186D01*
X130849500Y-99596544D01*
X130849500Y-99672475D01*
X130876383Y-99772803D01*
X130887017Y-99812488D01*
X130959488Y-99938011D01*
X130959490Y-99938013D01*
X130959491Y-99938015D01*
X131061985Y-100040509D01*
X131061986Y-100040510D01*
X131061988Y-100040511D01*
X131187511Y-100112982D01*
X131187512Y-100112982D01*
X131187515Y-100112984D01*
X131327525Y-100150500D01*
X131327528Y-100150500D01*
X131472472Y-100150500D01*
X131472475Y-100150500D01*
X131612485Y-100112984D01*
X131612488Y-100112981D01*
X131619838Y-100109938D01*
X131667289Y-100100500D01*
X135741324Y-100100500D01*
X135808363Y-100120185D01*
X135829005Y-100136819D01*
X136957089Y-101264903D01*
X136983965Y-101305121D01*
X136987015Y-101312482D01*
X136987016Y-101312485D01*
X137059491Y-101438015D01*
X137161985Y-101540509D01*
X137161986Y-101540510D01*
X137161988Y-101540511D01*
X137287511Y-101612982D01*
X137287512Y-101612982D01*
X137287515Y-101612984D01*
X137427525Y-101650500D01*
X137427528Y-101650500D01*
X137572472Y-101650500D01*
X137572475Y-101650500D01*
X137712485Y-101612984D01*
X137838015Y-101540509D01*
X137940509Y-101438015D01*
X138012984Y-101312485D01*
X138050500Y-101172475D01*
X138050500Y-101096543D01*
X138070185Y-101029504D01*
X138086819Y-101008862D01*
X140691529Y-98404152D01*
X142462501Y-98404152D01*
X142472556Y-98502583D01*
X142525406Y-98662072D01*
X142525408Y-98662077D01*
X142613614Y-98805080D01*
X142732419Y-98923885D01*
X142875422Y-99012091D01*
X142875427Y-99012093D01*
X143034916Y-99064942D01*
X143133356Y-99074999D01*
X143150000Y-99074998D01*
X143150000Y-98350000D01*
X142462501Y-98350000D01*
X142462501Y-98404152D01*
X140691529Y-98404152D01*
X141908862Y-97186819D01*
X141970185Y-97153334D01*
X141996543Y-97150500D01*
X142558672Y-97150500D01*
X142625711Y-97170185D01*
X142671466Y-97222989D01*
X142681410Y-97292147D01*
X142652385Y-97355703D01*
X142646353Y-97362181D01*
X142613614Y-97394919D01*
X142525408Y-97537922D01*
X142525406Y-97537927D01*
X142472557Y-97697416D01*
X142462500Y-97795849D01*
X142462500Y-97850000D01*
X143276000Y-97850000D01*
X143343039Y-97869685D01*
X143388794Y-97922489D01*
X143400000Y-97974000D01*
X143400000Y-98100000D01*
X143526000Y-98100000D01*
X143593039Y-98119685D01*
X143638794Y-98172489D01*
X143650000Y-98224000D01*
X143650000Y-99074999D01*
X143666636Y-99074999D01*
X143666652Y-99074998D01*
X143765083Y-99064943D01*
X143924572Y-99012093D01*
X143924577Y-99012091D01*
X144067580Y-98923885D01*
X144186385Y-98805080D01*
X144237214Y-98722674D01*
X144289162Y-98675950D01*
X144358124Y-98664727D01*
X144417064Y-98688504D01*
X144421027Y-98691470D01*
X144421028Y-98691472D01*
X144499213Y-98750000D01*
X144529049Y-98772335D01*
X144529052Y-98772337D01*
X144614352Y-98804152D01*
X144655478Y-98819491D01*
X144684818Y-98822645D01*
X144711355Y-98825499D01*
X144711370Y-98825500D01*
X145238630Y-98825500D01*
X145238644Y-98825499D01*
X145260523Y-98823146D01*
X145294522Y-98819491D01*
X145420950Y-98772336D01*
X145528972Y-98691472D01*
X145609836Y-98583450D01*
X145656991Y-98457022D01*
X145660646Y-98423023D01*
X145662999Y-98401144D01*
X145663000Y-98401129D01*
X145663000Y-97798870D01*
X145662999Y-97798855D01*
X145660145Y-97772318D01*
X145656991Y-97742978D01*
X145653496Y-97733607D01*
X145609837Y-97616552D01*
X145609835Y-97616549D01*
X145528972Y-97508528D01*
X145442042Y-97443453D01*
X145400171Y-97387519D01*
X145395187Y-97317827D01*
X145428669Y-97256508D01*
X145473076Y-97212102D01*
X145473076Y-97212100D01*
X145473078Y-97212099D01*
X145508077Y-97140506D01*
X145529582Y-97096518D01*
X145540500Y-97021582D01*
X145540500Y-96578418D01*
X145529582Y-96503482D01*
X145514870Y-96473388D01*
X145473078Y-96387900D01*
X145473076Y-96387897D01*
X145382102Y-96296923D01*
X145382099Y-96296921D01*
X145266521Y-96240419D01*
X145266519Y-96240418D01*
X145266518Y-96240418D01*
X145191582Y-96229500D01*
X144848418Y-96229500D01*
X144773482Y-96240418D01*
X144773480Y-96240418D01*
X144773478Y-96240419D01*
X144657900Y-96296921D01*
X144657897Y-96296923D01*
X144597681Y-96357140D01*
X144536358Y-96390625D01*
X144466666Y-96385641D01*
X144422319Y-96357140D01*
X144362102Y-96296923D01*
X144362099Y-96296921D01*
X144246521Y-96240419D01*
X144246519Y-96240418D01*
X144246518Y-96240418D01*
X144171582Y-96229500D01*
X143828418Y-96229500D01*
X143753482Y-96240418D01*
X143753480Y-96240418D01*
X143753478Y-96240419D01*
X143637900Y-96296921D01*
X143637897Y-96296923D01*
X143546926Y-96387895D01*
X143540956Y-96396257D01*
X143537908Y-96394081D01*
X143503650Y-96431559D01*
X143439404Y-96449500D01*
X141753856Y-96449500D01*
X141664712Y-96473386D01*
X141664711Y-96473386D01*
X141664709Y-96473387D01*
X141664706Y-96473388D01*
X141584794Y-96519526D01*
X141584785Y-96519533D01*
X137693747Y-100410571D01*
X137632424Y-100444056D01*
X137562732Y-100439072D01*
X137518385Y-100410571D01*
X136307316Y-99199502D01*
X136307314Y-99199500D01*
X136213233Y-99145182D01*
X136193187Y-99133608D01*
X136129539Y-99116554D01*
X136065892Y-99099500D01*
X136065891Y-99099500D01*
X132545146Y-99099500D01*
X132478107Y-99079815D01*
X132432352Y-99027011D01*
X132422408Y-98957853D01*
X132428964Y-98932167D01*
X132456990Y-98857024D01*
X132456989Y-98857024D01*
X132456991Y-98857022D01*
X132461026Y-98819490D01*
X132462999Y-98801144D01*
X132463000Y-98801129D01*
X132463000Y-98198870D01*
X132462999Y-98198855D01*
X132460145Y-98172318D01*
X132456991Y-98142978D01*
X132442703Y-98104671D01*
X132409837Y-98016552D01*
X132409835Y-98016549D01*
X132408508Y-98014776D01*
X132328972Y-97908528D01*
X132220950Y-97827664D01*
X132220949Y-97827663D01*
X132141166Y-97797906D01*
X132085233Y-97756034D01*
X132060816Y-97690570D01*
X132060500Y-97681724D01*
X132060500Y-97666040D01*
X132080185Y-97599001D01*
X132096814Y-97578363D01*
X132163076Y-97512102D01*
X132163076Y-97512100D01*
X132163078Y-97512099D01*
X132196637Y-97443453D01*
X132219582Y-97396518D01*
X132230500Y-97321582D01*
X132230500Y-96878418D01*
X132219582Y-96803482D01*
X132186391Y-96735589D01*
X132163078Y-96687900D01*
X132163076Y-96687897D01*
X132072102Y-96596923D01*
X132072099Y-96596921D01*
X131956521Y-96540419D01*
X131956519Y-96540418D01*
X131956518Y-96540418D01*
X131881582Y-96529500D01*
X131538418Y-96529500D01*
X131463482Y-96540418D01*
X131463480Y-96540418D01*
X131463478Y-96540419D01*
X131347900Y-96596921D01*
X131347897Y-96596923D01*
X131287681Y-96657140D01*
X131226358Y-96690625D01*
X131156666Y-96685641D01*
X131129653Y-96671573D01*
X131120324Y-96665146D01*
X131052102Y-96596924D01*
X130946000Y-96545053D01*
X130938402Y-96539819D01*
X130934429Y-96534926D01*
X130921068Y-96525386D01*
X130486819Y-96091137D01*
X130453334Y-96029814D01*
X130450500Y-96003456D01*
X130450500Y-95927527D01*
X130450500Y-95927525D01*
X130412984Y-95787515D01*
X130404597Y-95772989D01*
X130340511Y-95661988D01*
X130340506Y-95661982D01*
X130238017Y-95559493D01*
X130238011Y-95559488D01*
X130112488Y-95487017D01*
X130112489Y-95487017D01*
X130101006Y-95483940D01*
X129972475Y-95449500D01*
X129972472Y-95449500D01*
X129896544Y-95449500D01*
X129829505Y-95429815D01*
X129808863Y-95413181D01*
X129574319Y-95178637D01*
X129540834Y-95117314D01*
X129538000Y-95090956D01*
X129538000Y-93898999D01*
X129557685Y-93831960D01*
X129610489Y-93786205D01*
X129661994Y-93774999D01*
X129675000Y-93774998D01*
X129675000Y-92924000D01*
X129694685Y-92856961D01*
X129747489Y-92811206D01*
X129799000Y-92800000D01*
X130051000Y-92800000D01*
X130118039Y-92819685D01*
X130163794Y-92872489D01*
X130175000Y-92924000D01*
X130175000Y-93774999D01*
X130191636Y-93774999D01*
X130191652Y-93774998D01*
X130290083Y-93764943D01*
X130449572Y-93712093D01*
X130449577Y-93712091D01*
X130592580Y-93623885D01*
X130711385Y-93505080D01*
X130762214Y-93422674D01*
X130814162Y-93375950D01*
X130883124Y-93364727D01*
X130942064Y-93388504D01*
X130946027Y-93391470D01*
X130946028Y-93391472D01*
X131054049Y-93472335D01*
X131054052Y-93472337D01*
X131141840Y-93505080D01*
X131180478Y-93519491D01*
X131209818Y-93522645D01*
X131236355Y-93525499D01*
X131236370Y-93525500D01*
X131763630Y-93525500D01*
X131763644Y-93525499D01*
X131785523Y-93523146D01*
X131819522Y-93519491D01*
X131945950Y-93472336D01*
X132053972Y-93391472D01*
X132134836Y-93283450D01*
X132181991Y-93157022D01*
X132187756Y-93103404D01*
X132187999Y-93101144D01*
X132188000Y-93101129D01*
X132188000Y-92498870D01*
X132187999Y-92498855D01*
X132182331Y-92446144D01*
X132181991Y-92442978D01*
X132181990Y-92442975D01*
X132134837Y-92316552D01*
X132134835Y-92316549D01*
X132115812Y-92291137D01*
X132053972Y-92208528D01*
X131988859Y-92159785D01*
X131947026Y-92128469D01*
X131905155Y-92072535D01*
X131900171Y-92002843D01*
X131933653Y-91941524D01*
X131963076Y-91912102D01*
X132019582Y-91796518D01*
X132030500Y-91721582D01*
X132030500Y-91278418D01*
X132019582Y-91203482D01*
X132003218Y-91170009D01*
X131963078Y-91087900D01*
X131963076Y-91087897D01*
X131872102Y-90996923D01*
X131872099Y-90996921D01*
X131756521Y-90940419D01*
X131756519Y-90940418D01*
X131756518Y-90940418D01*
X131681582Y-90929500D01*
X131338418Y-90929500D01*
X131275971Y-90938598D01*
X131263481Y-90940418D01*
X131168960Y-90986627D01*
X131100087Y-90998386D01*
X131035790Y-90971042D01*
X130996483Y-90913278D01*
X130990500Y-90875226D01*
X130990500Y-86124500D01*
X131010185Y-86057461D01*
X131062989Y-86011706D01*
X131114500Y-86000500D01*
X135975500Y-86000500D01*
X136042539Y-86020185D01*
X136088294Y-86072989D01*
X136099500Y-86124500D01*
X136099500Y-86565891D01*
X136133608Y-86693187D01*
X136166554Y-86750250D01*
X136199500Y-86807314D01*
X136199502Y-86807316D01*
X137557089Y-88164903D01*
X137583965Y-88205121D01*
X137587015Y-88212482D01*
X137587016Y-88212485D01*
X137659491Y-88338015D01*
X137761985Y-88440509D01*
X137761986Y-88440510D01*
X137761988Y-88440511D01*
X137887511Y-88512982D01*
X137887512Y-88512982D01*
X137887515Y-88512984D01*
X138027525Y-88550500D01*
X138027528Y-88550500D01*
X138172472Y-88550500D01*
X138172475Y-88550500D01*
X138312485Y-88512984D01*
X138438015Y-88440509D01*
X138540509Y-88338015D01*
X138612984Y-88212485D01*
X138650500Y-88072475D01*
X138650500Y-87927525D01*
X138612984Y-87787515D01*
X138602978Y-87770185D01*
X138540511Y-87661988D01*
X138540506Y-87661982D01*
X138438017Y-87559493D01*
X138438015Y-87559491D01*
X138312485Y-87487016D01*
X138312482Y-87487015D01*
X138305121Y-87483965D01*
X138264903Y-87457089D01*
X137136819Y-86329005D01*
X137103334Y-86267682D01*
X137100500Y-86241324D01*
X137100500Y-85758676D01*
X137120185Y-85691637D01*
X137136819Y-85670995D01*
X137200500Y-85607314D01*
X137463105Y-85344709D01*
X138264905Y-84542907D01*
X138305133Y-84516029D01*
X138312478Y-84512985D01*
X138312485Y-84512984D01*
X138438015Y-84440509D01*
X138540509Y-84338015D01*
X138612984Y-84212485D01*
X138650500Y-84072475D01*
X138650500Y-83927525D01*
X138612984Y-83787515D01*
X138574775Y-83721336D01*
X138540511Y-83661988D01*
X138540506Y-83661982D01*
X138438017Y-83559493D01*
X138438011Y-83559488D01*
X138312488Y-83487017D01*
X138312489Y-83487017D01*
X138299165Y-83483447D01*
X138172475Y-83449500D01*
X138172472Y-83449500D01*
X138096544Y-83449500D01*
X138029505Y-83429815D01*
X138008863Y-83413181D01*
X136115213Y-81519531D01*
X136115208Y-81519527D01*
X136035290Y-81473387D01*
X136035289Y-81473386D01*
X136035288Y-81473386D01*
X135946144Y-81449500D01*
X135946142Y-81449500D01*
X135939727Y-81447781D01*
X135880066Y-81411416D01*
X135869539Y-81395903D01*
X135869044Y-81396257D01*
X135863074Y-81387895D01*
X135772102Y-81296923D01*
X135772099Y-81296921D01*
X135656521Y-81240419D01*
X135656519Y-81240418D01*
X135656518Y-81240418D01*
X135581582Y-81229500D01*
X135238418Y-81229500D01*
X135163482Y-81240418D01*
X135163480Y-81240418D01*
X135163478Y-81240419D01*
X135047900Y-81296921D01*
X135047897Y-81296923D01*
X134987681Y-81357140D01*
X134926358Y-81390625D01*
X134856666Y-81385641D01*
X134812319Y-81357140D01*
X134752102Y-81296923D01*
X134752099Y-81296921D01*
X134636521Y-81240419D01*
X134636519Y-81240418D01*
X134636518Y-81240418D01*
X134561582Y-81229500D01*
X134218418Y-81229500D01*
X134143482Y-81240418D01*
X134143480Y-81240418D01*
X134143478Y-81240419D01*
X134027900Y-81296921D01*
X134027897Y-81296923D01*
X133936923Y-81387897D01*
X133936921Y-81387900D01*
X133880419Y-81503478D01*
X133880418Y-81503480D01*
X133880418Y-81503482D01*
X133869500Y-81578418D01*
X133869500Y-81578423D01*
X133869500Y-81901000D01*
X133849815Y-81968039D01*
X133797011Y-82013794D01*
X133745501Y-82025000D01*
X133633365Y-82025000D01*
X133633346Y-82025001D01*
X133534916Y-82035056D01*
X133375427Y-82087906D01*
X133375422Y-82087908D01*
X133232419Y-82176114D01*
X133113614Y-82294919D01*
X133025408Y-82437922D01*
X133025406Y-82437927D01*
X132972557Y-82597416D01*
X132962500Y-82695849D01*
X132962500Y-82750000D01*
X133776000Y-82750000D01*
X133843039Y-82769685D01*
X133888794Y-82822489D01*
X133900000Y-82874000D01*
X133900000Y-83000000D01*
X134026000Y-83000000D01*
X134093039Y-83019685D01*
X134138794Y-83072489D01*
X134150000Y-83124000D01*
X134150000Y-83974999D01*
X134166636Y-83974999D01*
X134166652Y-83974998D01*
X134265083Y-83964943D01*
X134424572Y-83912093D01*
X134424577Y-83912091D01*
X134567580Y-83823885D01*
X134686385Y-83705080D01*
X134737214Y-83622674D01*
X134789162Y-83575950D01*
X134858124Y-83564727D01*
X134917064Y-83588504D01*
X134921027Y-83591470D01*
X134921028Y-83591472D01*
X135015219Y-83661982D01*
X135029049Y-83672335D01*
X135029052Y-83672337D01*
X135116840Y-83705080D01*
X135155478Y-83719491D01*
X135184818Y-83722645D01*
X135211355Y-83725499D01*
X135211370Y-83725500D01*
X135738630Y-83725500D01*
X135738644Y-83725499D01*
X135760523Y-83723146D01*
X135794522Y-83719491D01*
X135920950Y-83672336D01*
X136028972Y-83591472D01*
X136109836Y-83483450D01*
X136156991Y-83357022D01*
X136161779Y-83312485D01*
X136162999Y-83301144D01*
X136163000Y-83301129D01*
X136163000Y-82858044D01*
X136182685Y-82791005D01*
X136235489Y-82745250D01*
X136304647Y-82735306D01*
X136368203Y-82764331D01*
X136374681Y-82770363D01*
X137410571Y-83806253D01*
X137444056Y-83867576D01*
X137439072Y-83937268D01*
X137410571Y-83981615D01*
X136429005Y-84963181D01*
X136367682Y-84996666D01*
X136341324Y-84999500D01*
X131062224Y-84999500D01*
X130995185Y-84979815D01*
X130954837Y-84937501D01*
X130922288Y-84881125D01*
X130890500Y-84826067D01*
X130797314Y-84732881D01*
X130226632Y-84162199D01*
X130193147Y-84100876D01*
X130191840Y-84055120D01*
X130203768Y-83979814D01*
X130213627Y-83917565D01*
X130213627Y-83744343D01*
X130186529Y-83573253D01*
X130133000Y-83408509D01*
X130111252Y-83365826D01*
X130104700Y-83352966D01*
X130095533Y-83304152D01*
X132962501Y-83304152D01*
X132972556Y-83402583D01*
X133025406Y-83562072D01*
X133025408Y-83562077D01*
X133113614Y-83705080D01*
X133232419Y-83823885D01*
X133375422Y-83912091D01*
X133375427Y-83912093D01*
X133534916Y-83964942D01*
X133633356Y-83974999D01*
X133650000Y-83974998D01*
X133650000Y-83250000D01*
X132962501Y-83250000D01*
X132962501Y-83304152D01*
X130095533Y-83304152D01*
X130091804Y-83284297D01*
X130118081Y-83219557D01*
X130125572Y-83210965D01*
X130409878Y-82913750D01*
X130413761Y-82909867D01*
X131035328Y-82315300D01*
X131039347Y-82311623D01*
X131686718Y-81745202D01*
X131690831Y-81741760D01*
X132362749Y-81204591D01*
X132367090Y-81201278D01*
X132535591Y-81078418D01*
X133062077Y-80694537D01*
X133066563Y-80691415D01*
X133783401Y-80215989D01*
X133788027Y-80213066D01*
X134525267Y-79769916D01*
X134529982Y-79767223D01*
X135286136Y-79357244D01*
X135291002Y-79354743D01*
X136064612Y-78978723D01*
X136069582Y-78976442D01*
X136859136Y-78635119D01*
X136864186Y-78633068D01*
X137668089Y-78327131D01*
X137673190Y-78325317D01*
X138489963Y-78055330D01*
X138495128Y-78053749D01*
X139323043Y-77820289D01*
X139328290Y-77818934D01*
X140165711Y-77622456D01*
X140171081Y-77621321D01*
X141016409Y-77462200D01*
X141021742Y-77461318D01*
X141873298Y-77339870D01*
X141878738Y-77339217D01*
X142717086Y-77257414D01*
X142719133Y-77257232D01*
X142724119Y-77256829D01*
X142765892Y-77256829D01*
X142783932Y-77251994D01*
X142795157Y-77251087D01*
X142795327Y-77251122D01*
X142795848Y-77251033D01*
X142803244Y-77250478D01*
X142843303Y-77236448D01*
X142843304Y-77236448D01*
X142847700Y-77234908D01*
X142893186Y-77222721D01*
X142909660Y-77213208D01*
X142920624Y-77209369D01*
X142920626Y-77209368D01*
X142924226Y-77208106D01*
X142927621Y-77206918D01*
X142962696Y-77182989D01*
X142970546Y-77178056D01*
X143007314Y-77156829D01*
X143020769Y-77143373D01*
X143036486Y-77132652D01*
X143067194Y-77096948D01*
X143100500Y-77063643D01*
X143110014Y-77047163D01*
X143122420Y-77032740D01*
X143142839Y-76990308D01*
X143166392Y-76949515D01*
X143171317Y-76931133D01*
X143179567Y-76913991D01*
X143188309Y-76867716D01*
X143200500Y-76822221D01*
X143200500Y-76814802D01*
X143202656Y-76791780D01*
X143204032Y-76784498D01*
X143200849Y-76742173D01*
X143200500Y-76732875D01*
X143200500Y-75324000D01*
X143220185Y-75256961D01*
X143272989Y-75211206D01*
X143324500Y-75200000D01*
X143950000Y-75200000D01*
X143950000Y-73324000D01*
X143969685Y-73256961D01*
X144022489Y-73211206D01*
X144074000Y-73200000D01*
X144326000Y-73200000D01*
X144393039Y-73219685D01*
G37*
%TD.AperFunction*%
%TA.AperFunction,Conductor*%
G36*
X145981585Y-77286557D02*
G01*
X146521256Y-77339217D01*
X146526707Y-77339871D01*
X147378249Y-77461317D01*
X147383598Y-77462201D01*
X148228906Y-77621319D01*
X148234291Y-77622457D01*
X148373907Y-77655214D01*
X149071698Y-77818932D01*
X149076967Y-77820292D01*
X149904858Y-78053746D01*
X149910048Y-78055334D01*
X150726795Y-78325312D01*
X150731925Y-78327136D01*
X151535797Y-78633062D01*
X151540879Y-78635126D01*
X152330400Y-78976435D01*
X152335403Y-78978731D01*
X153108982Y-79354736D01*
X153113878Y-79357252D01*
X153869997Y-79767212D01*
X153874751Y-79769927D01*
X154368133Y-80066496D01*
X154611958Y-80213058D01*
X154616612Y-80215998D01*
X155333420Y-80691405D01*
X155337938Y-80694549D01*
X156032909Y-81201278D01*
X156037272Y-81204608D01*
X156709146Y-81741742D01*
X156713311Y-81745228D01*
X157263476Y-82226598D01*
X157360630Y-82311604D01*
X157364691Y-82315319D01*
X157986228Y-82909857D01*
X157986239Y-82909867D01*
X157990122Y-82913750D01*
X158333131Y-83272336D01*
X158584680Y-83535308D01*
X158588395Y-83539369D01*
X158652803Y-83612982D01*
X159054840Y-84072475D01*
X159154759Y-84186673D01*
X159158261Y-84190858D01*
X159694554Y-84861681D01*
X159695381Y-84862715D01*
X159698721Y-84867090D01*
X160205450Y-85562061D01*
X160208594Y-85566579D01*
X160684001Y-86283387D01*
X160686941Y-86288041D01*
X161130064Y-87025235D01*
X161132794Y-87030015D01*
X161542747Y-87786121D01*
X161545263Y-87791017D01*
X161921268Y-88564596D01*
X161923564Y-88569599D01*
X162264869Y-89359111D01*
X162266940Y-89364211D01*
X162572855Y-90168053D01*
X162574695Y-90173230D01*
X162843566Y-90986627D01*
X162844651Y-90989907D01*
X162846262Y-90995171D01*
X163079699Y-91823002D01*
X163081075Y-91828332D01*
X163277542Y-92665708D01*
X163278680Y-92671093D01*
X163366059Y-93135288D01*
X163429503Y-93472337D01*
X163437789Y-93516352D01*
X163438687Y-93521784D01*
X163560127Y-94373289D01*
X163560783Y-94378754D01*
X163642585Y-95217080D01*
X163642768Y-95219135D01*
X163643171Y-95224122D01*
X163643171Y-95265892D01*
X163648003Y-95283927D01*
X163648911Y-95295159D01*
X163648876Y-95295324D01*
X163648964Y-95295838D01*
X163649520Y-95303235D01*
X163649524Y-95303251D01*
X163663549Y-95343300D01*
X163666292Y-95352187D01*
X163677277Y-95393182D01*
X163677282Y-95393192D01*
X163680988Y-95399612D01*
X163680989Y-95399612D01*
X163686793Y-95409665D01*
X163693082Y-95427621D01*
X163719619Y-95466522D01*
X163721952Y-95470562D01*
X163721952Y-95470563D01*
X163743167Y-95507308D01*
X163743169Y-95507311D01*
X163743170Y-95507313D01*
X163743172Y-95507315D01*
X163748412Y-95512555D01*
X163763166Y-95530356D01*
X163767102Y-95536125D01*
X163767350Y-95536489D01*
X163799526Y-95564163D01*
X163799527Y-95564163D01*
X163803051Y-95567194D01*
X163836357Y-95600500D01*
X163852836Y-95610014D01*
X163867260Y-95622420D01*
X163905511Y-95640827D01*
X163913722Y-95645166D01*
X163929870Y-95654489D01*
X163950481Y-95666390D01*
X163950482Y-95666390D01*
X163950485Y-95666392D01*
X163968866Y-95671317D01*
X163986009Y-95679567D01*
X164032283Y-95688309D01*
X164077779Y-95700500D01*
X164077782Y-95700500D01*
X164096807Y-95700500D01*
X164115502Y-95704032D01*
X164162467Y-95700500D01*
X165825500Y-95700500D01*
X165892539Y-95720185D01*
X165938294Y-95772989D01*
X165949500Y-95824500D01*
X165949500Y-96035334D01*
X165929815Y-96102373D01*
X165877011Y-96148128D01*
X165807853Y-96158072D01*
X165793410Y-96155109D01*
X165772475Y-96149500D01*
X165627525Y-96149500D01*
X165498993Y-96183940D01*
X165487511Y-96187017D01*
X165361988Y-96259488D01*
X165361982Y-96259493D01*
X165308295Y-96313181D01*
X165246972Y-96346666D01*
X165220614Y-96349500D01*
X163653856Y-96349500D01*
X163565383Y-96373205D01*
X163565384Y-96373206D01*
X163564711Y-96373386D01*
X163484787Y-96419531D01*
X163484784Y-96419533D01*
X161468484Y-98435832D01*
X161442807Y-98455536D01*
X161433280Y-98461036D01*
X160901137Y-98993181D01*
X160839814Y-99026666D01*
X160813456Y-99029500D01*
X160618418Y-99029500D01*
X160543482Y-99040418D01*
X160543480Y-99040418D01*
X160543478Y-99040419D01*
X160427900Y-99096921D01*
X160427897Y-99096923D01*
X160336924Y-99187896D01*
X160302735Y-99257831D01*
X160280418Y-99303482D01*
X160280417Y-99303483D01*
X160276190Y-99312132D01*
X160274755Y-99311430D01*
X160250543Y-99351587D01*
X159068438Y-100533693D01*
X159068432Y-100533701D01*
X159037539Y-100587211D01*
X159037539Y-100587212D01*
X159022294Y-100613616D01*
X159022293Y-100613619D01*
X158998407Y-100702763D01*
X158998407Y-101454549D01*
X158978722Y-101521588D01*
X158962088Y-101542230D01*
X158637681Y-101866637D01*
X158576358Y-101900122D01*
X158506666Y-101895138D01*
X158462319Y-101866637D01*
X158415213Y-101819531D01*
X158415208Y-101819527D01*
X158335290Y-101773387D01*
X158335289Y-101773386D01*
X158335288Y-101773386D01*
X158246144Y-101749500D01*
X158246143Y-101749500D01*
X157196543Y-101749500D01*
X157129504Y-101729815D01*
X157108862Y-101713181D01*
X156621181Y-101225500D01*
X156115223Y-100719541D01*
X156115218Y-100719538D01*
X156113345Y-100718101D01*
X156112159Y-100716477D01*
X156109476Y-100713794D01*
X156109894Y-100713375D01*
X156072141Y-100661674D01*
X156067984Y-100591928D01*
X156101146Y-100532044D01*
X156780469Y-99852722D01*
X156826614Y-99772798D01*
X156850500Y-99683654D01*
X156850500Y-99579386D01*
X156870185Y-99512347D01*
X156886819Y-99491705D01*
X156913582Y-99464942D01*
X156940509Y-99438015D01*
X157012984Y-99312485D01*
X157050500Y-99172475D01*
X157050500Y-99027525D01*
X157012984Y-98887515D01*
X157002555Y-98869452D01*
X156940511Y-98761988D01*
X156940506Y-98761982D01*
X156838017Y-98659493D01*
X156838011Y-98659488D01*
X156712488Y-98587017D01*
X156712489Y-98587017D01*
X156699165Y-98583447D01*
X156572475Y-98549500D01*
X156427525Y-98549500D01*
X156300835Y-98583447D01*
X156287511Y-98587017D01*
X156161988Y-98659488D01*
X156161982Y-98659493D01*
X156059493Y-98761982D01*
X156059488Y-98761988D01*
X155987017Y-98887511D01*
X155987016Y-98887515D01*
X155949500Y-99027525D01*
X155949500Y-99172475D01*
X155987016Y-99312485D01*
X155987017Y-99312488D01*
X156063555Y-99445054D01*
X156061021Y-99446516D01*
X156081146Y-99498574D01*
X156067107Y-99567018D01*
X156045257Y-99596570D01*
X155910152Y-99731675D01*
X155848829Y-99765160D01*
X155779137Y-99760176D01*
X155723204Y-99718304D01*
X155699767Y-99661873D01*
X155697087Y-99643479D01*
X155694727Y-99638653D01*
X155640583Y-99527897D01*
X155640581Y-99527894D01*
X155549607Y-99436920D01*
X155549604Y-99436918D01*
X155434026Y-99380416D01*
X155434024Y-99380415D01*
X155434023Y-99380415D01*
X155359087Y-99369497D01*
X154915923Y-99369497D01*
X154842971Y-99380125D01*
X154840980Y-99380416D01*
X154831784Y-99383258D01*
X154831043Y-99380860D01*
X154793721Y-99389497D01*
X154444111Y-99389497D01*
X154316816Y-99423605D01*
X154295729Y-99435780D01*
X154245618Y-99464712D01*
X154227802Y-99474998D01*
X154202690Y-99489496D01*
X154202687Y-99489498D01*
X153954005Y-99738181D01*
X153892682Y-99771666D01*
X153866324Y-99774500D01*
X153636355Y-99774500D01*
X153580475Y-99780509D01*
X153454052Y-99827662D01*
X153454045Y-99827666D01*
X153342063Y-99911495D01*
X153276599Y-99935912D01*
X153208326Y-99921060D01*
X153162214Y-99877325D01*
X153111385Y-99794919D01*
X152992580Y-99676114D01*
X152849577Y-99587908D01*
X152849572Y-99587906D01*
X152690083Y-99535057D01*
X152591650Y-99525000D01*
X152575000Y-99525000D01*
X152575000Y-101474999D01*
X152591636Y-101474999D01*
X152591652Y-101474998D01*
X152690083Y-101464943D01*
X152849572Y-101412093D01*
X152849577Y-101412091D01*
X152992580Y-101323885D01*
X153111385Y-101205080D01*
X153162214Y-101122674D01*
X153214162Y-101075950D01*
X153283124Y-101064727D01*
X153342064Y-101088504D01*
X153346027Y-101091470D01*
X153346028Y-101091472D01*
X153398491Y-101130745D01*
X153454049Y-101172335D01*
X153454052Y-101172337D01*
X153541840Y-101205080D01*
X153580478Y-101219491D01*
X153609818Y-101222645D01*
X153636355Y-101225499D01*
X153636370Y-101225500D01*
X154163630Y-101225500D01*
X154163644Y-101225499D01*
X154185523Y-101223146D01*
X154219522Y-101219491D01*
X154345950Y-101172336D01*
X154401511Y-101130743D01*
X154466971Y-101106327D01*
X154535244Y-101121178D01*
X154584650Y-101170582D01*
X154587219Y-101175550D01*
X154634422Y-101272104D01*
X154634422Y-101272105D01*
X154725396Y-101363079D01*
X154725399Y-101363081D01*
X154825652Y-101412091D01*
X154840981Y-101419585D01*
X154915917Y-101430503D01*
X154915922Y-101430503D01*
X155359076Y-101430503D01*
X155359081Y-101430503D01*
X155434017Y-101419585D01*
X155469546Y-101402215D01*
X155549538Y-101363111D01*
X155603998Y-101350511D01*
X155703467Y-101350511D01*
X155770506Y-101370196D01*
X155791148Y-101386830D01*
X156719531Y-102315212D01*
X156784788Y-102380469D01*
X156784791Y-102380470D01*
X156784794Y-102380473D01*
X156864706Y-102426611D01*
X156864707Y-102426611D01*
X156864712Y-102426614D01*
X156953856Y-102450500D01*
X157842389Y-102450500D01*
X157909428Y-102470185D01*
X157955183Y-102522989D01*
X157965127Y-102592147D01*
X157962164Y-102606593D01*
X157949500Y-102653856D01*
X157949500Y-103820614D01*
X157929815Y-103887653D01*
X157913181Y-103908295D01*
X157859493Y-103961982D01*
X157859488Y-103961988D01*
X157787017Y-104087511D01*
X157787016Y-104087515D01*
X157749500Y-104227525D01*
X157749500Y-104372475D01*
X157787016Y-104512485D01*
X157787017Y-104512488D01*
X157859488Y-104638011D01*
X157859490Y-104638013D01*
X157859491Y-104638015D01*
X157961985Y-104740509D01*
X157961986Y-104740510D01*
X157961988Y-104740511D01*
X158087511Y-104812982D01*
X158087512Y-104812982D01*
X158087515Y-104812984D01*
X158227525Y-104850500D01*
X158227528Y-104850500D01*
X158372472Y-104850500D01*
X158372475Y-104850500D01*
X158512485Y-104812984D01*
X158638015Y-104740509D01*
X158740509Y-104638015D01*
X158812984Y-104512485D01*
X158850500Y-104372475D01*
X158850500Y-104227525D01*
X158812984Y-104087515D01*
X158791613Y-104050500D01*
X158740511Y-103961988D01*
X158740506Y-103961982D01*
X158686819Y-103908295D01*
X158653334Y-103846972D01*
X158650500Y-103820614D01*
X158650500Y-102896543D01*
X158670185Y-102829504D01*
X158686813Y-102808867D01*
X158765210Y-102730471D01*
X158765212Y-102730470D01*
X158830470Y-102665212D01*
X159629377Y-101866305D01*
X159656521Y-101819290D01*
X159707086Y-101771074D01*
X159775693Y-101757850D01*
X159829005Y-101775751D01*
X159887916Y-101812088D01*
X159887927Y-101812093D01*
X160047416Y-101864942D01*
X160145856Y-101874999D01*
X160162500Y-101874998D01*
X160162500Y-101024000D01*
X160182185Y-100956961D01*
X160234989Y-100911206D01*
X160286500Y-100900000D01*
X160538500Y-100900000D01*
X160605539Y-100919685D01*
X160651294Y-100972489D01*
X160662500Y-101024000D01*
X160662500Y-101874999D01*
X160679136Y-101874999D01*
X160679152Y-101874998D01*
X160777583Y-101864943D01*
X160937072Y-101812093D01*
X160937077Y-101812091D01*
X161080080Y-101723885D01*
X161198885Y-101605080D01*
X161249714Y-101522674D01*
X161301662Y-101475950D01*
X161370624Y-101464727D01*
X161429564Y-101488504D01*
X161433527Y-101491470D01*
X161433528Y-101491472D01*
X161541549Y-101572335D01*
X161541552Y-101572337D01*
X161650532Y-101612984D01*
X161667978Y-101619491D01*
X161697318Y-101622645D01*
X161723855Y-101625499D01*
X161723870Y-101625500D01*
X162251130Y-101625500D01*
X162251144Y-101625499D01*
X162273023Y-101623146D01*
X162307022Y-101619491D01*
X162433450Y-101572336D01*
X162541472Y-101491472D01*
X162622336Y-101383450D01*
X162669491Y-101257022D01*
X162673526Y-101219490D01*
X162675499Y-101201144D01*
X162675500Y-101201129D01*
X162675500Y-100598870D01*
X162675499Y-100598855D01*
X162670020Y-100547901D01*
X162669491Y-100542978D01*
X162622336Y-100416550D01*
X162541472Y-100308528D01*
X162433450Y-100227664D01*
X162433448Y-100227663D01*
X162328347Y-100188462D01*
X162272414Y-100146590D01*
X162247997Y-100081126D01*
X162260281Y-100017819D01*
X162319581Y-99896520D01*
X162319580Y-99896520D01*
X162319582Y-99896518D01*
X162330500Y-99821582D01*
X162330500Y-99378418D01*
X162319582Y-99303482D01*
X162309884Y-99283644D01*
X162263078Y-99187900D01*
X162263076Y-99187897D01*
X162172103Y-99096924D01*
X162106682Y-99064942D01*
X162077369Y-99050611D01*
X162025789Y-99003485D01*
X162007874Y-98935951D01*
X162029315Y-98869452D01*
X162044145Y-98851536D01*
X163808863Y-97086819D01*
X163870186Y-97053334D01*
X163896544Y-97050500D01*
X165220614Y-97050500D01*
X165287653Y-97070185D01*
X165308295Y-97086819D01*
X165361985Y-97140509D01*
X165361986Y-97140510D01*
X165361988Y-97140511D01*
X165487511Y-97212982D01*
X165487512Y-97212982D01*
X165487515Y-97212984D01*
X165627525Y-97250500D01*
X165627528Y-97250500D01*
X165772472Y-97250500D01*
X165772475Y-97250500D01*
X165793407Y-97244891D01*
X165863253Y-97246552D01*
X165921117Y-97285713D01*
X165948623Y-97349940D01*
X165949500Y-97364665D01*
X165949500Y-97575500D01*
X165929815Y-97642539D01*
X165877011Y-97688294D01*
X165825500Y-97699500D01*
X164162467Y-97699500D01*
X164115502Y-97695968D01*
X164096807Y-97699500D01*
X164077773Y-97699500D01*
X164036778Y-97710484D01*
X164036779Y-97710485D01*
X164032278Y-97711690D01*
X163986009Y-97720433D01*
X163968867Y-97728681D01*
X163957650Y-97731687D01*
X163957648Y-97731686D01*
X163950488Y-97733606D01*
X163950481Y-97733609D01*
X163913715Y-97754834D01*
X163913716Y-97754835D01*
X163909679Y-97757165D01*
X163867260Y-97777580D01*
X163852838Y-97789982D01*
X163842782Y-97795789D01*
X163842780Y-97795789D01*
X163836367Y-97799492D01*
X163836356Y-97799500D01*
X163806339Y-97829517D01*
X163806338Y-97829516D01*
X163803037Y-97832816D01*
X163767348Y-97863514D01*
X163756628Y-97879226D01*
X163748423Y-97887432D01*
X163743173Y-97892682D01*
X163743171Y-97892685D01*
X163721942Y-97929450D01*
X163721943Y-97929451D01*
X163719619Y-97933477D01*
X163693082Y-97972379D01*
X163686793Y-97990332D01*
X163680987Y-98000390D01*
X163680985Y-98000391D01*
X163677280Y-98006809D01*
X163677279Y-98006813D01*
X163666295Y-98047803D01*
X163663552Y-98056690D01*
X163649524Y-98096745D01*
X163649520Y-98096764D01*
X163648964Y-98104162D01*
X163648911Y-98104841D01*
X163648003Y-98116071D01*
X163643171Y-98134108D01*
X163643171Y-98175875D01*
X163642768Y-98180863D01*
X163642672Y-98181110D01*
X163642585Y-98182918D01*
X163560783Y-99021245D01*
X163560127Y-99026710D01*
X163438687Y-99878215D01*
X163437789Y-99883647D01*
X163278680Y-100728906D01*
X163277542Y-100734291D01*
X163081075Y-101571667D01*
X163079699Y-101576997D01*
X162846262Y-102404828D01*
X162844651Y-102410092D01*
X162574699Y-103226760D01*
X162572855Y-103231946D01*
X162266940Y-104035788D01*
X162264869Y-104040888D01*
X161923564Y-104830400D01*
X161921268Y-104835403D01*
X161545263Y-105608982D01*
X161542747Y-105613878D01*
X161132794Y-106369984D01*
X161130064Y-106374764D01*
X160686941Y-107111958D01*
X160684001Y-107116612D01*
X160208594Y-107833420D01*
X160205450Y-107837938D01*
X159698721Y-108532909D01*
X159695381Y-108537284D01*
X159426836Y-108873194D01*
X159158279Y-109209119D01*
X159154771Y-109213312D01*
X158588369Y-109860660D01*
X158584684Y-109864688D01*
X157990132Y-110486239D01*
X157986239Y-110490132D01*
X157364691Y-111084680D01*
X157360630Y-111088395D01*
X156713326Y-111654759D01*
X156709119Y-111658279D01*
X156441196Y-111872472D01*
X156037284Y-112195381D01*
X156032909Y-112198721D01*
X155337938Y-112705450D01*
X155333420Y-112708594D01*
X154616612Y-113184001D01*
X154611958Y-113186941D01*
X153874764Y-113630064D01*
X153869984Y-113632794D01*
X153113878Y-114042747D01*
X153108982Y-114045263D01*
X152335403Y-114421268D01*
X152330400Y-114423564D01*
X151540888Y-114764869D01*
X151535788Y-114766940D01*
X150731946Y-115072855D01*
X150726760Y-115074699D01*
X149910092Y-115344651D01*
X149904828Y-115346262D01*
X149076997Y-115579699D01*
X149071667Y-115581075D01*
X148234291Y-115777542D01*
X148228906Y-115778680D01*
X147479368Y-115919770D01*
X147383641Y-115937789D01*
X147378215Y-115938687D01*
X146526710Y-116060127D01*
X146521245Y-116060783D01*
X145682919Y-116142585D01*
X145680864Y-116142768D01*
X145675877Y-116143171D01*
X145634108Y-116143171D01*
X145616071Y-116148003D01*
X145604841Y-116148911D01*
X145604675Y-116148876D01*
X145604162Y-116148964D01*
X145588660Y-116150131D01*
X145588497Y-116147970D01*
X145530195Y-116143309D01*
X145474614Y-116100970D01*
X145450746Y-116035304D01*
X145450500Y-116027494D01*
X145450500Y-114496544D01*
X145470185Y-114429505D01*
X145486819Y-114408863D01*
X146949635Y-112946047D01*
X148780470Y-111115212D01*
X148826614Y-111035288D01*
X148828890Y-111026793D01*
X148850500Y-110946144D01*
X148850500Y-106027525D01*
X152049500Y-106027525D01*
X152049500Y-106172475D01*
X152068244Y-106242426D01*
X152087017Y-106312488D01*
X152159488Y-106438011D01*
X152159490Y-106438013D01*
X152159491Y-106438015D01*
X152261985Y-106540509D01*
X152261986Y-106540510D01*
X152261988Y-106540511D01*
X152387511Y-106612982D01*
X152387512Y-106612982D01*
X152387515Y-106612984D01*
X152527525Y-106650500D01*
X152527528Y-106650500D01*
X152672472Y-106650500D01*
X152672475Y-106650500D01*
X152812485Y-106612984D01*
X152938015Y-106540509D01*
X153040509Y-106438015D01*
X153112984Y-106312485D01*
X153150500Y-106172475D01*
X153150500Y-106027525D01*
X153112984Y-105887515D01*
X153040509Y-105761985D01*
X152986819Y-105708295D01*
X152953334Y-105646972D01*
X152950500Y-105620614D01*
X152950500Y-104596544D01*
X152970185Y-104529505D01*
X152986819Y-104508863D01*
X153408863Y-104086819D01*
X153470186Y-104053334D01*
X153496544Y-104050500D01*
X153572472Y-104050500D01*
X153572475Y-104050500D01*
X153712485Y-104012984D01*
X153838015Y-103940509D01*
X153940509Y-103838015D01*
X154012984Y-103712485D01*
X154050500Y-103572475D01*
X154050500Y-103427525D01*
X154012984Y-103287515D01*
X153940509Y-103161985D01*
X153838015Y-103059491D01*
X153838013Y-103059490D01*
X153838011Y-103059488D01*
X153712488Y-102987017D01*
X153712489Y-102987017D01*
X153701006Y-102983940D01*
X153572475Y-102949500D01*
X153427525Y-102949500D01*
X153298993Y-102983940D01*
X153287511Y-102987017D01*
X153161988Y-103059488D01*
X153161982Y-103059493D01*
X153059493Y-103161982D01*
X153059488Y-103161988D01*
X152987017Y-103287511D01*
X152987016Y-103287515D01*
X152949500Y-103427525D01*
X152949500Y-103427527D01*
X152949500Y-103503456D01*
X152929815Y-103570495D01*
X152913181Y-103591137D01*
X152319531Y-104184786D01*
X152319527Y-104184791D01*
X152273387Y-104264709D01*
X152273386Y-104264712D01*
X152249500Y-104353856D01*
X152249500Y-105620614D01*
X152229815Y-105687653D01*
X152213181Y-105708295D01*
X152159493Y-105761982D01*
X152159488Y-105761988D01*
X152087017Y-105887511D01*
X152087016Y-105887515D01*
X152049500Y-106027525D01*
X148850500Y-106027525D01*
X148850500Y-100804152D01*
X151387501Y-100804152D01*
X151397556Y-100902583D01*
X151450406Y-101062072D01*
X151450408Y-101062077D01*
X151538614Y-101205080D01*
X151657419Y-101323885D01*
X151800422Y-101412091D01*
X151800427Y-101412093D01*
X151959916Y-101464942D01*
X152058356Y-101474999D01*
X152075000Y-101474998D01*
X152075000Y-100750000D01*
X151387501Y-100750000D01*
X151387501Y-100804152D01*
X148850500Y-100804152D01*
X148850500Y-100195849D01*
X151387500Y-100195849D01*
X151387500Y-100250000D01*
X152075000Y-100250000D01*
X152075000Y-99524999D01*
X152058356Y-99525000D01*
X151959915Y-99535057D01*
X151800427Y-99587906D01*
X151800422Y-99587908D01*
X151657419Y-99676114D01*
X151538614Y-99794919D01*
X151450408Y-99937922D01*
X151450406Y-99937927D01*
X151397557Y-100097416D01*
X151387500Y-100195849D01*
X148850500Y-100195849D01*
X148850500Y-99196544D01*
X148870185Y-99129505D01*
X148886819Y-99108863D01*
X150308863Y-97686819D01*
X150370186Y-97653334D01*
X150396544Y-97650500D01*
X153329625Y-97650500D01*
X153396664Y-97670185D01*
X153442419Y-97722989D01*
X153449397Y-97742399D01*
X153458629Y-97776851D01*
X153461282Y-97786753D01*
X153533753Y-97912276D01*
X153533755Y-97912278D01*
X153533756Y-97912280D01*
X153636250Y-98014774D01*
X153636251Y-98014775D01*
X153636253Y-98014776D01*
X153761776Y-98087247D01*
X153761777Y-98087247D01*
X153761780Y-98087249D01*
X153901790Y-98124765D01*
X153901793Y-98124765D01*
X154046737Y-98124765D01*
X154046740Y-98124765D01*
X154186750Y-98087249D01*
X154312280Y-98014774D01*
X154414774Y-97912280D01*
X154487249Y-97786750D01*
X154524765Y-97646740D01*
X154524765Y-97570808D01*
X154544450Y-97503769D01*
X154561084Y-97483127D01*
X155683127Y-96361084D01*
X155744450Y-96327599D01*
X155770808Y-96324765D01*
X155846737Y-96324765D01*
X155846740Y-96324765D01*
X155986750Y-96287249D01*
X156112280Y-96214774D01*
X156214774Y-96112280D01*
X156287249Y-95986750D01*
X156324765Y-95846740D01*
X156324765Y-95701790D01*
X156287249Y-95561780D01*
X156285927Y-95559491D01*
X156214776Y-95436253D01*
X156214771Y-95436247D01*
X156112282Y-95333758D01*
X156112276Y-95333753D01*
X155986753Y-95261282D01*
X155986749Y-95261280D01*
X155942403Y-95249397D01*
X155882744Y-95213031D01*
X155852216Y-95150183D01*
X155850500Y-95129623D01*
X155850500Y-89853858D01*
X155850500Y-89853856D01*
X155826614Y-89764712D01*
X155801070Y-89720469D01*
X155801070Y-89720468D01*
X155780472Y-89684791D01*
X155780468Y-89684786D01*
X153215213Y-87119531D01*
X153215208Y-87119527D01*
X153135290Y-87073387D01*
X153135289Y-87073386D01*
X153135288Y-87073386D01*
X153046144Y-87049500D01*
X144546144Y-87049500D01*
X144453856Y-87049500D01*
X144364712Y-87073386D01*
X144364709Y-87073387D01*
X144284791Y-87119527D01*
X144284786Y-87119531D01*
X144091137Y-87313181D01*
X144029814Y-87346666D01*
X144003456Y-87349500D01*
X143927525Y-87349500D01*
X143815565Y-87379500D01*
X143787511Y-87387017D01*
X143661988Y-87459488D01*
X143661982Y-87459493D01*
X143559493Y-87561982D01*
X143559488Y-87561988D01*
X143487017Y-87687511D01*
X143487016Y-87687515D01*
X143449500Y-87827525D01*
X143449500Y-87972475D01*
X143487016Y-88112485D01*
X143487017Y-88112488D01*
X143559488Y-88238011D01*
X143559493Y-88238017D01*
X143603181Y-88281705D01*
X143636666Y-88343028D01*
X143639500Y-88369386D01*
X143639500Y-88640500D01*
X143619815Y-88707539D01*
X143567011Y-88753294D01*
X143530993Y-88763528D01*
X143523268Y-88764500D01*
X143495136Y-88764501D01*
X143470009Y-88767415D01*
X143457991Y-88772721D01*
X143439992Y-88774988D01*
X143422685Y-88772189D01*
X143405302Y-88774465D01*
X143388910Y-88766727D01*
X143371019Y-88763834D01*
X143357973Y-88752123D01*
X143342118Y-88744639D01*
X143332511Y-88729267D01*
X143319025Y-88717161D01*
X143314381Y-88700255D01*
X143305090Y-88685388D01*
X143300499Y-88651960D01*
X143300499Y-88439260D01*
X143286018Y-88347829D01*
X143286018Y-88347828D01*
X143286017Y-88347826D01*
X143286017Y-88347825D01*
X143229859Y-88237609D01*
X143229857Y-88237607D01*
X143229854Y-88237603D01*
X143228255Y-88236004D01*
X143208549Y-88210322D01*
X143170504Y-88144426D01*
X143170498Y-88144418D01*
X142704628Y-87678548D01*
X142671143Y-87617225D01*
X142676127Y-87547533D01*
X142704628Y-87503186D01*
X143770995Y-86436819D01*
X143832318Y-86403334D01*
X143858676Y-86400500D01*
X144905890Y-86400500D01*
X144905892Y-86400500D01*
X145033186Y-86366392D01*
X145147314Y-86300500D01*
X146160995Y-85286819D01*
X146222318Y-85253334D01*
X146248676Y-85250500D01*
X153315890Y-85250500D01*
X153315892Y-85250500D01*
X153443186Y-85216392D01*
X153557314Y-85150500D01*
X154018385Y-84689429D01*
X154079708Y-84655944D01*
X154149400Y-84660928D01*
X154193747Y-84689429D01*
X156113181Y-86608863D01*
X156146666Y-86670186D01*
X156149500Y-86696544D01*
X156149500Y-88420614D01*
X156129815Y-88487653D01*
X156113181Y-88508295D01*
X156059493Y-88561982D01*
X156059488Y-88561988D01*
X155987017Y-88687511D01*
X155987016Y-88687515D01*
X155949500Y-88827525D01*
X155949500Y-88972475D01*
X155986238Y-89109580D01*
X155987017Y-89112488D01*
X156059488Y-89238011D01*
X156059490Y-89238013D01*
X156059491Y-89238015D01*
X156161985Y-89340509D01*
X156161986Y-89340510D01*
X156161988Y-89340511D01*
X156287511Y-89412982D01*
X156287512Y-89412982D01*
X156287515Y-89412984D01*
X156427525Y-89450500D01*
X156427528Y-89450500D01*
X156572472Y-89450500D01*
X156572475Y-89450500D01*
X156712485Y-89412984D01*
X156838015Y-89340509D01*
X156940509Y-89238015D01*
X157012984Y-89112485D01*
X157050500Y-88972475D01*
X157050500Y-88827525D01*
X157012984Y-88687515D01*
X157006385Y-88676086D01*
X156940511Y-88561988D01*
X156940506Y-88561982D01*
X156886819Y-88508295D01*
X156853334Y-88446972D01*
X156850500Y-88420614D01*
X156850500Y-86453858D01*
X156850500Y-86453856D01*
X156826614Y-86364712D01*
X156780470Y-86284788D01*
X154536819Y-84041137D01*
X154503334Y-83979814D01*
X154500500Y-83953456D01*
X154500500Y-83934110D01*
X154500500Y-83934108D01*
X154466392Y-83806814D01*
X154400500Y-83692686D01*
X154307314Y-83599500D01*
X154238017Y-83559491D01*
X154193187Y-83533608D01*
X154112890Y-83512093D01*
X154065892Y-83499500D01*
X154065891Y-83499500D01*
X154046544Y-83499500D01*
X153979505Y-83479815D01*
X153958863Y-83463181D01*
X153686819Y-83191137D01*
X153653334Y-83129814D01*
X153650500Y-83103456D01*
X153650500Y-83027527D01*
X153650500Y-83027525D01*
X153612984Y-82887515D01*
X153611680Y-82885257D01*
X153540511Y-82761988D01*
X153540506Y-82761982D01*
X153486819Y-82708295D01*
X153453334Y-82646972D01*
X153450500Y-82620614D01*
X153450500Y-81753858D01*
X153450500Y-81753856D01*
X153426614Y-81664712D01*
X153426422Y-81664380D01*
X153404619Y-81626615D01*
X153404617Y-81626613D01*
X153403686Y-81625001D01*
X153380470Y-81584788D01*
X152815212Y-81019530D01*
X152815211Y-81019529D01*
X152815208Y-81019527D01*
X152735290Y-80973387D01*
X152735289Y-80973386D01*
X152735288Y-80973386D01*
X152646144Y-80949500D01*
X152646143Y-80949500D01*
X152170596Y-80949500D01*
X152103557Y-80929815D01*
X152071884Y-80894229D01*
X152069044Y-80896257D01*
X152063074Y-80887895D01*
X151972102Y-80796923D01*
X151972099Y-80796921D01*
X151856521Y-80740419D01*
X151856519Y-80740418D01*
X151856518Y-80740418D01*
X151781582Y-80729500D01*
X151438418Y-80729500D01*
X151363482Y-80740418D01*
X151363480Y-80740418D01*
X151363478Y-80740419D01*
X151247900Y-80796921D01*
X151247897Y-80796923D01*
X151187681Y-80857140D01*
X151126358Y-80890625D01*
X151056666Y-80885641D01*
X151012319Y-80857140D01*
X150952102Y-80796923D01*
X150952099Y-80796921D01*
X150836521Y-80740419D01*
X150836519Y-80740418D01*
X150836518Y-80740418D01*
X150761582Y-80729500D01*
X150418418Y-80729500D01*
X150343482Y-80740418D01*
X150343480Y-80740418D01*
X150343478Y-80740419D01*
X150227900Y-80796921D01*
X150227897Y-80796923D01*
X150136923Y-80887897D01*
X150136921Y-80887900D01*
X150080419Y-81003478D01*
X150080418Y-81003480D01*
X150080418Y-81003482D01*
X150069500Y-81078418D01*
X150069500Y-81078423D01*
X150069500Y-81501000D01*
X150049815Y-81568039D01*
X149997011Y-81613794D01*
X149945501Y-81625000D01*
X149833365Y-81625000D01*
X149833346Y-81625001D01*
X149734916Y-81635056D01*
X149575427Y-81687906D01*
X149575422Y-81687908D01*
X149432419Y-81776114D01*
X149313614Y-81894919D01*
X149225408Y-82037922D01*
X149225406Y-82037927D01*
X149172557Y-82197416D01*
X149162500Y-82295849D01*
X149162500Y-82350000D01*
X149976000Y-82350000D01*
X150043039Y-82369685D01*
X150088794Y-82422489D01*
X150100000Y-82474000D01*
X150100000Y-82600000D01*
X150226000Y-82600000D01*
X150293039Y-82619685D01*
X150338794Y-82672489D01*
X150350000Y-82724000D01*
X150350000Y-83574999D01*
X150366636Y-83574999D01*
X150366652Y-83574998D01*
X150465083Y-83564943D01*
X150624572Y-83512093D01*
X150624577Y-83512091D01*
X150767580Y-83423885D01*
X150886385Y-83305080D01*
X150937214Y-83222674D01*
X150989162Y-83175950D01*
X151058124Y-83164727D01*
X151117064Y-83188504D01*
X151121027Y-83191470D01*
X151121028Y-83191472D01*
X151199213Y-83250000D01*
X151229049Y-83272335D01*
X151229052Y-83272337D01*
X151314352Y-83304152D01*
X151355478Y-83319491D01*
X151384818Y-83322645D01*
X151411355Y-83325499D01*
X151411370Y-83325500D01*
X151938630Y-83325500D01*
X151938644Y-83325499D01*
X151960523Y-83323146D01*
X151994522Y-83319491D01*
X152120950Y-83272336D01*
X152228972Y-83191472D01*
X152309836Y-83083450D01*
X152309838Y-83083444D01*
X152314087Y-83075665D01*
X152315577Y-83076478D01*
X152351189Y-83028906D01*
X152416654Y-83004489D01*
X152484927Y-83019341D01*
X152534332Y-83068746D01*
X152549500Y-83128173D01*
X152549500Y-83172475D01*
X152583977Y-83301144D01*
X152587017Y-83312488D01*
X152659488Y-83438011D01*
X152659490Y-83438013D01*
X152659491Y-83438015D01*
X152761985Y-83540509D01*
X152761986Y-83540510D01*
X152761988Y-83540511D01*
X152887511Y-83612982D01*
X152887512Y-83612982D01*
X152887515Y-83612984D01*
X153027525Y-83650500D01*
X153103456Y-83650500D01*
X153170495Y-83670185D01*
X153191137Y-83686819D01*
X153310571Y-83806253D01*
X153344056Y-83867576D01*
X153339072Y-83937268D01*
X153310571Y-83981615D01*
X153079005Y-84213181D01*
X153017682Y-84246666D01*
X152991324Y-84249500D01*
X148764500Y-84249500D01*
X148697461Y-84229815D01*
X148651706Y-84177011D01*
X148640500Y-84125500D01*
X148640500Y-82904152D01*
X149162501Y-82904152D01*
X149172556Y-83002583D01*
X149225406Y-83162072D01*
X149225408Y-83162077D01*
X149313614Y-83305080D01*
X149432419Y-83423885D01*
X149575422Y-83512091D01*
X149575427Y-83512093D01*
X149734916Y-83564942D01*
X149833356Y-83574999D01*
X149850000Y-83574998D01*
X149850000Y-82850000D01*
X149162501Y-82850000D01*
X149162501Y-82904152D01*
X148640500Y-82904152D01*
X148640500Y-82425323D01*
X148640499Y-82425321D01*
X148625967Y-82352264D01*
X148625966Y-82352260D01*
X148620615Y-82344252D01*
X148570601Y-82269399D01*
X148487740Y-82214034D01*
X148487739Y-82214033D01*
X148487735Y-82214032D01*
X148414677Y-82199500D01*
X148414674Y-82199500D01*
X146665326Y-82199500D01*
X146665323Y-82199500D01*
X146592264Y-82214032D01*
X146592260Y-82214033D01*
X146509399Y-82269399D01*
X146454033Y-82352260D01*
X146454032Y-82352264D01*
X146439500Y-82425321D01*
X146439500Y-82635050D01*
X146419815Y-82702089D01*
X146367011Y-82747844D01*
X146297853Y-82757788D01*
X146234297Y-82728763D01*
X146205015Y-82691345D01*
X146154624Y-82592450D01*
X146115270Y-82538282D01*
X146115269Y-82538282D01*
X145482962Y-83170589D01*
X145465925Y-83107007D01*
X145400099Y-82992993D01*
X145307007Y-82899901D01*
X145192993Y-82834075D01*
X145129407Y-82817036D01*
X145761716Y-82184728D01*
X145707550Y-82145375D01*
X145518217Y-82048904D01*
X145316129Y-81983242D01*
X145106246Y-81950000D01*
X144893754Y-81950000D01*
X144683872Y-81983242D01*
X144683869Y-81983242D01*
X144481782Y-82048904D01*
X144397389Y-82091905D01*
X144328719Y-82104801D01*
X144263979Y-82078524D01*
X144223722Y-82021418D01*
X144220730Y-81951612D01*
X144253411Y-81893741D01*
X146300470Y-79846683D01*
X146346614Y-79766759D01*
X146370500Y-79677614D01*
X146370500Y-79585327D01*
X146370500Y-78085327D01*
X146346614Y-77996183D01*
X146300469Y-77916258D01*
X145881864Y-77497653D01*
X145848379Y-77436330D01*
X145853363Y-77366638D01*
X145895235Y-77310705D01*
X145960699Y-77286288D01*
X145981585Y-77286557D01*
G37*
%TD.AperFunction*%
%TA.AperFunction,Conductor*%
G36*
X142003039Y-88659685D02*
G01*
X142048794Y-88712489D01*
X142060000Y-88764000D01*
X142060000Y-89444503D01*
X142206195Y-89402031D01*
X142206197Y-89402030D01*
X142316959Y-89336525D01*
X142384683Y-89319341D01*
X142450945Y-89341500D01*
X142467762Y-89355575D01*
X142640006Y-89527819D01*
X142673491Y-89589142D01*
X142668507Y-89658834D01*
X142626635Y-89714767D01*
X142561171Y-89739184D01*
X142552328Y-89739500D01*
X142520145Y-89739500D01*
X142520117Y-89739502D01*
X142495012Y-89742413D01*
X142495008Y-89742415D01*
X142392235Y-89787793D01*
X142312794Y-89867234D01*
X142276784Y-89948788D01*
X142238277Y-89997503D01*
X142172437Y-90047432D01*
X142172434Y-90047436D01*
X142081079Y-90167904D01*
X142025613Y-90308556D01*
X142015000Y-90396946D01*
X142015000Y-90583053D01*
X142025613Y-90671443D01*
X142081079Y-90812095D01*
X142172435Y-90932564D01*
X142238276Y-90982494D01*
X142276786Y-91031215D01*
X142280628Y-91039917D01*
X142289697Y-91109196D01*
X142280627Y-91140085D01*
X142267415Y-91170006D01*
X142267415Y-91170008D01*
X142264500Y-91195131D01*
X142264500Y-91384857D01*
X142264502Y-91384881D01*
X142267413Y-91409985D01*
X142267413Y-91409986D01*
X142267414Y-91409990D01*
X142267415Y-91409991D01*
X142280626Y-91439912D01*
X142280628Y-91439915D01*
X142289697Y-91509194D01*
X142280628Y-91540083D01*
X142267415Y-91570008D01*
X142264500Y-91595131D01*
X142264500Y-91784857D01*
X142264502Y-91784881D01*
X142267414Y-91809988D01*
X142267415Y-91809991D01*
X142312793Y-91912764D01*
X142312794Y-91912765D01*
X142392235Y-91992206D01*
X142495009Y-92037585D01*
X142520135Y-92040500D01*
X143115500Y-92040499D01*
X143182539Y-92060183D01*
X143228294Y-92112987D01*
X143239500Y-92164499D01*
X143239500Y-92759856D01*
X143239502Y-92759882D01*
X143242413Y-92784987D01*
X143242415Y-92784991D01*
X143287793Y-92887764D01*
X143287794Y-92887765D01*
X143367235Y-92967206D01*
X143470009Y-93012585D01*
X143495135Y-93015500D01*
X143684864Y-93015499D01*
X143709991Y-93012585D01*
X143739913Y-92999372D01*
X143809190Y-92990301D01*
X143840086Y-92999373D01*
X143870007Y-93012584D01*
X143870009Y-93012585D01*
X143895135Y-93015500D01*
X144084864Y-93015499D01*
X144109991Y-93012585D01*
X144139913Y-92999372D01*
X144209190Y-92990301D01*
X144240086Y-92999373D01*
X144270007Y-93012584D01*
X144270009Y-93012585D01*
X144295135Y-93015500D01*
X144484864Y-93015499D01*
X144509991Y-93012585D01*
X144539913Y-92999372D01*
X144606447Y-92989903D01*
X144623942Y-92992244D01*
X144670009Y-93012585D01*
X144695135Y-93015500D01*
X144797716Y-93015499D01*
X144805903Y-93016595D01*
X144830578Y-93027573D01*
X144856493Y-93035183D01*
X144862023Y-93041564D01*
X144869739Y-93044998D01*
X144884560Y-93067573D01*
X144902249Y-93087986D01*
X144903451Y-93096345D01*
X144908085Y-93103404D01*
X144908349Y-93130410D01*
X144912193Y-93157145D01*
X144908685Y-93164825D01*
X144908768Y-93173270D01*
X144894389Y-93196131D01*
X144883169Y-93220701D01*
X144877136Y-93227180D01*
X144391137Y-93713181D01*
X144329814Y-93746666D01*
X144303456Y-93749500D01*
X142696544Y-93749500D01*
X142629505Y-93729815D01*
X142608863Y-93713181D01*
X141186819Y-92291137D01*
X141153334Y-92229814D01*
X141150500Y-92203456D01*
X141150500Y-90180596D01*
X141170185Y-90113557D01*
X141205773Y-90081892D01*
X141203741Y-90079046D01*
X141212103Y-90073075D01*
X141303076Y-89982102D01*
X141303078Y-89982099D01*
X141359231Y-89867235D01*
X141359582Y-89866518D01*
X141370500Y-89791582D01*
X141370500Y-89554602D01*
X141390185Y-89487563D01*
X141442989Y-89441808D01*
X141512147Y-89431864D01*
X141529095Y-89435526D01*
X141560000Y-89444504D01*
X141560000Y-88764000D01*
X141579685Y-88696961D01*
X141632489Y-88651206D01*
X141684000Y-88640000D01*
X141936000Y-88640000D01*
X142003039Y-88659685D01*
G37*
%TD.AperFunction*%
%TA.AperFunction,Conductor*%
G36*
X144192382Y-90092501D02*
G01*
X144209190Y-90090301D01*
X144240086Y-90099373D01*
X144270007Y-90112584D01*
X144270009Y-90112585D01*
X144295135Y-90115500D01*
X144484864Y-90115499D01*
X144509991Y-90112585D01*
X144539913Y-90099372D01*
X144609190Y-90090301D01*
X144640086Y-90099373D01*
X144670007Y-90112584D01*
X144670009Y-90112585D01*
X144695135Y-90115500D01*
X144884864Y-90115499D01*
X144909991Y-90112585D01*
X144939913Y-90099372D01*
X145009190Y-90090301D01*
X145040086Y-90099373D01*
X145070005Y-90112584D01*
X145078107Y-90114788D01*
X145137629Y-90151379D01*
X145161109Y-90189448D01*
X145166696Y-90203799D01*
X145167415Y-90209991D01*
X145181742Y-90242440D01*
X145182742Y-90245007D01*
X145185506Y-90277180D01*
X145189697Y-90309194D01*
X145188582Y-90312989D01*
X145188723Y-90314621D01*
X145187326Y-90317267D01*
X145180628Y-90340083D01*
X145167415Y-90370008D01*
X145164500Y-90395131D01*
X145164500Y-90584857D01*
X145164502Y-90584881D01*
X145167413Y-90609985D01*
X145167413Y-90609986D01*
X145167414Y-90609990D01*
X145167415Y-90609991D01*
X145180626Y-90639912D01*
X145180628Y-90639915D01*
X145189697Y-90709194D01*
X145180628Y-90740083D01*
X145167415Y-90770008D01*
X145164500Y-90795131D01*
X145164500Y-90984857D01*
X145164502Y-90984881D01*
X145167413Y-91009985D01*
X145167413Y-91009986D01*
X145167414Y-91009990D01*
X145167415Y-91009991D01*
X145180626Y-91039912D01*
X145180628Y-91039915D01*
X145189697Y-91109194D01*
X145180628Y-91140083D01*
X145167415Y-91170008D01*
X145164500Y-91195131D01*
X145164500Y-91384857D01*
X145164502Y-91384881D01*
X145167413Y-91409985D01*
X145167413Y-91409986D01*
X145167414Y-91409990D01*
X145167415Y-91409991D01*
X145180626Y-91439912D01*
X145180628Y-91439915D01*
X145189697Y-91509194D01*
X145182742Y-91534990D01*
X145181732Y-91537581D01*
X145167415Y-91570009D01*
X145166696Y-91576198D01*
X145161109Y-91590550D01*
X145143616Y-91613233D01*
X145128613Y-91637635D01*
X145122025Y-91641232D01*
X145118442Y-91645879D01*
X145104231Y-91650948D01*
X145078119Y-91665208D01*
X145070011Y-91667414D01*
X145040083Y-91680628D01*
X144970804Y-91689697D01*
X144939915Y-91680627D01*
X144909992Y-91667415D01*
X144884865Y-91664500D01*
X144695142Y-91664500D01*
X144695118Y-91664502D01*
X144670014Y-91667413D01*
X144670010Y-91667414D01*
X144640083Y-91680628D01*
X144570804Y-91689697D01*
X144539915Y-91680627D01*
X144509992Y-91667415D01*
X144484865Y-91664500D01*
X144295142Y-91664500D01*
X144295118Y-91664502D01*
X144270014Y-91667413D01*
X144270010Y-91667414D01*
X144240083Y-91680628D01*
X144170804Y-91689697D01*
X144139915Y-91680627D01*
X144109992Y-91667415D01*
X144084865Y-91664500D01*
X143895142Y-91664500D01*
X143895118Y-91664502D01*
X143870014Y-91667413D01*
X143870010Y-91667414D01*
X143840083Y-91680628D01*
X143770804Y-91689697D01*
X143745009Y-91682742D01*
X143742425Y-91681736D01*
X143709991Y-91667415D01*
X143703800Y-91666696D01*
X143689449Y-91661109D01*
X143666767Y-91643617D01*
X143642365Y-91628615D01*
X143638767Y-91622025D01*
X143634120Y-91618442D01*
X143629048Y-91604225D01*
X143614789Y-91578111D01*
X143612585Y-91570011D01*
X143612585Y-91570009D01*
X143608432Y-91560605D01*
X143599373Y-91540086D01*
X143590301Y-91470808D01*
X143599374Y-91439912D01*
X143612584Y-91409995D01*
X143612584Y-91409994D01*
X143612584Y-91409993D01*
X143612585Y-91409991D01*
X143615500Y-91384865D01*
X143615499Y-91195136D01*
X143612585Y-91170009D01*
X143605681Y-91154374D01*
X143599373Y-91140086D01*
X143590301Y-91070808D01*
X143599372Y-91039916D01*
X143603215Y-91031212D01*
X143641725Y-90982492D01*
X143707564Y-90932565D01*
X143707565Y-90932563D01*
X143798920Y-90812095D01*
X143854386Y-90671443D01*
X143865000Y-90583053D01*
X143865000Y-90396946D01*
X143854385Y-90308553D01*
X143845093Y-90284989D01*
X143838811Y-90215403D01*
X143871147Y-90153466D01*
X143931836Y-90118845D01*
X143946125Y-90116329D01*
X143953257Y-90115499D01*
X144084864Y-90115499D01*
X144109991Y-90112585D01*
X144157059Y-90091801D01*
X144175677Y-90089637D01*
X144192382Y-90092501D01*
G37*
%TD.AperFunction*%
%TD*%
M02*
