M48
; DRILL file KiCad 10.0.0-10.0.0~ubuntu24.04.1 date 2026-07-05T09:46:55
; FORMAT={-:-/ absolute / metric / decimal}
; #@! TF.CreationDate,2026-07-05T09:46:55-07:00
; #@! TF.GenerationSoftware,Kicad,Pcbnew,10.0.0-10.0.0~ubuntu24.04.1
; #@! TF.FileFunction,Plated,1,2,PTH
FMAT,2
METRIC
; #@! TA.AperFunction,Plated,PTH,ViaDrill
T1C0.300
; #@! TA.AperFunction,Plated,PTH,ComponentDrill
T2C1.000
%
G90
G05
T1
X120.7Y-96.7
X129.9Y-96.0
X130.2Y-93.8
X130.4Y-90.6
X131.4Y-99.6
X132.0Y-108.2
X133.2Y-101.3
X136.0Y-84.1
X137.5Y-101.1
X137.6Y-107.1
X138.1Y-84.0
X138.1Y-88.0
X138.4Y-109.2
X140.7Y-82.8
X140.7Y-112.1
X141.2Y-81.7
X141.8Y-89.3
X141.9Y-87.83
X142.0Y-90.5
X142.2Y-102.9
X143.6Y-84.9
X143.8Y-111.8
X144.0Y-87.9
X144.19Y-117.2
X144.39Y-90.89
X144.8Y-75.4
X145.42Y-78.38
X146.3Y-80.2
X146.9Y-111.4
X147.7Y-110.5
X148.5Y-96.8
X150.0Y-100.1
X152.6Y-106.1
X152.7Y-84.0
X152.9Y-109.9
X153.1Y-83.1
X153.5Y-103.5
X153.974Y-97.574
X155.6Y-101.7
X155.774Y-95.774
X155.8Y-87.4
X156.5Y-88.9
X156.5Y-99.1
X156.8Y-91.4
X158.3Y-104.3
X160.4Y-101.7
X163.3Y-95.6
X165.7Y-96.7
X167.7Y-96.7
T2
X127.48Y-85.777
X129.113Y-83.831
X142.46Y-83.3
X145.0Y-83.3
X147.54Y-83.3
M30
