%TF.GenerationSoftware,KiCad,Pcbnew,10.0.0-10.0.0~ubuntu24.04.1*%
%TF.CreationDate,2026-07-03T06:11:15-07:00*%
%TF.ProjectId,INNER_PCB,494e4e45-525f-4504-9342-2e6b69636164,rev?*%
%TF.SameCoordinates,Original*%
%TF.FileFunction,Legend,Bot*%
%TF.FilePolarity,Positive*%
%FSLAX46Y46*%
G04 Gerber Fmt 4.6, Leading zero omitted, Abs format (unit mm)*
G04 Created by KiCad (PCBNEW 10.0.0-10.0.0~ubuntu24.04.1) date 2026-07-03 06:11:15*
%MOMM*%
%LPD*%
G01*
G04 APERTURE LIST*
%ADD10C,0.120000*%
%ADD11C,0.000000*%
G04 APERTURE END LIST*
%TO.C,D13*%
D10*
X129227500Y-92065000D02*
X131512500Y-92065000D01*
X129227500Y-93535000D02*
X129227500Y-92065000D01*
X131512500Y-93535000D02*
X129227500Y-93535000D01*
%TO.C,TP6*%
X142500000Y-118500000D02*
X142500000Y-121900000D01*
X142500000Y-121900000D02*
X145900000Y-121900000D01*
X145900000Y-118500000D02*
X142500000Y-118500000D01*
X145900000Y-121900000D02*
X145900000Y-118500000D01*
%TO.C,R16*%
X135053641Y-81420000D02*
X134746359Y-81420000D01*
X135053641Y-82180000D02*
X134746359Y-82180000D01*
D11*
%TO.C,G\u002A\u002A\u002A*%
G36*
X161539915Y-102613306D02*
G01*
X161523350Y-102641375D01*
X161451441Y-102740471D01*
X161348531Y-102865685D01*
X161231048Y-102996631D01*
X161180593Y-103050816D01*
X161071395Y-103178603D01*
X161009219Y-103284590D01*
X160987842Y-103392193D01*
X161001043Y-103524834D01*
X161042599Y-103705929D01*
X161069190Y-103812074D01*
X161098458Y-103930253D01*
X161115966Y-104002651D01*
X161117971Y-104011990D01*
X161115222Y-104061184D01*
X161075882Y-104059039D01*
X160996925Y-104003488D01*
X160875326Y-103892463D01*
X160708060Y-103723897D01*
X160694668Y-103710034D01*
X160567977Y-103580295D01*
X160462333Y-103474546D01*
X160388434Y-103403351D01*
X160356980Y-103377272D01*
X160352535Y-103379036D01*
X160303258Y-103412594D01*
X160213841Y-103479990D01*
X160099697Y-103569696D01*
X159998665Y-103646246D01*
X159854063Y-103733524D01*
X159748429Y-103762121D01*
X159671430Y-103753859D01*
X159638703Y-103733257D01*
X159640771Y-103725931D01*
X159657807Y-103693058D01*
X159735473Y-103693058D01*
X159739833Y-103722790D01*
X159794283Y-103702529D01*
X159901621Y-103632261D01*
X160064647Y-103511969D01*
X160125952Y-103466341D01*
X160247081Y-103381214D01*
X160340502Y-103322310D01*
X160389815Y-103300302D01*
X160411347Y-103309302D01*
X160472178Y-103365501D01*
X160543591Y-103456144D01*
X160593841Y-103521544D01*
X160708073Y-103647436D01*
X160829231Y-103760715D01*
X161006873Y-103909445D01*
X160952432Y-103580307D01*
X160935721Y-103476723D01*
X160919289Y-103353732D01*
X160917722Y-103280221D01*
X160931390Y-103239805D01*
X160960663Y-103216096D01*
X160993842Y-103191665D01*
X161023334Y-103142618D01*
X161023400Y-103141535D01*
X161051225Y-103094835D01*
X161119809Y-103012841D01*
X161214955Y-102912592D01*
X161353994Y-102765751D01*
X161439848Y-102657122D01*
X161468878Y-102592353D01*
X161441084Y-102573458D01*
X161356465Y-102602449D01*
X161215021Y-102681342D01*
X161141227Y-102723713D01*
X161025793Y-102779273D01*
X160942387Y-102806418D01*
X160938433Y-102806936D01*
X160885793Y-102802113D01*
X160838916Y-102767883D01*
X160793263Y-102695109D01*
X160744292Y-102574657D01*
X160687465Y-102397392D01*
X160618241Y-102154178D01*
X160498620Y-101720024D01*
X160450334Y-102192663D01*
X160449353Y-102202215D01*
X160428369Y-102385048D01*
X160406744Y-102539023D01*
X160386968Y-102648205D01*
X160371534Y-102696657D01*
X160347416Y-102694741D01*
X160287524Y-102647715D01*
X160211732Y-102561960D01*
X160159264Y-102495415D01*
X160094214Y-102415679D01*
X160059288Y-102376666D01*
X160046716Y-102362749D01*
X159998375Y-102298249D01*
X159933218Y-102204172D01*
X159905760Y-102164536D01*
X159861875Y-102111999D01*
X159838299Y-102107541D01*
X159835228Y-102156339D01*
X159852857Y-102263570D01*
X159891383Y-102434413D01*
X159951003Y-102674045D01*
X159992941Y-102840542D01*
X160027053Y-102986325D01*
X160043992Y-103083235D01*
X160045164Y-103145275D01*
X160031972Y-103186447D01*
X160005820Y-103220753D01*
X159962613Y-103278408D01*
X159932202Y-103346262D01*
X159931113Y-103351772D01*
X159900659Y-103422359D01*
X159845210Y-103513198D01*
X159778406Y-103613350D01*
X159735473Y-103693058D01*
X159657807Y-103693058D01*
X159671773Y-103666108D01*
X159732166Y-103564524D01*
X159811885Y-103438321D01*
X159836738Y-103399509D01*
X159911928Y-103275932D01*
X159964475Y-103179954D01*
X159984243Y-103129723D01*
X159984227Y-103128952D01*
X159974592Y-103074269D01*
X159949691Y-102961681D01*
X159913198Y-102807195D01*
X159868788Y-102626818D01*
X159830261Y-102467164D01*
X159780755Y-102229177D01*
X159756850Y-102056173D01*
X159758828Y-101950585D01*
X159786967Y-101914848D01*
X159802024Y-101924830D01*
X159854788Y-101985517D01*
X159931651Y-102089044D01*
X160021739Y-102221221D01*
X160070488Y-102294508D01*
X160159101Y-102422797D01*
X160230403Y-102519751D01*
X160272311Y-102568618D01*
X160285259Y-102578064D01*
X160309460Y-102582271D01*
X160329641Y-102556185D01*
X160347964Y-102490530D01*
X160366593Y-102376032D01*
X160387689Y-102203414D01*
X160413414Y-101963403D01*
X160415397Y-101944555D01*
X160436230Y-101770825D01*
X160457244Y-101633304D01*
X160476093Y-101545476D01*
X160490431Y-101520827D01*
X160510230Y-101565384D01*
X160544797Y-101669357D01*
X160588934Y-101816747D01*
X160637723Y-101991818D01*
X160682309Y-102153495D01*
X160735497Y-102337682D01*
X160782592Y-102492017D01*
X160816953Y-102594181D01*
X160832196Y-102633819D01*
X160870735Y-102711101D01*
X160913058Y-102736057D01*
X160979015Y-102724670D01*
X161008322Y-102714492D01*
X161116090Y-102662958D01*
X161230750Y-102593746D01*
X161272224Y-102568046D01*
X161391349Y-102513750D01*
X161491511Y-102492121D01*
X161602582Y-102492121D01*
X161550750Y-102592353D01*
X161539915Y-102613306D01*
G37*
%TO.C,U2*%
D10*
X142780000Y-89280000D02*
X142780000Y-89730000D01*
X142780000Y-92050000D02*
X142780000Y-92500000D01*
X142780000Y-92500000D02*
X143230000Y-92500000D01*
X143230000Y-89280000D02*
X142780000Y-89280000D01*
X145550000Y-92500000D02*
X146000000Y-92500000D01*
X146000000Y-89280000D02*
X145550000Y-89280000D01*
X146000000Y-89730000D02*
X146000000Y-89280000D01*
X146000000Y-92500000D02*
X146000000Y-92050000D01*
X142250000Y-91690000D02*
X141920000Y-91930000D01*
X141920000Y-91450000D01*
X142250000Y-91690000D01*
G36*
X142250000Y-91690000D02*
G01*
X141920000Y-91930000D01*
X141920000Y-91450000D01*
X142250000Y-91690000D01*
G37*
D11*
%TO.C,G\u002A\u002A\u002A*%
G36*
X129139915Y-98913306D02*
G01*
X129123350Y-98941375D01*
X129051441Y-99040471D01*
X128948531Y-99165685D01*
X128831048Y-99296631D01*
X128780593Y-99350816D01*
X128671395Y-99478603D01*
X128609219Y-99584590D01*
X128587842Y-99692193D01*
X128601043Y-99824834D01*
X128642599Y-100005929D01*
X128669190Y-100112074D01*
X128698458Y-100230253D01*
X128715966Y-100302651D01*
X128717971Y-100311990D01*
X128715222Y-100361184D01*
X128675882Y-100359039D01*
X128596925Y-100303488D01*
X128475326Y-100192463D01*
X128308060Y-100023897D01*
X128294668Y-100010034D01*
X128167977Y-99880295D01*
X128062333Y-99774546D01*
X127988434Y-99703351D01*
X127956980Y-99677272D01*
X127952535Y-99679036D01*
X127903258Y-99712594D01*
X127813841Y-99779990D01*
X127699697Y-99869696D01*
X127598665Y-99946246D01*
X127454063Y-100033524D01*
X127348429Y-100062121D01*
X127271430Y-100053859D01*
X127238703Y-100033257D01*
X127240771Y-100025931D01*
X127257807Y-99993058D01*
X127335473Y-99993058D01*
X127339833Y-100022790D01*
X127394283Y-100002529D01*
X127501621Y-99932261D01*
X127664647Y-99811969D01*
X127725952Y-99766341D01*
X127847081Y-99681214D01*
X127940502Y-99622310D01*
X127989815Y-99600302D01*
X128011347Y-99609302D01*
X128072178Y-99665501D01*
X128143591Y-99756144D01*
X128193841Y-99821544D01*
X128308073Y-99947436D01*
X128429231Y-100060715D01*
X128606873Y-100209445D01*
X128552432Y-99880307D01*
X128535721Y-99776723D01*
X128519289Y-99653732D01*
X128517722Y-99580221D01*
X128531390Y-99539805D01*
X128560663Y-99516096D01*
X128593842Y-99491665D01*
X128623334Y-99442618D01*
X128623400Y-99441535D01*
X128651225Y-99394835D01*
X128719809Y-99312841D01*
X128814955Y-99212592D01*
X128953994Y-99065751D01*
X129039848Y-98957122D01*
X129068878Y-98892353D01*
X129041084Y-98873458D01*
X128956465Y-98902449D01*
X128815021Y-98981342D01*
X128741227Y-99023713D01*
X128625793Y-99079273D01*
X128542387Y-99106418D01*
X128538433Y-99106936D01*
X128485793Y-99102113D01*
X128438916Y-99067883D01*
X128393263Y-98995109D01*
X128344292Y-98874657D01*
X128287465Y-98697392D01*
X128218241Y-98454178D01*
X128098620Y-98020024D01*
X128050334Y-98492663D01*
X128049353Y-98502215D01*
X128028369Y-98685048D01*
X128006744Y-98839023D01*
X127986968Y-98948205D01*
X127971534Y-98996657D01*
X127947416Y-98994741D01*
X127887524Y-98947715D01*
X127811732Y-98861960D01*
X127759264Y-98795415D01*
X127694214Y-98715679D01*
X127659288Y-98676666D01*
X127646716Y-98662749D01*
X127598375Y-98598249D01*
X127533218Y-98504172D01*
X127505760Y-98464536D01*
X127461875Y-98411999D01*
X127438299Y-98407541D01*
X127435228Y-98456339D01*
X127452857Y-98563570D01*
X127491383Y-98734413D01*
X127551003Y-98974045D01*
X127592941Y-99140542D01*
X127627053Y-99286325D01*
X127643992Y-99383235D01*
X127645164Y-99445275D01*
X127631972Y-99486447D01*
X127605820Y-99520753D01*
X127562613Y-99578408D01*
X127532202Y-99646262D01*
X127531113Y-99651772D01*
X127500659Y-99722359D01*
X127445210Y-99813198D01*
X127378406Y-99913350D01*
X127335473Y-99993058D01*
X127257807Y-99993058D01*
X127271773Y-99966108D01*
X127332166Y-99864524D01*
X127411885Y-99738321D01*
X127436738Y-99699509D01*
X127511928Y-99575932D01*
X127564475Y-99479954D01*
X127584243Y-99429723D01*
X127584227Y-99428952D01*
X127574592Y-99374269D01*
X127549691Y-99261681D01*
X127513198Y-99107195D01*
X127468788Y-98926818D01*
X127430261Y-98767164D01*
X127380755Y-98529177D01*
X127356850Y-98356173D01*
X127358828Y-98250585D01*
X127386967Y-98214848D01*
X127402024Y-98224830D01*
X127454788Y-98285517D01*
X127531651Y-98389044D01*
X127621739Y-98521221D01*
X127670488Y-98594508D01*
X127759101Y-98722797D01*
X127830403Y-98819751D01*
X127872311Y-98868618D01*
X127885259Y-98878064D01*
X127909460Y-98882271D01*
X127929641Y-98856185D01*
X127947964Y-98790530D01*
X127966593Y-98676032D01*
X127987689Y-98503414D01*
X128013414Y-98263403D01*
X128015397Y-98244555D01*
X128036230Y-98070825D01*
X128057244Y-97933304D01*
X128076093Y-97845476D01*
X128090431Y-97820827D01*
X128110230Y-97865384D01*
X128144797Y-97969357D01*
X128188934Y-98116747D01*
X128237723Y-98291818D01*
X128282309Y-98453495D01*
X128335497Y-98637682D01*
X128382592Y-98792017D01*
X128416953Y-98894181D01*
X128432196Y-98933819D01*
X128470735Y-99011101D01*
X128513058Y-99036057D01*
X128579015Y-99024670D01*
X128608322Y-99014492D01*
X128716090Y-98962958D01*
X128830750Y-98893746D01*
X128872224Y-98868046D01*
X128991349Y-98813750D01*
X129091511Y-98792121D01*
X129202582Y-98792121D01*
X129150750Y-98892353D01*
X129139915Y-98913306D01*
G37*
%TO.C,R1*%
D10*
X140420000Y-88956359D02*
X140420000Y-89263641D01*
X141180000Y-88956359D02*
X141180000Y-89263641D01*
%TO.C,R11*%
X138746359Y-111220000D02*
X139053641Y-111220000D01*
X138746359Y-111980000D02*
X139053641Y-111980000D01*
D11*
%TO.C,G\u002A\u002A\u002A*%
G36*
X141739915Y-79313306D02*
G01*
X141723350Y-79341375D01*
X141651441Y-79440471D01*
X141548531Y-79565685D01*
X141431048Y-79696631D01*
X141380593Y-79750816D01*
X141271395Y-79878603D01*
X141209219Y-79984590D01*
X141187842Y-80092193D01*
X141201043Y-80224834D01*
X141242599Y-80405929D01*
X141269190Y-80512074D01*
X141298458Y-80630253D01*
X141315966Y-80702651D01*
X141317971Y-80711990D01*
X141315222Y-80761184D01*
X141275882Y-80759039D01*
X141196925Y-80703488D01*
X141075326Y-80592463D01*
X140908060Y-80423897D01*
X140894668Y-80410034D01*
X140767977Y-80280295D01*
X140662333Y-80174546D01*
X140588434Y-80103351D01*
X140556980Y-80077272D01*
X140552535Y-80079036D01*
X140503258Y-80112594D01*
X140413841Y-80179990D01*
X140299697Y-80269696D01*
X140198665Y-80346246D01*
X140054063Y-80433524D01*
X139948429Y-80462121D01*
X139871430Y-80453859D01*
X139838703Y-80433257D01*
X139840771Y-80425931D01*
X139857807Y-80393058D01*
X139935473Y-80393058D01*
X139939833Y-80422790D01*
X139994283Y-80402529D01*
X140101621Y-80332261D01*
X140264647Y-80211969D01*
X140325952Y-80166341D01*
X140447081Y-80081214D01*
X140540502Y-80022310D01*
X140589815Y-80000302D01*
X140611347Y-80009302D01*
X140672178Y-80065501D01*
X140743591Y-80156144D01*
X140793841Y-80221544D01*
X140908073Y-80347436D01*
X141029231Y-80460715D01*
X141206873Y-80609445D01*
X141152432Y-80280307D01*
X141135721Y-80176723D01*
X141119289Y-80053732D01*
X141117722Y-79980221D01*
X141131390Y-79939805D01*
X141160663Y-79916096D01*
X141193842Y-79891665D01*
X141223334Y-79842618D01*
X141223400Y-79841535D01*
X141251225Y-79794835D01*
X141319809Y-79712841D01*
X141414955Y-79612592D01*
X141553994Y-79465751D01*
X141639848Y-79357122D01*
X141668878Y-79292353D01*
X141641084Y-79273458D01*
X141556465Y-79302449D01*
X141415021Y-79381342D01*
X141341227Y-79423713D01*
X141225793Y-79479273D01*
X141142387Y-79506418D01*
X141138433Y-79506936D01*
X141085793Y-79502113D01*
X141038916Y-79467883D01*
X140993263Y-79395109D01*
X140944292Y-79274657D01*
X140887465Y-79097392D01*
X140818241Y-78854178D01*
X140698620Y-78420024D01*
X140650334Y-78892663D01*
X140649353Y-78902215D01*
X140628369Y-79085048D01*
X140606744Y-79239023D01*
X140586968Y-79348205D01*
X140571534Y-79396657D01*
X140547416Y-79394741D01*
X140487524Y-79347715D01*
X140411732Y-79261960D01*
X140359264Y-79195415D01*
X140294214Y-79115679D01*
X140259288Y-79076666D01*
X140246716Y-79062749D01*
X140198375Y-78998249D01*
X140133218Y-78904172D01*
X140105760Y-78864536D01*
X140061875Y-78811999D01*
X140038299Y-78807541D01*
X140035228Y-78856339D01*
X140052857Y-78963570D01*
X140091383Y-79134413D01*
X140151003Y-79374045D01*
X140192941Y-79540542D01*
X140227053Y-79686325D01*
X140243992Y-79783235D01*
X140245164Y-79845275D01*
X140231972Y-79886447D01*
X140205820Y-79920753D01*
X140162613Y-79978408D01*
X140132202Y-80046262D01*
X140131113Y-80051772D01*
X140100659Y-80122359D01*
X140045210Y-80213198D01*
X139978406Y-80313350D01*
X139935473Y-80393058D01*
X139857807Y-80393058D01*
X139871773Y-80366108D01*
X139932166Y-80264524D01*
X140011885Y-80138321D01*
X140036738Y-80099509D01*
X140111928Y-79975932D01*
X140164475Y-79879954D01*
X140184243Y-79829723D01*
X140184227Y-79828952D01*
X140174592Y-79774269D01*
X140149691Y-79661681D01*
X140113198Y-79507195D01*
X140068788Y-79326818D01*
X140030261Y-79167164D01*
X139980755Y-78929177D01*
X139956850Y-78756173D01*
X139958828Y-78650585D01*
X139986967Y-78614848D01*
X140002024Y-78624830D01*
X140054788Y-78685517D01*
X140131651Y-78789044D01*
X140221739Y-78921221D01*
X140270488Y-78994508D01*
X140359101Y-79122797D01*
X140430403Y-79219751D01*
X140472311Y-79268618D01*
X140485259Y-79278064D01*
X140509460Y-79282271D01*
X140529641Y-79256185D01*
X140547964Y-79190530D01*
X140566593Y-79076032D01*
X140587689Y-78903414D01*
X140613414Y-78663403D01*
X140615397Y-78644555D01*
X140636230Y-78470825D01*
X140657244Y-78333304D01*
X140676093Y-78245476D01*
X140690431Y-78220827D01*
X140710230Y-78265384D01*
X140744797Y-78369357D01*
X140788934Y-78516747D01*
X140837723Y-78691818D01*
X140882309Y-78853495D01*
X140935497Y-79037682D01*
X140982592Y-79192017D01*
X141016953Y-79294181D01*
X141032196Y-79333819D01*
X141070735Y-79411101D01*
X141113058Y-79436057D01*
X141179015Y-79424670D01*
X141208322Y-79414492D01*
X141316090Y-79362958D01*
X141430750Y-79293746D01*
X141472224Y-79268046D01*
X141591349Y-79213750D01*
X141691511Y-79192121D01*
X141802582Y-79192121D01*
X141750750Y-79292353D01*
X141739915Y-79313306D01*
G37*
G36*
X142726931Y-93578880D02*
G01*
X142746835Y-93627805D01*
X142757253Y-93728838D01*
X142760639Y-93895548D01*
X142761748Y-94222970D01*
X142949155Y-93896738D01*
X142997060Y-93816001D01*
X143079340Y-93689563D01*
X143146084Y-93602215D01*
X143186172Y-93569317D01*
X143210963Y-93572625D01*
X143230174Y-93603107D01*
X143212923Y-93672629D01*
X143156352Y-93789967D01*
X143057602Y-93963892D01*
X143023744Y-94022210D01*
X142954782Y-94147239D01*
X142910280Y-94237342D01*
X142898616Y-94276065D01*
X142904753Y-94276464D01*
X142962462Y-94253756D01*
X143065737Y-94201581D01*
X143197560Y-94128346D01*
X143321006Y-94058332D01*
X143439448Y-93996807D01*
X143510165Y-93971402D01*
X143544368Y-93978531D01*
X143553271Y-94014610D01*
X143531430Y-94043495D01*
X143452409Y-94105035D01*
X143329250Y-94185953D01*
X143176239Y-94276329D01*
X143049167Y-94349732D01*
X142919772Y-94429353D01*
X142831723Y-94489501D01*
X142799219Y-94520961D01*
X142800731Y-94525253D01*
X142845552Y-94564846D01*
X142940018Y-94627538D01*
X143067109Y-94701839D01*
X143255207Y-94808382D01*
X143402491Y-94899017D01*
X143491178Y-94965333D01*
X143528126Y-95012537D01*
X143520195Y-95045837D01*
X143515586Y-95049081D01*
X143450388Y-95041798D01*
X143324628Y-94986651D01*
X143140106Y-94884403D01*
X143040904Y-94826646D01*
X142916244Y-94756237D01*
X142830877Y-94710826D01*
X142799219Y-94698285D01*
X142807540Y-94716848D01*
X142847873Y-94792030D01*
X142914076Y-94910325D01*
X142997656Y-95056407D01*
X143051878Y-95152449D01*
X143126158Y-95292424D01*
X143177150Y-95399631D01*
X143196094Y-95456412D01*
X143195956Y-95464837D01*
X143178439Y-95511690D01*
X143131648Y-95484958D01*
X143055711Y-95384765D01*
X142950754Y-95211238D01*
X142779375Y-94909663D01*
X142767964Y-95270770D01*
X142760492Y-95435599D01*
X142747869Y-95552836D01*
X142728402Y-95614164D01*
X142699770Y-95631876D01*
X142684637Y-95627477D01*
X142663373Y-95592424D01*
X142648619Y-95512649D01*
X142638667Y-95376603D01*
X142631806Y-95172742D01*
X142620625Y-94713607D01*
X142398534Y-95101251D01*
X142321262Y-95233033D01*
X142216804Y-95396156D01*
X142143037Y-95487791D01*
X142099278Y-95508719D01*
X142084843Y-95459720D01*
X142092648Y-95429705D01*
X142132953Y-95337655D01*
X142199839Y-95206564D01*
X142284557Y-95054198D01*
X142342596Y-94952374D01*
X142413141Y-94824081D01*
X142459277Y-94734191D01*
X142473072Y-94697704D01*
X142464987Y-94699029D01*
X142404431Y-94727371D01*
X142298771Y-94784263D01*
X142164219Y-94861128D01*
X142139373Y-94875644D01*
X141988053Y-94962361D01*
X141891037Y-95012247D01*
X141836448Y-95029280D01*
X141812405Y-95017436D01*
X141807031Y-94980691D01*
X141819124Y-94959101D01*
X141886607Y-94900082D01*
X142000086Y-94821857D01*
X142144375Y-94735465D01*
X142235693Y-94683356D01*
X142362365Y-94607689D01*
X142449334Y-94551247D01*
X142481623Y-94523447D01*
X142472972Y-94513346D01*
X142411256Y-94469688D01*
X142303189Y-94402704D01*
X142164219Y-94322188D01*
X142092453Y-94280509D01*
X141966437Y-94199997D01*
X141879347Y-94134076D01*
X141846814Y-94093985D01*
X141847010Y-94086832D01*
X141864618Y-94052071D01*
X141917694Y-94054745D01*
X142016073Y-94097575D01*
X142169589Y-94183282D01*
X142174821Y-94186347D01*
X142293960Y-94254897D01*
X142382534Y-94303637D01*
X142421711Y-94322188D01*
X142420705Y-94314587D01*
X142392935Y-94255396D01*
X142337075Y-94150292D01*
X142261130Y-94014610D01*
X142226370Y-93952723D01*
X142154158Y-93816453D01*
X142104003Y-93710613D01*
X142085139Y-93654116D01*
X142088688Y-93622987D01*
X142119359Y-93613480D01*
X142181336Y-93676512D01*
X142274450Y-93811888D01*
X142398534Y-94019411D01*
X142620625Y-94407091D01*
X142631889Y-93987608D01*
X142634408Y-93904350D01*
X142642751Y-93738910D01*
X142655338Y-93635878D01*
X142674193Y-93583026D01*
X142701342Y-93568126D01*
X142726931Y-93578880D01*
G37*
G36*
X134819388Y-95164885D02*
G01*
X134833717Y-95200107D01*
X134841216Y-95272842D01*
X134843655Y-95392858D01*
X134844453Y-95628572D01*
X134979369Y-95393715D01*
X135013856Y-95335591D01*
X135073091Y-95244567D01*
X135121140Y-95181684D01*
X135150000Y-95158000D01*
X135167847Y-95160383D01*
X135181677Y-95182326D01*
X135169258Y-95232376D01*
X135128532Y-95316849D01*
X135057441Y-95442059D01*
X135033066Y-95484043D01*
X134983420Y-95574052D01*
X134951382Y-95638919D01*
X134942985Y-95666796D01*
X134947403Y-95667083D01*
X134988949Y-95650735D01*
X135063297Y-95613174D01*
X135158198Y-95560451D01*
X135247068Y-95510047D01*
X135332336Y-95465755D01*
X135383245Y-95447465D01*
X135407869Y-95452598D01*
X135414278Y-95478572D01*
X135398555Y-95499366D01*
X135341667Y-95543670D01*
X135253003Y-95601923D01*
X135142849Y-95666986D01*
X135051368Y-95719829D01*
X134958216Y-95777150D01*
X134894829Y-95820450D01*
X134871428Y-95843098D01*
X134872517Y-95846189D01*
X134904784Y-95874692D01*
X134972791Y-95919825D01*
X135064285Y-95973314D01*
X135199699Y-96050016D01*
X135305730Y-96115265D01*
X135369577Y-96163007D01*
X135396176Y-96196989D01*
X135390466Y-96220962D01*
X135387148Y-96223298D01*
X135340212Y-96218055D01*
X135249676Y-96178353D01*
X135116837Y-96104744D01*
X135045420Y-96063165D01*
X134955676Y-96012476D01*
X134894220Y-95979785D01*
X134871428Y-95970756D01*
X134877419Y-95984120D01*
X134906455Y-96038244D01*
X134954115Y-96123406D01*
X135014285Y-96228572D01*
X135053320Y-96297713D01*
X135106795Y-96398483D01*
X135143505Y-96475662D01*
X135157142Y-96516540D01*
X135157044Y-96522604D01*
X135144432Y-96556335D01*
X135110747Y-96537090D01*
X135056080Y-96464960D01*
X134980520Y-96340036D01*
X134857142Y-96122929D01*
X134848927Y-96382894D01*
X134843549Y-96501556D01*
X134834461Y-96585956D01*
X134820446Y-96630107D01*
X134799834Y-96642858D01*
X134788940Y-96639691D01*
X134773631Y-96614456D01*
X134763010Y-96557025D01*
X134755845Y-96459084D01*
X134750906Y-96312322D01*
X134742857Y-95981787D01*
X134582971Y-96260855D01*
X134527343Y-96355727D01*
X134452142Y-96473161D01*
X134399037Y-96539129D01*
X134367534Y-96554195D01*
X134357142Y-96518921D01*
X134362761Y-96497312D01*
X134391777Y-96431045D01*
X134439929Y-96336671D01*
X134500918Y-96226982D01*
X134542701Y-96153678D01*
X134593487Y-96061318D01*
X134626700Y-95996606D01*
X134636632Y-95970338D01*
X134630811Y-95971292D01*
X134587216Y-95991695D01*
X134511151Y-96032653D01*
X134414285Y-96087988D01*
X134396399Y-96098439D01*
X134287462Y-96160867D01*
X134217619Y-96196781D01*
X134178320Y-96209043D01*
X134161011Y-96200516D01*
X134157142Y-96174063D01*
X134165848Y-96158520D01*
X134214430Y-96116032D01*
X134296125Y-96059717D01*
X134400000Y-95997522D01*
X134465741Y-95960009D01*
X134556933Y-95905535D01*
X134619543Y-95864902D01*
X134642788Y-95844888D01*
X134636560Y-95837617D01*
X134592130Y-95806187D01*
X134514331Y-95757965D01*
X134414285Y-95700000D01*
X134362620Y-95669995D01*
X134271901Y-95612034D01*
X134209204Y-95564577D01*
X134185782Y-95535715D01*
X134185924Y-95530565D01*
X134198600Y-95505540D01*
X134236810Y-95507465D01*
X134307634Y-95538299D01*
X134418151Y-95600000D01*
X134421918Y-95602207D01*
X134507687Y-95651557D01*
X134571452Y-95686645D01*
X134599657Y-95700000D01*
X134598933Y-95694528D01*
X134578940Y-95651916D01*
X134538726Y-95576251D01*
X134484053Y-95478572D01*
X134459029Y-95434018D01*
X134407042Y-95335916D01*
X134370936Y-95259721D01*
X134357355Y-95219048D01*
X134359910Y-95196638D01*
X134381990Y-95189794D01*
X134426608Y-95235172D01*
X134493642Y-95332630D01*
X134582971Y-95482028D01*
X134742857Y-95761122D01*
X134750966Y-95459133D01*
X134752779Y-95399195D01*
X134758785Y-95280092D01*
X134767847Y-95205919D01*
X134781421Y-95167870D01*
X134800966Y-95157143D01*
X134819388Y-95164885D01*
G37*
%TO.C,R14*%
D10*
X130846359Y-91120000D02*
X131153641Y-91120000D01*
X130846359Y-91880000D02*
X131153641Y-91880000D01*
D11*
%TO.C,G\u002A\u002A\u002A*%
G36*
X142909873Y-112119960D02*
G01*
X142885025Y-112162063D01*
X142777161Y-112310707D01*
X142622797Y-112498528D01*
X142446572Y-112694948D01*
X142370889Y-112776224D01*
X142207092Y-112967906D01*
X142113828Y-113126885D01*
X142081763Y-113288291D01*
X142101564Y-113487251D01*
X142163898Y-113758894D01*
X142203785Y-113918112D01*
X142247687Y-114095380D01*
X142273948Y-114203977D01*
X142276956Y-114217986D01*
X142272832Y-114291777D01*
X142213822Y-114288560D01*
X142095387Y-114205233D01*
X141912989Y-114038696D01*
X141662089Y-113785846D01*
X141642002Y-113765052D01*
X141451965Y-113570443D01*
X141293499Y-113411820D01*
X141182651Y-113305027D01*
X141135470Y-113265909D01*
X141128803Y-113268554D01*
X141054887Y-113318891D01*
X140920761Y-113419986D01*
X140749546Y-113554545D01*
X140597997Y-113669370D01*
X140381094Y-113800287D01*
X140222643Y-113843182D01*
X140107145Y-113830790D01*
X140058054Y-113799886D01*
X140061156Y-113788897D01*
X140086709Y-113739588D01*
X140203209Y-113739588D01*
X140209749Y-113784185D01*
X140291424Y-113753795D01*
X140452432Y-113648392D01*
X140696970Y-113467954D01*
X140788928Y-113399512D01*
X140970621Y-113271822D01*
X141110752Y-113183465D01*
X141184722Y-113150454D01*
X141217021Y-113163954D01*
X141308267Y-113248252D01*
X141415387Y-113384217D01*
X141490762Y-113482317D01*
X141662109Y-113671155D01*
X141843847Y-113841074D01*
X142110309Y-114064169D01*
X142028648Y-113570461D01*
X142003581Y-113415085D01*
X141978934Y-113230598D01*
X141976583Y-113120332D01*
X141997084Y-113059708D01*
X142040994Y-113024144D01*
X142090762Y-112987498D01*
X142135000Y-112913928D01*
X142135100Y-112912303D01*
X142176838Y-112842253D01*
X142279713Y-112719262D01*
X142422432Y-112568888D01*
X142630991Y-112348627D01*
X142759772Y-112185684D01*
X142803317Y-112088530D01*
X142761626Y-112060187D01*
X142634697Y-112103674D01*
X142422531Y-112222013D01*
X142311840Y-112285571D01*
X142138689Y-112368910D01*
X142013580Y-112409627D01*
X142007649Y-112410405D01*
X141928690Y-112403171D01*
X141858374Y-112351825D01*
X141789894Y-112242664D01*
X141716438Y-112061986D01*
X141631197Y-111796088D01*
X141527361Y-111431268D01*
X141347930Y-110780037D01*
X141275501Y-111488996D01*
X141274029Y-111503324D01*
X141242553Y-111777573D01*
X141210115Y-112008536D01*
X141180452Y-112172308D01*
X141157300Y-112244986D01*
X141121124Y-112242112D01*
X141031285Y-112171573D01*
X140917597Y-112042940D01*
X140838896Y-111943123D01*
X140741320Y-111823519D01*
X140688932Y-111765000D01*
X140670073Y-111744125D01*
X140597563Y-111647375D01*
X140499826Y-111506258D01*
X140458640Y-111446804D01*
X140392813Y-111368000D01*
X140357448Y-111361313D01*
X140352841Y-111434509D01*
X140379285Y-111595356D01*
X140437075Y-111851620D01*
X140526504Y-112211068D01*
X140589412Y-112460813D01*
X140640579Y-112679488D01*
X140665988Y-112824854D01*
X140667746Y-112917913D01*
X140647958Y-112979671D01*
X140608730Y-113031130D01*
X140543919Y-113117613D01*
X140498303Y-113219394D01*
X140496669Y-113227658D01*
X140450989Y-113333539D01*
X140367815Y-113469798D01*
X140267609Y-113620025D01*
X140203209Y-113739588D01*
X140086709Y-113739588D01*
X140107659Y-113699163D01*
X140198249Y-113546787D01*
X140317827Y-113357482D01*
X140355107Y-113299265D01*
X140467892Y-113113898D01*
X140546712Y-112969931D01*
X140576364Y-112894585D01*
X140576340Y-112893429D01*
X140561888Y-112811404D01*
X140524537Y-112642522D01*
X140469797Y-112410793D01*
X140403182Y-112140227D01*
X140345391Y-111900747D01*
X140271132Y-111543767D01*
X140235275Y-111284260D01*
X140238241Y-111125878D01*
X140280450Y-111072272D01*
X140303035Y-111087246D01*
X140382181Y-111178276D01*
X140497476Y-111333566D01*
X140632608Y-111531832D01*
X140705731Y-111641763D01*
X140838652Y-111834197D01*
X140945605Y-111979628D01*
X141008466Y-112052928D01*
X141027888Y-112067097D01*
X141064190Y-112073407D01*
X141094461Y-112034278D01*
X141121946Y-111935796D01*
X141149889Y-111764048D01*
X141181533Y-111505122D01*
X141220121Y-111145105D01*
X141223096Y-111116834D01*
X141254345Y-110856239D01*
X141285866Y-110649957D01*
X141314140Y-110518215D01*
X141335647Y-110481242D01*
X141365345Y-110548077D01*
X141417195Y-110704036D01*
X141483401Y-110925121D01*
X141556584Y-111187727D01*
X141623463Y-111430244D01*
X141703245Y-111706524D01*
X141773887Y-111938027D01*
X141825429Y-112091272D01*
X141848294Y-112150729D01*
X141906102Y-112266652D01*
X141969586Y-112304086D01*
X142068523Y-112287006D01*
X142112483Y-112271739D01*
X142274135Y-112194438D01*
X142446124Y-112090620D01*
X142508336Y-112052070D01*
X142687023Y-111970625D01*
X142837266Y-111938182D01*
X143003873Y-111938182D01*
X142926126Y-112088530D01*
X142909873Y-112119960D01*
G37*
%TO.C,R17*%
D10*
X151253641Y-80920000D02*
X150946359Y-80920000D01*
X151253641Y-81680000D02*
X150946359Y-81680000D01*
%TO.C,J1*%
X140280000Y-85580000D02*
X140280000Y-82820000D01*
X145470000Y-82820000D02*
X140280000Y-82820000D01*
X145470000Y-85580000D02*
X140280000Y-85580000D01*
X145470000Y-85580000D02*
X145470000Y-82820000D01*
X146740000Y-85580000D02*
X148120000Y-85580000D01*
X148120000Y-85580000D02*
X148120000Y-84200000D01*
%TO.C,D15*%
X133202500Y-82265000D02*
X135487500Y-82265000D01*
X133202500Y-83735000D02*
X133202500Y-82265000D01*
X135487500Y-83735000D02*
X133202500Y-83735000D01*
%TO.C,R13*%
X161146359Y-99220000D02*
X161453641Y-99220000D01*
X161146359Y-99980000D02*
X161453641Y-99980000D01*
%TO.C,TP8*%
X166000000Y-95000000D02*
X166000000Y-98400000D01*
X166000000Y-98400000D02*
X169400000Y-98400000D01*
X169400000Y-95000000D02*
X166000000Y-95000000D01*
X169400000Y-98400000D02*
X169400000Y-95000000D01*
%TO.C,D11*%
X142702500Y-97365000D02*
X144987500Y-97365000D01*
X142702500Y-98835000D02*
X142702500Y-97365000D01*
X144987500Y-98835000D02*
X142702500Y-98835000D01*
D11*
%TO.C,G\u002A\u002A\u002A*%
G36*
X152409873Y-84419960D02*
G01*
X152385025Y-84462063D01*
X152277161Y-84610707D01*
X152122797Y-84798528D01*
X151946572Y-84994948D01*
X151870889Y-85076224D01*
X151707092Y-85267906D01*
X151613828Y-85426885D01*
X151581763Y-85588291D01*
X151601564Y-85787251D01*
X151663898Y-86058894D01*
X151703785Y-86218112D01*
X151747687Y-86395380D01*
X151773948Y-86503977D01*
X151776956Y-86517986D01*
X151772832Y-86591777D01*
X151713822Y-86588560D01*
X151595387Y-86505233D01*
X151412989Y-86338696D01*
X151162089Y-86085846D01*
X151142002Y-86065052D01*
X150951965Y-85870443D01*
X150793499Y-85711820D01*
X150682651Y-85605027D01*
X150635470Y-85565909D01*
X150628803Y-85568554D01*
X150554887Y-85618891D01*
X150420761Y-85719986D01*
X150249546Y-85854545D01*
X150097997Y-85969370D01*
X149881094Y-86100287D01*
X149722643Y-86143182D01*
X149607145Y-86130790D01*
X149558054Y-86099886D01*
X149561156Y-86088897D01*
X149586709Y-86039588D01*
X149703209Y-86039588D01*
X149709749Y-86084185D01*
X149791424Y-86053795D01*
X149952432Y-85948392D01*
X150196970Y-85767954D01*
X150288928Y-85699512D01*
X150470621Y-85571822D01*
X150610752Y-85483465D01*
X150684722Y-85450454D01*
X150717021Y-85463954D01*
X150808267Y-85548252D01*
X150915387Y-85684217D01*
X150990762Y-85782317D01*
X151162109Y-85971155D01*
X151343847Y-86141074D01*
X151610309Y-86364169D01*
X151528648Y-85870461D01*
X151503581Y-85715085D01*
X151478934Y-85530598D01*
X151476583Y-85420332D01*
X151497084Y-85359708D01*
X151540994Y-85324144D01*
X151590762Y-85287498D01*
X151635000Y-85213928D01*
X151635100Y-85212303D01*
X151676838Y-85142253D01*
X151779713Y-85019262D01*
X151922432Y-84868888D01*
X152130991Y-84648627D01*
X152259772Y-84485684D01*
X152303317Y-84388530D01*
X152261626Y-84360187D01*
X152134697Y-84403674D01*
X151922531Y-84522013D01*
X151811840Y-84585571D01*
X151638689Y-84668910D01*
X151513580Y-84709627D01*
X151507649Y-84710405D01*
X151428690Y-84703171D01*
X151358374Y-84651825D01*
X151289894Y-84542664D01*
X151216438Y-84361986D01*
X151131197Y-84096088D01*
X151027361Y-83731268D01*
X150847930Y-83080037D01*
X150775501Y-83788996D01*
X150774029Y-83803324D01*
X150742553Y-84077573D01*
X150710115Y-84308536D01*
X150680452Y-84472308D01*
X150657300Y-84544986D01*
X150621124Y-84542112D01*
X150531285Y-84471573D01*
X150417597Y-84342940D01*
X150338896Y-84243123D01*
X150241320Y-84123519D01*
X150188932Y-84065000D01*
X150170073Y-84044125D01*
X150097563Y-83947375D01*
X149999826Y-83806258D01*
X149958640Y-83746804D01*
X149892813Y-83668000D01*
X149857448Y-83661313D01*
X149852841Y-83734509D01*
X149879285Y-83895356D01*
X149937075Y-84151620D01*
X150026504Y-84511068D01*
X150089412Y-84760813D01*
X150140579Y-84979488D01*
X150165988Y-85124854D01*
X150167746Y-85217913D01*
X150147958Y-85279671D01*
X150108730Y-85331130D01*
X150043919Y-85417613D01*
X149998303Y-85519394D01*
X149996669Y-85527658D01*
X149950989Y-85633539D01*
X149867815Y-85769798D01*
X149767609Y-85920025D01*
X149703209Y-86039588D01*
X149586709Y-86039588D01*
X149607659Y-85999163D01*
X149698249Y-85846787D01*
X149817827Y-85657482D01*
X149855107Y-85599265D01*
X149967892Y-85413898D01*
X150046712Y-85269931D01*
X150076364Y-85194585D01*
X150076340Y-85193429D01*
X150061888Y-85111404D01*
X150024537Y-84942522D01*
X149969797Y-84710793D01*
X149903182Y-84440227D01*
X149845391Y-84200747D01*
X149771132Y-83843767D01*
X149735275Y-83584260D01*
X149738241Y-83425878D01*
X149780450Y-83372272D01*
X149803035Y-83387246D01*
X149882181Y-83478276D01*
X149997476Y-83633566D01*
X150132608Y-83831832D01*
X150205731Y-83941763D01*
X150338652Y-84134197D01*
X150445605Y-84279628D01*
X150508466Y-84352928D01*
X150527888Y-84367097D01*
X150564190Y-84373407D01*
X150594461Y-84334278D01*
X150621946Y-84235796D01*
X150649889Y-84064048D01*
X150681533Y-83805122D01*
X150720121Y-83445105D01*
X150723096Y-83416834D01*
X150754345Y-83156239D01*
X150785866Y-82949957D01*
X150814140Y-82818215D01*
X150835647Y-82781242D01*
X150865345Y-82848077D01*
X150917195Y-83004036D01*
X150983401Y-83225121D01*
X151056584Y-83487727D01*
X151123463Y-83730244D01*
X151203245Y-84006524D01*
X151273887Y-84238027D01*
X151325429Y-84391272D01*
X151348294Y-84450729D01*
X151406102Y-84566652D01*
X151469586Y-84604086D01*
X151568523Y-84587006D01*
X151612483Y-84571739D01*
X151774135Y-84494438D01*
X151946124Y-84390620D01*
X152008336Y-84352070D01*
X152187023Y-84270625D01*
X152337266Y-84238182D01*
X152503873Y-84238182D01*
X152426126Y-84388530D01*
X152409873Y-84419960D01*
G37*
G36*
X145909873Y-100519960D02*
G01*
X145885025Y-100562063D01*
X145777161Y-100710707D01*
X145622797Y-100898528D01*
X145446572Y-101094948D01*
X145370889Y-101176224D01*
X145207092Y-101367906D01*
X145113828Y-101526885D01*
X145081763Y-101688291D01*
X145101564Y-101887251D01*
X145163898Y-102158894D01*
X145203785Y-102318112D01*
X145247687Y-102495380D01*
X145273948Y-102603977D01*
X145276956Y-102617986D01*
X145272832Y-102691777D01*
X145213822Y-102688560D01*
X145095387Y-102605233D01*
X144912989Y-102438696D01*
X144662089Y-102185846D01*
X144642002Y-102165052D01*
X144451965Y-101970443D01*
X144293499Y-101811820D01*
X144182651Y-101705027D01*
X144135470Y-101665909D01*
X144128803Y-101668554D01*
X144054887Y-101718891D01*
X143920761Y-101819986D01*
X143749546Y-101954545D01*
X143597997Y-102069370D01*
X143381094Y-102200287D01*
X143222643Y-102243182D01*
X143107145Y-102230790D01*
X143058054Y-102199886D01*
X143061156Y-102188897D01*
X143086709Y-102139588D01*
X143203209Y-102139588D01*
X143209749Y-102184185D01*
X143291424Y-102153795D01*
X143452432Y-102048392D01*
X143696970Y-101867954D01*
X143788928Y-101799512D01*
X143970621Y-101671822D01*
X144110752Y-101583465D01*
X144184722Y-101550454D01*
X144217021Y-101563954D01*
X144308267Y-101648252D01*
X144415387Y-101784217D01*
X144490762Y-101882317D01*
X144662109Y-102071155D01*
X144843847Y-102241074D01*
X145110309Y-102464169D01*
X145028648Y-101970461D01*
X145003581Y-101815085D01*
X144978934Y-101630598D01*
X144976583Y-101520332D01*
X144997084Y-101459708D01*
X145040994Y-101424144D01*
X145090762Y-101387498D01*
X145135000Y-101313928D01*
X145135100Y-101312303D01*
X145176838Y-101242253D01*
X145279713Y-101119262D01*
X145422432Y-100968888D01*
X145630991Y-100748627D01*
X145759772Y-100585684D01*
X145803317Y-100488530D01*
X145761626Y-100460187D01*
X145634697Y-100503674D01*
X145422531Y-100622013D01*
X145311840Y-100685571D01*
X145138689Y-100768910D01*
X145013580Y-100809627D01*
X145007649Y-100810405D01*
X144928690Y-100803171D01*
X144858374Y-100751825D01*
X144789894Y-100642664D01*
X144716438Y-100461986D01*
X144631197Y-100196088D01*
X144527361Y-99831268D01*
X144347930Y-99180037D01*
X144275501Y-99888996D01*
X144274029Y-99903324D01*
X144242553Y-100177573D01*
X144210115Y-100408536D01*
X144180452Y-100572308D01*
X144157300Y-100644986D01*
X144121124Y-100642112D01*
X144031285Y-100571573D01*
X143917597Y-100442940D01*
X143838896Y-100343123D01*
X143741320Y-100223519D01*
X143688932Y-100165000D01*
X143670073Y-100144125D01*
X143597563Y-100047375D01*
X143499826Y-99906258D01*
X143458640Y-99846804D01*
X143392813Y-99768000D01*
X143357448Y-99761313D01*
X143352841Y-99834509D01*
X143379285Y-99995356D01*
X143437075Y-100251620D01*
X143526504Y-100611068D01*
X143589412Y-100860813D01*
X143640579Y-101079488D01*
X143665988Y-101224854D01*
X143667746Y-101317913D01*
X143647958Y-101379671D01*
X143608730Y-101431130D01*
X143543919Y-101517613D01*
X143498303Y-101619394D01*
X143496669Y-101627658D01*
X143450989Y-101733539D01*
X143367815Y-101869798D01*
X143267609Y-102020025D01*
X143203209Y-102139588D01*
X143086709Y-102139588D01*
X143107659Y-102099163D01*
X143198249Y-101946787D01*
X143317827Y-101757482D01*
X143355107Y-101699265D01*
X143467892Y-101513898D01*
X143546712Y-101369931D01*
X143576364Y-101294585D01*
X143576340Y-101293429D01*
X143561888Y-101211404D01*
X143524537Y-101042522D01*
X143469797Y-100810793D01*
X143403182Y-100540227D01*
X143345391Y-100300747D01*
X143271132Y-99943767D01*
X143235275Y-99684260D01*
X143238241Y-99525878D01*
X143280450Y-99472272D01*
X143303035Y-99487246D01*
X143382181Y-99578276D01*
X143497476Y-99733566D01*
X143632608Y-99931832D01*
X143705731Y-100041763D01*
X143838652Y-100234197D01*
X143945605Y-100379628D01*
X144008466Y-100452928D01*
X144027888Y-100467097D01*
X144064190Y-100473407D01*
X144094461Y-100434278D01*
X144121946Y-100335796D01*
X144149889Y-100164048D01*
X144181533Y-99905122D01*
X144220121Y-99545105D01*
X144223096Y-99516834D01*
X144254345Y-99256239D01*
X144285866Y-99049957D01*
X144314140Y-98918215D01*
X144335647Y-98881242D01*
X144365345Y-98948077D01*
X144417195Y-99104036D01*
X144483401Y-99325121D01*
X144556584Y-99587727D01*
X144623463Y-99830244D01*
X144703245Y-100106524D01*
X144773887Y-100338027D01*
X144825429Y-100491272D01*
X144848294Y-100550729D01*
X144906102Y-100666652D01*
X144969586Y-100704086D01*
X145068523Y-100687006D01*
X145112483Y-100671739D01*
X145274135Y-100594438D01*
X145446124Y-100490620D01*
X145508336Y-100452070D01*
X145687023Y-100370625D01*
X145837266Y-100338182D01*
X146003873Y-100338182D01*
X145926126Y-100488530D01*
X145909873Y-100519960D01*
G37*
%TO.C,R15*%
D10*
X131046359Y-96720000D02*
X131353641Y-96720000D01*
X131046359Y-97480000D02*
X131353641Y-97480000D01*
%TO.C,D12*%
X159715000Y-100165000D02*
X162000000Y-100165000D01*
X159715000Y-101635000D02*
X159715000Y-100165000D01*
X162000000Y-101635000D02*
X159715000Y-101635000D01*
%TO.C,TP7*%
X119000000Y-95000000D02*
X119000000Y-98400000D01*
X119000000Y-98400000D02*
X122400000Y-98400000D01*
X122400000Y-95000000D02*
X119000000Y-95000000D01*
X122400000Y-98400000D02*
X122400000Y-95000000D01*
%TO.C,TP5*%
X142500000Y-71500000D02*
X142500000Y-74900000D01*
X142500000Y-74900000D02*
X145900000Y-74900000D01*
X145900000Y-71500000D02*
X142500000Y-71500000D01*
X145900000Y-74900000D02*
X145900000Y-71500000D01*
%TO.C,D14*%
X129502500Y-97765000D02*
X131787500Y-97765000D01*
X129502500Y-99235000D02*
X129502500Y-97765000D01*
X131787500Y-99235000D02*
X129502500Y-99235000D01*
D11*
%TO.C,G\u002A\u002A\u002A*%
G36*
X134909873Y-85119960D02*
G01*
X134885025Y-85162063D01*
X134777161Y-85310707D01*
X134622797Y-85498528D01*
X134446572Y-85694948D01*
X134370889Y-85776224D01*
X134207092Y-85967906D01*
X134113828Y-86126885D01*
X134081763Y-86288291D01*
X134101564Y-86487251D01*
X134163898Y-86758894D01*
X134203785Y-86918112D01*
X134247687Y-87095380D01*
X134273948Y-87203977D01*
X134276956Y-87217986D01*
X134272832Y-87291777D01*
X134213822Y-87288560D01*
X134095387Y-87205233D01*
X133912989Y-87038696D01*
X133662089Y-86785846D01*
X133642002Y-86765052D01*
X133451965Y-86570443D01*
X133293499Y-86411820D01*
X133182651Y-86305027D01*
X133135470Y-86265909D01*
X133128803Y-86268554D01*
X133054887Y-86318891D01*
X132920761Y-86419986D01*
X132749546Y-86554545D01*
X132597997Y-86669370D01*
X132381094Y-86800287D01*
X132222643Y-86843182D01*
X132107145Y-86830790D01*
X132058054Y-86799886D01*
X132061156Y-86788897D01*
X132086709Y-86739588D01*
X132203209Y-86739588D01*
X132209749Y-86784185D01*
X132291424Y-86753795D01*
X132452432Y-86648392D01*
X132696970Y-86467954D01*
X132788928Y-86399512D01*
X132970621Y-86271822D01*
X133110752Y-86183465D01*
X133184722Y-86150454D01*
X133217021Y-86163954D01*
X133308267Y-86248252D01*
X133415387Y-86384217D01*
X133490762Y-86482317D01*
X133662109Y-86671155D01*
X133843847Y-86841074D01*
X134110309Y-87064169D01*
X134028648Y-86570461D01*
X134003581Y-86415085D01*
X133978934Y-86230598D01*
X133976583Y-86120332D01*
X133997084Y-86059708D01*
X134040994Y-86024144D01*
X134090762Y-85987498D01*
X134135000Y-85913928D01*
X134135100Y-85912303D01*
X134176838Y-85842253D01*
X134279713Y-85719262D01*
X134422432Y-85568888D01*
X134630991Y-85348627D01*
X134759772Y-85185684D01*
X134803317Y-85088530D01*
X134761626Y-85060187D01*
X134634697Y-85103674D01*
X134422531Y-85222013D01*
X134311840Y-85285571D01*
X134138689Y-85368910D01*
X134013580Y-85409627D01*
X134007649Y-85410405D01*
X133928690Y-85403171D01*
X133858374Y-85351825D01*
X133789894Y-85242664D01*
X133716438Y-85061986D01*
X133631197Y-84796088D01*
X133527361Y-84431268D01*
X133347930Y-83780037D01*
X133275501Y-84488996D01*
X133274029Y-84503324D01*
X133242553Y-84777573D01*
X133210115Y-85008536D01*
X133180452Y-85172308D01*
X133157300Y-85244986D01*
X133121124Y-85242112D01*
X133031285Y-85171573D01*
X132917597Y-85042940D01*
X132838896Y-84943123D01*
X132741320Y-84823519D01*
X132688932Y-84765000D01*
X132670073Y-84744125D01*
X132597563Y-84647375D01*
X132499826Y-84506258D01*
X132458640Y-84446804D01*
X132392813Y-84368000D01*
X132357448Y-84361313D01*
X132352841Y-84434509D01*
X132379285Y-84595356D01*
X132437075Y-84851620D01*
X132526504Y-85211068D01*
X132589412Y-85460813D01*
X132640579Y-85679488D01*
X132665988Y-85824854D01*
X132667746Y-85917913D01*
X132647958Y-85979671D01*
X132608730Y-86031130D01*
X132543919Y-86117613D01*
X132498303Y-86219394D01*
X132496669Y-86227658D01*
X132450989Y-86333539D01*
X132367815Y-86469798D01*
X132267609Y-86620025D01*
X132203209Y-86739588D01*
X132086709Y-86739588D01*
X132107659Y-86699163D01*
X132198249Y-86546787D01*
X132317827Y-86357482D01*
X132355107Y-86299265D01*
X132467892Y-86113898D01*
X132546712Y-85969931D01*
X132576364Y-85894585D01*
X132576340Y-85893429D01*
X132561888Y-85811404D01*
X132524537Y-85642522D01*
X132469797Y-85410793D01*
X132403182Y-85140227D01*
X132345391Y-84900747D01*
X132271132Y-84543767D01*
X132235275Y-84284260D01*
X132238241Y-84125878D01*
X132280450Y-84072272D01*
X132303035Y-84087246D01*
X132382181Y-84178276D01*
X132497476Y-84333566D01*
X132632608Y-84531832D01*
X132705731Y-84641763D01*
X132838652Y-84834197D01*
X132945605Y-84979628D01*
X133008466Y-85052928D01*
X133027888Y-85067097D01*
X133064190Y-85073407D01*
X133094461Y-85034278D01*
X133121946Y-84935796D01*
X133149889Y-84764048D01*
X133181533Y-84505122D01*
X133220121Y-84145105D01*
X133223096Y-84116834D01*
X133254345Y-83856239D01*
X133285866Y-83649957D01*
X133314140Y-83518215D01*
X133335647Y-83481242D01*
X133365345Y-83548077D01*
X133417195Y-83704036D01*
X133483401Y-83925121D01*
X133556584Y-84187727D01*
X133623463Y-84430244D01*
X133703245Y-84706524D01*
X133773887Y-84938027D01*
X133825429Y-85091272D01*
X133848294Y-85150729D01*
X133906102Y-85266652D01*
X133969586Y-85304086D01*
X134068523Y-85287006D01*
X134112483Y-85271739D01*
X134274135Y-85194438D01*
X134446124Y-85090620D01*
X134508336Y-85052070D01*
X134687023Y-84970625D01*
X134837266Y-84938182D01*
X135003873Y-84938182D01*
X134926126Y-85088530D01*
X134909873Y-85119960D01*
G37*
%TO.C,D16*%
D10*
X149402500Y-81865000D02*
X151687500Y-81865000D01*
X149402500Y-83335000D02*
X149402500Y-81865000D01*
X151687500Y-83335000D02*
X149402500Y-83335000D01*
%TO.C,C3*%
X142397836Y-88280000D02*
X142182164Y-88280000D01*
X142397836Y-89000000D02*
X142182164Y-89000000D01*
%TO.C,D10*%
X137602500Y-109665000D02*
X139887500Y-109665000D01*
X137602500Y-111135000D02*
X137602500Y-109665000D01*
X139887500Y-111135000D02*
X137602500Y-111135000D01*
%TO.C,J2*%
X125536265Y-85946799D02*
X126593399Y-86833843D01*
X126423310Y-84889660D02*
X125536265Y-85946799D01*
X127239645Y-83916779D02*
X128943030Y-81886772D01*
X127239645Y-83916779D02*
X129353931Y-85690880D01*
X128943030Y-81886772D02*
X131057317Y-83660862D01*
X129353931Y-85690880D02*
X131057317Y-83660862D01*
%TO.C,R12*%
X144356359Y-96420000D02*
X144663641Y-96420000D01*
X144356359Y-97180000D02*
X144663641Y-97180000D01*
%TD*%
M02*
