%TF.GenerationSoftware,KiCad,Pcbnew,10.0.0-10.0.0~ubuntu24.04.1*%
%TF.CreationDate,2026-07-03T06:11:15-07:00*%
%TF.ProjectId,INNER_PCB,494e4e45-525f-4504-9342-2e6b69636164,rev?*%
%TF.SameCoordinates,Original*%
%TF.FileFunction,Soldermask,Top*%
%TF.FilePolarity,Negative*%
%FSLAX46Y46*%
G04 Gerber Fmt 4.6, Leading zero omitted, Abs format (unit mm)*
G04 Created by KiCad (PCBNEW 10.0.0-10.0.0~ubuntu24.04.1) date 2026-07-03 06:11:15*
%MOMM*%
%LPD*%
G01*
G04 APERTURE LIST*
G04 Aperture macros list*
%AMRoundRect*
0 Rectangle with rounded corners*
0 $1 Rounding radius*
0 $2 $3 $4 $5 $6 $7 $8 $9 X,Y pos of 4 corners*
0 Add a 4 corners polygon primitive as box body*
4,1,4,$2,$3,$4,$5,$6,$7,$8,$9,$2,$3,0*
0 Add four circle primitives for the rounded corners*
1,1,$1+$1,$2,$3*
1,1,$1+$1,$4,$5*
1,1,$1+$1,$6,$7*
1,1,$1+$1,$8,$9*
0 Add four rect primitives between the rounded corners*
20,1,$1+$1,$2,$3,$4,$5,0*
20,1,$1+$1,$4,$5,$6,$7,0*
20,1,$1+$1,$6,$7,$8,$9,0*
20,1,$1+$1,$8,$9,$2,$3,0*%
%AMRotRect*
0 Rectangle, with rotation*
0 The origin of the aperture is its center*
0 $1 length*
0 $2 width*
0 $3 Rotation angle, in degrees counterclockwise*
0 Add horizontal line*
21,1,$1,$2,0,0,$3*%
G04 Aperture macros list end*
%ADD10C,0.100000*%
%ADD11C,0.000000*%
%ADD12RoundRect,0.135000X0.185000X-0.135000X0.185000X0.135000X-0.185000X0.135000X-0.185000X-0.135000X0*%
%ADD13RoundRect,0.135000X-0.135000X-0.185000X0.135000X-0.185000X0.135000X0.185000X-0.135000X0.185000X0*%
%ADD14RoundRect,0.218750X-0.218750X-0.256250X0.218750X-0.256250X0.218750X0.256250X-0.218750X0.256250X0*%
%ADD15R,3.000000X3.000000*%
%ADD16RoundRect,0.135000X0.135000X0.185000X-0.135000X0.185000X-0.135000X-0.185000X0.135000X-0.185000X0*%
%ADD17R,1.700000X1.700000*%
%ADD18C,1.700000*%
%ADD19RotRect,1.700000X1.700000X320.000000*%
G04 APERTURE END LIST*
D10*
X125200000Y-98200000D02*
X125200040Y-98230113D01*
X125200160Y-98260255D01*
X125200360Y-98290426D01*
X125200640Y-98320626D01*
X125201000Y-98350855D01*
X125201441Y-98381114D01*
X125201961Y-98411402D01*
X125202563Y-98441720D01*
X125203245Y-98472067D01*
X125204007Y-98502443D01*
X125204850Y-98532849D01*
X125205774Y-98563284D01*
X125206779Y-98593749D01*
X125207864Y-98624244D01*
X125209031Y-98654768D01*
X125210279Y-98685322D01*
X125211608Y-98715906D01*
X125213018Y-98746519D01*
X125214510Y-98777162D01*
X125216083Y-98807835D01*
X125217737Y-98838538D01*
X125219474Y-98869270D01*
X125221292Y-98900033D01*
X125223191Y-98930826D01*
X125225173Y-98961648D01*
X125227237Y-98992500D01*
X125229383Y-99023383D01*
X125231611Y-99054295D01*
X125233921Y-99085238D01*
X125236314Y-99116210D01*
X125238789Y-99147213D01*
X125241347Y-99178246D01*
X125243987Y-99209309D01*
X125246710Y-99240402D01*
X125249516Y-99271526D01*
X125252405Y-99302679D01*
X125255377Y-99333863D01*
X125258432Y-99365077D01*
X125261571Y-99396321D01*
X125264793Y-99427596D01*
X125268098Y-99458900D01*
X125271487Y-99490235D01*
X125274959Y-99521601D01*
X125278515Y-99552996D01*
X125282155Y-99584422D01*
X125285879Y-99615878D01*
X125289687Y-99647365D01*
X125293580Y-99678882D01*
X125297556Y-99710429D01*
X125301617Y-99742006D01*
X125305762Y-99773614D01*
X125309992Y-99805252D01*
X125314306Y-99836920D01*
X125318705Y-99868619D01*
X125323190Y-99900348D01*
X125327759Y-99932107D01*
X125332413Y-99963896D01*
X125337152Y-99995716D01*
X125341977Y-100027566D01*
X125346887Y-100059446D01*
X125351882Y-100091357D01*
X125356964Y-100123297D01*
X125362130Y-100155268D01*
X125367383Y-100187269D01*
X125372722Y-100219300D01*
X125378146Y-100251361D01*
X125383657Y-100283452D01*
X125389254Y-100315574D01*
X125394937Y-100347725D01*
X125400707Y-100379906D01*
X125406563Y-100412118D01*
X125412506Y-100444359D01*
X125418535Y-100476630D01*
X125424652Y-100508931D01*
X125430855Y-100541262D01*
X125437146Y-100573622D01*
X125443523Y-100606013D01*
X125449988Y-100638433D01*
X125456541Y-100670882D01*
X125463180Y-100703361D01*
X125469908Y-100735870D01*
X125476723Y-100768408D01*
X125483626Y-100800976D01*
X125490616Y-100833573D01*
X125497695Y-100866199D01*
X125504862Y-100898855D01*
X125512117Y-100931540D01*
X125519460Y-100964253D01*
X125526892Y-100996996D01*
X125534412Y-101029768D01*
X125542021Y-101062569D01*
X125549718Y-101095398D01*
X125557505Y-101128257D01*
X125565380Y-101161143D01*
X125573344Y-101194059D01*
X125581397Y-101227003D01*
X125589539Y-101259975D01*
X125597771Y-101292976D01*
X125606092Y-101326005D01*
X125614503Y-101359062D01*
X125623003Y-101392147D01*
X125631592Y-101425260D01*
X125640272Y-101458400D01*
X125649041Y-101491569D01*
X125657900Y-101524765D01*
X125666849Y-101557988D01*
X125675888Y-101591239D01*
X125685018Y-101624517D01*
X125694237Y-101657822D01*
X125703547Y-101691154D01*
X125712948Y-101724513D01*
X125722439Y-101757898D01*
X125732020Y-101791311D01*
X125741692Y-101824749D01*
X125751455Y-101858214D01*
X125761309Y-101891705D01*
X125771254Y-101925222D01*
X125781289Y-101958765D01*
X125791416Y-101992334D01*
X125801634Y-102025928D01*
X125811943Y-102059547D01*
X125822343Y-102093191D01*
X125832834Y-102126861D01*
X125843417Y-102160555D01*
X125854092Y-102194274D01*
X125864857Y-102228018D01*
X125875715Y-102261786D01*
X125886664Y-102295577D01*
X125897705Y-102329393D01*
X125908837Y-102363232D01*
X125920061Y-102397095D01*
X125931378Y-102430981D01*
X125942786Y-102464890D01*
X125954285Y-102498822D01*
X125965877Y-102532777D01*
X125977561Y-102566754D01*
X125989337Y-102600752D01*
X126001205Y-102634773D01*
X126013165Y-102668816D01*
X126025217Y-102702880D01*
X126037362Y-102736964D01*
X126049599Y-102771070D01*
X126061927Y-102805197D01*
X126074348Y-102839343D01*
X126086862Y-102873510D01*
X126099467Y-102907696D01*
X126112165Y-102941902D01*
X126124955Y-102976127D01*
X126137838Y-103010371D01*
X126150812Y-103044634D01*
X126163879Y-103078915D01*
X126177039Y-103113213D01*
X126190290Y-103147529D01*
X126203634Y-103181863D01*
X126217070Y-103216213D01*
X126230598Y-103250580D01*
X126244218Y-103284963D01*
X126257930Y-103319362D01*
X126271735Y-103353776D01*
X126285631Y-103388206D01*
X126299620Y-103422650D01*
X126313701Y-103457108D01*
X126327873Y-103491581D01*
X126342137Y-103526066D01*
X126356493Y-103560565D01*
X126370941Y-103595077D01*
X126385480Y-103629600D01*
X126400111Y-103664136D01*
X126414834Y-103698683D01*
X126429648Y-103733240D01*
X126444553Y-103767808D01*
X126459549Y-103802386D01*
X126474636Y-103836973D01*
X126489814Y-103871569D01*
X126505084Y-103906174D01*
X126520443Y-103940786D01*
X126535894Y-103975405D01*
X126551434Y-104010032D01*
X126567065Y-104044664D01*
X126582786Y-104079303D01*
X126598597Y-104113946D01*
X126614498Y-104148594D01*
X126630488Y-104183245D01*
X126646568Y-104217900D01*
X126662737Y-104252558D01*
X126678995Y-104287217D01*
X126695341Y-104321878D01*
X126711776Y-104356539D01*
X126728300Y-104391201D01*
X126744911Y-104425862D01*
X126761610Y-104460521D01*
X126778397Y-104495178D01*
X126795271Y-104529833D01*
X126812232Y-104564483D01*
X126829280Y-104599130D01*
X126846414Y-104633771D01*
X126863633Y-104668406D01*
X126880939Y-104703034D01*
X126898330Y-104737655D01*
X126915806Y-104772267D01*
X126933367Y-104806870D01*
X126951011Y-104841462D01*
X126968740Y-104876043D01*
X126986552Y-104910612D01*
X127004447Y-104945169D01*
X127022425Y-104979711D01*
X127040484Y-105014238D01*
X127058625Y-105048749D01*
X127076848Y-105083242D01*
X127095151Y-105117718D01*
X127113534Y-105152175D01*
X127131996Y-105186611D01*
X127150538Y-105221025D01*
X127169157Y-105255418D01*
X127187855Y-105289786D01*
X127206630Y-105324129D01*
X127225481Y-105358446D01*
X127244408Y-105392735D01*
X127263410Y-105426996D01*
X127282487Y-105461227D01*
X127301637Y-105495426D01*
X127320860Y-105529592D01*
X127340156Y-105563724D01*
X127359523Y-105597820D01*
X127378960Y-105631879D01*
X127398467Y-105665899D01*
X127418042Y-105699879D01*
X127437686Y-105733817D01*
X127457396Y-105767712D01*
X127477173Y-105801561D01*
X127497014Y-105835363D01*
X127516919Y-105869117D01*
X127536887Y-105902821D01*
X127556916Y-105936472D01*
X127577006Y-105970069D01*
X127597155Y-106003610D01*
X127617362Y-106037093D01*
X127637626Y-106070516D01*
X127657946Y-106103876D01*
X127678319Y-106137173D01*
X127698746Y-106170403D01*
X127719223Y-106203564D01*
X127739750Y-106236654D01*
X127760326Y-106269671D01*
X127780948Y-106302613D01*
X127801615Y-106335476D01*
X127822325Y-106368258D01*
X127843077Y-106400957D01*
X127863869Y-106433570D01*
X127884698Y-106466094D01*
X127905563Y-106498527D01*
X127926462Y-106530865D01*
X127947393Y-106563105D01*
X127968353Y-106595245D01*
X127989341Y-106627282D01*
X128010354Y-106659211D01*
X128031389Y-106691031D01*
X128052445Y-106722736D01*
X128073519Y-106754325D01*
X128094607Y-106785793D01*
X128115708Y-106817136D01*
X128136819Y-106848352D01*
X128157936Y-106879435D01*
X128179057Y-106910382D01*
X128200178Y-106941189D01*
X128221297Y-106971851D01*
X128242410Y-107002365D01*
X128263513Y-107032725D01*
X128284604Y-107062927D01*
X128305677Y-107092967D01*
X128326731Y-107122839D01*
X128347759Y-107152538D01*
X128368759Y-107182060D01*
X128389727Y-107211398D01*
X128410657Y-107240548D01*
X128431546Y-107269504D01*
X128452388Y-107298259D01*
X128473179Y-107326809D01*
X128493914Y-107355146D01*
X128514587Y-107383265D01*
X128535194Y-107411160D01*
X128555728Y-107438823D01*
X128576184Y-107466247D01*
X128596557Y-107493426D01*
X128616839Y-107520353D01*
X128637025Y-107547020D01*
X128657107Y-107573419D01*
X128677081Y-107599543D01*
X128696937Y-107625384D01*
X128716670Y-107650933D01*
X128736271Y-107676183D01*
X128755734Y-107701125D01*
X128765419Y-107713489D01*
X128775049Y-107725750D01*
X128784658Y-107737951D01*
X128794211Y-107750049D01*
X128803738Y-107762084D01*
X128813209Y-107774014D01*
X128822651Y-107785877D01*
X128832035Y-107797634D01*
X128841388Y-107809321D01*
X128850682Y-107820902D01*
X128859941Y-107832408D01*
X128869139Y-107843806D01*
X128878300Y-107855127D01*
X128887398Y-107866339D01*
X128896455Y-107877469D01*
X128905449Y-107888489D01*
X128914399Y-107899424D01*
X128923284Y-107910248D01*
X128932121Y-107920982D01*
X128940891Y-107931605D01*
X128949611Y-107942134D01*
X128958263Y-107952551D01*
X128966859Y-107962870D01*
X128975387Y-107973076D01*
X128983856Y-107983179D01*
X128992256Y-107993169D01*
X129000592Y-108003053D01*
X129008857Y-108012822D01*
X129017056Y-108022482D01*
X129025182Y-108032025D01*
X129033238Y-108041455D01*
X129041221Y-108050769D01*
X129049128Y-108059964D01*
X129056962Y-108069043D01*
X129064716Y-108078000D01*
X129072396Y-108086840D01*
X129079992Y-108095554D01*
X129087513Y-108104151D01*
X129094946Y-108112617D01*
X129102303Y-108120967D01*
X129109569Y-108129182D01*
X129116758Y-108137281D01*
X129123851Y-108145242D01*
X129130866Y-108153086D01*
X129137782Y-108160788D01*
X129144620Y-108168375D01*
X129151355Y-108175816D01*
X129158011Y-108183142D01*
X129164560Y-108190320D01*
X129171031Y-108197382D01*
X129177391Y-108204294D01*
X129183673Y-108211092D01*
X129189840Y-108217736D01*
X129195929Y-108224266D01*
X129201901Y-108230642D01*
X129207794Y-108236904D01*
X129213567Y-108243010D01*
X129219261Y-108249004D01*
X129224833Y-108254840D01*
X129230327Y-108260565D01*
X129235696Y-108266131D01*
X129240988Y-108271588D01*
X129246152Y-108276885D01*
X129251240Y-108282075D01*
X129256199Y-108287106D01*
X129261083Y-108292030D01*
X129265836Y-108296796D01*
X129270514Y-108301458D01*
X129275061Y-108305961D01*
X129279535Y-108310363D01*
X129283877Y-108314607D01*
X129288146Y-108318752D01*
X129292284Y-108322742D01*
X129296351Y-108326636D01*
X129300286Y-108330376D01*
X129304152Y-108334022D01*
X129307887Y-108337517D01*
X129311554Y-108340921D01*
X129315091Y-108344178D01*
X129318563Y-108347346D01*
X129321906Y-108350371D01*
X129325185Y-108353310D01*
X129328337Y-108356109D01*
X129331428Y-108358826D01*
X129334394Y-108361407D01*
X129337300Y-108363909D01*
X129340085Y-108366281D01*
X129342812Y-108368576D01*
X129345420Y-108370745D01*
X129347972Y-108372842D01*
X129350409Y-108374818D01*
X129352793Y-108376725D01*
X129355064Y-108378517D01*
X129357285Y-108380242D01*
X129359398Y-108381859D01*
X129361461Y-108383412D01*
X129363421Y-108384862D01*
X129365334Y-108386253D01*
X129367147Y-108387546D01*
X129368916Y-108388783D01*
X129370589Y-108389928D01*
X129372221Y-108391020D01*
X129373761Y-108392028D01*
X129375262Y-108392985D01*
X129376677Y-108393863D01*
X129378054Y-108394694D01*
X129379349Y-108395453D01*
X129380609Y-108396167D01*
X129381792Y-108396815D01*
X129382942Y-108397421D01*
X129384020Y-108397966D01*
X129385067Y-108398473D01*
X129386046Y-108398926D01*
X129386996Y-108399342D01*
X129387883Y-108399709D01*
X129388744Y-108400042D01*
X129389545Y-108400332D01*
X129390322Y-108400591D01*
X129391045Y-108400811D01*
X129391746Y-108401002D01*
X129392396Y-108401159D01*
X129393025Y-108401291D01*
X129393609Y-108401392D01*
X129394174Y-108401469D01*
X129394697Y-108401520D01*
X129395203Y-108401549D01*
X129395672Y-108401556D01*
X129396124Y-108401542D01*
X129396543Y-108401510D01*
X129396947Y-108401458D01*
X129397323Y-108401389D01*
X129397684Y-108401303D01*
X129398020Y-108401202D01*
X129398342Y-108401084D01*
X129398644Y-108400952D01*
X129398932Y-108400804D01*
X129399202Y-108400642D01*
X129399459Y-108400465D01*
X129399701Y-108400274D01*
X129399931Y-108400068D01*
X129400000Y-108400000D01*
X125700000Y-96900000D02*
X125701804Y-96899110D01*
X125703552Y-96898270D01*
X125705142Y-96897528D01*
X125706684Y-96896832D01*
X125708094Y-96896218D01*
X125709463Y-96895645D01*
X125710720Y-96895140D01*
X125711940Y-96894672D01*
X125713065Y-96894262D01*
X125714158Y-96893886D01*
X125715167Y-96893560D01*
X125716147Y-96893265D01*
X125717055Y-96893013D01*
X125717937Y-96892789D01*
X125718756Y-96892602D01*
X125719551Y-96892442D01*
X125720291Y-96892313D01*
X125721009Y-96892209D01*
X125721679Y-96892132D01*
X125722329Y-96892078D01*
X125722937Y-96892047D01*
X125723526Y-96892038D01*
X125724078Y-96892050D01*
X125724614Y-96892081D01*
X125725116Y-96892131D01*
X125725604Y-96892200D01*
X125726063Y-96892285D01*
X125726509Y-96892388D01*
X125726929Y-96892506D01*
X125727337Y-96892641D01*
X125727723Y-96892790D01*
X125728097Y-96892956D01*
X125728454Y-96893136D01*
X125728798Y-96893333D01*
X125729127Y-96893544D01*
X125729445Y-96893771D01*
X125730043Y-96894274D01*
X125730597Y-96894844D01*
X125731110Y-96895488D01*
X125731584Y-96896211D01*
X125732018Y-96897021D01*
X125732413Y-96897930D01*
X125732767Y-96898946D01*
X125733077Y-96900084D01*
X125733339Y-96901356D01*
X125733550Y-96902778D01*
X125733703Y-96904368D01*
X125733793Y-96906146D01*
X125733813Y-96908134D01*
X125733754Y-96910359D01*
X125733606Y-96912850D01*
X125733361Y-96915643D01*
X125733003Y-96918781D01*
X125732520Y-96922315D01*
X125731892Y-96926309D01*
X125731098Y-96930844D01*
X125730109Y-96936030D01*
X125728886Y-96942013D01*
X125727375Y-96949011D01*
X125725491Y-96957366D01*
X125723084Y-96967692D01*
X125719821Y-96981358D01*
X125716237Y-96996196D01*
X125712346Y-97012306D01*
X125708179Y-97029709D01*
X125706001Y-97038904D01*
X125703767Y-97048431D01*
X125701479Y-97058294D01*
X125699141Y-97068496D01*
X125696758Y-97079041D01*
X125694332Y-97089931D01*
X125691869Y-97101170D01*
X125689372Y-97112761D01*
X125686844Y-97124708D01*
X125684290Y-97137012D01*
X125681714Y-97149679D01*
X125679119Y-97162710D01*
X125676509Y-97176109D01*
X125673888Y-97189879D01*
X125671260Y-97204024D01*
X125668629Y-97218546D01*
X125665998Y-97233449D01*
X125663372Y-97248736D01*
X125660755Y-97264411D01*
X125658149Y-97280475D01*
X125655560Y-97296934D01*
X125654273Y-97305311D01*
X125652991Y-97313789D01*
X125651715Y-97322366D01*
X125650446Y-97331044D01*
X125649183Y-97339822D01*
X125647928Y-97348702D01*
X125646681Y-97357684D01*
X125645442Y-97366767D01*
X125644212Y-97375953D01*
X125642992Y-97385241D01*
X125641781Y-97394633D01*
X125640580Y-97404128D01*
X125639391Y-97413728D01*
X125638212Y-97423431D01*
X125637046Y-97433240D01*
X125635892Y-97443154D01*
X125634750Y-97453173D01*
X125633622Y-97463298D01*
X125632507Y-97473530D01*
X125631406Y-97483868D01*
X125630321Y-97494314D01*
X125629250Y-97504867D01*
X125628195Y-97515529D01*
X125627156Y-97526298D01*
X125626134Y-97537177D01*
X125625128Y-97548165D01*
X125624141Y-97559262D01*
X125623171Y-97570469D01*
X125622220Y-97581787D01*
X125621288Y-97593215D01*
X125620375Y-97604755D01*
X125619482Y-97616406D01*
X125618610Y-97628170D01*
X125617759Y-97640045D01*
X125616929Y-97652034D01*
X125616121Y-97664135D01*
X125615336Y-97676351D01*
X125614573Y-97688680D01*
X125613834Y-97701124D01*
X125613119Y-97713682D01*
X125612428Y-97726356D01*
X125611761Y-97739145D01*
X125611120Y-97752050D01*
X125610505Y-97765072D01*
X125609916Y-97778210D01*
X125609354Y-97791466D01*
X125608819Y-97804839D01*
X125608312Y-97818330D01*
X125607833Y-97831940D01*
X125607383Y-97845668D01*
X125606961Y-97859516D01*
X125606570Y-97873483D01*
X125606208Y-97887570D01*
X125605878Y-97901778D01*
X125605578Y-97916106D01*
X125605310Y-97930556D01*
X125605074Y-97945127D01*
X125604870Y-97959820D01*
X125604700Y-97974636D01*
X125604563Y-97989574D01*
X125604460Y-98004635D01*
X125604391Y-98019821D01*
X125604358Y-98035130D01*
X125604360Y-98050563D01*
X125604397Y-98066122D01*
X125604472Y-98081805D01*
X125604583Y-98097614D01*
X125604731Y-98113549D01*
X125604918Y-98129611D01*
X125605142Y-98145799D01*
X125605406Y-98162115D01*
X125605709Y-98178558D01*
X125606051Y-98195129D01*
X125606434Y-98211828D01*
X125606858Y-98228656D01*
X125607323Y-98245614D01*
X125607829Y-98262701D01*
X125608378Y-98279918D01*
X125608970Y-98297265D01*
X125609605Y-98314744D01*
X125610283Y-98332353D01*
X125611005Y-98350094D01*
X125611773Y-98367967D01*
X125612585Y-98385972D01*
X125613443Y-98404111D01*
X125614347Y-98422382D01*
X125615297Y-98440787D01*
X125616295Y-98459326D01*
X125617340Y-98477999D01*
X125618433Y-98496807D01*
X125619574Y-98515751D01*
X125620765Y-98534830D01*
X125622005Y-98554045D01*
X125623295Y-98573396D01*
X125624635Y-98592884D01*
X125626026Y-98612509D01*
X125627469Y-98632272D01*
X125628964Y-98652173D01*
X125630510Y-98672212D01*
X125632110Y-98692391D01*
X125633763Y-98712708D01*
X125635470Y-98733165D01*
X125637231Y-98753762D01*
X125639047Y-98774499D01*
X125640918Y-98795377D01*
X125642845Y-98816396D01*
X125644828Y-98837557D01*
X125646868Y-98858860D01*
X125648965Y-98880305D01*
X125651120Y-98901893D01*
X125653333Y-98923624D01*
X125655604Y-98945499D01*
X125657935Y-98967517D01*
X125660325Y-98989681D01*
X125662776Y-99011989D01*
X125665287Y-99034442D01*
X125667859Y-99057040D01*
X125670492Y-99079785D01*
X125673188Y-99102676D01*
X125675946Y-99125714D01*
X125678767Y-99148899D01*
X125681651Y-99172232D01*
X125684600Y-99195712D01*
X125687612Y-99219341D01*
X125690690Y-99243119D01*
X125693833Y-99267046D01*
X125697043Y-99291123D01*
X125700318Y-99315350D01*
X125703660Y-99339727D01*
X125707070Y-99364254D01*
X125710547Y-99388933D01*
X125714093Y-99413764D01*
X125717708Y-99438746D01*
X125721392Y-99463881D01*
X125725145Y-99489169D01*
X125728969Y-99514610D01*
X125732864Y-99540204D01*
X125736830Y-99565953D01*
X125740867Y-99591856D01*
X125744977Y-99617914D01*
X125749159Y-99644126D01*
X125753414Y-99670495D01*
X125757743Y-99697019D01*
X125762146Y-99723700D01*
X125766624Y-99750538D01*
X125771177Y-99777533D01*
X125775805Y-99804685D01*
X125780510Y-99831995D01*
X125785291Y-99859464D01*
X125790149Y-99887092D01*
X125795084Y-99914878D01*
X125800097Y-99942825D01*
X125805189Y-99970931D01*
X125810360Y-99999198D01*
X125815610Y-100027625D01*
X125820940Y-100056214D01*
X125826351Y-100084964D01*
X125831842Y-100113876D01*
X125837415Y-100142951D01*
X125843069Y-100172188D01*
X125848806Y-100201589D01*
X125854626Y-100231153D01*
X125860529Y-100260881D01*
X125866515Y-100290774D01*
X125872586Y-100320831D01*
X125878742Y-100351054D01*
X125884983Y-100381442D01*
X125891310Y-100411996D01*
X125897722Y-100442717D01*
X125904222Y-100473604D01*
X125910808Y-100504658D01*
X125917483Y-100535880D01*
X125924245Y-100567271D01*
X125931096Y-100598829D01*
X125938036Y-100630556D01*
X125945066Y-100662453D01*
X125952185Y-100694519D01*
X125959396Y-100726755D01*
X125966697Y-100759161D01*
X125974089Y-100791738D01*
X125981574Y-100824486D01*
X125989151Y-100857406D01*
X125996821Y-100890498D01*
X126004585Y-100923763D01*
X126012442Y-100957200D01*
X126020394Y-100990810D01*
X126028441Y-101024594D01*
X126036583Y-101058552D01*
X126044821Y-101092684D01*
X126053156Y-101126991D01*
X126061587Y-101161473D01*
X126070115Y-101196131D01*
X126078741Y-101230965D01*
X126087466Y-101265975D01*
X126096289Y-101301162D01*
X126105211Y-101336526D01*
X126114234Y-101372067D01*
X126123356Y-101407787D01*
X126132579Y-101443685D01*
X126141903Y-101479762D01*
X126151329Y-101516018D01*
X126160857Y-101552454D01*
X126170488Y-101589069D01*
X126180221Y-101625865D01*
X126190059Y-101662842D01*
X126200000Y-101700000D01*
X128000000Y-105900000D02*
X128015841Y-105923327D01*
X128031626Y-105946535D01*
X128047348Y-105969616D01*
X128063013Y-105992578D01*
X128078617Y-106015414D01*
X128094164Y-106038132D01*
X128109649Y-106060725D01*
X128125078Y-106083201D01*
X128140447Y-106105552D01*
X128155759Y-106127787D01*
X128171011Y-106149898D01*
X128186207Y-106171894D01*
X128201343Y-106193768D01*
X128216424Y-106215526D01*
X128231444Y-106237163D01*
X128246410Y-106258687D01*
X128261317Y-106280089D01*
X128276169Y-106301378D01*
X128290961Y-106322548D01*
X128305700Y-106343605D01*
X128320379Y-106364544D01*
X128335005Y-106385370D01*
X128349572Y-106406079D01*
X128364086Y-106426677D01*
X128378542Y-106447158D01*
X128392944Y-106467529D01*
X128407289Y-106487784D01*
X128421581Y-106507929D01*
X128435815Y-106527959D01*
X128449997Y-106547881D01*
X128464123Y-106567689D01*
X128478195Y-106587388D01*
X128492212Y-106606975D01*
X128506176Y-106626454D01*
X128520084Y-106645821D01*
X128533940Y-106665081D01*
X128547741Y-106684231D01*
X128561490Y-106703274D01*
X128575185Y-106722207D01*
X128588827Y-106741035D01*
X128602415Y-106759754D01*
X128615952Y-106778368D01*
X128629435Y-106796874D01*
X128642867Y-106815276D01*
X128656246Y-106833570D01*
X128669573Y-106851762D01*
X128682848Y-106869847D01*
X128696071Y-106887830D01*
X128709243Y-106905707D01*
X128722364Y-106923482D01*
X128735432Y-106941153D01*
X128748451Y-106958723D01*
X128761418Y-106976189D01*
X128774335Y-106993555D01*
X128787200Y-107010819D01*
X128800017Y-107027982D01*
X128812782Y-107045044D01*
X128825498Y-107062007D01*
X128838163Y-107078869D01*
X128850780Y-107095633D01*
X128863346Y-107112297D01*
X128875864Y-107128863D01*
X128888331Y-107145330D01*
X128900751Y-107161701D01*
X128913121Y-107177973D01*
X128925443Y-107194149D01*
X128937717Y-107210228D01*
X128949942Y-107226212D01*
X128962119Y-107242099D01*
X128974248Y-107257892D01*
X128986329Y-107273589D01*
X128998363Y-107289191D01*
X129010349Y-107304700D01*
X129022289Y-107320115D01*
X129034181Y-107335436D01*
X129046026Y-107350665D01*
X129057824Y-107365801D01*
X129069576Y-107380845D01*
X129081282Y-107395797D01*
X129092941Y-107410657D01*
X129104555Y-107425427D01*
X129116122Y-107440106D01*
X129127644Y-107454695D01*
X129139120Y-107469194D01*
X129150551Y-107483604D01*
X129161937Y-107497924D01*
X129173278Y-107512157D01*
X129184573Y-107526300D01*
X129195825Y-107540356D01*
X129207031Y-107554324D01*
X129218194Y-107568206D01*
X129229312Y-107582000D01*
X129240387Y-107595709D01*
X129251417Y-107609331D01*
X129262405Y-107622868D01*
X129273348Y-107636319D01*
X129284248Y-107649687D01*
X129295105Y-107662968D01*
X129305920Y-107676167D01*
X129316691Y-107689281D01*
X129327420Y-107702314D01*
X129338106Y-107715261D01*
X129348751Y-107728128D01*
X129359352Y-107740911D01*
X129369914Y-107753614D01*
X129380431Y-107766234D01*
X129390909Y-107778775D01*
X129401344Y-107791233D01*
X129411739Y-107803614D01*
X129422092Y-107815912D01*
X129432406Y-107828132D01*
X129442677Y-107840272D01*
X129452909Y-107852335D01*
X129463099Y-107864317D01*
X129473251Y-107876224D01*
X129483361Y-107888051D01*
X129493434Y-107899803D01*
X129503464Y-107911475D01*
X129513458Y-107923074D01*
X129523409Y-107934594D01*
X129533324Y-107946041D01*
X129543198Y-107957409D01*
X129553036Y-107968706D01*
X129562832Y-107979925D01*
X129572592Y-107991073D01*
X129582312Y-108002143D01*
X129591997Y-108013144D01*
X129601640Y-108024068D01*
X129611249Y-108034922D01*
X129620818Y-108045701D01*
X129630352Y-108056411D01*
X129639846Y-108067046D01*
X129649306Y-108077613D01*
X129658726Y-108088106D01*
X129668114Y-108098532D01*
X129677461Y-108108883D01*
X129686775Y-108119169D01*
X129696050Y-108129381D01*
X129705293Y-108139529D01*
X129714496Y-108149603D01*
X129723667Y-108159613D01*
X129732799Y-108169551D01*
X129741901Y-108179425D01*
X129750963Y-108189228D01*
X129759994Y-108198968D01*
X129768987Y-108208637D01*
X129777950Y-108218245D01*
X129786873Y-108227782D01*
X129795768Y-108237258D01*
X129804624Y-108246664D01*
X129813452Y-108256011D01*
X129822240Y-108265288D01*
X129831001Y-108274506D01*
X129839723Y-108283655D01*
X129848418Y-108292746D01*
X129857075Y-108301769D01*
X129865705Y-108310734D01*
X129874297Y-108319632D01*
X129882863Y-108328474D01*
X129891390Y-108337247D01*
X129899893Y-108345967D01*
X129908357Y-108354618D01*
X129916797Y-108363216D01*
X129925198Y-108371747D01*
X129933576Y-108380226D01*
X129941916Y-108388637D01*
X129950233Y-108396997D01*
X129958512Y-108405291D01*
X129966769Y-108413534D01*
X129974988Y-108421712D01*
X129983185Y-108429840D01*
X129991345Y-108437902D01*
X129999483Y-108445916D01*
X130007585Y-108453865D01*
X130015665Y-108461766D01*
X130023709Y-108469603D01*
X130031733Y-108477393D01*
X130039721Y-108485119D01*
X130047689Y-108492800D01*
X130055620Y-108500417D01*
X130063533Y-108507989D01*
X130071410Y-108515498D01*
X130079268Y-108522964D01*
X130087091Y-108530367D01*
X130094897Y-108537727D01*
X130102666Y-108545025D01*
X130110419Y-108552281D01*
X130118137Y-108559476D01*
X130125839Y-108566630D01*
X130133505Y-108573723D01*
X130141157Y-108580775D01*
X130148773Y-108587768D01*
X130156375Y-108594721D01*
X130163942Y-108601615D01*
X130171496Y-108608470D01*
X130179015Y-108615266D01*
X130193993Y-108628725D01*
X130208880Y-108641995D01*
X130223677Y-108655078D01*
X130238386Y-108667978D01*
X130253010Y-108680698D01*
X130267551Y-108693240D01*
X130282012Y-108705609D01*
X130296395Y-108717807D01*
X130310704Y-108729838D01*
X130324940Y-108741705D01*
X130339108Y-108753411D01*
X130353210Y-108764959D01*
X130367249Y-108776355D01*
X130381229Y-108787600D01*
X130395154Y-108798699D01*
X130409027Y-108809655D01*
X130422852Y-108820473D01*
X130436635Y-108831157D01*
X130450378Y-108841711D01*
X130464088Y-108852139D01*
X130477770Y-108862446D01*
X130491429Y-108872637D01*
X130505071Y-108882718D01*
X130518705Y-108892693D01*
X130532336Y-108902569D01*
X130545974Y-108912352D01*
X130559627Y-108922049D01*
X130573305Y-108931668D01*
X130587021Y-108941216D01*
X130600787Y-108950704D01*
X130614618Y-108960140D01*
X130628531Y-108969537D01*
X130642547Y-108978909D01*
X130656687Y-108988269D01*
X130670982Y-108997638D01*
X130685463Y-109007036D01*
X130700175Y-109016490D01*
X130715170Y-109026033D01*
X130730516Y-109035707D01*
X130746307Y-109045570D01*
X130762671Y-109055700D01*
X130779796Y-109066212D01*
X130797984Y-109077286D01*
X130817765Y-109089243D01*
X130840271Y-109102764D01*
X130870084Y-109120595D01*
X130887238Y-109130849D01*
X130904111Y-109140955D01*
X130920712Y-109150941D01*
X130937052Y-109160833D01*
X130945127Y-109165752D01*
X130953141Y-109170658D01*
X130961094Y-109175554D01*
X130968989Y-109180443D01*
X130976825Y-109185329D01*
X130984605Y-109190215D01*
X130992329Y-109195104D01*
X131000000Y-109200000D01*
X160000000Y-87200000D02*
X159984159Y-87176673D01*
X159968374Y-87153465D01*
X159952652Y-87130384D01*
X159936987Y-87107422D01*
X159921383Y-87084586D01*
X159905836Y-87061868D01*
X159890351Y-87039275D01*
X159874922Y-87016799D01*
X159859553Y-86994448D01*
X159844241Y-86972213D01*
X159828989Y-86950102D01*
X159813793Y-86928106D01*
X159798657Y-86906232D01*
X159783576Y-86884474D01*
X159768556Y-86862837D01*
X159753590Y-86841313D01*
X159738683Y-86819911D01*
X159723831Y-86798622D01*
X159709039Y-86777452D01*
X159694300Y-86756395D01*
X159679621Y-86735456D01*
X159664995Y-86714630D01*
X159650428Y-86693921D01*
X159635914Y-86673323D01*
X159621458Y-86652842D01*
X159607056Y-86632471D01*
X159592711Y-86612216D01*
X159578419Y-86592071D01*
X159564185Y-86572041D01*
X159550003Y-86552119D01*
X159535877Y-86532311D01*
X159521805Y-86512612D01*
X159507788Y-86493025D01*
X159493824Y-86473546D01*
X159479916Y-86454179D01*
X159466060Y-86434919D01*
X159452259Y-86415769D01*
X159438510Y-86396726D01*
X159424815Y-86377793D01*
X159411173Y-86358965D01*
X159397585Y-86340246D01*
X159384048Y-86321632D01*
X159370565Y-86303126D01*
X159357133Y-86284724D01*
X159343754Y-86266430D01*
X159330427Y-86248238D01*
X159317152Y-86230153D01*
X159303929Y-86212170D01*
X159290757Y-86194293D01*
X159277636Y-86176518D01*
X159264568Y-86158847D01*
X159251549Y-86141277D01*
X159238582Y-86123811D01*
X159225665Y-86106445D01*
X159212800Y-86089181D01*
X159199983Y-86072018D01*
X159187218Y-86054956D01*
X159174502Y-86037993D01*
X159161837Y-86021131D01*
X159149220Y-86004367D01*
X159136654Y-85987703D01*
X159124136Y-85971137D01*
X159111669Y-85954670D01*
X159099249Y-85938299D01*
X159086879Y-85922027D01*
X159074557Y-85905851D01*
X159062283Y-85889772D01*
X159050058Y-85873788D01*
X159037881Y-85857901D01*
X159025752Y-85842108D01*
X159013671Y-85826411D01*
X159001637Y-85810809D01*
X158989651Y-85795300D01*
X158977711Y-85779885D01*
X158965819Y-85764564D01*
X158953974Y-85749335D01*
X158942176Y-85734199D01*
X158930424Y-85719155D01*
X158918718Y-85704203D01*
X158907059Y-85689343D01*
X158895445Y-85674573D01*
X158883878Y-85659894D01*
X158872356Y-85645305D01*
X158860880Y-85630806D01*
X158849449Y-85616396D01*
X158838063Y-85602076D01*
X158826722Y-85587843D01*
X158815427Y-85573700D01*
X158804175Y-85559644D01*
X158792969Y-85545676D01*
X158781806Y-85531794D01*
X158770688Y-85518000D01*
X158759613Y-85504291D01*
X158748583Y-85490669D01*
X158737595Y-85477132D01*
X158726652Y-85463681D01*
X158715752Y-85450313D01*
X158704895Y-85437032D01*
X158694080Y-85423833D01*
X158683309Y-85410719D01*
X158672580Y-85397686D01*
X158661894Y-85384739D01*
X158651249Y-85371872D01*
X158640648Y-85359089D01*
X158630086Y-85346386D01*
X158619569Y-85333766D01*
X158609091Y-85321225D01*
X158598656Y-85308767D01*
X158588261Y-85296386D01*
X158577908Y-85284088D01*
X158567594Y-85271868D01*
X158557323Y-85259728D01*
X158547091Y-85247665D01*
X158536901Y-85235683D01*
X158526749Y-85223776D01*
X158516639Y-85211949D01*
X158506566Y-85200197D01*
X158496536Y-85188525D01*
X158486542Y-85176926D01*
X158476591Y-85165406D01*
X158466676Y-85153959D01*
X158456802Y-85142591D01*
X158446964Y-85131294D01*
X158437168Y-85120075D01*
X158427408Y-85108927D01*
X158417688Y-85097857D01*
X158408003Y-85086856D01*
X158398360Y-85075932D01*
X158388751Y-85065078D01*
X158379182Y-85054299D01*
X158369648Y-85043589D01*
X158360154Y-85032954D01*
X158350694Y-85022387D01*
X158341274Y-85011894D01*
X158331886Y-85001468D01*
X158322539Y-84991117D01*
X158313225Y-84980831D01*
X158303950Y-84970619D01*
X158294707Y-84960471D01*
X158285504Y-84950397D01*
X158276333Y-84940387D01*
X158267201Y-84930449D01*
X158258099Y-84920575D01*
X158249037Y-84910772D01*
X158240006Y-84901032D01*
X158231013Y-84891363D01*
X158222050Y-84881755D01*
X158213127Y-84872218D01*
X158204232Y-84862742D01*
X158195376Y-84853336D01*
X158186548Y-84843989D01*
X158177760Y-84834712D01*
X158168999Y-84825494D01*
X158160277Y-84816345D01*
X158151582Y-84807254D01*
X158142925Y-84798231D01*
X158134295Y-84789266D01*
X158125703Y-84780368D01*
X158117137Y-84771526D01*
X158108610Y-84762753D01*
X158100107Y-84754033D01*
X158091643Y-84745382D01*
X158083203Y-84736784D01*
X158074802Y-84728253D01*
X158066424Y-84719774D01*
X158058084Y-84711363D01*
X158049767Y-84703003D01*
X158041488Y-84694709D01*
X158033231Y-84686466D01*
X158025012Y-84678288D01*
X158016815Y-84670160D01*
X158008655Y-84662098D01*
X158000517Y-84654084D01*
X157992415Y-84646135D01*
X157984335Y-84638234D01*
X157976291Y-84630397D01*
X157968267Y-84622607D01*
X157960279Y-84614881D01*
X157952311Y-84607200D01*
X157944380Y-84599583D01*
X157936467Y-84592011D01*
X157928590Y-84584502D01*
X157920732Y-84577036D01*
X157912909Y-84569633D01*
X157905103Y-84562273D01*
X157897334Y-84554975D01*
X157889581Y-84547719D01*
X157881863Y-84540524D01*
X157874161Y-84533370D01*
X157866495Y-84526277D01*
X157858843Y-84519225D01*
X157851227Y-84512232D01*
X157843625Y-84505279D01*
X157836058Y-84498385D01*
X157828504Y-84491530D01*
X157820985Y-84484734D01*
X157806007Y-84471275D01*
X157791120Y-84458005D01*
X157776323Y-84444922D01*
X157761614Y-84432022D01*
X157746990Y-84419302D01*
X157732449Y-84406760D01*
X157717988Y-84394391D01*
X157703605Y-84382193D01*
X157689296Y-84370162D01*
X157675060Y-84358295D01*
X157660892Y-84346589D01*
X157646790Y-84335041D01*
X157632751Y-84323645D01*
X157618771Y-84312400D01*
X157604846Y-84301301D01*
X157590973Y-84290345D01*
X157577148Y-84279527D01*
X157563365Y-84268843D01*
X157549622Y-84258289D01*
X157535912Y-84247861D01*
X157522230Y-84237554D01*
X157508571Y-84227363D01*
X157494929Y-84217282D01*
X157481295Y-84207307D01*
X157467664Y-84197431D01*
X157454026Y-84187648D01*
X157440373Y-84177951D01*
X157426695Y-84168332D01*
X157412979Y-84158784D01*
X157399213Y-84149296D01*
X157385382Y-84139860D01*
X157371469Y-84130463D01*
X157357453Y-84121091D01*
X157343313Y-84111731D01*
X157329018Y-84102362D01*
X157314537Y-84092964D01*
X157299825Y-84083510D01*
X157284830Y-84073967D01*
X157269484Y-84064293D01*
X157253693Y-84054430D01*
X157237329Y-84044300D01*
X157220204Y-84033788D01*
X157202016Y-84022714D01*
X157182235Y-84010757D01*
X157159729Y-83997236D01*
X157129916Y-83979405D01*
X157112762Y-83969151D01*
X157095889Y-83959045D01*
X157079288Y-83949059D01*
X157062948Y-83939167D01*
X157054873Y-83934248D01*
X157046859Y-83929342D01*
X157038906Y-83924446D01*
X157031011Y-83919557D01*
X157023175Y-83914671D01*
X157015395Y-83909785D01*
X157007671Y-83904896D01*
X157000000Y-83900000D01*
X162300000Y-96200000D02*
X162298196Y-96200890D01*
X162296448Y-96201730D01*
X162294858Y-96202472D01*
X162293316Y-96203168D01*
X162291906Y-96203782D01*
X162290537Y-96204355D01*
X162289280Y-96204860D01*
X162288060Y-96205328D01*
X162286935Y-96205738D01*
X162285842Y-96206114D01*
X162284833Y-96206440D01*
X162283853Y-96206735D01*
X162282945Y-96206987D01*
X162282063Y-96207211D01*
X162281244Y-96207398D01*
X162280449Y-96207558D01*
X162279709Y-96207687D01*
X162278991Y-96207791D01*
X162278321Y-96207868D01*
X162277671Y-96207922D01*
X162277063Y-96207953D01*
X162276474Y-96207962D01*
X162275922Y-96207950D01*
X162275386Y-96207919D01*
X162274884Y-96207869D01*
X162274396Y-96207800D01*
X162273937Y-96207715D01*
X162273491Y-96207612D01*
X162273071Y-96207494D01*
X162272663Y-96207359D01*
X162272277Y-96207210D01*
X162271903Y-96207044D01*
X162271546Y-96206864D01*
X162271202Y-96206667D01*
X162270873Y-96206456D01*
X162270555Y-96206229D01*
X162269957Y-96205726D01*
X162269403Y-96205156D01*
X162268890Y-96204512D01*
X162268416Y-96203789D01*
X162267982Y-96202979D01*
X162267587Y-96202070D01*
X162267233Y-96201054D01*
X162266923Y-96199916D01*
X162266661Y-96198644D01*
X162266450Y-96197222D01*
X162266297Y-96195632D01*
X162266207Y-96193854D01*
X162266187Y-96191866D01*
X162266246Y-96189641D01*
X162266394Y-96187150D01*
X162266639Y-96184357D01*
X162266997Y-96181219D01*
X162267480Y-96177685D01*
X162268108Y-96173691D01*
X162268902Y-96169156D01*
X162269891Y-96163970D01*
X162271114Y-96157987D01*
X162272625Y-96150989D01*
X162274509Y-96142634D01*
X162276916Y-96132308D01*
X162280179Y-96118642D01*
X162283763Y-96103804D01*
X162287654Y-96087694D01*
X162291821Y-96070291D01*
X162293999Y-96061096D01*
X162296233Y-96051569D01*
X162298521Y-96041706D01*
X162300859Y-96031504D01*
X162303242Y-96020959D01*
X162305668Y-96010069D01*
X162308131Y-95998830D01*
X162310628Y-95987239D01*
X162313156Y-95975292D01*
X162315710Y-95962988D01*
X162318286Y-95950321D01*
X162320881Y-95937290D01*
X162323491Y-95923891D01*
X162326112Y-95910121D01*
X162328740Y-95895976D01*
X162331371Y-95881454D01*
X162334002Y-95866551D01*
X162336628Y-95851264D01*
X162339245Y-95835589D01*
X162341851Y-95819525D01*
X162344440Y-95803066D01*
X162345727Y-95794689D01*
X162347009Y-95786211D01*
X162348285Y-95777634D01*
X162349554Y-95768956D01*
X162350817Y-95760178D01*
X162352072Y-95751298D01*
X162353319Y-95742316D01*
X162354558Y-95733233D01*
X162355788Y-95724047D01*
X162357008Y-95714759D01*
X162358219Y-95705367D01*
X162359420Y-95695872D01*
X162360609Y-95686272D01*
X162361788Y-95676569D01*
X162362954Y-95666760D01*
X162364108Y-95656846D01*
X162365250Y-95646827D01*
X162366378Y-95636702D01*
X162367493Y-95626470D01*
X162368594Y-95616132D01*
X162369679Y-95605686D01*
X162370750Y-95595133D01*
X162371805Y-95584471D01*
X162372844Y-95573702D01*
X162373866Y-95562823D01*
X162374872Y-95551835D01*
X162375859Y-95540738D01*
X162376829Y-95529531D01*
X162377780Y-95518213D01*
X162378712Y-95506785D01*
X162379625Y-95495245D01*
X162380518Y-95483594D01*
X162381390Y-95471830D01*
X162382241Y-95459955D01*
X162383071Y-95447966D01*
X162383879Y-95435865D01*
X162384664Y-95423649D01*
X162385427Y-95411320D01*
X162386166Y-95398876D01*
X162386881Y-95386318D01*
X162387572Y-95373644D01*
X162388239Y-95360855D01*
X162388880Y-95347950D01*
X162389495Y-95334928D01*
X162390084Y-95321790D01*
X162390646Y-95308534D01*
X162391181Y-95295161D01*
X162391688Y-95281670D01*
X162392167Y-95268060D01*
X162392617Y-95254332D01*
X162393039Y-95240484D01*
X162393430Y-95226517D01*
X162393792Y-95212430D01*
X162394122Y-95198222D01*
X162394422Y-95183894D01*
X162394690Y-95169444D01*
X162394926Y-95154873D01*
X162395130Y-95140180D01*
X162395300Y-95125364D01*
X162395437Y-95110426D01*
X162395540Y-95095365D01*
X162395609Y-95080179D01*
X162395642Y-95064870D01*
X162395640Y-95049437D01*
X162395603Y-95033878D01*
X162395528Y-95018195D01*
X162395417Y-95002386D01*
X162395269Y-94986451D01*
X162395082Y-94970389D01*
X162394858Y-94954201D01*
X162394594Y-94937885D01*
X162394291Y-94921442D01*
X162393949Y-94904871D01*
X162393566Y-94888172D01*
X162393142Y-94871344D01*
X162392677Y-94854386D01*
X162392171Y-94837299D01*
X162391622Y-94820082D01*
X162391030Y-94802735D01*
X162390395Y-94785256D01*
X162389717Y-94767647D01*
X162388995Y-94749906D01*
X162388227Y-94732033D01*
X162387415Y-94714028D01*
X162386557Y-94695889D01*
X162385653Y-94677618D01*
X162384703Y-94659213D01*
X162383705Y-94640674D01*
X162382660Y-94622001D01*
X162381567Y-94603193D01*
X162380426Y-94584249D01*
X162379235Y-94565170D01*
X162377995Y-94545955D01*
X162376705Y-94526604D01*
X162375365Y-94507116D01*
X162373974Y-94487491D01*
X162372531Y-94467728D01*
X162371036Y-94447827D01*
X162369490Y-94427788D01*
X162367890Y-94407609D01*
X162366237Y-94387292D01*
X162364530Y-94366835D01*
X162362769Y-94346238D01*
X162360953Y-94325501D01*
X162359082Y-94304623D01*
X162357155Y-94283604D01*
X162355172Y-94262443D01*
X162353132Y-94241140D01*
X162351035Y-94219695D01*
X162348880Y-94198107D01*
X162346667Y-94176376D01*
X162344396Y-94154501D01*
X162342065Y-94132483D01*
X162339675Y-94110319D01*
X162337224Y-94088011D01*
X162334713Y-94065558D01*
X162332141Y-94042960D01*
X162329508Y-94020215D01*
X162326812Y-93997324D01*
X162324054Y-93974286D01*
X162321233Y-93951101D01*
X162318349Y-93927768D01*
X162315400Y-93904288D01*
X162312388Y-93880659D01*
X162309310Y-93856881D01*
X162306167Y-93832954D01*
X162302957Y-93808877D01*
X162299682Y-93784650D01*
X162296340Y-93760273D01*
X162292930Y-93735746D01*
X162289453Y-93711067D01*
X162285907Y-93686236D01*
X162282292Y-93661254D01*
X162278608Y-93636119D01*
X162274855Y-93610831D01*
X162271031Y-93585390D01*
X162267136Y-93559796D01*
X162263170Y-93534047D01*
X162259133Y-93508144D01*
X162255023Y-93482086D01*
X162250841Y-93455874D01*
X162246586Y-93429505D01*
X162242257Y-93402981D01*
X162237854Y-93376300D01*
X162233376Y-93349462D01*
X162228823Y-93322467D01*
X162224195Y-93295315D01*
X162219490Y-93268005D01*
X162214709Y-93240536D01*
X162209851Y-93212908D01*
X162204916Y-93185122D01*
X162199903Y-93157175D01*
X162194811Y-93129069D01*
X162189640Y-93100802D01*
X162184390Y-93072375D01*
X162179060Y-93043786D01*
X162173649Y-93015036D01*
X162168158Y-92986124D01*
X162162585Y-92957049D01*
X162156931Y-92927812D01*
X162151194Y-92898411D01*
X162145374Y-92868847D01*
X162139471Y-92839119D01*
X162133485Y-92809226D01*
X162127414Y-92779169D01*
X162121258Y-92748946D01*
X162115017Y-92718558D01*
X162108690Y-92688004D01*
X162102278Y-92657283D01*
X162095778Y-92626396D01*
X162089192Y-92595342D01*
X162082517Y-92564120D01*
X162075755Y-92532729D01*
X162068904Y-92501171D01*
X162061964Y-92469444D01*
X162054934Y-92437547D01*
X162047815Y-92405481D01*
X162040604Y-92373245D01*
X162033303Y-92340839D01*
X162025911Y-92308262D01*
X162018426Y-92275514D01*
X162010849Y-92242594D01*
X162003179Y-92209502D01*
X161995415Y-92176237D01*
X161987558Y-92142800D01*
X161979606Y-92109190D01*
X161971559Y-92075406D01*
X161963417Y-92041448D01*
X161955179Y-92007316D01*
X161946844Y-91973009D01*
X161938413Y-91938527D01*
X161929885Y-91903869D01*
X161921259Y-91869035D01*
X161912534Y-91834025D01*
X161903711Y-91798838D01*
X161894789Y-91763474D01*
X161885766Y-91727933D01*
X161876644Y-91692213D01*
X161867421Y-91656315D01*
X161858097Y-91620238D01*
X161848671Y-91583982D01*
X161839143Y-91547546D01*
X161829512Y-91510931D01*
X161819779Y-91474135D01*
X161809941Y-91437158D01*
X161800000Y-91400000D01*
X162800000Y-94900000D02*
X162799960Y-94869887D01*
X162799840Y-94839745D01*
X162799640Y-94809574D01*
X162799360Y-94779374D01*
X162799000Y-94749145D01*
X162798559Y-94718886D01*
X162798039Y-94688598D01*
X162797437Y-94658280D01*
X162796755Y-94627933D01*
X162795993Y-94597557D01*
X162795150Y-94567151D01*
X162794226Y-94536716D01*
X162793221Y-94506251D01*
X162792136Y-94475756D01*
X162790969Y-94445232D01*
X162789721Y-94414678D01*
X162788392Y-94384094D01*
X162786982Y-94353481D01*
X162785490Y-94322838D01*
X162783917Y-94292165D01*
X162782263Y-94261462D01*
X162780526Y-94230730D01*
X162778708Y-94199967D01*
X162776809Y-94169174D01*
X162774827Y-94138352D01*
X162772763Y-94107500D01*
X162770617Y-94076617D01*
X162768389Y-94045705D01*
X162766079Y-94014762D01*
X162763686Y-93983790D01*
X162761211Y-93952787D01*
X162758653Y-93921754D01*
X162756013Y-93890691D01*
X162753290Y-93859598D01*
X162750484Y-93828474D01*
X162747595Y-93797321D01*
X162744623Y-93766137D01*
X162741568Y-93734923D01*
X162738429Y-93703679D01*
X162735207Y-93672404D01*
X162731902Y-93641100D01*
X162728513Y-93609765D01*
X162725041Y-93578399D01*
X162721485Y-93547004D01*
X162717845Y-93515578D01*
X162714121Y-93484122D01*
X162710313Y-93452635D01*
X162706420Y-93421118D01*
X162702444Y-93389571D01*
X162698383Y-93357994D01*
X162694238Y-93326386D01*
X162690008Y-93294748D01*
X162685694Y-93263080D01*
X162681295Y-93231381D01*
X162676810Y-93199652D01*
X162672241Y-93167893D01*
X162667587Y-93136104D01*
X162662848Y-93104284D01*
X162658023Y-93072434D01*
X162653113Y-93040554D01*
X162648118Y-93008643D01*
X162643036Y-92976703D01*
X162637870Y-92944732D01*
X162632617Y-92912731D01*
X162627278Y-92880700D01*
X162621854Y-92848639D01*
X162616343Y-92816548D01*
X162610746Y-92784426D01*
X162605063Y-92752275D01*
X162599293Y-92720094D01*
X162593437Y-92687882D01*
X162587494Y-92655641D01*
X162581465Y-92623370D01*
X162575348Y-92591069D01*
X162569145Y-92558738D01*
X162562854Y-92526378D01*
X162556477Y-92493987D01*
X162550012Y-92461567D01*
X162543459Y-92429118D01*
X162536820Y-92396639D01*
X162530092Y-92364130D01*
X162523277Y-92331592D01*
X162516374Y-92299024D01*
X162509384Y-92266427D01*
X162502305Y-92233801D01*
X162495138Y-92201145D01*
X162487883Y-92168460D01*
X162480540Y-92135747D01*
X162473108Y-92103004D01*
X162465588Y-92070232D01*
X162457979Y-92037431D01*
X162450282Y-92004602D01*
X162442495Y-91971743D01*
X162434620Y-91938857D01*
X162426656Y-91905941D01*
X162418603Y-91872997D01*
X162410461Y-91840025D01*
X162402229Y-91807024D01*
X162393908Y-91773995D01*
X162385497Y-91740938D01*
X162376997Y-91707853D01*
X162368408Y-91674740D01*
X162359728Y-91641600D01*
X162350959Y-91608431D01*
X162342100Y-91575235D01*
X162333151Y-91542012D01*
X162324112Y-91508761D01*
X162314982Y-91475483D01*
X162305763Y-91442178D01*
X162296453Y-91408846D01*
X162287052Y-91375487D01*
X162277561Y-91342102D01*
X162267980Y-91308689D01*
X162258308Y-91275251D01*
X162248545Y-91241786D01*
X162238691Y-91208295D01*
X162228746Y-91174778D01*
X162218711Y-91141235D01*
X162208584Y-91107666D01*
X162198366Y-91074072D01*
X162188057Y-91040453D01*
X162177657Y-91006809D01*
X162167166Y-90973139D01*
X162156583Y-90939445D01*
X162145908Y-90905726D01*
X162135143Y-90871982D01*
X162124285Y-90838214D01*
X162113336Y-90804423D01*
X162102295Y-90770607D01*
X162091163Y-90736768D01*
X162079939Y-90702905D01*
X162068622Y-90669019D01*
X162057214Y-90635110D01*
X162045715Y-90601178D01*
X162034123Y-90567223D01*
X162022439Y-90533246D01*
X162010663Y-90499248D01*
X161998795Y-90465227D01*
X161986835Y-90431184D01*
X161974783Y-90397120D01*
X161962638Y-90363036D01*
X161950401Y-90328930D01*
X161938073Y-90294803D01*
X161925652Y-90260657D01*
X161913138Y-90226490D01*
X161900533Y-90192304D01*
X161887835Y-90158098D01*
X161875045Y-90123873D01*
X161862162Y-90089629D01*
X161849188Y-90055366D01*
X161836121Y-90021085D01*
X161822961Y-89986787D01*
X161809710Y-89952471D01*
X161796366Y-89918137D01*
X161782930Y-89883787D01*
X161769402Y-89849420D01*
X161755782Y-89815037D01*
X161742070Y-89780638D01*
X161728265Y-89746224D01*
X161714369Y-89711794D01*
X161700380Y-89677350D01*
X161686299Y-89642892D01*
X161672127Y-89608419D01*
X161657863Y-89573934D01*
X161643507Y-89539435D01*
X161629059Y-89504923D01*
X161614520Y-89470400D01*
X161599889Y-89435864D01*
X161585166Y-89401317D01*
X161570352Y-89366760D01*
X161555447Y-89332192D01*
X161540451Y-89297614D01*
X161525364Y-89263027D01*
X161510186Y-89228431D01*
X161494916Y-89193826D01*
X161479557Y-89159214D01*
X161464106Y-89124595D01*
X161448566Y-89089968D01*
X161432935Y-89055336D01*
X161417214Y-89020697D01*
X161401403Y-88986054D01*
X161385502Y-88951406D01*
X161369512Y-88916755D01*
X161353432Y-88882100D01*
X161337263Y-88847442D01*
X161321005Y-88812783D01*
X161304659Y-88778122D01*
X161288224Y-88743461D01*
X161271700Y-88708799D01*
X161255089Y-88674138D01*
X161238390Y-88639479D01*
X161221603Y-88604822D01*
X161204729Y-88570167D01*
X161187768Y-88535517D01*
X161170720Y-88500870D01*
X161153586Y-88466229D01*
X161136367Y-88431594D01*
X161119061Y-88396966D01*
X161101670Y-88362345D01*
X161084194Y-88327733D01*
X161066633Y-88293130D01*
X161048989Y-88258538D01*
X161031260Y-88223957D01*
X161013448Y-88189388D01*
X160995553Y-88154831D01*
X160977575Y-88120289D01*
X160959516Y-88085762D01*
X160941375Y-88051251D01*
X160923152Y-88016758D01*
X160904849Y-87982282D01*
X160886466Y-87947825D01*
X160868004Y-87913389D01*
X160849462Y-87878975D01*
X160830843Y-87844582D01*
X160812145Y-87810214D01*
X160793370Y-87775871D01*
X160774519Y-87741554D01*
X160755592Y-87707265D01*
X160736590Y-87673004D01*
X160717513Y-87638773D01*
X160698363Y-87604574D01*
X160679140Y-87570408D01*
X160659844Y-87536276D01*
X160640477Y-87502180D01*
X160621040Y-87468121D01*
X160601533Y-87434101D01*
X160581958Y-87400121D01*
X160562314Y-87366183D01*
X160542604Y-87332288D01*
X160522827Y-87298439D01*
X160502986Y-87264637D01*
X160483081Y-87230883D01*
X160463113Y-87197179D01*
X160443084Y-87163528D01*
X160422994Y-87129931D01*
X160402845Y-87096390D01*
X160382638Y-87062907D01*
X160362374Y-87029484D01*
X160342054Y-86996124D01*
X160321681Y-86962827D01*
X160301254Y-86929597D01*
X160280777Y-86896436D01*
X160260250Y-86863346D01*
X160239674Y-86830329D01*
X160219052Y-86797387D01*
X160198385Y-86764524D01*
X160177675Y-86731742D01*
X160156923Y-86699043D01*
X160136131Y-86666430D01*
X160115302Y-86633906D01*
X160094437Y-86601473D01*
X160073538Y-86569135D01*
X160052607Y-86536895D01*
X160031647Y-86504755D01*
X160010659Y-86472718D01*
X159989646Y-86440789D01*
X159968611Y-86408969D01*
X159947555Y-86377264D01*
X159926481Y-86345675D01*
X159905393Y-86314207D01*
X159884292Y-86282864D01*
X159863181Y-86251648D01*
X159842064Y-86220565D01*
X159820943Y-86189618D01*
X159799822Y-86158811D01*
X159778703Y-86128149D01*
X159757590Y-86097635D01*
X159736487Y-86067275D01*
X159715396Y-86037073D01*
X159694323Y-86007033D01*
X159673269Y-85977161D01*
X159652241Y-85947462D01*
X159631241Y-85917940D01*
X159610273Y-85888602D01*
X159589343Y-85859452D01*
X159568454Y-85830496D01*
X159547612Y-85801741D01*
X159526821Y-85773191D01*
X159506086Y-85744854D01*
X159485413Y-85716735D01*
X159464806Y-85688840D01*
X159444272Y-85661177D01*
X159423816Y-85633753D01*
X159403443Y-85606574D01*
X159383161Y-85579647D01*
X159362975Y-85552980D01*
X159342893Y-85526581D01*
X159322919Y-85500457D01*
X159303063Y-85474616D01*
X159283330Y-85449067D01*
X159263729Y-85423817D01*
X159244266Y-85398875D01*
X159234581Y-85386511D01*
X159224951Y-85374250D01*
X159215342Y-85362049D01*
X159205789Y-85349951D01*
X159196262Y-85337916D01*
X159186791Y-85325986D01*
X159177349Y-85314123D01*
X159167965Y-85302366D01*
X159158612Y-85290679D01*
X159149318Y-85279098D01*
X159140059Y-85267592D01*
X159130861Y-85256194D01*
X159121700Y-85244873D01*
X159112602Y-85233661D01*
X159103545Y-85222531D01*
X159094551Y-85211511D01*
X159085601Y-85200576D01*
X159076716Y-85189752D01*
X159067879Y-85179018D01*
X159059109Y-85168395D01*
X159050389Y-85157866D01*
X159041737Y-85147449D01*
X159033141Y-85137130D01*
X159024613Y-85126924D01*
X159016144Y-85116821D01*
X159007744Y-85106831D01*
X158999408Y-85096947D01*
X158991143Y-85087178D01*
X158982944Y-85077518D01*
X158974818Y-85067975D01*
X158966762Y-85058545D01*
X158958779Y-85049231D01*
X158950872Y-85040036D01*
X158943038Y-85030957D01*
X158935284Y-85022000D01*
X158927604Y-85013160D01*
X158920008Y-85004446D01*
X158912487Y-84995849D01*
X158905054Y-84987383D01*
X158897697Y-84979033D01*
X158890431Y-84970818D01*
X158883242Y-84962719D01*
X158876149Y-84954758D01*
X158869134Y-84946914D01*
X158862218Y-84939212D01*
X158855380Y-84931625D01*
X158848645Y-84924184D01*
X158841989Y-84916858D01*
X158835440Y-84909680D01*
X158828969Y-84902618D01*
X158822609Y-84895706D01*
X158816327Y-84888908D01*
X158810160Y-84882264D01*
X158804071Y-84875734D01*
X158798099Y-84869358D01*
X158792206Y-84863096D01*
X158786433Y-84856990D01*
X158780739Y-84850996D01*
X158775167Y-84845160D01*
X158769673Y-84839435D01*
X158764304Y-84833869D01*
X158759012Y-84828412D01*
X158753848Y-84823115D01*
X158748760Y-84817925D01*
X158743801Y-84812894D01*
X158738917Y-84807970D01*
X158734164Y-84803204D01*
X158729486Y-84798542D01*
X158724939Y-84794039D01*
X158720465Y-84789637D01*
X158716123Y-84785393D01*
X158711854Y-84781248D01*
X158707716Y-84777258D01*
X158703649Y-84773364D01*
X158699714Y-84769624D01*
X158695848Y-84765978D01*
X158692113Y-84762483D01*
X158688446Y-84759079D01*
X158684909Y-84755822D01*
X158681437Y-84752654D01*
X158678094Y-84749629D01*
X158674815Y-84746690D01*
X158671663Y-84743891D01*
X158668572Y-84741174D01*
X158665606Y-84738593D01*
X158662700Y-84736091D01*
X158659915Y-84733719D01*
X158657188Y-84731424D01*
X158654580Y-84729255D01*
X158652028Y-84727158D01*
X158649591Y-84725182D01*
X158647207Y-84723275D01*
X158644936Y-84721483D01*
X158642715Y-84719758D01*
X158640602Y-84718141D01*
X158638539Y-84716588D01*
X158636579Y-84715138D01*
X158634666Y-84713747D01*
X158632853Y-84712454D01*
X158631084Y-84711217D01*
X158629411Y-84710072D01*
X158627779Y-84708980D01*
X158626239Y-84707972D01*
X158624738Y-84707015D01*
X158623323Y-84706137D01*
X158621946Y-84705306D01*
X158620651Y-84704547D01*
X158619391Y-84703833D01*
X158618208Y-84703185D01*
X158617058Y-84702579D01*
X158615980Y-84702034D01*
X158614933Y-84701527D01*
X158613954Y-84701074D01*
X158613004Y-84700658D01*
X158612117Y-84700291D01*
X158611256Y-84699958D01*
X158610455Y-84699668D01*
X158609678Y-84699409D01*
X158608955Y-84699189D01*
X158608254Y-84698998D01*
X158607604Y-84698841D01*
X158606975Y-84698709D01*
X158606391Y-84698608D01*
X158605826Y-84698531D01*
X158605303Y-84698480D01*
X158604797Y-84698451D01*
X158604328Y-84698444D01*
X158603876Y-84698458D01*
X158603457Y-84698490D01*
X158603053Y-84698542D01*
X158602677Y-84698611D01*
X158602316Y-84698697D01*
X158601980Y-84698798D01*
X158601658Y-84698916D01*
X158601356Y-84699048D01*
X158601068Y-84699196D01*
X158600798Y-84699358D01*
X158600541Y-84699535D01*
X158600299Y-84699726D01*
X158600069Y-84699932D01*
X158600000Y-84700000D01*
D11*
%TO.C,G\u002A\u002A\u002A*%
G36*
X138708009Y-112202714D02*
G01*
X138718700Y-112211169D01*
X138783332Y-112323348D01*
X138812727Y-112489940D01*
X138812895Y-112502831D01*
X138768559Y-112703480D01*
X138653709Y-112877692D01*
X138495583Y-113006769D01*
X138321418Y-113072012D01*
X138158449Y-113054724D01*
X138083649Y-113003454D01*
X138018733Y-112882889D01*
X138026594Y-112706793D01*
X138078512Y-112527256D01*
X138141998Y-112392014D01*
X138231921Y-112345332D01*
X138341164Y-112348082D01*
X138476346Y-112383881D01*
X138514699Y-112437200D01*
X138450652Y-112479936D01*
X138369047Y-112488757D01*
X138252201Y-112535368D01*
X138186777Y-112670617D01*
X138165135Y-112855808D01*
X138216125Y-112946849D01*
X138327425Y-112939368D01*
X138486718Y-112828995D01*
X138526365Y-112791085D01*
X138654197Y-112608505D01*
X138684541Y-112429757D01*
X138616163Y-112287599D01*
X138571352Y-112202981D01*
X138613523Y-112166072D01*
X138708009Y-112202714D01*
G37*
G36*
X140542968Y-108833514D02*
G01*
X140543308Y-108844282D01*
X140495635Y-108926256D01*
X140454112Y-108936982D01*
X140354847Y-108983436D01*
X140268710Y-109074334D01*
X140178382Y-109273384D01*
X140201897Y-109437401D01*
X140335136Y-109553259D01*
X140429308Y-109586064D01*
X140540094Y-109599509D01*
X140606861Y-109548797D01*
X140665008Y-109406228D01*
X140667060Y-109400030D01*
X140708179Y-109198843D01*
X140708840Y-109009897D01*
X140705973Y-108993250D01*
X140696991Y-108858407D01*
X140748670Y-108813692D01*
X140756990Y-108813381D01*
X140851553Y-108864667D01*
X140882431Y-109010515D01*
X140848544Y-109238915D01*
X140807820Y-109377775D01*
X140736694Y-109570059D01*
X140670086Y-109672919D01*
X140582270Y-109716771D01*
X140512408Y-109727068D01*
X140328041Y-109707332D01*
X140187955Y-109646313D01*
X140076428Y-109497541D01*
X140053155Y-109290070D01*
X140118799Y-109052407D01*
X140171828Y-108952432D01*
X140280738Y-108825881D01*
X140400112Y-108757702D01*
X140498129Y-108757158D01*
X140542968Y-108833514D01*
G37*
G36*
X138325432Y-109734708D02*
G01*
X138334191Y-109755839D01*
X138375916Y-109799654D01*
X138462139Y-109748937D01*
X138462211Y-109748879D01*
X138529003Y-109703643D01*
X138573581Y-109716328D01*
X138608048Y-109806628D01*
X138644505Y-109994237D01*
X138656379Y-110064841D01*
X138673536Y-110216541D01*
X138647913Y-110282417D01*
X138568493Y-110296593D01*
X138466559Y-110321959D01*
X138442092Y-110358394D01*
X138395845Y-110412180D01*
X138290707Y-110413284D01*
X138177081Y-110366747D01*
X138133089Y-110327493D01*
X138027872Y-110248960D01*
X137971021Y-110234793D01*
X137899501Y-110192078D01*
X137893431Y-110102136D01*
X137952296Y-110022267D01*
X137973011Y-110012080D01*
X137997071Y-109988093D01*
X138176852Y-109988093D01*
X138183181Y-110112793D01*
X138248506Y-110202176D01*
X138337969Y-110228236D01*
X138409798Y-110175246D01*
X138398294Y-110093274D01*
X138326459Y-109995558D01*
X138238197Y-109915669D01*
X138197976Y-109923857D01*
X138176852Y-109988093D01*
X137997071Y-109988093D01*
X138054145Y-109931191D01*
X138097789Y-109828618D01*
X138161623Y-109714927D01*
X138251186Y-109679411D01*
X138325432Y-109734708D01*
G37*
G36*
X139445139Y-109013829D02*
G01*
X139489822Y-109075980D01*
X139565323Y-109227263D01*
X139660592Y-109440517D01*
X139764580Y-109688583D01*
X139866237Y-109944297D01*
X139954513Y-110180500D01*
X140018358Y-110370031D01*
X140046722Y-110485727D01*
X140047225Y-110493797D01*
X140063384Y-110586891D01*
X140115113Y-110611651D01*
X140213329Y-110562103D01*
X140368949Y-110432274D01*
X140592892Y-110216187D01*
X140639091Y-110169892D01*
X140841230Y-109972694D01*
X141016269Y-109813255D01*
X141143720Y-109709533D01*
X141199602Y-109678588D01*
X141286317Y-109712775D01*
X141323915Y-109820892D01*
X141311411Y-110011270D01*
X141247817Y-110292242D01*
X141132149Y-110672141D01*
X141055026Y-110900211D01*
X140835217Y-111534730D01*
X141091894Y-112105321D01*
X141199690Y-112349460D01*
X141284991Y-112551244D01*
X141336926Y-112684450D01*
X141347643Y-112722262D01*
X141296006Y-112764344D01*
X141167958Y-112760020D01*
X140999779Y-112713650D01*
X140895592Y-112667915D01*
X140730059Y-112572264D01*
X140525419Y-112439029D01*
X140411427Y-112358913D01*
X140245207Y-112245274D01*
X140115405Y-112169614D01*
X140063779Y-112150608D01*
X140011761Y-112202673D01*
X139923542Y-112342202D01*
X139814192Y-112544192D01*
X139756463Y-112660462D01*
X139631040Y-112908217D01*
X139508584Y-113129574D01*
X139409457Y-113288395D01*
X139382154Y-113324817D01*
X139253893Y-113479318D01*
X139152705Y-113239284D01*
X139095170Y-113050929D01*
X139045244Y-112797202D01*
X139016336Y-112559478D01*
X138992777Y-112322905D01*
X138956256Y-112165897D01*
X138888170Y-112044544D01*
X138769914Y-111914940D01*
X138724316Y-111870256D01*
X138556989Y-111721982D01*
X138326043Y-111535778D01*
X138070479Y-111342605D01*
X137955626Y-111260095D01*
X137698945Y-111071358D01*
X137593120Y-110976398D01*
X137800159Y-110976398D01*
X138244986Y-111289796D01*
X138562086Y-111517874D01*
X138790899Y-111698803D01*
X138947139Y-111852219D01*
X139046518Y-111997764D01*
X139104753Y-112155075D01*
X139137556Y-112343793D01*
X139145353Y-112415065D01*
X139173157Y-112663032D01*
X139203359Y-112889401D01*
X139226066Y-113026806D01*
X139256980Y-113153206D01*
X139292495Y-113172383D01*
X139355207Y-113102251D01*
X139421921Y-112994877D01*
X139522659Y-112808414D01*
X139639779Y-112576058D01*
X139688520Y-112475060D01*
X139805836Y-112247578D01*
X139913050Y-112073324D01*
X139994313Y-111976780D01*
X140018589Y-111965206D01*
X140104610Y-111998352D01*
X140264913Y-112087504D01*
X140472913Y-112217234D01*
X140609816Y-112308314D01*
X140825215Y-112451080D01*
X140999944Y-112559537D01*
X141111085Y-112619876D01*
X141138317Y-112626807D01*
X141125558Y-112563539D01*
X141070456Y-112415541D01*
X140983443Y-112209852D01*
X140940379Y-112113834D01*
X140829995Y-111854558D01*
X140767467Y-111642620D01*
X140753717Y-111444704D01*
X140789669Y-111227488D01*
X140876246Y-110957656D01*
X140979881Y-110688303D01*
X141066148Y-110447372D01*
X141126331Y-110232848D01*
X141149930Y-110083598D01*
X141149041Y-110062269D01*
X141134430Y-110001357D01*
X141099855Y-109986360D01*
X141029842Y-110027311D01*
X140908921Y-110134241D01*
X140721622Y-110317183D01*
X140657695Y-110380879D01*
X140456491Y-110573910D01*
X140280138Y-110728774D01*
X140150482Y-110827123D01*
X140095823Y-110852797D01*
X140022794Y-110797362D01*
X139949910Y-110653006D01*
X139929063Y-110590145D01*
X139859815Y-110375700D01*
X139771659Y-110130434D01*
X139675529Y-109881362D01*
X139582363Y-109655499D01*
X139503095Y-109479864D01*
X139448662Y-109381470D01*
X139434983Y-109369586D01*
X139403655Y-109425386D01*
X139345744Y-109578384D01*
X139268772Y-109806975D01*
X139180262Y-110089555D01*
X139154716Y-110174469D01*
X139061625Y-110474474D01*
X138974753Y-110732447D01*
X138902590Y-110924671D01*
X138853627Y-111027429D01*
X138846233Y-111036175D01*
X138735199Y-111062068D01*
X138547625Y-111039542D01*
X138532678Y-111036173D01*
X138298895Y-110996926D01*
X138060792Y-110978099D01*
X138043875Y-110977873D01*
X137800159Y-110976398D01*
X137593120Y-110976398D01*
X137549714Y-110937448D01*
X137510593Y-110852446D01*
X137584244Y-110810432D01*
X137773325Y-110805485D01*
X138080498Y-110831685D01*
X138144912Y-110838841D01*
X138399367Y-110863137D01*
X138605644Y-110874239D01*
X138734370Y-110870992D01*
X138761146Y-110863023D01*
X138793906Y-110791188D01*
X138853616Y-110624972D01*
X138932033Y-110388480D01*
X139020918Y-110105816D01*
X139028735Y-110080291D01*
X139148407Y-109692108D01*
X139239279Y-109407736D01*
X139307148Y-109212326D01*
X139357812Y-109091028D01*
X139397070Y-109028993D01*
X139430719Y-109011372D01*
X139445139Y-109013829D01*
G37*
G36*
X141976782Y-90366807D02*
G01*
X142210383Y-90725990D01*
X142438403Y-91188329D01*
X142604631Y-91642304D01*
X142655405Y-91931676D01*
X142549693Y-92216576D01*
X142397973Y-92281756D01*
X142192625Y-92129861D01*
X142140540Y-91799693D01*
X142050666Y-91312532D01*
X141888566Y-90984491D01*
X141675538Y-90602075D01*
X141650408Y-90317902D01*
X141793809Y-90222297D01*
X141976782Y-90366807D01*
G37*
G36*
X146557249Y-90241860D02*
G01*
X146589660Y-90353804D01*
X146541991Y-90638008D01*
X146411129Y-91174352D01*
X146410707Y-91176029D01*
X146252028Y-91652152D01*
X146091069Y-91908030D01*
X145966306Y-91909049D01*
X145916216Y-91620880D01*
X145972475Y-91211614D01*
X146109818Y-90759527D01*
X146281098Y-90388648D01*
X146439169Y-90223005D01*
X146447870Y-90222297D01*
X146557249Y-90241860D01*
G37*
G36*
X139777130Y-87933251D02*
G01*
X140494841Y-88046072D01*
X141027695Y-88209307D01*
X141318903Y-88414733D01*
X141342789Y-88596339D01*
X141168332Y-88805063D01*
X140819447Y-88889747D01*
X140244889Y-88853753D01*
X139480405Y-88718480D01*
X138624533Y-88582277D01*
X137841812Y-88564500D01*
X136991892Y-88650266D01*
X136243870Y-88728974D01*
X135739398Y-88728178D01*
X135541689Y-88667370D01*
X135459142Y-88466210D01*
X135663105Y-88291843D01*
X136172014Y-88136039D01*
X137004302Y-87990571D01*
X137082745Y-87979504D01*
X138014293Y-87891745D01*
X138931351Y-87879068D01*
X139777130Y-87933251D01*
G37*
G36*
X148611958Y-87827198D02*
G01*
X149406096Y-87859913D01*
X149409212Y-87860063D01*
X150195686Y-87913778D01*
X150893154Y-87989946D01*
X151403839Y-88076486D01*
X151579730Y-88128280D01*
X152048474Y-88282835D01*
X152609162Y-88409858D01*
X152652365Y-88417120D01*
X153099330Y-88548561D01*
X153293466Y-88736665D01*
X153295946Y-88761161D01*
X153260036Y-88956537D01*
X153108697Y-89050988D01*
X152776517Y-89051983D01*
X152198082Y-88966985D01*
X151922973Y-88917870D01*
X151114644Y-88822991D01*
X150130722Y-88785688D01*
X149203524Y-88808342D01*
X148322269Y-88837902D01*
X147745203Y-88794916D01*
X147438317Y-88665470D01*
X147367600Y-88435651D01*
X147490443Y-88107468D01*
X147599281Y-87958103D01*
X147776908Y-87867479D01*
X148091681Y-87826782D01*
X148611958Y-87827198D01*
G37*
G36*
X137913140Y-91285724D02*
G01*
X138701297Y-91406179D01*
X139464903Y-91639119D01*
X140141307Y-91949914D01*
X140667856Y-92303937D01*
X140981899Y-92666560D01*
X141020784Y-93003155D01*
X141020730Y-93003294D01*
X140754560Y-93275567D01*
X140226834Y-93517877D01*
X139518928Y-93714883D01*
X138712220Y-93851242D01*
X137888085Y-93911612D01*
X137127899Y-93880652D01*
X136734459Y-93811389D01*
X136196304Y-93723763D01*
X135734879Y-93723274D01*
X135661824Y-93736783D01*
X135361115Y-93705920D01*
X135258825Y-93513818D01*
X135403682Y-93297685D01*
X135490203Y-93253526D01*
X135520806Y-93183667D01*
X135323967Y-93153413D01*
X135046730Y-93069701D01*
X135041991Y-92882432D01*
X135034440Y-92662021D01*
X134950794Y-92625000D01*
X134778050Y-92488122D01*
X134760811Y-92391004D01*
X134811684Y-92326754D01*
X135777945Y-92326754D01*
X135922337Y-92509621D01*
X136526838Y-92984138D01*
X137308151Y-93221774D01*
X138303002Y-93238359D01*
X138981130Y-93153786D01*
X139611602Y-93022879D01*
X139931347Y-92921831D01*
X140506015Y-92687342D01*
X139721882Y-92227810D01*
X138647199Y-91764654D01*
X137578582Y-91642645D01*
X136502429Y-91860249D01*
X136492372Y-91863851D01*
X135999361Y-92050534D01*
X135778664Y-92185072D01*
X135777945Y-92326754D01*
X134811684Y-92326754D01*
X134906342Y-92207207D01*
X135287508Y-91951979D01*
X135810775Y-91685813D01*
X136495834Y-91411740D01*
X137068183Y-91285703D01*
X137706151Y-91273764D01*
X137913140Y-91285724D01*
G37*
G36*
X144384621Y-93599295D02*
G01*
X144629238Y-93822652D01*
X145002105Y-94249655D01*
X145540288Y-94914657D01*
X145591010Y-94978431D01*
X146292147Y-95908218D01*
X146798416Y-96680687D01*
X147103904Y-97277819D01*
X147202697Y-97681592D01*
X147088882Y-97873986D01*
X146756547Y-97836981D01*
X146490023Y-97718318D01*
X146090023Y-97558701D01*
X145769253Y-97599276D01*
X145569290Y-97697632D01*
X144883066Y-97920022D01*
X144243882Y-97804136D01*
X144127990Y-97743614D01*
X143779588Y-97643278D01*
X143229917Y-97586730D01*
X142796456Y-97582464D01*
X142059359Y-97554892D01*
X141494316Y-97436332D01*
X141166527Y-97245155D01*
X141110811Y-97107480D01*
X141196614Y-96892467D01*
X141422931Y-96467182D01*
X141743124Y-95909085D01*
X142110555Y-95295636D01*
X142478586Y-94704295D01*
X142800579Y-94212523D01*
X143029895Y-93897780D01*
X143070651Y-93852418D01*
X143330552Y-93639591D01*
X143407370Y-93695796D01*
X143306584Y-94003252D01*
X143033673Y-94544178D01*
X142655860Y-95198568D01*
X142287823Y-95824934D01*
X141998673Y-96343703D01*
X141827347Y-96683548D01*
X141797297Y-96771311D01*
X141939899Y-96904333D01*
X142097635Y-96937510D01*
X143213730Y-97013925D01*
X144079481Y-97058780D01*
X144786094Y-97074554D01*
X145424775Y-97063730D01*
X145894941Y-97040789D01*
X146560153Y-97001351D01*
X146073764Y-96294409D01*
X145693882Y-95776171D01*
X145205591Y-95154373D01*
X144813706Y-94681090D01*
X144441555Y-94211025D01*
X144196714Y-93834621D01*
X144129788Y-93630185D01*
X144131876Y-93626110D01*
X144231189Y-93545232D01*
X144384621Y-93599295D01*
G37*
G36*
X151731643Y-91363908D02*
G01*
X152293741Y-91578052D01*
X152553355Y-91792539D01*
X152545900Y-92068036D01*
X152343958Y-92412817D01*
X152159970Y-92807927D01*
X152129431Y-93094585D01*
X152061608Y-93341784D01*
X151893639Y-93375722D01*
X151688323Y-93453380D01*
X151688198Y-93566078D01*
X151610068Y-93733726D01*
X151288478Y-93793915D01*
X150861134Y-93816581D01*
X150241028Y-93859238D01*
X149691892Y-93902161D01*
X149041995Y-93924589D01*
X148476357Y-93889866D01*
X148165286Y-93820928D01*
X147828473Y-93720455D01*
X147667390Y-93734186D01*
X147503723Y-93727257D01*
X147335036Y-93473793D01*
X147202151Y-93067425D01*
X147184728Y-92923228D01*
X147804054Y-92923228D01*
X147941837Y-93021463D01*
X148190203Y-93134516D01*
X148804142Y-93268943D01*
X149569467Y-93288763D01*
X150316002Y-93199425D01*
X150789036Y-93051280D01*
X151262616Y-92722065D01*
X151628338Y-92298519D01*
X151810819Y-91959784D01*
X151795769Y-91801344D01*
X151565635Y-91711221D01*
X151534987Y-91702960D01*
X151132738Y-91640413D01*
X150565182Y-91602523D01*
X150311266Y-91597613D01*
X149762907Y-91633989D01*
X149310959Y-91784363D01*
X148806314Y-92105197D01*
X148637956Y-92231211D01*
X148200170Y-92573477D01*
X147898184Y-92825641D01*
X147804054Y-92923228D01*
X147184728Y-92923228D01*
X147145889Y-92601787D01*
X147146397Y-92539189D01*
X147171717Y-92203105D01*
X147215373Y-92153129D01*
X147238687Y-92238851D01*
X147312559Y-92514257D01*
X147435782Y-92590843D01*
X147675133Y-92457128D01*
X148097388Y-92101629D01*
X148112159Y-92088665D01*
X148967087Y-91467631D01*
X149809512Y-91153099D01*
X150719820Y-91128973D01*
X151731643Y-91363908D01*
G37*
G36*
X143734642Y-100275407D02*
G01*
X143987202Y-100441421D01*
X144374197Y-100611026D01*
X144700593Y-100527232D01*
X145138366Y-100377035D01*
X145380259Y-100347972D01*
X145723354Y-100426814D01*
X146164280Y-100620891D01*
X146588318Y-100866531D01*
X146880752Y-101100059D01*
X146945946Y-101216994D01*
X146793172Y-101448162D01*
X146405837Y-101607908D01*
X145890422Y-101663628D01*
X145577737Y-101635940D01*
X145083534Y-101603817D01*
X144816469Y-101697141D01*
X144808160Y-101708836D01*
X144570602Y-101836008D01*
X144173186Y-101891324D01*
X143794126Y-101862267D01*
X143640621Y-101790846D01*
X143425975Y-101730719D01*
X142978655Y-101682131D01*
X142568055Y-101661585D01*
X141931865Y-101609404D01*
X141545464Y-101480293D01*
X141359508Y-101308968D01*
X141328632Y-101246456D01*
X142900868Y-101246456D01*
X142967141Y-101296864D01*
X143218236Y-101255320D01*
X143582819Y-101259281D01*
X143760957Y-101361541D01*
X144036374Y-101538658D01*
X144389418Y-101442218D01*
X144506226Y-101346070D01*
X144566216Y-101186703D01*
X144361364Y-101035396D01*
X144068591Y-100922236D01*
X143918359Y-100879484D01*
X144948188Y-100879484D01*
X145083494Y-101007806D01*
X145315540Y-101120233D01*
X145781377Y-101311245D01*
X146014808Y-101349760D01*
X146086613Y-101244199D01*
X146087838Y-101212119D01*
X145941835Y-100987370D01*
X145605388Y-100811063D01*
X145230838Y-100749358D01*
X145087603Y-100777713D01*
X144948188Y-100879484D01*
X143918359Y-100879484D01*
X143627974Y-100796848D01*
X143355908Y-100825138D01*
X143109637Y-101019269D01*
X142900868Y-101246456D01*
X141328632Y-101246456D01*
X141191707Y-100969241D01*
X141303438Y-100818255D01*
X141677272Y-100872610D01*
X141779687Y-100908724D01*
X142137863Y-101000771D01*
X142437644Y-100921283D01*
X142821842Y-100636104D01*
X143222584Y-100316879D01*
X143486390Y-100203406D01*
X143734642Y-100275407D01*
G37*
G36*
X131949883Y-96882685D02*
G01*
X132856276Y-97294142D01*
X133560687Y-97982349D01*
X134047805Y-98897402D01*
X134345767Y-100003938D01*
X134399035Y-101068018D01*
X134218969Y-102031050D01*
X133816931Y-102834440D01*
X133204282Y-103419593D01*
X133166388Y-103443253D01*
X132572005Y-103665851D01*
X131812633Y-103767624D01*
X131048212Y-103738360D01*
X130534387Y-103611282D01*
X130062433Y-103263694D01*
X129654158Y-102683004D01*
X129377221Y-101979332D01*
X129309334Y-101617445D01*
X129327800Y-100869389D01*
X129514311Y-100111650D01*
X129827455Y-99461593D01*
X130218300Y-99041449D01*
X130686634Y-98892348D01*
X131307529Y-98882064D01*
X131928612Y-98995319D01*
X132397512Y-99216838D01*
X132452422Y-99265452D01*
X132616979Y-99619114D01*
X132690069Y-100173628D01*
X132670119Y-100798583D01*
X132555553Y-101363569D01*
X132479998Y-101549324D01*
X132155384Y-101901777D01*
X131722403Y-102034780D01*
X131285082Y-101964781D01*
X130947447Y-101708225D01*
X130813513Y-101285853D01*
X130749786Y-100966293D01*
X130629633Y-100862837D01*
X130582505Y-100767221D01*
X130703185Y-100605405D01*
X131070170Y-100360713D01*
X131339359Y-100405630D01*
X131448892Y-100722864D01*
X131446499Y-100813206D01*
X131507782Y-101205394D01*
X131714527Y-101340655D01*
X131946241Y-101296128D01*
X132014827Y-100987446D01*
X132014865Y-100975534D01*
X131938180Y-100617789D01*
X131800338Y-100461634D01*
X131673868Y-100384093D01*
X131800338Y-100361522D01*
X131980787Y-100222614D01*
X131998393Y-99942340D01*
X131864608Y-99675033D01*
X131743396Y-99594037D01*
X131092180Y-99479263D01*
X130575356Y-99672869D01*
X130209206Y-100160951D01*
X130010011Y-100929607D01*
X129993859Y-101087952D01*
X129972333Y-101666857D01*
X130054248Y-102060236D01*
X130279653Y-102419904D01*
X130376454Y-102538241D01*
X130980474Y-103032526D01*
X131656382Y-103222359D01*
X132341462Y-103119039D01*
X132972999Y-102733862D01*
X133488279Y-102078128D01*
X133546705Y-101967112D01*
X133789363Y-101290481D01*
X133825620Y-100584383D01*
X133649221Y-99769475D01*
X133303143Y-98876704D01*
X132950253Y-98237300D01*
X132539230Y-97844366D01*
X132338100Y-97733624D01*
X131386052Y-97421663D01*
X130539276Y-97433293D01*
X129785477Y-97769622D01*
X129514982Y-97988175D01*
X129091290Y-98462198D01*
X128865473Y-98987064D01*
X128785990Y-99404054D01*
X128660659Y-99981075D01*
X128488893Y-100241259D01*
X128408690Y-100262162D01*
X128255101Y-100114387D01*
X128196625Y-99734899D01*
X128225509Y-99219451D01*
X128333999Y-98663794D01*
X128514340Y-98163681D01*
X128589891Y-98024543D01*
X129075827Y-97486032D01*
X129753693Y-97045624D01*
X130482225Y-96783768D01*
X130836880Y-96744876D01*
X131949883Y-96882685D01*
G37*
G36*
X158159768Y-96467536D02*
G01*
X158529586Y-96634448D01*
X158929757Y-96909160D01*
X159636556Y-97603576D01*
X160041796Y-98417134D01*
X160127259Y-99292212D01*
X160024878Y-99774978D01*
X159856990Y-99947167D01*
X159671749Y-99822082D01*
X159517312Y-99413022D01*
X159467118Y-99109872D01*
X159222332Y-98270812D01*
X158740615Y-97631155D01*
X158079850Y-97214525D01*
X157297924Y-97044544D01*
X156452722Y-97144836D01*
X155608192Y-97535041D01*
X155263614Y-97913440D01*
X154941913Y-98529064D01*
X154682857Y-99276312D01*
X154526218Y-100049584D01*
X154497939Y-100483127D01*
X154625850Y-101326657D01*
X154970677Y-102016579D01*
X155476227Y-102522844D01*
X156086304Y-102815399D01*
X156744717Y-102864195D01*
X157395269Y-102639179D01*
X157844240Y-102272632D01*
X158140499Y-101845750D01*
X158261370Y-101325237D01*
X158272973Y-101001383D01*
X158180194Y-100114706D01*
X157903221Y-99514582D01*
X157444099Y-99203235D01*
X156804873Y-99182886D01*
X156633392Y-99219399D01*
X156368599Y-99318313D01*
X156249822Y-99507115D01*
X156233591Y-99889153D01*
X156247243Y-100137475D01*
X156317685Y-100672014D01*
X156459555Y-100938891D01*
X156599662Y-101002594D01*
X156854562Y-100938416D01*
X156900000Y-100802195D01*
X156757647Y-100546316D01*
X156599662Y-100466276D01*
X156388148Y-100401050D01*
X156510021Y-100374161D01*
X156599662Y-100367881D01*
X156854839Y-100269573D01*
X156900000Y-100176351D01*
X157047714Y-100056169D01*
X157371959Y-100018278D01*
X157648749Y-100050561D01*
X157656022Y-100109372D01*
X157654335Y-100110076D01*
X157536856Y-100316645D01*
X157542416Y-100594596D01*
X157473851Y-101046912D01*
X157163261Y-101446268D01*
X156708202Y-101689688D01*
X156475353Y-101720945D01*
X156063007Y-101562306D01*
X155748563Y-101125265D01*
X155563322Y-100468144D01*
X155527027Y-99954040D01*
X155613506Y-99303539D01*
X155906101Y-98875770D01*
X156454546Y-98617653D01*
X156858883Y-98532614D01*
X157618185Y-98555363D01*
X158227578Y-98871986D01*
X158665983Y-99458209D01*
X158912320Y-100289757D01*
X158959459Y-100951659D01*
X158814841Y-101921283D01*
X158380670Y-102706888D01*
X157995825Y-103078765D01*
X157432285Y-103340921D01*
X156696378Y-103445700D01*
X155921146Y-103392380D01*
X155239631Y-103180239D01*
X155087247Y-103094548D01*
X154695077Y-102735809D01*
X154307368Y-102215536D01*
X154163932Y-101961353D01*
X153934367Y-101430453D01*
X153839190Y-100949958D01*
X153852406Y-100353515D01*
X153875085Y-100112899D01*
X154065067Y-99143312D01*
X154405309Y-98232546D01*
X154852333Y-97468233D01*
X155362660Y-96938003D01*
X155491992Y-96854021D01*
X155978566Y-96663323D01*
X156637838Y-96511044D01*
X157122397Y-96449071D01*
X157738946Y-96418023D01*
X158159768Y-96467536D01*
G37*
G36*
X147564628Y-106307702D02*
G01*
X147694706Y-106337794D01*
X147844026Y-106382970D01*
X147994655Y-106438218D01*
X148128662Y-106498521D01*
X148162271Y-106516472D01*
X148470265Y-106725053D01*
X148719012Y-106969597D01*
X148903374Y-107242907D01*
X149018205Y-107537787D01*
X149055412Y-107765933D01*
X149050332Y-107879903D01*
X149027061Y-108036971D01*
X148990500Y-108204683D01*
X148987132Y-108217649D01*
X148871069Y-108538266D01*
X148705138Y-108800851D01*
X148484732Y-109012119D01*
X148403817Y-109068768D01*
X148187279Y-109200375D01*
X148002916Y-109287938D01*
X147824995Y-109341160D01*
X147627780Y-109369741D01*
X147598809Y-109372198D01*
X147375394Y-109374294D01*
X147188617Y-109337357D01*
X147109366Y-109307648D01*
X146801942Y-109145521D01*
X146524899Y-108938419D01*
X146290791Y-108698916D01*
X146112180Y-108439590D01*
X146012110Y-108208936D01*
X145977660Y-108075798D01*
X145978491Y-108012913D01*
X146013701Y-108020834D01*
X146082390Y-108100118D01*
X146114644Y-108145511D01*
X146226458Y-108277431D01*
X146381469Y-108421804D01*
X146552242Y-108555683D01*
X146711344Y-108656123D01*
X146745189Y-108672908D01*
X146918472Y-108716083D01*
X147153525Y-108715358D01*
X147178666Y-108713016D01*
X147375376Y-108681022D01*
X147540124Y-108621371D01*
X147689725Y-108523125D01*
X147840987Y-108375350D01*
X148003841Y-108176107D01*
X148116064Y-108023984D01*
X148188061Y-107908396D01*
X148231609Y-107806386D01*
X148258476Y-107695009D01*
X148262534Y-107671684D01*
X148286484Y-107429378D01*
X148265202Y-107223622D01*
X148192042Y-107040434D01*
X148060367Y-106865838D01*
X147863527Y-106685851D01*
X147753581Y-106600611D01*
X147602819Y-106483349D01*
X147495065Y-106389855D01*
X147439451Y-106328354D01*
X147433922Y-106312823D01*
X147471723Y-106297708D01*
X147564628Y-106307702D01*
G37*
G36*
X133478640Y-85968511D02*
G01*
X133590499Y-86059145D01*
X133697358Y-86229909D01*
X133703848Y-86399620D01*
X133627902Y-86543468D01*
X133487454Y-86636643D01*
X133300438Y-86654336D01*
X133183254Y-86622513D01*
X133125025Y-86541808D01*
X133112007Y-86433882D01*
X133234082Y-86433882D01*
X133268725Y-86501583D01*
X133377092Y-86540799D01*
X133488724Y-86479448D01*
X133530929Y-86419715D01*
X133553909Y-86291973D01*
X133503891Y-86189822D01*
X133410424Y-86146253D01*
X133317320Y-86181206D01*
X133242787Y-86298368D01*
X133234082Y-86433882D01*
X133112007Y-86433882D01*
X133107241Y-86394367D01*
X133127155Y-86226122D01*
X133182023Y-86083009D01*
X133218171Y-86038329D01*
X133354911Y-85950382D01*
X133478640Y-85968511D01*
G37*
G36*
X135291077Y-84482695D02*
G01*
X135371503Y-84552151D01*
X135439368Y-84640746D01*
X135447297Y-84723543D01*
X135396896Y-84852145D01*
X135381830Y-84883980D01*
X135289752Y-85028662D01*
X135174139Y-85082274D01*
X134996313Y-85060514D01*
X134965899Y-85052781D01*
X134856449Y-84969071D01*
X134816591Y-84814030D01*
X134825941Y-84765556D01*
X134978147Y-84765556D01*
X135007561Y-84881683D01*
X135100706Y-84912826D01*
X135217584Y-84871413D01*
X135259787Y-84817649D01*
X135253165Y-84711436D01*
X135184494Y-84613742D01*
X135091577Y-84566704D01*
X135044269Y-84577419D01*
X134992999Y-84663643D01*
X134978147Y-84765556D01*
X134825941Y-84765556D01*
X134854033Y-84619913D01*
X134859324Y-84606716D01*
X134969169Y-84469799D01*
X135124455Y-84427248D01*
X135291077Y-84482695D01*
G37*
G36*
X133407566Y-82232173D02*
G01*
X133409501Y-82243481D01*
X133416561Y-82340067D01*
X133435481Y-82520387D01*
X133462872Y-82757456D01*
X133495345Y-83024289D01*
X133529511Y-83293902D01*
X133561981Y-83539309D01*
X133589366Y-83733526D01*
X133608277Y-83849567D01*
X133613809Y-83870262D01*
X133653324Y-83832138D01*
X133743437Y-83711970D01*
X133869923Y-83529491D01*
X133990189Y-83348148D01*
X134141644Y-83125732D01*
X134275811Y-82946967D01*
X134376033Y-82832989D01*
X134420071Y-82802654D01*
X134476014Y-82856332D01*
X134494339Y-83012220D01*
X134476068Y-83258215D01*
X134422225Y-83582216D01*
X134333832Y-83972122D01*
X134315097Y-84045419D01*
X134235411Y-84359973D01*
X134190306Y-84588964D01*
X134184249Y-84763673D01*
X134221705Y-84915384D01*
X134307140Y-85075380D01*
X134445021Y-85274943D01*
X134501846Y-85353507D01*
X134605234Y-85519579D01*
X134667878Y-85665239D01*
X134676485Y-85714096D01*
X134632127Y-85796670D01*
X134513884Y-85812028D01*
X134344002Y-85765887D01*
X134144725Y-85663962D01*
X133959278Y-85529803D01*
X133797882Y-85397660D01*
X133667401Y-85295712D01*
X133609355Y-85254631D01*
X133536863Y-85277725D01*
X133394805Y-85381343D01*
X133194454Y-85556426D01*
X132985135Y-85756253D01*
X132740545Y-85994493D01*
X132566062Y-86156064D01*
X132447916Y-86251045D01*
X132372341Y-86289512D01*
X132325566Y-86281546D01*
X132303471Y-86255225D01*
X132304438Y-86178572D01*
X132332356Y-86018891D01*
X132381321Y-85809258D01*
X132386931Y-85787648D01*
X132462922Y-85475836D01*
X132496697Y-85248224D01*
X132483097Y-85074179D01*
X132416964Y-84923068D01*
X132293139Y-84764258D01*
X132197232Y-84661126D01*
X132020193Y-84463510D01*
X131847575Y-84249767D01*
X131697780Y-84045244D01*
X131589208Y-83875288D01*
X131568130Y-83827900D01*
X131715122Y-83827900D01*
X131898415Y-84094307D01*
X132040683Y-84279536D01*
X132191849Y-84444628D01*
X132254058Y-84501022D01*
X132414630Y-84654921D01*
X132553472Y-84822327D01*
X132615293Y-84918268D01*
X132646728Y-85007139D01*
X132649813Y-85122525D01*
X132626586Y-85298009D01*
X132593712Y-85485985D01*
X132553615Y-85713364D01*
X132523751Y-85891290D01*
X132509144Y-85989535D01*
X132508479Y-85998812D01*
X132547619Y-85970095D01*
X132652788Y-85869396D01*
X132807615Y-85712882D01*
X132981979Y-85531235D01*
X133173643Y-85333256D01*
X133336708Y-85172609D01*
X133452732Y-85066957D01*
X133501627Y-85033491D01*
X133570080Y-85067746D01*
X133704579Y-85157735D01*
X133876561Y-85284301D01*
X133883883Y-85289905D01*
X134160907Y-85498085D01*
X134350733Y-85628403D01*
X134458458Y-85680722D01*
X134489180Y-85654908D01*
X134447995Y-85550827D01*
X134340001Y-85368342D01*
X134283106Y-85279340D01*
X134157368Y-85074523D01*
X134062782Y-84900559D01*
X134015431Y-84787686D01*
X134012827Y-84771136D01*
X134026533Y-84680802D01*
X134063993Y-84498647D01*
X134119713Y-84249917D01*
X134188204Y-83959860D01*
X134198658Y-83916740D01*
X134265951Y-83630188D01*
X134318180Y-83388398D01*
X134350780Y-83214058D01*
X134359186Y-83129860D01*
X134357747Y-83125997D01*
X134314903Y-83159591D01*
X134225611Y-83272737D01*
X134107474Y-83442724D01*
X134080812Y-83483265D01*
X133918269Y-83717246D01*
X133762642Y-83914132D01*
X133630005Y-84056033D01*
X133536432Y-84125060D01*
X133505376Y-84123713D01*
X133488802Y-84056894D01*
X133463768Y-83896102D01*
X133434023Y-83667413D01*
X133410640Y-83464845D01*
X133378795Y-83193289D01*
X133347773Y-82961245D01*
X133321758Y-82798386D01*
X133308559Y-82740855D01*
X133280619Y-82756655D01*
X133230287Y-82869611D01*
X133165259Y-83060025D01*
X133108164Y-83253681D01*
X133005818Y-83618775D01*
X132927249Y-83882990D01*
X132864191Y-84061780D01*
X132808377Y-84170597D01*
X132751539Y-84224896D01*
X132685410Y-84240130D01*
X132601723Y-84231751D01*
X132586248Y-84229267D01*
X132387776Y-84168168D01*
X132210157Y-84073373D01*
X132038989Y-83967523D01*
X131876367Y-83889206D01*
X131715122Y-83827900D01*
X131568130Y-83827900D01*
X131540262Y-83765248D01*
X131539192Y-83754696D01*
X131587895Y-83706454D01*
X131718333Y-83711766D01*
X131907003Y-83765153D01*
X132130402Y-83861137D01*
X132237022Y-83917339D01*
X132426953Y-84021041D01*
X132573502Y-84096378D01*
X132647246Y-84128278D01*
X132649255Y-84128503D01*
X132701909Y-84070925D01*
X132774191Y-83904735D01*
X132862604Y-83639750D01*
X132963654Y-83285788D01*
X133004313Y-83131261D01*
X133101354Y-82765370D01*
X133178077Y-82503298D01*
X133239674Y-82330924D01*
X133291341Y-82234130D01*
X133338271Y-82198796D01*
X133347675Y-82197862D01*
X133407566Y-82232173D01*
G37*
G36*
X159530664Y-111128637D02*
G01*
X160251225Y-111248213D01*
X160590463Y-111377519D01*
X160715835Y-111493596D01*
X160627339Y-111560405D01*
X160324978Y-111541905D01*
X160251225Y-111527455D01*
X159698025Y-111460909D01*
X158998808Y-111448372D01*
X158249607Y-111485339D01*
X157546453Y-111567305D01*
X157021440Y-111678971D01*
X156336904Y-111915113D01*
X155673549Y-112209167D01*
X155109187Y-112523195D01*
X154761969Y-112780646D01*
X154422092Y-113189936D01*
X154061359Y-113794594D01*
X153701673Y-114544667D01*
X153364936Y-115390200D01*
X153073052Y-116281241D01*
X152857178Y-117124754D01*
X152753188Y-117477906D01*
X152640931Y-117682906D01*
X152547932Y-117712082D01*
X152501716Y-117537762D01*
X152500490Y-117483348D01*
X152544953Y-117172690D01*
X152665182Y-116691699D01*
X152841438Y-116100018D01*
X153053981Y-115457291D01*
X153283071Y-114823162D01*
X153508969Y-114257274D01*
X153711934Y-113819272D01*
X153715256Y-113812926D01*
X153989846Y-113336271D01*
X154285087Y-112895783D01*
X154538535Y-112584381D01*
X154545670Y-112577173D01*
X155119760Y-112140039D01*
X155877800Y-111762263D01*
X156758851Y-111458041D01*
X157701971Y-111241566D01*
X158646222Y-111127033D01*
X159530664Y-111128637D01*
G37*
G36*
X158032333Y-108153838D02*
G01*
X158472355Y-108178760D01*
X159260731Y-108253846D01*
X160055868Y-108366440D01*
X160819343Y-108507097D01*
X161512732Y-108666370D01*
X162097610Y-108834815D01*
X162535553Y-109002984D01*
X162788138Y-109161432D01*
X162834804Y-109251180D01*
X162744581Y-109364935D01*
X162473505Y-109308643D01*
X162223800Y-109193225D01*
X161898724Y-109071912D01*
X161386195Y-108934538D01*
X160746201Y-108793056D01*
X160038726Y-108659422D01*
X159323758Y-108545591D01*
X158661282Y-108463519D01*
X158476961Y-108446478D01*
X157355110Y-108475442D01*
X156244267Y-108740369D01*
X155161975Y-109228286D01*
X154125779Y-109926223D01*
X153153222Y-110821206D01*
X152261849Y-111900266D01*
X151469205Y-113150429D01*
X151075837Y-113918627D01*
X150675181Y-114873540D01*
X150383152Y-115839655D01*
X150167474Y-116926669D01*
X150141703Y-117093627D01*
X150063559Y-117612329D01*
X149991120Y-118088674D01*
X149939582Y-118422770D01*
X149938116Y-118432107D01*
X149855170Y-118711093D01*
X149747008Y-118833002D01*
X149660096Y-118771928D01*
X149636764Y-118600117D01*
X149668600Y-118196244D01*
X149754669Y-117620262D01*
X149880815Y-116939504D01*
X150032881Y-116221306D01*
X150196710Y-115533002D01*
X150358146Y-114941927D01*
X150487204Y-114555120D01*
X151166880Y-113069984D01*
X151983821Y-111746350D01*
X152922973Y-110599746D01*
X153969284Y-109645699D01*
X155107701Y-108899737D01*
X156323171Y-108377387D01*
X156540861Y-108310648D01*
X156999851Y-108201897D01*
X157466803Y-108151690D01*
X158032333Y-108153838D01*
G37*
G36*
X160888519Y-105702400D02*
G01*
X161541009Y-105709671D01*
X162037122Y-105727476D01*
X162423179Y-105760456D01*
X162745501Y-105813256D01*
X163050406Y-105890518D01*
X163384216Y-105996885D01*
X163550735Y-106053607D01*
X164011114Y-106223847D01*
X164364790Y-106377851D01*
X164557783Y-106491082D01*
X164577941Y-106520518D01*
X164551301Y-106600670D01*
X164444582Y-106621806D01*
X164217587Y-106576660D01*
X163830118Y-106457969D01*
X163367817Y-106301824D01*
X162994639Y-106178771D01*
X162668509Y-106090786D01*
X162336478Y-106032387D01*
X161945594Y-105998089D01*
X161442908Y-105982408D01*
X160775468Y-105979863D01*
X160282353Y-105982306D01*
X158681031Y-106024361D01*
X157301525Y-106131319D01*
X156124197Y-106307159D01*
X155129411Y-106555862D01*
X154297530Y-106881409D01*
X153608917Y-107287780D01*
X153520851Y-107352848D01*
X152738552Y-107980964D01*
X151990411Y-108644294D01*
X151331525Y-109290970D01*
X150816991Y-109869120D01*
X150729903Y-109980299D01*
X150365254Y-110448966D01*
X149935662Y-110985174D01*
X149562039Y-111439241D01*
X148956571Y-112316910D01*
X148526402Y-113244634D01*
X148157857Y-114263517D01*
X147827565Y-115283417D01*
X147550070Y-116252196D01*
X147339914Y-117117717D01*
X147211639Y-117827844D01*
X147187503Y-118044744D01*
X147134651Y-118486270D01*
X147066155Y-118811236D01*
X146995540Y-118958336D01*
X146985295Y-118961274D01*
X146927023Y-118841718D01*
X146911298Y-118495834D01*
X146938974Y-117942800D01*
X146939643Y-117934068D01*
X147015108Y-117287116D01*
X147151150Y-116589572D01*
X147359109Y-115798693D01*
X147650324Y-114871740D01*
X148036134Y-113765969D01*
X148071024Y-113669607D01*
X148340482Y-112938641D01*
X148551704Y-112401311D01*
X148725575Y-112015137D01*
X148882977Y-111737639D01*
X149044794Y-111526338D01*
X149204334Y-111364308D01*
X149433922Y-111119830D01*
X149751282Y-110744043D01*
X150097776Y-110307074D01*
X150193404Y-110181486D01*
X150789347Y-109463360D01*
X151535979Y-108677060D01*
X152371653Y-107884509D01*
X153125819Y-107235910D01*
X153656990Y-106888920D01*
X154371167Y-106547942D01*
X155203094Y-106238426D01*
X156087519Y-105985826D01*
X156627438Y-105870097D01*
X157168705Y-105800145D01*
X157923971Y-105747518D01*
X158858706Y-105713930D01*
X159938377Y-105701096D01*
X160033333Y-105701017D01*
X160888519Y-105702400D01*
G37*
G36*
X157084805Y-92861628D02*
G01*
X157091220Y-92866701D01*
X157129999Y-92934008D01*
X157147636Y-93033964D01*
X157147737Y-93041698D01*
X157121135Y-93162088D01*
X157052225Y-93266615D01*
X156957350Y-93344061D01*
X156852850Y-93383207D01*
X156755069Y-93372834D01*
X156710189Y-93342072D01*
X156671240Y-93269733D01*
X156675956Y-93164075D01*
X156707107Y-93056353D01*
X156745198Y-92975208D01*
X156799152Y-92947199D01*
X156864698Y-92948849D01*
X156945807Y-92970328D01*
X156968819Y-93002320D01*
X156930391Y-93027961D01*
X156881428Y-93033254D01*
X156811320Y-93061221D01*
X156772066Y-93142370D01*
X156759081Y-93253484D01*
X156789675Y-93308109D01*
X156856455Y-93303620D01*
X156952031Y-93237397D01*
X156975819Y-93214651D01*
X157052518Y-93105103D01*
X157070724Y-92997854D01*
X157029698Y-92912559D01*
X157002811Y-92861788D01*
X157028114Y-92839643D01*
X157084805Y-92861628D01*
G37*
G36*
X158185781Y-90840108D02*
G01*
X158185985Y-90846569D01*
X158157381Y-90895753D01*
X158132467Y-90902189D01*
X158072908Y-90930061D01*
X158021226Y-90984600D01*
X157967029Y-91104030D01*
X157981138Y-91202440D01*
X158061081Y-91271955D01*
X158117585Y-91291638D01*
X158184056Y-91299705D01*
X158224116Y-91269278D01*
X158259005Y-91183737D01*
X158260236Y-91180018D01*
X158284907Y-91059305D01*
X158285304Y-90945938D01*
X158283584Y-90935950D01*
X158278194Y-90855044D01*
X158309202Y-90828215D01*
X158314194Y-90828028D01*
X158370931Y-90858800D01*
X158389458Y-90946309D01*
X158369126Y-91083349D01*
X158344692Y-91166664D01*
X158302016Y-91282035D01*
X158262051Y-91343751D01*
X158209362Y-91370062D01*
X158167445Y-91376240D01*
X158056824Y-91364399D01*
X157972773Y-91327787D01*
X157905856Y-91238524D01*
X157891893Y-91114042D01*
X157931279Y-90971444D01*
X157963097Y-90911459D01*
X158028443Y-90835528D01*
X158100067Y-90794621D01*
X158158877Y-90794295D01*
X158185781Y-90840108D01*
G37*
G36*
X156855259Y-91380824D02*
G01*
X156860514Y-91393503D01*
X156885549Y-91419792D01*
X156937283Y-91389362D01*
X156937326Y-91389327D01*
X156977402Y-91362185D01*
X157004149Y-91369796D01*
X157024829Y-91423976D01*
X157046703Y-91536542D01*
X157053827Y-91578904D01*
X157064121Y-91669924D01*
X157048748Y-91709450D01*
X157001096Y-91717955D01*
X156939935Y-91733175D01*
X156925255Y-91755036D01*
X156897507Y-91787307D01*
X156834424Y-91787970D01*
X156766249Y-91760048D01*
X156739853Y-91736496D01*
X156676723Y-91689376D01*
X156642612Y-91680875D01*
X156599701Y-91655246D01*
X156596058Y-91601281D01*
X156631378Y-91553360D01*
X156643806Y-91547247D01*
X156658242Y-91532855D01*
X156766111Y-91532855D01*
X156769909Y-91607676D01*
X156809103Y-91661305D01*
X156862781Y-91676941D01*
X156905879Y-91645147D01*
X156898976Y-91595964D01*
X156855875Y-91537335D01*
X156802918Y-91489401D01*
X156778785Y-91494314D01*
X156766111Y-91532855D01*
X156658242Y-91532855D01*
X156692487Y-91498714D01*
X156718673Y-91437170D01*
X156756974Y-91368956D01*
X156810712Y-91347646D01*
X156855259Y-91380824D01*
G37*
G36*
X157527083Y-90948297D02*
G01*
X157553893Y-90985587D01*
X157599193Y-91076357D01*
X157656355Y-91204310D01*
X157718748Y-91353149D01*
X157779742Y-91506578D01*
X157832707Y-91648300D01*
X157871014Y-91762018D01*
X157888033Y-91831436D01*
X157888335Y-91836278D01*
X157898030Y-91892134D01*
X157929067Y-91906990D01*
X157987997Y-91877262D01*
X158081369Y-91799364D01*
X158215735Y-91669712D01*
X158243455Y-91641935D01*
X158364738Y-91523616D01*
X158469761Y-91427952D01*
X158546232Y-91365719D01*
X158579761Y-91347153D01*
X158631790Y-91367665D01*
X158654349Y-91432535D01*
X158646846Y-91546762D01*
X158608690Y-91715345D01*
X158539289Y-91943284D01*
X158493015Y-92080126D01*
X158361130Y-92460837D01*
X158515136Y-92803192D01*
X158579814Y-92949676D01*
X158630994Y-93070746D01*
X158662155Y-93150670D01*
X158668586Y-93173357D01*
X158637604Y-93198606D01*
X158560774Y-93196011D01*
X158459867Y-93168190D01*
X158397355Y-93140749D01*
X158298035Y-93083358D01*
X158175251Y-93003417D01*
X158106856Y-92955347D01*
X158007124Y-92887164D01*
X157929243Y-92841768D01*
X157898267Y-92830364D01*
X157867056Y-92861604D01*
X157814125Y-92945321D01*
X157748515Y-93066515D01*
X157713878Y-93136277D01*
X157638624Y-93284930D01*
X157565150Y-93417744D01*
X157505674Y-93513037D01*
X157489292Y-93534890D01*
X157412336Y-93627590D01*
X157351623Y-93483570D01*
X157317102Y-93370557D01*
X157287146Y-93218321D01*
X157269801Y-93075687D01*
X157255666Y-92933743D01*
X157233754Y-92839538D01*
X157192902Y-92766726D01*
X157121948Y-92688963D01*
X157094589Y-92662153D01*
X156994193Y-92573189D01*
X156855625Y-92461466D01*
X156702287Y-92345563D01*
X156633376Y-92296057D01*
X156479367Y-92182814D01*
X156415873Y-92125839D01*
X156540095Y-92125839D01*
X156806991Y-92313877D01*
X156997252Y-92450724D01*
X157134539Y-92559281D01*
X157228283Y-92651331D01*
X157287911Y-92738658D01*
X157322852Y-92833045D01*
X157342533Y-92946275D01*
X157347212Y-92989039D01*
X157363894Y-93137819D01*
X157382015Y-93273640D01*
X157395639Y-93356083D01*
X157414188Y-93431923D01*
X157435497Y-93443429D01*
X157473124Y-93401350D01*
X157513153Y-93336926D01*
X157573595Y-93225048D01*
X157643867Y-93085634D01*
X157673112Y-93025036D01*
X157743501Y-92888546D01*
X157807830Y-92783994D01*
X157856588Y-92726068D01*
X157871153Y-92719123D01*
X157922766Y-92739011D01*
X158018948Y-92792502D01*
X158143748Y-92870340D01*
X158225889Y-92924988D01*
X158355129Y-93010647D01*
X158459966Y-93075722D01*
X158526651Y-93111925D01*
X158542990Y-93116084D01*
X158535335Y-93078123D01*
X158502273Y-92989324D01*
X158450065Y-92865911D01*
X158424227Y-92808300D01*
X158357997Y-92652734D01*
X158320480Y-92525572D01*
X158312230Y-92406822D01*
X158333801Y-92276492D01*
X158385748Y-92114593D01*
X158447929Y-91952982D01*
X158499688Y-91808423D01*
X158535799Y-91679708D01*
X158549958Y-91590158D01*
X158549424Y-91577361D01*
X158540658Y-91540814D01*
X158519913Y-91531815D01*
X158477905Y-91556386D01*
X158405353Y-91620544D01*
X158292973Y-91730310D01*
X158254617Y-91768527D01*
X158133895Y-91884346D01*
X158028083Y-91977264D01*
X157950289Y-92036273D01*
X157917493Y-92051678D01*
X157873676Y-92018417D01*
X157829946Y-91931803D01*
X157817437Y-91894087D01*
X157775889Y-91765420D01*
X157722995Y-91618260D01*
X157665317Y-91468817D01*
X157609417Y-91333299D01*
X157561857Y-91227918D01*
X157529197Y-91168882D01*
X157520990Y-91161751D01*
X157502193Y-91195231D01*
X157467446Y-91287030D01*
X157421263Y-91424185D01*
X157368157Y-91593733D01*
X157352830Y-91644681D01*
X157296975Y-91824684D01*
X157244851Y-91979468D01*
X157201554Y-92094802D01*
X157172176Y-92156457D01*
X157167740Y-92161705D01*
X157101119Y-92177240D01*
X156988575Y-92163725D01*
X156979607Y-92161703D01*
X156839337Y-92138155D01*
X156696475Y-92126859D01*
X156686325Y-92126723D01*
X156540095Y-92125839D01*
X156415873Y-92125839D01*
X156389828Y-92102468D01*
X156366356Y-92051467D01*
X156410546Y-92026259D01*
X156523995Y-92023291D01*
X156708299Y-92039011D01*
X156746947Y-92043304D01*
X156899620Y-92057882D01*
X157023386Y-92064543D01*
X157100622Y-92062595D01*
X157116687Y-92057814D01*
X157136344Y-92014713D01*
X157172169Y-91914983D01*
X157219220Y-91773088D01*
X157272550Y-91603489D01*
X157277241Y-91588174D01*
X157349044Y-91355265D01*
X157403567Y-91184641D01*
X157444288Y-91067395D01*
X157474687Y-90994616D01*
X157498242Y-90957395D01*
X157518431Y-90946823D01*
X157527083Y-90948297D01*
G37*
%TD*%
D12*
%TO.C,R2*%
X126400000Y-91910000D03*
X126400000Y-90890000D03*
%TD*%
%TO.C,R3*%
X153800000Y-81810000D03*
X153800000Y-80790000D03*
%TD*%
D13*
%TO.C,R9*%
X138100000Y-83100000D03*
X139120000Y-83100000D03*
%TD*%
D14*
%TO.C,D4*%
X126925000Y-94700000D03*
X128500000Y-94700000D03*
%TD*%
D15*
%TO.C,TP3*%
X144200000Y-73200000D03*
%TD*%
D14*
%TO.C,D7*%
X153500000Y-94100000D03*
X155075000Y-94100000D03*
%TD*%
D12*
%TO.C,R8*%
X156600000Y-96010000D03*
X156600000Y-94990000D03*
%TD*%
D14*
%TO.C,D5*%
X134512500Y-111200000D03*
X136087500Y-111200000D03*
%TD*%
D13*
%TO.C,R10*%
X139000000Y-101100000D03*
X140020000Y-101100000D03*
%TD*%
D14*
%TO.C,D9*%
X138500000Y-99800000D03*
X140075000Y-99800000D03*
%TD*%
D13*
%TO.C,R4*%
X155900000Y-90600000D03*
X156920000Y-90600000D03*
%TD*%
D16*
%TO.C,R6*%
X136520000Y-112600000D03*
X135500000Y-112600000D03*
%TD*%
D14*
%TO.C,D8*%
X137800000Y-81600000D03*
X139375000Y-81600000D03*
%TD*%
%TO.C,D2*%
X150812500Y-81000000D03*
X152387500Y-81000000D03*
%TD*%
D13*
%TO.C,R5*%
X127300000Y-96100000D03*
X128320000Y-96100000D03*
%TD*%
D15*
%TO.C,TP4*%
X167700000Y-96700000D03*
%TD*%
%TO.C,TP1*%
X120700000Y-96700000D03*
%TD*%
D13*
%TO.C,R7*%
X146400000Y-112800000D03*
X147420000Y-112800000D03*
%TD*%
D15*
%TO.C,TP2*%
X144200000Y-120200000D03*
%TD*%
D14*
%TO.C,D3*%
X155712500Y-89200000D03*
X157287500Y-89200000D03*
%TD*%
%TO.C,D6*%
X146012500Y-111400000D03*
X147587500Y-111400000D03*
%TD*%
%TO.C,D1*%
X128600000Y-91300000D03*
X130175000Y-91300000D03*
%TD*%
D17*
%TO.C,J1*%
X146740000Y-84200000D03*
D18*
X144200000Y-84200000D03*
X141660000Y-84200000D03*
%TD*%
D19*
%TO.C,J2*%
X127480446Y-85776707D03*
D18*
X129113127Y-83830954D03*
%TD*%
M02*
