%TF.GenerationSoftware,KiCad,Pcbnew,10.0.0-10.0.0~ubuntu24.04.1*%
%TF.CreationDate,2026-07-05T09:47:00-07:00*%
%TF.ProjectId,INNER_PCB,494e4e45-525f-4504-9342-2e6b69636164,rev?*%
%TF.SameCoordinates,Original*%
%TF.FileFunction,Legend,Top*%
%TF.FilePolarity,Positive*%
%FSLAX46Y46*%
G04 Gerber Fmt 4.6, Leading zero omitted, Abs format (unit mm)*
G04 Created by KiCad (PCBNEW 10.0.0-10.0.0~ubuntu24.04.1) date 2026-07-05 09:47:00*
%MOMM*%
%LPD*%
G01*
G04 APERTURE LIST*
%ADD10C,0.000000*%
%ADD11C,0.120000*%
G04 APERTURE END LIST*
D10*
%TO.C,G\u002A\u002A\u002A*%
G36*
X130587395Y-97709282D02*
G01*
X130671643Y-97734786D01*
X130752682Y-97774609D01*
X130825452Y-97826526D01*
X130855000Y-97854107D01*
X130916426Y-97929662D01*
X130960114Y-98013377D01*
X130985508Y-98098263D01*
X130996348Y-98161998D01*
X130998653Y-98216882D01*
X130992398Y-98272162D01*
X130984944Y-98307602D01*
X130953667Y-98399999D01*
X130906975Y-98482435D01*
X130847023Y-98553551D01*
X130775965Y-98611987D01*
X130695955Y-98656384D01*
X130609147Y-98685382D01*
X130517694Y-98697622D01*
X130423751Y-98691745D01*
X130387816Y-98684470D01*
X130303627Y-98655174D01*
X130224025Y-98610620D01*
X130152925Y-98553862D01*
X130094246Y-98487951D01*
X130056818Y-98426510D01*
X130034229Y-98370138D01*
X130015865Y-98305690D01*
X130003881Y-98241996D01*
X130000321Y-98195000D01*
X130009599Y-98110597D01*
X130035947Y-98025940D01*
X130076972Y-97944864D01*
X130130283Y-97871209D01*
X130193486Y-97808809D01*
X130264189Y-97761504D01*
X130273489Y-97756818D01*
X130329861Y-97734229D01*
X130394309Y-97715865D01*
X130458003Y-97703881D01*
X130505000Y-97700321D01*
X130587395Y-97709282D01*
G37*
G36*
X132387395Y-106709282D02*
G01*
X132471643Y-106734786D01*
X132552682Y-106774609D01*
X132625452Y-106826526D01*
X132655000Y-106854107D01*
X132716426Y-106929662D01*
X132760114Y-107013377D01*
X132785508Y-107098263D01*
X132796348Y-107161998D01*
X132798653Y-107216882D01*
X132792398Y-107272162D01*
X132784944Y-107307602D01*
X132753667Y-107399999D01*
X132706975Y-107482435D01*
X132647023Y-107553551D01*
X132575965Y-107611987D01*
X132495955Y-107656384D01*
X132409147Y-107685382D01*
X132317694Y-107697622D01*
X132223751Y-107691745D01*
X132187816Y-107684470D01*
X132103627Y-107655174D01*
X132024025Y-107610620D01*
X131952925Y-107553862D01*
X131894246Y-107487951D01*
X131856818Y-107426510D01*
X131834229Y-107370138D01*
X131815865Y-107305690D01*
X131803881Y-107241996D01*
X131800321Y-107195000D01*
X131809599Y-107110597D01*
X131835947Y-107025940D01*
X131876972Y-106944864D01*
X131930283Y-106871209D01*
X131993486Y-106808809D01*
X132064189Y-106761504D01*
X132073489Y-106756818D01*
X132129861Y-106734229D01*
X132194309Y-106715865D01*
X132258003Y-106703881D01*
X132305000Y-106700321D01*
X132387395Y-106709282D01*
G37*
G36*
X135287395Y-107809282D02*
G01*
X135371643Y-107834786D01*
X135452682Y-107874609D01*
X135525452Y-107926526D01*
X135555000Y-107954107D01*
X135616426Y-108029662D01*
X135660114Y-108113377D01*
X135685508Y-108198263D01*
X135696348Y-108261998D01*
X135698653Y-108316882D01*
X135692398Y-108372162D01*
X135684944Y-108407602D01*
X135653667Y-108499999D01*
X135606975Y-108582435D01*
X135547023Y-108653551D01*
X135475965Y-108711987D01*
X135395955Y-108756384D01*
X135309147Y-108785382D01*
X135217694Y-108797622D01*
X135123751Y-108791745D01*
X135087816Y-108784470D01*
X135003627Y-108755174D01*
X134924025Y-108710620D01*
X134852925Y-108653862D01*
X134794246Y-108587951D01*
X134756818Y-108526510D01*
X134734229Y-108470138D01*
X134715865Y-108405690D01*
X134703881Y-108341996D01*
X134700321Y-108295000D01*
X134709599Y-108210597D01*
X134735947Y-108125940D01*
X134776972Y-108044864D01*
X134830283Y-107971209D01*
X134893486Y-107908809D01*
X134964189Y-107861504D01*
X134973489Y-107856818D01*
X135029861Y-107834229D01*
X135094309Y-107815865D01*
X135158003Y-107803881D01*
X135205000Y-107800321D01*
X135287395Y-107809282D01*
G37*
G36*
X143487395Y-112309282D02*
G01*
X143571643Y-112334786D01*
X143652682Y-112374609D01*
X143725452Y-112426526D01*
X143755000Y-112454107D01*
X143816426Y-112529662D01*
X143860114Y-112613377D01*
X143885508Y-112698263D01*
X143896348Y-112761998D01*
X143898653Y-112816882D01*
X143892398Y-112872162D01*
X143884944Y-112907602D01*
X143853667Y-112999999D01*
X143806975Y-113082435D01*
X143747023Y-113153551D01*
X143675965Y-113211987D01*
X143595955Y-113256384D01*
X143509147Y-113285382D01*
X143417694Y-113297622D01*
X143323751Y-113291745D01*
X143287816Y-113284470D01*
X143203627Y-113255174D01*
X143124025Y-113210620D01*
X143052925Y-113153862D01*
X142994246Y-113087951D01*
X142956818Y-113026510D01*
X142934229Y-112970138D01*
X142915865Y-112905690D01*
X142903881Y-112841996D01*
X142900321Y-112795000D01*
X142909599Y-112710597D01*
X142935947Y-112625940D01*
X142976972Y-112544864D01*
X143030283Y-112471209D01*
X143093486Y-112408809D01*
X143164189Y-112361504D01*
X143173489Y-112356818D01*
X143229861Y-112334229D01*
X143294309Y-112315865D01*
X143358003Y-112303881D01*
X143405000Y-112300321D01*
X143487395Y-112309282D01*
G37*
G36*
X146187395Y-111809282D02*
G01*
X146271643Y-111834786D01*
X146352682Y-111874609D01*
X146425452Y-111926526D01*
X146455000Y-111954107D01*
X146516426Y-112029662D01*
X146560114Y-112113377D01*
X146585508Y-112198263D01*
X146596348Y-112261998D01*
X146598653Y-112316882D01*
X146592398Y-112372162D01*
X146584944Y-112407602D01*
X146553667Y-112499999D01*
X146506975Y-112582435D01*
X146447023Y-112653551D01*
X146375965Y-112711987D01*
X146295955Y-112756384D01*
X146209147Y-112785382D01*
X146117694Y-112797622D01*
X146023751Y-112791745D01*
X145987816Y-112784470D01*
X145903627Y-112755174D01*
X145824025Y-112710620D01*
X145752925Y-112653862D01*
X145694246Y-112587951D01*
X145656818Y-112526510D01*
X145634229Y-112470138D01*
X145615865Y-112405690D01*
X145603881Y-112341996D01*
X145600321Y-112295000D01*
X145609599Y-112210597D01*
X145635947Y-112125940D01*
X145676972Y-112044864D01*
X145730283Y-111971209D01*
X145793486Y-111908809D01*
X145864189Y-111861504D01*
X145873489Y-111856818D01*
X145929861Y-111834229D01*
X145994309Y-111815865D01*
X146058003Y-111803881D01*
X146105000Y-111800321D01*
X146187395Y-111809282D01*
G37*
G36*
X155287395Y-108509282D02*
G01*
X155371643Y-108534786D01*
X155452682Y-108574609D01*
X155525452Y-108626526D01*
X155555000Y-108654107D01*
X155616426Y-108729662D01*
X155660114Y-108813377D01*
X155685508Y-108898263D01*
X155696348Y-108961998D01*
X155698653Y-109016882D01*
X155692398Y-109072162D01*
X155684944Y-109107602D01*
X155653667Y-109199999D01*
X155606975Y-109282435D01*
X155547023Y-109353551D01*
X155475965Y-109411987D01*
X155395955Y-109456384D01*
X155309147Y-109485382D01*
X155217694Y-109497622D01*
X155123751Y-109491745D01*
X155087816Y-109484470D01*
X155003627Y-109455174D01*
X154924025Y-109410620D01*
X154852925Y-109353862D01*
X154794246Y-109287951D01*
X154756818Y-109226510D01*
X154734229Y-109170138D01*
X154715865Y-109105690D01*
X154703881Y-109041996D01*
X154700321Y-108995000D01*
X154709599Y-108910597D01*
X154735947Y-108825940D01*
X154776972Y-108744864D01*
X154830283Y-108671209D01*
X154893486Y-108608809D01*
X154964189Y-108561504D01*
X154973489Y-108556818D01*
X155029861Y-108534229D01*
X155094309Y-108515865D01*
X155158003Y-108503881D01*
X155205000Y-108500321D01*
X155287395Y-108509282D01*
G37*
G36*
X157887395Y-107309282D02*
G01*
X157971643Y-107334786D01*
X158052682Y-107374609D01*
X158125452Y-107426526D01*
X158155000Y-107454107D01*
X158216426Y-107529662D01*
X158260114Y-107613377D01*
X158285508Y-107698263D01*
X158296348Y-107761998D01*
X158298653Y-107816882D01*
X158292398Y-107872162D01*
X158284944Y-107907602D01*
X158253667Y-107999999D01*
X158206975Y-108082435D01*
X158147023Y-108153551D01*
X158075965Y-108211987D01*
X157995955Y-108256384D01*
X157909147Y-108285382D01*
X157817694Y-108297622D01*
X157723751Y-108291745D01*
X157687816Y-108284470D01*
X157603627Y-108255174D01*
X157524025Y-108210620D01*
X157452925Y-108153862D01*
X157394246Y-108087951D01*
X157356818Y-108026510D01*
X157334229Y-107970138D01*
X157315865Y-107905690D01*
X157303881Y-107841996D01*
X157300321Y-107795000D01*
X157309599Y-107710597D01*
X157335947Y-107625940D01*
X157376972Y-107544864D01*
X157430283Y-107471209D01*
X157493486Y-107408809D01*
X157564189Y-107361504D01*
X157573489Y-107356818D01*
X157629861Y-107334229D01*
X157694309Y-107315865D01*
X157758003Y-107303881D01*
X157805000Y-107300321D01*
X157887395Y-107309282D01*
G37*
G36*
X158687395Y-97609282D02*
G01*
X158771643Y-97634786D01*
X158852682Y-97674609D01*
X158925452Y-97726526D01*
X158955000Y-97754107D01*
X159016426Y-97829662D01*
X159060114Y-97913377D01*
X159085508Y-97998263D01*
X159096348Y-98061998D01*
X159098653Y-98116882D01*
X159092398Y-98172162D01*
X159084944Y-98207602D01*
X159053667Y-98299999D01*
X159006975Y-98382435D01*
X158947023Y-98453551D01*
X158875965Y-98511987D01*
X158795955Y-98556384D01*
X158709147Y-98585382D01*
X158617694Y-98597622D01*
X158523751Y-98591745D01*
X158487816Y-98584470D01*
X158403627Y-98555174D01*
X158324025Y-98510620D01*
X158252925Y-98453862D01*
X158194246Y-98387951D01*
X158156818Y-98326510D01*
X158134229Y-98270138D01*
X158115865Y-98205690D01*
X158103881Y-98141996D01*
X158100321Y-98095000D01*
X158109599Y-98010597D01*
X158135947Y-97925940D01*
X158176972Y-97844864D01*
X158230283Y-97771209D01*
X158293486Y-97708809D01*
X158364189Y-97661504D01*
X158373489Y-97656818D01*
X158429861Y-97634229D01*
X158494309Y-97615865D01*
X158558003Y-97603881D01*
X158605000Y-97600321D01*
X158687395Y-97609282D01*
G37*
G36*
X160287395Y-94909282D02*
G01*
X160371643Y-94934786D01*
X160452682Y-94974609D01*
X160525452Y-95026526D01*
X160555000Y-95054107D01*
X160616426Y-95129662D01*
X160660114Y-95213377D01*
X160685508Y-95298263D01*
X160696348Y-95361998D01*
X160698653Y-95416882D01*
X160692398Y-95472162D01*
X160684944Y-95507602D01*
X160653667Y-95599999D01*
X160606975Y-95682435D01*
X160547023Y-95753551D01*
X160475965Y-95811987D01*
X160395955Y-95856384D01*
X160309147Y-95885382D01*
X160217694Y-95897622D01*
X160123751Y-95891745D01*
X160087816Y-95884470D01*
X160003627Y-95855174D01*
X159924025Y-95810620D01*
X159852925Y-95753862D01*
X159794246Y-95687951D01*
X159756818Y-95626510D01*
X159734229Y-95570138D01*
X159715865Y-95505690D01*
X159703881Y-95441996D01*
X159700321Y-95395000D01*
X159709599Y-95310597D01*
X159735947Y-95225940D01*
X159776972Y-95144864D01*
X159830283Y-95071209D01*
X159893486Y-95008809D01*
X159964189Y-94961504D01*
X159973489Y-94956818D01*
X160029861Y-94934229D01*
X160094309Y-94915865D01*
X160158003Y-94903881D01*
X160205000Y-94900321D01*
X160287395Y-94909282D01*
G37*
G36*
X155787395Y-87409282D02*
G01*
X155871643Y-87434786D01*
X155952682Y-87474609D01*
X156025452Y-87526526D01*
X156055000Y-87554107D01*
X156116426Y-87629662D01*
X156160114Y-87713377D01*
X156185508Y-87798263D01*
X156196348Y-87861998D01*
X156198653Y-87916882D01*
X156192398Y-87972162D01*
X156184944Y-88007602D01*
X156153667Y-88099999D01*
X156106975Y-88182435D01*
X156047023Y-88253551D01*
X155975965Y-88311987D01*
X155895955Y-88356384D01*
X155809147Y-88385382D01*
X155717694Y-88397622D01*
X155623751Y-88391745D01*
X155587816Y-88384470D01*
X155503627Y-88355174D01*
X155424025Y-88310620D01*
X155352925Y-88253862D01*
X155294246Y-88187951D01*
X155256818Y-88126510D01*
X155234229Y-88070138D01*
X155215865Y-88005690D01*
X155203881Y-87941996D01*
X155200321Y-87895000D01*
X155209599Y-87810597D01*
X155235947Y-87725940D01*
X155276972Y-87644864D01*
X155330283Y-87571209D01*
X155393486Y-87508809D01*
X155464189Y-87461504D01*
X155473489Y-87456818D01*
X155529861Y-87434229D01*
X155594309Y-87415865D01*
X155658003Y-87403881D01*
X155705000Y-87400321D01*
X155787395Y-87409282D01*
G37*
G36*
X154487395Y-84909282D02*
G01*
X154571643Y-84934786D01*
X154652682Y-84974609D01*
X154725452Y-85026526D01*
X154755000Y-85054107D01*
X154816426Y-85129662D01*
X154860114Y-85213377D01*
X154885508Y-85298263D01*
X154896348Y-85361998D01*
X154898653Y-85416882D01*
X154892398Y-85472162D01*
X154884944Y-85507602D01*
X154853667Y-85599999D01*
X154806975Y-85682435D01*
X154747023Y-85753551D01*
X154675965Y-85811987D01*
X154595955Y-85856384D01*
X154509147Y-85885382D01*
X154417694Y-85897622D01*
X154323751Y-85891745D01*
X154287816Y-85884470D01*
X154203627Y-85855174D01*
X154124025Y-85810620D01*
X154052925Y-85753862D01*
X153994246Y-85687951D01*
X153956818Y-85626510D01*
X153934229Y-85570138D01*
X153915865Y-85505690D01*
X153903881Y-85441996D01*
X153900321Y-85395000D01*
X153909599Y-85310597D01*
X153935947Y-85225940D01*
X153976972Y-85144864D01*
X154030283Y-85071209D01*
X154093486Y-85008809D01*
X154164189Y-84961504D01*
X154173489Y-84956818D01*
X154229861Y-84934229D01*
X154294309Y-84915865D01*
X154358003Y-84903881D01*
X154405000Y-84900321D01*
X154487395Y-84909282D01*
G37*
G36*
X146287395Y-82209282D02*
G01*
X146371643Y-82234786D01*
X146452682Y-82274609D01*
X146525452Y-82326526D01*
X146555000Y-82354107D01*
X146616426Y-82429662D01*
X146660114Y-82513377D01*
X146685508Y-82598263D01*
X146696348Y-82661998D01*
X146698653Y-82716882D01*
X146692398Y-82772162D01*
X146684944Y-82807602D01*
X146653667Y-82899999D01*
X146606975Y-82982435D01*
X146547023Y-83053551D01*
X146475965Y-83111987D01*
X146395955Y-83156384D01*
X146309147Y-83185382D01*
X146217694Y-83197622D01*
X146123751Y-83191745D01*
X146087816Y-83184470D01*
X146003627Y-83155174D01*
X145924025Y-83110620D01*
X145852925Y-83053862D01*
X145794246Y-82987951D01*
X145756818Y-82926510D01*
X145734229Y-82870138D01*
X145715865Y-82805690D01*
X145703881Y-82741996D01*
X145700321Y-82695000D01*
X145709599Y-82610597D01*
X145735947Y-82525940D01*
X145776972Y-82444864D01*
X145830283Y-82371209D01*
X145893486Y-82308809D01*
X145964189Y-82261504D01*
X145973489Y-82256818D01*
X146029861Y-82234229D01*
X146094309Y-82215865D01*
X146158003Y-82203881D01*
X146205000Y-82200321D01*
X146287395Y-82209282D01*
G37*
G36*
X143787395Y-82309282D02*
G01*
X143871643Y-82334786D01*
X143952682Y-82374609D01*
X144025452Y-82426526D01*
X144055000Y-82454107D01*
X144116426Y-82529662D01*
X144160114Y-82613377D01*
X144185508Y-82698263D01*
X144196348Y-82761998D01*
X144198653Y-82816882D01*
X144192398Y-82872162D01*
X144184944Y-82907602D01*
X144153667Y-82999999D01*
X144106975Y-83082435D01*
X144047023Y-83153551D01*
X143975965Y-83211987D01*
X143895955Y-83256384D01*
X143809147Y-83285382D01*
X143717694Y-83297622D01*
X143623751Y-83291745D01*
X143587816Y-83284470D01*
X143503627Y-83255174D01*
X143424025Y-83210620D01*
X143352925Y-83153862D01*
X143294246Y-83087951D01*
X143256818Y-83026510D01*
X143234229Y-82970138D01*
X143215865Y-82905690D01*
X143203881Y-82841996D01*
X143200321Y-82795000D01*
X143209599Y-82710597D01*
X143235947Y-82625940D01*
X143276972Y-82544864D01*
X143330283Y-82471209D01*
X143393486Y-82408809D01*
X143464189Y-82361504D01*
X143473489Y-82356818D01*
X143529861Y-82334229D01*
X143594309Y-82315865D01*
X143658003Y-82303881D01*
X143705000Y-82300321D01*
X143787395Y-82309282D01*
G37*
G36*
X135087395Y-84109282D02*
G01*
X135171643Y-84134786D01*
X135252682Y-84174609D01*
X135325452Y-84226526D01*
X135355000Y-84254107D01*
X135416426Y-84329662D01*
X135460114Y-84413377D01*
X135485508Y-84498263D01*
X135496348Y-84561998D01*
X135498653Y-84616882D01*
X135492398Y-84672162D01*
X135484944Y-84707602D01*
X135453667Y-84799999D01*
X135406975Y-84882435D01*
X135347023Y-84953551D01*
X135275965Y-85011987D01*
X135195955Y-85056384D01*
X135109147Y-85085382D01*
X135017694Y-85097622D01*
X134923751Y-85091745D01*
X134887816Y-85084470D01*
X134803627Y-85055174D01*
X134724025Y-85010620D01*
X134652925Y-84953862D01*
X134594246Y-84887951D01*
X134556818Y-84826510D01*
X134534229Y-84770138D01*
X134515865Y-84705690D01*
X134503881Y-84641996D01*
X134500321Y-84595000D01*
X134509599Y-84510597D01*
X134535947Y-84425940D01*
X134576972Y-84344864D01*
X134630283Y-84271209D01*
X134693486Y-84208809D01*
X134764189Y-84161504D01*
X134773489Y-84156818D01*
X134829861Y-84134229D01*
X134894309Y-84115865D01*
X134958003Y-84103881D01*
X135005000Y-84100321D01*
X135087395Y-84109282D01*
G37*
G36*
X141687395Y-97709282D02*
G01*
X141771643Y-97734786D01*
X141852682Y-97774609D01*
X141925452Y-97826526D01*
X141955000Y-97854107D01*
X142016426Y-97929662D01*
X142060114Y-98013377D01*
X142085508Y-98098263D01*
X142096348Y-98161998D01*
X142098653Y-98216882D01*
X142092398Y-98272162D01*
X142084944Y-98307602D01*
X142053667Y-98399999D01*
X142006975Y-98482435D01*
X141947023Y-98553551D01*
X141875965Y-98611987D01*
X141795955Y-98656384D01*
X141709147Y-98685382D01*
X141617694Y-98697622D01*
X141523751Y-98691745D01*
X141487816Y-98684470D01*
X141403627Y-98655174D01*
X141324025Y-98610620D01*
X141252925Y-98553862D01*
X141194246Y-98487951D01*
X141156818Y-98426510D01*
X141134229Y-98370138D01*
X141115865Y-98305690D01*
X141103881Y-98241996D01*
X141100321Y-98195000D01*
X141109599Y-98110597D01*
X141135947Y-98025940D01*
X141176972Y-97944864D01*
X141230283Y-97871209D01*
X141293486Y-97808809D01*
X141364189Y-97761504D01*
X141373489Y-97756818D01*
X141429861Y-97734229D01*
X141494309Y-97715865D01*
X141558003Y-97703881D01*
X141605000Y-97700321D01*
X141687395Y-97709282D01*
G37*
G36*
X143587395Y-99509282D02*
G01*
X143671643Y-99534786D01*
X143752682Y-99574609D01*
X143825452Y-99626526D01*
X143855000Y-99654107D01*
X143916426Y-99729662D01*
X143960114Y-99813377D01*
X143985508Y-99898263D01*
X143996348Y-99961998D01*
X143998653Y-100016882D01*
X143992398Y-100072162D01*
X143984944Y-100107602D01*
X143953667Y-100199999D01*
X143906975Y-100282435D01*
X143847023Y-100353551D01*
X143775965Y-100411987D01*
X143695955Y-100456384D01*
X143609147Y-100485382D01*
X143517694Y-100497622D01*
X143423751Y-100491745D01*
X143387816Y-100484470D01*
X143303627Y-100455174D01*
X143224025Y-100410620D01*
X143152925Y-100353862D01*
X143094246Y-100287951D01*
X143056818Y-100226510D01*
X143034229Y-100170138D01*
X143015865Y-100105690D01*
X143003881Y-100041996D01*
X143000321Y-99995000D01*
X143009599Y-99910597D01*
X143035947Y-99825940D01*
X143076972Y-99744864D01*
X143130283Y-99671209D01*
X143193486Y-99608809D01*
X143264189Y-99561504D01*
X143273489Y-99556818D01*
X143329861Y-99534229D01*
X143394309Y-99515865D01*
X143458003Y-99503881D01*
X143505000Y-99500321D01*
X143587395Y-99509282D01*
G37*
G36*
X146187395Y-99509282D02*
G01*
X146271643Y-99534786D01*
X146352682Y-99574609D01*
X146425452Y-99626526D01*
X146455000Y-99654107D01*
X146516426Y-99729662D01*
X146560114Y-99813377D01*
X146585508Y-99898263D01*
X146596348Y-99961998D01*
X146598653Y-100016882D01*
X146592398Y-100072162D01*
X146584944Y-100107602D01*
X146553667Y-100199999D01*
X146506975Y-100282435D01*
X146447023Y-100353551D01*
X146375965Y-100411987D01*
X146295955Y-100456384D01*
X146209147Y-100485382D01*
X146117694Y-100497622D01*
X146023751Y-100491745D01*
X145987816Y-100484470D01*
X145903627Y-100455174D01*
X145824025Y-100410620D01*
X145752925Y-100353862D01*
X145694246Y-100287951D01*
X145656818Y-100226510D01*
X145634229Y-100170138D01*
X145615865Y-100105690D01*
X145603881Y-100041996D01*
X145600321Y-99995000D01*
X145609599Y-99910597D01*
X145635947Y-99825940D01*
X145676972Y-99744864D01*
X145730283Y-99671209D01*
X145793486Y-99608809D01*
X145864189Y-99561504D01*
X145873489Y-99556818D01*
X145929861Y-99534229D01*
X145994309Y-99515865D01*
X146058003Y-99503881D01*
X146105000Y-99500321D01*
X146187395Y-99509282D01*
G37*
G36*
X147887395Y-97709282D02*
G01*
X147971643Y-97734786D01*
X148052682Y-97774609D01*
X148125452Y-97826526D01*
X148155000Y-97854107D01*
X148216426Y-97929662D01*
X148260114Y-98013377D01*
X148285508Y-98098263D01*
X148296348Y-98161998D01*
X148298653Y-98216882D01*
X148292398Y-98272162D01*
X148284944Y-98307602D01*
X148253667Y-98399999D01*
X148206975Y-98482435D01*
X148147023Y-98553551D01*
X148075965Y-98611987D01*
X147995955Y-98656384D01*
X147909147Y-98685382D01*
X147817694Y-98697622D01*
X147723751Y-98691745D01*
X147687816Y-98684470D01*
X147603627Y-98655174D01*
X147524025Y-98610620D01*
X147452925Y-98553862D01*
X147394246Y-98487951D01*
X147356818Y-98426510D01*
X147334229Y-98370138D01*
X147315865Y-98305690D01*
X147303881Y-98241996D01*
X147300321Y-98195000D01*
X147309599Y-98110597D01*
X147335947Y-98025940D01*
X147376972Y-97944864D01*
X147430283Y-97871209D01*
X147493486Y-97808809D01*
X147564189Y-97761504D01*
X147573489Y-97756818D01*
X147629861Y-97734229D01*
X147694309Y-97715865D01*
X147758003Y-97703881D01*
X147805000Y-97700321D01*
X147887395Y-97709282D01*
G37*
G36*
X147887395Y-95109282D02*
G01*
X147971643Y-95134786D01*
X148052682Y-95174609D01*
X148125452Y-95226526D01*
X148155000Y-95254107D01*
X148216426Y-95329662D01*
X148260114Y-95413377D01*
X148285508Y-95498263D01*
X148296348Y-95561998D01*
X148298653Y-95616882D01*
X148292398Y-95672162D01*
X148284944Y-95707602D01*
X148253667Y-95799999D01*
X148206975Y-95882435D01*
X148147023Y-95953551D01*
X148075965Y-96011987D01*
X147995955Y-96056384D01*
X147909147Y-96085382D01*
X147817694Y-96097622D01*
X147723751Y-96091745D01*
X147687816Y-96084470D01*
X147603627Y-96055174D01*
X147524025Y-96010620D01*
X147452925Y-95953862D01*
X147394246Y-95887951D01*
X147356818Y-95826510D01*
X147334229Y-95770138D01*
X147315865Y-95705690D01*
X147303881Y-95641996D01*
X147300321Y-95595000D01*
X147309599Y-95510597D01*
X147335947Y-95425940D01*
X147376972Y-95344864D01*
X147430283Y-95271209D01*
X147493486Y-95208809D01*
X147564189Y-95161504D01*
X147573489Y-95156818D01*
X147629861Y-95134229D01*
X147694309Y-95115865D01*
X147758003Y-95103881D01*
X147805000Y-95100321D01*
X147887395Y-95109282D01*
G37*
G36*
X146087395Y-93209282D02*
G01*
X146171643Y-93234786D01*
X146252682Y-93274609D01*
X146325452Y-93326526D01*
X146355000Y-93354107D01*
X146416426Y-93429662D01*
X146460114Y-93513377D01*
X146485508Y-93598263D01*
X146496348Y-93661998D01*
X146498653Y-93716882D01*
X146492398Y-93772162D01*
X146484944Y-93807602D01*
X146453667Y-93899999D01*
X146406975Y-93982435D01*
X146347023Y-94053551D01*
X146275965Y-94111987D01*
X146195955Y-94156384D01*
X146109147Y-94185382D01*
X146017694Y-94197622D01*
X145923751Y-94191745D01*
X145887816Y-94184470D01*
X145803627Y-94155174D01*
X145724025Y-94110620D01*
X145652925Y-94053862D01*
X145594246Y-93987951D01*
X145556818Y-93926510D01*
X145534229Y-93870138D01*
X145515865Y-93805690D01*
X145503881Y-93741996D01*
X145500321Y-93695000D01*
X145509599Y-93610597D01*
X145535947Y-93525940D01*
X145576972Y-93444864D01*
X145630283Y-93371209D01*
X145693486Y-93308809D01*
X145764189Y-93261504D01*
X145773489Y-93256818D01*
X145829861Y-93234229D01*
X145894309Y-93215865D01*
X145958003Y-93203881D01*
X146005000Y-93200321D01*
X146087395Y-93209282D01*
G37*
G36*
X143587395Y-93209282D02*
G01*
X143671643Y-93234786D01*
X143752682Y-93274609D01*
X143825452Y-93326526D01*
X143855000Y-93354107D01*
X143916426Y-93429662D01*
X143960114Y-93513377D01*
X143985508Y-93598263D01*
X143996348Y-93661998D01*
X143998653Y-93716882D01*
X143992398Y-93772162D01*
X143984944Y-93807602D01*
X143953667Y-93899999D01*
X143906975Y-93982435D01*
X143847023Y-94053551D01*
X143775965Y-94111987D01*
X143695955Y-94156384D01*
X143609147Y-94185382D01*
X143517694Y-94197622D01*
X143423751Y-94191745D01*
X143387816Y-94184470D01*
X143303627Y-94155174D01*
X143224025Y-94110620D01*
X143152925Y-94053862D01*
X143094246Y-93987951D01*
X143056818Y-93926510D01*
X143034229Y-93870138D01*
X143015865Y-93805690D01*
X143003881Y-93741996D01*
X143000321Y-93695000D01*
X143009599Y-93610597D01*
X143035947Y-93525940D01*
X143076972Y-93444864D01*
X143130283Y-93371209D01*
X143193486Y-93308809D01*
X143264189Y-93261504D01*
X143273489Y-93256818D01*
X143329861Y-93234229D01*
X143394309Y-93215865D01*
X143458003Y-93203881D01*
X143505000Y-93200321D01*
X143587395Y-93209282D01*
G37*
G36*
X133287395Y-86809282D02*
G01*
X133371643Y-86834786D01*
X133452682Y-86874609D01*
X133525452Y-86926526D01*
X133555000Y-86954107D01*
X133616426Y-87029662D01*
X133660114Y-87113377D01*
X133685508Y-87198263D01*
X133696348Y-87261998D01*
X133698653Y-87316882D01*
X133692398Y-87372162D01*
X133684944Y-87407602D01*
X133653667Y-87499999D01*
X133606975Y-87582435D01*
X133547023Y-87653551D01*
X133475965Y-87711987D01*
X133395955Y-87756384D01*
X133309147Y-87785382D01*
X133217694Y-87797622D01*
X133123751Y-87791745D01*
X133087816Y-87784470D01*
X133003627Y-87755174D01*
X132924025Y-87710620D01*
X132852925Y-87653862D01*
X132794246Y-87587951D01*
X132756818Y-87526510D01*
X132734229Y-87470138D01*
X132715865Y-87405690D01*
X132703881Y-87341996D01*
X132700321Y-87295000D01*
X132709599Y-87210597D01*
X132735947Y-87125940D01*
X132776972Y-87044864D01*
X132830283Y-86971209D01*
X132893486Y-86908809D01*
X132964189Y-86861504D01*
X132973489Y-86856818D01*
X133029861Y-86834229D01*
X133094309Y-86815865D01*
X133158003Y-86803881D01*
X133205000Y-86800321D01*
X133287395Y-86809282D01*
G37*
G36*
X130587395Y-95009282D02*
G01*
X130671643Y-95034786D01*
X130752682Y-95074609D01*
X130825452Y-95126526D01*
X130855000Y-95154107D01*
X130916426Y-95229662D01*
X130960114Y-95313377D01*
X130985508Y-95398263D01*
X130996348Y-95461998D01*
X130998653Y-95516882D01*
X130992398Y-95572162D01*
X130984944Y-95607602D01*
X130953667Y-95699999D01*
X130906975Y-95782435D01*
X130847023Y-95853551D01*
X130775965Y-95911987D01*
X130695955Y-95956384D01*
X130609147Y-95985382D01*
X130517694Y-95997622D01*
X130423751Y-95991745D01*
X130387816Y-95984470D01*
X130303627Y-95955174D01*
X130224025Y-95910620D01*
X130152925Y-95853862D01*
X130094246Y-95787951D01*
X130056818Y-95726510D01*
X130034229Y-95670138D01*
X130015865Y-95605690D01*
X130003881Y-95541996D01*
X130000321Y-95495000D01*
X130009599Y-95410597D01*
X130035947Y-95325940D01*
X130076972Y-95244864D01*
X130130283Y-95171209D01*
X130193486Y-95108809D01*
X130264189Y-95061504D01*
X130273489Y-95056818D01*
X130329861Y-95034229D01*
X130394309Y-95015865D01*
X130458003Y-95003881D01*
X130505000Y-95000321D01*
X130587395Y-95009282D01*
G37*
G36*
X141587395Y-95109282D02*
G01*
X141671643Y-95134786D01*
X141752682Y-95174609D01*
X141825452Y-95226526D01*
X141855000Y-95254107D01*
X141916426Y-95329662D01*
X141960114Y-95413377D01*
X141985508Y-95498263D01*
X141996348Y-95561998D01*
X141998653Y-95616882D01*
X141992398Y-95672162D01*
X141984944Y-95707602D01*
X141953667Y-95799999D01*
X141906975Y-95882435D01*
X141847023Y-95953551D01*
X141775965Y-96011987D01*
X141695955Y-96056384D01*
X141609147Y-96085382D01*
X141517694Y-96097622D01*
X141423751Y-96091745D01*
X141387816Y-96084470D01*
X141303627Y-96055174D01*
X141224025Y-96010620D01*
X141152925Y-95953862D01*
X141094246Y-95887951D01*
X141056818Y-95826510D01*
X141034229Y-95770138D01*
X141015865Y-95705690D01*
X141003881Y-95641996D01*
X141000321Y-95595000D01*
X141009599Y-95510597D01*
X141035947Y-95425940D01*
X141076972Y-95344864D01*
X141130283Y-95271209D01*
X141193486Y-95208809D01*
X141264189Y-95161504D01*
X141273489Y-95156818D01*
X141329861Y-95134229D01*
X141394309Y-95115865D01*
X141458003Y-95103881D01*
X141505000Y-95100321D01*
X141587395Y-95109282D01*
G37*
%TO.C,D4*%
D11*
X149371706Y-84084915D02*
X151518904Y-84866433D01*
X152021678Y-83485084D02*
X149874479Y-82703570D01*
X151518904Y-84866433D02*
X152021678Y-83485084D01*
%TO.C,R3*%
X139781141Y-110130814D02*
X140069893Y-110235911D01*
X139521207Y-110844981D02*
X139809959Y-110950078D01*
%TO.C,R9*%
X139523057Y-83152266D02*
X139256943Y-83305910D01*
X139143057Y-82494090D02*
X138876943Y-82647734D01*
%TO.C,TP3*%
X142500000Y-71500000D02*
X145900000Y-71500000D01*
X142500000Y-74900000D02*
X142500000Y-71500000D01*
X145900000Y-71500000D02*
X145900000Y-74900000D01*
X145900000Y-74900000D02*
X142500000Y-74900000D01*
%TO.C,D7*%
X130820971Y-92318547D02*
X132094029Y-93053549D01*
X132094029Y-93053549D02*
X133236528Y-91074680D01*
X131963472Y-90339679D02*
X130820971Y-92318547D01*
%TO.C,R8*%
X130788321Y-90620999D02*
X130941961Y-90354884D01*
X131446499Y-91000998D02*
X131600139Y-90734883D01*
%TO.C,D5*%
X157554799Y-89646454D02*
X156281738Y-90381451D01*
X156281738Y-90381451D02*
X157424243Y-92360316D01*
X158697301Y-91625323D02*
X157554799Y-89646454D01*
%TO.C,R10*%
X157549088Y-102401384D02*
X157702730Y-102135266D01*
X158207268Y-102781380D02*
X158360910Y-102515262D01*
%TO.C,D9*%
X155458796Y-102731869D02*
X156731854Y-103466875D01*
X156731854Y-103466875D02*
X157874349Y-101488003D01*
X156601297Y-100752998D02*
X155458796Y-102731869D01*
%TO.C,R4*%
X131494832Y-102699000D02*
X131648476Y-102965115D01*
X130836656Y-103079001D02*
X130990300Y-103345116D01*
%TO.C,R6*%
X158294090Y-90756943D02*
X158447733Y-91023057D01*
X158952267Y-90376943D02*
X159105910Y-90643057D01*
%TO.C,D8*%
X141469370Y-83835670D02*
X140734372Y-82562609D01*
X140734372Y-82562609D02*
X138755506Y-83705111D01*
X139490500Y-84978170D02*
X141469370Y-83835670D01*
%TO.C,D2*%
X139055943Y-108201426D02*
X138553167Y-109582775D01*
X138553167Y-109582775D02*
X140700367Y-110364286D01*
X141203143Y-108982942D02*
X139055943Y-108201426D01*
%TO.C,R5*%
X150893654Y-82984059D02*
X150604902Y-82878964D01*
X151153588Y-82269894D02*
X150864836Y-82164799D01*
%TO.C,TP4*%
X166000000Y-95000000D02*
X169400000Y-95000000D01*
X166000000Y-98400000D02*
X166000000Y-95000000D01*
X169400000Y-95000000D02*
X169400000Y-98400000D01*
X169400000Y-98400000D02*
X166000000Y-98400000D01*
%TO.C,TP1*%
X119000000Y-95000000D02*
X122400000Y-95000000D01*
X119000000Y-98400000D02*
X119000000Y-95000000D01*
X122400000Y-95000000D02*
X122400000Y-98400000D01*
X122400000Y-98400000D02*
X119000000Y-98400000D01*
%TO.C,R7*%
X149981943Y-109895623D02*
X150248057Y-109741981D01*
X150361943Y-110553801D02*
X150628057Y-110400159D01*
%TO.C,TP2*%
X142500000Y-118500000D02*
X145900000Y-118500000D01*
X142500000Y-121900000D02*
X142500000Y-118500000D01*
X145900000Y-118500000D02*
X145900000Y-121900000D01*
X145900000Y-121900000D02*
X142500000Y-121900000D01*
%TO.C,D3*%
X132394029Y-100746454D02*
X131120968Y-101481451D01*
X131120968Y-101481451D02*
X132263473Y-103460316D01*
X133536531Y-102725323D02*
X132394029Y-100746454D01*
%TO.C,D6*%
X148046453Y-109205971D02*
X148781452Y-110479029D01*
X148781452Y-110479029D02*
X150760320Y-109336529D01*
X150025321Y-108063471D02*
X148046453Y-109205971D01*
%TD*%
M02*
