%TF.GenerationSoftware,KiCad,Pcbnew,10.0.0-10.0.0~ubuntu24.04.1*%
%TF.CreationDate,2026-07-03T06:11:15-07:00*%
%TF.ProjectId,INNER_PCB,494e4e45-525f-4504-9342-2e6b69636164,rev?*%
%TF.SameCoordinates,Original*%
%TF.FileFunction,Copper,L2,Bot*%
%TF.FilePolarity,Positive*%
%FSLAX46Y46*%
G04 Gerber Fmt 4.6, Leading zero omitted, Abs format (unit mm)*
G04 Created by KiCad (PCBNEW 10.0.0-10.0.0~ubuntu24.04.1) date 2026-07-03 06:11:15*
%MOMM*%
%LPD*%
G01*
G04 APERTURE LIST*
G04 Aperture macros list*
%AMRoundRect*
0 Rectangle with rounded corners*
0 $1 Rounding radius*
0 $2 $3 $4 $5 $6 $7 $8 $9 X,Y pos of 4 corners*
0 Add a 4 corners polygon primitive as box body*
4,1,4,$2,$3,$4,$5,$6,$7,$8,$9,$2,$3,0*
0 Add four circle primitives for the rounded corners*
1,1,$1+$1,$2,$3*
1,1,$1+$1,$4,$5*
1,1,$1+$1,$6,$7*
1,1,$1+$1,$8,$9*
0 Add four rect primitives between the rounded corners*
20,1,$1+$1,$2,$3,$4,$5,0*
20,1,$1+$1,$4,$5,$6,$7,0*
20,1,$1+$1,$6,$7,$8,$9,0*
20,1,$1+$1,$8,$9,$2,$3,0*%
%AMRotRect*
0 Rectangle, with rotation*
0 The origin of the aperture is its center*
0 $1 length*
0 $2 width*
0 $3 Rotation angle, in degrees counterclockwise*
0 Add horizontal line*
21,1,$1,$2,0,0,$3*%
G04 Aperture macros list end*
%TA.AperFunction,SMDPad,CuDef*%
%ADD10RoundRect,0.218750X-0.218750X-0.256250X0.218750X-0.256250X0.218750X0.256250X-0.218750X0.256250X0*%
%TD*%
%TA.AperFunction,SMDPad,CuDef*%
%ADD11R,3.000000X3.000000*%
%TD*%
%TA.AperFunction,SMDPad,CuDef*%
%ADD12RoundRect,0.135000X0.135000X0.185000X-0.135000X0.185000X-0.135000X-0.185000X0.135000X-0.185000X0*%
%TD*%
%TA.AperFunction,SMDPad,CuDef*%
%ADD13RoundRect,0.050000X-0.375000X-0.050000X0.375000X-0.050000X0.375000X0.050000X-0.375000X0.050000X0*%
%TD*%
%TA.AperFunction,SMDPad,CuDef*%
%ADD14RoundRect,0.050000X-0.050000X-0.375000X0.050000X-0.375000X0.050000X0.375000X-0.050000X0.375000X0*%
%TD*%
%TA.AperFunction,HeatsinkPad*%
%ADD15R,1.650000X1.650000*%
%TD*%
%TA.AperFunction,SMDPad,CuDef*%
%ADD16RoundRect,0.135000X-0.185000X0.135000X-0.185000X-0.135000X0.185000X-0.135000X0.185000X0.135000X0*%
%TD*%
%TA.AperFunction,SMDPad,CuDef*%
%ADD17RoundRect,0.135000X-0.135000X-0.185000X0.135000X-0.185000X0.135000X0.185000X-0.135000X0.185000X0*%
%TD*%
%TA.AperFunction,ComponentPad*%
%ADD18R,1.700000X1.700000*%
%TD*%
%TA.AperFunction,ComponentPad*%
%ADD19C,1.700000*%
%TD*%
%TA.AperFunction,SMDPad,CuDef*%
%ADD20RoundRect,0.140000X0.140000X0.170000X-0.140000X0.170000X-0.140000X-0.170000X0.140000X-0.170000X0*%
%TD*%
%TA.AperFunction,ComponentPad*%
%ADD21RotRect,1.700000X1.700000X320.000000*%
%TD*%
%TA.AperFunction,ViaPad*%
%ADD22C,0.600000*%
%TD*%
%TA.AperFunction,Conductor*%
%ADD23C,0.500000*%
%TD*%
%TA.AperFunction,Conductor*%
%ADD24C,0.200000*%
%TD*%
G04 APERTURE END LIST*
D10*
%TO.P,D13,1,K_1*%
%TO.N,GND*%
X129925000Y-92800000D03*
%TO.P,D13,2,A_2*%
%TO.N,Net-(D13-A)*%
X131500000Y-92800000D03*
%TD*%
D11*
%TO.P,TP6,1,1_1*%
%TO.N,/LED_DOUT*%
X144200000Y-120200000D03*
%TD*%
D12*
%TO.P,R16,1*%
%TO.N,+3.7V*%
X135410000Y-81800000D03*
%TO.P,R16,2*%
%TO.N,Net-(D15-A)*%
X134390000Y-81800000D03*
%TD*%
D13*
%TO.P,U2,1,PD7_1*%
%TO.N,/PD7*%
X142940000Y-91690000D03*
%TO.P,U2,2,PA1_2*%
%TO.N,/PA1*%
X142940000Y-91290000D03*
%TO.P,U2,3,PA2_3*%
%TO.N,/PA2*%
X142940000Y-90890000D03*
%TO.P,U2,4,VSS_4*%
%TO.N,GND*%
X142940000Y-90490000D03*
%TO.P,U2,5,PD0_5*%
%TO.N,/PD0*%
X142940000Y-90090000D03*
D14*
%TO.P,U2,6,VDD_6*%
%TO.N,+3.7V*%
X143590000Y-89440000D03*
%TO.P,U2,7,PC0_7*%
%TO.N,/LED_DOUT*%
X143990000Y-89440000D03*
%TO.P,U2,8,PC1_8*%
%TO.N,/PC1*%
X144390000Y-89440000D03*
%TO.P,U2,9,PC2_9*%
%TO.N,/PC2*%
X144790000Y-89440000D03*
%TO.P,U2,10,PC3_10*%
%TO.N,/PC0*%
X145190000Y-89440000D03*
D13*
%TO.P,U2,11,PC4_11*%
%TO.N,/PC4*%
X145840000Y-90090000D03*
%TO.P,U2,12,PC5_12*%
%TO.N,/PC5*%
X145840000Y-90490000D03*
%TO.P,U2,13,PC6_13*%
%TO.N,/PC6*%
X145840000Y-90890000D03*
%TO.P,U2,14,PC7_14*%
%TO.N,/PC7*%
X145840000Y-91290000D03*
%TO.P,U2,15,SWIO_15*%
%TO.N,/SWIO*%
X145840000Y-91690000D03*
D14*
%TO.P,U2,16,PD2_16*%
%TO.N,/PD2*%
X145190000Y-92340000D03*
%TO.P,U2,17,PD3_17*%
%TO.N,/PD3*%
X144790000Y-92340000D03*
%TO.P,U2,18,PD4_18*%
%TO.N,/PD4*%
X144390000Y-92340000D03*
%TO.P,U2,19,PD5_19*%
%TO.N,/PD5*%
X143990000Y-92340000D03*
%TO.P,U2,20,PD6_20*%
%TO.N,/PD6*%
X143590000Y-92340000D03*
D15*
%TO.P,U2,21,VSS_21*%
%TO.N,GND*%
X144390000Y-90890000D03*
%TD*%
D16*
%TO.P,R1,1*%
%TO.N,+3.7V*%
X140800000Y-88600000D03*
%TO.P,R1,2*%
%TO.N,/SWIO*%
X140800000Y-89620000D03*
%TD*%
D17*
%TO.P,R11,1*%
%TO.N,+3.7V*%
X138390000Y-111600000D03*
%TO.P,R11,2*%
%TO.N,Net-(D10-A)*%
X139410000Y-111600000D03*
%TD*%
%TO.P,R14,1*%
%TO.N,+3.7V*%
X130490000Y-91500000D03*
%TO.P,R14,2*%
%TO.N,Net-(D13-A)*%
X131510000Y-91500000D03*
%TD*%
D12*
%TO.P,R17,1*%
%TO.N,+3.7V*%
X151610000Y-81300000D03*
%TO.P,R17,2*%
%TO.N,Net-(D16-A)*%
X150590000Y-81300000D03*
%TD*%
D18*
%TO.P,J1,1,Pin_1_1*%
%TO.N,GND*%
X146740000Y-84200000D03*
D19*
%TO.P,J1,2,Pin_2_2*%
%TO.N,+3.7V*%
X144200000Y-84200000D03*
%TO.P,J1,3,Pin_3_3*%
%TO.N,/SWIO*%
X141660000Y-84200000D03*
%TD*%
D10*
%TO.P,D15,1,K_1*%
%TO.N,GND*%
X133900000Y-83000000D03*
%TO.P,D15,2,A_2*%
%TO.N,Net-(D15-A)*%
X135475000Y-83000000D03*
%TD*%
D17*
%TO.P,R13,1*%
%TO.N,+3.7V*%
X160790000Y-99600000D03*
%TO.P,R13,2*%
%TO.N,Net-(D12-A)*%
X161810000Y-99600000D03*
%TD*%
D11*
%TO.P,TP8,1,1_1*%
%TO.N,+3.7V*%
X167700000Y-96700000D03*
%TD*%
D10*
%TO.P,D11,1,K_1*%
%TO.N,GND*%
X143400000Y-98100000D03*
%TO.P,D11,2,A_2*%
%TO.N,Net-(D11-A)*%
X144975000Y-98100000D03*
%TD*%
D17*
%TO.P,R15,1*%
%TO.N,+3.7V*%
X130690000Y-97100000D03*
%TO.P,R15,2*%
%TO.N,Net-(D14-A)*%
X131710000Y-97100000D03*
%TD*%
D10*
%TO.P,D12,1,K_1*%
%TO.N,GND*%
X160412500Y-100900000D03*
%TO.P,D12,2,A_2*%
%TO.N,Net-(D12-A)*%
X161987500Y-100900000D03*
%TD*%
D11*
%TO.P,TP7,1,1_1*%
%TO.N,GND*%
X120700000Y-96700000D03*
%TD*%
%TO.P,TP5,1,1_1*%
%TO.N,GND*%
X144200000Y-73200000D03*
%TD*%
D10*
%TO.P,D14,1,K_1*%
%TO.N,GND*%
X130200000Y-98500000D03*
%TO.P,D14,2,A_2*%
%TO.N,Net-(D14-A)*%
X131775000Y-98500000D03*
%TD*%
%TO.P,D16,1,K_1*%
%TO.N,GND*%
X150100000Y-82600000D03*
%TO.P,D16,2,A_2*%
%TO.N,Net-(D16-A)*%
X151675000Y-82600000D03*
%TD*%
D20*
%TO.P,C3,1*%
%TO.N,+3.7V*%
X142770000Y-88640000D03*
%TO.P,C3,2*%
%TO.N,GND*%
X141810000Y-88640000D03*
%TD*%
D10*
%TO.P,D10,1,K_1*%
%TO.N,GND*%
X138300000Y-110400000D03*
%TO.P,D10,2,A_2*%
%TO.N,Net-(D10-A)*%
X139875000Y-110400000D03*
%TD*%
D21*
%TO.P,J2,1,Pin_1_1*%
%TO.N,GND*%
X127480446Y-85776707D03*
D19*
%TO.P,J2,2,Pin_2_2*%
%TO.N,+3.7V*%
X129113127Y-83830954D03*
%TD*%
D17*
%TO.P,R12,1*%
%TO.N,+3.7V*%
X144000000Y-96800000D03*
%TO.P,R12,2*%
%TO.N,Net-(D11-A)*%
X145020000Y-96800000D03*
%TD*%
D22*
%TO.N,+3.7V*%
X138100000Y-84000000D03*
X153800000Y-82500000D03*
X162541506Y-98741506D03*
X167700000Y-96700000D03*
X127245000Y-92755000D03*
X129900000Y-96000000D03*
X137500000Y-101100000D03*
X137050000Y-113250000D03*
%TO.N,GND*%
X152900000Y-109900000D03*
X132000000Y-108200000D03*
X137600000Y-107100000D03*
X142200000Y-102900000D03*
X142000000Y-90500000D03*
X155800000Y-87400000D03*
X146300000Y-80200000D03*
X136000000Y-84100000D03*
X148900000Y-86000000D03*
X163300000Y-95600000D03*
X141800000Y-89300000D03*
X144390000Y-90890000D03*
X141200000Y-81700000D03*
X150000000Y-100100000D03*
X120700000Y-96700000D03*
X148500000Y-96800000D03*
X152700000Y-84000000D03*
X144190000Y-117200000D03*
X145420000Y-78380000D03*
%TO.N,/LED_DOUT*%
X144000000Y-87900000D03*
%TD*%
%TO.N,+3.7V*%
D23*
X143260001Y-89440000D02*
X143440000Y-89440000D01*
D24*
X135900000Y-81800000D02*
X138100000Y-84000000D01*
X141800000Y-96800000D02*
X137500000Y-101100000D01*
X138390000Y-111600000D02*
X138390000Y-111910000D01*
X138390000Y-111910000D02*
X137050000Y-113250000D01*
D23*
X141250001Y-87880000D02*
X140800000Y-88330001D01*
D24*
X160790000Y-99600000D02*
X161648494Y-98741506D01*
X161648494Y-98741506D02*
X162541506Y-98741506D01*
D23*
X140800000Y-88330001D02*
X140800000Y-88600000D01*
X142770000Y-88640000D02*
X142770000Y-88949999D01*
X141900000Y-86500000D02*
X141900000Y-87880000D01*
X141900000Y-87880000D02*
X141250001Y-87880000D01*
D24*
X128500000Y-91500000D02*
X127245000Y-92755000D01*
D23*
X142198266Y-87880000D02*
X141900000Y-87880000D01*
D24*
X130690000Y-96790000D02*
X129900000Y-96000000D01*
X152600000Y-81300000D02*
X153800000Y-82500000D01*
X144000000Y-96800000D02*
X141800000Y-96800000D01*
D23*
X142770000Y-88640000D02*
X142770000Y-88451734D01*
D24*
X130690000Y-97100000D02*
X130690000Y-96790000D01*
X151610000Y-81300000D02*
X152600000Y-81300000D01*
X135410000Y-81800000D02*
X135900000Y-81800000D01*
D23*
X142770000Y-88949999D02*
X143260001Y-89440000D01*
D24*
X130490000Y-91500000D02*
X128500000Y-91500000D01*
D23*
X144200000Y-84200000D02*
X141900000Y-86500000D01*
X142770000Y-88451734D02*
X142198266Y-87880000D01*
%TO.N,GND*%
D24*
X142010000Y-90490000D02*
X142000000Y-90500000D01*
X141810000Y-88640000D02*
X141810000Y-89290000D01*
X144200000Y-77160000D02*
X145420000Y-78380000D01*
X141810000Y-89290000D02*
X141800000Y-89300000D01*
X144200000Y-73200000D02*
X144200000Y-77160000D01*
X142940000Y-90490000D02*
X142010000Y-90490000D01*
%TO.N,/LED_DOUT*%
X155500000Y-89900000D02*
X153000000Y-87400000D01*
X153400000Y-97300000D02*
X155500000Y-95200000D01*
X148500000Y-99000000D02*
X150200000Y-97300000D01*
X153000000Y-87400000D02*
X144500000Y-87400000D01*
X155500000Y-95200000D02*
X155500000Y-89900000D01*
X145100000Y-114300000D02*
X148500000Y-110900000D01*
X145100000Y-119300000D02*
X145100000Y-114300000D01*
X143990000Y-87910000D02*
X144000000Y-87900000D01*
X143990000Y-87910000D02*
X143990000Y-89440000D01*
X144500000Y-87400000D02*
X144000000Y-87900000D01*
X150200000Y-97300000D02*
X153400000Y-97300000D01*
X148500000Y-110900000D02*
X148500000Y-99000000D01*
X144200000Y-120200000D02*
X145100000Y-119300000D01*
X143590000Y-119590000D02*
X144200000Y-120200000D01*
%TO.N,Net-(D13-A)*%
X131510000Y-92790000D02*
X131500000Y-92800000D01*
X131510000Y-91500000D02*
X131510000Y-92790000D01*
%TO.N,Net-(D15-A)*%
X134390000Y-81800000D02*
X134390000Y-81915000D01*
X134390000Y-81915000D02*
X135475000Y-83000000D01*
%TO.N,/SWIO*%
X140180000Y-89000000D02*
X140180000Y-85680000D01*
X142500000Y-94100000D02*
X140800000Y-92400000D01*
X145600000Y-91930000D02*
X145600000Y-93000000D01*
X140180000Y-85680000D02*
X141660000Y-84200000D01*
X140800000Y-92400000D02*
X140800000Y-89620000D01*
X144500000Y-94100000D02*
X142500000Y-94100000D01*
X145840000Y-91690000D02*
X145600000Y-91930000D01*
X140800000Y-89620000D02*
X140180000Y-89000000D01*
X145600000Y-93000000D02*
X144500000Y-94100000D01*
%TO.N,Net-(D10-A)*%
X139875000Y-111135000D02*
X139410000Y-111600000D01*
X139875000Y-110400000D02*
X139875000Y-111135000D01*
%TO.N,Net-(D16-A)*%
X150590000Y-81515000D02*
X151675000Y-82600000D01*
X150590000Y-81300000D02*
X150590000Y-81515000D01*
%TO.N,Net-(D12-A)*%
X161810000Y-100722500D02*
X161987500Y-100900000D01*
X161810000Y-99600000D02*
X161810000Y-100722500D01*
%TO.N,Net-(D11-A)*%
X145020000Y-96800000D02*
X145020000Y-98055000D01*
X145020000Y-98055000D02*
X144975000Y-98100000D01*
%TO.N,Net-(D14-A)*%
X131710000Y-98435000D02*
X131775000Y-98500000D01*
X131710000Y-97100000D02*
X131710000Y-98435000D01*
%TD*%
%TA.AperFunction,Conductor*%
%TO.N,GND*%
G36*
X144393039Y-73219685D02*
G01*
X144438794Y-73272489D01*
X144450000Y-73324000D01*
X144450000Y-75200000D01*
X145075500Y-75200000D01*
X145142539Y-75219685D01*
X145188294Y-75272489D01*
X145199500Y-75324000D01*
X145199500Y-76737533D01*
X145195968Y-76784498D01*
X145199500Y-76803192D01*
X145199500Y-76822221D01*
X145211690Y-76867716D01*
X145220433Y-76913991D01*
X145228682Y-76931133D01*
X145231687Y-76942347D01*
X145231688Y-76942349D01*
X145231687Y-76942351D01*
X145233607Y-76949512D01*
X145233608Y-76949515D01*
X145257160Y-76990308D01*
X145277580Y-77032740D01*
X145289984Y-77047162D01*
X145295787Y-77057213D01*
X145295788Y-77057215D01*
X145299499Y-77063641D01*
X145299502Y-77063646D01*
X145329509Y-77093652D01*
X145332805Y-77096948D01*
X145363514Y-77132652D01*
X145379230Y-77143373D01*
X145392686Y-77156829D01*
X145412936Y-77168520D01*
X145429449Y-77178055D01*
X145429448Y-77178055D01*
X145433486Y-77180386D01*
X145472379Y-77206918D01*
X145490334Y-77213206D01*
X145506814Y-77222721D01*
X145552305Y-77234910D01*
X145596756Y-77250478D01*
X145615728Y-77251903D01*
X145622746Y-77253784D01*
X145626944Y-77254909D01*
X145626945Y-77254910D01*
X145626950Y-77254910D01*
X145634108Y-77256829D01*
X145670877Y-77256829D01*
X145682918Y-77257414D01*
X146521256Y-77339217D01*
X146526707Y-77339871D01*
X147378249Y-77461317D01*
X147383598Y-77462201D01*
X148228906Y-77621319D01*
X148234291Y-77622457D01*
X148373907Y-77655214D01*
X149071698Y-77818932D01*
X149076967Y-77820292D01*
X149904858Y-78053746D01*
X149910048Y-78055334D01*
X150726795Y-78325312D01*
X150731925Y-78327136D01*
X151535797Y-78633062D01*
X151540879Y-78635126D01*
X152330400Y-78976435D01*
X152335403Y-78978731D01*
X153108982Y-79354736D01*
X153113878Y-79357252D01*
X153869997Y-79767212D01*
X153874751Y-79769927D01*
X154368133Y-80066496D01*
X154611958Y-80213058D01*
X154616612Y-80215998D01*
X155333420Y-80691405D01*
X155337938Y-80694549D01*
X156032909Y-81201278D01*
X156037272Y-81204608D01*
X156709146Y-81741742D01*
X156713311Y-81745228D01*
X157137703Y-82116552D01*
X157360630Y-82311604D01*
X157364691Y-82315319D01*
X157986228Y-82909857D01*
X157986239Y-82909867D01*
X157990122Y-82913750D01*
X158333131Y-83272336D01*
X158584680Y-83535308D01*
X158588395Y-83539369D01*
X159108824Y-84134174D01*
X159154759Y-84186673D01*
X159158261Y-84190858D01*
X159695381Y-84862715D01*
X159698721Y-84867090D01*
X160205450Y-85562061D01*
X160208594Y-85566579D01*
X160684001Y-86283387D01*
X160686941Y-86288041D01*
X161130064Y-87025235D01*
X161132794Y-87030015D01*
X161542747Y-87786121D01*
X161545263Y-87791017D01*
X161921268Y-88564596D01*
X161923564Y-88569599D01*
X162264869Y-89359111D01*
X162266940Y-89364211D01*
X162572855Y-90168053D01*
X162574695Y-90173230D01*
X162842989Y-90984881D01*
X162844651Y-90989907D01*
X162846262Y-90995171D01*
X163079699Y-91823002D01*
X163081075Y-91828332D01*
X163277542Y-92665708D01*
X163278680Y-92671093D01*
X163377395Y-93195511D01*
X163429503Y-93472337D01*
X163437789Y-93516352D01*
X163438687Y-93521784D01*
X163560127Y-94373289D01*
X163560783Y-94378754D01*
X163642585Y-95217080D01*
X163642768Y-95219135D01*
X163643171Y-95224122D01*
X163643171Y-95265892D01*
X163648003Y-95283927D01*
X163648911Y-95295159D01*
X163648876Y-95295324D01*
X163648964Y-95295838D01*
X163649520Y-95303235D01*
X163649524Y-95303251D01*
X163663549Y-95343300D01*
X163666292Y-95352187D01*
X163677277Y-95393182D01*
X163677282Y-95393192D01*
X163680988Y-95399612D01*
X163680989Y-95399612D01*
X163686793Y-95409665D01*
X163693082Y-95427621D01*
X163719619Y-95466522D01*
X163721952Y-95470562D01*
X163721952Y-95470563D01*
X163743167Y-95507308D01*
X163743169Y-95507311D01*
X163743170Y-95507313D01*
X163743172Y-95507315D01*
X163748412Y-95512555D01*
X163763166Y-95530356D01*
X163767102Y-95536125D01*
X163767350Y-95536489D01*
X163799526Y-95564163D01*
X163799527Y-95564163D01*
X163803051Y-95567194D01*
X163836357Y-95600500D01*
X163852836Y-95610014D01*
X163867260Y-95622420D01*
X163905511Y-95640827D01*
X163913722Y-95645166D01*
X163929870Y-95654489D01*
X163950481Y-95666390D01*
X163950482Y-95666390D01*
X163950485Y-95666392D01*
X163968866Y-95671317D01*
X163986009Y-95679567D01*
X164032283Y-95688309D01*
X164077779Y-95700500D01*
X164077782Y-95700500D01*
X164096807Y-95700500D01*
X164115502Y-95704032D01*
X164162467Y-95700500D01*
X165825500Y-95700500D01*
X165892539Y-95720185D01*
X165938294Y-95772989D01*
X165949500Y-95824500D01*
X165949500Y-97575500D01*
X165929815Y-97642539D01*
X165877011Y-97688294D01*
X165825500Y-97699500D01*
X164162467Y-97699500D01*
X164115502Y-97695968D01*
X164096807Y-97699500D01*
X164077773Y-97699500D01*
X164036778Y-97710484D01*
X164036779Y-97710485D01*
X164032278Y-97711690D01*
X163986009Y-97720433D01*
X163968867Y-97728681D01*
X163957650Y-97731687D01*
X163957648Y-97731686D01*
X163950488Y-97733606D01*
X163950481Y-97733609D01*
X163913715Y-97754834D01*
X163913716Y-97754835D01*
X163909679Y-97757165D01*
X163867260Y-97777580D01*
X163852838Y-97789982D01*
X163842782Y-97795789D01*
X163842780Y-97795789D01*
X163836367Y-97799492D01*
X163836356Y-97799500D01*
X163806339Y-97829517D01*
X163806338Y-97829516D01*
X163803037Y-97832816D01*
X163767348Y-97863514D01*
X163756628Y-97879226D01*
X163748423Y-97887432D01*
X163743173Y-97892682D01*
X163743171Y-97892685D01*
X163721942Y-97929450D01*
X163721943Y-97929451D01*
X163719619Y-97933477D01*
X163693082Y-97972379D01*
X163686793Y-97990332D01*
X163680987Y-98000390D01*
X163680985Y-98000391D01*
X163677280Y-98006809D01*
X163677279Y-98006813D01*
X163666295Y-98047803D01*
X163663552Y-98056690D01*
X163649524Y-98096745D01*
X163649520Y-98096764D01*
X163648964Y-98104162D01*
X163648911Y-98104841D01*
X163648003Y-98116071D01*
X163643171Y-98134108D01*
X163643171Y-98175875D01*
X163642768Y-98180863D01*
X163642672Y-98181110D01*
X163642585Y-98182918D01*
X163560783Y-99021245D01*
X163560127Y-99026710D01*
X163438687Y-99878215D01*
X163437789Y-99883647D01*
X163278680Y-100728906D01*
X163277542Y-100734291D01*
X163081075Y-101571667D01*
X163079699Y-101576997D01*
X162846262Y-102404828D01*
X162844651Y-102410092D01*
X162574699Y-103226760D01*
X162572855Y-103231946D01*
X162266940Y-104035788D01*
X162264869Y-104040888D01*
X161923564Y-104830400D01*
X161921268Y-104835403D01*
X161545263Y-105608982D01*
X161542747Y-105613878D01*
X161132794Y-106369984D01*
X161130064Y-106374764D01*
X160686941Y-107111958D01*
X160684001Y-107116612D01*
X160208594Y-107833420D01*
X160205450Y-107837938D01*
X159698721Y-108532909D01*
X159695381Y-108537284D01*
X159426836Y-108873194D01*
X159158279Y-109209119D01*
X159154771Y-109213312D01*
X158588369Y-109860660D01*
X158584684Y-109864688D01*
X157990132Y-110486239D01*
X157986239Y-110490132D01*
X157364691Y-111084680D01*
X157360630Y-111088395D01*
X156713326Y-111654759D01*
X156709119Y-111658279D01*
X156504856Y-111821579D01*
X156037284Y-112195381D01*
X156032909Y-112198721D01*
X155337938Y-112705450D01*
X155333420Y-112708594D01*
X154616612Y-113184001D01*
X154611958Y-113186941D01*
X153874764Y-113630064D01*
X153869984Y-113632794D01*
X153113878Y-114042747D01*
X153108982Y-114045263D01*
X152335403Y-114421268D01*
X152330400Y-114423564D01*
X151540888Y-114764869D01*
X151535788Y-114766940D01*
X150731946Y-115072855D01*
X150726760Y-115074699D01*
X149910092Y-115344651D01*
X149904828Y-115346262D01*
X149076997Y-115579699D01*
X149071667Y-115581075D01*
X148234291Y-115777542D01*
X148228906Y-115778680D01*
X147479368Y-115919770D01*
X147383641Y-115937789D01*
X147378215Y-115938687D01*
X146526710Y-116060127D01*
X146521245Y-116060783D01*
X145682919Y-116142585D01*
X145680864Y-116142768D01*
X145675877Y-116143171D01*
X145634108Y-116143171D01*
X145616071Y-116148003D01*
X145604841Y-116148911D01*
X145604675Y-116148876D01*
X145604162Y-116148964D01*
X145588660Y-116150131D01*
X145588497Y-116147970D01*
X145530195Y-116143309D01*
X145474614Y-116100970D01*
X145450746Y-116035304D01*
X145450500Y-116027494D01*
X145450500Y-114496544D01*
X145470185Y-114429505D01*
X145486819Y-114408863D01*
X147086194Y-112809488D01*
X148780470Y-111115212D01*
X148826614Y-111035288D01*
X148828165Y-111029500D01*
X148850500Y-110946144D01*
X148850500Y-101204152D01*
X159475001Y-101204152D01*
X159485056Y-101302583D01*
X159537906Y-101462072D01*
X159537908Y-101462077D01*
X159626114Y-101605080D01*
X159744919Y-101723885D01*
X159887922Y-101812091D01*
X159887927Y-101812093D01*
X160047416Y-101864942D01*
X160145856Y-101874999D01*
X160162500Y-101874998D01*
X160162500Y-101150000D01*
X159475001Y-101150000D01*
X159475001Y-101204152D01*
X148850500Y-101204152D01*
X148850500Y-100595849D01*
X159475000Y-100595849D01*
X159475000Y-100650000D01*
X160288500Y-100650000D01*
X160355539Y-100669685D01*
X160401294Y-100722489D01*
X160412500Y-100774000D01*
X160412500Y-100900000D01*
X160538500Y-100900000D01*
X160605539Y-100919685D01*
X160651294Y-100972489D01*
X160662500Y-101024000D01*
X160662500Y-101874999D01*
X160679136Y-101874999D01*
X160679152Y-101874998D01*
X160777583Y-101864943D01*
X160937072Y-101812093D01*
X160937077Y-101812091D01*
X161080080Y-101723885D01*
X161198885Y-101605080D01*
X161249714Y-101522674D01*
X161301662Y-101475950D01*
X161370624Y-101464727D01*
X161429564Y-101488504D01*
X161433527Y-101491470D01*
X161433528Y-101491472D01*
X161541549Y-101572335D01*
X161541552Y-101572337D01*
X161650532Y-101612984D01*
X161667978Y-101619491D01*
X161697318Y-101622645D01*
X161723855Y-101625499D01*
X161723870Y-101625500D01*
X162251130Y-101625500D01*
X162251144Y-101625499D01*
X162273023Y-101623146D01*
X162307022Y-101619491D01*
X162433450Y-101572336D01*
X162541472Y-101491472D01*
X162622336Y-101383450D01*
X162669491Y-101257022D01*
X162673146Y-101223023D01*
X162675499Y-101201144D01*
X162675500Y-101201129D01*
X162675500Y-100598870D01*
X162675499Y-100598855D01*
X162670192Y-100549500D01*
X162669491Y-100542978D01*
X162622336Y-100416550D01*
X162541472Y-100308528D01*
X162433450Y-100227664D01*
X162433448Y-100227663D01*
X162328347Y-100188462D01*
X162272414Y-100146590D01*
X162247997Y-100081126D01*
X162260281Y-100017819D01*
X162319581Y-99896520D01*
X162319580Y-99896520D01*
X162319582Y-99896518D01*
X162330500Y-99821582D01*
X162330500Y-99415162D01*
X162350185Y-99348123D01*
X162402989Y-99302368D01*
X162460904Y-99293692D01*
X162460904Y-99292006D01*
X162613978Y-99292006D01*
X162613981Y-99292006D01*
X162753991Y-99254490D01*
X162879521Y-99182015D01*
X162982015Y-99079521D01*
X163054490Y-98953991D01*
X163092006Y-98813981D01*
X163092006Y-98669031D01*
X163054490Y-98529021D01*
X163041957Y-98507314D01*
X162982017Y-98403494D01*
X162982012Y-98403488D01*
X162879523Y-98300999D01*
X162879517Y-98300994D01*
X162753994Y-98228523D01*
X162753995Y-98228523D01*
X162737115Y-98224000D01*
X162613981Y-98191006D01*
X162469031Y-98191006D01*
X162345897Y-98224000D01*
X162329017Y-98228523D01*
X162203494Y-98300994D01*
X162203488Y-98300999D01*
X162149801Y-98354687D01*
X162088478Y-98388172D01*
X162062120Y-98391006D01*
X161602350Y-98391006D01*
X161513206Y-98414892D01*
X161513203Y-98414893D01*
X161433285Y-98461033D01*
X161433280Y-98461037D01*
X160901137Y-98993181D01*
X160839814Y-99026666D01*
X160813456Y-99029500D01*
X160618418Y-99029500D01*
X160543482Y-99040418D01*
X160543480Y-99040418D01*
X160543478Y-99040419D01*
X160427900Y-99096921D01*
X160427897Y-99096923D01*
X160336923Y-99187897D01*
X160336921Y-99187900D01*
X160280419Y-99303478D01*
X160280418Y-99303480D01*
X160280418Y-99303482D01*
X160269500Y-99378418D01*
X160269500Y-99378423D01*
X160269500Y-99801000D01*
X160249815Y-99868039D01*
X160197011Y-99913794D01*
X160148977Y-99924252D01*
X160149007Y-99924841D01*
X160145846Y-99925001D01*
X160047416Y-99935056D01*
X159887927Y-99987906D01*
X159887922Y-99987908D01*
X159744919Y-100076114D01*
X159626114Y-100194919D01*
X159537908Y-100337922D01*
X159537906Y-100337927D01*
X159485057Y-100497416D01*
X159475000Y-100595849D01*
X148850500Y-100595849D01*
X148850500Y-99196544D01*
X148870185Y-99129505D01*
X148886819Y-99108863D01*
X150308863Y-97686819D01*
X150370186Y-97653334D01*
X150396544Y-97650500D01*
X153446142Y-97650500D01*
X153446144Y-97650500D01*
X153535288Y-97626614D01*
X153552719Y-97616550D01*
X153615212Y-97580470D01*
X155780469Y-95415213D01*
X155826614Y-95335288D01*
X155830243Y-95321743D01*
X155835201Y-95303243D01*
X155840800Y-95282343D01*
X155850500Y-95246144D01*
X155850500Y-89853856D01*
X155826614Y-89764712D01*
X155801070Y-89720469D01*
X155801070Y-89720468D01*
X155780472Y-89684791D01*
X155780468Y-89684786D01*
X153215213Y-87119531D01*
X153215208Y-87119527D01*
X153135290Y-87073387D01*
X153135289Y-87073386D01*
X153135288Y-87073386D01*
X153046144Y-87049500D01*
X144546144Y-87049500D01*
X144453856Y-87049500D01*
X144364712Y-87073386D01*
X144364709Y-87073387D01*
X144284791Y-87119527D01*
X144284786Y-87119531D01*
X144091137Y-87313181D01*
X144029814Y-87346666D01*
X144003456Y-87349500D01*
X143927525Y-87349500D01*
X143815565Y-87379500D01*
X143787511Y-87387017D01*
X143661988Y-87459488D01*
X143661982Y-87459493D01*
X143559493Y-87561982D01*
X143559488Y-87561988D01*
X143487017Y-87687511D01*
X143487016Y-87687515D01*
X143449500Y-87827525D01*
X143449500Y-87972475D01*
X143470604Y-88051234D01*
X143487017Y-88112488D01*
X143559488Y-88238011D01*
X143559493Y-88238017D01*
X143603181Y-88281705D01*
X143636666Y-88343028D01*
X143639500Y-88369386D01*
X143639500Y-88640500D01*
X143619815Y-88707539D01*
X143567011Y-88753294D01*
X143530993Y-88763528D01*
X143523268Y-88764500D01*
X143495136Y-88764501D01*
X143470009Y-88767415D01*
X143457991Y-88772721D01*
X143439992Y-88774988D01*
X143422685Y-88772189D01*
X143405302Y-88774465D01*
X143388910Y-88766727D01*
X143371019Y-88763834D01*
X143357973Y-88752123D01*
X143342118Y-88744639D01*
X143332511Y-88729267D01*
X143319025Y-88717161D01*
X143314381Y-88700255D01*
X143305090Y-88685388D01*
X143300499Y-88651960D01*
X143300499Y-88439260D01*
X143286018Y-88347829D01*
X143286018Y-88347828D01*
X143286017Y-88347826D01*
X143286017Y-88347825D01*
X143229859Y-88237609D01*
X143229857Y-88237607D01*
X143229854Y-88237603D01*
X143228255Y-88236004D01*
X143208549Y-88210322D01*
X143170504Y-88144426D01*
X143170498Y-88144418D01*
X142505582Y-87479502D01*
X142505581Y-87479501D01*
X142505580Y-87479500D01*
X142505577Y-87479498D01*
X142505573Y-87479495D01*
X142462499Y-87454626D01*
X142414284Y-87404059D01*
X142400500Y-87347240D01*
X142400500Y-86758674D01*
X142420185Y-86691635D01*
X142436814Y-86670998D01*
X143807139Y-85300672D01*
X143868460Y-85267189D01*
X143933136Y-85270424D01*
X143942299Y-85273402D01*
X144113389Y-85300500D01*
X144113390Y-85300500D01*
X144286610Y-85300500D01*
X144286611Y-85300500D01*
X144457701Y-85273402D01*
X144622445Y-85219873D01*
X144776788Y-85141232D01*
X144916928Y-85039414D01*
X145039414Y-84916928D01*
X145141232Y-84776788D01*
X145155515Y-84748756D01*
X145203489Y-84697960D01*
X145271309Y-84681164D01*
X145337445Y-84703701D01*
X145380897Y-84758415D01*
X145390000Y-84805050D01*
X145390000Y-85097844D01*
X145396401Y-85157372D01*
X145396403Y-85157379D01*
X145446645Y-85292086D01*
X145446649Y-85292093D01*
X145532809Y-85407187D01*
X145532812Y-85407190D01*
X145647906Y-85493350D01*
X145647913Y-85493354D01*
X145782620Y-85543596D01*
X145782627Y-85543598D01*
X145842155Y-85549999D01*
X145842172Y-85550000D01*
X146490000Y-85550000D01*
X146490000Y-84633012D01*
X146547007Y-84665925D01*
X146674174Y-84700000D01*
X146805826Y-84700000D01*
X146932993Y-84665925D01*
X146990000Y-84633012D01*
X146990000Y-85550000D01*
X147637828Y-85550000D01*
X147637844Y-85549999D01*
X147697372Y-85543598D01*
X147697379Y-85543596D01*
X147832086Y-85493354D01*
X147832093Y-85493350D01*
X147947187Y-85407190D01*
X147947190Y-85407187D01*
X148033350Y-85292093D01*
X148033354Y-85292086D01*
X148083596Y-85157379D01*
X148083598Y-85157372D01*
X148089999Y-85097844D01*
X148090000Y-85097827D01*
X148090000Y-84450000D01*
X147173012Y-84450000D01*
X147205925Y-84392993D01*
X147240000Y-84265826D01*
X147240000Y-84134174D01*
X147205925Y-84007007D01*
X147173012Y-83950000D01*
X148090000Y-83950000D01*
X148090000Y-83302172D01*
X148089999Y-83302155D01*
X148083598Y-83242627D01*
X148083596Y-83242620D01*
X148033354Y-83107913D01*
X148033350Y-83107906D01*
X147947190Y-82992812D01*
X147947187Y-82992809D01*
X147832091Y-82906648D01*
X147832088Y-82906646D01*
X147825401Y-82904152D01*
X149162501Y-82904152D01*
X149172556Y-83002583D01*
X149225406Y-83162072D01*
X149225408Y-83162077D01*
X149313614Y-83305080D01*
X149432419Y-83423885D01*
X149575422Y-83512091D01*
X149575427Y-83512093D01*
X149734916Y-83564942D01*
X149833356Y-83574999D01*
X149850000Y-83574998D01*
X149850000Y-82850000D01*
X149162501Y-82850000D01*
X149162501Y-82904152D01*
X147825401Y-82904152D01*
X147697379Y-82856403D01*
X147697372Y-82856401D01*
X147637844Y-82850000D01*
X146990000Y-82850000D01*
X146990000Y-83766988D01*
X146932993Y-83734075D01*
X146805826Y-83700000D01*
X146674174Y-83700000D01*
X146547007Y-83734075D01*
X146490000Y-83766988D01*
X146490000Y-82850000D01*
X145842155Y-82850000D01*
X145782627Y-82856401D01*
X145782620Y-82856403D01*
X145647913Y-82906645D01*
X145647906Y-82906649D01*
X145532812Y-82992809D01*
X145532809Y-82992812D01*
X145446649Y-83107906D01*
X145446645Y-83107913D01*
X145396403Y-83242620D01*
X145396401Y-83242627D01*
X145390000Y-83302155D01*
X145390000Y-83594949D01*
X145370315Y-83661988D01*
X145317511Y-83707743D01*
X145248353Y-83717687D01*
X145184797Y-83688662D01*
X145155515Y-83651244D01*
X145141231Y-83623211D01*
X145140841Y-83622674D01*
X145039414Y-83483072D01*
X144916928Y-83360586D01*
X144776788Y-83258768D01*
X144622445Y-83180127D01*
X144457701Y-83126598D01*
X144457699Y-83126597D01*
X144457698Y-83126597D01*
X144326271Y-83105781D01*
X144286611Y-83099500D01*
X144113389Y-83099500D01*
X144073728Y-83105781D01*
X143942302Y-83126597D01*
X143777552Y-83180128D01*
X143623211Y-83258768D01*
X143560746Y-83304152D01*
X143483072Y-83360586D01*
X143483070Y-83360588D01*
X143483069Y-83360588D01*
X143360588Y-83483069D01*
X143360588Y-83483070D01*
X143360586Y-83483072D01*
X143319684Y-83539369D01*
X143258768Y-83623211D01*
X143180128Y-83777552D01*
X143126597Y-83942302D01*
X143099500Y-84113389D01*
X143099500Y-84286610D01*
X143126597Y-84457698D01*
X143126599Y-84457704D01*
X143129576Y-84466869D01*
X143131567Y-84536710D01*
X143099324Y-84592861D01*
X142828460Y-84863725D01*
X142767137Y-84897210D01*
X142697445Y-84892226D01*
X142641512Y-84850354D01*
X142617095Y-84784890D01*
X142630293Y-84719750D01*
X142679873Y-84622445D01*
X142733402Y-84457701D01*
X142760500Y-84286611D01*
X142760500Y-84113389D01*
X142733402Y-83942299D01*
X142679873Y-83777555D01*
X142601232Y-83623212D01*
X142499414Y-83483072D01*
X142376928Y-83360586D01*
X142236788Y-83258768D01*
X142082445Y-83180127D01*
X141917701Y-83126598D01*
X141917699Y-83126597D01*
X141917698Y-83126597D01*
X141786271Y-83105781D01*
X141746611Y-83099500D01*
X141573389Y-83099500D01*
X141533728Y-83105781D01*
X141402302Y-83126597D01*
X141237552Y-83180128D01*
X141083211Y-83258768D01*
X141020746Y-83304152D01*
X140943072Y-83360586D01*
X140943070Y-83360588D01*
X140943069Y-83360588D01*
X140820588Y-83483069D01*
X140820588Y-83483070D01*
X140820586Y-83483072D01*
X140779684Y-83539369D01*
X140718768Y-83623211D01*
X140640128Y-83777552D01*
X140586597Y-83942302D01*
X140559500Y-84113389D01*
X140559500Y-84286610D01*
X140586597Y-84457698D01*
X140641597Y-84626970D01*
X140643592Y-84696811D01*
X140611347Y-84752969D01*
X139899531Y-85464786D01*
X139899527Y-85464791D01*
X139853387Y-85544709D01*
X139853386Y-85544712D01*
X139829500Y-85633856D01*
X139829500Y-89046145D01*
X139846497Y-89109580D01*
X139853385Y-89135285D01*
X139853387Y-89135290D01*
X139899527Y-89215208D01*
X139899529Y-89215211D01*
X139899530Y-89215212D01*
X140057800Y-89373482D01*
X140193181Y-89508862D01*
X140226666Y-89570185D01*
X140229500Y-89596543D01*
X140229500Y-89791582D01*
X140240418Y-89866518D01*
X140240418Y-89866519D01*
X140240419Y-89866521D01*
X140296921Y-89982099D01*
X140296923Y-89982102D01*
X140387896Y-90073075D01*
X140396259Y-90079046D01*
X140394080Y-90082097D01*
X140431538Y-90116316D01*
X140449500Y-90180596D01*
X140449500Y-92446145D01*
X140466483Y-92509528D01*
X140473386Y-92535288D01*
X140473387Y-92535291D01*
X140519527Y-92615208D01*
X140519529Y-92615211D01*
X140519530Y-92615212D01*
X142284788Y-94380470D01*
X142364712Y-94426614D01*
X142453856Y-94450500D01*
X142453858Y-94450500D01*
X144546142Y-94450500D01*
X144546144Y-94450500D01*
X144635288Y-94426614D01*
X144715212Y-94380470D01*
X145880470Y-93215212D01*
X145926614Y-93135288D01*
X145928936Y-93126619D01*
X145928939Y-93126615D01*
X145928938Y-93126615D01*
X145935157Y-93103404D01*
X145950500Y-93046144D01*
X145950500Y-92164499D01*
X145970185Y-92097460D01*
X146022989Y-92051705D01*
X146074500Y-92040499D01*
X146259856Y-92040499D01*
X146259864Y-92040499D01*
X146259879Y-92040497D01*
X146259882Y-92040497D01*
X146284987Y-92037586D01*
X146284988Y-92037585D01*
X146284991Y-92037585D01*
X146387765Y-91992206D01*
X146467206Y-91912765D01*
X146512585Y-91809991D01*
X146515500Y-91784865D01*
X146515499Y-91595136D01*
X146512585Y-91570009D01*
X146505681Y-91554374D01*
X146499373Y-91540086D01*
X146490301Y-91470808D01*
X146499374Y-91439912D01*
X146512584Y-91409995D01*
X146512584Y-91409994D01*
X146512584Y-91409993D01*
X146512585Y-91409991D01*
X146515500Y-91384865D01*
X146515499Y-91195136D01*
X146512585Y-91170009D01*
X146503529Y-91149500D01*
X146499373Y-91140086D01*
X146490301Y-91070808D01*
X146499374Y-91039912D01*
X146512584Y-91009995D01*
X146512584Y-91009994D01*
X146512584Y-91009993D01*
X146512585Y-91009991D01*
X146515500Y-90984865D01*
X146515499Y-90795136D01*
X146512585Y-90770009D01*
X146505681Y-90754374D01*
X146499373Y-90740086D01*
X146490301Y-90670808D01*
X146499374Y-90639912D01*
X146512584Y-90609995D01*
X146512584Y-90609994D01*
X146512584Y-90609993D01*
X146512585Y-90609991D01*
X146515500Y-90584865D01*
X146515499Y-90395136D01*
X146512585Y-90370009D01*
X146505681Y-90354374D01*
X146499373Y-90340086D01*
X146490301Y-90270808D01*
X146499374Y-90239912D01*
X146512584Y-90209995D01*
X146512584Y-90209994D01*
X146512584Y-90209993D01*
X146512585Y-90209991D01*
X146515500Y-90184865D01*
X146515499Y-89995136D01*
X146512585Y-89970009D01*
X146467206Y-89867235D01*
X146387765Y-89787794D01*
X146387763Y-89787793D01*
X146284992Y-89742415D01*
X146259868Y-89739500D01*
X146259865Y-89739500D01*
X145664499Y-89739500D01*
X145597460Y-89719815D01*
X145551705Y-89667011D01*
X145540499Y-89615500D01*
X145540499Y-89020143D01*
X145540499Y-89020136D01*
X145540007Y-89015891D01*
X145537586Y-88995012D01*
X145537585Y-88995010D01*
X145537585Y-88995009D01*
X145492206Y-88892235D01*
X145412765Y-88812794D01*
X145309992Y-88767415D01*
X145284865Y-88764500D01*
X145095142Y-88764500D01*
X145095118Y-88764502D01*
X145070014Y-88767413D01*
X145070010Y-88767414D01*
X145040083Y-88780628D01*
X144970804Y-88789697D01*
X144939915Y-88780627D01*
X144909992Y-88767415D01*
X144884865Y-88764500D01*
X144695142Y-88764500D01*
X144695118Y-88764502D01*
X144670014Y-88767413D01*
X144670010Y-88767414D01*
X144640083Y-88780628D01*
X144570804Y-88789697D01*
X144564204Y-88788479D01*
X144551649Y-88785808D01*
X144509991Y-88767415D01*
X144484865Y-88764500D01*
X144451460Y-88764500D01*
X144438704Y-88761787D01*
X144418973Y-88751131D01*
X144397461Y-88744815D01*
X144388828Y-88734852D01*
X144377226Y-88728587D01*
X144366386Y-88708953D01*
X144351706Y-88692011D01*
X144348241Y-88676086D01*
X144343457Y-88667420D01*
X144344138Y-88657226D01*
X144340500Y-88640500D01*
X144340500Y-88389386D01*
X144360185Y-88322347D01*
X144376819Y-88301705D01*
X144396819Y-88281705D01*
X144440509Y-88238015D01*
X144512984Y-88112485D01*
X144550500Y-87972475D01*
X144550500Y-87896544D01*
X144570185Y-87829505D01*
X144586819Y-87808863D01*
X144608863Y-87786819D01*
X144670186Y-87753334D01*
X144696544Y-87750500D01*
X152803456Y-87750500D01*
X152870495Y-87770185D01*
X152891137Y-87786819D01*
X155113181Y-90008863D01*
X155146666Y-90070186D01*
X155149500Y-90096544D01*
X155149500Y-95003456D01*
X155129815Y-95070495D01*
X155113181Y-95091137D01*
X153291137Y-96913181D01*
X153229814Y-96946666D01*
X153203456Y-96949500D01*
X150153856Y-96949500D01*
X150064712Y-96973386D01*
X150064709Y-96973387D01*
X149984791Y-97019527D01*
X149984786Y-97019531D01*
X148219531Y-98784786D01*
X148219529Y-98784789D01*
X148210095Y-98801130D01*
X148199495Y-98819491D01*
X148196026Y-98825499D01*
X148196025Y-98825500D01*
X148173387Y-98864709D01*
X148173386Y-98864712D01*
X148149500Y-98953856D01*
X148149500Y-110703456D01*
X148129815Y-110770495D01*
X148113181Y-110791137D01*
X144819531Y-114084786D01*
X144819527Y-114084791D01*
X144773387Y-114164709D01*
X144773386Y-114164712D01*
X144749500Y-114253856D01*
X144749500Y-118325500D01*
X144729815Y-118392539D01*
X144677011Y-118438294D01*
X144625500Y-118449500D01*
X143324500Y-118449500D01*
X143257461Y-118429815D01*
X143211706Y-118377011D01*
X143200500Y-118325500D01*
X143200500Y-116662466D01*
X143204032Y-116615502D01*
X143200500Y-116596807D01*
X143200500Y-116577779D01*
X143188309Y-116532283D01*
X143179567Y-116486009D01*
X143171317Y-116468866D01*
X143166392Y-116450485D01*
X143142839Y-116409691D01*
X143122420Y-116367260D01*
X143110014Y-116352836D01*
X143100500Y-116336357D01*
X143070493Y-116306350D01*
X143064164Y-116299527D01*
X143036489Y-116267350D01*
X143036125Y-116267102D01*
X143020769Y-116256626D01*
X143007314Y-116243171D01*
X142966522Y-116219619D01*
X142949500Y-116208007D01*
X142927623Y-116193083D01*
X142927622Y-116193082D01*
X142927621Y-116193082D01*
X142920618Y-116190629D01*
X142899617Y-116180991D01*
X142893192Y-116177282D01*
X142893182Y-116177277D01*
X142852187Y-116166292D01*
X142852187Y-116166291D01*
X142847672Y-116165081D01*
X142803244Y-116149522D01*
X142784274Y-116148095D01*
X142773061Y-116145091D01*
X142765896Y-116143171D01*
X142765892Y-116143171D01*
X142729123Y-116143171D01*
X142717081Y-116142585D01*
X141878754Y-116060783D01*
X141873289Y-116060127D01*
X141021784Y-115938687D01*
X141016365Y-115937791D01*
X140769020Y-115891232D01*
X140171093Y-115778680D01*
X140165708Y-115777542D01*
X139328332Y-115581075D01*
X139323002Y-115579699D01*
X138495171Y-115346262D01*
X138489923Y-115344655D01*
X137673230Y-115074695D01*
X137668053Y-115072855D01*
X136864211Y-114766940D01*
X136859111Y-114764869D01*
X136069599Y-114423564D01*
X136064596Y-114421268D01*
X135291017Y-114045263D01*
X135286121Y-114042747D01*
X134530015Y-113632794D01*
X134525235Y-113630064D01*
X133935663Y-113275676D01*
X133788041Y-113186941D01*
X133783387Y-113184001D01*
X133773623Y-113177525D01*
X136499500Y-113177525D01*
X136499500Y-113322475D01*
X136537016Y-113462485D01*
X136537017Y-113462488D01*
X136609488Y-113588011D01*
X136609490Y-113588013D01*
X136609491Y-113588015D01*
X136711985Y-113690509D01*
X136711986Y-113690510D01*
X136711988Y-113690511D01*
X136837511Y-113762982D01*
X136837512Y-113762982D01*
X136837515Y-113762984D01*
X136977525Y-113800500D01*
X136977528Y-113800500D01*
X137122472Y-113800500D01*
X137122475Y-113800500D01*
X137262485Y-113762984D01*
X137388015Y-113690509D01*
X137490509Y-113588015D01*
X137562984Y-113462485D01*
X137600500Y-113322475D01*
X137600500Y-113246543D01*
X137620185Y-113179504D01*
X137636814Y-113158866D01*
X138621071Y-112174609D01*
X138638399Y-112160182D01*
X138645995Y-112154948D01*
X138752102Y-112103076D01*
X138820324Y-112034853D01*
X138829653Y-112028427D01*
X138852517Y-112020909D01*
X138873642Y-112009375D01*
X138885108Y-112010195D01*
X138896028Y-112006605D01*
X138919323Y-112012641D01*
X138943334Y-112014359D01*
X138955079Y-112021907D01*
X138963663Y-112024132D01*
X138971156Y-112032240D01*
X138987681Y-112042860D01*
X139047897Y-112103076D01*
X139047900Y-112103078D01*
X139158656Y-112157222D01*
X139163482Y-112159582D01*
X139238418Y-112170500D01*
X139238423Y-112170500D01*
X139581577Y-112170500D01*
X139581582Y-112170500D01*
X139656518Y-112159582D01*
X139714310Y-112131329D01*
X139772099Y-112103078D01*
X139772102Y-112103076D01*
X139863076Y-112012102D01*
X139863078Y-112012099D01*
X139910591Y-111914909D01*
X139919582Y-111896518D01*
X139930500Y-111821582D01*
X139930500Y-111626543D01*
X139950185Y-111559504D01*
X139966819Y-111538862D01*
X140155469Y-111350212D01*
X140201614Y-111270288D01*
X140220608Y-111199400D01*
X140225500Y-111181144D01*
X140225500Y-111177460D01*
X140227924Y-111166796D01*
X140242261Y-111141107D01*
X140254161Y-111114203D01*
X140259291Y-111110594D01*
X140261976Y-111105786D01*
X140279250Y-111096560D01*
X140305510Y-111078094D01*
X140320950Y-111072336D01*
X140428972Y-110991472D01*
X140509836Y-110883450D01*
X140556991Y-110757022D01*
X140560646Y-110723023D01*
X140562999Y-110701144D01*
X140563000Y-110701129D01*
X140563000Y-110098870D01*
X140562999Y-110098855D01*
X140560145Y-110072318D01*
X140556991Y-110042978D01*
X140509836Y-109916550D01*
X140428972Y-109808528D01*
X140320950Y-109727664D01*
X140320947Y-109727662D01*
X140194524Y-109680509D01*
X140138644Y-109674500D01*
X140138630Y-109674500D01*
X139611370Y-109674500D01*
X139611355Y-109674500D01*
X139555475Y-109680509D01*
X139429052Y-109727662D01*
X139429045Y-109727666D01*
X139317063Y-109811495D01*
X139251599Y-109835912D01*
X139183326Y-109821060D01*
X139137214Y-109777325D01*
X139086385Y-109694919D01*
X138967580Y-109576114D01*
X138824577Y-109487908D01*
X138824572Y-109487906D01*
X138665083Y-109435057D01*
X138566650Y-109425000D01*
X138550000Y-109425000D01*
X138550000Y-110276000D01*
X138530315Y-110343039D01*
X138477511Y-110388794D01*
X138426000Y-110400000D01*
X138300000Y-110400000D01*
X138300000Y-110526000D01*
X138280315Y-110593039D01*
X138227511Y-110638794D01*
X138176000Y-110650000D01*
X137362501Y-110650000D01*
X137362501Y-110704152D01*
X137372556Y-110802583D01*
X137425406Y-110962072D01*
X137425408Y-110962077D01*
X137513614Y-111105080D01*
X137632419Y-111223885D01*
X137775422Y-111312091D01*
X137775427Y-111312093D01*
X137784504Y-111315101D01*
X137841949Y-111354874D01*
X137868772Y-111419389D01*
X137869500Y-111432807D01*
X137869500Y-111821579D01*
X137874930Y-111858854D01*
X137865115Y-111928031D01*
X137839906Y-111964410D01*
X137141137Y-112663181D01*
X137079814Y-112696666D01*
X137053456Y-112699500D01*
X136977525Y-112699500D01*
X136848993Y-112733940D01*
X136837511Y-112737017D01*
X136711988Y-112809488D01*
X136711982Y-112809493D01*
X136609493Y-112911982D01*
X136609488Y-112911988D01*
X136537017Y-113037511D01*
X136537016Y-113037515D01*
X136499500Y-113177525D01*
X133773623Y-113177525D01*
X133066579Y-112708594D01*
X133062061Y-112705450D01*
X132367090Y-112198721D01*
X132362715Y-112195381D01*
X132336740Y-112174615D01*
X131690858Y-111658261D01*
X131686673Y-111654759D01*
X131595722Y-111575181D01*
X131099614Y-111141107D01*
X131039369Y-111088395D01*
X131035308Y-111084680D01*
X130824940Y-110883450D01*
X130413750Y-110490122D01*
X130409867Y-110486239D01*
X130327374Y-110400000D01*
X130036435Y-110095849D01*
X137362500Y-110095849D01*
X137362500Y-110150000D01*
X138050000Y-110150000D01*
X138050000Y-109424999D01*
X138033356Y-109425000D01*
X137934915Y-109435057D01*
X137775427Y-109487906D01*
X137775422Y-109487908D01*
X137632419Y-109576114D01*
X137513614Y-109694919D01*
X137425408Y-109837922D01*
X137425406Y-109837927D01*
X137372557Y-109997416D01*
X137362500Y-110095849D01*
X130036435Y-110095849D01*
X129815315Y-109864687D01*
X129811601Y-109860627D01*
X129245228Y-109213311D01*
X129241742Y-109209146D01*
X128704608Y-108537272D01*
X128701278Y-108532909D01*
X128194549Y-107837938D01*
X128191405Y-107833420D01*
X127715998Y-107116612D01*
X127713058Y-107111958D01*
X127269935Y-106374764D01*
X127267205Y-106369984D01*
X127198044Y-106242426D01*
X126857252Y-105613878D01*
X126854736Y-105608982D01*
X126478731Y-104835403D01*
X126476435Y-104830400D01*
X126135130Y-104040888D01*
X126133059Y-104035788D01*
X126053007Y-103825437D01*
X125827136Y-103231925D01*
X125825312Y-103226795D01*
X125555334Y-102410048D01*
X125553746Y-102404858D01*
X125320292Y-101576967D01*
X125318932Y-101571698D01*
X125191256Y-101027525D01*
X136949500Y-101027525D01*
X136949500Y-101172475D01*
X136984363Y-101302583D01*
X136987017Y-101312488D01*
X137059488Y-101438011D01*
X137059490Y-101438013D01*
X137059491Y-101438015D01*
X137161985Y-101540509D01*
X137161986Y-101540510D01*
X137161988Y-101540511D01*
X137287511Y-101612982D01*
X137287512Y-101612982D01*
X137287515Y-101612984D01*
X137427525Y-101650500D01*
X137427528Y-101650500D01*
X137572472Y-101650500D01*
X137572475Y-101650500D01*
X137712485Y-101612984D01*
X137838015Y-101540509D01*
X137940509Y-101438015D01*
X138012984Y-101312485D01*
X138050500Y-101172475D01*
X138050500Y-101096543D01*
X138070185Y-101029504D01*
X138086819Y-101008862D01*
X140691529Y-98404152D01*
X142462501Y-98404152D01*
X142472556Y-98502583D01*
X142525406Y-98662072D01*
X142525408Y-98662077D01*
X142613614Y-98805080D01*
X142732419Y-98923885D01*
X142875422Y-99012091D01*
X142875427Y-99012093D01*
X143034916Y-99064942D01*
X143133356Y-99074999D01*
X143150000Y-99074998D01*
X143150000Y-98350000D01*
X142462501Y-98350000D01*
X142462501Y-98404152D01*
X140691529Y-98404152D01*
X141908862Y-97186819D01*
X141970185Y-97153334D01*
X141996543Y-97150500D01*
X142558672Y-97150500D01*
X142625711Y-97170185D01*
X142671466Y-97222989D01*
X142681410Y-97292147D01*
X142652385Y-97355703D01*
X142646353Y-97362181D01*
X142613614Y-97394919D01*
X142525408Y-97537922D01*
X142525406Y-97537927D01*
X142472557Y-97697416D01*
X142462500Y-97795849D01*
X142462500Y-97850000D01*
X143276000Y-97850000D01*
X143343039Y-97869685D01*
X143388794Y-97922489D01*
X143400000Y-97974000D01*
X143400000Y-98100000D01*
X143526000Y-98100000D01*
X143593039Y-98119685D01*
X143638794Y-98172489D01*
X143650000Y-98224000D01*
X143650000Y-99074999D01*
X143666636Y-99074999D01*
X143666652Y-99074998D01*
X143765083Y-99064943D01*
X143924572Y-99012093D01*
X143924577Y-99012091D01*
X144067580Y-98923885D01*
X144186385Y-98805080D01*
X144237214Y-98722674D01*
X144289162Y-98675950D01*
X144358124Y-98664727D01*
X144417064Y-98688504D01*
X144421027Y-98691470D01*
X144421028Y-98691472D01*
X144499213Y-98750000D01*
X144529049Y-98772335D01*
X144529052Y-98772337D01*
X144614352Y-98804152D01*
X144655478Y-98819491D01*
X144684818Y-98822645D01*
X144711355Y-98825499D01*
X144711370Y-98825500D01*
X145238630Y-98825500D01*
X145238644Y-98825499D01*
X145260523Y-98823146D01*
X145294522Y-98819491D01*
X145420950Y-98772336D01*
X145528972Y-98691472D01*
X145609836Y-98583450D01*
X145656991Y-98457022D01*
X145660646Y-98423023D01*
X145662999Y-98401144D01*
X145663000Y-98401129D01*
X145663000Y-97798870D01*
X145662999Y-97798855D01*
X145660145Y-97772318D01*
X145656991Y-97742978D01*
X145653495Y-97733606D01*
X145609836Y-97616550D01*
X145609835Y-97616549D01*
X145528972Y-97508528D01*
X145442042Y-97443453D01*
X145400171Y-97387519D01*
X145395187Y-97317827D01*
X145428669Y-97256508D01*
X145473076Y-97212102D01*
X145473076Y-97212100D01*
X145473078Y-97212099D01*
X145503192Y-97150500D01*
X145529582Y-97096518D01*
X145540500Y-97021582D01*
X145540500Y-96578418D01*
X145529582Y-96503482D01*
X145514870Y-96473388D01*
X145473078Y-96387900D01*
X145473076Y-96387897D01*
X145382102Y-96296923D01*
X145382099Y-96296921D01*
X145266521Y-96240419D01*
X145266519Y-96240418D01*
X145266518Y-96240418D01*
X145191582Y-96229500D01*
X144848418Y-96229500D01*
X144773482Y-96240418D01*
X144773480Y-96240418D01*
X144773478Y-96240419D01*
X144657900Y-96296921D01*
X144657897Y-96296923D01*
X144597681Y-96357140D01*
X144536358Y-96390625D01*
X144466666Y-96385641D01*
X144422319Y-96357140D01*
X144362102Y-96296923D01*
X144362099Y-96296921D01*
X144246521Y-96240419D01*
X144246519Y-96240418D01*
X144246518Y-96240418D01*
X144171582Y-96229500D01*
X143828418Y-96229500D01*
X143753482Y-96240418D01*
X143753480Y-96240418D01*
X143753478Y-96240419D01*
X143637900Y-96296921D01*
X143637897Y-96296923D01*
X143546926Y-96387895D01*
X143540956Y-96396257D01*
X143537908Y-96394081D01*
X143503650Y-96431559D01*
X143439404Y-96449500D01*
X141753856Y-96449500D01*
X141664712Y-96473386D01*
X141664711Y-96473386D01*
X141664709Y-96473387D01*
X141664706Y-96473388D01*
X141584794Y-96519526D01*
X141584785Y-96519533D01*
X137591137Y-100513181D01*
X137529814Y-100546666D01*
X137503456Y-100549500D01*
X137427525Y-100549500D01*
X137298993Y-100583940D01*
X137287511Y-100587017D01*
X137161988Y-100659488D01*
X137161982Y-100659493D01*
X137059493Y-100761982D01*
X137059488Y-100761988D01*
X136987017Y-100887511D01*
X136987016Y-100887515D01*
X136949500Y-101027525D01*
X125191256Y-101027525D01*
X125122457Y-100734291D01*
X125121319Y-100728906D01*
X125120111Y-100722489D01*
X124962201Y-99883598D01*
X124961317Y-99878249D01*
X124839871Y-99026707D01*
X124839216Y-99021245D01*
X124832654Y-98953991D01*
X124818033Y-98804152D01*
X129262501Y-98804152D01*
X129272556Y-98902583D01*
X129325406Y-99062072D01*
X129325408Y-99062077D01*
X129413614Y-99205080D01*
X129532419Y-99323885D01*
X129675422Y-99412091D01*
X129675427Y-99412093D01*
X129834916Y-99464942D01*
X129933356Y-99474999D01*
X129950000Y-99474998D01*
X129950000Y-98750000D01*
X129262501Y-98750000D01*
X129262501Y-98804152D01*
X124818033Y-98804152D01*
X124778938Y-98403491D01*
X124759545Y-98204745D01*
X124758677Y-98195849D01*
X129262500Y-98195849D01*
X129262500Y-98250000D01*
X130076000Y-98250000D01*
X130143039Y-98269685D01*
X130188794Y-98322489D01*
X130200000Y-98374000D01*
X130200000Y-98500000D01*
X130326000Y-98500000D01*
X130393039Y-98519685D01*
X130438794Y-98572489D01*
X130450000Y-98624000D01*
X130450000Y-99474999D01*
X130466636Y-99474999D01*
X130466652Y-99474998D01*
X130565083Y-99464943D01*
X130724572Y-99412093D01*
X130724577Y-99412091D01*
X130867580Y-99323885D01*
X130986385Y-99205080D01*
X131037214Y-99122674D01*
X131089162Y-99075950D01*
X131158124Y-99064727D01*
X131217064Y-99088504D01*
X131221027Y-99091470D01*
X131221028Y-99091472D01*
X131329049Y-99172335D01*
X131329052Y-99172337D01*
X131393954Y-99196544D01*
X131455478Y-99219491D01*
X131484818Y-99222645D01*
X131511355Y-99225499D01*
X131511370Y-99225500D01*
X132038630Y-99225500D01*
X132038644Y-99225499D01*
X132060523Y-99223146D01*
X132094522Y-99219491D01*
X132220950Y-99172336D01*
X132328972Y-99091472D01*
X132409836Y-98983450D01*
X132456991Y-98857022D01*
X132461026Y-98819490D01*
X132462999Y-98801144D01*
X132463000Y-98801129D01*
X132463000Y-98198870D01*
X132462999Y-98198855D01*
X132459990Y-98170876D01*
X132456991Y-98142978D01*
X132442767Y-98104841D01*
X132409837Y-98016552D01*
X132409835Y-98016549D01*
X132328972Y-97908528D01*
X132220950Y-97827664D01*
X132220949Y-97827663D01*
X132141166Y-97797906D01*
X132085233Y-97756034D01*
X132060816Y-97690570D01*
X132060500Y-97681724D01*
X132060500Y-97666040D01*
X132080185Y-97599001D01*
X132096814Y-97578363D01*
X132163076Y-97512102D01*
X132163076Y-97512100D01*
X132163078Y-97512099D01*
X132196637Y-97443453D01*
X132219582Y-97396518D01*
X132230500Y-97321582D01*
X132230500Y-96878418D01*
X132219582Y-96803482D01*
X132186391Y-96735589D01*
X132163078Y-96687900D01*
X132163076Y-96687897D01*
X132072102Y-96596923D01*
X132072099Y-96596921D01*
X131956521Y-96540419D01*
X131956519Y-96540418D01*
X131956518Y-96540418D01*
X131881582Y-96529500D01*
X131538418Y-96529500D01*
X131463482Y-96540418D01*
X131463480Y-96540418D01*
X131463478Y-96540419D01*
X131347900Y-96596921D01*
X131347897Y-96596923D01*
X131287681Y-96657140D01*
X131226358Y-96690625D01*
X131156666Y-96685641D01*
X131129653Y-96671573D01*
X131120324Y-96665146D01*
X131052102Y-96596924D01*
X130946000Y-96545053D01*
X130938402Y-96539819D01*
X130934429Y-96534926D01*
X130921068Y-96525386D01*
X130486819Y-96091137D01*
X130453334Y-96029814D01*
X130450500Y-96003456D01*
X130450500Y-95927527D01*
X130450500Y-95927525D01*
X130412984Y-95787515D01*
X130404597Y-95772989D01*
X130340511Y-95661988D01*
X130340506Y-95661982D01*
X130238017Y-95559493D01*
X130238011Y-95559488D01*
X130112488Y-95487017D01*
X130112489Y-95487017D01*
X130101006Y-95483940D01*
X129972475Y-95449500D01*
X129827525Y-95449500D01*
X129698993Y-95483940D01*
X129687511Y-95487017D01*
X129561988Y-95559488D01*
X129561982Y-95559493D01*
X129459493Y-95661982D01*
X129459488Y-95661988D01*
X129387017Y-95787511D01*
X129387016Y-95787515D01*
X129349500Y-95927525D01*
X129349500Y-96072475D01*
X129354501Y-96091137D01*
X129387017Y-96212488D01*
X129459488Y-96338011D01*
X129459490Y-96338013D01*
X129459491Y-96338015D01*
X129561985Y-96440509D01*
X129561986Y-96440510D01*
X129561988Y-96440511D01*
X129687511Y-96512982D01*
X129687512Y-96512982D01*
X129687515Y-96512984D01*
X129827525Y-96550500D01*
X129903456Y-96550500D01*
X129970495Y-96570185D01*
X129991137Y-96586819D01*
X130139907Y-96735589D01*
X130173392Y-96796912D01*
X130174930Y-96841148D01*
X130169500Y-96878418D01*
X130169500Y-97321582D01*
X130178466Y-97383124D01*
X130168653Y-97452300D01*
X130122997Y-97505189D01*
X130055995Y-97525000D01*
X129933365Y-97525000D01*
X129933346Y-97525001D01*
X129834916Y-97535056D01*
X129675427Y-97587906D01*
X129675422Y-97587908D01*
X129532419Y-97676114D01*
X129413614Y-97794919D01*
X129325408Y-97937922D01*
X129325406Y-97937927D01*
X129272557Y-98097416D01*
X129262500Y-98195849D01*
X124758677Y-98195849D01*
X124757415Y-98182921D01*
X124756829Y-98170876D01*
X124756829Y-98134107D01*
X124754911Y-98126951D01*
X124751033Y-98104149D01*
X124750478Y-98096756D01*
X124736446Y-98056690D01*
X124733705Y-98047809D01*
X124722721Y-98006814D01*
X124713206Y-97990334D01*
X124706918Y-97972379D01*
X124680385Y-97933484D01*
X124678053Y-97929445D01*
X124666312Y-97909111D01*
X124656829Y-97892686D01*
X124643373Y-97879230D01*
X124632652Y-97863514D01*
X124596948Y-97832805D01*
X124580449Y-97816306D01*
X124563646Y-97799502D01*
X124563629Y-97799492D01*
X124557218Y-97795790D01*
X124547162Y-97789984D01*
X124532740Y-97777580D01*
X124490308Y-97757160D01*
X124449515Y-97733608D01*
X124449512Y-97733607D01*
X124449513Y-97733607D01*
X124442349Y-97731687D01*
X124431133Y-97728682D01*
X124413991Y-97720433D01*
X124367719Y-97711690D01*
X124363220Y-97710485D01*
X124363219Y-97710484D01*
X124335926Y-97703172D01*
X124322221Y-97699500D01*
X124322219Y-97699500D01*
X124303193Y-97699500D01*
X124284498Y-97695968D01*
X124237533Y-97699500D01*
X122824000Y-97699500D01*
X122756961Y-97679815D01*
X122711206Y-97627011D01*
X122700000Y-97575500D01*
X122700000Y-96950000D01*
X120824000Y-96950000D01*
X120756961Y-96930315D01*
X120711206Y-96877511D01*
X120700000Y-96826000D01*
X120700000Y-96574000D01*
X120719685Y-96506961D01*
X120772489Y-96461206D01*
X120824000Y-96450000D01*
X122700000Y-96450000D01*
X122700000Y-95824500D01*
X122719685Y-95757461D01*
X122772489Y-95711706D01*
X122824000Y-95700500D01*
X124237533Y-95700500D01*
X124284498Y-95704032D01*
X124303193Y-95700500D01*
X124322221Y-95700500D01*
X124363238Y-95689508D01*
X124372274Y-95687447D01*
X124413991Y-95679567D01*
X124420663Y-95676355D01*
X124442349Y-95668312D01*
X124442755Y-95668202D01*
X124449515Y-95666392D01*
X124490308Y-95642839D01*
X124532740Y-95622420D01*
X124547163Y-95610014D01*
X124563643Y-95600500D01*
X124596948Y-95567194D01*
X124632652Y-95536486D01*
X124643373Y-95520769D01*
X124656829Y-95507314D01*
X124680380Y-95466522D01*
X124706918Y-95427621D01*
X124713204Y-95409669D01*
X124719013Y-95399609D01*
X124719013Y-95399608D01*
X124719015Y-95399605D01*
X124720668Y-95396741D01*
X124722721Y-95393186D01*
X124733706Y-95352187D01*
X124736448Y-95343302D01*
X124739255Y-95335287D01*
X124750478Y-95303244D01*
X124751056Y-95295548D01*
X124751087Y-95295157D01*
X124751994Y-95283932D01*
X124756829Y-95265892D01*
X124756829Y-95224117D01*
X124757232Y-95219132D01*
X124757327Y-95218883D01*
X124757415Y-95217080D01*
X124807919Y-94699500D01*
X124839217Y-94378738D01*
X124839872Y-94373289D01*
X124915098Y-93845827D01*
X124961318Y-93521742D01*
X124962200Y-93516409D01*
X125119167Y-92682525D01*
X126694500Y-92682525D01*
X126694500Y-92827475D01*
X126706562Y-92872489D01*
X126732017Y-92967488D01*
X126804488Y-93093011D01*
X126804490Y-93093013D01*
X126804491Y-93093015D01*
X126906985Y-93195509D01*
X126906986Y-93195510D01*
X126906988Y-93195511D01*
X127032511Y-93267982D01*
X127032512Y-93267982D01*
X127032515Y-93267984D01*
X127172525Y-93305500D01*
X127172528Y-93305500D01*
X127317472Y-93305500D01*
X127317475Y-93305500D01*
X127457485Y-93267984D01*
X127583015Y-93195509D01*
X127674372Y-93104152D01*
X128987501Y-93104152D01*
X128997556Y-93202583D01*
X129050406Y-93362072D01*
X129050408Y-93362077D01*
X129138614Y-93505080D01*
X129257419Y-93623885D01*
X129400422Y-93712091D01*
X129400427Y-93712093D01*
X129559916Y-93764942D01*
X129658356Y-93774999D01*
X129675000Y-93774998D01*
X129675000Y-93050000D01*
X128987501Y-93050000D01*
X128987501Y-93104152D01*
X127674372Y-93104152D01*
X127685509Y-93093015D01*
X127757984Y-92967485D01*
X127758059Y-92967205D01*
X127758238Y-92966539D01*
X127783438Y-92872489D01*
X127795500Y-92827475D01*
X127795500Y-92751544D01*
X127815185Y-92684505D01*
X127831819Y-92663863D01*
X128608863Y-91886819D01*
X128670186Y-91853334D01*
X128696544Y-91850500D01*
X129083672Y-91850500D01*
X129150711Y-91870185D01*
X129196466Y-91922989D01*
X129206410Y-91992147D01*
X129177385Y-92055703D01*
X129171353Y-92062181D01*
X129138614Y-92094919D01*
X129050408Y-92237922D01*
X129050406Y-92237927D01*
X128997557Y-92397416D01*
X128987500Y-92495849D01*
X128987500Y-92550000D01*
X129801000Y-92550000D01*
X129868039Y-92569685D01*
X129913794Y-92622489D01*
X129925000Y-92674000D01*
X129925000Y-92800000D01*
X130051000Y-92800000D01*
X130118039Y-92819685D01*
X130163794Y-92872489D01*
X130175000Y-92924000D01*
X130175000Y-93774999D01*
X130191636Y-93774999D01*
X130191652Y-93774998D01*
X130290083Y-93764943D01*
X130449572Y-93712093D01*
X130449577Y-93712091D01*
X130592580Y-93623885D01*
X130711385Y-93505080D01*
X130762214Y-93422674D01*
X130814162Y-93375950D01*
X130883124Y-93364727D01*
X130942064Y-93388504D01*
X130946027Y-93391470D01*
X130946028Y-93391472D01*
X131054049Y-93472335D01*
X131054052Y-93472337D01*
X131141840Y-93505080D01*
X131180478Y-93519491D01*
X131209818Y-93522645D01*
X131236355Y-93525499D01*
X131236370Y-93525500D01*
X131763630Y-93525500D01*
X131763644Y-93525499D01*
X131785523Y-93523146D01*
X131819522Y-93519491D01*
X131945950Y-93472336D01*
X132053972Y-93391472D01*
X132134836Y-93283450D01*
X132181991Y-93157022D01*
X132185646Y-93123023D01*
X132187999Y-93101144D01*
X132188000Y-93101129D01*
X132188000Y-92498870D01*
X132187999Y-92498855D01*
X132182331Y-92446144D01*
X132181991Y-92442978D01*
X132134836Y-92316550D01*
X132053972Y-92208528D01*
X131988859Y-92159785D01*
X131947026Y-92128469D01*
X131905155Y-92072535D01*
X131900171Y-92002843D01*
X131933653Y-91941524D01*
X131963076Y-91912102D01*
X132019582Y-91796518D01*
X132030500Y-91721582D01*
X132030500Y-91278418D01*
X132019582Y-91203482D01*
X132015493Y-91195118D01*
X131963078Y-91087900D01*
X131963076Y-91087897D01*
X131872102Y-90996923D01*
X131872099Y-90996921D01*
X131756521Y-90940419D01*
X131756519Y-90940418D01*
X131756518Y-90940418D01*
X131681582Y-90929500D01*
X131338418Y-90929500D01*
X131263482Y-90940418D01*
X131263480Y-90940418D01*
X131263478Y-90940419D01*
X131147900Y-90996921D01*
X131147897Y-90996923D01*
X131087681Y-91057140D01*
X131026358Y-91090625D01*
X130956666Y-91085641D01*
X130912319Y-91057140D01*
X130852102Y-90996923D01*
X130852099Y-90996921D01*
X130736521Y-90940419D01*
X130736519Y-90940418D01*
X130736518Y-90940418D01*
X130661582Y-90929500D01*
X130318418Y-90929500D01*
X130243482Y-90940418D01*
X130243480Y-90940418D01*
X130243478Y-90940419D01*
X130127900Y-90996921D01*
X130127897Y-90996923D01*
X130036926Y-91087895D01*
X130030956Y-91096257D01*
X130027908Y-91094081D01*
X129993650Y-91131559D01*
X129929404Y-91149500D01*
X128453856Y-91149500D01*
X128364712Y-91173386D01*
X128364709Y-91173387D01*
X128284791Y-91219527D01*
X128284786Y-91219531D01*
X127336137Y-92168181D01*
X127274814Y-92201666D01*
X127248456Y-92204500D01*
X127172525Y-92204500D01*
X127047794Y-92237922D01*
X127032511Y-92242017D01*
X126906988Y-92314488D01*
X126906982Y-92314493D01*
X126804493Y-92416982D01*
X126804488Y-92416988D01*
X126732017Y-92542511D01*
X126732016Y-92542515D01*
X126694500Y-92682525D01*
X125119167Y-92682525D01*
X125121321Y-92671081D01*
X125122458Y-92665705D01*
X125127065Y-92646071D01*
X125222824Y-92237927D01*
X125318934Y-91828290D01*
X125320289Y-91823043D01*
X125553749Y-90995128D01*
X125555330Y-90989963D01*
X125825317Y-90173190D01*
X125827131Y-90168089D01*
X126133068Y-89364186D01*
X126135119Y-89359136D01*
X126476442Y-88569582D01*
X126478731Y-88564596D01*
X126526016Y-88467315D01*
X126854743Y-87791002D01*
X126857252Y-87786121D01*
X127071827Y-87390365D01*
X127121082Y-87340817D01*
X127189310Y-87325762D01*
X127254847Y-87349984D01*
X127260537Y-87354482D01*
X127300462Y-87387983D01*
X127350184Y-87421348D01*
X127350190Y-87421351D01*
X127485682Y-87469454D01*
X127629239Y-87477433D01*
X127769233Y-87444645D01*
X127894306Y-87373750D01*
X127894309Y-87373748D01*
X127937496Y-87332241D01*
X127937497Y-87332240D01*
X128353908Y-86835981D01*
X127793477Y-86365722D01*
X127754775Y-86307551D01*
X127753667Y-86237690D01*
X127769841Y-86202203D01*
X127786209Y-86177523D01*
X127787453Y-86176806D01*
X127880545Y-86083714D01*
X127946371Y-85969700D01*
X127949638Y-85957505D01*
X127963473Y-85945863D01*
X128032768Y-85936917D01*
X128093059Y-85964399D01*
X128675301Y-86452959D01*
X129091721Y-85956691D01*
X129125087Y-85906968D01*
X129125090Y-85906962D01*
X129173193Y-85771470D01*
X129181172Y-85627913D01*
X129148384Y-85487919D01*
X129077489Y-85362846D01*
X129077487Y-85362843D01*
X129035980Y-85319656D01*
X129035979Y-85319655D01*
X128810416Y-85130385D01*
X128771714Y-85072214D01*
X128770606Y-85002353D01*
X128807443Y-84942983D01*
X128870530Y-84912954D01*
X128909515Y-84912923D01*
X129026516Y-84931454D01*
X129026517Y-84931454D01*
X129199737Y-84931454D01*
X129199738Y-84931454D01*
X129370828Y-84904356D01*
X129535572Y-84850827D01*
X129689915Y-84772186D01*
X129830055Y-84670368D01*
X129952541Y-84547882D01*
X130054359Y-84407742D01*
X130133000Y-84253399D01*
X130186529Y-84088655D01*
X130213627Y-83917565D01*
X130213627Y-83744343D01*
X130186529Y-83573253D01*
X130133000Y-83408509D01*
X130129981Y-83402583D01*
X130104700Y-83352966D01*
X130095533Y-83304152D01*
X132962501Y-83304152D01*
X132972556Y-83402583D01*
X133025406Y-83562072D01*
X133025408Y-83562077D01*
X133113614Y-83705080D01*
X133232419Y-83823885D01*
X133375422Y-83912091D01*
X133375427Y-83912093D01*
X133534916Y-83964942D01*
X133633356Y-83974999D01*
X133650000Y-83974998D01*
X133650000Y-83250000D01*
X132962501Y-83250000D01*
X132962501Y-83304152D01*
X130095533Y-83304152D01*
X130091804Y-83284297D01*
X130118081Y-83219557D01*
X130125572Y-83210965D01*
X130409878Y-82913750D01*
X130413761Y-82909867D01*
X130637498Y-82695849D01*
X132962500Y-82695849D01*
X132962500Y-82750000D01*
X133776000Y-82750000D01*
X133843039Y-82769685D01*
X133888794Y-82822489D01*
X133900000Y-82874000D01*
X133900000Y-83000000D01*
X134026000Y-83000000D01*
X134093039Y-83019685D01*
X134138794Y-83072489D01*
X134150000Y-83124000D01*
X134150000Y-83974999D01*
X134166636Y-83974999D01*
X134166652Y-83974998D01*
X134265083Y-83964943D01*
X134424572Y-83912093D01*
X134424577Y-83912091D01*
X134567580Y-83823885D01*
X134686385Y-83705080D01*
X134737214Y-83622674D01*
X134789162Y-83575950D01*
X134858124Y-83564727D01*
X134917064Y-83588504D01*
X134921027Y-83591470D01*
X134921028Y-83591472D01*
X135015219Y-83661982D01*
X135029049Y-83672335D01*
X135029052Y-83672337D01*
X135103220Y-83700000D01*
X135155478Y-83719491D01*
X135184818Y-83722645D01*
X135211355Y-83725499D01*
X135211370Y-83725500D01*
X135738630Y-83725500D01*
X135738644Y-83725499D01*
X135760523Y-83723146D01*
X135794522Y-83719491D01*
X135920950Y-83672336D01*
X136028972Y-83591472D01*
X136109836Y-83483450D01*
X136156991Y-83357022D01*
X136161026Y-83319490D01*
X136162999Y-83301144D01*
X136163000Y-83301129D01*
X136163000Y-82858044D01*
X136182685Y-82791005D01*
X136235489Y-82745250D01*
X136304647Y-82735306D01*
X136368203Y-82764331D01*
X136374681Y-82770363D01*
X137513181Y-83908863D01*
X137546666Y-83970186D01*
X137549500Y-83996544D01*
X137549500Y-84072475D01*
X137580100Y-84186673D01*
X137587017Y-84212488D01*
X137659488Y-84338011D01*
X137659490Y-84338013D01*
X137659491Y-84338015D01*
X137761985Y-84440509D01*
X137761986Y-84440510D01*
X137761988Y-84440511D01*
X137887511Y-84512982D01*
X137887512Y-84512982D01*
X137887515Y-84512984D01*
X138027525Y-84550500D01*
X138027528Y-84550500D01*
X138172472Y-84550500D01*
X138172475Y-84550500D01*
X138312485Y-84512984D01*
X138438015Y-84440509D01*
X138540509Y-84338015D01*
X138612984Y-84212485D01*
X138650500Y-84072475D01*
X138650500Y-83927525D01*
X138612984Y-83787515D01*
X138582130Y-83734075D01*
X138540511Y-83661988D01*
X138540506Y-83661982D01*
X138438017Y-83559493D01*
X138438011Y-83559488D01*
X138312488Y-83487017D01*
X138312489Y-83487017D01*
X138297755Y-83483069D01*
X138172475Y-83449500D01*
X138172472Y-83449500D01*
X138096544Y-83449500D01*
X138029505Y-83429815D01*
X138008863Y-83413181D01*
X136891531Y-82295849D01*
X149162500Y-82295849D01*
X149162500Y-82350000D01*
X149976000Y-82350000D01*
X150043039Y-82369685D01*
X150088794Y-82422489D01*
X150100000Y-82474000D01*
X150100000Y-82600000D01*
X150226000Y-82600000D01*
X150293039Y-82619685D01*
X150338794Y-82672489D01*
X150350000Y-82724000D01*
X150350000Y-83574999D01*
X150366636Y-83574999D01*
X150366652Y-83574998D01*
X150465083Y-83564943D01*
X150624572Y-83512093D01*
X150624577Y-83512091D01*
X150767580Y-83423885D01*
X150886385Y-83305080D01*
X150937214Y-83222674D01*
X150989162Y-83175950D01*
X151058124Y-83164727D01*
X151117064Y-83188504D01*
X151121027Y-83191470D01*
X151121028Y-83191472D01*
X151229049Y-83272335D01*
X151229052Y-83272337D01*
X151314352Y-83304152D01*
X151355478Y-83319491D01*
X151384818Y-83322645D01*
X151411355Y-83325499D01*
X151411370Y-83325500D01*
X151938630Y-83325500D01*
X151938644Y-83325499D01*
X151960523Y-83323146D01*
X151994522Y-83319491D01*
X152120950Y-83272336D01*
X152228972Y-83191472D01*
X152309836Y-83083450D01*
X152356991Y-82957022D01*
X152362407Y-82906645D01*
X152362999Y-82901144D01*
X152363000Y-82901129D01*
X152363000Y-82298870D01*
X152362999Y-82298855D01*
X152360145Y-82272318D01*
X152356991Y-82242978D01*
X152332052Y-82176114D01*
X152309837Y-82116552D01*
X152309835Y-82116549D01*
X152294840Y-82096518D01*
X152228972Y-82008528D01*
X152120950Y-81927664D01*
X152120948Y-81927663D01*
X152102577Y-81920811D01*
X152046644Y-81878939D01*
X152022227Y-81813475D01*
X152037079Y-81745202D01*
X152049993Y-81726043D01*
X152053883Y-81721294D01*
X152063076Y-81712102D01*
X152065533Y-81707075D01*
X152074678Y-81695914D01*
X152092110Y-81684018D01*
X152106350Y-81668441D01*
X152120889Y-81664380D01*
X152132392Y-81656532D01*
X152150816Y-81656023D01*
X152170596Y-81650500D01*
X152403456Y-81650500D01*
X152470495Y-81670185D01*
X152491137Y-81686819D01*
X153213181Y-82408862D01*
X153246666Y-82470185D01*
X153249500Y-82496543D01*
X153249500Y-82572475D01*
X153283368Y-82698870D01*
X153287017Y-82712488D01*
X153359488Y-82838011D01*
X153359490Y-82838013D01*
X153359491Y-82838015D01*
X153461985Y-82940509D01*
X153461986Y-82940510D01*
X153461988Y-82940511D01*
X153587511Y-83012982D01*
X153587512Y-83012982D01*
X153587515Y-83012984D01*
X153727525Y-83050500D01*
X153727528Y-83050500D01*
X153872472Y-83050500D01*
X153872475Y-83050500D01*
X154012485Y-83012984D01*
X154138015Y-82940509D01*
X154240509Y-82838015D01*
X154312984Y-82712485D01*
X154350500Y-82572475D01*
X154350500Y-82427525D01*
X154312984Y-82287515D01*
X154287270Y-82242978D01*
X154240511Y-82161988D01*
X154240506Y-82161982D01*
X154138017Y-82059493D01*
X154138011Y-82059488D01*
X154012488Y-81987017D01*
X154012489Y-81987017D01*
X154001006Y-81983940D01*
X153872475Y-81949500D01*
X153872472Y-81949500D01*
X153796543Y-81949500D01*
X153729504Y-81929815D01*
X153708862Y-81913181D01*
X153269068Y-81473387D01*
X152815212Y-81019530D01*
X152815211Y-81019529D01*
X152815208Y-81019527D01*
X152735290Y-80973387D01*
X152735289Y-80973386D01*
X152735288Y-80973386D01*
X152646144Y-80949500D01*
X152646143Y-80949500D01*
X152170596Y-80949500D01*
X152103557Y-80929815D01*
X152071884Y-80894229D01*
X152069044Y-80896257D01*
X152063074Y-80887895D01*
X151972102Y-80796923D01*
X151972099Y-80796921D01*
X151856521Y-80740419D01*
X151856519Y-80740418D01*
X151856518Y-80740418D01*
X151781582Y-80729500D01*
X151438418Y-80729500D01*
X151363482Y-80740418D01*
X151363480Y-80740418D01*
X151363478Y-80740419D01*
X151247900Y-80796921D01*
X151247897Y-80796923D01*
X151187681Y-80857140D01*
X151126358Y-80890625D01*
X151056666Y-80885641D01*
X151012319Y-80857140D01*
X150952102Y-80796923D01*
X150952099Y-80796921D01*
X150836521Y-80740419D01*
X150836519Y-80740418D01*
X150836518Y-80740418D01*
X150761582Y-80729500D01*
X150418418Y-80729500D01*
X150343482Y-80740418D01*
X150343480Y-80740418D01*
X150343478Y-80740419D01*
X150227900Y-80796921D01*
X150227897Y-80796923D01*
X150136923Y-80887897D01*
X150136921Y-80887900D01*
X150080419Y-81003478D01*
X150080418Y-81003480D01*
X150080418Y-81003482D01*
X150069500Y-81078418D01*
X150069500Y-81078423D01*
X150069500Y-81501000D01*
X150049815Y-81568039D01*
X149997011Y-81613794D01*
X149945501Y-81625000D01*
X149833365Y-81625000D01*
X149833346Y-81625001D01*
X149734916Y-81635056D01*
X149575427Y-81687906D01*
X149575422Y-81687908D01*
X149432419Y-81776114D01*
X149313614Y-81894919D01*
X149225408Y-82037922D01*
X149225406Y-82037927D01*
X149172557Y-82197416D01*
X149162500Y-82295849D01*
X136891531Y-82295849D01*
X136115213Y-81519531D01*
X136115208Y-81519527D01*
X136035290Y-81473387D01*
X136035289Y-81473386D01*
X136035288Y-81473386D01*
X135946144Y-81449500D01*
X135946142Y-81449500D01*
X135939727Y-81447781D01*
X135880066Y-81411416D01*
X135869539Y-81395903D01*
X135869044Y-81396257D01*
X135863074Y-81387895D01*
X135772102Y-81296923D01*
X135772099Y-81296921D01*
X135656521Y-81240419D01*
X135656519Y-81240418D01*
X135656518Y-81240418D01*
X135581582Y-81229500D01*
X135238418Y-81229500D01*
X135163482Y-81240418D01*
X135163480Y-81240418D01*
X135163478Y-81240419D01*
X135047900Y-81296921D01*
X135047897Y-81296923D01*
X134987681Y-81357140D01*
X134926358Y-81390625D01*
X134856666Y-81385641D01*
X134812319Y-81357140D01*
X134752102Y-81296923D01*
X134752099Y-81296921D01*
X134636521Y-81240419D01*
X134636519Y-81240418D01*
X134636518Y-81240418D01*
X134561582Y-81229500D01*
X134218418Y-81229500D01*
X134143482Y-81240418D01*
X134143480Y-81240418D01*
X134143478Y-81240419D01*
X134027900Y-81296921D01*
X134027897Y-81296923D01*
X133936923Y-81387897D01*
X133936921Y-81387900D01*
X133880419Y-81503478D01*
X133880418Y-81503480D01*
X133880418Y-81503482D01*
X133869500Y-81578418D01*
X133869500Y-81578423D01*
X133869500Y-81901000D01*
X133849815Y-81968039D01*
X133797011Y-82013794D01*
X133745501Y-82025000D01*
X133633365Y-82025000D01*
X133633346Y-82025001D01*
X133534916Y-82035056D01*
X133375427Y-82087906D01*
X133375422Y-82087908D01*
X133232419Y-82176114D01*
X133113614Y-82294919D01*
X133025408Y-82437922D01*
X133025406Y-82437927D01*
X132972557Y-82597416D01*
X132962500Y-82695849D01*
X130637498Y-82695849D01*
X131035328Y-82315300D01*
X131039347Y-82311623D01*
X131686718Y-81745202D01*
X131690831Y-81741760D01*
X132362749Y-81204591D01*
X132367090Y-81201278D01*
X132535591Y-81078418D01*
X133062077Y-80694537D01*
X133066563Y-80691415D01*
X133783401Y-80215989D01*
X133788027Y-80213066D01*
X134525267Y-79769916D01*
X134529982Y-79767223D01*
X135286136Y-79357244D01*
X135291002Y-79354743D01*
X136064612Y-78978723D01*
X136069582Y-78976442D01*
X136859136Y-78635119D01*
X136864186Y-78633068D01*
X137668089Y-78327131D01*
X137673190Y-78325317D01*
X138489963Y-78055330D01*
X138495128Y-78053749D01*
X139323043Y-77820289D01*
X139328290Y-77818934D01*
X140165711Y-77622456D01*
X140171081Y-77621321D01*
X141016409Y-77462200D01*
X141021742Y-77461318D01*
X141873298Y-77339870D01*
X141878738Y-77339217D01*
X142717086Y-77257414D01*
X142719133Y-77257232D01*
X142724119Y-77256829D01*
X142765892Y-77256829D01*
X142783932Y-77251994D01*
X142795157Y-77251087D01*
X142795327Y-77251122D01*
X142795848Y-77251033D01*
X142803244Y-77250478D01*
X142843303Y-77236448D01*
X142843304Y-77236448D01*
X142847700Y-77234908D01*
X142893186Y-77222721D01*
X142909660Y-77213208D01*
X142920624Y-77209369D01*
X142920626Y-77209368D01*
X142924226Y-77208106D01*
X142927621Y-77206918D01*
X142962696Y-77182989D01*
X142970549Y-77178055D01*
X143007314Y-77156829D01*
X143020769Y-77143373D01*
X143036486Y-77132652D01*
X143067194Y-77096948D01*
X143100500Y-77063643D01*
X143110014Y-77047163D01*
X143122420Y-77032740D01*
X143142839Y-76990308D01*
X143166392Y-76949515D01*
X143171317Y-76931133D01*
X143179567Y-76913991D01*
X143188309Y-76867716D01*
X143200500Y-76822221D01*
X143200500Y-76814802D01*
X143202656Y-76791780D01*
X143204032Y-76784498D01*
X143200849Y-76742173D01*
X143200500Y-76732875D01*
X143200500Y-75324000D01*
X143220185Y-75256961D01*
X143272989Y-75211206D01*
X143324500Y-75200000D01*
X143950000Y-75200000D01*
X143950000Y-73324000D01*
X143969685Y-73256961D01*
X144022489Y-73211206D01*
X144074000Y-73200000D01*
X144326000Y-73200000D01*
X144393039Y-73219685D01*
G37*
%TD.AperFunction*%
%TA.AperFunction,Conductor*%
G36*
X142003039Y-88659685D02*
G01*
X142048794Y-88712489D01*
X142060000Y-88764000D01*
X142060000Y-89444503D01*
X142206195Y-89402031D01*
X142206197Y-89402030D01*
X142316959Y-89336525D01*
X142384683Y-89319341D01*
X142450945Y-89341500D01*
X142467762Y-89355575D01*
X142640006Y-89527819D01*
X142673491Y-89589142D01*
X142668507Y-89658834D01*
X142626635Y-89714767D01*
X142561171Y-89739184D01*
X142552328Y-89739500D01*
X142520145Y-89739500D01*
X142520117Y-89739502D01*
X142495012Y-89742413D01*
X142495008Y-89742415D01*
X142392235Y-89787793D01*
X142312794Y-89867234D01*
X142276784Y-89948788D01*
X142238277Y-89997503D01*
X142172437Y-90047432D01*
X142172434Y-90047436D01*
X142081079Y-90167904D01*
X142025613Y-90308556D01*
X142015000Y-90396946D01*
X142015000Y-90583053D01*
X142025613Y-90671443D01*
X142081079Y-90812095D01*
X142172435Y-90932564D01*
X142238276Y-90982494D01*
X142276786Y-91031215D01*
X142280628Y-91039917D01*
X142289697Y-91109196D01*
X142280627Y-91140085D01*
X142267415Y-91170006D01*
X142267415Y-91170008D01*
X142264500Y-91195131D01*
X142264500Y-91384857D01*
X142264502Y-91384881D01*
X142267413Y-91409985D01*
X142267413Y-91409986D01*
X142267414Y-91409990D01*
X142267415Y-91409991D01*
X142280626Y-91439912D01*
X142280628Y-91439915D01*
X142289697Y-91509194D01*
X142280628Y-91540083D01*
X142267415Y-91570008D01*
X142264500Y-91595131D01*
X142264500Y-91784857D01*
X142264502Y-91784881D01*
X142267414Y-91809988D01*
X142267415Y-91809991D01*
X142312793Y-91912764D01*
X142312794Y-91912765D01*
X142392235Y-91992206D01*
X142495009Y-92037585D01*
X142520135Y-92040500D01*
X143115500Y-92040499D01*
X143182539Y-92060183D01*
X143228294Y-92112987D01*
X143239500Y-92164499D01*
X143239500Y-92759856D01*
X143239502Y-92759882D01*
X143242413Y-92784987D01*
X143242415Y-92784991D01*
X143287793Y-92887764D01*
X143287794Y-92887765D01*
X143367235Y-92967206D01*
X143470009Y-93012585D01*
X143495135Y-93015500D01*
X143684864Y-93015499D01*
X143709991Y-93012585D01*
X143739913Y-92999372D01*
X143809190Y-92990301D01*
X143840086Y-92999373D01*
X143870007Y-93012584D01*
X143870009Y-93012585D01*
X143895135Y-93015500D01*
X144084864Y-93015499D01*
X144109991Y-93012585D01*
X144139913Y-92999372D01*
X144209190Y-92990301D01*
X144240086Y-92999373D01*
X144270007Y-93012584D01*
X144270009Y-93012585D01*
X144295135Y-93015500D01*
X144484864Y-93015499D01*
X144509991Y-93012585D01*
X144539913Y-92999372D01*
X144606447Y-92989903D01*
X144623942Y-92992244D01*
X144670009Y-93012585D01*
X144695135Y-93015500D01*
X144797716Y-93015499D01*
X144805903Y-93016595D01*
X144830578Y-93027573D01*
X144856493Y-93035183D01*
X144862023Y-93041564D01*
X144869739Y-93044998D01*
X144884560Y-93067573D01*
X144902249Y-93087986D01*
X144903451Y-93096345D01*
X144908085Y-93103404D01*
X144908349Y-93130410D01*
X144912193Y-93157145D01*
X144908685Y-93164825D01*
X144908768Y-93173270D01*
X144894389Y-93196131D01*
X144883169Y-93220701D01*
X144877136Y-93227180D01*
X144391137Y-93713181D01*
X144329814Y-93746666D01*
X144303456Y-93749500D01*
X142696544Y-93749500D01*
X142629505Y-93729815D01*
X142608863Y-93713181D01*
X141186819Y-92291137D01*
X141153334Y-92229814D01*
X141150500Y-92203456D01*
X141150500Y-90180596D01*
X141170185Y-90113557D01*
X141205773Y-90081892D01*
X141203741Y-90079046D01*
X141212103Y-90073075D01*
X141303076Y-89982102D01*
X141303078Y-89982099D01*
X141359231Y-89867235D01*
X141359582Y-89866518D01*
X141370500Y-89791582D01*
X141370500Y-89554602D01*
X141390185Y-89487563D01*
X141442989Y-89441808D01*
X141512147Y-89431864D01*
X141529095Y-89435526D01*
X141560000Y-89444504D01*
X141560000Y-88764000D01*
X141579685Y-88696961D01*
X141632489Y-88651206D01*
X141684000Y-88640000D01*
X141936000Y-88640000D01*
X142003039Y-88659685D01*
G37*
%TD.AperFunction*%
%TA.AperFunction,Conductor*%
G36*
X144192382Y-90092501D02*
G01*
X144209190Y-90090301D01*
X144240086Y-90099373D01*
X144270007Y-90112584D01*
X144270009Y-90112585D01*
X144295135Y-90115500D01*
X144484864Y-90115499D01*
X144509991Y-90112585D01*
X144539913Y-90099372D01*
X144609190Y-90090301D01*
X144640086Y-90099373D01*
X144670007Y-90112584D01*
X144670009Y-90112585D01*
X144695135Y-90115500D01*
X144884864Y-90115499D01*
X144909991Y-90112585D01*
X144939913Y-90099372D01*
X145009190Y-90090301D01*
X145040086Y-90099373D01*
X145070005Y-90112584D01*
X145078107Y-90114788D01*
X145137629Y-90151379D01*
X145161109Y-90189448D01*
X145166696Y-90203799D01*
X145167415Y-90209991D01*
X145181742Y-90242440D01*
X145182742Y-90245007D01*
X145185506Y-90277180D01*
X145189697Y-90309194D01*
X145188582Y-90312989D01*
X145188723Y-90314621D01*
X145187326Y-90317267D01*
X145180628Y-90340083D01*
X145167415Y-90370008D01*
X145164500Y-90395131D01*
X145164500Y-90584857D01*
X145164502Y-90584881D01*
X145167413Y-90609985D01*
X145167413Y-90609986D01*
X145167414Y-90609990D01*
X145167415Y-90609991D01*
X145180626Y-90639912D01*
X145180628Y-90639915D01*
X145189697Y-90709194D01*
X145180628Y-90740083D01*
X145167415Y-90770008D01*
X145164500Y-90795131D01*
X145164500Y-90984857D01*
X145164502Y-90984881D01*
X145167413Y-91009985D01*
X145167413Y-91009986D01*
X145167414Y-91009990D01*
X145167415Y-91009991D01*
X145180626Y-91039912D01*
X145180628Y-91039915D01*
X145189697Y-91109194D01*
X145180628Y-91140083D01*
X145167415Y-91170008D01*
X145164500Y-91195131D01*
X145164500Y-91384857D01*
X145164502Y-91384881D01*
X145167413Y-91409985D01*
X145167413Y-91409986D01*
X145167414Y-91409990D01*
X145167415Y-91409991D01*
X145180626Y-91439912D01*
X145180628Y-91439915D01*
X145189697Y-91509194D01*
X145182742Y-91534990D01*
X145181732Y-91537581D01*
X145167415Y-91570009D01*
X145166696Y-91576198D01*
X145161109Y-91590550D01*
X145143616Y-91613233D01*
X145128613Y-91637635D01*
X145122025Y-91641232D01*
X145118442Y-91645879D01*
X145104231Y-91650948D01*
X145078119Y-91665208D01*
X145070011Y-91667414D01*
X145040083Y-91680628D01*
X144970804Y-91689697D01*
X144939915Y-91680627D01*
X144909992Y-91667415D01*
X144884865Y-91664500D01*
X144695142Y-91664500D01*
X144695118Y-91664502D01*
X144670014Y-91667413D01*
X144670010Y-91667414D01*
X144640083Y-91680628D01*
X144570804Y-91689697D01*
X144539915Y-91680627D01*
X144509992Y-91667415D01*
X144484865Y-91664500D01*
X144295142Y-91664500D01*
X144295118Y-91664502D01*
X144270014Y-91667413D01*
X144270010Y-91667414D01*
X144240083Y-91680628D01*
X144170804Y-91689697D01*
X144139915Y-91680627D01*
X144109992Y-91667415D01*
X144084865Y-91664500D01*
X143895142Y-91664500D01*
X143895118Y-91664502D01*
X143870014Y-91667413D01*
X143870010Y-91667414D01*
X143840083Y-91680628D01*
X143770804Y-91689697D01*
X143745009Y-91682742D01*
X143742425Y-91681736D01*
X143709991Y-91667415D01*
X143703800Y-91666696D01*
X143689449Y-91661109D01*
X143666767Y-91643617D01*
X143642365Y-91628615D01*
X143638767Y-91622025D01*
X143634120Y-91618442D01*
X143629048Y-91604225D01*
X143614789Y-91578111D01*
X143612585Y-91570011D01*
X143612585Y-91570009D01*
X143608432Y-91560605D01*
X143599373Y-91540086D01*
X143590301Y-91470808D01*
X143599374Y-91439912D01*
X143612584Y-91409995D01*
X143612584Y-91409994D01*
X143612584Y-91409993D01*
X143612585Y-91409991D01*
X143615500Y-91384865D01*
X143615499Y-91195136D01*
X143612585Y-91170009D01*
X143603529Y-91149500D01*
X143599373Y-91140086D01*
X143590301Y-91070808D01*
X143599372Y-91039916D01*
X143603215Y-91031212D01*
X143641725Y-90982492D01*
X143707564Y-90932565D01*
X143707565Y-90932563D01*
X143798920Y-90812095D01*
X143854386Y-90671443D01*
X143865000Y-90583053D01*
X143865000Y-90396946D01*
X143854385Y-90308553D01*
X143845093Y-90284989D01*
X143838811Y-90215403D01*
X143871147Y-90153466D01*
X143931836Y-90118845D01*
X143946125Y-90116329D01*
X143953257Y-90115499D01*
X144084864Y-90115499D01*
X144109991Y-90112585D01*
X144157059Y-90091801D01*
X144175677Y-90089637D01*
X144192382Y-90092501D01*
G37*
%TD.AperFunction*%
%TD*%
M02*
