%TF.GenerationSoftware,KiCad,Pcbnew,10.0.0-10.0.0~ubuntu24.04.1*%
%TF.CreationDate,2026-07-05T09:47:00-07:00*%
%TF.ProjectId,INNER_PCB,494e4e45-525f-4504-9342-2e6b69636164,rev?*%
%TF.SameCoordinates,Original*%
%TF.FileFunction,Soldermask,Bot*%
%TF.FilePolarity,Negative*%
%FSLAX46Y46*%
G04 Gerber Fmt 4.6, Leading zero omitted, Abs format (unit mm)*
G04 Created by KiCad (PCBNEW 10.0.0-10.0.0~ubuntu24.04.1) date 2026-07-05 09:47:00*
%MOMM*%
%LPD*%
G01*
G04 APERTURE LIST*
G04 Aperture macros list*
%AMRoundRect*
0 Rectangle with rounded corners*
0 $1 Rounding radius*
0 $2 $3 $4 $5 $6 $7 $8 $9 X,Y pos of 4 corners*
0 Add a 4 corners polygon primitive as box body*
4,1,4,$2,$3,$4,$5,$6,$7,$8,$9,$2,$3,0*
0 Add four circle primitives for the rounded corners*
1,1,$1+$1,$2,$3*
1,1,$1+$1,$4,$5*
1,1,$1+$1,$6,$7*
1,1,$1+$1,$8,$9*
0 Add four rect primitives between the rounded corners*
20,1,$1+$1,$2,$3,$4,$5,0*
20,1,$1+$1,$4,$5,$6,$7,0*
20,1,$1+$1,$6,$7,$8,$9,0*
20,1,$1+$1,$8,$9,$2,$3,0*%
%AMRotRect*
0 Rectangle, with rotation*
0 The origin of the aperture is its center*
0 $1 length*
0 $2 width*
0 $3 Rotation angle, in degrees counterclockwise*
0 Add horizontal line*
21,1,$1,$2,0,0,$3*%
G04 Aperture macros list end*
%ADD10C,0.000000*%
%ADD11RoundRect,0.218750X-0.218750X-0.256250X0.218750X-0.256250X0.218750X0.256250X-0.218750X0.256250X0*%
%ADD12RoundRect,0.135000X0.185000X-0.135000X0.185000X0.135000X-0.185000X0.135000X-0.185000X-0.135000X0*%
%ADD13R,3.000000X3.000000*%
%ADD14RoundRect,0.135000X0.135000X0.185000X-0.135000X0.185000X-0.135000X-0.185000X0.135000X-0.185000X0*%
%ADD15RoundRect,0.050000X-0.375000X-0.050000X0.375000X-0.050000X0.375000X0.050000X-0.375000X0.050000X0*%
%ADD16RoundRect,0.050000X-0.050000X-0.375000X0.050000X-0.375000X0.050000X0.375000X-0.050000X0.375000X0*%
%ADD17R,1.650000X1.650000*%
%ADD18RoundRect,0.135000X-0.185000X0.135000X-0.185000X-0.135000X0.185000X-0.135000X0.185000X0.135000X0*%
%ADD19RoundRect,0.135000X-0.135000X-0.185000X0.135000X-0.185000X0.135000X0.185000X-0.135000X0.185000X0*%
%ADD20R,1.700000X1.700000*%
%ADD21C,1.700000*%
%ADD22RoundRect,0.140000X0.140000X0.170000X-0.140000X0.170000X-0.140000X-0.170000X0.140000X-0.170000X0*%
%ADD23RotRect,1.700000X1.700000X320.000000*%
G04 APERTURE END LIST*
D10*
%TO.C,G\u002A\u002A\u002A*%
G36*
X135488435Y-102240433D02*
G01*
X135533121Y-102547588D01*
X135528313Y-102932204D01*
X135477235Y-103291259D01*
X135383107Y-103521735D01*
X135343861Y-103564605D01*
X135204272Y-103644219D01*
X135123597Y-103510118D01*
X135085043Y-103140850D01*
X135084564Y-103130227D01*
X135101547Y-102700288D01*
X135177555Y-102350262D01*
X135292592Y-102139461D01*
X135426672Y-102127212D01*
X135488435Y-102240433D01*
G37*
G36*
X144332991Y-105459589D02*
G01*
X144377678Y-105766743D01*
X144372873Y-106151359D01*
X144321796Y-106510416D01*
X144227665Y-106740887D01*
X144204022Y-106767417D01*
X144065175Y-106865254D01*
X143978343Y-106760730D01*
X143916069Y-106426095D01*
X143904369Y-106259629D01*
X143934051Y-105890016D01*
X144020439Y-105567928D01*
X144140512Y-105363368D01*
X144271229Y-105346368D01*
X144332991Y-105459589D01*
G37*
G36*
X158402288Y-86473383D02*
G01*
X158499929Y-86697101D01*
X158440917Y-87055022D01*
X158383794Y-87366181D01*
X158414178Y-87872889D01*
X158550739Y-88574286D01*
X158567761Y-88646007D01*
X158789213Y-89482216D01*
X159060630Y-90375048D01*
X159356006Y-91247323D01*
X159649323Y-92021840D01*
X159914575Y-92621422D01*
X160207177Y-93208146D01*
X160924055Y-90999308D01*
X161117288Y-90398660D01*
X161346333Y-89672778D01*
X161543464Y-89032793D01*
X161692403Y-88531705D01*
X161776877Y-88222514D01*
X161858225Y-87947298D01*
X162086142Y-87555477D01*
X162402252Y-87399976D01*
X162816911Y-87473342D01*
X162822549Y-87475594D01*
X163128554Y-87649831D01*
X163314130Y-87847801D01*
X163330054Y-88050933D01*
X163261868Y-88492818D01*
X163106402Y-89143376D01*
X162868515Y-89986354D01*
X162553060Y-91005520D01*
X162164894Y-92184606D01*
X161708853Y-93507403D01*
X161193623Y-94947009D01*
X161189817Y-94957647D01*
X160649005Y-96416801D01*
X160095103Y-97841240D01*
X159599252Y-99032081D01*
X159157356Y-99997667D01*
X158765317Y-100746355D01*
X158419033Y-101286507D01*
X158114421Y-101626491D01*
X157847374Y-101774644D01*
X157782932Y-101783730D01*
X157454296Y-101735682D01*
X157137465Y-101585292D01*
X156955453Y-101386131D01*
X156946735Y-101342380D01*
X156992178Y-101099253D01*
X157161084Y-100691175D01*
X157463200Y-100093311D01*
X157556073Y-99914149D01*
X157804260Y-99407975D01*
X158085730Y-98805217D01*
X158382754Y-98147163D01*
X158677597Y-97475143D01*
X158952528Y-96830462D01*
X159189818Y-96254430D01*
X159371726Y-95788365D01*
X159480541Y-95473570D01*
X159498513Y-95351365D01*
X159486902Y-95353545D01*
X159347525Y-95471047D01*
X159098115Y-95730484D01*
X158783453Y-96085868D01*
X157870264Y-97082426D01*
X156812767Y-98048879D01*
X155800135Y-98761503D01*
X154832292Y-99220344D01*
X153909178Y-99425442D01*
X153432170Y-99430302D01*
X152746540Y-99322201D01*
X152142461Y-99099635D01*
X151703809Y-98786894D01*
X151635019Y-98703314D01*
X151463665Y-98349452D01*
X151441539Y-98187059D01*
X151721856Y-98187059D01*
X151727125Y-98233914D01*
X151873427Y-98509181D01*
X152159678Y-98785480D01*
X152504210Y-98980042D01*
X152638157Y-99016459D01*
X153015150Y-99078899D01*
X153462016Y-99121484D01*
X153541085Y-99125104D01*
X154400173Y-99025407D01*
X155309239Y-98675432D01*
X156265261Y-98077038D01*
X157265244Y-97232060D01*
X158306154Y-96142375D01*
X158372088Y-96067148D01*
X158926223Y-95445522D01*
X159342096Y-95003708D01*
X159640286Y-94722102D01*
X159841373Y-94581076D01*
X159965945Y-94561034D01*
X159981680Y-94633502D01*
X159926438Y-94909562D01*
X159794523Y-95352348D01*
X159601041Y-95921066D01*
X159361100Y-96574903D01*
X159089813Y-97273063D01*
X158802279Y-97974747D01*
X158513620Y-98639144D01*
X158238926Y-99225455D01*
X158041292Y-99631339D01*
X157783279Y-100174414D01*
X157576254Y-100625406D01*
X157452447Y-100915074D01*
X157449708Y-100922226D01*
X157373082Y-101261427D01*
X157470542Y-101442075D01*
X157492724Y-101454638D01*
X157706695Y-101486801D01*
X157943302Y-101354982D01*
X158214333Y-101043068D01*
X158531552Y-100534917D01*
X158906757Y-99814394D01*
X159351709Y-98865358D01*
X159448477Y-98648750D01*
X159795788Y-97832066D01*
X160166407Y-96908103D01*
X160550636Y-95905839D01*
X160938766Y-94854253D01*
X161321100Y-93782315D01*
X161687933Y-92719011D01*
X162029548Y-91693321D01*
X162336254Y-90734221D01*
X162598340Y-89870686D01*
X162806113Y-89131697D01*
X162949855Y-88546231D01*
X163019865Y-88143275D01*
X163006443Y-87951797D01*
X162893827Y-87852078D01*
X162627196Y-87710854D01*
X162588552Y-87697065D01*
X162449620Y-87677334D01*
X162340008Y-87761420D01*
X162222678Y-87996237D01*
X162060601Y-88428690D01*
X161977705Y-88667444D01*
X161801845Y-89198493D01*
X161584735Y-89873834D01*
X161346271Y-90631285D01*
X161106377Y-91408643D01*
X160919446Y-92007051D01*
X160711140Y-92639967D01*
X160531750Y-93148789D01*
X160395867Y-93492409D01*
X160318081Y-93629725D01*
X160294593Y-93634234D01*
X160131165Y-93536960D01*
X159932813Y-93293286D01*
X159676291Y-92896815D01*
X159882528Y-93390403D01*
X160088774Y-93883997D01*
X159560349Y-94155445D01*
X159352040Y-94290856D01*
X158966214Y-94591424D01*
X158472928Y-95008487D01*
X157913797Y-95506654D01*
X157330447Y-96050555D01*
X156979095Y-96381598D01*
X156104857Y-97157577D01*
X155338758Y-97754673D01*
X154648504Y-98194355D01*
X154001811Y-98498111D01*
X153366392Y-98687408D01*
X152947473Y-98762535D01*
X152501173Y-98768052D01*
X152188822Y-98640229D01*
X151952040Y-98365787D01*
X151911875Y-98302910D01*
X151770107Y-98132811D01*
X151721856Y-98187059D01*
X151441539Y-98187059D01*
X151413385Y-97980428D01*
X151504142Y-97704529D01*
X151549606Y-97663065D01*
X151776526Y-97625941D01*
X152005880Y-97762338D01*
X152146834Y-98026712D01*
X152210010Y-98199839D01*
X152439842Y-98391268D01*
X152839933Y-98434546D01*
X153434537Y-98335486D01*
X153978367Y-98165845D01*
X154620922Y-97857107D01*
X155300321Y-97407407D01*
X156052442Y-96792531D01*
X156913166Y-95988278D01*
X157013314Y-95890744D01*
X157560640Y-95371719D01*
X158097978Y-94882637D01*
X158568194Y-94474603D01*
X158914144Y-94198719D01*
X159242179Y-93957961D01*
X159494530Y-93768770D01*
X159593881Y-93688687D01*
X159578921Y-93643781D01*
X159484904Y-93409688D01*
X159323292Y-93022177D01*
X159115767Y-92533696D01*
X158743385Y-91614223D01*
X158237106Y-90103790D01*
X157852859Y-88540027D01*
X157817553Y-88363808D01*
X157705740Y-87635424D01*
X157696830Y-87105725D01*
X157793131Y-86742377D01*
X157996939Y-86513051D01*
X158184029Y-86427855D01*
X158402288Y-86473383D01*
G37*
G36*
X153779091Y-101502699D02*
G01*
X153854337Y-101531102D01*
X154348443Y-101792939D01*
X154724236Y-102158140D01*
X154987850Y-102650265D01*
X155127241Y-103218819D01*
X155145391Y-103292844D01*
X155203010Y-104109424D01*
X155166821Y-105123544D01*
X155042962Y-106358755D01*
X154874855Y-107732382D01*
X155146653Y-107008052D01*
X155277441Y-106628369D01*
X155462325Y-106037647D01*
X155668856Y-105339340D01*
X155877068Y-104604118D01*
X156066996Y-103902637D01*
X156218674Y-103305562D01*
X156312127Y-102883554D01*
X156359892Y-102703768D01*
X156579378Y-102389867D01*
X156917272Y-102297786D01*
X157347288Y-102438825D01*
X157380606Y-102457874D01*
X157663497Y-102654440D01*
X157821079Y-102824223D01*
X157825227Y-102834685D01*
X157827437Y-103081978D01*
X157750338Y-103537172D01*
X157602790Y-104168753D01*
X157393649Y-104945269D01*
X157131787Y-105835243D01*
X156826065Y-106807179D01*
X156485347Y-107829616D01*
X156118486Y-108871077D01*
X155849408Y-109585354D01*
X155572040Y-110321620D01*
X154959067Y-111824340D01*
X154347452Y-113201086D01*
X153755837Y-114410038D01*
X153202866Y-115409376D01*
X153055483Y-115657045D01*
X152892461Y-115936058D01*
X152821979Y-116064120D01*
X152737270Y-116097360D01*
X152492033Y-116122417D01*
X152472614Y-116123056D01*
X152175531Y-116118426D01*
X151976858Y-116044491D01*
X151731896Y-115849266D01*
X151455793Y-115610797D01*
X151473937Y-115570150D01*
X151905385Y-115570150D01*
X152182719Y-115713260D01*
X152383533Y-115784162D01*
X152570044Y-115769561D01*
X152679297Y-115629875D01*
X152888332Y-115290858D01*
X153165982Y-114800900D01*
X153489046Y-114203003D01*
X153834335Y-113540202D01*
X154178646Y-112855531D01*
X154498786Y-112191998D01*
X154761457Y-111610905D01*
X155180320Y-110605914D01*
X155608152Y-109497545D01*
X156028701Y-108334227D01*
X156425718Y-107164388D01*
X156782949Y-106036454D01*
X157084138Y-104998857D01*
X157313039Y-104100014D01*
X157453391Y-103388359D01*
X157475785Y-103121274D01*
X157394175Y-102910501D01*
X157137264Y-102749244D01*
X156752559Y-102565405D01*
X156442214Y-103731148D01*
X156334111Y-104110423D01*
X156141469Y-104727077D01*
X155901175Y-105453620D01*
X155626222Y-106254620D01*
X155329615Y-107094667D01*
X155024372Y-107938320D01*
X154723491Y-108750170D01*
X154439973Y-109494787D01*
X154186826Y-110136745D01*
X153977055Y-110640623D01*
X153823670Y-110971005D01*
X153739663Y-111092448D01*
X153704121Y-111075350D01*
X153689497Y-110890799D01*
X153764968Y-110552822D01*
X153770713Y-110533808D01*
X153981636Y-109782710D01*
X154201321Y-108913286D01*
X154408666Y-108016744D01*
X154582544Y-107184288D01*
X154701836Y-106507131D01*
X154727258Y-106327960D01*
X154799504Y-105706084D01*
X154855011Y-105058673D01*
X154891055Y-104442038D01*
X154904913Y-103912520D01*
X154893854Y-103526422D01*
X154855158Y-103340076D01*
X154821089Y-103364045D01*
X154790848Y-103578338D01*
X154783147Y-103944507D01*
X154774006Y-104596434D01*
X154662180Y-105886481D01*
X154423989Y-107317722D01*
X154055455Y-108908629D01*
X153552610Y-110677681D01*
X153431532Y-111048901D01*
X153285566Y-111496409D01*
X152911478Y-112643330D01*
X151905385Y-115570150D01*
X151473937Y-115570150D01*
X151978722Y-114439330D01*
X152088464Y-114186345D01*
X152332042Y-113576154D01*
X152534840Y-113004632D01*
X152661497Y-112568697D01*
X152745288Y-112174172D01*
X152753813Y-111964743D01*
X152669654Y-111885088D01*
X152476627Y-111874444D01*
X152042369Y-111826334D01*
X151391456Y-111612309D01*
X150755973Y-111267708D01*
X150232379Y-110837113D01*
X149881316Y-110409890D01*
X149419907Y-109537544D01*
X149173210Y-108534526D01*
X149159719Y-108048666D01*
X149457558Y-108048666D01*
X149607603Y-109060261D01*
X149954507Y-109943036D01*
X150496332Y-110675885D01*
X150648899Y-110816629D01*
X151073487Y-111111687D01*
X151546974Y-111343824D01*
X152016000Y-111498011D01*
X152427246Y-111559221D01*
X152727361Y-111512433D01*
X152863022Y-111342620D01*
X152862609Y-111265981D01*
X152776436Y-111146906D01*
X152538271Y-111027423D01*
X152098769Y-110877491D01*
X152061696Y-110865742D01*
X151570743Y-110684535D01*
X151243837Y-110491215D01*
X150995601Y-110236146D01*
X150829416Y-109977049D01*
X150584446Y-109309768D01*
X150448669Y-108462539D01*
X150424105Y-107471866D01*
X150430611Y-107391338D01*
X150731610Y-107391338D01*
X150769404Y-108483373D01*
X150777557Y-108547240D01*
X150898753Y-109128900D01*
X151084180Y-109662848D01*
X151304751Y-110079376D01*
X151531363Y-110308775D01*
X151680085Y-110373761D01*
X152009118Y-110506495D01*
X152429659Y-110670031D01*
X153192255Y-110961812D01*
X153509794Y-109842509D01*
X153519830Y-109806997D01*
X153832154Y-108590460D01*
X154089081Y-107367888D01*
X154283595Y-106188776D01*
X154408668Y-105102630D01*
X154457295Y-104158946D01*
X154422445Y-103407231D01*
X154323925Y-102927309D01*
X154320016Y-102919160D01*
X154656368Y-102919160D01*
X154668203Y-102964084D01*
X154747725Y-103089618D01*
X154767170Y-103087761D01*
X154777524Y-102963258D01*
X154765690Y-102918330D01*
X154686162Y-102792796D01*
X154666719Y-102794653D01*
X154656368Y-102919160D01*
X154320016Y-102919160D01*
X154078465Y-102415630D01*
X153726157Y-102115433D01*
X153285901Y-102040556D01*
X152776630Y-102204810D01*
X152651031Y-102277010D01*
X152269987Y-102578461D01*
X151940462Y-102999007D01*
X151632020Y-103583873D01*
X151314233Y-104378292D01*
X151112630Y-105004561D01*
X150850231Y-106199955D01*
X150731610Y-107391338D01*
X150430611Y-107391338D01*
X150512788Y-106374229D01*
X150716736Y-105206108D01*
X150879561Y-104582447D01*
X151228956Y-103645873D01*
X151659878Y-102851327D01*
X152144597Y-102256066D01*
X152285143Y-102116713D01*
X152435700Y-101928839D01*
X152404113Y-101887117D01*
X152211540Y-101992388D01*
X151879149Y-102245496D01*
X151213266Y-102889977D01*
X150513561Y-103868793D01*
X149977501Y-105035958D01*
X149755781Y-105723519D01*
X149506297Y-106929378D01*
X149457558Y-108048666D01*
X149159719Y-108048666D01*
X149141978Y-107409722D01*
X149326947Y-106172036D01*
X149728874Y-104830330D01*
X150088909Y-103999471D01*
X150604570Y-103135417D01*
X151192640Y-102423707D01*
X151828622Y-101884452D01*
X152488026Y-101537778D01*
X153146345Y-101403822D01*
X153779091Y-101502699D01*
G37*
G36*
X150017507Y-88103003D02*
G01*
X150284552Y-88278480D01*
X150437862Y-88398256D01*
X150755128Y-88509762D01*
X151072711Y-88623890D01*
X151207346Y-88856333D01*
X151164183Y-89153926D01*
X151162618Y-89156203D01*
X150950981Y-89463723D01*
X150575520Y-89732803D01*
X150226462Y-89910464D01*
X150416659Y-90227000D01*
X150430479Y-90250622D01*
X150507304Y-90447516D01*
X150514137Y-90693971D01*
X150445228Y-91054361D01*
X150294850Y-91593067D01*
X150162409Y-92175917D01*
X150066238Y-92599116D01*
X149989770Y-93536969D01*
X149993693Y-93878239D01*
X150007118Y-94229329D01*
X150012109Y-94360113D01*
X150052384Y-94588818D01*
X150055373Y-94605837D01*
X150136166Y-94629749D01*
X150267177Y-94446203D01*
X150461111Y-94069530D01*
X150641193Y-93680115D01*
X150770999Y-93353408D01*
X150811302Y-93183411D01*
X150816039Y-93123149D01*
X150880104Y-92852902D01*
X151002252Y-92431411D01*
X151165369Y-91919737D01*
X151284397Y-91566734D01*
X151440662Y-91145813D01*
X151567645Y-90892282D01*
X151692836Y-90756219D01*
X151843729Y-90687678D01*
X152078922Y-90666735D01*
X152481603Y-90799336D01*
X152649694Y-90890773D01*
X153050316Y-91084531D01*
X153497002Y-91280503D01*
X153513052Y-91287182D01*
X154052951Y-91575994D01*
X154417303Y-91944005D01*
X154645455Y-92448605D01*
X154776740Y-93147185D01*
X154806286Y-93448382D01*
X154806939Y-93906516D01*
X154725753Y-94353115D01*
X154557916Y-94875327D01*
X154546868Y-94909702D01*
X154353000Y-95390457D01*
X154116718Y-95859119D01*
X153903921Y-96168651D01*
X153470473Y-96475459D01*
X152979958Y-96570451D01*
X152500025Y-96463105D01*
X152093867Y-96167716D01*
X151824692Y-95698569D01*
X151670531Y-95225471D01*
X151342535Y-95470543D01*
X150984720Y-95649993D01*
X150569020Y-95742932D01*
X150281862Y-95761033D01*
X150093687Y-95746750D01*
X149945595Y-95656465D01*
X149721146Y-95449942D01*
X149717932Y-95446959D01*
X149567778Y-95248254D01*
X150396177Y-95248254D01*
X150409285Y-95437472D01*
X150507235Y-95500661D01*
X150688835Y-95463132D01*
X150952877Y-95350221D01*
X151019653Y-95314391D01*
X151341681Y-95045693D01*
X151611445Y-94691043D01*
X151808075Y-94407866D01*
X151978006Y-94315522D01*
X152072054Y-94466038D01*
X152073160Y-94853431D01*
X152071060Y-94875680D01*
X152074757Y-95257835D01*
X152139521Y-95554290D01*
X152145250Y-95566797D01*
X152211762Y-95678234D01*
X152236024Y-95596292D01*
X152228755Y-95289153D01*
X152226908Y-95172181D01*
X152229999Y-95105482D01*
X152541511Y-95105482D01*
X152564620Y-95332797D01*
X152633185Y-95387519D01*
X152748491Y-95293713D01*
X152812653Y-95209271D01*
X153022887Y-94770595D01*
X153183304Y-94183762D01*
X153268691Y-93534064D01*
X153275128Y-93335276D01*
X153249385Y-92870665D01*
X153176669Y-92479732D01*
X153071359Y-92223873D01*
X152947836Y-92164467D01*
X152894603Y-92292489D01*
X152822040Y-92627808D01*
X152742053Y-93117101D01*
X152664296Y-93707771D01*
X152626533Y-94036731D01*
X152562572Y-94681487D01*
X152541511Y-95105482D01*
X152229999Y-95105482D01*
X152247773Y-94721969D01*
X152299280Y-94145375D01*
X152371950Y-93519145D01*
X152456295Y-92920008D01*
X152542804Y-92424721D01*
X152621999Y-92110007D01*
X152686333Y-91970813D01*
X152878680Y-91800034D01*
X153098420Y-91837761D01*
X153313034Y-92056693D01*
X153490027Y-92429519D01*
X153596889Y-92928932D01*
X153604072Y-93197291D01*
X153542250Y-93720606D01*
X153408044Y-94298200D01*
X153229921Y-94845957D01*
X153222722Y-94868092D01*
X153007557Y-95368312D01*
X152783845Y-95736872D01*
X152572846Y-95911794D01*
X152452324Y-95949254D01*
X152372412Y-96018802D01*
X152513285Y-96137852D01*
X152867016Y-96248820D01*
X153289804Y-96178420D01*
X153671653Y-95937115D01*
X153783283Y-95806428D01*
X154041224Y-95354205D01*
X154267876Y-94769761D01*
X154432476Y-94141035D01*
X154504287Y-93555972D01*
X154495799Y-93247899D01*
X154347741Y-92586790D01*
X154043107Y-92050231D01*
X153610655Y-91679414D01*
X153079148Y-91515505D01*
X152819223Y-91457362D01*
X152685280Y-91350212D01*
X152683180Y-91342667D01*
X152540691Y-91206967D01*
X152258862Y-91069843D01*
X151860521Y-90924859D01*
X151056602Y-93170101D01*
X150878028Y-93671171D01*
X150629341Y-94390430D01*
X150469130Y-94907682D01*
X150396177Y-95248254D01*
X149567778Y-95248254D01*
X149470314Y-95119276D01*
X149335621Y-94759966D01*
X149286956Y-94419147D01*
X149586198Y-94419147D01*
X149624726Y-94501777D01*
X149707357Y-94463245D01*
X149668825Y-94380614D01*
X149586198Y-94419147D01*
X149286956Y-94419147D01*
X149280637Y-94374894D01*
X148834699Y-94628312D01*
X148581568Y-94748569D01*
X148029650Y-94852207D01*
X147537512Y-94739252D01*
X147206892Y-94471716D01*
X147758124Y-94471716D01*
X147870639Y-94545019D01*
X148166759Y-94566889D01*
X148559264Y-94412550D01*
X148845111Y-94167625D01*
X149586274Y-94167625D01*
X149615818Y-94199845D01*
X149696446Y-94116252D01*
X149711046Y-94048929D01*
X149645071Y-94006081D01*
X149624107Y-94018561D01*
X149586274Y-94167625D01*
X148845111Y-94167625D01*
X148919484Y-94103899D01*
X149189959Y-93693193D01*
X149313255Y-93232695D01*
X149355731Y-92975708D01*
X149566823Y-92614590D01*
X149676543Y-92473018D01*
X149854288Y-92063770D01*
X150040166Y-91414788D01*
X150286867Y-90420700D01*
X149834537Y-90212671D01*
X149382207Y-90004650D01*
X148815399Y-91831284D01*
X148628394Y-92415902D01*
X148363785Y-93173084D01*
X148136848Y-93732171D01*
X148003905Y-93980448D01*
X147957782Y-94066587D01*
X147786211Y-94330064D01*
X147758124Y-94471716D01*
X147206892Y-94471716D01*
X147150776Y-94426307D01*
X146915078Y-93929963D01*
X146850226Y-93510890D01*
X146843676Y-93339576D01*
X147118853Y-93339576D01*
X147140979Y-93597770D01*
X147178498Y-93704565D01*
X147236382Y-93701093D01*
X147251311Y-93613640D01*
X147229183Y-93355450D01*
X147191666Y-93248649D01*
X147133780Y-93252124D01*
X147118853Y-93339576D01*
X146843676Y-93339576D01*
X146830649Y-92998858D01*
X146855328Y-92490557D01*
X146920045Y-92070036D01*
X147020607Y-91821374D01*
X147055040Y-91784924D01*
X147244298Y-91710580D01*
X147395725Y-91866822D01*
X147497250Y-92231231D01*
X147536821Y-92781381D01*
X147538229Y-92929316D01*
X147552532Y-93412094D01*
X147587671Y-93702385D01*
X147653002Y-93791260D01*
X147757883Y-93669772D01*
X147911673Y-93328990D01*
X148123727Y-92759970D01*
X148403415Y-91953788D01*
X148564955Y-91482116D01*
X148785014Y-90853545D01*
X148950514Y-90412916D01*
X149078145Y-90124423D01*
X149184594Y-89952261D01*
X149286539Y-89860621D01*
X149400681Y-89813703D01*
X149599830Y-89740009D01*
X149639845Y-89621873D01*
X149547352Y-89363587D01*
X149385283Y-88840256D01*
X149377949Y-88512297D01*
X149680501Y-88512297D01*
X149696505Y-88740458D01*
X149774016Y-89073321D01*
X149795085Y-89141985D01*
X149901745Y-89426338D01*
X149984133Y-89555866D01*
X150138026Y-89548198D01*
X150422109Y-89426703D01*
X150697989Y-89237506D01*
X150856293Y-89044707D01*
X150906458Y-88853499D01*
X150829811Y-88796039D01*
X150571984Y-88893785D01*
X150453680Y-88944319D01*
X150293732Y-88940108D01*
X150160023Y-88743842D01*
X149992504Y-88511363D01*
X149807837Y-88405145D01*
X149685306Y-88492199D01*
X149680501Y-88512297D01*
X149377949Y-88512297D01*
X149375716Y-88412443D01*
X149531932Y-88146188D01*
X149848820Y-88063542D01*
X150017507Y-88103003D01*
G37*
G36*
X129890851Y-99710333D02*
G01*
X130233890Y-99850531D01*
X130328390Y-99903703D01*
X130723260Y-100090889D01*
X131159913Y-100262920D01*
X131300900Y-100318084D01*
X131720239Y-100541403D01*
X132032776Y-100787943D01*
X132127586Y-100906401D01*
X132376457Y-101417994D01*
X132524528Y-102065156D01*
X132549432Y-102762394D01*
X132543973Y-102856181D01*
X132532219Y-103199246D01*
X132529821Y-103269240D01*
X132533293Y-103579771D01*
X132536694Y-103708782D01*
X132529244Y-104085628D01*
X132506447Y-104530464D01*
X132461609Y-105200185D01*
X132792391Y-104330642D01*
X132941411Y-103955714D01*
X133096781Y-103641371D01*
X133238892Y-103480699D01*
X133403165Y-103420971D01*
X133617866Y-103410148D01*
X134073065Y-103555046D01*
X134433835Y-103938341D01*
X134463067Y-103984213D01*
X134642826Y-104191154D01*
X134746104Y-104167162D01*
X134763765Y-103928401D01*
X134686683Y-103491031D01*
X134613765Y-102896648D01*
X134649431Y-102525866D01*
X134939555Y-102525866D01*
X134941846Y-103048832D01*
X135076965Y-103611181D01*
X135169749Y-104016617D01*
X135088352Y-104376208D01*
X135020712Y-104602933D01*
X135130181Y-104735426D01*
X135380801Y-104734886D01*
X135722756Y-104584931D01*
X135983589Y-104360523D01*
X136252533Y-103922231D01*
X136404045Y-103397690D01*
X136436432Y-102849164D01*
X136348001Y-102338916D01*
X136137050Y-101929192D01*
X135801883Y-101682245D01*
X135559081Y-101647109D01*
X135265229Y-101779616D01*
X135053041Y-102087662D01*
X134939555Y-102525866D01*
X134649431Y-102525866D01*
X134670285Y-102309073D01*
X134841771Y-101804463D01*
X135108867Y-101438999D01*
X135452214Y-101268866D01*
X135758724Y-101298438D01*
X136158018Y-101514351D01*
X136501000Y-101876791D01*
X136718744Y-102328119D01*
X136723182Y-102344319D01*
X136775716Y-102631274D01*
X136761505Y-102933600D01*
X136669577Y-103325449D01*
X136488957Y-103880977D01*
X136450642Y-103994335D01*
X136428204Y-104060752D01*
X136244665Y-104707311D01*
X136155590Y-105289935D01*
X136138601Y-105940126D01*
X136143110Y-106179212D01*
X136146947Y-106267123D01*
X136160351Y-106574211D01*
X136196475Y-106764904D01*
X136263303Y-106788850D01*
X136372663Y-106683631D01*
X136395174Y-106652836D01*
X136529213Y-106383260D01*
X136711561Y-105925374D01*
X136923917Y-105327469D01*
X137147985Y-104637816D01*
X137312869Y-104112850D01*
X137496216Y-103555017D01*
X137636172Y-103178908D01*
X137749443Y-102945909D01*
X137852732Y-102817398D01*
X137962754Y-102754764D01*
X138005587Y-102738710D01*
X138135990Y-102649508D01*
X138150057Y-102481036D01*
X138061013Y-102152070D01*
X137983258Y-101808512D01*
X137993474Y-101504593D01*
X138234152Y-101504593D01*
X138279126Y-101739257D01*
X138396573Y-102072500D01*
X138493894Y-102271925D01*
X138701994Y-102477674D01*
X138965768Y-102449521D01*
X139320589Y-102192039D01*
X139363944Y-102151122D01*
X139500831Y-101941150D01*
X139419532Y-101844089D01*
X139144895Y-101901087D01*
X138975526Y-101964178D01*
X138846844Y-101951444D01*
X138795759Y-101774311D01*
X138738318Y-101635316D01*
X138563443Y-101466455D01*
X138365763Y-101394075D01*
X138238772Y-101469367D01*
X138234152Y-101504593D01*
X137993474Y-101504593D01*
X137997266Y-101391791D01*
X138157068Y-101129084D01*
X138449419Y-101057669D01*
X138679700Y-101114154D01*
X138894089Y-101249618D01*
X138902937Y-101260307D01*
X139116323Y-101414128D01*
X139439261Y-101563864D01*
X139674344Y-101665948D01*
X139803332Y-101812987D01*
X139784351Y-102044344D01*
X139783744Y-102051751D01*
X139650572Y-102316497D01*
X139281936Y-102621125D01*
X138859171Y-102858362D01*
X139038714Y-103208058D01*
X139064367Y-103261245D01*
X139125356Y-103473335D01*
X139120197Y-103741444D01*
X139042458Y-104128002D01*
X138885724Y-104695432D01*
X138868799Y-104753732D01*
X138785072Y-105089697D01*
X138688017Y-105479107D01*
X138608159Y-106086315D01*
X138614927Y-106680006D01*
X138641566Y-106993486D01*
X138714439Y-107488700D01*
X138815962Y-107751132D01*
X138955332Y-107797614D01*
X139141732Y-107644974D01*
X139353653Y-107284358D01*
X139510089Y-106759651D01*
X139562676Y-106215950D01*
X139489988Y-105768781D01*
X139431045Y-105615410D01*
X139258052Y-105041382D01*
X139223033Y-104582348D01*
X139317602Y-104159976D01*
X139512740Y-103802401D01*
X139863104Y-103502348D01*
X140274111Y-103397274D01*
X140686162Y-103515245D01*
X141153576Y-103887929D01*
X141449219Y-104368998D01*
X141558147Y-104978425D01*
X141493697Y-105753112D01*
X141441273Y-106098037D01*
X141430566Y-106191307D01*
X141392604Y-106522136D01*
X141380115Y-106799753D01*
X141382892Y-106928896D01*
X141375068Y-107305507D01*
X141353064Y-107750368D01*
X141310284Y-108420842D01*
X141591746Y-107586150D01*
X141703851Y-107267683D01*
X141850859Y-106933332D01*
X141994200Y-106752137D01*
X142171004Y-106665012D01*
X142490191Y-106630628D01*
X142925022Y-106783131D01*
X143278391Y-107157494D01*
X143313408Y-107212146D01*
X143490961Y-107412939D01*
X143591609Y-107383185D01*
X143606750Y-107138806D01*
X143527775Y-106695743D01*
X143521588Y-106669063D01*
X143468453Y-106108659D01*
X143473809Y-106058011D01*
X143792866Y-106058011D01*
X143867220Y-106688240D01*
X143911135Y-106928963D01*
X143942301Y-107386523D01*
X143872182Y-107654064D01*
X143817397Y-107830280D01*
X143942886Y-107941930D01*
X144193389Y-107956317D01*
X144503910Y-107852973D01*
X144524169Y-107841921D01*
X144734007Y-107669283D01*
X144912342Y-107376227D01*
X145100465Y-106896569D01*
X145194651Y-106590386D01*
X145281230Y-105952962D01*
X145164019Y-105445945D01*
X144839674Y-105045606D01*
X144521042Y-104874622D01*
X144222073Y-104907479D01*
X143988743Y-105136448D01*
X143839525Y-105530356D01*
X143792866Y-106058011D01*
X143473809Y-106058011D01*
X143529990Y-105526710D01*
X143688424Y-105013875D01*
X143926037Y-104660824D01*
X144083601Y-104553290D01*
X144457794Y-104486564D01*
X144842910Y-104613519D01*
X145189821Y-104899796D01*
X145449422Y-105311014D01*
X145572585Y-105812821D01*
X145615820Y-106413220D01*
X145856657Y-106134369D01*
X146118571Y-105923966D01*
X146486123Y-105764125D01*
X146719404Y-105728004D01*
X146977850Y-105782424D01*
X147293691Y-105984754D01*
X147337448Y-106019106D01*
X147659139Y-106367668D01*
X147881829Y-106759676D01*
X147960091Y-107215946D01*
X147931329Y-107846237D01*
X147804737Y-108555501D01*
X147597748Y-109270310D01*
X147528938Y-109435192D01*
X147327788Y-109917234D01*
X147012287Y-110422850D01*
X146804126Y-110619234D01*
X146342499Y-110863973D01*
X145829945Y-110978321D01*
X145374904Y-110928795D01*
X145173171Y-110827600D01*
X144869429Y-110540379D01*
X145493211Y-110540379D01*
X145658873Y-110610206D01*
X145950597Y-110667171D01*
X146341072Y-110585153D01*
X146706051Y-110286193D01*
X147077044Y-109751201D01*
X147084661Y-109737881D01*
X147254550Y-109335327D01*
X147420022Y-108778589D01*
X147558666Y-108166058D01*
X147648054Y-107596154D01*
X147665766Y-107167285D01*
X147597878Y-106887991D01*
X147365430Y-106511346D01*
X147032781Y-106217823D01*
X146664851Y-106059682D01*
X146326550Y-106089186D01*
X146209411Y-106177698D01*
X146024598Y-106484723D01*
X145926031Y-106875554D01*
X145950899Y-107236583D01*
X146013756Y-107413035D01*
X146042867Y-107392057D01*
X146049734Y-107132621D01*
X146077048Y-106887190D01*
X146185132Y-106557530D01*
X146337551Y-106321421D01*
X146493268Y-106259635D01*
X146553466Y-106337687D01*
X146612023Y-106615209D01*
X146630881Y-107014066D01*
X146607693Y-107453949D01*
X146540071Y-107854574D01*
X146475338Y-108112015D01*
X146352075Y-108613791D01*
X146227473Y-109131443D01*
X146146174Y-109427362D01*
X146111126Y-109554950D01*
X145943206Y-109937368D01*
X145717688Y-110215077D01*
X145677728Y-110253072D01*
X145496073Y-110444336D01*
X145493211Y-110540379D01*
X144869429Y-110540379D01*
X144779252Y-110455107D01*
X144476700Y-109933415D01*
X144301299Y-109334928D01*
X144288851Y-108732067D01*
X144301146Y-108612229D01*
X144264316Y-108442552D01*
X144203951Y-108397832D01*
X144967152Y-108397832D01*
X144984788Y-108934997D01*
X145025977Y-109343137D01*
X145124105Y-109835378D01*
X145255389Y-110116742D01*
X145411758Y-110164014D01*
X145503878Y-110033282D01*
X145649492Y-109724158D01*
X145814147Y-109306516D01*
X145949121Y-108913082D01*
X146021510Y-108588280D01*
X146001821Y-108342519D01*
X145895821Y-108089933D01*
X145868598Y-108033599D01*
X145723105Y-107601252D01*
X145641520Y-107139631D01*
X145599189Y-106599121D01*
X145412692Y-107010212D01*
X145261164Y-107344218D01*
X145177797Y-107533683D01*
X145023551Y-107976449D01*
X144967152Y-108397832D01*
X144203951Y-108397832D01*
X144096772Y-108318431D01*
X143740035Y-108181192D01*
X143143290Y-107974133D01*
X143125506Y-108022992D01*
X142978191Y-108427737D01*
X142869824Y-108681749D01*
X142496912Y-109238194D01*
X142029272Y-109614851D01*
X141933821Y-109655390D01*
X141634891Y-109667325D01*
X141218256Y-109525727D01*
X140890932Y-109355846D01*
X140683880Y-109140238D01*
X140679641Y-109128443D01*
X141337576Y-109128443D01*
X141338675Y-109280495D01*
X141409486Y-109344931D01*
X141415321Y-109346886D01*
X141818217Y-109354581D01*
X142204201Y-109114896D01*
X142562552Y-108638125D01*
X142882517Y-107934547D01*
X142946291Y-107725828D01*
X142966791Y-107296903D01*
X142794361Y-107018327D01*
X142437141Y-106908858D01*
X142341109Y-106918180D01*
X142221968Y-106996688D01*
X142093591Y-107189888D01*
X141929581Y-107540302D01*
X141703545Y-108090442D01*
X141584267Y-108391865D01*
X141435065Y-108795172D01*
X141416128Y-108846359D01*
X141337576Y-109128443D01*
X140679641Y-109128443D01*
X140564266Y-108807403D01*
X140444769Y-108324329D01*
X140065467Y-108515828D01*
X139822912Y-108607486D01*
X139286175Y-108633076D01*
X138768951Y-108454557D01*
X138481391Y-108220121D01*
X139154430Y-108220121D01*
X139316834Y-108312725D01*
X139340808Y-108320071D01*
X139639252Y-108316233D01*
X139992307Y-108207044D01*
X140088101Y-108158345D01*
X140782801Y-108158345D01*
X140811705Y-108521869D01*
X140829920Y-108580125D01*
X140881887Y-108693771D01*
X140916436Y-108606406D01*
X140950403Y-108289855D01*
X140971244Y-108015087D01*
X140971334Y-107740322D01*
X140924700Y-107711195D01*
X140829583Y-107922370D01*
X140782801Y-108158345D01*
X140088101Y-108158345D01*
X140167268Y-108118099D01*
X140349685Y-107966044D01*
X140467474Y-107725689D01*
X140574712Y-107314096D01*
X140628050Y-107104347D01*
X140770002Y-106710949D01*
X140912827Y-106513889D01*
X141008394Y-106412048D01*
X141137398Y-106084597D01*
X141219936Y-105632166D01*
X141248452Y-105136658D01*
X141215382Y-104679986D01*
X141113166Y-104344050D01*
X140843926Y-104008717D01*
X140481367Y-103786926D01*
X140113323Y-103737659D01*
X139808880Y-103885207D01*
X139683785Y-104044668D01*
X139535435Y-104510975D01*
X139602628Y-105055130D01*
X139617285Y-105100930D01*
X139671271Y-105238078D01*
X139690010Y-105168354D01*
X139684463Y-104866420D01*
X139698896Y-104591428D01*
X139790683Y-104232472D01*
X139937828Y-103990428D01*
X140108282Y-103935689D01*
X140168237Y-104004126D01*
X140230796Y-104276585D01*
X140246684Y-104682171D01*
X140214734Y-105145568D01*
X140133794Y-105591480D01*
X139945798Y-106304622D01*
X139743518Y-107008257D01*
X139573598Y-107509466D01*
X139426205Y-107836571D01*
X139291514Y-108017892D01*
X139214627Y-108090588D01*
X139154430Y-108220121D01*
X138481391Y-108220121D01*
X138335147Y-108100894D01*
X138048667Y-107601103D01*
X137986641Y-107435173D01*
X137883439Y-107284848D01*
X137776422Y-107339116D01*
X137752214Y-107364729D01*
X137521239Y-107531133D01*
X137190711Y-107709069D01*
X136833375Y-107814373D01*
X136339744Y-107786352D01*
X135916378Y-107578241D01*
X135884431Y-107536319D01*
X136442208Y-107536319D01*
X136461457Y-107540677D01*
X136709815Y-107521598D01*
X137035863Y-107434362D01*
X137301239Y-107314646D01*
X137494090Y-107148261D01*
X137775797Y-106694054D01*
X137907322Y-106137057D01*
X137961708Y-105820134D01*
X138101858Y-105618959D01*
X138135080Y-105596720D01*
X138293238Y-105369373D01*
X138467209Y-104973996D01*
X138630177Y-104478930D01*
X138755342Y-103952559D01*
X138761413Y-103917912D01*
X138749373Y-103471938D01*
X138567032Y-103165094D01*
X138239653Y-103041997D01*
X138176100Y-103048115D01*
X138087302Y-103103512D01*
X137988406Y-103242607D01*
X137864420Y-103497341D01*
X137700353Y-103899666D01*
X137481216Y-104481529D01*
X137192015Y-105274889D01*
X136939718Y-105981757D01*
X136725670Y-106600198D01*
X136584276Y-107026605D01*
X136563002Y-107090797D01*
X136464307Y-107415514D01*
X136442208Y-107536319D01*
X135884431Y-107536319D01*
X135638958Y-107214198D01*
X135578833Y-107050971D01*
X135460925Y-106459005D01*
X135748456Y-106459005D01*
X135786336Y-106652687D01*
X135796595Y-106674148D01*
X135864213Y-106764529D01*
X135878847Y-106609552D01*
X135859580Y-106474489D01*
X135782681Y-106405327D01*
X135748456Y-106459005D01*
X135460925Y-106459005D01*
X135434782Y-106327755D01*
X135438394Y-106113603D01*
X135725155Y-106113603D01*
X135763686Y-106196231D01*
X135846314Y-106157701D01*
X135807784Y-106075073D01*
X135725155Y-106113603D01*
X135438394Y-106113603D01*
X135447350Y-105582526D01*
X135466203Y-105407637D01*
X135431435Y-105226862D01*
X135266825Y-105102807D01*
X134914258Y-104968554D01*
X134324682Y-104763981D01*
X134269983Y-104886043D01*
X134018247Y-105447837D01*
X133764033Y-105913636D01*
X133389571Y-106300823D01*
X132953569Y-106446810D01*
X132442396Y-106359472D01*
X132336129Y-106317831D01*
X131994553Y-106094140D01*
X131947923Y-106017129D01*
X132402213Y-106017129D01*
X132516576Y-106110584D01*
X132746954Y-106154532D01*
X133014245Y-106121678D01*
X133344455Y-105923464D01*
X133699523Y-105469272D01*
X134010928Y-104791759D01*
X134089405Y-104567764D01*
X134166481Y-104257286D01*
X134137580Y-104057528D01*
X134001874Y-103885363D01*
X133814107Y-103733818D01*
X133581273Y-103681240D01*
X133368329Y-103832743D01*
X133155640Y-104205271D01*
X132923580Y-104815751D01*
X132876687Y-104951806D01*
X132703563Y-105411593D01*
X132601784Y-105642395D01*
X132550612Y-105758426D01*
X132446430Y-105925798D01*
X132402213Y-106017129D01*
X131947923Y-106017129D01*
X131769500Y-105722454D01*
X131572084Y-105258500D01*
X131263888Y-105458439D01*
X130954690Y-105582825D01*
X130496767Y-105571533D01*
X130061650Y-105383604D01*
X129720802Y-105054004D01*
X129545643Y-104617669D01*
X129475915Y-104379833D01*
X129325664Y-104298294D01*
X129120895Y-104466004D01*
X128894772Y-104643224D01*
X128481695Y-104745197D01*
X128012924Y-104711082D01*
X127574599Y-104549888D01*
X127260542Y-104277273D01*
X128005698Y-104277273D01*
X128016466Y-104462402D01*
X128200358Y-104494802D01*
X128567966Y-104398786D01*
X128904442Y-104207554D01*
X129188342Y-103904235D01*
X129429512Y-103525563D01*
X129630956Y-103276243D01*
X129747739Y-103258404D01*
X129796603Y-103472420D01*
X129794239Y-103918712D01*
X129792000Y-104010694D01*
X129808896Y-104342751D01*
X129858354Y-104530729D01*
X129881947Y-104539141D01*
X129927391Y-104403247D01*
X129941904Y-104188452D01*
X130281401Y-104188452D01*
X130319333Y-104423641D01*
X130402157Y-104440963D01*
X130528430Y-104222150D01*
X130845271Y-103314567D01*
X131010961Y-102247299D01*
X131007621Y-101929316D01*
X130947945Y-101531081D01*
X130837648Y-101281011D01*
X130693815Y-101233677D01*
X130651241Y-101328831D01*
X130578408Y-101634766D01*
X130493156Y-102098248D01*
X130406383Y-102665106D01*
X130345915Y-103137653D01*
X130289784Y-103753701D01*
X130281401Y-104188452D01*
X129941904Y-104188452D01*
X129947882Y-104099968D01*
X129956185Y-103911118D01*
X129997169Y-103439947D01*
X130064219Y-102849346D01*
X130148272Y-102224107D01*
X130177330Y-102028296D01*
X130277970Y-101439973D01*
X130378180Y-101063295D01*
X130496432Y-100862592D01*
X130651153Y-100802185D01*
X130860812Y-100846406D01*
X130977727Y-100944370D01*
X131139385Y-101246398D01*
X131266977Y-101664187D01*
X131329732Y-102114520D01*
X131330828Y-102371873D01*
X131256797Y-103023139D01*
X131093165Y-103671138D01*
X130863073Y-104252252D01*
X130817489Y-104327359D01*
X130589641Y-104702808D01*
X130296005Y-104959166D01*
X130170407Y-105027652D01*
X130170319Y-105104652D01*
X130397153Y-105203433D01*
X130692407Y-105247940D01*
X130851936Y-105207268D01*
X131971203Y-105207268D01*
X132013265Y-105448629D01*
X132026025Y-105470513D01*
X132083572Y-105453768D01*
X132118913Y-105271742D01*
X132123841Y-105001961D01*
X132090150Y-104721967D01*
X132078968Y-104677678D01*
X132034587Y-104658175D01*
X131986656Y-104890114D01*
X131971203Y-105207268D01*
X130851936Y-105207268D01*
X131138149Y-105134298D01*
X131322476Y-105028346D01*
X131482464Y-104865681D01*
X131600572Y-104601668D01*
X131722329Y-104160419D01*
X131827996Y-103797214D01*
X131962112Y-103457130D01*
X132075437Y-103289990D01*
X132081921Y-103285878D01*
X132195671Y-103076753D01*
X132243114Y-102686454D01*
X132243739Y-102606715D01*
X132158403Y-101829885D01*
X131914141Y-101212036D01*
X131524506Y-100776545D01*
X131003060Y-100546830D01*
X130974478Y-100540661D01*
X130575459Y-100402591D01*
X130257898Y-100213353D01*
X130058567Y-100079421D01*
X129735375Y-100011428D01*
X129696202Y-100018801D01*
X129590812Y-100073154D01*
X129494123Y-100207943D01*
X129387465Y-100465371D01*
X129252168Y-100887653D01*
X129069573Y-101517019D01*
X128961699Y-101880560D01*
X128722743Y-102602157D01*
X128480780Y-103238274D01*
X128266240Y-103705996D01*
X128160555Y-103909153D01*
X128157466Y-103915090D01*
X128005698Y-104277273D01*
X127260542Y-104277273D01*
X127252888Y-104270629D01*
X127205874Y-104187964D01*
X127089430Y-103789647D01*
X127030843Y-103280804D01*
X127309915Y-103280804D01*
X127332046Y-103538990D01*
X127369560Y-103645793D01*
X127427445Y-103642321D01*
X127442372Y-103554864D01*
X127420241Y-103296675D01*
X127382731Y-103189872D01*
X127324845Y-103193350D01*
X127309915Y-103280804D01*
X127030843Y-103280804D01*
X127027281Y-103249868D01*
X127025753Y-102653953D01*
X127091157Y-102087247D01*
X127122528Y-101929847D01*
X127193983Y-101681558D01*
X127289087Y-101616871D01*
X127453901Y-101684628D01*
X127504934Y-101717469D01*
X127630521Y-101890860D01*
X127697482Y-102205772D01*
X127720592Y-102719560D01*
X127723290Y-102924450D01*
X127740704Y-103393989D01*
X127779310Y-103670035D01*
X127847986Y-103743697D01*
X127955594Y-103606069D01*
X128111009Y-103248248D01*
X128323105Y-102661339D01*
X128600750Y-101836428D01*
X128828027Y-101152942D01*
X129026551Y-100572617D01*
X129175285Y-100172463D01*
X129290165Y-99917770D01*
X129387122Y-99773855D01*
X129482083Y-99706000D01*
X129590971Y-99679518D01*
X129890851Y-99710333D01*
G37*
G36*
X138794752Y-94903733D02*
G01*
X138844372Y-94933380D01*
X138925483Y-94997335D01*
X139067154Y-95112669D01*
X138912734Y-95122542D01*
X138863813Y-95127056D01*
X138765658Y-95144069D01*
X138700665Y-95166117D01*
X138662368Y-95183912D01*
X138617131Y-95190394D01*
X138607304Y-95169482D01*
X138617937Y-95110825D01*
X138647327Y-95035759D01*
X138686984Y-94964951D01*
X138728420Y-94919111D01*
X138760340Y-94901928D01*
X138794752Y-94903733D01*
G37*
G36*
X136255995Y-90685891D02*
G01*
X136799179Y-90766655D01*
X136827182Y-90772628D01*
X137034219Y-90826586D01*
X137278329Y-90903496D01*
X137543840Y-90997339D01*
X137815053Y-91102090D01*
X138076294Y-91211736D01*
X138311871Y-91320263D01*
X138506109Y-91421646D01*
X138657666Y-91512014D01*
X138901661Y-91671691D01*
X139151695Y-91850046D01*
X139395463Y-92037501D01*
X139620637Y-92224455D01*
X139814898Y-92401326D01*
X139965918Y-92558504D01*
X140057108Y-92675768D01*
X140170148Y-92843470D01*
X140290363Y-93039880D01*
X140408923Y-93249889D01*
X140516967Y-93458399D01*
X140605654Y-93650320D01*
X140643325Y-93752330D01*
X140698805Y-93954681D01*
X140747111Y-94193682D01*
X140785619Y-94453367D01*
X140811708Y-94717779D01*
X140822750Y-94970953D01*
X140815627Y-95105310D01*
X140780429Y-95327633D01*
X140719048Y-95585351D01*
X140693691Y-95670547D01*
X140634992Y-95867798D01*
X140531788Y-96164338D01*
X140412944Y-96464301D01*
X140281990Y-96757044D01*
X140142424Y-97031908D01*
X140120266Y-97072467D01*
X139930293Y-97403327D01*
X139748611Y-97683194D01*
X139566601Y-97920349D01*
X139375672Y-98123073D01*
X139167207Y-98299640D01*
X138932600Y-98458333D01*
X138663238Y-98607434D01*
X138350501Y-98755223D01*
X138234406Y-98805951D01*
X138052072Y-98880006D01*
X137902106Y-98931176D01*
X137769748Y-98964202D01*
X137640224Y-98983848D01*
X137352089Y-99010164D01*
X137044151Y-99022938D01*
X136778317Y-99014445D01*
X136691515Y-99008493D01*
X136557609Y-99001434D01*
X136450143Y-98998121D01*
X136433212Y-98997724D01*
X136313233Y-98988695D01*
X136150893Y-98969801D01*
X135962204Y-98943507D01*
X135763160Y-98912335D01*
X135569796Y-98878733D01*
X135398120Y-98845204D01*
X135264137Y-98814219D01*
X135256761Y-98812257D01*
X135097664Y-98763789D01*
X134893314Y-98692368D01*
X134654413Y-98602049D01*
X134391703Y-98496883D01*
X134115905Y-98380900D01*
X134076441Y-98362860D01*
X133907217Y-98267190D01*
X133726619Y-98141673D01*
X133551891Y-98000014D01*
X133400278Y-97855925D01*
X133289027Y-97723130D01*
X133286919Y-97720096D01*
X133167421Y-97549288D01*
X133071749Y-97414892D01*
X132988661Y-97301583D01*
X132906918Y-97194019D01*
X132815291Y-97076887D01*
X132709475Y-96931010D01*
X132627934Y-96784935D01*
X132593055Y-96668559D01*
X132606560Y-96585944D01*
X132622580Y-96566952D01*
X132677951Y-96552890D01*
X132763414Y-96579987D01*
X132883091Y-96649938D01*
X133041113Y-96764438D01*
X133184449Y-96874823D01*
X133327711Y-96984130D01*
X133442860Y-97068128D01*
X133542234Y-97133592D01*
X133638184Y-97187300D01*
X133743050Y-97236047D01*
X133869164Y-97286599D01*
X134028882Y-97345748D01*
X134234537Y-97420278D01*
X134311375Y-97448026D01*
X134568290Y-97537621D01*
X134782486Y-97605332D01*
X134965786Y-97653520D01*
X135129983Y-97684543D01*
X135286903Y-97700765D01*
X135448358Y-97704539D01*
X135626148Y-97698223D01*
X135716040Y-97691297D01*
X135891169Y-97669693D01*
X136071650Y-97639083D01*
X136240502Y-97602902D01*
X136380720Y-97564547D01*
X136475312Y-97527459D01*
X136477693Y-97526158D01*
X136547910Y-97469038D01*
X136633154Y-97374998D01*
X136719685Y-97261925D01*
X136793784Y-97147695D01*
X136841725Y-97050183D01*
X136850178Y-97022993D01*
X136868003Y-96887510D01*
X136860630Y-96722849D01*
X136851934Y-96617075D01*
X136851449Y-96513083D01*
X136860697Y-96447257D01*
X136862559Y-96442312D01*
X136924235Y-96353614D01*
X137013856Y-96307401D01*
X137112907Y-96313494D01*
X137200777Y-96345473D01*
X137129814Y-96215949D01*
X137112369Y-96182519D01*
X137081527Y-96094012D01*
X137090387Y-96018349D01*
X137143676Y-95940470D01*
X137246103Y-95845359D01*
X137389869Y-95723756D01*
X137332883Y-95608082D01*
X137316697Y-95569781D01*
X137293245Y-95441464D01*
X137310138Y-95319035D01*
X137365466Y-95225093D01*
X137367040Y-95223615D01*
X137418109Y-95187503D01*
X137433195Y-95178350D01*
X138545645Y-95178350D01*
X138546018Y-95186738D01*
X138567031Y-95233679D01*
X138625441Y-95242975D01*
X138728775Y-95216177D01*
X138730667Y-95215536D01*
X138821396Y-95197226D01*
X138947253Y-95186634D01*
X139081610Y-95186057D01*
X139104818Y-95186878D01*
X139215416Y-95187614D01*
X139295255Y-95182926D01*
X139328371Y-95173620D01*
X139326200Y-95166186D01*
X139286483Y-95138140D01*
X139211925Y-95105086D01*
X139199843Y-95100355D01*
X139077536Y-95034485D01*
X138936269Y-94932970D01*
X138793621Y-94808272D01*
X138776229Y-94797748D01*
X138735197Y-94811964D01*
X138676710Y-94877031D01*
X138651853Y-94910963D01*
X138571706Y-95054573D01*
X138545645Y-95178350D01*
X137433195Y-95178350D01*
X137511509Y-95130837D01*
X137634460Y-95061081D01*
X137774198Y-94985722D01*
X137802552Y-94970737D01*
X137971512Y-94876138D01*
X138087433Y-94797435D01*
X138154943Y-94728154D01*
X138178676Y-94661848D01*
X138163266Y-94592027D01*
X138113340Y-94512248D01*
X138111211Y-94509403D01*
X138043672Y-94370311D01*
X138032520Y-94208884D01*
X138077530Y-94022019D01*
X138077935Y-94020909D01*
X138104609Y-93933571D01*
X138112125Y-93855022D01*
X138099891Y-93762585D01*
X138067307Y-93633622D01*
X138019675Y-93483340D01*
X137918338Y-93228544D01*
X137791996Y-92963347D01*
X137650089Y-92705705D01*
X137502083Y-92473594D01*
X137357453Y-92284979D01*
X137235517Y-92153451D01*
X137077298Y-91999222D01*
X136910798Y-91850424D01*
X136752111Y-91721394D01*
X136617338Y-91626447D01*
X136558357Y-91592719D01*
X136396245Y-91515925D01*
X136193929Y-91434916D01*
X135965975Y-91354660D01*
X135726948Y-91280128D01*
X135491405Y-91216288D01*
X135273914Y-91168111D01*
X135100610Y-91137821D01*
X134929104Y-91116762D01*
X134782648Y-91111700D01*
X134642055Y-91121211D01*
X134562287Y-91128812D01*
X134444761Y-91129120D01*
X134378144Y-91106891D01*
X134356213Y-91058898D01*
X134372738Y-90981934D01*
X134385694Y-90956191D01*
X134447713Y-90898010D01*
X134556793Y-90845411D01*
X134718171Y-90796236D01*
X134937098Y-90748296D01*
X135180701Y-90708209D01*
X135714994Y-90666398D01*
X136255995Y-90685891D01*
G37*
%TD*%
D11*
%TO.C,D1*%
X153900000Y-100500000D03*
X152325000Y-100500000D03*
%TD*%
D12*
%TO.C,R2*%
X155137499Y-100910003D03*
X155137505Y-99889997D03*
%TD*%
D11*
%TO.C,D13*%
X129925000Y-92800000D03*
X131500000Y-92800000D03*
%TD*%
D13*
%TO.C,TP6*%
X144200000Y-120200000D03*
%TD*%
D14*
%TO.C,R16*%
X135410000Y-81800000D03*
X134390000Y-81800000D03*
%TD*%
D15*
%TO.C,U2*%
X142940000Y-91690000D03*
X142940000Y-91290000D03*
X142940000Y-90890000D03*
X142940000Y-90490000D03*
X142940000Y-90090000D03*
D16*
X143590000Y-89440000D03*
X143990000Y-89440000D03*
X144390000Y-89440000D03*
X144790000Y-89440000D03*
X145190000Y-89440000D03*
D15*
X145840000Y-90090000D03*
X145840000Y-90490000D03*
X145840000Y-90890000D03*
X145840000Y-91290000D03*
X145840000Y-91690000D03*
D16*
X145190000Y-92340000D03*
X144790000Y-92340000D03*
X144390000Y-92340000D03*
X143990000Y-92340000D03*
X143590000Y-92340000D03*
D17*
X144390000Y-90890000D03*
%TD*%
D18*
%TO.C,R1*%
X140800000Y-88600000D03*
X140800000Y-89620000D03*
%TD*%
D19*
%TO.C,R11*%
X138390000Y-111600000D03*
X139410000Y-111600000D03*
%TD*%
%TO.C,R14*%
X130490000Y-91500000D03*
X131510000Y-91500000D03*
%TD*%
D14*
%TO.C,R17*%
X151610000Y-81300000D03*
X150590000Y-81300000D03*
%TD*%
D20*
%TO.C,J1*%
X147540000Y-83300000D03*
D21*
X145000000Y-83300000D03*
X142460000Y-83300000D03*
%TD*%
D11*
%TO.C,D15*%
X133900000Y-83000000D03*
X135475000Y-83000000D03*
%TD*%
D19*
%TO.C,R13*%
X160790000Y-99600000D03*
X161810000Y-99600000D03*
%TD*%
D13*
%TO.C,TP8*%
X167700000Y-96700000D03*
%TD*%
D11*
%TO.C,D11*%
X143400000Y-98100000D03*
X144975000Y-98100000D03*
%TD*%
D19*
%TO.C,R15*%
X130690000Y-97100000D03*
X131710000Y-97100000D03*
%TD*%
D11*
%TO.C,D12*%
X160412500Y-100900000D03*
X161987500Y-100900000D03*
%TD*%
D13*
%TO.C,TP7*%
X120700000Y-96700000D03*
%TD*%
%TO.C,TP5*%
X144200000Y-73200000D03*
%TD*%
D11*
%TO.C,D14*%
X130200000Y-98500000D03*
X131775000Y-98500000D03*
%TD*%
%TO.C,D16*%
X150100000Y-82600000D03*
X151675000Y-82600000D03*
%TD*%
D22*
%TO.C,C3*%
X142770000Y-88640000D03*
X141810000Y-88640000D03*
%TD*%
D11*
%TO.C,D10*%
X138300000Y-110400000D03*
X139875000Y-110400000D03*
%TD*%
D23*
%TO.C,J2*%
X127480446Y-85776707D03*
D21*
X129113127Y-83830954D03*
%TD*%
D19*
%TO.C,R12*%
X144000000Y-96800000D03*
X145020000Y-96800000D03*
%TD*%
M02*
