%TF.GenerationSoftware,KiCad,Pcbnew,10.0.0-10.0.0~ubuntu24.04.1*%
%TF.CreationDate,2026-07-03T06:24:17-07:00*%
%TF.ProjectId,hackathon-badge,6861636b-6174-4686-9f6e-2d6261646765,rev?*%
%TF.SameCoordinates,Original*%
%TF.FileFunction,Soldermask,Top*%
%TF.FilePolarity,Negative*%
%FSLAX46Y46*%
G04 Gerber Fmt 4.6, Leading zero omitted, Abs format (unit mm)*
G04 Created by KiCad (PCBNEW 10.0.0-10.0.0~ubuntu24.04.1) date 2026-07-03 06:24:17*
%MOMM*%
%LPD*%
G01*
G04 APERTURE LIST*
%ADD10C,0.000000*%
G04 APERTURE END LIST*
D10*
%TO.C,G\u002A\u002A\u002A*%
G36*
X154171113Y-72087826D02*
G01*
X154346040Y-72521503D01*
X154517980Y-73245857D01*
X154687286Y-74262163D01*
X154740656Y-74646933D01*
X154944064Y-76086957D01*
X155139546Y-77266394D01*
X155337162Y-78217748D01*
X155546967Y-78973522D01*
X155779020Y-79566219D01*
X156043379Y-80028344D01*
X156350102Y-80392399D01*
X156581265Y-80595240D01*
X156902970Y-80806302D01*
X157204549Y-80873091D01*
X157557232Y-80784947D01*
X158032251Y-80531209D01*
X158351175Y-80330333D01*
X159153886Y-79770680D01*
X159738797Y-79249267D01*
X160162026Y-78698536D01*
X160479695Y-78050928D01*
X160651359Y-77561288D01*
X160858023Y-76980231D01*
X161047531Y-76584931D01*
X161196555Y-76423093D01*
X161208672Y-76421585D01*
X161355500Y-76560813D01*
X161518450Y-76952029D01*
X161643175Y-77397487D01*
X161899316Y-78334629D01*
X162207845Y-79276825D01*
X162539613Y-80146310D01*
X162865470Y-80865319D01*
X163093474Y-81266672D01*
X163331359Y-81602477D01*
X163541717Y-81774092D01*
X163832576Y-81831963D01*
X164293662Y-81827145D01*
X165169274Y-81743425D01*
X166044144Y-81537404D01*
X166979681Y-81187941D01*
X168037295Y-80673900D01*
X168696089Y-80311766D01*
X169508437Y-79859007D01*
X170107051Y-79549437D01*
X170527557Y-79371184D01*
X170805581Y-79312372D01*
X170976749Y-79361128D01*
X171076688Y-79505577D01*
X171081121Y-79516830D01*
X171162426Y-79969876D01*
X171161270Y-80638096D01*
X171082764Y-81456384D01*
X170932013Y-82359634D01*
X170817124Y-82881700D01*
X170583292Y-83923816D01*
X170388141Y-84928988D01*
X170242935Y-85829953D01*
X170158936Y-86559448D01*
X170142494Y-86910691D01*
X170159214Y-87181159D01*
X170261091Y-87312962D01*
X170525698Y-87355895D01*
X170842067Y-87359735D01*
X171451026Y-87291539D01*
X172061024Y-87068688D01*
X172726284Y-86663789D01*
X173501029Y-86049448D01*
X173592783Y-85970069D01*
X174218697Y-85448996D01*
X174718416Y-85095134D01*
X175094298Y-84920202D01*
X175348700Y-84935920D01*
X175483981Y-85154006D01*
X175502499Y-85586179D01*
X175406610Y-86244157D01*
X175198673Y-87139661D01*
X174881045Y-88284408D01*
X174456084Y-89690118D01*
X174386319Y-89914303D01*
X174296560Y-90355530D01*
X174254013Y-90866934D01*
X174253477Y-90920890D01*
X174253477Y-91501810D01*
X175391338Y-91449359D01*
X176042998Y-91400708D01*
X176516876Y-91305992D01*
X176928440Y-91134327D01*
X177233613Y-90956645D01*
X178041734Y-90465755D01*
X178641316Y-90142319D01*
X179061435Y-89981266D01*
X179331166Y-89977523D01*
X179479586Y-90126021D01*
X179535769Y-90421687D01*
X179539026Y-90554544D01*
X179474819Y-90914721D01*
X179275951Y-91454597D01*
X178933053Y-92196551D01*
X178485157Y-93071494D01*
X177974904Y-94054620D01*
X177600774Y-94821817D01*
X177350094Y-95410310D01*
X177210195Y-95857323D01*
X177168404Y-96200079D01*
X177212049Y-96475802D01*
X177274981Y-96626523D01*
X177595217Y-96945534D01*
X178139086Y-97139385D01*
X178862358Y-97203229D01*
X179720805Y-97132221D01*
X180469678Y-96976498D01*
X180971959Y-96845530D01*
X181257967Y-96782758D01*
X181397077Y-96788331D01*
X181458662Y-96862399D01*
X181501641Y-96978714D01*
X181450163Y-97230092D01*
X181167194Y-97558748D01*
X181117107Y-97602702D01*
X180440817Y-98200768D01*
X179803787Y-98800807D01*
X179254104Y-99354555D01*
X178839851Y-99813748D01*
X178622193Y-100106907D01*
X178502354Y-100328273D01*
X178471011Y-100486205D01*
X178565611Y-100595456D01*
X178823603Y-100670775D01*
X179282434Y-100726915D01*
X179979554Y-100778626D01*
X180395090Y-100805275D01*
X181373005Y-100844029D01*
X182209230Y-100816497D01*
X183049744Y-100715316D01*
X183418941Y-100652736D01*
X184047940Y-100551419D01*
X184581624Y-100487408D01*
X184945266Y-100468561D01*
X185048597Y-100481336D01*
X185227448Y-100679302D01*
X185207315Y-101024330D01*
X185012621Y-101472915D01*
X184667788Y-101981552D01*
X184197236Y-102506737D01*
X183636874Y-102996151D01*
X183151005Y-103374378D01*
X182685127Y-103744220D01*
X182417559Y-103961828D01*
X182018332Y-104273338D01*
X181524978Y-104632570D01*
X181292478Y-104793625D01*
X180700648Y-105246299D01*
X180189301Y-105733085D01*
X179804332Y-106200981D01*
X179591638Y-106596982D01*
X179566861Y-106786455D01*
X179748130Y-107091032D01*
X180206134Y-107376732D01*
X180946962Y-107646580D01*
X181686377Y-107839119D01*
X182513520Y-108033352D01*
X183094293Y-108180932D01*
X183469448Y-108296734D01*
X183679738Y-108395629D01*
X183765915Y-108492493D01*
X183769323Y-108599327D01*
X183627713Y-108746132D01*
X183271380Y-108990090D01*
X182749920Y-109300440D01*
X182112929Y-109646426D01*
X181924015Y-109743771D01*
X181235405Y-110102966D01*
X180619155Y-110440011D01*
X180134707Y-110721298D01*
X179841502Y-110913222D01*
X179809601Y-110939193D01*
X179513778Y-111260904D01*
X179194882Y-111696441D01*
X178909172Y-112156755D01*
X178712910Y-112552797D01*
X178658101Y-112761788D01*
X178759210Y-112958277D01*
X179028211Y-113297273D01*
X179413616Y-113726093D01*
X179863936Y-114192057D01*
X180327682Y-114642486D01*
X180753365Y-115024699D01*
X181089498Y-115286016D01*
X181177967Y-115339975D01*
X181496476Y-115500731D01*
X181965864Y-115726890D01*
X182357671Y-115910550D01*
X182955944Y-116248205D01*
X183266503Y-116578732D01*
X183294840Y-116910934D01*
X183138520Y-117161724D01*
X182855200Y-117342065D01*
X182333648Y-117548328D01*
X181626304Y-117764764D01*
X180785607Y-117975623D01*
X179863994Y-118165155D01*
X179698456Y-118194929D01*
X179096407Y-118321198D01*
X178519687Y-118475273D01*
X178193543Y-118585929D01*
X177823240Y-118769147D01*
X177661661Y-118978915D01*
X177630355Y-119245445D01*
X177650469Y-119532980D01*
X177730067Y-119815665D01*
X177898032Y-120147028D01*
X178183251Y-120580599D01*
X178614606Y-121169905D01*
X178804922Y-121422163D01*
X179302707Y-122089523D01*
X179637829Y-122572459D01*
X179832678Y-122914535D01*
X179909648Y-123159317D01*
X179891130Y-123350371D01*
X179847337Y-123450244D01*
X179689338Y-123609320D01*
X179373774Y-123759300D01*
X178871455Y-123907904D01*
X178153193Y-124062854D01*
X177189799Y-124231867D01*
X176455789Y-124347226D01*
X175434914Y-124524302D01*
X174670069Y-124716237D01*
X174123719Y-124944641D01*
X173758327Y-125231124D01*
X173536361Y-125597296D01*
X173420285Y-126064767D01*
X173415735Y-126097500D01*
X173462908Y-126670955D01*
X173724810Y-127396653D01*
X174185921Y-128244599D01*
X174830721Y-129184799D01*
X175358762Y-129852598D01*
X175756901Y-130340822D01*
X176072025Y-130745056D01*
X176264206Y-131013022D01*
X176304299Y-131090620D01*
X176150501Y-131408662D01*
X175757182Y-131693486D01*
X175178225Y-131923754D01*
X174467510Y-132078130D01*
X173678917Y-132135278D01*
X173666193Y-132135286D01*
X173049241Y-132107071D01*
X172565933Y-131995819D01*
X172059276Y-131760409D01*
X171904344Y-131673787D01*
X171379480Y-131380893D01*
X170719615Y-131022024D01*
X170050828Y-130665602D01*
X169922263Y-130598104D01*
X169310832Y-130276728D01*
X168722902Y-129965355D01*
X168261851Y-129718800D01*
X168166074Y-129666941D01*
X167725960Y-129469638D01*
X167328962Y-129359077D01*
X167231608Y-129350487D01*
X166786136Y-129444200D01*
X166265861Y-129684173D01*
X165771737Y-130008655D01*
X165404722Y-130355898D01*
X165292694Y-130536432D01*
X165193405Y-131054716D01*
X165218829Y-131761522D01*
X165356430Y-132585778D01*
X165593673Y-133456410D01*
X165918024Y-134302349D01*
X165980917Y-134438573D01*
X166313062Y-135216762D01*
X166502863Y-135884562D01*
X166584480Y-136544706D01*
X166588658Y-137216078D01*
X166481527Y-137663653D01*
X166227123Y-137947448D01*
X165789482Y-138127479D01*
X165609329Y-138171974D01*
X164774262Y-138252697D01*
X163964521Y-138100336D01*
X163148679Y-137701575D01*
X162295312Y-137043099D01*
X161784924Y-136551442D01*
X161277353Y-136030704D01*
X160652822Y-135388759D01*
X159998616Y-134715377D01*
X159516356Y-134218297D01*
X159008847Y-133709944D01*
X158561320Y-133289711D01*
X158218964Y-132998096D01*
X158026971Y-132875600D01*
X158016552Y-132874186D01*
X157759257Y-132979675D01*
X157397338Y-133251610D01*
X157004559Y-133623187D01*
X156654682Y-134027607D01*
X156505590Y-134242545D01*
X156342434Y-134608643D01*
X156168178Y-135159688D01*
X156015167Y-135790218D01*
X155986316Y-135935733D01*
X155817305Y-136692139D01*
X155614410Y-137389552D01*
X155399965Y-137965527D01*
X155196305Y-138357616D01*
X155073293Y-138488557D01*
X154729513Y-138598685D01*
X154259718Y-138656450D01*
X153818648Y-138649318D01*
X153625153Y-138605853D01*
X153131063Y-138261349D01*
X152636954Y-137650339D01*
X152162939Y-136799266D01*
X152032150Y-136511430D01*
X151648436Y-135684354D01*
X151200560Y-134807000D01*
X150728739Y-133951046D01*
X150273187Y-133188170D01*
X149874118Y-132590051D01*
X149718173Y-132387045D01*
X149333159Y-132037827D01*
X148884560Y-131798541D01*
X148458031Y-131700099D01*
X148139230Y-131773412D01*
X148102946Y-131804139D01*
X148029508Y-132006640D01*
X147954581Y-132426152D01*
X147890561Y-132986375D01*
X147870745Y-133233327D01*
X147752563Y-134140221D01*
X147537301Y-134790597D01*
X147213003Y-135208970D01*
X146809224Y-135409742D01*
X146527140Y-135418101D01*
X146253528Y-135266951D01*
X145958316Y-134924436D01*
X145611429Y-134358700D01*
X145345688Y-133859469D01*
X145027085Y-133262553D01*
X144718391Y-132723098D01*
X144468489Y-132325084D01*
X144387895Y-132214066D01*
X144072983Y-131819130D01*
X143568218Y-132558825D01*
X143104321Y-133108546D01*
X142537857Y-133584143D01*
X141919593Y-133964851D01*
X141300291Y-134229901D01*
X140730718Y-134358527D01*
X140261636Y-134329961D01*
X139943811Y-134123436D01*
X139902573Y-134058405D01*
X139840670Y-133800468D01*
X139790918Y-133322393D01*
X139759145Y-132697614D01*
X139750586Y-132143203D01*
X139716466Y-131093485D01*
X139619820Y-130161602D01*
X139469222Y-129389114D01*
X139273242Y-128817581D01*
X139040455Y-128488560D01*
X138989878Y-128455324D01*
X138701364Y-128365974D01*
X138227222Y-128281961D01*
X137724319Y-128226489D01*
X137237100Y-128200713D01*
X136828992Y-128223805D01*
X136407490Y-128313885D01*
X135880084Y-128489069D01*
X135346690Y-128692153D01*
X134644466Y-128990133D01*
X133946690Y-129326853D01*
X133364872Y-129647041D01*
X133171659Y-129770276D01*
X132515094Y-130207720D01*
X132050282Y-130470675D01*
X131733497Y-130560078D01*
X131521014Y-130476870D01*
X131369105Y-130221987D01*
X131238312Y-129811763D01*
X131106726Y-129088071D01*
X131129331Y-128347458D01*
X131314914Y-127513373D01*
X131594889Y-126705938D01*
X132013386Y-125509618D01*
X132257565Y-124534368D01*
X132329787Y-123766719D01*
X132232413Y-123193197D01*
X132217160Y-123154802D01*
X131947809Y-122654231D01*
X131618086Y-122396623D01*
X131145697Y-122334783D01*
X130834734Y-122361960D01*
X130178533Y-122443894D01*
X129761741Y-122483635D01*
X129532254Y-122474266D01*
X129437967Y-122408872D01*
X129426775Y-122280537D01*
X129437608Y-122176523D01*
X129552650Y-121890812D01*
X129815237Y-121488662D01*
X130131375Y-121100233D01*
X130724550Y-120278619D01*
X131033862Y-119441334D01*
X131087340Y-118902409D01*
X130964634Y-118579653D01*
X130599021Y-118412991D01*
X129996773Y-118403167D01*
X129164161Y-118550920D01*
X128833977Y-118636013D01*
X128256589Y-118787950D01*
X127883173Y-118859537D01*
X127636444Y-118854787D01*
X127439114Y-118777716D01*
X127335643Y-118713854D01*
X127050987Y-118413696D01*
X126962715Y-117997092D01*
X127074388Y-117439623D01*
X127389564Y-116716870D01*
X127711280Y-116136614D01*
X128024869Y-115586552D01*
X128271649Y-115120857D01*
X128418706Y-114803467D01*
X128445384Y-114710430D01*
X128385863Y-114468652D01*
X128239018Y-114100837D01*
X128202369Y-114021939D01*
X128051238Y-113744119D01*
X127874485Y-113580256D01*
X127587436Y-113487002D01*
X127105414Y-113421006D01*
X127007934Y-113410443D01*
X126369794Y-113368091D01*
X125635821Y-113359513D01*
X124881668Y-113380902D01*
X124182990Y-113428451D01*
X123615440Y-113498354D01*
X123254671Y-113586806D01*
X123224287Y-113600805D01*
X122858645Y-113694391D01*
X122627319Y-113559746D01*
X122572552Y-113332313D01*
X122687642Y-113055716D01*
X123003424Y-112660478D01*
X123475665Y-112189936D01*
X124060132Y-111687429D01*
X124712593Y-111196294D01*
X124848274Y-111102618D01*
X125731683Y-110484128D01*
X126390534Y-109969089D01*
X126856191Y-109516968D01*
X127160016Y-109087235D01*
X127333370Y-108639358D01*
X127407616Y-108132804D01*
X127417638Y-107782037D01*
X127415238Y-107717956D01*
X131649790Y-107717956D01*
X131897419Y-110138653D01*
X132410602Y-112527106D01*
X133189340Y-114860802D01*
X134233633Y-117117233D01*
X135543480Y-119273888D01*
X135740657Y-119556170D01*
X136405749Y-120409789D01*
X137244243Y-121360034D01*
X138187097Y-122337862D01*
X139165270Y-123274231D01*
X140109717Y-124100099D01*
X140882475Y-124697988D01*
X142731017Y-125866483D01*
X144745838Y-126880917D01*
X146841972Y-127704357D01*
X148934451Y-128299869D01*
X149395773Y-128398613D01*
X150374422Y-128564913D01*
X151545064Y-128715598D01*
X152806069Y-128838478D01*
X153478332Y-128888297D01*
X153738374Y-128883473D01*
X154218417Y-128855678D01*
X154846131Y-128809645D01*
X155439907Y-128759880D01*
X158051802Y-128390356D01*
X160539728Y-127754823D01*
X162905357Y-126852674D01*
X165150362Y-125683305D01*
X166661472Y-124697988D01*
X167515092Y-124032896D01*
X168465336Y-123194402D01*
X169443165Y-122251548D01*
X170379533Y-121273376D01*
X171205401Y-120328928D01*
X171803290Y-119556170D01*
X173148988Y-117414709D01*
X174229131Y-115170434D01*
X175043719Y-112845854D01*
X175592753Y-110463480D01*
X175876233Y-108045821D01*
X175894158Y-105615388D01*
X175646529Y-103194690D01*
X175133345Y-100806238D01*
X174354607Y-98472541D01*
X173310315Y-96216110D01*
X172000468Y-94059455D01*
X171803290Y-93777173D01*
X171138199Y-92923554D01*
X170299704Y-91973309D01*
X169356850Y-90995481D01*
X168378678Y-90059112D01*
X167434231Y-89233244D01*
X166661472Y-88635355D01*
X164520012Y-87289658D01*
X162275736Y-86209515D01*
X159951156Y-85394926D01*
X157568782Y-84845892D01*
X155151123Y-84562413D01*
X152720690Y-84544487D01*
X150299992Y-84792117D01*
X147911540Y-85305300D01*
X145577843Y-86084038D01*
X143321412Y-87128331D01*
X141164757Y-88438177D01*
X140882475Y-88635355D01*
X140028856Y-89300447D01*
X139078611Y-90138941D01*
X138100783Y-91081795D01*
X137164414Y-92059967D01*
X136338547Y-93004415D01*
X135740657Y-93777173D01*
X134394960Y-95918634D01*
X133314817Y-98162909D01*
X132500228Y-100487489D01*
X131951194Y-102869863D01*
X131667715Y-105287522D01*
X131649790Y-107717956D01*
X127415238Y-107717956D01*
X127397605Y-107247146D01*
X127312383Y-106827759D01*
X127124292Y-106482395D01*
X126795650Y-106169566D01*
X126288775Y-105847791D01*
X125565985Y-105475583D01*
X125134289Y-105268253D01*
X124467565Y-104937319D01*
X123899325Y-104628093D01*
X123482226Y-104371240D01*
X123268928Y-104197424D01*
X123254716Y-104173726D01*
X123162931Y-103599522D01*
X123276614Y-103023905D01*
X123401717Y-102789564D01*
X123720886Y-102499544D01*
X124261369Y-102181878D01*
X124956647Y-101867046D01*
X125740203Y-101585529D01*
X126464284Y-101386215D01*
X127534261Y-101056801D01*
X128333143Y-100628394D01*
X128857759Y-100102741D01*
X128893101Y-100047998D01*
X129116735Y-99561926D01*
X129130253Y-99135137D01*
X128916745Y-98746620D01*
X128459298Y-98375370D01*
X127741003Y-98000376D01*
X126999802Y-97695969D01*
X126384212Y-97450937D01*
X125860238Y-97223302D01*
X125497091Y-97044176D01*
X125378775Y-96967308D01*
X125233121Y-96708717D01*
X125350930Y-96473276D01*
X125702189Y-96274237D01*
X126256885Y-96124853D01*
X126985007Y-96038378D01*
X127519195Y-96022163D01*
X128081886Y-96009621D01*
X128441639Y-95955685D01*
X128688672Y-95835893D01*
X128890303Y-95650368D01*
X129140412Y-95209339D01*
X129287592Y-94587114D01*
X129323977Y-93880322D01*
X129241701Y-93185595D01*
X129123022Y-92791640D01*
X128970600Y-92310854D01*
X128889766Y-91861231D01*
X128885847Y-91774654D01*
X128900078Y-91554662D01*
X128984042Y-91414849D01*
X129199646Y-91320827D01*
X129608795Y-91238208D01*
X129950297Y-91183356D01*
X130694817Y-91058639D01*
X131368110Y-90931504D01*
X131915058Y-90813791D01*
X132280542Y-90717339D01*
X132409546Y-90655145D01*
X132351809Y-90484093D01*
X132197155Y-90109349D01*
X131973415Y-89593047D01*
X131708424Y-88997320D01*
X131430014Y-88384302D01*
X131166019Y-87816125D01*
X130944271Y-87354922D01*
X130834684Y-87139504D01*
X130551332Y-86649772D01*
X130170566Y-86048417D01*
X129770832Y-85458967D01*
X129738819Y-85413828D01*
X129412997Y-84940242D01*
X129166714Y-84551665D01*
X129040845Y-84313688D01*
X129032667Y-84280720D01*
X129173082Y-84224227D01*
X129569298Y-84183343D01*
X130183774Y-84160438D01*
X130978043Y-84157874D01*
X132229566Y-84138433D01*
X133282524Y-84056768D01*
X134110126Y-83916535D01*
X134685580Y-83721391D01*
X134835797Y-83631249D01*
X134983696Y-83378239D01*
X135095704Y-82910282D01*
X135165864Y-82304547D01*
X135188214Y-81638198D01*
X135156797Y-80988403D01*
X135078687Y-80486107D01*
X135013580Y-80033353D01*
X135089448Y-79809779D01*
X135319632Y-79813767D01*
X135717471Y-80043703D01*
X136128390Y-80358970D01*
X136628260Y-80715237D01*
X137205534Y-81049774D01*
X137788771Y-81329878D01*
X138306532Y-81522848D01*
X138687377Y-81595979D01*
X138796732Y-81580445D01*
X138939129Y-81388393D01*
X139071771Y-80962430D01*
X139184272Y-80362287D01*
X139266249Y-79647693D01*
X139307318Y-78878379D01*
X139310124Y-78627472D01*
X139336486Y-77876149D01*
X139418836Y-77380657D01*
X139527565Y-77147045D01*
X139630157Y-77015044D01*
X139718357Y-76958605D01*
X139826363Y-77010562D01*
X139988372Y-77203749D01*
X140238582Y-77571000D01*
X140611189Y-78145150D01*
X140683438Y-78256845D01*
X141245965Y-79058878D01*
X141843448Y-79795306D01*
X142425811Y-80410906D01*
X142942980Y-80850454D01*
X143156879Y-80984549D01*
X143555020Y-81105336D01*
X144154076Y-81177512D01*
X144625087Y-81192294D01*
X145370810Y-81151686D01*
X145936476Y-81000384D01*
X146416457Y-80691818D01*
X146905124Y-80179421D01*
X147057041Y-79992222D01*
X147820763Y-78875835D01*
X148333118Y-77740531D01*
X148619268Y-76513209D01*
X148704486Y-75205705D01*
X148718903Y-74624988D01*
X148767946Y-74275418D01*
X148864663Y-74095292D01*
X148950363Y-74043127D01*
X149239143Y-74084069D01*
X149500942Y-74321530D01*
X149804511Y-74627848D01*
X150228053Y-74984735D01*
X150450246Y-75151165D01*
X150828938Y-75410876D01*
X151070358Y-75517422D01*
X151275149Y-75489749D01*
X151530635Y-75354538D01*
X152106148Y-74911881D01*
X152688840Y-74281425D01*
X153202904Y-73557042D01*
X153572530Y-72832605D01*
X153577450Y-72819997D01*
X153763016Y-72369349D01*
X153913934Y-72053048D01*
X153992845Y-71943550D01*
X154171113Y-72087826D01*
G37*
G36*
X122078898Y-104638750D02*
G01*
X122094429Y-104879502D01*
X122078898Y-104932731D01*
X122035977Y-104947504D01*
X122019586Y-104785740D01*
X122038065Y-104618802D01*
X122078898Y-104638750D01*
G37*
G36*
X127606265Y-123874938D02*
G01*
X127590123Y-123944847D01*
X127527870Y-123953333D01*
X127431078Y-123910308D01*
X127449475Y-123874938D01*
X127589030Y-123860864D01*
X127606265Y-123874938D01*
G37*
G36*
X127606265Y-123874938D02*
G01*
X127590123Y-123944847D01*
X127527870Y-123953333D01*
X127431078Y-123910308D01*
X127449475Y-123874938D01*
X127589030Y-123860864D01*
X127606265Y-123874938D01*
G37*
G36*
X146773858Y-139749938D02*
G01*
X146787931Y-139889493D01*
X146773858Y-139906728D01*
X146703949Y-139890586D01*
X146695463Y-139828333D01*
X146738488Y-139731541D01*
X146773858Y-139749938D01*
G37*
G36*
X146773858Y-139749938D02*
G01*
X146787931Y-139889493D01*
X146773858Y-139906728D01*
X146703949Y-139890586D01*
X146695463Y-139828333D01*
X146738488Y-139731541D01*
X146773858Y-139749938D01*
G37*
G36*
X148140279Y-72902779D02*
G01*
X148330552Y-73163476D01*
X148509938Y-73513681D01*
X148643058Y-73884432D01*
X148694537Y-74204068D01*
X148651778Y-74417733D01*
X148536816Y-74430867D01*
X148369623Y-74259309D01*
X148170171Y-73918897D01*
X148073930Y-73711898D01*
X147885397Y-73270129D01*
X147788870Y-73000450D01*
X147779729Y-72860532D01*
X147853357Y-72808045D01*
X147974501Y-72800555D01*
X148140279Y-72902779D01*
G37*
G36*
X152748470Y-74869084D02*
G01*
X152810555Y-75104049D01*
X152829876Y-75387592D01*
X152843326Y-75772105D01*
X152855177Y-76079544D01*
X152859275Y-76171543D01*
X152794152Y-76365393D01*
X152636995Y-76423505D01*
X152538345Y-76369980D01*
X152496251Y-76218234D01*
X152467010Y-75903278D01*
X152457500Y-75544382D01*
X152469819Y-75121933D01*
X152513730Y-74889671D01*
X152599664Y-74803555D01*
X152633889Y-74799629D01*
X152748470Y-74869084D01*
G37*
G36*
X139042661Y-78004027D02*
G01*
X139126770Y-78178517D01*
X139213634Y-78209814D01*
X139351002Y-78320188D01*
X139454136Y-78624875D01*
X139512757Y-79084231D01*
X139522315Y-79400439D01*
X139484387Y-79737675D01*
X139369729Y-79855881D01*
X139362560Y-79856111D01*
X139247039Y-79740113D01*
X139134703Y-79391236D01*
X139054262Y-78987717D01*
X138990128Y-78544960D01*
X138958687Y-78182270D01*
X138965793Y-77970722D01*
X138969548Y-77958782D01*
X139023611Y-77888295D01*
X139042661Y-78004027D01*
G37*
G36*
X160577155Y-136444941D02*
G01*
X160665775Y-136720354D01*
X160707002Y-136988752D01*
X160794619Y-137476993D01*
X160925823Y-137972878D01*
X160985122Y-138145261D01*
X161095227Y-138538548D01*
X161070020Y-138770825D01*
X160912944Y-138826090D01*
X160842939Y-138806620D01*
X160694410Y-138655176D01*
X160557637Y-138349246D01*
X160441401Y-137944052D01*
X160354484Y-137494812D01*
X160305665Y-137056748D01*
X160303725Y-136685080D01*
X160357445Y-136435029D01*
X160453796Y-136359352D01*
X160577155Y-136444941D01*
G37*
G36*
X182411405Y-89914266D02*
G01*
X182421333Y-90061551D01*
X182269778Y-90231731D01*
X182145062Y-90302536D01*
X181902012Y-90454369D01*
X181571189Y-90711919D01*
X181280321Y-90968171D01*
X180870090Y-91320597D01*
X180596962Y-91482214D01*
X180461031Y-91452978D01*
X180444537Y-91368940D01*
X180539148Y-91119232D01*
X180786247Y-90805849D01*
X181130737Y-90475655D01*
X181517518Y-90175518D01*
X181891490Y-89952302D01*
X182197555Y-89852872D01*
X182228586Y-89851481D01*
X182411405Y-89914266D01*
G37*
G36*
X186179420Y-109332030D02*
G01*
X186711155Y-109388594D01*
X187210205Y-109459758D01*
X187518061Y-109525894D01*
X187677876Y-109601823D01*
X187732801Y-109702362D01*
X187735278Y-109740305D01*
X187728109Y-109847052D01*
X187678968Y-109910640D01*
X187546404Y-109933921D01*
X187288965Y-109919749D01*
X186865200Y-109870975D01*
X186504132Y-109825044D01*
X185948388Y-109732416D01*
X185618886Y-109623898D01*
X185506975Y-109495299D01*
X185570507Y-109372918D01*
X185763977Y-109322358D01*
X186179420Y-109332030D01*
G37*
G36*
X126021936Y-90182311D02*
G01*
X126277981Y-90346051D01*
X126595558Y-90596947D01*
X126925984Y-90891880D01*
X127220579Y-91187731D01*
X127430661Y-91441381D01*
X127506651Y-91593091D01*
X127473968Y-91806826D01*
X127359660Y-91850555D01*
X127197994Y-91789458D01*
X127175092Y-91732840D01*
X127088267Y-91609013D01*
X126858682Y-91389066D01*
X126532675Y-91116713D01*
X126469537Y-91067211D01*
X126047887Y-90714088D01*
X125820434Y-90454010D01*
X125774735Y-90267723D01*
X125876101Y-90148845D01*
X126021936Y-90182311D01*
G37*
G36*
X126745031Y-123921615D02*
G01*
X126765761Y-124138277D01*
X126649848Y-124424289D01*
X126594459Y-124506232D01*
X126415596Y-124798543D01*
X126208332Y-125209213D01*
X126062798Y-125540905D01*
X125857186Y-125997053D01*
X125693622Y-126238627D01*
X125559281Y-126279748D01*
X125472203Y-126191157D01*
X125457502Y-125985917D01*
X125542143Y-125644498D01*
X125699579Y-125222929D01*
X125903263Y-124777239D01*
X126126648Y-124363458D01*
X126343186Y-124037613D01*
X126526331Y-123855733D01*
X126588230Y-123835740D01*
X126745031Y-123921615D01*
G37*
G36*
X134625105Y-79834732D02*
G01*
X134729186Y-80112873D01*
X134792656Y-80608228D01*
X134816979Y-81327913D01*
X134817317Y-81414213D01*
X134805622Y-81859257D01*
X134763302Y-82109443D01*
X134682220Y-82204016D01*
X134652778Y-82207963D01*
X134562808Y-82143028D01*
X134494021Y-81926802D01*
X134438789Y-81527154D01*
X134408452Y-81179027D01*
X134370666Y-80693916D01*
X134337598Y-80287670D01*
X134314632Y-80025776D01*
X134309702Y-79977966D01*
X134387076Y-79809368D01*
X134478955Y-79766691D01*
X134625105Y-79834732D01*
G37*
G36*
X140911789Y-135707583D02*
G01*
X140847647Y-135937469D01*
X140821286Y-135982523D01*
X140457383Y-136641621D01*
X140152800Y-137337932D01*
X139959491Y-137945213D01*
X139831009Y-138330005D01*
X139682832Y-138522567D01*
X139532276Y-138505559D01*
X139472928Y-138432447D01*
X139449029Y-138211167D01*
X139521856Y-137842631D01*
X139668600Y-137382126D01*
X139866453Y-136884938D01*
X140092607Y-136406354D01*
X140324252Y-136001662D01*
X140538582Y-135726147D01*
X140614996Y-135664091D01*
X140824126Y-135600846D01*
X140911789Y-135707583D01*
G37*
G36*
X161415740Y-136403295D02*
G01*
X161517270Y-136675523D01*
X161603797Y-137123258D01*
X161628798Y-137318368D01*
X161688700Y-137782056D01*
X161754087Y-138195543D01*
X161805539Y-138446620D01*
X161838500Y-138684276D01*
X161750541Y-138766954D01*
X161705404Y-138770000D01*
X161512946Y-138675939D01*
X161381189Y-138509873D01*
X161296760Y-138242341D01*
X161227538Y-137830552D01*
X161180657Y-137358158D01*
X161163253Y-136908811D01*
X161182462Y-136566166D01*
X161206708Y-136464352D01*
X161308966Y-136326322D01*
X161415740Y-136403295D01*
G37*
G36*
X162618187Y-74365957D02*
G01*
X162663374Y-74502678D01*
X162678204Y-74779360D01*
X162666897Y-75235943D01*
X162657177Y-75453361D01*
X162607532Y-76116009D01*
X162532434Y-76547408D01*
X162431137Y-76750196D01*
X162302896Y-76727010D01*
X162298040Y-76722268D01*
X162252850Y-76561373D01*
X162227389Y-76233834D01*
X162221826Y-75807378D01*
X162236330Y-75349732D01*
X162271070Y-74928623D01*
X162293162Y-74770231D01*
X162388961Y-74452688D01*
X162529476Y-74329640D01*
X162538425Y-74329259D01*
X162618187Y-74365957D01*
G37*
G36*
X170508115Y-80656852D02*
G01*
X170658758Y-80809928D01*
X170662598Y-80826250D01*
X170649914Y-80951542D01*
X170515240Y-81013493D01*
X170206721Y-81032377D01*
X170134409Y-81032761D01*
X169714608Y-81070482D01*
X169335060Y-81164345D01*
X169230401Y-81209150D01*
X168912205Y-81353217D01*
X168744943Y-81357946D01*
X168687369Y-81219570D01*
X168685278Y-81159355D01*
X168787708Y-80958797D01*
X169053564Y-80791001D01*
X169420687Y-80666438D01*
X169826924Y-80595578D01*
X170210119Y-80588892D01*
X170508115Y-80656852D01*
G37*
G36*
X187669831Y-101380664D02*
G01*
X187725031Y-101509724D01*
X187605941Y-101633595D01*
X187292552Y-101764338D01*
X186799751Y-101905096D01*
X186350315Y-102033264D01*
X185948113Y-102169654D01*
X185717859Y-102266986D01*
X185352144Y-102410189D01*
X185113555Y-102405882D01*
X185030648Y-102259890D01*
X185127138Y-102102791D01*
X185368574Y-101919867D01*
X185471620Y-101862938D01*
X185839914Y-101709017D01*
X186289491Y-101566863D01*
X186759007Y-101449936D01*
X187187116Y-101371695D01*
X187512474Y-101345598D01*
X187669831Y-101380664D01*
G37*
G36*
X123647012Y-118150618D02*
G01*
X123605582Y-118361027D01*
X123420132Y-118674428D01*
X123160760Y-118996400D01*
X122834096Y-119418750D01*
X122531191Y-119899998D01*
X122397891Y-120160972D01*
X122206901Y-120507541D01*
X122017926Y-120724118D01*
X121864064Y-120788977D01*
X121778413Y-120680393D01*
X121770852Y-120572546D01*
X121843436Y-120288142D01*
X122028040Y-119900667D01*
X122290805Y-119458155D01*
X122597876Y-119008642D01*
X122915396Y-118600162D01*
X123209508Y-118280748D01*
X123446355Y-118098437D01*
X123532144Y-118073703D01*
X123647012Y-118150618D01*
G37*
G36*
X126326996Y-83667259D02*
G01*
X126901853Y-83780047D01*
X127679138Y-83972867D01*
X127733657Y-83987300D01*
X128057110Y-84116588D01*
X128227928Y-84273411D01*
X128215470Y-84421533D01*
X128145231Y-84473996D01*
X127996988Y-84470321D01*
X127680516Y-84420323D01*
X127255924Y-84334021D01*
X127116296Y-84302514D01*
X126640175Y-84192865D01*
X126225180Y-84097732D01*
X125946862Y-84034424D01*
X125910972Y-84026374D01*
X125704322Y-83914581D01*
X125646389Y-83793222D01*
X125716325Y-83675433D01*
X125937507Y-83632917D01*
X126326996Y-83667259D01*
G37*
G36*
X163650467Y-73899127D02*
G01*
X163723294Y-74133444D01*
X163718188Y-74408866D01*
X163628194Y-74623965D01*
X163548218Y-74819109D01*
X163470463Y-75171225D01*
X163413910Y-75585561D01*
X163356602Y-76032173D01*
X163284298Y-76290307D01*
X163181123Y-76406667D01*
X163129028Y-76423718D01*
X162999535Y-76410379D01*
X162941616Y-76268688D01*
X162932836Y-75954779D01*
X162968272Y-75503490D01*
X163048980Y-75015184D01*
X163160016Y-74545369D01*
X163286437Y-74149552D01*
X163413302Y-73883242D01*
X163512888Y-73800092D01*
X163650467Y-73899127D01*
G37*
G36*
X183880884Y-117785073D02*
G01*
X184051191Y-117887430D01*
X184258895Y-118047617D01*
X184585443Y-118285235D01*
X184912166Y-118515364D01*
X185285343Y-118807570D01*
X185526747Y-119064844D01*
X185617584Y-119258326D01*
X185539056Y-119359158D01*
X185467014Y-119367222D01*
X185281509Y-119298049D01*
X184999988Y-119122181D01*
X184841031Y-119002967D01*
X184436141Y-118704430D01*
X183991796Y-118410332D01*
X183879038Y-118342055D01*
X183551678Y-118107036D01*
X183430966Y-117915785D01*
X183522592Y-117783130D01*
X183649361Y-117743496D01*
X183880884Y-117785073D01*
G37*
G36*
X120114642Y-116972671D02*
G01*
X120190490Y-117063286D01*
X120075313Y-117222849D01*
X119949370Y-117316088D01*
X119620975Y-117479920D01*
X119181549Y-117629829D01*
X118679892Y-117757857D01*
X118164800Y-117856042D01*
X117685072Y-117916426D01*
X117289505Y-117931050D01*
X117026898Y-117891952D01*
X116944537Y-117806216D01*
X117057305Y-117705034D01*
X117378977Y-117587702D01*
X117884601Y-117463058D01*
X117955042Y-117448319D01*
X118495308Y-117328636D01*
X119019004Y-117198372D01*
X119429847Y-117081787D01*
X119497822Y-117059605D01*
X119874757Y-116966335D01*
X120114642Y-116972671D01*
G37*
G36*
X123260158Y-119987520D02*
G01*
X123292397Y-120102176D01*
X123229053Y-120278679D01*
X123069924Y-120565385D01*
X122954221Y-120744889D01*
X122726632Y-121122100D01*
X122473441Y-121603424D01*
X122283435Y-122009009D01*
X122071936Y-122432634D01*
X121884789Y-122695158D01*
X121741008Y-122780696D01*
X121659609Y-122673362D01*
X121648241Y-122539640D01*
X121703438Y-122279336D01*
X121848775Y-121883222D01*
X122053869Y-121417447D01*
X122288339Y-120948159D01*
X122521802Y-120541504D01*
X122656036Y-120345479D01*
X122899466Y-120088971D01*
X123116359Y-119963718D01*
X123260158Y-119987520D01*
G37*
G36*
X127195342Y-122608576D02*
G01*
X127228458Y-122651028D01*
X127178090Y-122771105D01*
X126976028Y-122960600D01*
X126794426Y-123092000D01*
X126409421Y-123417810D01*
X126091666Y-123864056D01*
X125940370Y-124153049D01*
X125691754Y-124602045D01*
X125482419Y-124846077D01*
X125381805Y-124888003D01*
X125207493Y-124839437D01*
X125176018Y-124779834D01*
X125220703Y-124616854D01*
X125336109Y-124315098D01*
X125451254Y-124044880D01*
X125700919Y-123596654D01*
X126016440Y-123193182D01*
X126360730Y-122863550D01*
X126696701Y-122636847D01*
X126987268Y-122542160D01*
X127195342Y-122608576D01*
G37*
G36*
X142215470Y-135632791D02*
G01*
X142226944Y-135717110D01*
X142146861Y-135849843D01*
X141939779Y-136080879D01*
X141727176Y-136288071D01*
X141221590Y-136912022D01*
X140953223Y-137466419D01*
X140781726Y-137850796D01*
X140619403Y-138105719D01*
X140512251Y-138182037D01*
X140364448Y-138087796D01*
X140345463Y-138006885D01*
X140387225Y-137814760D01*
X140496802Y-137478192D01*
X140650631Y-137069444D01*
X140653363Y-137062611D01*
X140925145Y-136498348D01*
X141248419Y-136078333D01*
X141471485Y-135875402D01*
X141833881Y-135622940D01*
X142087964Y-135540794D01*
X142215470Y-135632791D01*
G37*
G36*
X148112699Y-71717968D02*
G01*
X148135972Y-71735813D01*
X148319947Y-71884871D01*
X148590246Y-72102154D01*
X148656841Y-72155495D01*
X148902725Y-72432474D01*
X149126271Y-72817746D01*
X149294551Y-73233634D01*
X149374636Y-73602464D01*
X149355890Y-73804465D01*
X149212474Y-73958659D01*
X149036822Y-73948128D01*
X148932817Y-73787690D01*
X148929722Y-73743676D01*
X148861452Y-73363826D01*
X148688785Y-72941466D01*
X148459935Y-72575737D01*
X148272992Y-72393261D01*
X148037935Y-72125989D01*
X147988981Y-71911264D01*
X148016165Y-71712794D01*
X148112699Y-71717968D01*
G37*
G36*
X151476508Y-136712129D02*
G01*
X151567687Y-136931246D01*
X151626112Y-137006111D01*
X151674082Y-137136341D01*
X151741829Y-137434369D01*
X151818028Y-137834875D01*
X151891359Y-138272535D01*
X151950497Y-138682030D01*
X151984121Y-138998037D01*
X151987907Y-139093379D01*
X151912755Y-139224472D01*
X151751968Y-139216797D01*
X151599295Y-139083681D01*
X151574292Y-139034583D01*
X151534003Y-138833099D01*
X151494956Y-138458538D01*
X151462776Y-137972967D01*
X151449060Y-137652870D01*
X151438610Y-137190109D01*
X151441678Y-136859585D01*
X151457177Y-136698555D01*
X151476508Y-136712129D01*
G37*
G36*
X171921023Y-131787235D02*
G01*
X171935406Y-131874306D01*
X172011616Y-132014603D01*
X172217771Y-132244271D01*
X172496221Y-132510842D01*
X172789313Y-132761847D01*
X173039396Y-132944817D01*
X173181039Y-133007963D01*
X173261295Y-133103583D01*
X173271389Y-133184352D01*
X173194478Y-133341344D01*
X172971536Y-133328105D01*
X172614252Y-133148864D01*
X172134313Y-132807850D01*
X172052930Y-132743379D01*
X171622322Y-132381578D01*
X171373984Y-132124774D01*
X171293266Y-131949380D01*
X171365521Y-131831803D01*
X171458321Y-131785821D01*
X171761791Y-131717424D01*
X171921023Y-131787235D01*
G37*
G36*
X177035707Y-84972226D02*
G01*
X177143809Y-85098846D01*
X177066340Y-85248266D01*
X176788242Y-85437983D01*
X176510495Y-85582522D01*
X176085110Y-85831414D01*
X175853279Y-86060362D01*
X175820953Y-86139809D01*
X175778280Y-86273033D01*
X175756847Y-86235509D01*
X175646174Y-86104599D01*
X175564444Y-86088518D01*
X175411851Y-86013548D01*
X175416237Y-85831207D01*
X175573353Y-85605348D01*
X175598139Y-85582068D01*
X175846016Y-85408387D01*
X176185852Y-85229499D01*
X176545030Y-85076210D01*
X176850935Y-84979325D01*
X177030953Y-84969648D01*
X177035707Y-84972226D01*
G37*
G36*
X182694498Y-118713351D02*
G01*
X183122125Y-118820212D01*
X183569939Y-118986169D01*
X183998979Y-119189981D01*
X184370286Y-119410409D01*
X184644898Y-119626215D01*
X184783856Y-119816160D01*
X184748200Y-119959004D01*
X184707268Y-119984950D01*
X184569320Y-119955005D01*
X184276731Y-119837619D01*
X183882897Y-119655046D01*
X183710030Y-119569283D01*
X183109386Y-119299702D01*
X182587623Y-119130824D01*
X182298919Y-119084165D01*
X181929985Y-119024098D01*
X181778575Y-118917416D01*
X181842199Y-118800610D01*
X182118369Y-118710173D01*
X182326018Y-118686823D01*
X182694498Y-118713351D01*
G37*
G36*
X183821352Y-90601307D02*
G01*
X183841893Y-90708842D01*
X183836156Y-90742985D01*
X183683178Y-90926876D01*
X183308813Y-91077144D01*
X183265953Y-91088440D01*
X182704008Y-91265135D01*
X182285773Y-91490888D01*
X181919790Y-91817585D01*
X181853778Y-91889582D01*
X181640539Y-92111704D01*
X181523525Y-92170034D01*
X181451434Y-92083940D01*
X181436360Y-92047160D01*
X181442625Y-91763041D01*
X181639921Y-91457010D01*
X181989607Y-91157790D01*
X182453045Y-90894104D01*
X182991595Y-90694678D01*
X183365923Y-90612755D01*
X183681029Y-90574356D01*
X183821352Y-90601307D01*
G37*
G36*
X118607172Y-118025005D02*
G01*
X118713345Y-118170276D01*
X118616244Y-118328446D01*
X118346426Y-118487241D01*
X117934450Y-118634385D01*
X117410874Y-118757604D01*
X116806259Y-118844623D01*
X116505034Y-118869386D01*
X116019814Y-118893249D01*
X115725106Y-118887124D01*
X115577546Y-118845791D01*
X115533768Y-118764030D01*
X115533426Y-118752424D01*
X115643846Y-118614921D01*
X115948241Y-118508429D01*
X116406313Y-118443273D01*
X116800484Y-118427775D01*
X117128517Y-118387295D01*
X117558946Y-118284675D01*
X117845757Y-118194454D01*
X118214683Y-118080114D01*
X118495215Y-118021243D01*
X118607172Y-118025005D01*
G37*
G36*
X125166636Y-84011301D02*
G01*
X125774237Y-84136578D01*
X126036742Y-84201609D01*
X126643763Y-84367951D01*
X127046453Y-84508771D01*
X127272342Y-84637943D01*
X127348963Y-84769342D01*
X127334521Y-84855590D01*
X127278183Y-84971622D01*
X127187250Y-85008806D01*
X127000583Y-84965328D01*
X126657039Y-84839373D01*
X126645926Y-84835157D01*
X126279567Y-84720892D01*
X125793339Y-84600850D01*
X125352505Y-84512209D01*
X124878396Y-84411718D01*
X124604100Y-84306585D01*
X124494431Y-84182816D01*
X124491336Y-84169784D01*
X124538176Y-84028171D01*
X124758945Y-83975254D01*
X125166636Y-84011301D01*
G37*
G36*
X133743010Y-79187002D02*
G01*
X133869051Y-79494192D01*
X133973008Y-79903487D01*
X134045401Y-80370558D01*
X134076754Y-80851073D01*
X134057587Y-81300701D01*
X134004460Y-81590602D01*
X133861879Y-81940183D01*
X133688315Y-82093637D01*
X133505723Y-82031773D01*
X133502919Y-82028999D01*
X133492071Y-81887681D01*
X133539372Y-81608830D01*
X133566184Y-81500682D01*
X133626161Y-81110416D01*
X133614775Y-80612429D01*
X133550525Y-80071181D01*
X133491943Y-79622905D01*
X133458786Y-79272065D01*
X133456078Y-79076640D01*
X133462590Y-79056267D01*
X133604364Y-79026251D01*
X133743010Y-79187002D01*
G37*
G36*
X180348722Y-124287387D02*
G01*
X180377162Y-124311328D01*
X180401975Y-124466415D01*
X180228284Y-124640756D01*
X179888529Y-124809138D01*
X179626821Y-124894508D01*
X179310756Y-124952337D01*
X178891918Y-124990741D01*
X178439693Y-125008404D01*
X178023471Y-125004009D01*
X177712638Y-124976241D01*
X177583117Y-124933271D01*
X177509237Y-124754923D01*
X177504722Y-124698086D01*
X177568791Y-124615167D01*
X177783511Y-124565550D01*
X178182656Y-124543627D01*
X178449240Y-124541296D01*
X179078309Y-124512758D01*
X179591983Y-124433411D01*
X179822374Y-124362208D01*
X180154882Y-124256839D01*
X180348722Y-124287387D01*
G37*
G36*
X185325261Y-95057284D02*
G01*
X185347984Y-95102809D01*
X185381421Y-95222567D01*
X185344520Y-95310958D01*
X185196498Y-95391717D01*
X184896571Y-95488583D01*
X184491234Y-95601448D01*
X184049982Y-95723848D01*
X183672800Y-95831616D01*
X183440949Y-95901532D01*
X183440158Y-95901791D01*
X183215957Y-95933108D01*
X183124880Y-95902812D01*
X183083146Y-95731596D01*
X183235524Y-95545120D01*
X183547496Y-95383249D01*
X183586383Y-95369870D01*
X183949540Y-95261787D01*
X184406602Y-95140893D01*
X184643145Y-95083587D01*
X185018293Y-95006027D01*
X185226225Y-94996729D01*
X185325261Y-95057284D01*
G37*
G36*
X123358471Y-104712088D02*
G01*
X123742031Y-104900788D01*
X123957405Y-105032582D01*
X124365415Y-105286495D01*
X124862902Y-105587614D01*
X125293611Y-105842276D01*
X125731475Y-106126586D01*
X126008684Y-106368675D01*
X126111632Y-106549944D01*
X126026710Y-106651794D01*
X125897136Y-106667222D01*
X125671738Y-106619899D01*
X125593971Y-106559950D01*
X125466652Y-106458297D01*
X125183223Y-106278443D01*
X124795310Y-106052442D01*
X124616892Y-105953251D01*
X123953338Y-105576938D01*
X123486702Y-105281503D01*
X123198459Y-105053498D01*
X123070087Y-104879475D01*
X123059352Y-104822422D01*
X123133058Y-104686468D01*
X123358471Y-104712088D01*
G37*
G36*
X150688006Y-136609674D02*
G01*
X150772848Y-136849431D01*
X150855462Y-137281944D01*
X150904300Y-137623472D01*
X150976778Y-138153609D01*
X151046904Y-138638356D01*
X151103242Y-138999647D01*
X151119592Y-139093379D01*
X151144053Y-139364151D01*
X151069248Y-139468495D01*
X151012443Y-139475555D01*
X150855912Y-139375696D01*
X150708590Y-139131469D01*
X150693701Y-139093379D01*
X150623444Y-138803205D01*
X150556597Y-138356930D01*
X150504115Y-137833514D01*
X150489786Y-137623472D01*
X150465403Y-137100273D01*
X150468634Y-136771334D01*
X150503257Y-136596940D01*
X150573049Y-136537378D01*
X150593235Y-136535740D01*
X150688006Y-136609674D01*
G37*
G36*
X185471027Y-110236552D02*
G01*
X186104564Y-110290517D01*
X186785775Y-110362475D01*
X187266095Y-110425901D01*
X187579194Y-110489388D01*
X187758742Y-110561530D01*
X187838407Y-110650921D01*
X187852870Y-110736747D01*
X187749386Y-110851505D01*
X187436121Y-110883757D01*
X186908851Y-110833634D01*
X186559352Y-110776960D01*
X186179833Y-110730163D01*
X185667963Y-110693786D01*
X185126552Y-110674886D01*
X185060046Y-110674086D01*
X184566518Y-110661317D01*
X184267428Y-110628784D01*
X184122344Y-110568867D01*
X184089907Y-110491222D01*
X184168012Y-110340563D01*
X184413279Y-110248990D01*
X184842141Y-110214865D01*
X185471027Y-110236552D01*
G37*
G36*
X122523357Y-105526369D02*
G01*
X122980235Y-105789321D01*
X123319839Y-106004498D01*
X123926648Y-106413389D01*
X124342722Y-106734909D01*
X124587267Y-106987695D01*
X124679489Y-107190384D01*
X124664804Y-107309601D01*
X124533714Y-107475101D01*
X124357635Y-107410895D01*
X124200330Y-107216282D01*
X124044003Y-107059827D01*
X123757906Y-106835000D01*
X123403173Y-106583245D01*
X123040941Y-106346010D01*
X122732347Y-106164738D01*
X122538526Y-106080875D01*
X122523101Y-106079259D01*
X122368694Y-105995832D01*
X122174806Y-105807657D01*
X122029021Y-105607890D01*
X122001018Y-105523958D01*
X122052729Y-105400604D01*
X122220515Y-105399102D01*
X122523357Y-105526369D01*
G37*
G36*
X138202198Y-77965380D02*
G01*
X138361530Y-78256374D01*
X138508459Y-78678963D01*
X138633806Y-79182091D01*
X138728395Y-79714702D01*
X138783049Y-80225740D01*
X138788590Y-80664151D01*
X138735841Y-80978878D01*
X138625460Y-81116145D01*
X138477866Y-81062193D01*
X138419673Y-80968593D01*
X138370632Y-80726545D01*
X138346819Y-80384657D01*
X138346389Y-80335674D01*
X138316698Y-80005301D01*
X138238345Y-79541906D01*
X138127407Y-79038567D01*
X138111204Y-78974166D01*
X137982349Y-78463255D01*
X137909976Y-78138049D01*
X137891399Y-77956630D01*
X137923933Y-77877083D01*
X138004893Y-77857490D01*
X138039639Y-77857037D01*
X138202198Y-77965380D01*
G37*
G36*
X152015550Y-74139617D02*
G01*
X152065904Y-74300474D01*
X152093789Y-74612983D01*
X152104236Y-75113480D01*
X152104722Y-75300174D01*
X152115179Y-75853701D01*
X152143293Y-76357947D01*
X152184182Y-76741170D01*
X152212349Y-76881547D01*
X152261682Y-77191274D01*
X152177260Y-77374480D01*
X152161753Y-77388131D01*
X152011749Y-77441829D01*
X151880041Y-77288657D01*
X151876501Y-77282087D01*
X151770917Y-76972523D01*
X151699093Y-76536419D01*
X151660058Y-76024370D01*
X151652840Y-75486970D01*
X151676468Y-74974811D01*
X151729972Y-74538487D01*
X151812379Y-74228592D01*
X151922720Y-74095720D01*
X151937693Y-74094074D01*
X152015550Y-74139617D01*
G37*
G36*
X170103504Y-131905230D02*
G01*
X170368084Y-132104108D01*
X170728906Y-132397620D01*
X171114459Y-132726805D01*
X171549109Y-133096231D01*
X171944244Y-133414861D01*
X172252500Y-133645523D01*
X172412057Y-133745218D01*
X172619832Y-133900236D01*
X172676021Y-134064466D01*
X172570312Y-134169581D01*
X172477639Y-134179722D01*
X172220054Y-134120896D01*
X171990118Y-134019415D01*
X171717188Y-133835884D01*
X171363584Y-133553885D01*
X170971832Y-133213159D01*
X170584459Y-132853444D01*
X170243990Y-132514483D01*
X169992950Y-132236014D01*
X169873866Y-132057779D01*
X169869633Y-132037824D01*
X169915784Y-131863601D01*
X169974717Y-131832037D01*
X170103504Y-131905230D01*
G37*
G36*
X170429759Y-79719308D02*
G01*
X170434834Y-79722493D01*
X170553114Y-79864674D01*
X170438045Y-79979794D01*
X170089918Y-80067714D01*
X169600344Y-80121769D01*
X168705765Y-80255468D01*
X168007465Y-80504890D01*
X167510440Y-80868155D01*
X167457709Y-80927387D01*
X167247699Y-81165967D01*
X167126361Y-81253404D01*
X167035994Y-81222641D01*
X166999784Y-81188827D01*
X166937249Y-80984038D01*
X167052980Y-80722884D01*
X167309557Y-80442763D01*
X167669557Y-80181069D01*
X168095560Y-79975199D01*
X168271294Y-79918176D01*
X168779467Y-79800851D01*
X169311935Y-79716646D01*
X169806163Y-79671216D01*
X170199616Y-79670218D01*
X170429759Y-79719308D01*
G37*
G36*
X124553622Y-90105009D02*
G01*
X124679815Y-90378362D01*
X124918179Y-90495229D01*
X125291177Y-90634500D01*
X125727384Y-90868482D01*
X126178342Y-91161470D01*
X126595594Y-91477759D01*
X126930684Y-91781644D01*
X127135154Y-92037419D01*
X127175092Y-92158220D01*
X127077097Y-92290169D01*
X126939907Y-92320926D01*
X126748719Y-92278686D01*
X126704722Y-92220208D01*
X126612968Y-92093815D01*
X126376408Y-91889041D01*
X126053093Y-91646501D01*
X125701077Y-91406813D01*
X125378410Y-91210593D01*
X125143145Y-91098457D01*
X125083917Y-91086203D01*
X124755039Y-90985045D01*
X124549128Y-90701662D01*
X124488082Y-90266319D01*
X124505151Y-90012667D01*
X124530252Y-89988789D01*
X124553622Y-90105009D01*
G37*
G36*
X130465644Y-129696816D02*
G01*
X130482268Y-129943026D01*
X130471053Y-130009352D01*
X130442264Y-130168062D01*
X130383637Y-130504875D01*
X130304479Y-130965989D01*
X130237129Y-131361666D01*
X130067434Y-132230308D01*
X129891726Y-132872975D01*
X129711017Y-133286863D01*
X129526316Y-133469169D01*
X129474148Y-133478333D01*
X129313737Y-133424301D01*
X129291759Y-133375525D01*
X129328179Y-133210539D01*
X129420158Y-132913173D01*
X129472147Y-132761442D01*
X129572703Y-132411249D01*
X129686449Y-131914821D01*
X129794189Y-131358866D01*
X129831239Y-131139629D01*
X129952658Y-130462927D01*
X130067998Y-129997238D01*
X130185312Y-129718816D01*
X130312658Y-129603912D01*
X130354230Y-129597777D01*
X130465644Y-129696816D01*
G37*
G36*
X176626747Y-84236376D02*
G01*
X176639624Y-84267331D01*
X176679098Y-84441770D01*
X176666703Y-84482033D01*
X176554218Y-84557792D01*
X176300902Y-84728321D01*
X175961040Y-84957077D01*
X175952670Y-84962711D01*
X175367936Y-85388283D01*
X174988430Y-85742576D01*
X174800079Y-86039272D01*
X174782434Y-86100269D01*
X174730471Y-86213514D01*
X174618164Y-86163401D01*
X174506111Y-86060519D01*
X174395333Y-85941424D01*
X174367479Y-85834506D01*
X174445631Y-85695130D01*
X174652871Y-85478662D01*
X174953534Y-85195321D01*
X175351129Y-84849952D01*
X175755527Y-84540389D01*
X176083611Y-84329951D01*
X176102381Y-84320155D01*
X176395941Y-84182114D01*
X176549623Y-84156263D01*
X176626747Y-84236376D01*
G37*
G36*
X185583824Y-95900906D02*
G01*
X185612575Y-96025445D01*
X185480428Y-96174213D01*
X185207933Y-96299104D01*
X185177639Y-96307421D01*
X184823536Y-96398727D01*
X184355590Y-96518059D01*
X183972315Y-96615048D01*
X183565869Y-96728834D01*
X183249051Y-96838376D01*
X183096250Y-96916149D01*
X182896982Y-97020010D01*
X182757191Y-96946234D01*
X182700955Y-96780258D01*
X182688080Y-96564058D01*
X182712636Y-96390908D01*
X182756362Y-96406329D01*
X182884202Y-96490844D01*
X183017331Y-96444289D01*
X183251012Y-96354164D01*
X183641961Y-96236082D01*
X184117601Y-96108389D01*
X184605358Y-95989428D01*
X185032656Y-95897544D01*
X185326920Y-95851081D01*
X185373620Y-95848703D01*
X185583824Y-95900906D01*
G37*
G36*
X188384239Y-102636589D02*
G01*
X188612511Y-102687175D01*
X188653774Y-102727870D01*
X188641468Y-102791179D01*
X188539779Y-102850236D01*
X188315316Y-102913899D01*
X187934690Y-102991028D01*
X187364512Y-103090481D01*
X187156226Y-103125213D01*
X186663386Y-103242970D01*
X186086116Y-103433450D01*
X185546195Y-103656281D01*
X185527123Y-103665284D01*
X185038091Y-103892759D01*
X184722036Y-104022397D01*
X184542053Y-104062484D01*
X184461238Y-104021304D01*
X184442685Y-103908753D01*
X184547475Y-103737026D01*
X184833118Y-103518798D01*
X185256527Y-103279415D01*
X185774613Y-103044223D01*
X186157174Y-102900251D01*
X186560550Y-102791537D01*
X187040984Y-102706945D01*
X187542436Y-102650344D01*
X188008868Y-102625602D01*
X188384239Y-102636589D01*
G37*
G36*
X176368622Y-125270765D02*
G01*
X176621181Y-125326852D01*
X177038283Y-125433480D01*
X177440734Y-125523743D01*
X177790114Y-125560498D01*
X178176382Y-125545442D01*
X178689496Y-125480271D01*
X178782272Y-125466383D01*
X179331509Y-125383786D01*
X179690387Y-125336029D01*
X179901278Y-125324097D01*
X180006560Y-125348975D01*
X180048607Y-125411648D01*
X180066445Y-125496231D01*
X180050318Y-125624652D01*
X179926491Y-125721518D01*
X179666353Y-125793323D01*
X179241294Y-125846560D01*
X178622704Y-125887725D01*
X178269074Y-125904233D01*
X177616728Y-125922206D01*
X177148699Y-125908764D01*
X176815783Y-125860413D01*
X176593380Y-125785246D01*
X176338917Y-125622701D01*
X176213856Y-125451562D01*
X176211204Y-125428917D01*
X176212429Y-125322067D01*
X176248637Y-125269260D01*
X176368622Y-125270765D01*
G37*
G36*
X130124576Y-127427813D02*
G01*
X130181136Y-127564680D01*
X130103500Y-127664549D01*
X129888673Y-127919929D01*
X129702206Y-128395256D01*
X129547879Y-129076583D01*
X129429471Y-129949959D01*
X129400531Y-130258919D01*
X129319783Y-131113621D01*
X129238772Y-131755716D01*
X129152415Y-132207732D01*
X129055634Y-132492198D01*
X128943348Y-132631642D01*
X128860169Y-132655185D01*
X128746768Y-132613929D01*
X128715637Y-132452473D01*
X128747794Y-132155416D01*
X128788977Y-131831168D01*
X128841742Y-131345034D01*
X128898519Y-130769536D01*
X128939856Y-130315194D01*
X128997828Y-129730816D01*
X129063719Y-129190973D01*
X129128525Y-128763828D01*
X129172916Y-128551305D01*
X129326421Y-128127267D01*
X129527927Y-127748440D01*
X129739634Y-127474143D01*
X129923742Y-127363689D01*
X129929850Y-127363518D01*
X130124576Y-127427813D01*
G37*
G36*
X147785414Y-140196279D02*
G01*
X147848271Y-140267890D01*
X147833247Y-140435100D01*
X147736070Y-140737069D01*
X147552465Y-141212955D01*
X147530217Y-141269023D01*
X147360234Y-141720276D01*
X147225579Y-142120894D01*
X147152073Y-142393289D01*
X147148041Y-142417411D01*
X147044487Y-142673314D01*
X146879493Y-142748661D01*
X146725204Y-142638345D01*
X146662771Y-142451756D01*
X146613109Y-142121389D01*
X146595489Y-142444768D01*
X146531906Y-142692863D01*
X146353537Y-142768035D01*
X146342685Y-142768148D01*
X146148125Y-142690807D01*
X146107500Y-142583094D01*
X146145815Y-142365871D01*
X146245382Y-142008381D01*
X146265670Y-141945000D01*
X146705529Y-141945000D01*
X146742000Y-141989446D01*
X146815490Y-141883913D01*
X146887910Y-141701289D01*
X146920582Y-141533426D01*
X146877470Y-141512282D01*
X146813055Y-141592222D01*
X146715555Y-141843252D01*
X146705529Y-141945000D01*
X146265670Y-141945000D01*
X146383130Y-141578041D01*
X146481276Y-141298240D01*
X146934249Y-141298240D01*
X146982774Y-141319275D01*
X147048241Y-141239444D01*
X147147746Y-141025071D01*
X147162232Y-140945463D01*
X147113708Y-140924428D01*
X147048241Y-141004259D01*
X146948735Y-141218632D01*
X146934249Y-141298240D01*
X146481276Y-141298240D01*
X146535988Y-141142264D01*
X146680887Y-140768467D01*
X146794756Y-140524064D01*
X146828881Y-140475092D01*
X146982561Y-140453505D01*
X147109086Y-140577738D01*
X147231082Y-140717803D01*
X147298754Y-140665886D01*
X147349103Y-140489544D01*
X147489712Y-140238189D01*
X147648952Y-140181111D01*
X147785414Y-140196279D01*
G37*
G36*
X121739177Y-97883688D02*
G01*
X121857917Y-97942778D01*
X121883426Y-98016242D01*
X121850611Y-98130927D01*
X121726118Y-98214665D01*
X121470871Y-98278727D01*
X121045796Y-98334383D01*
X120648704Y-98372388D01*
X119944170Y-98439060D01*
X119442603Y-98498402D01*
X119112203Y-98557100D01*
X118921168Y-98621842D01*
X118837700Y-98699314D01*
X118826018Y-98755655D01*
X118903196Y-98877100D01*
X119001304Y-98864010D01*
X119247737Y-98804296D01*
X119639859Y-98746379D01*
X120119400Y-98694617D01*
X120628085Y-98653371D01*
X121107643Y-98626998D01*
X121499801Y-98619859D01*
X121746288Y-98636314D01*
X121796820Y-98654876D01*
X121871487Y-98797170D01*
X121762854Y-98906504D01*
X121454846Y-98989425D01*
X120931389Y-99052485D01*
X120793324Y-99063760D01*
X120111535Y-99142769D01*
X119379929Y-99271595D01*
X118670279Y-99433892D01*
X118054358Y-99613315D01*
X117616387Y-99787244D01*
X117351339Y-99916433D01*
X117221937Y-99950487D01*
X117151562Y-99895531D01*
X117109156Y-99827807D01*
X117122005Y-99653791D01*
X117326588Y-99460136D01*
X117684083Y-99273640D01*
X118119888Y-99130079D01*
X118499635Y-98997053D01*
X118689116Y-98851327D01*
X118672822Y-98711779D01*
X118532037Y-98628401D01*
X118400859Y-98470523D01*
X118357449Y-98233644D01*
X118383618Y-98040818D01*
X118444213Y-98030694D01*
X118445643Y-98032737D01*
X118576674Y-98085362D01*
X118881619Y-98092829D01*
X119382520Y-98054798D01*
X119766759Y-98012324D01*
X120539558Y-97925518D01*
X121107535Y-97875109D01*
X121498229Y-97861149D01*
X121739177Y-97883688D01*
G37*
G36*
X152810480Y-62626075D02*
G01*
X152880903Y-62649607D01*
X152996827Y-62771184D01*
X153193038Y-63055036D01*
X153439692Y-63455633D01*
X153647446Y-63819035D01*
X153959321Y-64359736D01*
X154225459Y-64752006D01*
X154499450Y-65060597D01*
X154834887Y-65350257D01*
X155050569Y-65514286D01*
X155882414Y-66199386D01*
X156560700Y-66900255D01*
X157005958Y-67508889D01*
X157198861Y-67868547D01*
X157353397Y-68266643D01*
X157475730Y-68737728D01*
X157572022Y-69316357D01*
X157648440Y-70037081D01*
X157711147Y-70934456D01*
X157749828Y-71678636D01*
X157789427Y-72483640D01*
X157831245Y-73269112D01*
X157872262Y-73982765D01*
X157909458Y-74572311D01*
X157939812Y-74985462D01*
X157942855Y-75020738D01*
X158019568Y-75888607D01*
X158222684Y-75232134D01*
X158439959Y-74629286D01*
X158719582Y-74052729D01*
X159086081Y-73466753D01*
X159563981Y-72835648D01*
X160177810Y-72123702D01*
X160861846Y-71389444D01*
X161697803Y-70443866D01*
X162323202Y-69574978D01*
X162745338Y-68770871D01*
X162971511Y-68019633D01*
X162987597Y-67920463D01*
X163079197Y-67386355D01*
X163180700Y-67049758D01*
X163313006Y-66873253D01*
X163497012Y-66819422D01*
X163599455Y-66824926D01*
X163836621Y-66905724D01*
X164033864Y-67120925D01*
X164183481Y-67391296D01*
X164567873Y-68266241D01*
X164908850Y-69223452D01*
X165189082Y-70199169D01*
X165391237Y-71129631D01*
X165497984Y-71951078D01*
X165510278Y-72272434D01*
X165482609Y-72758280D01*
X165389706Y-73275774D01*
X165216724Y-73895362D01*
X165081727Y-74306191D01*
X164897981Y-74862601D01*
X164775108Y-75302187D01*
X164700373Y-75703728D01*
X164661038Y-76146006D01*
X164644369Y-76707801D01*
X164640755Y-77033889D01*
X164645696Y-77781164D01*
X164678763Y-78355354D01*
X164745669Y-78817487D01*
X164843653Y-79201444D01*
X165058972Y-79899091D01*
X165673061Y-79260027D01*
X166062675Y-78885777D01*
X166406756Y-78645780D01*
X166795857Y-78482474D01*
X166986445Y-78425155D01*
X167603115Y-78260719D01*
X168223066Y-78109605D01*
X168791017Y-77983939D01*
X169251686Y-77895846D01*
X169549792Y-77857452D01*
X169577838Y-77856729D01*
X170016469Y-77763662D01*
X170551569Y-77501737D01*
X171149917Y-77098294D01*
X171778294Y-76580669D01*
X172403478Y-75976201D01*
X172992251Y-75312229D01*
X173506020Y-74624061D01*
X174140399Y-73528535D01*
X174714325Y-72216034D01*
X175224605Y-70697688D01*
X175668050Y-68984630D01*
X176041467Y-67087992D01*
X176341667Y-65018905D01*
X176398453Y-64533790D01*
X176501494Y-64012324D01*
X176666871Y-63663094D01*
X176880276Y-63514131D01*
X176920578Y-63510740D01*
X177125558Y-63622746D01*
X177371130Y-63946407D01*
X177649675Y-64463185D01*
X177953575Y-65154545D01*
X178275210Y-66001951D01*
X178606962Y-66986865D01*
X178941211Y-68090752D01*
X179221788Y-69109482D01*
X179374936Y-69764839D01*
X179480719Y-70417272D01*
X179549872Y-71149155D01*
X179589082Y-71927850D01*
X179608411Y-72703137D01*
X179593981Y-73330680D01*
X179533021Y-73876674D01*
X179412758Y-74407318D01*
X179220423Y-74988807D01*
X178943242Y-75687339D01*
X178796439Y-76036293D01*
X178171962Y-77379381D01*
X177492594Y-78569983D01*
X176708040Y-79685825D01*
X175768007Y-80804638D01*
X175572641Y-81018584D01*
X175032528Y-81623106D01*
X174629678Y-82130506D01*
X174325983Y-82600369D01*
X174083332Y-83092276D01*
X173863615Y-83665812D01*
X173844942Y-83719754D01*
X173727559Y-84072226D01*
X173689109Y-84239598D01*
X173728417Y-84257890D01*
X173830045Y-84175994D01*
X174105434Y-83990539D01*
X174562109Y-83753024D01*
X175157060Y-83482126D01*
X175847278Y-83196524D01*
X176589754Y-82914895D01*
X177296293Y-82670676D01*
X177911624Y-82450835D01*
X178518603Y-82202762D01*
X179040397Y-81959534D01*
X179354163Y-81784764D01*
X179975252Y-81330269D01*
X180662963Y-80730668D01*
X181360604Y-80041118D01*
X182011478Y-79316774D01*
X182424470Y-78797777D01*
X182714342Y-78368151D01*
X183018555Y-77848946D01*
X183310475Y-77294362D01*
X183563466Y-76758595D01*
X183750893Y-76295846D01*
X183846120Y-75960312D01*
X183852744Y-75891498D01*
X183953314Y-75700416D01*
X184179006Y-75598056D01*
X184425029Y-75623623D01*
X184480280Y-75656732D01*
X184570352Y-75832726D01*
X184663230Y-76198472D01*
X184753867Y-76708668D01*
X184837216Y-77318010D01*
X184908232Y-77981196D01*
X184961869Y-78652923D01*
X184993079Y-79287890D01*
X184996817Y-79840794D01*
X184980800Y-80150092D01*
X184863275Y-81068133D01*
X184671053Y-81853655D01*
X184379997Y-82544162D01*
X183965967Y-83177155D01*
X183404826Y-83790138D01*
X182672436Y-84420613D01*
X181829313Y-85046448D01*
X181380787Y-85379967D01*
X180896174Y-85767935D01*
X180399776Y-86187372D01*
X179915896Y-86615295D01*
X179468834Y-87028723D01*
X179082893Y-87404673D01*
X178782375Y-87720164D01*
X178591582Y-87952214D01*
X178534816Y-88077841D01*
X178621852Y-88079670D01*
X179350051Y-87871617D01*
X180288689Y-87706241D01*
X181445243Y-87582474D01*
X182620000Y-87508492D01*
X183559220Y-87453470D01*
X184306690Y-87378167D01*
X184905745Y-87269224D01*
X185399718Y-87113284D01*
X185831944Y-86896990D01*
X186245756Y-86606984D01*
X186641702Y-86268798D01*
X187016097Y-85871850D01*
X187470636Y-85294989D01*
X187984277Y-84570607D01*
X188535973Y-83731093D01*
X189104679Y-82808838D01*
X189669351Y-81836233D01*
X190208943Y-80845668D01*
X190382733Y-80510967D01*
X190771489Y-79779403D01*
X191087109Y-79266451D01*
X191345678Y-78973114D01*
X191563281Y-78900398D01*
X191756000Y-79049310D01*
X191939921Y-79420854D01*
X192131128Y-80016036D01*
X192294228Y-80630461D01*
X192455105Y-81285854D01*
X192561412Y-81794675D01*
X192622201Y-82236769D01*
X192646525Y-82691977D01*
X192643435Y-83240146D01*
X192633055Y-83619074D01*
X192577428Y-84564623D01*
X192460925Y-85354468D01*
X192261531Y-86064856D01*
X191957230Y-86772035D01*
X191526008Y-87552252D01*
X191470915Y-87644093D01*
X190799720Y-88644734D01*
X190084798Y-89470298D01*
X189283935Y-90154051D01*
X188354915Y-90729255D01*
X187255524Y-91229175D01*
X186624793Y-91462675D01*
X186047704Y-91674735D01*
X185472728Y-91904772D01*
X184987956Y-92116800D01*
X184802108Y-92207297D01*
X184148704Y-92544799D01*
X184677870Y-92550132D01*
X185021979Y-92564893D01*
X185521404Y-92600333D01*
X186097795Y-92650456D01*
X186466872Y-92687051D01*
X187585581Y-92750750D01*
X188642880Y-92708513D01*
X189589039Y-92565310D01*
X190374331Y-92326108D01*
X190462894Y-92287821D01*
X190916548Y-92096007D01*
X191461511Y-91883141D01*
X191887583Y-91727999D01*
X192409852Y-91565145D01*
X192754443Y-91526963D01*
X192956757Y-91638577D01*
X193052192Y-91925112D01*
X193076149Y-92411690D01*
X193075079Y-92570787D01*
X192963669Y-93512518D01*
X192650557Y-94348279D01*
X192130647Y-95085255D01*
X191398842Y-95730631D01*
X190450045Y-96291591D01*
X190427934Y-96302432D01*
X189820177Y-96558747D01*
X189098135Y-96800953D01*
X188335520Y-97009799D01*
X187606045Y-97166036D01*
X186983421Y-97250414D01*
X186761947Y-97259814D01*
X186480910Y-97300242D01*
X186044854Y-97409149D01*
X185508372Y-97567970D01*
X184926054Y-97758138D01*
X184352494Y-97961089D01*
X183842281Y-98158257D01*
X183450009Y-98331077D01*
X183230494Y-98460783D01*
X182972778Y-98688793D01*
X183266759Y-98618051D01*
X183947372Y-98501854D01*
X184703025Y-98472145D01*
X185599940Y-98527073D01*
X185795000Y-98547275D01*
X186378053Y-98606551D01*
X187104532Y-98673909D01*
X187883238Y-98741198D01*
X188622974Y-98800271D01*
X188646586Y-98802056D01*
X189335988Y-98850438D01*
X189857413Y-98873689D01*
X190277015Y-98868923D01*
X190660946Y-98833255D01*
X191075360Y-98763801D01*
X191491995Y-98677974D01*
X192272748Y-98487412D01*
X193032526Y-98247943D01*
X193838218Y-97935342D01*
X194756712Y-97525382D01*
X195026018Y-97398059D01*
X195614905Y-97048826D01*
X196260669Y-96553482D01*
X196911631Y-95962837D01*
X197516114Y-95327699D01*
X198022437Y-94698878D01*
X198378922Y-94127181D01*
X198403007Y-94077920D01*
X198670007Y-93558176D01*
X198892876Y-93235033D01*
X199098487Y-93080879D01*
X199313717Y-93068104D01*
X199371028Y-93083400D01*
X199515109Y-93159854D01*
X199618018Y-93304850D01*
X199684224Y-93550046D01*
X199718195Y-93927097D01*
X199724400Y-94467663D01*
X199707306Y-95203398D01*
X199700144Y-95415071D01*
X199635525Y-96467345D01*
X199514206Y-97345722D01*
X199322611Y-98107501D01*
X199047164Y-98809981D01*
X198768129Y-99348754D01*
X198486996Y-99775603D01*
X198088265Y-100290293D01*
X197611368Y-100850522D01*
X197095735Y-101413994D01*
X196580798Y-101938408D01*
X196105987Y-102381465D01*
X195710735Y-102700867D01*
X195544369Y-102806978D01*
X194998691Y-103053904D01*
X194275878Y-103309194D01*
X193432802Y-103557707D01*
X192526333Y-103784300D01*
X191613345Y-103973832D01*
X190750709Y-104111163D01*
X190557500Y-104134671D01*
X189725951Y-104257544D01*
X188795463Y-104442866D01*
X187826121Y-104674561D01*
X186878011Y-104936556D01*
X186011219Y-105212774D01*
X185285831Y-105487143D01*
X184976251Y-105627795D01*
X184633938Y-105813817D01*
X184245411Y-106050148D01*
X183858210Y-106304194D01*
X183519873Y-106543363D01*
X183277941Y-106735061D01*
X183179953Y-106846695D01*
X183182650Y-106857495D01*
X183303168Y-106851357D01*
X183580402Y-106804664D01*
X183792821Y-106761698D01*
X184521290Y-106700344D01*
X185391240Y-106787800D01*
X186367078Y-107018095D01*
X187344153Y-107357500D01*
X187916907Y-107571089D01*
X188495248Y-107762298D01*
X188992601Y-107903517D01*
X189203282Y-107950436D01*
X190108987Y-108055012D01*
X191132318Y-108069748D01*
X192190633Y-108000547D01*
X193201292Y-107853314D01*
X194081653Y-107633952D01*
X194202870Y-107593266D01*
X194538094Y-107444555D01*
X194998345Y-107199887D01*
X195516207Y-106898504D01*
X196024266Y-106579646D01*
X196455109Y-106282556D01*
X196457140Y-106281056D01*
X196794527Y-106031615D01*
X197037055Y-106274143D01*
X197148934Y-106414273D01*
X197222267Y-106600264D01*
X197266187Y-106883111D01*
X197289827Y-107313809D01*
X197299328Y-107738474D01*
X197303405Y-108306776D01*
X197285457Y-108712953D01*
X197232882Y-109029877D01*
X197133075Y-109330418D01*
X196973432Y-109687448D01*
X196955799Y-109724629D01*
X196487955Y-110483143D01*
X195872072Y-111144860D01*
X195169714Y-111645411D01*
X195067107Y-111699406D01*
X194767260Y-111824905D01*
X194308298Y-111987322D01*
X193758486Y-112163492D01*
X193309863Y-112295722D01*
X192431994Y-112516454D01*
X191667757Y-112636254D01*
X190942460Y-112655166D01*
X190181410Y-112573234D01*
X189309916Y-112390501D01*
X188948029Y-112298276D01*
X188317357Y-112141490D01*
X187765845Y-112031227D01*
X187215550Y-111957065D01*
X186588531Y-111908585D01*
X185806846Y-111875364D01*
X185777938Y-111874422D01*
X183996988Y-111816735D01*
X183249698Y-112492336D01*
X182886900Y-112820708D01*
X182577140Y-113101759D01*
X182372882Y-113287865D01*
X182338685Y-113319297D01*
X182269640Y-113422949D01*
X182366725Y-113493354D01*
X182632667Y-113552906D01*
X182939121Y-113631567D01*
X183390748Y-113776172D01*
X183915392Y-113962769D01*
X184234885Y-114084791D01*
X185543496Y-114698412D01*
X186650197Y-115431931D01*
X187555748Y-116285930D01*
X188147246Y-117074166D01*
X188864606Y-118113083D01*
X189613503Y-118993889D01*
X190424047Y-119735265D01*
X191326352Y-120355895D01*
X192350528Y-120874458D01*
X193526689Y-121309638D01*
X194884944Y-121680115D01*
X195935570Y-121906117D01*
X196181032Y-122063928D01*
X196273971Y-122259088D01*
X196286426Y-122475014D01*
X196183632Y-122695989D01*
X195932726Y-122988532D01*
X195893586Y-123029055D01*
X195489321Y-123411284D01*
X195089416Y-123700993D01*
X194622301Y-123939651D01*
X194016403Y-124168726D01*
X193805109Y-124239092D01*
X193335817Y-124379511D01*
X192912496Y-124468966D01*
X192455547Y-124517821D01*
X191885373Y-124536440D01*
X191512629Y-124537600D01*
X190677363Y-124508986D01*
X189779828Y-124435155D01*
X188959687Y-124327982D01*
X188870506Y-124312995D01*
X187946686Y-124118127D01*
X187171681Y-123864293D01*
X186479307Y-123517490D01*
X185803383Y-123043718D01*
X185077726Y-122408974D01*
X184974994Y-122311627D01*
X184295160Y-121681966D01*
X183722869Y-121208516D01*
X183211733Y-120869674D01*
X182715366Y-120643838D01*
X182187380Y-120509405D01*
X181581388Y-120444773D01*
X180931218Y-120428430D01*
X179947993Y-120425555D01*
X180029957Y-120862464D01*
X180159309Y-121331701D01*
X180386222Y-121806904D01*
X180743185Y-122350904D01*
X180928508Y-122600328D01*
X181268714Y-123010013D01*
X181611906Y-123323822D01*
X182007591Y-123568345D01*
X182505275Y-123770170D01*
X183154464Y-123955887D01*
X183687015Y-124081886D01*
X184425288Y-124258285D01*
X184987563Y-124426122D01*
X185430013Y-124614346D01*
X185808815Y-124851907D01*
X186180144Y-125167753D01*
X186585808Y-125575760D01*
X186960176Y-125997015D01*
X187209779Y-126370116D01*
X187393224Y-126794177D01*
X187496274Y-127115510D01*
X187649680Y-127697468D01*
X187703176Y-128105751D01*
X187655996Y-128379949D01*
X187507376Y-128559654D01*
X187467852Y-128586231D01*
X187285219Y-128641721D01*
X187043216Y-128579128D01*
X186762296Y-128435402D01*
X185916839Y-127979687D01*
X185195679Y-127648454D01*
X184536086Y-127423599D01*
X183875326Y-127287012D01*
X183150667Y-127220588D01*
X182502407Y-127205841D01*
X181759526Y-127216573D01*
X181148662Y-127261131D01*
X180567672Y-127351402D01*
X179914414Y-127499275D01*
X179856574Y-127513797D01*
X178958614Y-127725110D01*
X178230949Y-127857811D01*
X177624092Y-127917003D01*
X177088559Y-127907789D01*
X176632265Y-127846272D01*
X176255043Y-127786114D01*
X175980910Y-127760991D01*
X175881383Y-127771734D01*
X175897545Y-127913777D01*
X176072222Y-128183154D01*
X176385768Y-128553675D01*
X176755909Y-128937606D01*
X177210746Y-129335636D01*
X177737398Y-129687514D01*
X178379747Y-130016754D01*
X179181678Y-130346871D01*
X179805526Y-130571751D01*
X180207026Y-130706610D01*
X180613281Y-130832703D01*
X181056919Y-130958195D01*
X181570569Y-131091247D01*
X182186861Y-131240025D01*
X182938423Y-131412691D01*
X183857885Y-131617409D01*
X184871091Y-131839108D01*
X185471874Y-131981327D01*
X185916003Y-132121954D01*
X186279739Y-132292001D01*
X186639342Y-132522477D01*
X186752573Y-132604188D01*
X187135526Y-132884634D01*
X187476925Y-133133602D01*
X187702453Y-133296895D01*
X187902440Y-133479896D01*
X188205757Y-133804020D01*
X188573498Y-134223089D01*
X188966757Y-134690929D01*
X189346628Y-135161363D01*
X189674204Y-135588215D01*
X189888617Y-135891576D01*
X190087820Y-136250672D01*
X190304934Y-136729022D01*
X190484586Y-137199790D01*
X190642826Y-137645864D01*
X190791419Y-138032314D01*
X190899761Y-138279786D01*
X190904786Y-138289368D01*
X190983781Y-138584168D01*
X190932609Y-138846953D01*
X190773944Y-138995310D01*
X190707830Y-139005185D01*
X190544332Y-138922606D01*
X190280635Y-138703998D01*
X189968242Y-138393048D01*
X189904625Y-138323813D01*
X189196565Y-137703848D01*
X188272029Y-137167875D01*
X187134831Y-136717509D01*
X185788782Y-136354369D01*
X184827260Y-136169775D01*
X184044495Y-136090440D01*
X183096567Y-136074972D01*
X182043122Y-136118142D01*
X180943804Y-136214726D01*
X179858258Y-136359495D01*
X178846129Y-136547224D01*
X177975092Y-136770232D01*
X177683536Y-136839026D01*
X177230396Y-136923067D01*
X176687608Y-137009679D01*
X176328796Y-137060287D01*
X175582013Y-137141309D01*
X174963704Y-137154327D01*
X174389154Y-137089864D01*
X173773648Y-136938442D01*
X173036204Y-136691927D01*
X172427958Y-136449748D01*
X171869090Y-136168968D01*
X171316688Y-135820402D01*
X170727840Y-135374865D01*
X170059633Y-134803170D01*
X169479028Y-134272600D01*
X168097315Y-132985706D01*
X168097315Y-133971665D01*
X168161419Y-134993233D01*
X168367014Y-135966915D01*
X168734026Y-136980954D01*
X168822319Y-137182500D01*
X169134152Y-137806753D01*
X169517680Y-138467228D01*
X169936854Y-139110682D01*
X170355625Y-139683870D01*
X170737945Y-140133547D01*
X170964115Y-140345951D01*
X171319351Y-140682200D01*
X171747755Y-141168010D01*
X172206552Y-141748324D01*
X172652964Y-142368085D01*
X173044215Y-142972236D01*
X173165826Y-143179722D01*
X173341640Y-143501078D01*
X173456471Y-143764509D01*
X173523287Y-144034900D01*
X173555057Y-144377136D01*
X173564750Y-144856104D01*
X173565370Y-145178796D01*
X173560842Y-145763763D01*
X173538910Y-146182435D01*
X173487056Y-146503652D01*
X173392759Y-146796253D01*
X173243499Y-147129078D01*
X173191044Y-147237031D01*
X172998847Y-147609779D01*
X172786562Y-147973355D01*
X172528789Y-148364018D01*
X172200129Y-148818025D01*
X171775184Y-149371633D01*
X171228553Y-150061098D01*
X171102838Y-150217926D01*
X170687061Y-150715640D01*
X170373447Y-151034822D01*
X170134759Y-151193327D01*
X169943764Y-151209014D01*
X169773228Y-151099737D01*
X169767130Y-151093703D01*
X169691174Y-150893876D01*
X169642786Y-150493416D01*
X169626018Y-149932856D01*
X169574335Y-149125963D01*
X169432877Y-148218479D01*
X169222029Y-147306722D01*
X168962180Y-146487013D01*
X168826547Y-146155670D01*
X168444181Y-145517172D01*
X167894892Y-144877421D01*
X167238992Y-144295792D01*
X166536795Y-143831663D01*
X166386328Y-143753312D01*
X165890509Y-143528110D01*
X165431007Y-143374230D01*
X164915027Y-143266335D01*
X164306392Y-143185423D01*
X163721361Y-143111076D01*
X163290091Y-143027149D01*
X162931651Y-142908816D01*
X162565113Y-142731250D01*
X162258054Y-142557056D01*
X161436833Y-141975977D01*
X160686528Y-141253552D01*
X160065781Y-140452726D01*
X159715792Y-139828333D01*
X159537843Y-139367974D01*
X159346686Y-138745589D01*
X159162662Y-138031930D01*
X159044081Y-137491823D01*
X158725940Y-135919665D01*
X158488541Y-136257101D01*
X158225634Y-136654291D01*
X158048716Y-137003653D01*
X157941177Y-137369902D01*
X157886410Y-137817752D01*
X157867804Y-138411916D01*
X157866759Y-138679737D01*
X157894375Y-139586073D01*
X157975524Y-140306492D01*
X158053706Y-140655253D01*
X158445573Y-142077377D01*
X158736293Y-143305042D01*
X158928597Y-144354790D01*
X159025214Y-145243164D01*
X159028876Y-145986705D01*
X158992132Y-146340740D01*
X158812857Y-146883991D01*
X158460999Y-147445725D01*
X157984678Y-147963179D01*
X157434742Y-148371993D01*
X157032315Y-148577740D01*
X156468510Y-148826523D01*
X155807231Y-149093862D01*
X155112384Y-149355272D01*
X154447875Y-149586271D01*
X153877610Y-149762376D01*
X153651960Y-149821207D01*
X153273993Y-149899671D01*
X153047154Y-149906402D01*
X152897556Y-149838084D01*
X152838465Y-149784695D01*
X152756177Y-149675505D01*
X152714893Y-149521372D01*
X152713490Y-149272960D01*
X152750842Y-148880933D01*
X152807660Y-148432371D01*
X152911531Y-147128024D01*
X152871708Y-145911111D01*
X152690830Y-144822964D01*
X152545656Y-144332438D01*
X152249642Y-143656970D01*
X151798543Y-142892204D01*
X151180982Y-142020615D01*
X150444336Y-141095251D01*
X150155286Y-140738928D01*
X149918784Y-140432552D01*
X149782698Y-140238282D01*
X149777508Y-140229312D01*
X149589065Y-140093437D01*
X149435956Y-140110932D01*
X149314713Y-140186525D01*
X149222938Y-140354201D01*
X149144786Y-140659805D01*
X149064408Y-141149185D01*
X149055343Y-141212056D01*
X148868753Y-142313394D01*
X148653305Y-143217465D01*
X148413034Y-143908255D01*
X148332200Y-144080405D01*
X148078477Y-144478343D01*
X147690840Y-144969490D01*
X147219172Y-145500329D01*
X146713360Y-146017341D01*
X146223289Y-146467008D01*
X145804870Y-146791773D01*
X145285559Y-147086907D01*
X144866877Y-147220460D01*
X144568919Y-147199869D01*
X144411781Y-147032572D01*
X144415558Y-146726009D01*
X144573734Y-146336084D01*
X144729696Y-145944863D01*
X144810146Y-145547037D01*
X144813157Y-145474519D01*
X144760975Y-144937472D01*
X144619579Y-144262385D01*
X144409043Y-143519471D01*
X144149436Y-142778944D01*
X143860830Y-142111017D01*
X143838959Y-142066578D01*
X143344074Y-141071027D01*
X143350243Y-139655930D01*
X143359618Y-139007981D01*
X143387553Y-138526550D01*
X143443623Y-138143141D01*
X143537403Y-137789257D01*
X143659027Y-137447083D01*
X143798926Y-137062117D01*
X143888340Y-136780048D01*
X143910282Y-136655186D01*
X143907267Y-136653333D01*
X143789486Y-136716273D01*
X143544232Y-136878221D01*
X143333683Y-137026200D01*
X143078198Y-137236341D01*
X142847477Y-137497441D01*
X142608442Y-137856374D01*
X142328015Y-138360011D01*
X142151165Y-138701895D01*
X141565516Y-139828426D01*
X141044508Y-140769402D01*
X140563402Y-141556806D01*
X140097459Y-142222623D01*
X139621941Y-142798837D01*
X139112109Y-143317432D01*
X138543224Y-143810390D01*
X137890547Y-144309698D01*
X137716064Y-144435911D01*
X136881433Y-144999725D01*
X136068841Y-145483723D01*
X135304736Y-145876867D01*
X134615567Y-146168120D01*
X134027783Y-146346440D01*
X133567833Y-146400791D01*
X133262166Y-146320133D01*
X133240611Y-146303810D01*
X133072769Y-146060210D01*
X133125563Y-145783021D01*
X133402211Y-145462778D01*
X133574734Y-145321677D01*
X134232661Y-144713143D01*
X134889668Y-143902669D01*
X135522638Y-142922452D01*
X136108455Y-141804689D01*
X136124794Y-141769934D01*
X136375625Y-141199283D01*
X136573640Y-140653146D01*
X136726916Y-140088177D01*
X136843526Y-139461033D01*
X136931546Y-138728370D01*
X136999051Y-137846843D01*
X137053630Y-136784269D01*
X137115049Y-135648097D01*
X137192932Y-134722034D01*
X137291278Y-133981335D01*
X137414088Y-133401254D01*
X137565360Y-132957046D01*
X137718852Y-132668512D01*
X137834700Y-132472975D01*
X137787567Y-132424687D01*
X137573052Y-132470543D01*
X137228632Y-132603581D01*
X136935278Y-132772777D01*
X136607047Y-132959741D01*
X136314354Y-133070782D01*
X136059372Y-133195247D01*
X135731114Y-133433521D01*
X135498378Y-133641038D01*
X134951860Y-134186193D01*
X134331165Y-134823537D01*
X133685902Y-135500556D01*
X133065680Y-136164732D01*
X132520108Y-136763552D01*
X132139096Y-137197148D01*
X131094101Y-138243990D01*
X129905546Y-139105821D01*
X128733830Y-139716020D01*
X127282720Y-140277480D01*
X125882095Y-140653119D01*
X124461202Y-140858645D01*
X123353333Y-140910469D01*
X122729162Y-140912042D01*
X122268954Y-140895108D01*
X121901626Y-140849315D01*
X121556099Y-140764312D01*
X121161290Y-140629749D01*
X120991863Y-140566600D01*
X120479537Y-140386640D01*
X119979504Y-140232928D01*
X119584544Y-140133532D01*
X119521956Y-140121906D01*
X118887711Y-139974196D01*
X118410501Y-139776062D01*
X118111588Y-139542282D01*
X118012231Y-139287638D01*
X118068584Y-139111585D01*
X118244793Y-138964289D01*
X118561233Y-138796582D01*
X118930319Y-138646467D01*
X119264465Y-138551945D01*
X119391969Y-138537397D01*
X119662010Y-138493531D01*
X120099904Y-138376700D01*
X120656339Y-138204223D01*
X121282003Y-137993418D01*
X121927582Y-137761603D01*
X122543764Y-137526096D01*
X123081236Y-137304216D01*
X123490686Y-137113281D01*
X123573820Y-137068761D01*
X124260052Y-136625575D01*
X124992000Y-136051559D01*
X125687315Y-135413142D01*
X125906424Y-135187155D01*
X126103404Y-134911367D01*
X126332993Y-134492555D01*
X126552475Y-134010492D01*
X126599136Y-133893637D01*
X126763585Y-133434709D01*
X126881752Y-133002992D01*
X126966890Y-132528703D01*
X127032252Y-131942058D01*
X127076843Y-131378311D01*
X127113803Y-130795580D01*
X127136510Y-130301400D01*
X127143540Y-129940860D01*
X127133465Y-129759049D01*
X127128453Y-129747126D01*
X126996260Y-129762933D01*
X126740754Y-129883825D01*
X126425063Y-130071529D01*
X126112313Y-130287771D01*
X125865633Y-130494276D01*
X125822635Y-130538844D01*
X125404938Y-130875174D01*
X124812632Y-131186808D01*
X124106161Y-131456815D01*
X123345973Y-131668261D01*
X122592513Y-131804217D01*
X121906230Y-131847749D01*
X121366950Y-131786933D01*
X121122931Y-131633465D01*
X121065984Y-131351818D01*
X121195749Y-130955873D01*
X121397236Y-130618502D01*
X121856453Y-129853068D01*
X122302618Y-128937763D01*
X122700717Y-127956870D01*
X123015736Y-126994675D01*
X123176544Y-126335363D01*
X123261221Y-125925047D01*
X123337659Y-125582859D01*
X123375285Y-125433957D01*
X123359376Y-125351846D01*
X123212093Y-125420391D01*
X122917650Y-125647533D01*
X122867418Y-125689394D01*
X121991564Y-126347481D01*
X121002788Y-126960381D01*
X119946306Y-127509036D01*
X118867334Y-127974387D01*
X117811089Y-128337377D01*
X116822786Y-128578948D01*
X115947641Y-128680042D01*
X115768611Y-128681443D01*
X114768694Y-128626771D01*
X113971147Y-128499587D01*
X113381917Y-128301887D01*
X113006954Y-128035668D01*
X112852249Y-127703280D01*
X112850516Y-127509717D01*
X112920610Y-127358078D01*
X113097384Y-127226700D01*
X113415690Y-127093917D01*
X113910381Y-126938067D01*
X114232368Y-126845399D01*
X114808833Y-126658475D01*
X115386615Y-126432011D01*
X115868502Y-126205321D01*
X116002765Y-126129422D01*
X117102264Y-125327139D01*
X118119052Y-124307962D01*
X119049586Y-123076460D01*
X119890319Y-121637200D01*
X120494948Y-120341455D01*
X120781571Y-119692278D01*
X121082895Y-119059844D01*
X121368632Y-118504612D01*
X121608499Y-118087041D01*
X121674326Y-117987022D01*
X122145588Y-117309352D01*
X121146712Y-118279704D01*
X120503524Y-118864984D01*
X119918858Y-119293830D01*
X119320707Y-119605444D01*
X118637062Y-119839030D01*
X118002870Y-119991280D01*
X116961480Y-120192091D01*
X116024248Y-120323779D01*
X115086066Y-120397167D01*
X114041828Y-120423081D01*
X113805808Y-120423513D01*
X112679350Y-120388310D01*
X111706174Y-120288889D01*
X110898485Y-120130009D01*
X110268490Y-119916429D01*
X109828393Y-119652909D01*
X109590401Y-119344208D01*
X109566720Y-118995085D01*
X109642588Y-118800201D01*
X109839665Y-118621269D01*
X110226085Y-118428975D01*
X110563930Y-118305954D01*
X111326940Y-118028917D01*
X112035122Y-117703031D01*
X112711752Y-117308692D01*
X113380107Y-116826297D01*
X114063465Y-116236242D01*
X114785102Y-115518923D01*
X115568296Y-114654737D01*
X116436324Y-113624080D01*
X117100767Y-112800755D01*
X118011178Y-111760131D01*
X118921733Y-110920807D01*
X119817133Y-110296379D01*
X120080007Y-110153244D01*
X120647794Y-109915509D01*
X121366648Y-109687599D01*
X122153628Y-109489422D01*
X122925788Y-109340890D01*
X123600187Y-109261914D01*
X123824964Y-109254259D01*
X124740735Y-109254259D01*
X123811849Y-108587658D01*
X123297736Y-108239760D01*
X122744133Y-107898482D01*
X122248382Y-107622976D01*
X122118611Y-107558722D01*
X121732515Y-107385748D01*
X121412785Y-107280103D01*
X121078320Y-107226997D01*
X120648017Y-107211639D01*
X120237130Y-107215585D01*
X119054912Y-107310861D01*
X118179259Y-107490744D01*
X117381482Y-107705516D01*
X116762300Y-107862738D01*
X116273989Y-107968835D01*
X115868828Y-108030233D01*
X115499093Y-108053355D01*
X115117062Y-108044626D01*
X114675012Y-108010472D01*
X114465902Y-107990665D01*
X113756008Y-107905369D01*
X113218468Y-107793483D01*
X112790502Y-107633428D01*
X112409332Y-107403623D01*
X112137338Y-107190205D01*
X111876546Y-106874511D01*
X111765538Y-106530312D01*
X111818220Y-106226261D01*
X111917454Y-106104711D01*
X112104657Y-106019884D01*
X112445260Y-105919823D01*
X112808038Y-105838128D01*
X113281537Y-105712357D01*
X113728292Y-105539561D01*
X113972633Y-105406784D01*
X114525694Y-104986613D01*
X115167621Y-104425552D01*
X115847494Y-103771844D01*
X116514391Y-103073734D01*
X116923616Y-102611017D01*
X117333674Y-102140402D01*
X117741396Y-101689098D01*
X118093634Y-101315077D01*
X118296852Y-101113178D01*
X118548746Y-100850325D01*
X118640190Y-100696962D01*
X118571414Y-100673114D01*
X118342649Y-100798808D01*
X118293619Y-100832450D01*
X118051234Y-100954169D01*
X117679128Y-101091508D01*
X117414907Y-101170989D01*
X116989178Y-101293358D01*
X116444104Y-101458874D01*
X115883325Y-101635925D01*
X115768611Y-101673130D01*
X115348770Y-101803124D01*
X114981390Y-101893940D01*
X114606596Y-101952894D01*
X114164512Y-101987302D01*
X113595264Y-102004479D01*
X113005185Y-102010748D01*
X111241296Y-102022314D01*
X109565223Y-101464749D01*
X108594656Y-101132452D01*
X107799150Y-100835178D01*
X107126118Y-100548889D01*
X106522971Y-100249548D01*
X105937123Y-99913119D01*
X105349551Y-99537833D01*
X104281286Y-98736641D01*
X103402300Y-97878525D01*
X102725977Y-96979658D01*
X102265696Y-96056217D01*
X102137505Y-95655509D01*
X102132553Y-95620945D01*
X102937527Y-95620945D01*
X103018580Y-95881815D01*
X103193802Y-96261308D01*
X103494947Y-96734961D01*
X103874854Y-97237704D01*
X104286365Y-97704465D01*
X104473597Y-97889465D01*
X105378271Y-98634425D01*
X106423589Y-99301313D01*
X107635459Y-99903693D01*
X109039792Y-100455131D01*
X109947778Y-100755434D01*
X111010547Y-101054455D01*
X111936180Y-101238031D01*
X112787910Y-101313860D01*
X113628970Y-101289639D01*
X114008420Y-101249712D01*
X114464305Y-101170436D01*
X115051768Y-101036921D01*
X115711080Y-100866192D01*
X116382510Y-100675274D01*
X117006328Y-100481190D01*
X117522804Y-100300967D01*
X117872208Y-100151628D01*
X117885278Y-100144709D01*
X118507597Y-99881219D01*
X119320878Y-99648093D01*
X120281847Y-99454583D01*
X121347230Y-99309937D01*
X122092739Y-99245316D01*
X123110664Y-99194093D01*
X123963623Y-99195193D01*
X124717098Y-99253976D01*
X125436572Y-99375801D01*
X126187526Y-99566029D01*
X126257184Y-99586188D01*
X126639602Y-99707642D01*
X126842897Y-99811752D01*
X126916668Y-99935911D01*
X126914947Y-100082037D01*
X126869748Y-100262995D01*
X126744928Y-100349267D01*
X126473899Y-100374995D01*
X126341549Y-100376018D01*
X125967195Y-100411894D01*
X125667646Y-100502018D01*
X125596738Y-100545588D01*
X125389045Y-100652219D01*
X125195560Y-100574705D01*
X124731040Y-100354393D01*
X124083828Y-100210919D01*
X123294423Y-100146987D01*
X122403329Y-100165298D01*
X121451046Y-100268556D01*
X121205327Y-100308451D01*
X120578582Y-100471508D01*
X119987513Y-100749449D01*
X119395741Y-101167277D01*
X118766884Y-101749998D01*
X118182888Y-102385756D01*
X117657662Y-102968875D01*
X117077164Y-103580862D01*
X116472492Y-104192037D01*
X115874742Y-104772718D01*
X115315011Y-105293226D01*
X114824396Y-105723879D01*
X114433993Y-106034997D01*
X114204184Y-106183286D01*
X113758710Y-106374619D01*
X113279164Y-106535571D01*
X113182451Y-106561262D01*
X112654162Y-106691646D01*
X113123655Y-106934023D01*
X113454507Y-107066447D01*
X113875691Y-107155548D01*
X114445999Y-107211883D01*
X114769074Y-107229452D01*
X115323827Y-107246206D01*
X115775940Y-107232512D01*
X116208624Y-107178215D01*
X116705088Y-107073160D01*
X117297315Y-106920914D01*
X118515738Y-106626645D01*
X119548208Y-106447099D01*
X120412981Y-106380339D01*
X121128315Y-106424428D01*
X121420429Y-106483490D01*
X122278650Y-106772178D01*
X123149231Y-107210399D01*
X124084763Y-107824705D01*
X124103204Y-107838034D01*
X124571814Y-108159148D01*
X125066034Y-108469332D01*
X125482512Y-108703862D01*
X125499398Y-108712419D01*
X125886511Y-108956695D01*
X126099940Y-109198609D01*
X126125008Y-109409801D01*
X125947036Y-109561908D01*
X125940370Y-109564512D01*
X125788830Y-109725537D01*
X125763981Y-109842222D01*
X125670685Y-110058937D01*
X125442050Y-110143634D01*
X125175230Y-110076985D01*
X124809537Y-109974867D01*
X124272733Y-109947781D01*
X123615258Y-109991855D01*
X122887556Y-110103212D01*
X122140067Y-110277978D01*
X121986913Y-110321894D01*
X121130510Y-110599192D01*
X120444226Y-110881450D01*
X119864576Y-111200866D01*
X119328077Y-111589637D01*
X119088009Y-111792120D01*
X118676176Y-112189093D01*
X118181482Y-112722327D01*
X117653663Y-113333845D01*
X117142457Y-113965666D01*
X116697602Y-114559813D01*
X116624781Y-114663518D01*
X116364821Y-114990410D01*
X115972897Y-115425235D01*
X115495013Y-115922173D01*
X114977174Y-116435407D01*
X114465383Y-116919118D01*
X114005645Y-117327487D01*
X113710741Y-117565774D01*
X113111765Y-117967880D01*
X112402725Y-118370466D01*
X111681186Y-118721964D01*
X111064907Y-118964257D01*
X110418148Y-119175867D01*
X111123704Y-119397629D01*
X112002803Y-119593686D01*
X113057317Y-119693038D01*
X114248671Y-119696556D01*
X115538292Y-119605113D01*
X116887607Y-119419579D01*
X117787407Y-119247016D01*
X118445725Y-119088469D01*
X118978968Y-118906882D01*
X119449337Y-118667672D01*
X119919037Y-118336257D01*
X120450270Y-117878056D01*
X120746378Y-117601989D01*
X121431373Y-117003127D01*
X122075502Y-116564220D01*
X122750601Y-116250553D01*
X123528509Y-116027410D01*
X124294074Y-115887544D01*
X124823112Y-115800655D01*
X125312238Y-115709227D01*
X125679238Y-115628984D01*
X125763205Y-115606573D01*
X126215122Y-115516485D01*
X126667138Y-115493416D01*
X127030344Y-115538427D01*
X127155983Y-115589960D01*
X127263622Y-115772124D01*
X127273575Y-115968584D01*
X127232575Y-116110770D01*
X127125724Y-116208034D01*
X126904006Y-116281181D01*
X126518407Y-116351017D01*
X126293148Y-116384752D01*
X125695984Y-116502964D01*
X125051810Y-116678260D01*
X124526124Y-116862746D01*
X123805710Y-117200752D01*
X123199303Y-117587795D01*
X122678503Y-118056952D01*
X122214905Y-118641298D01*
X121780106Y-119373910D01*
X121345705Y-120287862D01*
X121114813Y-120835316D01*
X120474372Y-122200956D01*
X119719204Y-123463667D01*
X118869965Y-124601017D01*
X117947313Y-125590574D01*
X116971906Y-126409904D01*
X115964401Y-127036574D01*
X115056333Y-127414458D01*
X114576998Y-127568627D01*
X114301306Y-127670514D01*
X114208252Y-127737437D01*
X114276829Y-127786713D01*
X114486029Y-127835660D01*
X114533889Y-127845159D01*
X115490523Y-127928477D01*
X116557904Y-127832498D01*
X117704789Y-127565411D01*
X118899934Y-127135403D01*
X120112095Y-126550664D01*
X120649695Y-126242307D01*
X121384850Y-125760650D01*
X122099678Y-125222076D01*
X122753549Y-124662771D01*
X123305832Y-124118923D01*
X123715899Y-123626720D01*
X123879852Y-123365370D01*
X124389183Y-122591086D01*
X125078392Y-121848430D01*
X125549142Y-121448868D01*
X125996845Y-121114761D01*
X126366660Y-120887883D01*
X126721317Y-120751544D01*
X127123547Y-120689057D01*
X127636083Y-120683732D01*
X128298523Y-120717432D01*
X129657839Y-120802365D01*
X129621790Y-121113729D01*
X129593472Y-121263597D01*
X129519157Y-121360699D01*
X129351548Y-121422652D01*
X129043346Y-121467076D01*
X128555592Y-121510894D01*
X127974124Y-121574019D01*
X127510166Y-121671906D01*
X127094291Y-121833081D01*
X126657072Y-122086071D01*
X126129082Y-122459401D01*
X125985218Y-122567010D01*
X125421792Y-123008311D01*
X125004060Y-123394311D01*
X124699305Y-123779465D01*
X124474807Y-124218227D01*
X124297849Y-124765049D01*
X124135712Y-125474386D01*
X124084353Y-125730662D01*
X123645526Y-127515974D01*
X123068555Y-129112182D01*
X122478650Y-130304653D01*
X122000396Y-131148636D01*
X122618068Y-131066586D01*
X123280625Y-130918301D01*
X124008744Y-130658618D01*
X124714052Y-130326064D01*
X125308173Y-129959163D01*
X125492381Y-129813592D01*
X125917064Y-129487523D01*
X126400177Y-129174896D01*
X126628260Y-129049225D01*
X127040735Y-128824916D01*
X127278544Y-128641343D01*
X127386170Y-128453888D01*
X127408477Y-128266686D01*
X127452898Y-128061291D01*
X127569075Y-127708512D01*
X127734135Y-127276274D01*
X127777924Y-127169597D01*
X128048121Y-126627598D01*
X128388173Y-126105729D01*
X128773670Y-125623390D01*
X129180200Y-125199984D01*
X129583355Y-124854912D01*
X129958723Y-124607575D01*
X130281893Y-124477376D01*
X130528456Y-124483715D01*
X130674000Y-124645994D01*
X130702870Y-124844839D01*
X130605350Y-125113421D01*
X130335373Y-125313259D01*
X129890230Y-125622897D01*
X129414949Y-126083496D01*
X128969495Y-126628775D01*
X128613836Y-127192457D01*
X128585419Y-127247479D01*
X128309818Y-127948520D01*
X128093413Y-128846813D01*
X127934329Y-129952627D01*
X127830688Y-131276229D01*
X127823556Y-131415733D01*
X127754231Y-132354725D01*
X127636267Y-133133171D01*
X127451395Y-133823740D01*
X127181347Y-134499100D01*
X126913221Y-135036913D01*
X126481069Y-135672292D01*
X125866911Y-136326911D01*
X125117007Y-136963385D01*
X124277614Y-137544327D01*
X123394995Y-138032352D01*
X122973237Y-138221113D01*
X122516200Y-138398234D01*
X121960048Y-138597626D01*
X121362388Y-138800485D01*
X120780828Y-138988011D01*
X120272975Y-139141401D01*
X119896435Y-139241854D01*
X119766759Y-139267644D01*
X119629836Y-139302144D01*
X119683717Y-139350251D01*
X119947283Y-139425742D01*
X120001944Y-139439269D01*
X120379750Y-139545306D01*
X120874393Y-139701950D01*
X121382786Y-139876466D01*
X121413055Y-139887361D01*
X121768450Y-140012746D01*
X122055026Y-140096889D01*
X122328565Y-140144181D01*
X122644846Y-140159008D01*
X123059648Y-140145762D01*
X123628752Y-140108829D01*
X123941296Y-140086287D01*
X125663418Y-139870471D01*
X127223236Y-139484764D01*
X128621324Y-138928931D01*
X129858253Y-138202737D01*
X130934597Y-137305947D01*
X131080738Y-137158249D01*
X131365387Y-136860913D01*
X131774253Y-136430538D01*
X132270796Y-135905750D01*
X132818477Y-135325178D01*
X133380757Y-134727449D01*
X133468575Y-134633931D01*
X134206711Y-133862928D01*
X134808193Y-133268771D01*
X135281690Y-132843393D01*
X135635872Y-132578727D01*
X135743658Y-132517264D01*
X136128595Y-132314607D01*
X136475405Y-132116831D01*
X136590822Y-132044824D01*
X136889495Y-131898000D01*
X137292922Y-131757918D01*
X137472766Y-131710379D01*
X137964720Y-131585216D01*
X138482045Y-131439136D01*
X138616627Y-131398068D01*
X139143578Y-131283273D01*
X139517031Y-131311525D01*
X139721844Y-131479479D01*
X139757500Y-131649964D01*
X139665054Y-131918338D01*
X139514588Y-132010878D01*
X139090829Y-132248203D01*
X138682514Y-132657728D01*
X138343295Y-133179592D01*
X138219379Y-133456029D01*
X138121964Y-133745497D01*
X138046485Y-134067060D01*
X137987683Y-134463334D01*
X137940302Y-134976929D01*
X137899083Y-135650461D01*
X137868424Y-136300555D01*
X137798163Y-137616370D01*
X137710453Y-138718067D01*
X137603069Y-139626220D01*
X137473785Y-140361403D01*
X137392591Y-140699284D01*
X137199414Y-141263771D01*
X136901161Y-141949742D01*
X136531762Y-142688974D01*
X136125150Y-143413245D01*
X135746266Y-144009327D01*
X135458718Y-144431355D01*
X135214499Y-144793031D01*
X135049318Y-145041320D01*
X135006676Y-145107752D01*
X135014466Y-145173466D01*
X135181372Y-145118212D01*
X135477926Y-144961552D01*
X135874661Y-144723051D01*
X136342112Y-144422272D01*
X136850812Y-144078778D01*
X137371295Y-143712133D01*
X137874095Y-143341901D01*
X138329744Y-142987644D01*
X138708777Y-142668927D01*
X138787867Y-142597318D01*
X139237324Y-142109544D01*
X139732280Y-141431136D01*
X140278429Y-140553041D01*
X140881463Y-139466208D01*
X141432298Y-138393039D01*
X141834253Y-137635615D01*
X142207549Y-137058346D01*
X142593132Y-136616735D01*
X143031945Y-136266287D01*
X143564932Y-135962506D01*
X143751265Y-135872909D01*
X144229107Y-135612582D01*
X144726951Y-135284557D01*
X144962539Y-135103531D01*
X145290186Y-134862857D01*
X145574183Y-134709387D01*
X145726890Y-134676538D01*
X145926158Y-134793524D01*
X145946972Y-135038642D01*
X145787739Y-135417769D01*
X145446869Y-135936783D01*
X145350526Y-136066124D01*
X144770506Y-136942471D01*
X144375658Y-137820644D01*
X144130682Y-138784358D01*
X144086516Y-139063981D01*
X144022420Y-139715641D01*
X144045234Y-140271421D01*
X144169749Y-140813382D01*
X144410757Y-141423587D01*
X144574018Y-141768611D01*
X144992292Y-142758051D01*
X145302105Y-143775285D01*
X145483798Y-144746259D01*
X145524174Y-145347934D01*
X145528811Y-146119537D01*
X146483658Y-145122667D01*
X147006321Y-144548919D01*
X147399091Y-144034527D01*
X147690682Y-143519384D01*
X147909807Y-142943385D01*
X148085180Y-142246423D01*
X148228740Y-141469638D01*
X148364227Y-140725874D01*
X148493136Y-140184046D01*
X148628166Y-139811698D01*
X148782017Y-139576373D01*
X148967388Y-139445614D01*
X149029779Y-139422325D01*
X149131813Y-139374075D01*
X149167833Y-139283103D01*
X149129781Y-139104048D01*
X149009599Y-138791550D01*
X148852190Y-138422585D01*
X148561217Y-137625795D01*
X148439330Y-136942120D01*
X148485130Y-136322666D01*
X148697219Y-135718538D01*
X148770672Y-135574190D01*
X149038985Y-135149872D01*
X149279007Y-134939104D01*
X149371220Y-134910595D01*
X149620976Y-134947010D01*
X149709053Y-135150991D01*
X149635555Y-135523788D01*
X149458529Y-135948530D01*
X149263845Y-136410744D01*
X149186540Y-136766828D01*
X149202147Y-137072440D01*
X149309169Y-137452061D01*
X149515459Y-137968151D01*
X149790734Y-138560889D01*
X150104715Y-139170455D01*
X150427120Y-139737030D01*
X150727667Y-140200791D01*
X150894806Y-140416296D01*
X151427589Y-141055517D01*
X151937028Y-141715282D01*
X152392171Y-142351598D01*
X152762072Y-142920471D01*
X153015779Y-143377906D01*
X153077428Y-143518872D01*
X153510895Y-144938141D01*
X153709978Y-146346533D01*
X153674498Y-147742643D01*
X153643562Y-147989865D01*
X153590154Y-148432142D01*
X153564551Y-148778267D01*
X153570719Y-148968040D01*
X153578064Y-148984391D01*
X153734639Y-148993436D01*
X154058864Y-148915511D01*
X154507778Y-148768313D01*
X155038420Y-148569541D01*
X155607832Y-148336895D01*
X156173052Y-148088073D01*
X156691120Y-147840775D01*
X157119077Y-147612698D01*
X157413963Y-147421543D01*
X157456198Y-147386657D01*
X157810515Y-147043671D01*
X158036114Y-146724440D01*
X158160755Y-146358749D01*
X158212198Y-145876384D01*
X158219537Y-145455951D01*
X158165178Y-144588807D01*
X158011609Y-143587517D01*
X157773092Y-142523938D01*
X157463886Y-141469924D01*
X157379247Y-141222114D01*
X157270667Y-140880411D01*
X157195673Y-140542063D01*
X157148137Y-140151317D01*
X157121930Y-139652421D01*
X157110926Y-138989621D01*
X157109746Y-138770000D01*
X157109428Y-138095797D01*
X157118856Y-137607574D01*
X157144577Y-137256147D01*
X157193138Y-136992330D01*
X157271089Y-136766941D01*
X157384978Y-136530796D01*
X157415660Y-136472223D01*
X157702516Y-136022606D01*
X158061774Y-135594124D01*
X158445357Y-135232172D01*
X158805189Y-134982147D01*
X159091914Y-134889444D01*
X159382032Y-134959735D01*
X159520725Y-135187212D01*
X159533470Y-135513243D01*
X159546612Y-135874897D01*
X159616917Y-136400332D01*
X159731371Y-137028854D01*
X159876963Y-137699773D01*
X160040681Y-138352396D01*
X160209512Y-138926031D01*
X160345952Y-139302895D01*
X160659763Y-139930212D01*
X161075467Y-140506164D01*
X161424222Y-140891351D01*
X162051811Y-141483905D01*
X162648259Y-141902357D01*
X163286407Y-142183552D01*
X164039092Y-142364339D01*
X164457094Y-142425600D01*
X165592108Y-142632499D01*
X166561098Y-142960350D01*
X167412944Y-143434563D01*
X168196526Y-144080545D01*
X168728189Y-144645761D01*
X169262390Y-145393723D01*
X169699353Y-146297038D01*
X170046624Y-147376181D01*
X170311747Y-148651626D01*
X170386101Y-149145093D01*
X170462841Y-149701206D01*
X171225519Y-148792316D01*
X171622321Y-148279655D01*
X172016203Y-147704259D01*
X172340085Y-147166107D01*
X172424005Y-147006036D01*
X172645878Y-146536995D01*
X172775773Y-146173504D01*
X172837060Y-145816155D01*
X172853108Y-145365540D01*
X172852489Y-145183351D01*
X172829986Y-144613364D01*
X172762012Y-144189823D01*
X172632245Y-143825801D01*
X172575615Y-143708889D01*
X172196911Y-143075420D01*
X171664552Y-142345053D01*
X171012829Y-141562265D01*
X170445169Y-140945463D01*
X169496088Y-139828277D01*
X168679348Y-138604817D01*
X168026461Y-137328945D01*
X167568939Y-136054524D01*
X167555754Y-136006574D01*
X167461563Y-135522370D01*
X167384172Y-134840758D01*
X167327262Y-133999147D01*
X167305341Y-133460435D01*
X167284433Y-132765119D01*
X167275561Y-132267964D01*
X167282339Y-131932095D01*
X167308377Y-131720637D01*
X167357291Y-131596715D01*
X167432691Y-131523457D01*
X167498898Y-131484854D01*
X167662356Y-131427354D01*
X167817542Y-131475962D01*
X168023893Y-131661449D01*
X168188812Y-131842042D01*
X168618804Y-132305504D01*
X169139726Y-132836004D01*
X169710303Y-133394574D01*
X170289260Y-133942243D01*
X170835319Y-134440039D01*
X171307206Y-134848994D01*
X171663645Y-135130136D01*
X171694444Y-135151871D01*
X172138165Y-135425925D01*
X172687532Y-135718249D01*
X173226896Y-135967486D01*
X173248991Y-135976668D01*
X173687698Y-136149110D01*
X174047135Y-136258164D01*
X174407777Y-136317623D01*
X174850100Y-136341283D01*
X175388055Y-136343351D01*
X176208350Y-136313270D01*
X176929746Y-136221917D01*
X177684363Y-136052101D01*
X177739907Y-136037350D01*
X179048670Y-135716976D01*
X180229720Y-135497292D01*
X181362207Y-135367093D01*
X182525277Y-135315172D01*
X182855185Y-135313121D01*
X184457274Y-135390304D01*
X185979008Y-135613342D01*
X187383630Y-135974223D01*
X188634385Y-136464936D01*
X189007133Y-136654014D01*
X189632230Y-136991869D01*
X189359911Y-136534044D01*
X189162298Y-136237585D01*
X188871843Y-135845859D01*
X188522429Y-135399754D01*
X188147941Y-134940155D01*
X187782264Y-134507949D01*
X187459281Y-134144023D01*
X187212877Y-133889263D01*
X187082846Y-133786409D01*
X186903026Y-133685086D01*
X186604744Y-133486395D01*
X186294448Y-133263940D01*
X186007062Y-133063220D01*
X185726097Y-132903078D01*
X185406832Y-132768168D01*
X185004549Y-132643147D01*
X184474527Y-132512670D01*
X183772046Y-132361393D01*
X183501944Y-132305761D01*
X182344789Y-132062502D01*
X181377838Y-131842595D01*
X180558871Y-131633467D01*
X179845667Y-131422542D01*
X179196005Y-131197245D01*
X178567666Y-130945001D01*
X177918428Y-130653235D01*
X177857500Y-130624594D01*
X177110598Y-130202383D01*
X176410147Y-129676753D01*
X175803126Y-129091933D01*
X175336513Y-128492157D01*
X175091759Y-128020581D01*
X174882649Y-127604330D01*
X174603697Y-127336001D01*
X174450138Y-127247366D01*
X174024158Y-126985423D01*
X173816657Y-126739072D01*
X173813238Y-126491036D01*
X173815285Y-126485591D01*
X173960687Y-126339013D01*
X174228888Y-126332728D01*
X174459031Y-126344217D01*
X174549729Y-126242104D01*
X174564907Y-125998761D01*
X174612886Y-125695501D01*
X174778879Y-125548394D01*
X174805735Y-125539042D01*
X175103842Y-125546189D01*
X175317810Y-125737207D01*
X175388055Y-126017947D01*
X175442653Y-126458169D01*
X175633110Y-126746952D01*
X175999417Y-126931569D01*
X176208567Y-126987865D01*
X177005498Y-127107163D01*
X177855179Y-127099156D01*
X178811058Y-126960925D01*
X179476915Y-126809445D01*
X180028732Y-126677911D01*
X180507227Y-126587739D01*
X180983147Y-126531462D01*
X181527239Y-126501607D01*
X182210247Y-126490707D01*
X182502407Y-126489984D01*
X183368667Y-126503054D01*
X184065486Y-126551883D01*
X184657551Y-126649948D01*
X185209550Y-126810729D01*
X185786169Y-127047703D01*
X186247367Y-127270293D01*
X186534857Y-127397629D01*
X186723541Y-127449471D01*
X186754025Y-127443228D01*
X186759305Y-127288247D01*
X186651968Y-127007963D01*
X186464284Y-126662328D01*
X186228525Y-126311296D01*
X185995045Y-126033196D01*
X185662379Y-125713822D01*
X185335386Y-125465592D01*
X184964571Y-125265441D01*
X184500436Y-125090303D01*
X183893486Y-124917114D01*
X183273058Y-124764754D01*
X182620785Y-124605727D01*
X182146166Y-124473098D01*
X181796475Y-124345962D01*
X181518987Y-124203416D01*
X181260976Y-124024554D01*
X181116236Y-123909628D01*
X180649714Y-123464764D01*
X180192011Y-122916960D01*
X179791484Y-122334135D01*
X179496486Y-121784207D01*
X179384368Y-121477071D01*
X179314154Y-121063232D01*
X179287261Y-120577794D01*
X179292048Y-120394057D01*
X179327407Y-119785209D01*
X179856574Y-119680217D01*
X180292733Y-119639522D01*
X180909833Y-119647684D01*
X181658906Y-119704029D01*
X181671026Y-119705250D01*
X182264328Y-119771481D01*
X182698127Y-119843547D01*
X183047553Y-119943379D01*
X183387736Y-120092907D01*
X183793807Y-120314060D01*
X183832611Y-120336202D01*
X184799982Y-121021936D01*
X185365671Y-121584795D01*
X185958065Y-122190286D01*
X186579503Y-122672033D01*
X187271991Y-123049337D01*
X188077531Y-123341500D01*
X189038127Y-123567822D01*
X190023053Y-123724889D01*
X191075635Y-123806235D01*
X192106357Y-123772679D01*
X193070067Y-123631947D01*
X193921615Y-123391765D01*
X194615847Y-123059856D01*
X194843052Y-122900227D01*
X195281496Y-122551796D01*
X194947970Y-122481577D01*
X194298098Y-122333427D01*
X193693602Y-122166871D01*
X193046004Y-121955333D01*
X192321389Y-121692656D01*
X191031353Y-121086291D01*
X189849869Y-120274794D01*
X188786175Y-119266219D01*
X187849508Y-118068623D01*
X187464477Y-117457554D01*
X187175425Y-117067987D01*
X186743954Y-116609631D01*
X186228538Y-116135986D01*
X185687649Y-115700553D01*
X185179762Y-115356830D01*
X185148241Y-115338331D01*
X183961290Y-114781865D01*
X182680043Y-114425830D01*
X181872581Y-114313857D01*
X181221859Y-114236314D01*
X180786308Y-114130173D01*
X180546740Y-113986567D01*
X180483970Y-113796628D01*
X180511593Y-113684859D01*
X180695911Y-113526707D01*
X180986285Y-113487592D01*
X181283990Y-113445389D01*
X181385278Y-113331596D01*
X181466690Y-113188708D01*
X181683553Y-112930961D01*
X181994806Y-112598918D01*
X182359390Y-112233140D01*
X182736243Y-111874192D01*
X183084305Y-111562634D01*
X183362516Y-111339030D01*
X183477676Y-111264569D01*
X183767784Y-111177309D01*
X184234353Y-111110041D01*
X184819329Y-111065034D01*
X185464657Y-111044559D01*
X186112281Y-111050885D01*
X186704148Y-111086283D01*
X187029722Y-111125685D01*
X187540523Y-111216800D01*
X188176059Y-111346880D01*
X188833788Y-111494410D01*
X189146389Y-111569847D01*
X190050190Y-111761439D01*
X190818996Y-111847987D01*
X191248216Y-111853353D01*
X191889435Y-111791814D01*
X192647982Y-111651802D01*
X193434791Y-111455422D01*
X194160798Y-111224783D01*
X194715946Y-110992633D01*
X195266502Y-110622927D01*
X195778628Y-110114320D01*
X196181579Y-109545095D01*
X196349517Y-109185081D01*
X196433919Y-108866163D01*
X196501089Y-108462811D01*
X196546227Y-108037546D01*
X196564532Y-107652892D01*
X196551204Y-107371372D01*
X196501442Y-107255509D01*
X196497692Y-107255185D01*
X196374495Y-107311909D01*
X196115621Y-107458451D01*
X195871020Y-107605690D01*
X194978192Y-108090317D01*
X194071197Y-108440956D01*
X193095354Y-108671395D01*
X191995981Y-108795427D01*
X191027870Y-108827114D01*
X190205820Y-108817991D01*
X189520135Y-108769892D01*
X188895192Y-108668219D01*
X188255368Y-108498376D01*
X187525042Y-108245766D01*
X187029722Y-108055394D01*
X186027677Y-107712603D01*
X185143932Y-107529779D01*
X184327751Y-107503368D01*
X183528397Y-107629818D01*
X183040375Y-107775981D01*
X182473802Y-107960271D01*
X182086163Y-108052536D01*
X181841317Y-108055907D01*
X181703122Y-107973516D01*
X181660517Y-107895508D01*
X181668468Y-107610206D01*
X181849920Y-107235861D01*
X182175708Y-106802746D01*
X182616664Y-106341138D01*
X183143622Y-105881314D01*
X183727414Y-105453548D01*
X184338873Y-105088116D01*
X184391420Y-105060780D01*
X185213540Y-104691685D01*
X186204962Y-104331633D01*
X187299972Y-103998523D01*
X188432853Y-103710255D01*
X189537889Y-103484727D01*
X190549365Y-103339839D01*
X190792685Y-103317282D01*
X191348854Y-103242353D01*
X192036393Y-103104302D01*
X192792301Y-102920448D01*
X193553573Y-102708109D01*
X194257207Y-102484604D01*
X194840200Y-102267251D01*
X195167935Y-102114607D01*
X195501240Y-101877188D01*
X195929496Y-101490553D01*
X196413628Y-100998745D01*
X196914562Y-100445809D01*
X197393226Y-99875790D01*
X197810545Y-99332732D01*
X198127447Y-98860678D01*
X198245791Y-98645196D01*
X198673734Y-97515964D01*
X198926867Y-96249714D01*
X198986031Y-95613518D01*
X199048998Y-94613981D01*
X198703284Y-95143148D01*
X198338219Y-95619555D01*
X197838119Y-96160443D01*
X197256564Y-96717633D01*
X196647128Y-97242949D01*
X196063389Y-97688213D01*
X195558924Y-98005247D01*
X195471137Y-98049563D01*
X194385991Y-98547138D01*
X193405340Y-98943839D01*
X192488288Y-99245074D01*
X191593943Y-99456246D01*
X190681409Y-99582762D01*
X189709795Y-99630026D01*
X188638205Y-99603443D01*
X187425747Y-99508419D01*
X186031526Y-99350359D01*
X185826337Y-99324382D01*
X185232451Y-99250984D01*
X184799571Y-99211490D01*
X184455541Y-99209038D01*
X184128203Y-99246765D01*
X183745400Y-99327810D01*
X183321722Y-99433301D01*
X182532113Y-99669879D01*
X181966556Y-99923240D01*
X181761681Y-100059713D01*
X181312658Y-100391085D01*
X180993645Y-100570896D01*
X180768798Y-100614331D01*
X180613409Y-100546169D01*
X180456712Y-100296979D01*
X180510077Y-100029904D01*
X180761289Y-99803903D01*
X180767917Y-99800381D01*
X180993590Y-99631404D01*
X181306008Y-99333547D01*
X181647138Y-98963273D01*
X181738055Y-98856512D01*
X182093668Y-98455533D01*
X182452392Y-98091182D01*
X182747431Y-97830504D01*
X182796389Y-97794266D01*
X183077255Y-97640630D01*
X183519106Y-97447379D01*
X184065480Y-97234235D01*
X184659915Y-97020920D01*
X185245951Y-96827156D01*
X185767126Y-96672665D01*
X186166980Y-96577170D01*
X186341383Y-96555991D01*
X186577654Y-96531402D01*
X186984455Y-96465930D01*
X187502757Y-96369818D01*
X188021463Y-96264385D01*
X189240118Y-95938847D01*
X190249431Y-95519897D01*
X191058436Y-95001442D01*
X191676166Y-94377387D01*
X192111657Y-93641637D01*
X192187920Y-93453495D01*
X192360103Y-92952264D01*
X192428523Y-92634137D01*
X192396242Y-92472690D01*
X192305466Y-92438518D01*
X192147611Y-92481136D01*
X191823654Y-92596513D01*
X191384163Y-92765934D01*
X190982549Y-92928142D01*
X189793148Y-93417766D01*
X188088055Y-93424787D01*
X187330828Y-93423171D01*
X186517778Y-93413617D01*
X185744801Y-93397680D01*
X185107791Y-93376917D01*
X185089444Y-93376135D01*
X184353943Y-93366151D01*
X183751138Y-93421679D01*
X183245517Y-93565881D01*
X182801566Y-93821920D01*
X182383773Y-94212954D01*
X181956625Y-94762147D01*
X181484609Y-95492659D01*
X181253198Y-95878102D01*
X180865867Y-96511244D01*
X180563695Y-96945279D01*
X180328482Y-97192355D01*
X180142028Y-97264621D01*
X179986133Y-97174225D01*
X179842598Y-96933315D01*
X179804152Y-96845359D01*
X179698418Y-96469339D01*
X179723725Y-96200245D01*
X179874459Y-96083478D01*
X179898553Y-96081882D01*
X180013021Y-95981147D01*
X180173793Y-95721657D01*
X180314294Y-95430098D01*
X180803259Y-94536061D01*
X181420194Y-93794581D01*
X181946103Y-93364096D01*
X182341188Y-93072680D01*
X182789272Y-92706863D01*
X183100832Y-92430513D01*
X183620541Y-92004535D01*
X184232086Y-91620617D01*
X184977382Y-91256684D01*
X185898338Y-90890660D01*
X186288850Y-90751380D01*
X187305088Y-90365490D01*
X188137070Y-89968684D01*
X188834642Y-89527514D01*
X189447650Y-89008533D01*
X190025941Y-88378292D01*
X190258671Y-88087592D01*
X190893720Y-87128244D01*
X191401981Y-86072564D01*
X191760862Y-84981743D01*
X191947769Y-83916973D01*
X191969775Y-83453273D01*
X191949914Y-83103483D01*
X191895719Y-82641283D01*
X191816619Y-82117053D01*
X191722043Y-81581174D01*
X191621421Y-81084026D01*
X191524181Y-80675991D01*
X191439753Y-80407448D01*
X191384564Y-80326481D01*
X191304293Y-80425212D01*
X191151468Y-80689749D01*
X190952627Y-81072609D01*
X190845628Y-81290701D01*
X190575162Y-81826063D01*
X190278069Y-82373728D01*
X190010257Y-82831365D01*
X189962235Y-82907599D01*
X189717870Y-83292196D01*
X189399404Y-83798741D01*
X189055987Y-84348877D01*
X188852142Y-84677407D01*
X188364149Y-85442220D01*
X187946035Y-86036480D01*
X187563655Y-86500561D01*
X187182864Y-86874840D01*
X186769518Y-87199692D01*
X186647276Y-87284592D01*
X186022596Y-87668634D01*
X185426916Y-87934524D01*
X184793471Y-88100421D01*
X184055499Y-88184483D01*
X183262570Y-88205185D01*
X181971680Y-88261069D01*
X180681889Y-88420858D01*
X179455044Y-88672756D01*
X178352992Y-89004970D01*
X177727787Y-89260753D01*
X177521816Y-89415231D01*
X177353516Y-89695889D01*
X177198621Y-90127067D01*
X177065111Y-90524488D01*
X176950690Y-90743805D01*
X176819278Y-90835538D01*
X176681574Y-90851018D01*
X176444300Y-90790348D01*
X176348437Y-90567869D01*
X176346881Y-90557037D01*
X176254738Y-90295197D01*
X176141094Y-90169018D01*
X175987883Y-89973242D01*
X176038116Y-89692987D01*
X176285087Y-89349366D01*
X176454001Y-89183855D01*
X176759581Y-88878838D01*
X177008259Y-88580357D01*
X177093498Y-88449207D01*
X177258142Y-88217972D01*
X177559512Y-87864859D01*
X177961303Y-87427274D01*
X178427209Y-86942626D01*
X178920925Y-86448322D01*
X179406145Y-85981769D01*
X179846563Y-85580375D01*
X180032963Y-85420521D01*
X180475740Y-85067859D01*
X181014071Y-84663028D01*
X181546331Y-84282045D01*
X181654271Y-84207785D01*
X182458625Y-83598007D01*
X183117815Y-82971224D01*
X183605530Y-82356020D01*
X183895459Y-81780983D01*
X183899628Y-81768347D01*
X184009966Y-81344811D01*
X184112432Y-80805407D01*
X184197213Y-80224114D01*
X184254498Y-79674910D01*
X184274477Y-79231773D01*
X184262403Y-79032963D01*
X184220368Y-78739344D01*
X184166277Y-78337525D01*
X184142433Y-78153813D01*
X184067518Y-77568646D01*
X183914373Y-77932870D01*
X183711408Y-78308143D01*
X183377178Y-78805538D01*
X182946147Y-79380305D01*
X182452781Y-79987697D01*
X181931544Y-80582964D01*
X181606477Y-80929435D01*
X180830432Y-81664473D01*
X180041111Y-82261903D01*
X179175857Y-82760230D01*
X178172012Y-83197961D01*
X177548368Y-83423339D01*
X176636880Y-83737375D01*
X175912190Y-83999743D01*
X175337853Y-84232757D01*
X174877418Y-84458729D01*
X174494440Y-84699970D01*
X174152471Y-84978793D01*
X173815062Y-85317509D01*
X173445765Y-85738432D01*
X173110647Y-86139965D01*
X172788047Y-86484682D01*
X172538639Y-86641170D01*
X172406292Y-86653460D01*
X172180798Y-86533522D01*
X172123237Y-86301784D01*
X172241075Y-86018385D01*
X172316175Y-85927535D01*
X172473864Y-85664019D01*
X172629381Y-85240916D01*
X172736590Y-84821776D01*
X172943214Y-84019378D01*
X173219190Y-83204998D01*
X173536200Y-82450211D01*
X173865928Y-81826592D01*
X174004644Y-81616485D01*
X174275143Y-81275987D01*
X174645756Y-80854065D01*
X175045597Y-80430760D01*
X175129781Y-80346056D01*
X175808229Y-79579706D01*
X176495836Y-78637018D01*
X177159886Y-77573079D01*
X177767660Y-76442978D01*
X178286439Y-75301803D01*
X178568981Y-74555434D01*
X178806881Y-73588137D01*
X178892188Y-72500434D01*
X178824023Y-71279065D01*
X178601510Y-69910769D01*
X178223770Y-68382286D01*
X178141496Y-68096852D01*
X177910782Y-67345942D01*
X177688252Y-66684299D01*
X177483515Y-66134283D01*
X177306177Y-65718256D01*
X177165847Y-65458580D01*
X177072132Y-65377617D01*
X177034640Y-65497728D01*
X177034352Y-65519965D01*
X177017272Y-65673786D01*
X176969988Y-66018754D01*
X176898435Y-66513626D01*
X176808545Y-67117157D01*
X176734054Y-67607234D01*
X176469932Y-69022946D01*
X176118012Y-70434592D01*
X175694431Y-71794655D01*
X175215328Y-73055617D01*
X174696842Y-74169961D01*
X174231775Y-74974763D01*
X173836214Y-75518020D01*
X173334658Y-76110944D01*
X172772915Y-76707797D01*
X172196797Y-77262840D01*
X171652114Y-77730335D01*
X171184674Y-78064544D01*
X171073253Y-78128338D01*
X170679406Y-78297617D01*
X170144370Y-78475349D01*
X169559159Y-78632659D01*
X169309364Y-78687937D01*
X168483833Y-78858334D01*
X167851102Y-78998424D01*
X167373401Y-79124255D01*
X167012956Y-79251875D01*
X166731997Y-79397329D01*
X166492752Y-79576665D01*
X166257449Y-79805929D01*
X165991659Y-80097438D01*
X165635204Y-80511485D01*
X165417412Y-80814462D01*
X165307643Y-81058543D01*
X165275259Y-81295905D01*
X165275092Y-81317687D01*
X165253693Y-81600051D01*
X165158562Y-81717092D01*
X164989724Y-81737592D01*
X164724857Y-81629682D01*
X164506336Y-81343911D01*
X164367071Y-80937222D01*
X164334352Y-80603708D01*
X164301963Y-80300813D01*
X164216409Y-79861080D01*
X164095105Y-79372011D01*
X164074634Y-79298858D01*
X163946629Y-78785216D01*
X163869419Y-78287462D01*
X163833916Y-77721218D01*
X163830646Y-77033889D01*
X163843154Y-76453383D01*
X163873848Y-75990253D01*
X163935642Y-75570774D01*
X164041452Y-75121222D01*
X164204191Y-74567873D01*
X164335334Y-74152870D01*
X164538751Y-73499552D01*
X164672677Y-73014662D01*
X164747240Y-72645328D01*
X164772567Y-72338679D01*
X164758787Y-72041844D01*
X164752051Y-71977407D01*
X164674388Y-71490985D01*
X164541467Y-70861951D01*
X164373246Y-70170529D01*
X164189683Y-69496941D01*
X164010736Y-68921409D01*
X163947540Y-68743611D01*
X163833201Y-68467115D01*
X163759149Y-68390012D01*
X163697259Y-68486679D01*
X163689424Y-68508426D01*
X163353326Y-69290479D01*
X162891574Y-70114808D01*
X162347570Y-70918983D01*
X161764715Y-71640575D01*
X161186412Y-72217154D01*
X161013146Y-72357987D01*
X160687081Y-72665913D01*
X160300728Y-73120399D01*
X159901146Y-73658746D01*
X159535391Y-74218256D01*
X159293628Y-74649052D01*
X158972940Y-75420483D01*
X158774704Y-76256067D01*
X158686866Y-77216856D01*
X158680488Y-77753712D01*
X158678159Y-78350367D01*
X158655324Y-78752801D01*
X158607214Y-79001451D01*
X158529057Y-79136755D01*
X158515898Y-79148581D01*
X158270561Y-79248177D01*
X158077825Y-79143779D01*
X157986342Y-78866548D01*
X157984352Y-78808159D01*
X157947383Y-78544334D01*
X157848306Y-78129398D01*
X157704867Y-77633451D01*
X157622079Y-77377069D01*
X157495962Y-76981996D01*
X157397312Y-76614756D01*
X157319423Y-76230015D01*
X157255587Y-75782441D01*
X157199098Y-75226699D01*
X157143247Y-74517457D01*
X157094793Y-73813203D01*
X157044062Y-73011246D01*
X156999458Y-72232193D01*
X156963555Y-71527130D01*
X156938930Y-70947143D01*
X156928157Y-70543321D01*
X156927899Y-70502808D01*
X156828575Y-69377104D01*
X156534946Y-68382787D01*
X156045395Y-67516401D01*
X155358309Y-66774491D01*
X155080964Y-66551145D01*
X154632231Y-66193889D01*
X154166596Y-65790740D01*
X153857695Y-65499982D01*
X153317613Y-64960982D01*
X153185151Y-66440722D01*
X153097162Y-67274573D01*
X152984180Y-68013962D01*
X152831164Y-68713619D01*
X152623075Y-69428278D01*
X152344875Y-70212672D01*
X151981525Y-71121533D01*
X151744578Y-71683426D01*
X150890861Y-73682500D01*
X150917267Y-75414305D01*
X150933620Y-76056169D01*
X150960528Y-76637726D01*
X150994709Y-77107001D01*
X151032883Y-77412018D01*
X151047152Y-77472176D01*
X151237001Y-78034268D01*
X151426605Y-78533590D01*
X151590230Y-78904429D01*
X151652845Y-79018877D01*
X151735461Y-79306681D01*
X151632908Y-79529964D01*
X151376763Y-79620707D01*
X151373459Y-79620715D01*
X151138862Y-79516142D01*
X150876344Y-79237238D01*
X150622849Y-78835733D01*
X150415322Y-78363360D01*
X150365862Y-78209814D01*
X150237930Y-77633142D01*
X150133088Y-76885699D01*
X150057035Y-76031256D01*
X150015472Y-75133584D01*
X150013762Y-74270463D01*
X150024468Y-73660918D01*
X150018362Y-73233475D01*
X149988633Y-72935263D01*
X149928470Y-72713410D01*
X149831063Y-72515045D01*
X149775841Y-72423498D01*
X149386767Y-71925196D01*
X148800498Y-71368808D01*
X148008544Y-70746979D01*
X147155852Y-70153838D01*
X146619845Y-69785638D01*
X146091599Y-69403200D01*
X145639091Y-69056768D01*
X145376768Y-68838844D01*
X145075313Y-68582043D01*
X144849181Y-68409875D01*
X144747263Y-68359558D01*
X144747228Y-68359592D01*
X144757642Y-68498454D01*
X144845080Y-68856392D01*
X145008723Y-69430557D01*
X145247751Y-70218097D01*
X145561344Y-71216160D01*
X145635320Y-71448240D01*
X145829887Y-72096873D01*
X146010448Y-72769251D01*
X146154750Y-73378483D01*
X146231087Y-73774246D01*
X146308891Y-74530250D01*
X146325771Y-75366082D01*
X146285788Y-76208331D01*
X146193009Y-76983585D01*
X146051497Y-77618435D01*
X146011563Y-77739444D01*
X145727785Y-78513261D01*
X145464718Y-79197139D01*
X145235707Y-79758456D01*
X145054097Y-80164587D01*
X144933232Y-80382909D01*
X144926998Y-80390791D01*
X144666041Y-80553447D01*
X144375059Y-80532774D01*
X144146531Y-80343417D01*
X144105786Y-80260742D01*
X143992372Y-79982001D01*
X143826518Y-79595857D01*
X143717343Y-79349399D01*
X143558583Y-78976691D01*
X143350639Y-78462115D01*
X143125069Y-77884698D01*
X142982544Y-77509368D01*
X142415971Y-76220268D01*
X141746887Y-75089512D01*
X140989328Y-74133819D01*
X140157330Y-73369908D01*
X139264928Y-72814497D01*
X138912501Y-72661435D01*
X138545761Y-72532070D01*
X138025112Y-72363166D01*
X137423348Y-72177770D01*
X136882527Y-72018715D01*
X135720370Y-71630534D01*
X134629837Y-71140218D01*
X134184832Y-70904271D01*
X133310184Y-70401361D01*
X132580369Y-69924995D01*
X131927498Y-69422300D01*
X131283678Y-68840400D01*
X130581019Y-68126423D01*
X130479023Y-68018177D01*
X130051511Y-67566001D01*
X129747410Y-67265335D01*
X129558507Y-67127444D01*
X129476586Y-67163595D01*
X129493435Y-67385052D01*
X129600839Y-67803082D01*
X129790584Y-68428949D01*
X129907217Y-68802407D01*
X130125136Y-69460659D01*
X130335232Y-69981154D01*
X130578260Y-70439825D01*
X130894977Y-70912608D01*
X131326138Y-71475435D01*
X131374696Y-71536552D01*
X131723350Y-71959969D01*
X132076398Y-72352840D01*
X132469272Y-72749135D01*
X132937401Y-73182819D01*
X133516217Y-73687860D01*
X134241149Y-74298226D01*
X134348241Y-74387306D01*
X134980985Y-74923443D01*
X135461480Y-75359169D01*
X135826938Y-75733422D01*
X136114567Y-76085138D01*
X136361577Y-76453255D01*
X136427909Y-76563518D01*
X136834770Y-77410334D01*
X137179314Y-78450973D01*
X137454037Y-79650551D01*
X137651431Y-80974181D01*
X137763991Y-82386978D01*
X137780849Y-82851489D01*
X137793495Y-83448956D01*
X137791488Y-83851487D01*
X137769811Y-84099136D01*
X137723442Y-84231953D01*
X137647363Y-84289993D01*
X137598944Y-84303026D01*
X137363020Y-84289719D01*
X137274461Y-84240479D01*
X137226903Y-84089485D01*
X137171211Y-83750489D01*
X137113625Y-83270233D01*
X137060382Y-82695461D01*
X137049327Y-82553757D01*
X136997262Y-81964835D01*
X136928524Y-81333213D01*
X136849543Y-80703616D01*
X136766747Y-80120766D01*
X136686566Y-79629389D01*
X136615428Y-79274207D01*
X136559763Y-79099946D01*
X136551555Y-79091034D01*
X136443717Y-79024764D01*
X136207750Y-78879893D01*
X136112130Y-78821203D01*
X135818591Y-78605694D01*
X135448506Y-78285996D01*
X135091142Y-77940465D01*
X134578193Y-77488365D01*
X133978476Y-77072591D01*
X133686157Y-76908525D01*
X132890587Y-76504722D01*
X131120571Y-76492783D01*
X129864066Y-76450728D01*
X128804953Y-76340359D01*
X127914427Y-76157753D01*
X127368029Y-75981847D01*
X127139204Y-75913597D01*
X127076181Y-75958740D01*
X127086196Y-76004020D01*
X127248038Y-76197913D01*
X127600294Y-76436543D01*
X128106970Y-76700994D01*
X128732073Y-76972352D01*
X129391268Y-77215390D01*
X130283502Y-77533722D01*
X130985250Y-77827200D01*
X131535521Y-78122387D01*
X131973325Y-78445848D01*
X132337671Y-78824147D01*
X132667569Y-79283849D01*
X132837424Y-79562129D01*
X132998569Y-79853238D01*
X133097542Y-80102637D01*
X133147029Y-80380093D01*
X133159719Y-80755373D01*
X133148972Y-81275347D01*
X133115936Y-82400603D01*
X134584635Y-83754868D01*
X135193706Y-84317689D01*
X135649163Y-84744456D01*
X135970698Y-85058100D01*
X136178004Y-85281556D01*
X136290773Y-85437754D01*
X136328697Y-85549627D01*
X136311470Y-85640108D01*
X136268883Y-85716199D01*
X136079080Y-85881087D01*
X135959395Y-85912129D01*
X135812286Y-85835116D01*
X135530659Y-85622957D01*
X135149084Y-85303973D01*
X134702128Y-84906486D01*
X134470106Y-84691997D01*
X133661380Y-83951360D01*
X132970199Y-83362328D01*
X132357311Y-82901214D01*
X131783462Y-82544335D01*
X131209400Y-82268004D01*
X130595871Y-82048538D01*
X129903622Y-81862250D01*
X129703333Y-81815746D01*
X128616080Y-81587592D01*
X127641120Y-81427735D01*
X126696082Y-81327948D01*
X125698600Y-81280003D01*
X124566303Y-81275673D01*
X124330571Y-81279078D01*
X123085311Y-81298784D01*
X122049020Y-81311745D01*
X121195552Y-81317001D01*
X120498760Y-81313593D01*
X119932500Y-81300562D01*
X119470626Y-81276948D01*
X119086991Y-81241792D01*
X118755452Y-81194135D01*
X118449860Y-81133017D01*
X118144072Y-81057479D01*
X118120463Y-81051222D01*
X117541377Y-80878510D01*
X116936964Y-80668429D01*
X116426697Y-80462879D01*
X116372770Y-80438332D01*
X115995530Y-80266458D01*
X115710314Y-80142340D01*
X115575797Y-80091463D01*
X115573856Y-80091296D01*
X115603903Y-80188648D01*
X115723587Y-80453318D01*
X115913540Y-80844222D01*
X116140266Y-81292794D01*
X116656691Y-82189001D01*
X117210095Y-82908463D01*
X117853634Y-83509062D01*
X118640463Y-84048680D01*
X118708426Y-84089311D01*
X119199102Y-84363540D01*
X119637912Y-84559276D01*
X120078570Y-84686493D01*
X120574793Y-84755168D01*
X121180298Y-84775276D01*
X121948800Y-84756791D01*
X122236204Y-84744433D01*
X123562055Y-84719373D01*
X124697650Y-84779328D01*
X125674218Y-84930219D01*
X126522989Y-85177969D01*
X127275192Y-85528497D01*
X127670098Y-85774771D01*
X128309803Y-86286776D01*
X128932480Y-86920145D01*
X129501600Y-87625126D01*
X129980635Y-88351963D01*
X130333055Y-89050905D01*
X130519475Y-89655718D01*
X130560951Y-90122934D01*
X130537808Y-90609874D01*
X130460750Y-91049086D01*
X130340479Y-91373119D01*
X130226700Y-91500882D01*
X129978371Y-91528876D01*
X129777848Y-91382530D01*
X129682978Y-91122473D01*
X129698249Y-90947001D01*
X129685751Y-90604448D01*
X129533106Y-90151217D01*
X129271081Y-89638187D01*
X128930440Y-89116240D01*
X128541947Y-88636257D01*
X128136369Y-88249119D01*
X128009651Y-88154296D01*
X127467653Y-87885745D01*
X126896008Y-87746375D01*
X126582954Y-87717297D01*
X126264289Y-87723196D01*
X125900143Y-87772058D01*
X125450646Y-87871866D01*
X124875928Y-88030607D01*
X124136118Y-88256264D01*
X123764907Y-88373446D01*
X122883716Y-88589424D01*
X121895387Y-88725968D01*
X120884086Y-88778062D01*
X119933983Y-88740693D01*
X119266991Y-88641388D01*
X118862450Y-88568175D01*
X118580448Y-88545922D01*
X118473253Y-88578715D01*
X118473241Y-88579361D01*
X118560390Y-88759783D01*
X118790561Y-89035334D01*
X119116836Y-89362454D01*
X119492297Y-89697580D01*
X119870028Y-89997150D01*
X120203110Y-90217602D01*
X120283051Y-90259738D01*
X120716650Y-90424921D01*
X121293110Y-90582050D01*
X121920686Y-90706596D01*
X122001018Y-90719081D01*
X122769791Y-90849646D01*
X123523524Y-91005130D01*
X124214597Y-91173367D01*
X124795390Y-91342187D01*
X125218282Y-91499422D01*
X125372512Y-91580560D01*
X125574357Y-91759861D01*
X125861196Y-92073122D01*
X126181464Y-92462824D01*
X126289674Y-92603663D01*
X126652830Y-93062670D01*
X127107508Y-93604973D01*
X127581284Y-94145248D01*
X127819550Y-94406094D01*
X128253173Y-94893983D01*
X128528454Y-95253826D01*
X128637483Y-95474746D01*
X128631954Y-95523224D01*
X128427215Y-95798388D01*
X128179794Y-96041896D01*
X127963254Y-96185376D01*
X127904370Y-96199450D01*
X127759905Y-96121222D01*
X127497953Y-95909527D01*
X127162722Y-95601679D01*
X126963629Y-95405403D01*
X126034072Y-94631049D01*
X124950934Y-94021666D01*
X123735843Y-93585335D01*
X122410424Y-93330139D01*
X121226573Y-93261666D01*
X120657641Y-93270077D01*
X120177886Y-93304535D01*
X119735010Y-93378880D01*
X119276715Y-93506951D01*
X118750702Y-93702589D01*
X118104673Y-93979632D01*
X117530465Y-94239749D01*
X117030989Y-94460506D01*
X116487926Y-94688698D01*
X116236947Y-94789407D01*
X115766616Y-94991727D01*
X115290686Y-95224406D01*
X115082376Y-95338506D01*
X114124088Y-95793306D01*
X112976452Y-96160314D01*
X111670773Y-96433127D01*
X110238357Y-96605344D01*
X108710508Y-96670562D01*
X108566839Y-96670963D01*
X107360374Y-96645334D01*
X106321705Y-96562979D01*
X105388072Y-96413613D01*
X104496716Y-96186948D01*
X103584878Y-95872701D01*
X103502838Y-95841007D01*
X102937527Y-95620945D01*
X102132553Y-95620945D01*
X102068562Y-95174341D01*
X102160834Y-94863657D01*
X102411708Y-94725199D01*
X102818574Y-94760711D01*
X103249492Y-94913314D01*
X104266765Y-95292777D01*
X105393734Y-95608339D01*
X106506906Y-95826682D01*
X106764754Y-95861708D01*
X107499874Y-95917261D01*
X108390635Y-95931068D01*
X109361652Y-95905422D01*
X110337543Y-95842616D01*
X111242922Y-95744946D01*
X111417685Y-95720124D01*
X112089244Y-95587333D01*
X112831022Y-95388014D01*
X113561878Y-95148156D01*
X114200673Y-94893752D01*
X114566055Y-94711609D01*
X114759159Y-94606313D01*
X115000169Y-94485945D01*
X115314133Y-94339482D01*
X115726100Y-94155902D01*
X116261119Y-93924183D01*
X116944237Y-93633303D01*
X117800504Y-93272241D01*
X118590833Y-92940614D01*
X119442583Y-92645656D01*
X120304655Y-92483710D01*
X121241814Y-92447821D01*
X122318824Y-92531036D01*
X122359318Y-92535956D01*
X123163154Y-92676569D01*
X124034434Y-92898305D01*
X124877004Y-93172821D01*
X125594709Y-93471774D01*
X125683238Y-93515740D01*
X125957191Y-93649656D01*
X126064948Y-93674628D01*
X126047651Y-93592720D01*
X126015996Y-93532441D01*
X125880775Y-93341443D01*
X125636773Y-93043329D01*
X125336469Y-92702179D01*
X125332388Y-92697701D01*
X125039739Y-92390039D01*
X124793569Y-92187039D01*
X124519506Y-92048001D01*
X124143178Y-91932227D01*
X123764907Y-91839897D01*
X123165959Y-91709596D01*
X122520532Y-91585599D01*
X121959265Y-91492853D01*
X121913193Y-91486313D01*
X120734097Y-91238047D01*
X119731455Y-90841298D01*
X118892702Y-90287526D01*
X118205271Y-89568186D01*
X117656594Y-88674735D01*
X117598426Y-88553151D01*
X117408570Y-88125525D01*
X117321378Y-87850821D01*
X117330631Y-87673495D01*
X117430113Y-87538006D01*
X117479915Y-87494474D01*
X117616087Y-87426257D01*
X117815710Y-87431534D01*
X118135528Y-87518062D01*
X118450054Y-87627066D01*
X118787465Y-87740142D01*
X119102664Y-87818846D01*
X119450010Y-87869232D01*
X119883861Y-87897354D01*
X120458576Y-87909266D01*
X121001481Y-87911203D01*
X121687044Y-87909264D01*
X122201386Y-87897130D01*
X122608474Y-87865324D01*
X122972271Y-87804370D01*
X123356741Y-87704792D01*
X123825851Y-87557113D01*
X124176481Y-87440833D01*
X124829287Y-87231358D01*
X125333014Y-87094170D01*
X125757468Y-87015516D01*
X126172449Y-86981641D01*
X126528333Y-86977408D01*
X127175664Y-87009790D01*
X127641049Y-87100904D01*
X127862178Y-87191866D01*
X128168742Y-87332889D01*
X128291409Y-87340880D01*
X128232996Y-87225811D01*
X127996318Y-86997651D01*
X127750037Y-86794864D01*
X127223005Y-86404600D01*
X126717773Y-86098230D01*
X126196537Y-85866877D01*
X125621492Y-85701661D01*
X124954831Y-85593703D01*
X124158749Y-85534123D01*
X123195442Y-85514042D01*
X122321335Y-85519833D01*
X121504607Y-85528667D01*
X120882899Y-85526939D01*
X120416178Y-85512085D01*
X120064415Y-85481541D01*
X119787578Y-85432744D01*
X119545638Y-85363130D01*
X119472778Y-85337402D01*
X118753153Y-85010602D01*
X117987298Y-84556430D01*
X117262166Y-84032811D01*
X116664710Y-83497667D01*
X116586959Y-83415046D01*
X116213149Y-82942617D01*
X115827931Y-82347535D01*
X115458268Y-81684313D01*
X115131124Y-81007460D01*
X114873460Y-80371488D01*
X114712241Y-79830907D01*
X114671335Y-79542242D01*
X114671601Y-79196550D01*
X114721360Y-79020341D01*
X114846666Y-78949085D01*
X114915862Y-78936616D01*
X115194683Y-78976115D01*
X115498874Y-79123585D01*
X115503824Y-79127047D01*
X116378516Y-79629880D01*
X117450818Y-80051170D01*
X118694522Y-80381604D01*
X119413981Y-80516673D01*
X119897978Y-80587409D01*
X120342057Y-80629027D01*
X120808009Y-80642498D01*
X121357621Y-80628794D01*
X122052684Y-80588889D01*
X122412592Y-80563849D01*
X123762954Y-80502310D01*
X125146935Y-80504276D01*
X126506766Y-80566370D01*
X127784673Y-80685212D01*
X128922884Y-80857422D01*
X129484141Y-80977469D01*
X129998487Y-81098527D01*
X130438519Y-81194764D01*
X130747146Y-81254104D01*
X130853913Y-81267222D01*
X131047308Y-81319428D01*
X131369558Y-81455027D01*
X131682004Y-81609267D01*
X132066715Y-81796501D01*
X132299744Y-81843343D01*
X132418851Y-81724160D01*
X132461794Y-81413319D01*
X132466759Y-81076531D01*
X132353609Y-80414967D01*
X132021972Y-79731315D01*
X131624625Y-79205693D01*
X131345013Y-78926104D01*
X131018706Y-78690368D01*
X130598330Y-78473481D01*
X130036516Y-78250437D01*
X129409352Y-78036341D01*
X128454038Y-77701809D01*
X127702837Y-77383560D01*
X127127170Y-77063701D01*
X126698463Y-76724334D01*
X126388137Y-76347565D01*
X126220201Y-76039216D01*
X126029543Y-75519162D01*
X126006665Y-75160584D01*
X126155062Y-74960309D01*
X126478231Y-74915162D01*
X126979667Y-75021966D01*
X127242431Y-75110702D01*
X128221762Y-75414441D01*
X129232151Y-75613125D01*
X130342932Y-75717501D01*
X131304115Y-75740370D01*
X132026649Y-75749158D01*
X132571279Y-75779434D01*
X132994766Y-75837067D01*
X133353871Y-75927929D01*
X133459574Y-75963260D01*
X134258365Y-76330707D01*
X135066304Y-76858454D01*
X135671157Y-77368567D01*
X135945934Y-77615170D01*
X136078145Y-77688182D01*
X136074352Y-77579165D01*
X135941115Y-77279678D01*
X135862268Y-77122712D01*
X135546802Y-76647791D01*
X135032726Y-76072270D01*
X134317191Y-75393304D01*
X133397348Y-74608047D01*
X133113518Y-74377376D01*
X132232730Y-73609072D01*
X131398151Y-72769735D01*
X130660045Y-71914464D01*
X130068674Y-71098359D01*
X129953445Y-70913246D01*
X129608981Y-70229938D01*
X129263449Y-69332186D01*
X128924204Y-68240580D01*
X128708569Y-67428923D01*
X128547078Y-66836092D01*
X128342629Y-66157517D01*
X128135856Y-65527282D01*
X128108804Y-65449883D01*
X127936542Y-64934629D01*
X127849327Y-64592375D01*
X127839156Y-64380126D01*
X127888419Y-64265728D01*
X128126803Y-64108792D01*
X128371621Y-64174819D01*
X128593552Y-64454318D01*
X128617151Y-64501540D01*
X128826651Y-64846717D01*
X129176575Y-65318314D01*
X129635938Y-65881721D01*
X130173756Y-66502325D01*
X130759042Y-67145517D01*
X131360812Y-67776685D01*
X131948081Y-68361219D01*
X132489863Y-68864508D01*
X132641155Y-68996412D01*
X133194235Y-69411911D01*
X133902199Y-69859058D01*
X134695160Y-70300288D01*
X135503232Y-70698034D01*
X136256529Y-71014730D01*
X136641296Y-71146623D01*
X137537894Y-71421554D01*
X138242115Y-71642654D01*
X138787343Y-71821993D01*
X139206964Y-71971643D01*
X139534363Y-72103676D01*
X139802926Y-72230164D01*
X140046036Y-72363177D01*
X140110278Y-72400963D01*
X140805015Y-72903211D01*
X141526356Y-73602880D01*
X142289083Y-74514492D01*
X142372280Y-74623240D01*
X142642513Y-74990795D01*
X142868302Y-75333414D01*
X143071868Y-75695984D01*
X143275430Y-76123390D01*
X143501209Y-76660519D01*
X143771426Y-77352257D01*
X143930258Y-77770440D01*
X144139986Y-78311237D01*
X144323272Y-78756885D01*
X144463638Y-79069312D01*
X144544607Y-79210449D01*
X144554892Y-79213657D01*
X144638436Y-79065855D01*
X144776897Y-78759133D01*
X144944907Y-78355623D01*
X145117097Y-77917462D01*
X145268099Y-77506785D01*
X145343371Y-77282437D01*
X145557873Y-76239399D01*
X145588248Y-75061871D01*
X145435370Y-73760572D01*
X145100115Y-72346225D01*
X144884707Y-71660053D01*
X144638885Y-70906232D01*
X144399688Y-70129301D01*
X144177325Y-69367024D01*
X143982006Y-68657166D01*
X143823941Y-68037492D01*
X143713338Y-67545764D01*
X143660408Y-67219748D01*
X143659223Y-67127112D01*
X143792310Y-66889912D01*
X143967473Y-66823761D01*
X144148503Y-66853675D01*
X144405913Y-66999393D01*
X144767782Y-67280143D01*
X145241041Y-67695937D01*
X145701905Y-68089847D01*
X146296405Y-68562171D01*
X146960511Y-69063888D01*
X147630191Y-69545980D01*
X147910235Y-69739332D01*
X148613134Y-70227907D01*
X149150632Y-70629291D01*
X149560403Y-70974926D01*
X149880117Y-71296258D01*
X150111252Y-71576460D01*
X150646022Y-72280738D01*
X151278967Y-70806156D01*
X151622673Y-69985498D01*
X151886666Y-69291183D01*
X152081865Y-68668484D01*
X152219188Y-68062672D01*
X152309556Y-67419021D01*
X152363887Y-66682802D01*
X152393100Y-65799289D01*
X152403165Y-65171598D01*
X152416969Y-64308276D01*
X152437444Y-63654400D01*
X152469463Y-63184237D01*
X152517902Y-62872056D01*
X152587635Y-62692123D01*
X152683536Y-62618707D01*
X152810480Y-62626075D01*
G37*
%TD*%
M02*
