M48
; DRILL file KiCad 10.0.0-10.0.0~ubuntu24.04.1 date 2026-07-22T18:50:38
; FORMAT={-:-/ absolute / metric / decimal}
; #@! TF.CreationDate,2026-07-22T18:50:38-07:00
; #@! TF.GenerationSoftware,Kicad,Pcbnew,10.0.0-10.0.0~ubuntu24.04.1
; #@! TF.FileFunction,Plated,1,2,PTH
FMAT,2
METRIC
; #@! TA.AperFunction,Plated,PTH,ViaDrill
T1C0.300
; #@! TA.AperFunction,Plated,PTH,ViaDrill
T2C2.000
%
G90
G05
T1
X132.913Y-102.8
X133.19Y-110.92
X133.28Y-100.43
X133.4Y-112.78
X134.38Y-98.67
X135.66Y-116.6
X136.17Y-118.79
X138.67Y-91.45
X139.58Y-121.74
X140.31Y-90.54
X140.77Y-123.86
X145.01Y-86.93
X146.05Y-126.45
X146.93Y-87.03
X147.88Y-127.31
X151.2Y-127.624
X160.045Y-86.153
X160.32Y-126.55
X161.61Y-87.2
X162.27Y-126.28
X166.35Y-89.16
X167.13Y-123.15
X167.65Y-90.95
X168.63Y-122.157
X171.55Y-94.52
X171.73Y-117.57
X172.35Y-96.65
X172.935Y-116.187
X174.5Y-111.28
X175.017Y-109.41
X175.31Y-105.57
T2
X130.4Y-106.0
X154.1Y-83.3
X154.1Y-130.2
X177.2Y-105.6
M30
