%TF.GenerationSoftware,KiCad,Pcbnew,10.0.0-10.0.0~ubuntu24.04.1*%
%TF.CreationDate,2026-07-22T18:50:33-07:00*%
%TF.ProjectId,hackathon-badge,6861636b-6174-4686-9f6e-2d6261646765,rev?*%
%TF.SameCoordinates,Original*%
%TF.FileFunction,Profile,NP*%
%FSLAX46Y46*%
G04 Gerber Fmt 4.6, Leading zero omitted, Abs format (unit mm)*
G04 Created by KiCad (PCBNEW 10.0.0-10.0.0~ubuntu24.04.1) date 2026-07-22 18:50:33*
%MOMM*%
%LPD*%
G01*
G04 APERTURE LIST*
%TA.AperFunction,Profile*%
%ADD10C,0.263226*%
%TD*%
%TA.AperFunction,Profile*%
%ADD11C,0.050000*%
%TD*%
G04 APERTURE END LIST*
D10*
X151900000Y-60400000D02*
X151925549Y-60405803D01*
X151952630Y-60415014D01*
X151981217Y-60427647D01*
X152011286Y-60443717D01*
X152042811Y-60463239D01*
X152075767Y-60486226D01*
X152110127Y-60512694D01*
X152145867Y-60542656D01*
X152182961Y-60576127D01*
X152221384Y-60613123D01*
X152261110Y-60653656D01*
X152302113Y-60697742D01*
X153066559Y-61530607D01*
X153991773Y-62513417D01*
X154494514Y-63034832D01*
X155013262Y-63562269D01*
X155539954Y-64085241D01*
X156066528Y-64593260D01*
X156245502Y-64767515D01*
X156438338Y-64966019D01*
X156537046Y-65072653D01*
X156635731Y-65183297D01*
X156733229Y-65297266D01*
X156828377Y-65413876D01*
X156920012Y-65532443D01*
X157006971Y-65652282D01*
X157088091Y-65772709D01*
X157162208Y-65893040D01*
X157228160Y-66012590D01*
X157284784Y-66130675D01*
X157330916Y-66246612D01*
X157349684Y-66303560D01*
X157365393Y-66359715D01*
X157447777Y-66727973D01*
X157519073Y-67133861D01*
X157579985Y-67572083D01*
X157631221Y-68037341D01*
X157707483Y-69027774D01*
X157753506Y-70062779D01*
X157774936Y-71099975D01*
X157777420Y-72096981D01*
X157748132Y-73800899D01*
X157746333Y-73917063D01*
X157748172Y-74018015D01*
X157750523Y-74062859D01*
X157753864Y-74103986D01*
X157758220Y-74141425D01*
X157763620Y-74175204D01*
X157770089Y-74205353D01*
X157777654Y-74231900D01*
X157786342Y-74254875D01*
X157796180Y-74274305D01*
X157807194Y-74290219D01*
X157819411Y-74302647D01*
X157832857Y-74311616D01*
X157847559Y-74317157D01*
X157863545Y-74319296D01*
X157880840Y-74318064D01*
X157899471Y-74313489D01*
X157919465Y-74305599D01*
X157940848Y-74294424D01*
X157963648Y-74279992D01*
X157987891Y-74262332D01*
X158013603Y-74241472D01*
X158040811Y-74217442D01*
X158069542Y-74190270D01*
X158131680Y-74126615D01*
X158200229Y-74050738D01*
X158275402Y-73962868D01*
X158356624Y-73868036D01*
X158445186Y-73768963D01*
X158541408Y-73665638D01*
X158645606Y-73558051D01*
X158758099Y-73446192D01*
X158879204Y-73330051D01*
X159009238Y-73209618D01*
X159148520Y-73084884D01*
X159350300Y-72912297D01*
X159577566Y-72724775D01*
X160070623Y-72321011D01*
X160317449Y-72112814D01*
X160551830Y-71905771D01*
X160661389Y-71803939D01*
X160764282Y-71703904D01*
X160859321Y-71606168D01*
X160945323Y-71511234D01*
X161169870Y-71240450D01*
X161386319Y-70955887D01*
X161594561Y-70659722D01*
X161794488Y-70354130D01*
X161985991Y-70041287D01*
X162168962Y-69723368D01*
X162343294Y-69402550D01*
X162508877Y-69081007D01*
X162813366Y-68444452D01*
X163081563Y-67831109D01*
X163312601Y-67258381D01*
X163505616Y-66743676D01*
X163526944Y-66687246D01*
X163548734Y-66634444D01*
X163570945Y-66585274D01*
X163593534Y-66539740D01*
X163616458Y-66497847D01*
X163639676Y-66459599D01*
X163663143Y-66425002D01*
X163686819Y-66394058D01*
X163710661Y-66366773D01*
X163734626Y-66343151D01*
X163758671Y-66323196D01*
X163782755Y-66306913D01*
X163806835Y-66294307D01*
X163830868Y-66285381D01*
X163854812Y-66280141D01*
X163878624Y-66278590D01*
X163902263Y-66280733D01*
X163925685Y-66286574D01*
X163948848Y-66296118D01*
X163971710Y-66309370D01*
X163994229Y-66326334D01*
X164016361Y-66347013D01*
X164038064Y-66371413D01*
X164059297Y-66399538D01*
X164080016Y-66431393D01*
X164100179Y-66466981D01*
X164119743Y-66506308D01*
X164138667Y-66549378D01*
X164156907Y-66596195D01*
X164174422Y-66646763D01*
X164191168Y-66701087D01*
X164207104Y-66759172D01*
X164334137Y-67268924D01*
X164465014Y-67840930D01*
X164592330Y-68461292D01*
X164708674Y-69116113D01*
X164806639Y-69791496D01*
X164878817Y-70473541D01*
X164902920Y-70812720D01*
X164917799Y-71148353D01*
X164922527Y-71478704D01*
X164916178Y-71802034D01*
X164908851Y-71929984D01*
X164896708Y-72065883D01*
X164860325Y-72356957D01*
X164811737Y-72666112D01*
X164755651Y-72984208D01*
X164639817Y-73610648D01*
X164589485Y-73900708D01*
X164550487Y-74163137D01*
X164489715Y-74699026D01*
X164442172Y-75250719D01*
X164406414Y-75808323D01*
X164380999Y-76361940D01*
X164364484Y-76901675D01*
X164355427Y-77417633D01*
X164353914Y-78338635D01*
X164354989Y-78398714D01*
X164357215Y-78455071D01*
X164360586Y-78507716D01*
X164365097Y-78556664D01*
X164370742Y-78601926D01*
X164377517Y-78643515D01*
X164385414Y-78681445D01*
X164394429Y-78715728D01*
X164404557Y-78746377D01*
X164415792Y-78773404D01*
X164428128Y-78796822D01*
X164441560Y-78816643D01*
X164456083Y-78832882D01*
X164471691Y-78845550D01*
X164488378Y-78854659D01*
X164506140Y-78860224D01*
X164524970Y-78862256D01*
X164544864Y-78860768D01*
X164565815Y-78855773D01*
X164587819Y-78847284D01*
X164610869Y-78835313D01*
X164634961Y-78819873D01*
X164660088Y-78800977D01*
X164686246Y-78778638D01*
X164713429Y-78752868D01*
X164741632Y-78723679D01*
X164770848Y-78691086D01*
X164801073Y-78655100D01*
X164832301Y-78615735D01*
X164864527Y-78573002D01*
X164931949Y-78477486D01*
X165087146Y-78258702D01*
X165266693Y-78026288D01*
X165472115Y-77782055D01*
X165704934Y-77527809D01*
X165966672Y-77265362D01*
X166258855Y-76996520D01*
X166583004Y-76723093D01*
X166940642Y-76446891D01*
X167333294Y-76169720D01*
X167762481Y-75893392D01*
X168229728Y-75619713D01*
X168736557Y-75350493D01*
X169284491Y-75087542D01*
X169875054Y-74832667D01*
X170509768Y-74587677D01*
X171190157Y-74354382D01*
X171443816Y-74275945D01*
X171726465Y-74193009D01*
X172338541Y-74015691D01*
X172647870Y-73922338D01*
X172945996Y-73826541D01*
X173222869Y-73728813D01*
X173350196Y-73679386D01*
X173468442Y-73629669D01*
X173850492Y-73447167D01*
X174208756Y-73247225D01*
X174543954Y-73030917D01*
X174856803Y-72799317D01*
X175148023Y-72553501D01*
X175418334Y-72294543D01*
X175668455Y-72023519D01*
X175899105Y-71741502D01*
X176111003Y-71449568D01*
X176304869Y-71148791D01*
X176481422Y-70840247D01*
X176641381Y-70525009D01*
X176785465Y-70204153D01*
X176914393Y-69878754D01*
X177129662Y-69218623D01*
X177292940Y-68553216D01*
X177409982Y-67891130D01*
X177486541Y-67240964D01*
X177528372Y-66611315D01*
X177541228Y-66010782D01*
X177530865Y-65447964D01*
X177503035Y-64931457D01*
X177463493Y-64469861D01*
X177458398Y-64409656D01*
X177455495Y-64352300D01*
X177454719Y-64297839D01*
X177456008Y-64246319D01*
X177459297Y-64197788D01*
X177464523Y-64152292D01*
X177471622Y-64109877D01*
X177480530Y-64070591D01*
X177491185Y-64034480D01*
X177503521Y-64001590D01*
X177517476Y-63971969D01*
X177532986Y-63945662D01*
X177549987Y-63922718D01*
X177568415Y-63903181D01*
X177588207Y-63887099D01*
X177609299Y-63874519D01*
X177631628Y-63865487D01*
X177655129Y-63860051D01*
X177679740Y-63858255D01*
X177705395Y-63860148D01*
X177732033Y-63865776D01*
X177759588Y-63875185D01*
X177787998Y-63888422D01*
X177817199Y-63905535D01*
X177847127Y-63926569D01*
X177877718Y-63951571D01*
X177908909Y-63980588D01*
X177940636Y-64013666D01*
X177972835Y-64050853D01*
X178005442Y-64092194D01*
X178038395Y-64137737D01*
X178071629Y-64187528D01*
X178263497Y-64513606D01*
X178435106Y-64861203D01*
X178587074Y-65228851D01*
X178720017Y-65615083D01*
X178834553Y-66018433D01*
X178931300Y-66437435D01*
X179073895Y-67316525D01*
X179152740Y-68240621D01*
X179172775Y-69197989D01*
X179138939Y-70176896D01*
X179056171Y-71165609D01*
X178929409Y-72152394D01*
X178763593Y-73125519D01*
X178563661Y-74073250D01*
X178334553Y-74983854D01*
X178081208Y-75845598D01*
X177808564Y-76646748D01*
X177521560Y-77375572D01*
X177225137Y-78020336D01*
X177165631Y-78133816D01*
X177098386Y-78252449D01*
X177024342Y-78375398D01*
X176944435Y-78501826D01*
X176770787Y-78761770D01*
X176584948Y-79025583D01*
X176394421Y-79286568D01*
X176206712Y-79538028D01*
X175869764Y-79985585D01*
X175733542Y-80169940D01*
X175610124Y-80340381D01*
X175498911Y-80497453D01*
X175399307Y-80641702D01*
X175251036Y-80848324D01*
X175078223Y-81077708D01*
X174893717Y-81324318D01*
X174710365Y-81582614D01*
X174623138Y-81714415D01*
X174541017Y-81847061D01*
X174465608Y-81979860D01*
X174398519Y-82112119D01*
X174341354Y-82243147D01*
X174295720Y-82372251D01*
X174277728Y-82435865D01*
X174263222Y-82498739D01*
X174252401Y-82560785D01*
X174245467Y-82621918D01*
X174246266Y-82684232D01*
X174259936Y-82742598D01*
X174287785Y-82796272D01*
X174331123Y-82844508D01*
X174391258Y-82886563D01*
X174469499Y-82921691D01*
X174567155Y-82949148D01*
X174685535Y-82968191D01*
X174825946Y-82978073D01*
X174989699Y-82978051D01*
X175178102Y-82967380D01*
X175392464Y-82945315D01*
X175634093Y-82911112D01*
X175904299Y-82864027D01*
X176204389Y-82803315D01*
X176535674Y-82728231D01*
X176793416Y-82664554D01*
X177078129Y-82589455D01*
X177380241Y-82505015D01*
X177690180Y-82413316D01*
X177998375Y-82316439D01*
X178295255Y-82216467D01*
X178571247Y-82115481D01*
X178816780Y-82015562D01*
X179109531Y-81882131D01*
X179392425Y-81740924D01*
X179665615Y-81592421D01*
X179929256Y-81437103D01*
X180183501Y-81275453D01*
X180428504Y-81107951D01*
X180664419Y-80935078D01*
X180891400Y-80757317D01*
X181319175Y-80389051D01*
X181713061Y-80007006D01*
X182074287Y-79615030D01*
X182404085Y-79216975D01*
X182703685Y-78816692D01*
X182974320Y-78418030D01*
X183217219Y-78024840D01*
X183433613Y-77640973D01*
X183624734Y-77270280D01*
X183791813Y-76916610D01*
X183936079Y-76583815D01*
X184058765Y-76275745D01*
X184080962Y-76219679D01*
X184103408Y-76167165D01*
X184126071Y-76118211D01*
X184148922Y-76072826D01*
X184171927Y-76031020D01*
X184195056Y-75992800D01*
X184218277Y-75958177D01*
X184241560Y-75927158D01*
X184264873Y-75899754D01*
X184288184Y-75875972D01*
X184311463Y-75855822D01*
X184334678Y-75839313D01*
X184357798Y-75826453D01*
X184380791Y-75817251D01*
X184403626Y-75811717D01*
X184426272Y-75809860D01*
X184448697Y-75811687D01*
X184470871Y-75817209D01*
X184492762Y-75826433D01*
X184514338Y-75839370D01*
X184535569Y-75856027D01*
X184556423Y-75876414D01*
X184576868Y-75900540D01*
X184596875Y-75928414D01*
X184616410Y-75960044D01*
X184635443Y-75995440D01*
X184653942Y-76034610D01*
X184671877Y-76077563D01*
X184689216Y-76124308D01*
X184705928Y-76174855D01*
X184721981Y-76229212D01*
X184737344Y-76287387D01*
X184894823Y-76958596D01*
X185048376Y-77722163D01*
X185118013Y-78128393D01*
X185179870Y-78545489D01*
X185231678Y-78969375D01*
X185271172Y-79395977D01*
X185296085Y-79821220D01*
X185304150Y-80241030D01*
X185293102Y-80651332D01*
X185260672Y-81048051D01*
X185204595Y-81427112D01*
X185122605Y-81784442D01*
X185071184Y-81953683D01*
X185012434Y-82115964D01*
X184946073Y-82270774D01*
X184871816Y-82417605D01*
X184840464Y-82470490D01*
X184805023Y-82522623D01*
X184765723Y-82574021D01*
X184722794Y-82624699D01*
X184626969Y-82723959D01*
X184519388Y-82820527D01*
X184401889Y-82914529D01*
X184276313Y-83006090D01*
X184144499Y-83095335D01*
X184008287Y-83182390D01*
X183730027Y-83350427D01*
X183456248Y-83511202D01*
X183201667Y-83665718D01*
X183086176Y-83740941D01*
X182981002Y-83814974D01*
X182796536Y-83957527D01*
X182620341Y-84105765D01*
X182452284Y-84258922D01*
X182292231Y-84416230D01*
X182140048Y-84576925D01*
X181995601Y-84740239D01*
X181858756Y-84905406D01*
X181729379Y-85071660D01*
X181607336Y-85238234D01*
X181492493Y-85404361D01*
X181384716Y-85569276D01*
X181283871Y-85732213D01*
X181189825Y-85892403D01*
X181102442Y-86049082D01*
X180947134Y-86348839D01*
X180885155Y-86467492D01*
X180810793Y-86599881D01*
X180637479Y-86896476D01*
X180452301Y-87219843D01*
X180363109Y-87385697D01*
X180280366Y-87551200D01*
X180207212Y-87714007D01*
X180146784Y-87871768D01*
X180122324Y-87948023D01*
X180102222Y-88022136D01*
X180086871Y-88093814D01*
X180076663Y-88162763D01*
X180071991Y-88228691D01*
X180073247Y-88291303D01*
X180080823Y-88350305D01*
X180095112Y-88405406D01*
X180116505Y-88456311D01*
X180145396Y-88502726D01*
X180182176Y-88544358D01*
X180227239Y-88580914D01*
X180265734Y-88600007D01*
X180315958Y-88611840D01*
X180378785Y-88616168D01*
X180455091Y-88612746D01*
X180545750Y-88601331D01*
X180651639Y-88581676D01*
X180912604Y-88516670D01*
X181244989Y-88415769D01*
X181655796Y-88277014D01*
X182152027Y-88098447D01*
X182740684Y-87878108D01*
X183263415Y-87677732D01*
X183856035Y-87444699D01*
X184445202Y-87203525D01*
X184715571Y-87087546D01*
X184957574Y-86978723D01*
X185288823Y-86821103D01*
X185609913Y-86660370D01*
X186222160Y-86330684D01*
X186795408Y-85991891D01*
X187330745Y-85646220D01*
X187829263Y-85295895D01*
X188292052Y-84943145D01*
X188720204Y-84590195D01*
X189114810Y-84239273D01*
X189476959Y-83892605D01*
X189807743Y-83552418D01*
X190108253Y-83220939D01*
X190379579Y-82900394D01*
X190622813Y-82593011D01*
X190839044Y-82301015D01*
X191029364Y-82026634D01*
X191194864Y-81772095D01*
X191258443Y-81674328D01*
X191317345Y-81590544D01*
X191371529Y-81520780D01*
X191396839Y-81491167D01*
X191420955Y-81465073D01*
X191443871Y-81442503D01*
X191465583Y-81423461D01*
X191486086Y-81407952D01*
X191505374Y-81395981D01*
X191523443Y-81387553D01*
X191540287Y-81382671D01*
X191555902Y-81381342D01*
X191570283Y-81383569D01*
X191583425Y-81389357D01*
X191595323Y-81398711D01*
X191605971Y-81411635D01*
X191615365Y-81428135D01*
X191623500Y-81448214D01*
X191630371Y-81471879D01*
X191635972Y-81499132D01*
X191640300Y-81529980D01*
X191643348Y-81564426D01*
X191645113Y-81602476D01*
X191644770Y-81689404D01*
X191639230Y-81790802D01*
X191628455Y-81906707D01*
X191538829Y-82701282D01*
X191443488Y-83455872D01*
X191336627Y-84171536D01*
X191212441Y-84849337D01*
X191065128Y-85490334D01*
X190980984Y-85797363D01*
X190888882Y-86095590D01*
X190788096Y-86385146D01*
X190677900Y-86666164D01*
X190557568Y-86938777D01*
X190426376Y-87203118D01*
X190283598Y-87459318D01*
X190128507Y-87707512D01*
X189960380Y-87947831D01*
X189778489Y-88180407D01*
X189582110Y-88405375D01*
X189370517Y-88622865D01*
X189142985Y-88833012D01*
X188898787Y-89035946D01*
X188637199Y-89231802D01*
X188357495Y-89420711D01*
X188058949Y-89602807D01*
X187740836Y-89778221D01*
X187402430Y-89947087D01*
X187043007Y-90109537D01*
X186661839Y-90265703D01*
X186258202Y-90415719D01*
X186006738Y-90500558D01*
X185726034Y-90589133D01*
X185116535Y-90774169D01*
X184807556Y-90868968D01*
X184508968Y-90964179D01*
X184230678Y-91058973D01*
X183982595Y-91152517D01*
X183757744Y-91247015D01*
X183544972Y-91344051D01*
X183343978Y-91443456D01*
X183154459Y-91545064D01*
X182976113Y-91648707D01*
X182808639Y-91754218D01*
X182651733Y-91861431D01*
X182505095Y-91970177D01*
X182368422Y-92080290D01*
X182241412Y-92191603D01*
X182123763Y-92303947D01*
X182015173Y-92417157D01*
X181915340Y-92531065D01*
X181823962Y-92645504D01*
X181740737Y-92760306D01*
X181665362Y-92875304D01*
X181597536Y-92990332D01*
X181536957Y-93105221D01*
X181483322Y-93219805D01*
X181436330Y-93333917D01*
X181395678Y-93447389D01*
X181361065Y-93560055D01*
X181332188Y-93671746D01*
X181308746Y-93782297D01*
X181276956Y-93999305D01*
X181263279Y-94209742D01*
X181265298Y-94412271D01*
X181280597Y-94605554D01*
X181289078Y-94665042D01*
X181300695Y-94721146D01*
X181315319Y-94773876D01*
X181332823Y-94823245D01*
X181353079Y-94869263D01*
X181375960Y-94911943D01*
X181401338Y-94951296D01*
X181429085Y-94987334D01*
X181459073Y-95020068D01*
X181491175Y-95049510D01*
X181525262Y-95075671D01*
X181561207Y-95098563D01*
X181598883Y-95118198D01*
X181638161Y-95134587D01*
X181678915Y-95147742D01*
X181721015Y-95157674D01*
X181764334Y-95164395D01*
X181808745Y-95167917D01*
X181854120Y-95168251D01*
X181900331Y-95165409D01*
X181947250Y-95159402D01*
X181994750Y-95150242D01*
X182042703Y-95137940D01*
X182090980Y-95122509D01*
X182139455Y-95103959D01*
X182188000Y-95082303D01*
X182236487Y-95057552D01*
X182284787Y-95029717D01*
X182332774Y-94998811D01*
X182380319Y-94964844D01*
X182427296Y-94927828D01*
X182473575Y-94887775D01*
X182707899Y-94682854D01*
X182936858Y-94496841D01*
X183160321Y-94328928D01*
X183378156Y-94178302D01*
X183590231Y-94044154D01*
X183796414Y-93925672D01*
X183996573Y-93822046D01*
X184190576Y-93732464D01*
X184378292Y-93656117D01*
X184559587Y-93592193D01*
X184734331Y-93539882D01*
X184902391Y-93498373D01*
X185063636Y-93466855D01*
X185217933Y-93444517D01*
X185365150Y-93430549D01*
X185505155Y-93424140D01*
X185631762Y-93424166D01*
X185766161Y-93428894D01*
X186053881Y-93449152D01*
X186673829Y-93509749D01*
X186988235Y-93536874D01*
X187142648Y-93546752D01*
X187293716Y-93553073D01*
X187440325Y-93555011D01*
X187581362Y-93551739D01*
X187715711Y-93542433D01*
X187842261Y-93526266D01*
X188239276Y-93458027D01*
X188619048Y-93385510D01*
X188981829Y-93309189D01*
X189327870Y-93229542D01*
X189657423Y-93147044D01*
X189970740Y-93062170D01*
X190268072Y-92975397D01*
X190549670Y-92887201D01*
X190815786Y-92798058D01*
X191066670Y-92708443D01*
X191302576Y-92618832D01*
X191523754Y-92529701D01*
X191922931Y-92354785D01*
X192266214Y-92187500D01*
X192321491Y-92160681D01*
X192377211Y-92136686D01*
X192433215Y-92115512D01*
X192489341Y-92097157D01*
X192545430Y-92081616D01*
X192601320Y-92068887D01*
X192656851Y-92058966D01*
X192711863Y-92051851D01*
X192766195Y-92047537D01*
X192819686Y-92046022D01*
X192872176Y-92047303D01*
X192923505Y-92051376D01*
X192973511Y-92058239D01*
X193022035Y-92067887D01*
X193068915Y-92080318D01*
X193113991Y-92095529D01*
X193157103Y-92113516D01*
X193198090Y-92134275D01*
X193236792Y-92157805D01*
X193273047Y-92184102D01*
X193306696Y-92213162D01*
X193337578Y-92244982D01*
X193365532Y-92279559D01*
X193390398Y-92316891D01*
X193412015Y-92356972D01*
X193430222Y-92399802D01*
X193444860Y-92445375D01*
X193455767Y-92493690D01*
X193462784Y-92544742D01*
X193465748Y-92598529D01*
X193464501Y-92655047D01*
X193458881Y-92714294D01*
X193428544Y-92891375D01*
X193383979Y-93067099D01*
X193325720Y-93241272D01*
X193254297Y-93413703D01*
X193170244Y-93584199D01*
X193074092Y-93752567D01*
X192966372Y-93918616D01*
X192847618Y-94082153D01*
X192579132Y-94400921D01*
X192272891Y-94707333D01*
X191933151Y-94999851D01*
X191564168Y-95276935D01*
X191170198Y-95537048D01*
X190755498Y-95778651D01*
X190324323Y-96000205D01*
X189880931Y-96200172D01*
X189429576Y-96377012D01*
X188974516Y-96529188D01*
X188520007Y-96655161D01*
X188070304Y-96753391D01*
X187943726Y-96774584D01*
X187808041Y-96792826D01*
X187514742Y-96822785D01*
X186878169Y-96872890D01*
X186556460Y-96902341D01*
X186246846Y-96940929D01*
X186099944Y-96965103D01*
X185960108Y-96993306D01*
X185828688Y-97026120D01*
X185707030Y-97064126D01*
X185585267Y-97109270D01*
X185465683Y-97158406D01*
X185348282Y-97211351D01*
X185233069Y-97267918D01*
X185009223Y-97391183D01*
X184794174Y-97526718D01*
X184587956Y-97673045D01*
X184390600Y-97828684D01*
X184202137Y-97992153D01*
X184022601Y-98161974D01*
X183852022Y-98336665D01*
X183690433Y-98514747D01*
X183537865Y-98694739D01*
X183394350Y-98875161D01*
X183259921Y-99054533D01*
X183134608Y-99231375D01*
X183018445Y-99404207D01*
X182911462Y-99571548D01*
X182880640Y-99623585D01*
X182853656Y-99674617D01*
X182830446Y-99724568D01*
X182810948Y-99773360D01*
X182795098Y-99820918D01*
X182782833Y-99867165D01*
X182774090Y-99912023D01*
X182768806Y-99955417D01*
X182766917Y-99997269D01*
X182768360Y-100037502D01*
X182773072Y-100076041D01*
X182780990Y-100112807D01*
X182792050Y-100147725D01*
X182806190Y-100180718D01*
X182823345Y-100211709D01*
X182843454Y-100240621D01*
X182866453Y-100267378D01*
X182892278Y-100291902D01*
X182920866Y-100314117D01*
X182952154Y-100333947D01*
X182986079Y-100351315D01*
X183022578Y-100366143D01*
X183061587Y-100378356D01*
X183103043Y-100387876D01*
X183146884Y-100394626D01*
X183193045Y-100398531D01*
X183241464Y-100399513D01*
X183292077Y-100397496D01*
X183344821Y-100392402D01*
X183399634Y-100384156D01*
X183456451Y-100372679D01*
X183515209Y-100357897D01*
X183979087Y-100217925D01*
X184359929Y-100080037D01*
X184672635Y-99945147D01*
X184932103Y-99814173D01*
X185735571Y-99347746D01*
X185952331Y-99250086D01*
X186205246Y-99161837D01*
X186509215Y-99083915D01*
X186879137Y-99017235D01*
X187329910Y-98962714D01*
X187876433Y-98921267D01*
X188533605Y-98893811D01*
X189316324Y-98881260D01*
X190513211Y-98883705D01*
X190836320Y-98881125D01*
X191149588Y-98874532D01*
X191443318Y-98862558D01*
X191707810Y-98843834D01*
X192087032Y-98802315D01*
X192456250Y-98748440D01*
X192815533Y-98682819D01*
X193164950Y-98606061D01*
X193504571Y-98518775D01*
X193834463Y-98421572D01*
X194154697Y-98315059D01*
X194465341Y-98199847D01*
X194766464Y-98076545D01*
X195058135Y-97945762D01*
X195340423Y-97808107D01*
X195613396Y-97664190D01*
X195877124Y-97514619D01*
X196131676Y-97360006D01*
X196377120Y-97200958D01*
X196613525Y-97038085D01*
X197059497Y-96703301D01*
X197470142Y-96360530D01*
X197846011Y-96014644D01*
X198187656Y-95670520D01*
X198495629Y-95333032D01*
X198770481Y-95007054D01*
X199012763Y-94697460D01*
X199223027Y-94409126D01*
X199258689Y-94360223D01*
X199294350Y-94314730D01*
X199329943Y-94272653D01*
X199365405Y-94233999D01*
X199400670Y-94198776D01*
X199435674Y-94166989D01*
X199470352Y-94138645D01*
X199504639Y-94113751D01*
X199538471Y-94092314D01*
X199571783Y-94074339D01*
X199604510Y-94059835D01*
X199636587Y-94048806D01*
X199667950Y-94041260D01*
X199698534Y-94037204D01*
X199728275Y-94036644D01*
X199757107Y-94039587D01*
X199784965Y-94046039D01*
X199811786Y-94056008D01*
X199837504Y-94069499D01*
X199862055Y-94086519D01*
X199885374Y-94107075D01*
X199907396Y-94131173D01*
X199928056Y-94158821D01*
X199947291Y-94190025D01*
X199965034Y-94224790D01*
X199981222Y-94263125D01*
X199995789Y-94305036D01*
X200008671Y-94350529D01*
X200019803Y-94399610D01*
X200029121Y-94452287D01*
X200036560Y-94508567D01*
X200042054Y-94568455D01*
X200060902Y-95153719D01*
X200031750Y-95762491D01*
X199951162Y-96388633D01*
X199815702Y-97026006D01*
X199621931Y-97668471D01*
X199366415Y-98309889D01*
X199214427Y-98628288D01*
X199045714Y-98944123D01*
X198859847Y-99256626D01*
X198656394Y-99565032D01*
X198434928Y-99868572D01*
X198195018Y-100166479D01*
X197936234Y-100457986D01*
X197658147Y-100742325D01*
X197360328Y-101018729D01*
X197042347Y-101286431D01*
X196703773Y-101544663D01*
X196344179Y-101792658D01*
X195963133Y-102029649D01*
X195560207Y-102254868D01*
X195134971Y-102467549D01*
X194686995Y-102666923D01*
X194215849Y-102852223D01*
X193721105Y-103022683D01*
X193202332Y-103177534D01*
X192659101Y-103316010D01*
X192399911Y-103372631D01*
X192111262Y-103429260D01*
X191484453Y-103540586D01*
X190304833Y-103741809D01*
X189620924Y-103874078D01*
X188980846Y-104010883D01*
X188383163Y-104151531D01*
X187826439Y-104295328D01*
X187309240Y-104441581D01*
X186830129Y-104589598D01*
X186387672Y-104738685D01*
X185980433Y-104888150D01*
X185606977Y-105037299D01*
X185265868Y-105185438D01*
X184955671Y-105331876D01*
X184674951Y-105475919D01*
X184422271Y-105616873D01*
X184196197Y-105754047D01*
X183995294Y-105886746D01*
X183818125Y-106014277D01*
X183771406Y-106051278D01*
X183729208Y-106088488D01*
X183691461Y-106125822D01*
X183658095Y-106163193D01*
X183629040Y-106200513D01*
X183604225Y-106237696D01*
X183583580Y-106274654D01*
X183567034Y-106311302D01*
X183554517Y-106347551D01*
X183545959Y-106383315D01*
X183541289Y-106418508D01*
X183540436Y-106453041D01*
X183543331Y-106486828D01*
X183549903Y-106519783D01*
X183560081Y-106551819D01*
X183573796Y-106582847D01*
X183590976Y-106612782D01*
X183611552Y-106641537D01*
X183635452Y-106669024D01*
X183662607Y-106695158D01*
X183692947Y-106719850D01*
X183726400Y-106743013D01*
X183762896Y-106764562D01*
X183802365Y-106784409D01*
X183844737Y-106802467D01*
X183889941Y-106818649D01*
X183937907Y-106832869D01*
X183988564Y-106845039D01*
X184041842Y-106855072D01*
X184097671Y-106862882D01*
X184155979Y-106868381D01*
X184216698Y-106871483D01*
X184495481Y-106883384D01*
X184761054Y-106901535D01*
X185014114Y-106925562D01*
X185255356Y-106955094D01*
X185485476Y-106989759D01*
X185705169Y-107029185D01*
X185915131Y-107072999D01*
X186116057Y-107120829D01*
X186493585Y-107227049D01*
X186843317Y-107344866D01*
X187170818Y-107471304D01*
X187481653Y-107603384D01*
X188075583Y-107872561D01*
X188369807Y-108003703D01*
X188669623Y-108128577D01*
X188980597Y-108244204D01*
X189308292Y-108347608D01*
X189480149Y-108393796D01*
X189658273Y-108435811D01*
X189843360Y-108473281D01*
X190036106Y-108505835D01*
X190163232Y-108523011D01*
X190299089Y-108537341D01*
X190592017Y-108557827D01*
X190904937Y-108568028D01*
X191227897Y-108568679D01*
X191550942Y-108560517D01*
X191864121Y-108544275D01*
X192157480Y-108520691D01*
X192421065Y-108490499D01*
X192727658Y-108444375D01*
X193027971Y-108390392D01*
X193321625Y-108329278D01*
X193608243Y-108261760D01*
X193887445Y-108188566D01*
X194158853Y-108110423D01*
X194422089Y-108028060D01*
X194676773Y-107942203D01*
X194922528Y-107853581D01*
X195158974Y-107762921D01*
X195602428Y-107578397D01*
X196004106Y-107394453D01*
X196360979Y-107216910D01*
X196416318Y-107189896D01*
X196472246Y-107165718D01*
X196528629Y-107144375D01*
X196585335Y-107125862D01*
X196642229Y-107110176D01*
X196699179Y-107097316D01*
X196756052Y-107087278D01*
X196812713Y-107080059D01*
X196869031Y-107075656D01*
X196924871Y-107074067D01*
X196980101Y-107075288D01*
X197034587Y-107079316D01*
X197088196Y-107086149D01*
X197140794Y-107095784D01*
X197192249Y-107108217D01*
X197242426Y-107123446D01*
X197291194Y-107141468D01*
X197338418Y-107162280D01*
X197383965Y-107185879D01*
X197427703Y-107212262D01*
X197469497Y-107241426D01*
X197509215Y-107273368D01*
X197546723Y-107308086D01*
X197581888Y-107345577D01*
X197614576Y-107385837D01*
X197644656Y-107428863D01*
X197671992Y-107474654D01*
X197696452Y-107523205D01*
X197717903Y-107574514D01*
X197736211Y-107628578D01*
X197751244Y-107685394D01*
X197762867Y-107744959D01*
X197795900Y-108024045D01*
X197803823Y-108295703D01*
X197787307Y-108559724D01*
X197747023Y-108815897D01*
X197683645Y-109064013D01*
X197597843Y-109303863D01*
X197490289Y-109535237D01*
X197361656Y-109757925D01*
X197212615Y-109971719D01*
X197043838Y-110176407D01*
X196855997Y-110371780D01*
X196649764Y-110557630D01*
X196425810Y-110733746D01*
X196184808Y-110899918D01*
X195654344Y-111201595D01*
X195063749Y-111460983D01*
X194418395Y-111676406D01*
X193723659Y-111846186D01*
X192984915Y-111968647D01*
X192207537Y-112042111D01*
X191396901Y-112064903D01*
X190558380Y-112035344D01*
X189697351Y-111951759D01*
X189434732Y-111913915D01*
X189144477Y-111865588D01*
X188517831Y-111752148D01*
X187890958Y-111640767D01*
X187600421Y-111595013D01*
X187337408Y-111560771D01*
X187065119Y-111534078D01*
X186800165Y-111514943D01*
X186542466Y-111503086D01*
X186291941Y-111498228D01*
X186048510Y-111500086D01*
X185812092Y-111508383D01*
X185582607Y-111522836D01*
X185359975Y-111543167D01*
X185144114Y-111569094D01*
X184934945Y-111600338D01*
X184732387Y-111636619D01*
X184536360Y-111677655D01*
X184346783Y-111723168D01*
X184163577Y-111772877D01*
X183986659Y-111826501D01*
X183815950Y-111883760D01*
X183492838Y-112008065D01*
X183193597Y-112143549D01*
X182917582Y-112287970D01*
X182664152Y-112439087D01*
X182432661Y-112594659D01*
X182222467Y-112752443D01*
X182032926Y-112910198D01*
X181863395Y-113065682D01*
X181821106Y-113108317D01*
X181783152Y-113150644D01*
X181749467Y-113192610D01*
X181719981Y-113234163D01*
X181694626Y-113275249D01*
X181673332Y-113315818D01*
X181656031Y-113355815D01*
X181642655Y-113395189D01*
X181633134Y-113433887D01*
X181627401Y-113471856D01*
X181625385Y-113509045D01*
X181627019Y-113545400D01*
X181632235Y-113580868D01*
X181640962Y-113615398D01*
X181653133Y-113648937D01*
X181668678Y-113681433D01*
X181687530Y-113712832D01*
X181709619Y-113743082D01*
X181734877Y-113772131D01*
X181763235Y-113799927D01*
X181794624Y-113826416D01*
X181828975Y-113851546D01*
X181866221Y-113875265D01*
X181906292Y-113897520D01*
X181949119Y-113918259D01*
X181994634Y-113937428D01*
X182042769Y-113954977D01*
X182093453Y-113970851D01*
X182146620Y-113984998D01*
X182202199Y-113997367D01*
X182260123Y-114007904D01*
X182320322Y-114016557D01*
X182775985Y-114090233D01*
X183240666Y-114196893D01*
X183711288Y-114334421D01*
X184184773Y-114500700D01*
X184658043Y-114693614D01*
X185128019Y-114911048D01*
X185591625Y-115150885D01*
X186045781Y-115411009D01*
X186487411Y-115689305D01*
X186913436Y-115983655D01*
X187320778Y-116291944D01*
X187706359Y-116612056D01*
X188067102Y-116941875D01*
X188399927Y-117279284D01*
X188701759Y-117622167D01*
X188969518Y-117968409D01*
X189041659Y-118074267D01*
X189113939Y-118190255D01*
X189186472Y-118314804D01*
X189259374Y-118446344D01*
X189556953Y-119011038D01*
X189710932Y-119294539D01*
X189789619Y-119431087D01*
X189869591Y-119562074D01*
X189950963Y-119685931D01*
X190033849Y-119801090D01*
X190118364Y-119905980D01*
X190204622Y-119999034D01*
X190449301Y-120223908D01*
X190718599Y-120438864D01*
X191009348Y-120643924D01*
X191318380Y-120839108D01*
X191642528Y-121024436D01*
X191978625Y-121199929D01*
X192323502Y-121365606D01*
X192673992Y-121521489D01*
X193026926Y-121667597D01*
X193379139Y-121803952D01*
X194068725Y-122047480D01*
X194717409Y-122252237D01*
X195299849Y-122418385D01*
X195357926Y-122435201D01*
X195412599Y-122453143D01*
X195463854Y-122472158D01*
X195511678Y-122492195D01*
X195556057Y-122513200D01*
X195596977Y-122535122D01*
X195634425Y-122557908D01*
X195668387Y-122581505D01*
X195698849Y-122605860D01*
X195725798Y-122630922D01*
X195749221Y-122656638D01*
X195769103Y-122682955D01*
X195785430Y-122709821D01*
X195798190Y-122737184D01*
X195807368Y-122764990D01*
X195812951Y-122793188D01*
X195814926Y-122821725D01*
X195813278Y-122850548D01*
X195807994Y-122879606D01*
X195799060Y-122908845D01*
X195786463Y-122938213D01*
X195770189Y-122967657D01*
X195750224Y-122997126D01*
X195726555Y-123026567D01*
X195699167Y-123055926D01*
X195668049Y-123085152D01*
X195633185Y-123114193D01*
X195594562Y-123142995D01*
X195552166Y-123171507D01*
X195505985Y-123199675D01*
X195456003Y-123227447D01*
X195402208Y-123254772D01*
X194941874Y-123470556D01*
X194498908Y-123662174D01*
X194072645Y-123830412D01*
X193662420Y-123976056D01*
X193267569Y-124099891D01*
X192887426Y-124202703D01*
X192521327Y-124285278D01*
X192168606Y-124348403D01*
X191828600Y-124392861D01*
X191500642Y-124419440D01*
X191184069Y-124428925D01*
X190878214Y-124422102D01*
X190582414Y-124399756D01*
X190296003Y-124362674D01*
X190018317Y-124311640D01*
X189748690Y-124247442D01*
X189486458Y-124170864D01*
X189230955Y-124082693D01*
X188981518Y-123983714D01*
X188737480Y-123874713D01*
X188498178Y-123756475D01*
X188262946Y-123629787D01*
X187802033Y-123354203D01*
X187349422Y-123054245D01*
X186899793Y-122736201D01*
X185988209Y-122070997D01*
X185771663Y-121917412D01*
X185528916Y-121750767D01*
X185267761Y-121577014D01*
X184995988Y-121402104D01*
X184721390Y-121231989D01*
X184451757Y-121072619D01*
X184194881Y-120929946D01*
X183958554Y-120809922D01*
X183752493Y-120715074D01*
X183552444Y-120629940D01*
X183358396Y-120554110D01*
X183170338Y-120487175D01*
X182988261Y-120428726D01*
X182812152Y-120378353D01*
X182642002Y-120335647D01*
X182477800Y-120300199D01*
X182319534Y-120271599D01*
X182167194Y-120249438D01*
X182020769Y-120233306D01*
X181880249Y-120222795D01*
X181745623Y-120217495D01*
X181616880Y-120216997D01*
X181494010Y-120220891D01*
X181377001Y-120228769D01*
X181316334Y-120236322D01*
X181256478Y-120248440D01*
X181197550Y-120264926D01*
X181139667Y-120285586D01*
X181082946Y-120310226D01*
X181027503Y-120338650D01*
X180973455Y-120370664D01*
X180920919Y-120406073D01*
X180870013Y-120444683D01*
X180820853Y-120486298D01*
X180773555Y-120530725D01*
X180728238Y-120577768D01*
X180685017Y-120627232D01*
X180644009Y-120678923D01*
X180605332Y-120732646D01*
X180569102Y-120788207D01*
X180535437Y-120845410D01*
X180504452Y-120904061D01*
X180476266Y-120963966D01*
X180450994Y-121024929D01*
X180428754Y-121086755D01*
X180409663Y-121149251D01*
X180393837Y-121212221D01*
X180381394Y-121275470D01*
X180372449Y-121338805D01*
X180367121Y-121402029D01*
X180365526Y-121464949D01*
X180367781Y-121527370D01*
X180374003Y-121589096D01*
X180384308Y-121649934D01*
X180398814Y-121709688D01*
X180417638Y-121768164D01*
X180508542Y-121991083D01*
X180617483Y-122210365D01*
X180743997Y-122425658D01*
X180887622Y-122636608D01*
X181047894Y-122842861D01*
X181224351Y-123044065D01*
X181416531Y-123239867D01*
X181623969Y-123429913D01*
X181846205Y-123613850D01*
X182082773Y-123791324D01*
X182333213Y-123961983D01*
X182597061Y-124125473D01*
X182873854Y-124281441D01*
X183163129Y-124429533D01*
X183464424Y-124569397D01*
X183777275Y-124700680D01*
X184026314Y-124792845D01*
X184305980Y-124886630D01*
X184913378Y-125082691D01*
X185219205Y-125186784D01*
X185511846Y-125296129D01*
X185649798Y-125353055D01*
X185780346Y-125411634D01*
X185902122Y-125471981D01*
X186013755Y-125534208D01*
X186181473Y-125639940D01*
X186339374Y-125750975D01*
X186487751Y-125866738D01*
X186626900Y-125986655D01*
X186757114Y-126110150D01*
X186878688Y-126236650D01*
X186991915Y-126365579D01*
X187097091Y-126496363D01*
X187194509Y-126628427D01*
X187284464Y-126761197D01*
X187367250Y-126894098D01*
X187443161Y-127026555D01*
X187512492Y-127157994D01*
X187575537Y-127287840D01*
X187632589Y-127415518D01*
X187683944Y-127540455D01*
X187704541Y-127597173D01*
X187721128Y-127652383D01*
X187733803Y-127706027D01*
X187742662Y-127758048D01*
X187747801Y-127808389D01*
X187749319Y-127856992D01*
X187747312Y-127903800D01*
X187741876Y-127948756D01*
X187733108Y-127991802D01*
X187721106Y-128032882D01*
X187705967Y-128071937D01*
X187687786Y-128108911D01*
X187666662Y-128143747D01*
X187642690Y-128176386D01*
X187615968Y-128206772D01*
X187586593Y-128234847D01*
X187554662Y-128260555D01*
X187520270Y-128283837D01*
X187483516Y-128304638D01*
X187444497Y-128322898D01*
X187403308Y-128338561D01*
X187360047Y-128351570D01*
X187314811Y-128361867D01*
X187267696Y-128369395D01*
X187218801Y-128374097D01*
X187168220Y-128375915D01*
X187116052Y-128374793D01*
X187062393Y-128370672D01*
X187007340Y-128363496D01*
X186950989Y-128353208D01*
X186893439Y-128339749D01*
X186834785Y-128323063D01*
X186262281Y-128151109D01*
X185612671Y-127968902D01*
X184905116Y-127786960D01*
X184158777Y-127615801D01*
X183392814Y-127465944D01*
X183008462Y-127402291D01*
X182626389Y-127347907D01*
X182248991Y-127304108D01*
X181878663Y-127272208D01*
X181517799Y-127253523D01*
X181168796Y-127249367D01*
X181040924Y-127253805D01*
X180905183Y-127264090D01*
X180762705Y-127279518D01*
X180614619Y-127299382D01*
X180306154Y-127349597D01*
X179988835Y-127409087D01*
X179363836Y-127533309D01*
X179074255Y-127586748D01*
X178812018Y-127626876D01*
X178665978Y-127644374D01*
X178522442Y-127659053D01*
X178243177Y-127680470D01*
X177974818Y-127692152D01*
X177717959Y-127695125D01*
X177473195Y-127690414D01*
X177241121Y-127679044D01*
X177022332Y-127662040D01*
X176817423Y-127640427D01*
X176756976Y-127634328D01*
X176698494Y-127630645D01*
X176642046Y-127629339D01*
X176587697Y-127630373D01*
X176535514Y-127633709D01*
X176485565Y-127639310D01*
X176437916Y-127647138D01*
X176392634Y-127657155D01*
X176349786Y-127669324D01*
X176309440Y-127683607D01*
X176271661Y-127699966D01*
X176236518Y-127718365D01*
X176204076Y-127738764D01*
X176174403Y-127761127D01*
X176147565Y-127785416D01*
X176123631Y-127811593D01*
X176102665Y-127839621D01*
X176084736Y-127869462D01*
X176069911Y-127901078D01*
X176058255Y-127934432D01*
X176049837Y-127969486D01*
X176044723Y-128006202D01*
X176042980Y-128044543D01*
X176044675Y-128084472D01*
X176049875Y-128125949D01*
X176058646Y-128168939D01*
X176071056Y-128213403D01*
X176087172Y-128259303D01*
X176107060Y-128306603D01*
X176130788Y-128355264D01*
X176158422Y-128405248D01*
X176190029Y-128456519D01*
X176327437Y-128658993D01*
X176470248Y-128851339D01*
X176617743Y-129033783D01*
X176769205Y-129206552D01*
X176923914Y-129369872D01*
X177081152Y-129523968D01*
X177240201Y-129669068D01*
X177400343Y-129805397D01*
X177560858Y-129933181D01*
X177721028Y-130052647D01*
X177880135Y-130164021D01*
X178037461Y-130267529D01*
X178192287Y-130363398D01*
X178343894Y-130451853D01*
X178491564Y-130533121D01*
X178634578Y-130607427D01*
X178750271Y-130661861D01*
X178875662Y-130713706D01*
X179009473Y-130762996D01*
X179150429Y-130809763D01*
X179297252Y-130854039D01*
X179448665Y-130895856D01*
X179760155Y-130972247D01*
X180074684Y-131039194D01*
X180382038Y-131096957D01*
X180672002Y-131145796D01*
X180934361Y-131185971D01*
X181555618Y-131286386D01*
X182151142Y-131401161D01*
X182721472Y-131529509D01*
X183267146Y-131670642D01*
X183788702Y-131823774D01*
X184286680Y-131988117D01*
X184761618Y-132162884D01*
X185214054Y-132347289D01*
X185644528Y-132540542D01*
X186053576Y-132741859D01*
X186441739Y-132950450D01*
X186809554Y-133165529D01*
X187157560Y-133386310D01*
X187486296Y-133612003D01*
X187796299Y-133841823D01*
X188088109Y-134074983D01*
X188362265Y-134310694D01*
X188619304Y-134548170D01*
X188859765Y-134786623D01*
X189084187Y-135025267D01*
X189487067Y-135499977D01*
X189832252Y-135966001D01*
X190124050Y-136417043D01*
X190366770Y-136846803D01*
X190564719Y-137248986D01*
X190722207Y-137617292D01*
X190743299Y-137673636D01*
X190760978Y-137727705D01*
X190775310Y-137779470D01*
X190786362Y-137828903D01*
X190794199Y-137875974D01*
X190798888Y-137920656D01*
X190800494Y-137962918D01*
X190799084Y-138002734D01*
X190794725Y-138040073D01*
X190787482Y-138074908D01*
X190777421Y-138107209D01*
X190764608Y-138136948D01*
X190749111Y-138164096D01*
X190730994Y-138188624D01*
X190710324Y-138210504D01*
X190687167Y-138229707D01*
X190661590Y-138246203D01*
X190633658Y-138259966D01*
X190603438Y-138270965D01*
X190570995Y-138279172D01*
X190536397Y-138284558D01*
X190499708Y-138287095D01*
X190460996Y-138286753D01*
X190420326Y-138283505D01*
X190377765Y-138277321D01*
X190333378Y-138268173D01*
X190287233Y-138256031D01*
X190239394Y-138240868D01*
X190189929Y-138222655D01*
X190138902Y-138201362D01*
X190086382Y-138176961D01*
X190032433Y-138149424D01*
X189270407Y-137770705D01*
X188321642Y-137367076D01*
X187781587Y-137167571D01*
X187200075Y-136975820D01*
X186578848Y-136796483D01*
X185919647Y-136634220D01*
X185224216Y-136493692D01*
X184494296Y-136379560D01*
X183731630Y-136296485D01*
X182937961Y-136249125D01*
X182115031Y-136242142D01*
X181264581Y-136280197D01*
X180388355Y-136367950D01*
X179488096Y-136510061D01*
X179228023Y-136562787D01*
X178940815Y-136626968D01*
X178320993Y-136773302D01*
X177700622Y-136916286D01*
X177412728Y-136976279D01*
X177151695Y-137023143D01*
X176723594Y-137082465D01*
X176307054Y-137122867D01*
X175901993Y-137145168D01*
X175508325Y-137150187D01*
X175125967Y-137138744D01*
X174754835Y-137111658D01*
X174394843Y-137069750D01*
X174045909Y-137013838D01*
X173707947Y-136944742D01*
X173380874Y-136863283D01*
X173064605Y-136770278D01*
X172759057Y-136666549D01*
X172464145Y-136552914D01*
X172179784Y-136430193D01*
X171905892Y-136299206D01*
X171642383Y-136160772D01*
X171389173Y-136015711D01*
X171146178Y-135864842D01*
X170913314Y-135708986D01*
X170690497Y-135548961D01*
X170274666Y-135219684D01*
X169898012Y-134883568D01*
X169559861Y-134547171D01*
X169259539Y-134217047D01*
X168996374Y-133899755D01*
X168769691Y-133601851D01*
X168733558Y-133553579D01*
X168698119Y-133508751D01*
X168663399Y-133467370D01*
X168629426Y-133429440D01*
X168596224Y-133394964D01*
X168563821Y-133363947D01*
X168532243Y-133336390D01*
X168501514Y-133312299D01*
X168471663Y-133291677D01*
X168442714Y-133274527D01*
X168414695Y-133260853D01*
X168387630Y-133250658D01*
X168361546Y-133243946D01*
X168336470Y-133240721D01*
X168312427Y-133240986D01*
X168289444Y-133244745D01*
X168267547Y-133252001D01*
X168246761Y-133262759D01*
X168227113Y-133277020D01*
X168208630Y-133294790D01*
X168191336Y-133316072D01*
X168175259Y-133340868D01*
X168160425Y-133369184D01*
X168146859Y-133401022D01*
X168134588Y-133436386D01*
X168123638Y-133475280D01*
X168114034Y-133517707D01*
X168105804Y-133563670D01*
X168098974Y-133613174D01*
X168093568Y-133666222D01*
X168089615Y-133722817D01*
X168087138Y-133782964D01*
X168076855Y-134294754D01*
X168075733Y-134763857D01*
X168083664Y-135192808D01*
X168100537Y-135584145D01*
X168126243Y-135940405D01*
X168160670Y-136264123D01*
X168203711Y-136557838D01*
X168255253Y-136824086D01*
X168315188Y-137065403D01*
X168383406Y-137284326D01*
X168459796Y-137483393D01*
X168544248Y-137665140D01*
X168636654Y-137832104D01*
X168736901Y-137986821D01*
X168844882Y-138131829D01*
X168960484Y-138269665D01*
X169214118Y-138533964D01*
X169496923Y-138800015D01*
X169808018Y-139088110D01*
X170146525Y-139418546D01*
X170511564Y-139811615D01*
X170703757Y-140037980D01*
X170902254Y-140287614D01*
X171106943Y-140563053D01*
X171317716Y-140866835D01*
X171534461Y-141201496D01*
X171757069Y-141569574D01*
X171888294Y-141800307D01*
X172028639Y-142059082D01*
X172173301Y-142337365D01*
X172317477Y-142626623D01*
X172456367Y-142918323D01*
X172585166Y-143203932D01*
X172699074Y-143474917D01*
X172793287Y-143722745D01*
X172901853Y-144049359D01*
X172993772Y-144368693D01*
X173069680Y-144680753D01*
X173130214Y-144985546D01*
X173176010Y-145283080D01*
X173207705Y-145573362D01*
X173225934Y-145856400D01*
X173231333Y-146132200D01*
X173224541Y-146400771D01*
X173206191Y-146662119D01*
X173176921Y-146916251D01*
X173137368Y-147163175D01*
X173088167Y-147402899D01*
X173029954Y-147635429D01*
X172963367Y-147860773D01*
X172889041Y-148078938D01*
X172807612Y-148289931D01*
X172719717Y-148493760D01*
X172625992Y-148690432D01*
X172527074Y-148879955D01*
X172423599Y-149062335D01*
X172316203Y-149237580D01*
X172092192Y-149566693D01*
X171860134Y-149867355D01*
X171625117Y-150139621D01*
X171392234Y-150383552D01*
X171166573Y-150599205D01*
X171121542Y-150638980D01*
X171077757Y-150674851D01*
X171035254Y-150706865D01*
X170994068Y-150735069D01*
X170954236Y-150759509D01*
X170915792Y-150780232D01*
X170878773Y-150797284D01*
X170843213Y-150810712D01*
X170809149Y-150820563D01*
X170776616Y-150826882D01*
X170745650Y-150829716D01*
X170716286Y-150829112D01*
X170688560Y-150825117D01*
X170662508Y-150817776D01*
X170638164Y-150807137D01*
X170615565Y-150793245D01*
X170594747Y-150776148D01*
X170575745Y-150755892D01*
X170558594Y-150732523D01*
X170543330Y-150706089D01*
X170529989Y-150676635D01*
X170518607Y-150644207D01*
X170509218Y-150608853D01*
X170501860Y-150570620D01*
X170496566Y-150529552D01*
X170493373Y-150485698D01*
X170492316Y-150439104D01*
X170493432Y-150389815D01*
X170496755Y-150337879D01*
X170502321Y-150283342D01*
X170510166Y-150226251D01*
X170520326Y-150166652D01*
X170577380Y-149820865D01*
X170622587Y-149444946D01*
X170650803Y-149044077D01*
X170656881Y-148623446D01*
X170635677Y-148188235D01*
X170582043Y-147743631D01*
X170541458Y-147519427D01*
X170490836Y-147294819D01*
X170429533Y-147070454D01*
X170356908Y-146846982D01*
X170272316Y-146625051D01*
X170175115Y-146405308D01*
X170064660Y-146188401D01*
X169940310Y-145974979D01*
X169801420Y-145765690D01*
X169647348Y-145561182D01*
X169477451Y-145362103D01*
X169291084Y-145169101D01*
X169087606Y-144982825D01*
X168866372Y-144803922D01*
X168626740Y-144633041D01*
X168368066Y-144470829D01*
X168089707Y-144317935D01*
X167791020Y-144175007D01*
X167471362Y-144042693D01*
X167130089Y-143921642D01*
X166876022Y-143846161D01*
X166591274Y-143773221D01*
X166285998Y-143702204D01*
X165970345Y-143632495D01*
X165348518Y-143494531D01*
X165062649Y-143425043D01*
X164807012Y-143354398D01*
X164439859Y-143235851D01*
X164087510Y-143106340D01*
X163749665Y-142966492D01*
X163426023Y-142816933D01*
X163116281Y-142658290D01*
X162820138Y-142491191D01*
X162537294Y-142316262D01*
X162267447Y-142134130D01*
X162010296Y-141945423D01*
X161765538Y-141750766D01*
X161532874Y-141550788D01*
X161312001Y-141346115D01*
X161102619Y-141137373D01*
X160904426Y-140925191D01*
X160540400Y-140493011D01*
X160217515Y-140054589D01*
X159933359Y-139614942D01*
X159685521Y-139179086D01*
X159471592Y-138752034D01*
X159289160Y-138338805D01*
X159135815Y-137944411D01*
X159009147Y-137573871D01*
X158906744Y-137232198D01*
X158889649Y-137174272D01*
X158871735Y-137119704D01*
X158853042Y-137068515D01*
X158833608Y-137020722D01*
X158813473Y-136976346D01*
X158792676Y-136935405D01*
X158771256Y-136897918D01*
X158749253Y-136863905D01*
X158726704Y-136833384D01*
X158703650Y-136806375D01*
X158680129Y-136782897D01*
X158656180Y-136762968D01*
X158631844Y-136746608D01*
X158607158Y-136733836D01*
X158582162Y-136724672D01*
X158556895Y-136719133D01*
X158531396Y-136717240D01*
X158505704Y-136719011D01*
X158479859Y-136724466D01*
X158453899Y-136733623D01*
X158427864Y-136746502D01*
X158401792Y-136763121D01*
X158375724Y-136783501D01*
X158349697Y-136807659D01*
X158323751Y-136835616D01*
X158297925Y-136867389D01*
X158272259Y-136902999D01*
X158246791Y-136942464D01*
X158221560Y-136985804D01*
X158196606Y-137033037D01*
X158171968Y-137084183D01*
X158147684Y-137139260D01*
X158031218Y-137427370D01*
X157929861Y-137703793D01*
X157842932Y-137969302D01*
X157769750Y-138224671D01*
X157709633Y-138470672D01*
X157661900Y-138708081D01*
X157625869Y-138937669D01*
X157600858Y-139160211D01*
X157586186Y-139376480D01*
X157581171Y-139587249D01*
X157585131Y-139793293D01*
X157597386Y-139995383D01*
X157644050Y-140390800D01*
X157715712Y-140779689D01*
X157806917Y-141168235D01*
X157912214Y-141562629D01*
X158143269Y-142393705D01*
X158258123Y-142842763D01*
X158365256Y-143322419D01*
X158459217Y-143838860D01*
X158534553Y-144398273D01*
X158559452Y-144662882D01*
X158578653Y-144957419D01*
X158590263Y-145271592D01*
X158592389Y-145595107D01*
X158583139Y-145917670D01*
X158573657Y-146075379D01*
X158560621Y-146228990D01*
X158543794Y-146377217D01*
X158522941Y-146518773D01*
X158497825Y-146652372D01*
X158468209Y-146776727D01*
X158407947Y-146978504D01*
X158337975Y-147171327D01*
X158258770Y-147355398D01*
X158170812Y-147530920D01*
X158074581Y-147698097D01*
X157970555Y-147857129D01*
X157859214Y-148008222D01*
X157741036Y-148151576D01*
X157616501Y-148287395D01*
X157486088Y-148415881D01*
X157350275Y-148537238D01*
X157209543Y-148651667D01*
X157064370Y-148759372D01*
X156915235Y-148860555D01*
X156606997Y-149044167D01*
X156288662Y-149204124D01*
X155964062Y-149342049D01*
X155637030Y-149459563D01*
X155311400Y-149558287D01*
X154991005Y-149639843D01*
X154679677Y-149705854D01*
X154381249Y-149757940D01*
X154099554Y-149797723D01*
X154038806Y-149803629D01*
X153979420Y-149805980D01*
X153921442Y-149804869D01*
X153864914Y-149800388D01*
X153809882Y-149792629D01*
X153756388Y-149781685D01*
X153704477Y-149767647D01*
X153654192Y-149750607D01*
X153605578Y-149730658D01*
X153558679Y-149707892D01*
X153513538Y-149682400D01*
X153470199Y-149654275D01*
X153428706Y-149623609D01*
X153389104Y-149590493D01*
X153351436Y-149555021D01*
X153315745Y-149517284D01*
X153282077Y-149477374D01*
X153250474Y-149435383D01*
X153220981Y-149391404D01*
X153193642Y-149345528D01*
X153168501Y-149297848D01*
X153145601Y-149248455D01*
X153124986Y-149197442D01*
X153106701Y-149144901D01*
X153090789Y-149090923D01*
X153077294Y-149035602D01*
X153066261Y-148979028D01*
X153057732Y-148921295D01*
X153051752Y-148862494D01*
X153048366Y-148802717D01*
X153047616Y-148742056D01*
X153049547Y-148680604D01*
X153059790Y-148391939D01*
X153059716Y-148111670D01*
X153049828Y-147839505D01*
X153030631Y-147575153D01*
X153002628Y-147318322D01*
X152966321Y-147068721D01*
X152922216Y-146826058D01*
X152870816Y-146590041D01*
X152812623Y-146360378D01*
X152748142Y-146136779D01*
X152602330Y-145706602D01*
X152437407Y-145297177D01*
X152257403Y-144906172D01*
X152066346Y-144531252D01*
X151868265Y-144170084D01*
X151467145Y-143479676D01*
X151086273Y-142816280D01*
X150913501Y-142488880D01*
X150757878Y-142161233D01*
X150709249Y-142042988D01*
X150663319Y-141914966D01*
X150619803Y-141778523D01*
X150578416Y-141635014D01*
X150500898Y-141332220D01*
X150428490Y-141017428D01*
X150289919Y-140395221D01*
X150219210Y-140109494D01*
X150182506Y-139977718D01*
X150144523Y-139855141D01*
X150110189Y-139754145D01*
X150074858Y-139656392D01*
X150038601Y-139561835D01*
X150001491Y-139470425D01*
X149963599Y-139382113D01*
X149924999Y-139296850D01*
X149885763Y-139214587D01*
X149845964Y-139135276D01*
X149805672Y-139058869D01*
X149764962Y-138985316D01*
X149723906Y-138914569D01*
X149682575Y-138846579D01*
X149641043Y-138781297D01*
X149599382Y-138718675D01*
X149557664Y-138658663D01*
X149515961Y-138601215D01*
X149479300Y-138554320D01*
X149442421Y-138512071D01*
X149405421Y-138474389D01*
X149368397Y-138441196D01*
X149331446Y-138412414D01*
X149294665Y-138387964D01*
X149258152Y-138367769D01*
X149222002Y-138351750D01*
X149186314Y-138339828D01*
X149151185Y-138331927D01*
X149116710Y-138327966D01*
X149082989Y-138327869D01*
X149050116Y-138331557D01*
X149018190Y-138338952D01*
X148987308Y-138349975D01*
X148957566Y-138364549D01*
X148929062Y-138382595D01*
X148901892Y-138404034D01*
X148876154Y-138428789D01*
X148851945Y-138456782D01*
X148829361Y-138487934D01*
X148808500Y-138522167D01*
X148789459Y-138559403D01*
X148772335Y-138599563D01*
X148757225Y-138642569D01*
X148744226Y-138688344D01*
X148733435Y-138736809D01*
X148724948Y-138787885D01*
X148718864Y-138841494D01*
X148715279Y-138897559D01*
X148714290Y-138956001D01*
X148715994Y-139016741D01*
X148733701Y-139487739D01*
X148739278Y-139940204D01*
X148733230Y-140374506D01*
X148716067Y-140791016D01*
X148688294Y-141190104D01*
X148650421Y-141572142D01*
X148602954Y-141937499D01*
X148546401Y-142286545D01*
X148481268Y-142619652D01*
X148408065Y-142937190D01*
X148327298Y-143239530D01*
X148239474Y-143527041D01*
X148145101Y-143800094D01*
X148044686Y-144059060D01*
X147938738Y-144304309D01*
X147827763Y-144536212D01*
X147712268Y-144755139D01*
X147592762Y-144961461D01*
X147469752Y-145155548D01*
X147343745Y-145337771D01*
X147215249Y-145508499D01*
X147084770Y-145668105D01*
X146952818Y-145816957D01*
X146819898Y-145955427D01*
X146686519Y-146083885D01*
X146553187Y-146202701D01*
X146288698Y-146412891D01*
X146030490Y-146588961D01*
X145782623Y-146733874D01*
X145728885Y-146760966D01*
X145676183Y-146783731D01*
X145624569Y-146802266D01*
X145574090Y-146816671D01*
X145524799Y-146827045D01*
X145476744Y-146833485D01*
X145429977Y-146836092D01*
X145384546Y-146834963D01*
X145340503Y-146830197D01*
X145297897Y-146821894D01*
X145256778Y-146810152D01*
X145217196Y-146795069D01*
X145179203Y-146776745D01*
X145142847Y-146755279D01*
X145108178Y-146730768D01*
X145075248Y-146703313D01*
X145044105Y-146673011D01*
X145014801Y-146639961D01*
X144987384Y-146604263D01*
X144961906Y-146566015D01*
X144938417Y-146525315D01*
X144916965Y-146482263D01*
X144897603Y-146436957D01*
X144880378Y-146389496D01*
X144865343Y-146339979D01*
X144852547Y-146288505D01*
X144842039Y-146235172D01*
X144833871Y-146180080D01*
X144828091Y-146123326D01*
X144824751Y-146065010D01*
X144823901Y-146005230D01*
X144825589Y-145944086D01*
X144832625Y-145592817D01*
X144820587Y-145252909D01*
X144791340Y-144923705D01*
X144746751Y-144604548D01*
X144688685Y-144294780D01*
X144619009Y-143993746D01*
X144539586Y-143700789D01*
X144452284Y-143415251D01*
X143694079Y-141319243D01*
X143658087Y-141196278D01*
X143625025Y-141063867D01*
X143595079Y-140923344D01*
X143568435Y-140776042D01*
X143545279Y-140623294D01*
X143525797Y-140466433D01*
X143510176Y-140306794D01*
X143498601Y-140145709D01*
X143491258Y-139984511D01*
X143488335Y-139824534D01*
X143490016Y-139667111D01*
X143496489Y-139513576D01*
X143507939Y-139365261D01*
X143524552Y-139223501D01*
X143546515Y-139089628D01*
X143574013Y-138964976D01*
X143607217Y-138841061D01*
X143643488Y-138718561D01*
X143682595Y-138597595D01*
X143724306Y-138478284D01*
X143768389Y-138360747D01*
X143814612Y-138245106D01*
X143862744Y-138131479D01*
X143912551Y-138019987D01*
X144016269Y-137803890D01*
X144123911Y-137597774D01*
X144233622Y-137402601D01*
X144343547Y-137219332D01*
X144374424Y-137166875D01*
X144402003Y-137114880D01*
X144426325Y-137063485D01*
X144447432Y-137012827D01*
X144465366Y-136963046D01*
X144480168Y-136914279D01*
X144491881Y-136866665D01*
X144500546Y-136820342D01*
X144506204Y-136775448D01*
X144508898Y-136732121D01*
X144508668Y-136690500D01*
X144505557Y-136650723D01*
X144499607Y-136612927D01*
X144490859Y-136577252D01*
X144479354Y-136543836D01*
X144465135Y-136512816D01*
X144448243Y-136484331D01*
X144428720Y-136458520D01*
X144406608Y-136435519D01*
X144381948Y-136415469D01*
X144354782Y-136398506D01*
X144325151Y-136384770D01*
X144293098Y-136374398D01*
X144258664Y-136367528D01*
X144221890Y-136364300D01*
X144182820Y-136364850D01*
X144141493Y-136369318D01*
X144097952Y-136377842D01*
X144052238Y-136390559D01*
X144004394Y-136407608D01*
X143954461Y-136429127D01*
X143902480Y-136455255D01*
X143805250Y-136509559D01*
X143708749Y-136567357D01*
X143613238Y-136628179D01*
X143518980Y-136691555D01*
X143426234Y-136757016D01*
X143335262Y-136824092D01*
X143246325Y-136892313D01*
X143159685Y-136961208D01*
X143062739Y-137044451D01*
X142964725Y-137137726D01*
X142866140Y-137239883D01*
X142767478Y-137349772D01*
X142669237Y-137466245D01*
X142571911Y-137588150D01*
X142475997Y-137714338D01*
X142381992Y-137843659D01*
X142201688Y-138107103D01*
X142034967Y-138369281D01*
X141885797Y-138620997D01*
X141758145Y-138853050D01*
X141517574Y-139297576D01*
X141274389Y-139724409D01*
X141028946Y-140133906D01*
X140781599Y-140526421D01*
X140532703Y-140902313D01*
X140282614Y-141261936D01*
X140031685Y-141605646D01*
X139780273Y-141933801D01*
X139277417Y-142544867D01*
X138776886Y-143097982D01*
X138281518Y-143595994D01*
X137794155Y-144041754D01*
X137317636Y-144438110D01*
X136854800Y-144787911D01*
X136408488Y-145094006D01*
X135981539Y-145359244D01*
X135576794Y-145586475D01*
X135197091Y-145778546D01*
X134845272Y-145938307D01*
X134524175Y-146068608D01*
X134467557Y-146088990D01*
X134413259Y-146106017D01*
X134361315Y-146119759D01*
X134311760Y-146130285D01*
X134264629Y-146137662D01*
X134219958Y-146141961D01*
X134177783Y-146143249D01*
X134138138Y-146141597D01*
X134101058Y-146137072D01*
X134066580Y-146129744D01*
X134034738Y-146119682D01*
X134005567Y-146106955D01*
X133979104Y-146091631D01*
X133955383Y-146073779D01*
X133934439Y-146053469D01*
X133916308Y-146030769D01*
X133901025Y-146005749D01*
X133888625Y-145978476D01*
X133879144Y-145949021D01*
X133872617Y-145917451D01*
X133869079Y-145883836D01*
X133868566Y-145848246D01*
X133871113Y-145810747D01*
X133876754Y-145771411D01*
X133885526Y-145730305D01*
X133897464Y-145687499D01*
X133912603Y-145643060D01*
X133930978Y-145597060D01*
X133952624Y-145549565D01*
X133977578Y-145500645D01*
X134005873Y-145450370D01*
X134037547Y-145398807D01*
X134431359Y-144769665D01*
X134870947Y-144033120D01*
X135331366Y-143214542D01*
X135787672Y-142339303D01*
X136006487Y-141888364D01*
X136214920Y-141432773D01*
X136409852Y-140975703D01*
X136588165Y-140520324D01*
X136746741Y-140069809D01*
X136882462Y-139627327D01*
X136992210Y-139196051D01*
X137072867Y-138779152D01*
X137089209Y-138652508D01*
X137099879Y-138517132D01*
X137105562Y-138374257D01*
X137106943Y-138225114D01*
X137099539Y-137912957D01*
X137083145Y-137590518D01*
X137045296Y-136954227D01*
X137034797Y-136660091D01*
X137034051Y-136523339D01*
X137037221Y-136395106D01*
X137052913Y-136142807D01*
X137077530Y-135893598D01*
X137110369Y-135647915D01*
X137150726Y-135406197D01*
X137197901Y-135168881D01*
X137251191Y-134936407D01*
X137309894Y-134709212D01*
X137373308Y-134487734D01*
X137440729Y-134272411D01*
X137511457Y-134063682D01*
X137584789Y-133861984D01*
X137660022Y-133667756D01*
X137813385Y-133303461D01*
X137965928Y-132974302D01*
X137991339Y-132919098D01*
X138013651Y-132864982D01*
X138032889Y-132812036D01*
X138049082Y-132760341D01*
X138062256Y-132709979D01*
X138072439Y-132661030D01*
X138079659Y-132613577D01*
X138083942Y-132567700D01*
X138085317Y-132523481D01*
X138083811Y-132481002D01*
X138079451Y-132440344D01*
X138072264Y-132401588D01*
X138062278Y-132364816D01*
X138049521Y-132330109D01*
X138034020Y-132297548D01*
X138015802Y-132267215D01*
X137994894Y-132239192D01*
X137971325Y-132213559D01*
X137945121Y-132190398D01*
X137916309Y-132169791D01*
X137884919Y-132151819D01*
X137850976Y-132136563D01*
X137814507Y-132124105D01*
X137775542Y-132114526D01*
X137734107Y-132107907D01*
X137690228Y-132104331D01*
X137643935Y-132103878D01*
X137595254Y-132106629D01*
X137544212Y-132112667D01*
X137490838Y-132122072D01*
X137435158Y-132134926D01*
X137377200Y-132151310D01*
X137092363Y-132248013D01*
X136816265Y-132359598D01*
X136548147Y-132485396D01*
X136287253Y-132624739D01*
X136032828Y-132776960D01*
X135784113Y-132941389D01*
X135300790Y-133304202D01*
X134831230Y-133707833D01*
X134369379Y-134146937D01*
X133909185Y-134616168D01*
X133444593Y-135110181D01*
X132478002Y-136151173D01*
X131963896Y-136687462D01*
X131421177Y-137227151D01*
X130843793Y-137764897D01*
X130225690Y-138295353D01*
X129560813Y-138813175D01*
X128843110Y-139313017D01*
X128619122Y-139455364D01*
X128367157Y-139607440D01*
X128095614Y-139764234D01*
X127812896Y-139920734D01*
X127527405Y-140071927D01*
X127247542Y-140212800D01*
X126981708Y-140338343D01*
X126738306Y-140443542D01*
X126424081Y-140565276D01*
X126112154Y-140674132D01*
X125802732Y-140770570D01*
X125496021Y-140855045D01*
X125192226Y-140928016D01*
X124891554Y-140989942D01*
X124594210Y-141041278D01*
X124300399Y-141082483D01*
X123724203Y-141136332D01*
X123164612Y-141155149D01*
X122623273Y-141142596D01*
X122101832Y-141102333D01*
X121601936Y-141038024D01*
X121125231Y-140953329D01*
X120673364Y-140851909D01*
X120247982Y-140737426D01*
X119850731Y-140613543D01*
X119483257Y-140483919D01*
X119147207Y-140352217D01*
X118844227Y-140222098D01*
X118789614Y-140196118D01*
X118738732Y-140168854D01*
X118691569Y-140140391D01*
X118648110Y-140110814D01*
X118608342Y-140080207D01*
X118572251Y-140048656D01*
X118539823Y-140016245D01*
X118511045Y-139983060D01*
X118485904Y-139949184D01*
X118464384Y-139914703D01*
X118446474Y-139879702D01*
X118432158Y-139844265D01*
X118421425Y-139808477D01*
X118414259Y-139772424D01*
X118410647Y-139736189D01*
X118410575Y-139699858D01*
X118414031Y-139663516D01*
X118421000Y-139627246D01*
X118431468Y-139591136D01*
X118445422Y-139555268D01*
X118462849Y-139519728D01*
X118483734Y-139484600D01*
X118508064Y-139449970D01*
X118535825Y-139415923D01*
X118567004Y-139382542D01*
X118601586Y-139349914D01*
X118639560Y-139318122D01*
X118680909Y-139287252D01*
X118725622Y-139257389D01*
X118773684Y-139228616D01*
X118825081Y-139201020D01*
X118879801Y-139174684D01*
X120722447Y-138312696D01*
X121818560Y-137776528D01*
X122958642Y-137195731D01*
X124088271Y-136589424D01*
X125153028Y-135976722D01*
X125644073Y-135673946D01*
X126098493Y-135376741D01*
X126509485Y-135087495D01*
X126870247Y-134808598D01*
X126971871Y-134715745D01*
X127068775Y-134608430D01*
X127160815Y-134488265D01*
X127247848Y-134356861D01*
X127329729Y-134215826D01*
X127406315Y-134066772D01*
X127477460Y-133911310D01*
X127543021Y-133751049D01*
X127602854Y-133587599D01*
X127656815Y-133422573D01*
X127704759Y-133257579D01*
X127746543Y-133094228D01*
X127782022Y-132934130D01*
X127811052Y-132778897D01*
X127833489Y-132630138D01*
X127849190Y-132489463D01*
X127876555Y-132147597D01*
X127895953Y-131819966D01*
X127907851Y-131506351D01*
X127912717Y-131206533D01*
X127911020Y-130920293D01*
X127903227Y-130647413D01*
X127889807Y-130387673D01*
X127871227Y-130140855D01*
X127847956Y-129906739D01*
X127820461Y-129685106D01*
X127789211Y-129475739D01*
X127754674Y-129278417D01*
X127717317Y-129092921D01*
X127677609Y-128919034D01*
X127636018Y-128756535D01*
X127593012Y-128605206D01*
X127574418Y-128548116D01*
X127553995Y-128494946D01*
X127531855Y-128445681D01*
X127508111Y-128400301D01*
X127482874Y-128358788D01*
X127456256Y-128321125D01*
X127428370Y-128287293D01*
X127399328Y-128257274D01*
X127369242Y-128231051D01*
X127338224Y-128208606D01*
X127306387Y-128189919D01*
X127273842Y-128174974D01*
X127240702Y-128163752D01*
X127207079Y-128156235D01*
X127173085Y-128152406D01*
X127138832Y-128152246D01*
X127104433Y-128155736D01*
X127069999Y-128162860D01*
X127035643Y-128173599D01*
X127001477Y-128187936D01*
X126967613Y-128205851D01*
X126934163Y-128227327D01*
X126901239Y-128252346D01*
X126868955Y-128280890D01*
X126837421Y-128312941D01*
X126806750Y-128348481D01*
X126777054Y-128387492D01*
X126748445Y-128429956D01*
X126721036Y-128475854D01*
X126694939Y-128525170D01*
X126670265Y-128577884D01*
X126647127Y-128633979D01*
X126583299Y-128800693D01*
X126525952Y-128953672D01*
X126474832Y-129093411D01*
X126429683Y-129220408D01*
X126361106Y-129418932D01*
X126335277Y-129484451D01*
X126304859Y-129554860D01*
X126269292Y-129629425D01*
X126228020Y-129707413D01*
X126180483Y-129788090D01*
X126126124Y-129870725D01*
X126064385Y-129954583D01*
X125994707Y-130038932D01*
X125916533Y-130123038D01*
X125829305Y-130206168D01*
X125782121Y-130247139D01*
X125732464Y-130287590D01*
X125680264Y-130327431D01*
X125625452Y-130366570D01*
X125381118Y-130527397D01*
X125134750Y-130674695D01*
X124887180Y-130809045D01*
X124639241Y-130931027D01*
X124391765Y-131041222D01*
X124145586Y-131140210D01*
X123901538Y-131228573D01*
X123660451Y-131306890D01*
X123423161Y-131375743D01*
X123190498Y-131435711D01*
X122963298Y-131487377D01*
X122742391Y-131531320D01*
X122528612Y-131568120D01*
X122322794Y-131598359D01*
X121938369Y-131641476D01*
X121878583Y-131646148D01*
X121822479Y-131649123D01*
X121770042Y-131650426D01*
X121721258Y-131650081D01*
X121676114Y-131648113D01*
X121634594Y-131644546D01*
X121596686Y-131639404D01*
X121562374Y-131632712D01*
X121531645Y-131624494D01*
X121504484Y-131614776D01*
X121480878Y-131603580D01*
X121460812Y-131590932D01*
X121444272Y-131576856D01*
X121431245Y-131561376D01*
X121421715Y-131544517D01*
X121415669Y-131526303D01*
X121413093Y-131506759D01*
X121413972Y-131485909D01*
X121418293Y-131463777D01*
X121426041Y-131440389D01*
X121437202Y-131415767D01*
X121451762Y-131389938D01*
X121469707Y-131362924D01*
X121491023Y-131334752D01*
X121515696Y-131305444D01*
X121543711Y-131275025D01*
X121575054Y-131243520D01*
X121609712Y-131210954D01*
X121647670Y-131177350D01*
X121688914Y-131142734D01*
X121781204Y-131070559D01*
X121908116Y-130972288D01*
X122038084Y-130864954D01*
X122170360Y-130748266D01*
X122304197Y-130621933D01*
X122438850Y-130485664D01*
X122573572Y-130339167D01*
X122707614Y-130182152D01*
X122840232Y-130014328D01*
X122970677Y-129835402D01*
X123098203Y-129645084D01*
X123222064Y-129443083D01*
X123341512Y-129229108D01*
X123455802Y-129002867D01*
X123564185Y-128764070D01*
X123665915Y-128512424D01*
X123760245Y-128247640D01*
X123798705Y-128125268D01*
X123835944Y-127993856D01*
X123907105Y-127708974D01*
X123974420Y-127403115D01*
X124038584Y-127086402D01*
X124160232Y-126460904D01*
X124219103Y-126172364D01*
X124277597Y-125913460D01*
X124320244Y-125743311D01*
X124363682Y-125580053D01*
X124407829Y-125423546D01*
X124452603Y-125273648D01*
X124497922Y-125130220D01*
X124543705Y-124993120D01*
X124589868Y-124862208D01*
X124636331Y-124737343D01*
X124683010Y-124618385D01*
X124729825Y-124505192D01*
X124776694Y-124397625D01*
X124823533Y-124295542D01*
X124870262Y-124198803D01*
X124916798Y-124107268D01*
X125008963Y-123939244D01*
X125069122Y-123832390D01*
X125127247Y-123723895D01*
X125182678Y-123615195D01*
X125234756Y-123507726D01*
X125282823Y-123402924D01*
X125326217Y-123302225D01*
X125364281Y-123207066D01*
X125396355Y-123118883D01*
X125421779Y-123039111D01*
X125439894Y-122969187D01*
X125446005Y-122938366D01*
X125450041Y-122910546D01*
X125451921Y-122885906D01*
X125451561Y-122864625D01*
X125448879Y-122846884D01*
X125443793Y-122832861D01*
X125436221Y-122822736D01*
X125426080Y-122816688D01*
X125413287Y-122814898D01*
X125397761Y-122817544D01*
X125379418Y-122824806D01*
X125358177Y-122836864D01*
X125154210Y-122972857D01*
X124913502Y-123144514D01*
X124633355Y-123354829D01*
X124311074Y-123606792D01*
X123943961Y-123903396D01*
X123529320Y-124247632D01*
X123064454Y-124642491D01*
X122546666Y-125090967D01*
X121648603Y-125881881D01*
X121404484Y-126093622D01*
X121165857Y-126296878D01*
X120939389Y-126484606D01*
X120731747Y-126649760D01*
X120423311Y-126881787D01*
X120120457Y-127097038D01*
X119823220Y-127296021D01*
X119531632Y-127479239D01*
X119245727Y-127647200D01*
X118965539Y-127800409D01*
X118691101Y-127939371D01*
X118422446Y-128064592D01*
X118159609Y-128176579D01*
X117902622Y-128275837D01*
X117651520Y-128362871D01*
X117406335Y-128438187D01*
X117167101Y-128502291D01*
X116933853Y-128555689D01*
X116706622Y-128598887D01*
X116485444Y-128632390D01*
X116270351Y-128656704D01*
X116061377Y-128672335D01*
X115858555Y-128679788D01*
X115661919Y-128679570D01*
X115287339Y-128658141D01*
X114937906Y-128612094D01*
X114613887Y-128545474D01*
X114315550Y-128462329D01*
X114043164Y-128366703D01*
X113796997Y-128262643D01*
X113743020Y-128236145D01*
X113693168Y-128208173D01*
X113647402Y-128178828D01*
X113605682Y-128148213D01*
X113567969Y-128116428D01*
X113534222Y-128083574D01*
X113504403Y-128049753D01*
X113478471Y-128015067D01*
X113456388Y-127979616D01*
X113438114Y-127943501D01*
X113423609Y-127906825D01*
X113412834Y-127869687D01*
X113405749Y-127832190D01*
X113402314Y-127794435D01*
X113402491Y-127756523D01*
X113406239Y-127718554D01*
X113413519Y-127680632D01*
X113424291Y-127642856D01*
X113438517Y-127605328D01*
X113456156Y-127568150D01*
X113477169Y-127531422D01*
X113501516Y-127495246D01*
X113529158Y-127459723D01*
X113560055Y-127424954D01*
X113594168Y-127391041D01*
X113631457Y-127358085D01*
X113671883Y-127326188D01*
X113715406Y-127295449D01*
X113761986Y-127265971D01*
X113811584Y-127237856D01*
X113864161Y-127211203D01*
X113919677Y-127186115D01*
X114578422Y-126888804D01*
X114945336Y-126708574D01*
X115332200Y-126506722D01*
X115735205Y-126282817D01*
X116150542Y-126036428D01*
X116574404Y-125767125D01*
X117002981Y-125474478D01*
X117432466Y-125158057D01*
X117859050Y-124817431D01*
X118278923Y-124452170D01*
X118688279Y-124061844D01*
X119083307Y-123646022D01*
X119460200Y-123204273D01*
X119815150Y-122736169D01*
X119983206Y-122492098D01*
X120144347Y-122241277D01*
X120277965Y-122012449D01*
X120416330Y-121753303D01*
X120556968Y-121473443D01*
X120697406Y-121182475D01*
X121207688Y-120099598D01*
X121311720Y-119889842D01*
X121413067Y-119690525D01*
X121511751Y-119501390D01*
X121607792Y-119322175D01*
X121701211Y-119152623D01*
X121792030Y-118992474D01*
X121880269Y-118841467D01*
X121965951Y-118699345D01*
X122049094Y-118565848D01*
X122129722Y-118440715D01*
X122207855Y-118323689D01*
X122283514Y-118214510D01*
X122356719Y-118112918D01*
X122427493Y-118018654D01*
X122495857Y-117931458D01*
X122561831Y-117851072D01*
X122722082Y-117659996D01*
X122895823Y-117448840D01*
X122982459Y-117340557D01*
X123066116Y-117233044D01*
X123144676Y-117128231D01*
X123216024Y-117028048D01*
X123278042Y-116934424D01*
X123328612Y-116849289D01*
X123348943Y-116810508D01*
X123365618Y-116774574D01*
X123378372Y-116741727D01*
X123386942Y-116712208D01*
X123391062Y-116686259D01*
X123390468Y-116664121D01*
X123384895Y-116646035D01*
X123380158Y-116638587D01*
X123374078Y-116632243D01*
X123366621Y-116627032D01*
X123357753Y-116622986D01*
X123335655Y-116618504D01*
X123307520Y-116619040D01*
X123273083Y-116624834D01*
X123091917Y-116673921D01*
X122874809Y-116748749D01*
X122618990Y-116851803D01*
X122321690Y-116985564D01*
X121980138Y-117152517D01*
X121591566Y-117355145D01*
X121153203Y-117595931D01*
X120662280Y-117877360D01*
X119634984Y-118491333D01*
X119356494Y-118655223D01*
X119084647Y-118811144D01*
X118827095Y-118953031D01*
X118591494Y-119074820D01*
X118262669Y-119231147D01*
X117936573Y-119374222D01*
X117613405Y-119504482D01*
X117293364Y-119622369D01*
X116976650Y-119728321D01*
X116663460Y-119822777D01*
X116353994Y-119906177D01*
X116048450Y-119978961D01*
X115449924Y-120094435D01*
X114869474Y-120172715D01*
X114308688Y-120217314D01*
X113769159Y-120231749D01*
X113252475Y-120219534D01*
X112760228Y-120184183D01*
X112294007Y-120129212D01*
X111855403Y-120058135D01*
X111446007Y-119974468D01*
X111067409Y-119881725D01*
X110721199Y-119783420D01*
X110408968Y-119683070D01*
X110352374Y-119662841D01*
X110299757Y-119642028D01*
X110251100Y-119620678D01*
X110206384Y-119598841D01*
X110165592Y-119576565D01*
X110128705Y-119553899D01*
X110095705Y-119530892D01*
X110066574Y-119507593D01*
X110041294Y-119484050D01*
X110019847Y-119460313D01*
X110002215Y-119436430D01*
X109988379Y-119412449D01*
X109978322Y-119388420D01*
X109972026Y-119364391D01*
X109969472Y-119340412D01*
X109970642Y-119316530D01*
X109975519Y-119292795D01*
X109984083Y-119269256D01*
X109996318Y-119245961D01*
X110012205Y-119222959D01*
X110031725Y-119200298D01*
X110054861Y-119178028D01*
X110081595Y-119156198D01*
X110111909Y-119134855D01*
X110145784Y-119114050D01*
X110183202Y-119093830D01*
X110224145Y-119074245D01*
X110268596Y-119055343D01*
X110316536Y-119037173D01*
X110367947Y-119019783D01*
X110422811Y-119003224D01*
X110481110Y-118987542D01*
X110783903Y-118906580D01*
X111109629Y-118810143D01*
X111454639Y-118697074D01*
X111815287Y-118566217D01*
X112187928Y-118416416D01*
X112568915Y-118246515D01*
X112954601Y-118055358D01*
X113341340Y-117841788D01*
X113725486Y-117604650D01*
X114103393Y-117342786D01*
X114471413Y-117055042D01*
X114825902Y-116740260D01*
X114996932Y-116572369D01*
X115163211Y-116397285D01*
X115324285Y-116214863D01*
X115479696Y-116024960D01*
X115628990Y-115827430D01*
X115771710Y-115622129D01*
X115907400Y-115408913D01*
X116035606Y-115187637D01*
X116095207Y-115074104D01*
X116154560Y-114951054D01*
X116272808Y-114681931D01*
X116390926Y-114391318D01*
X116509488Y-114090268D01*
X116629067Y-113789829D01*
X116750240Y-113501055D01*
X116811603Y-113364495D01*
X116873580Y-113234995D01*
X116936242Y-113113936D01*
X116999661Y-113002700D01*
X117143679Y-112777192D01*
X117297727Y-112561002D01*
X117461194Y-112353934D01*
X117633469Y-112155793D01*
X117813941Y-111966384D01*
X118002000Y-111785511D01*
X118197034Y-111612979D01*
X118398433Y-111448593D01*
X118817882Y-111143475D01*
X119255459Y-110868594D01*
X119706278Y-110622387D01*
X120165452Y-110403292D01*
X120628093Y-110209745D01*
X121089314Y-110040183D01*
X121544229Y-109893044D01*
X121987951Y-109766763D01*
X122415593Y-109659779D01*
X122822267Y-109570528D01*
X123553167Y-109438972D01*
X123613124Y-109428384D01*
X123670575Y-109415659D01*
X123725468Y-109400869D01*
X123777753Y-109384083D01*
X123827379Y-109365372D01*
X123874296Y-109344805D01*
X123918454Y-109322453D01*
X123959802Y-109298385D01*
X123998289Y-109272672D01*
X124033865Y-109245384D01*
X124066480Y-109216590D01*
X124096082Y-109186361D01*
X124122622Y-109154766D01*
X124146048Y-109121877D01*
X124166311Y-109087762D01*
X124183360Y-109052492D01*
X124197145Y-109016138D01*
X124207614Y-108978768D01*
X124214717Y-108940453D01*
X124218404Y-108901263D01*
X124218625Y-108861268D01*
X124215328Y-108820539D01*
X124208464Y-108779145D01*
X124197981Y-108737156D01*
X124183830Y-108694642D01*
X124165959Y-108651674D01*
X124144319Y-108608321D01*
X124118859Y-108564653D01*
X124089527Y-108520741D01*
X124056275Y-108476655D01*
X124019050Y-108432464D01*
X123977804Y-108388238D01*
X123796634Y-108209069D01*
X123597516Y-108025174D01*
X123380815Y-107839483D01*
X123146896Y-107654922D01*
X122896121Y-107474421D01*
X122628856Y-107300908D01*
X122345465Y-107137310D01*
X122046311Y-106986556D01*
X121731759Y-106851573D01*
X121402174Y-106735291D01*
X121057919Y-106640637D01*
X120699358Y-106570539D01*
X120326856Y-106527926D01*
X120135491Y-106517841D01*
X119940777Y-106515725D01*
X119742759Y-106521944D01*
X119541484Y-106536865D01*
X119336997Y-106560853D01*
X119129343Y-106594274D01*
X119003914Y-106620218D01*
X118871567Y-106652968D01*
X118733306Y-106691628D01*
X118590136Y-106735301D01*
X118293080Y-106834106D01*
X117988430Y-106942213D01*
X117388463Y-107157662D01*
X117109207Y-107250669D01*
X116978274Y-107290357D01*
X116854475Y-107324307D01*
X116662148Y-107370961D01*
X116472524Y-107411614D01*
X116101534Y-107475706D01*
X115741793Y-107518160D01*
X115393588Y-107540557D01*
X115057208Y-107544476D01*
X114732942Y-107531495D01*
X114421077Y-107503195D01*
X114121902Y-107461153D01*
X113835704Y-107406951D01*
X113562773Y-107342166D01*
X113303395Y-107268378D01*
X113057860Y-107187166D01*
X112826455Y-107100110D01*
X112609469Y-107008788D01*
X112407190Y-106914780D01*
X112219905Y-106819666D01*
X112167384Y-106790872D01*
X112119040Y-106762344D01*
X112074837Y-106734102D01*
X112034734Y-106706164D01*
X111998693Y-106678551D01*
X111966677Y-106651279D01*
X111938645Y-106624370D01*
X111914560Y-106597841D01*
X111894382Y-106571711D01*
X111878074Y-106546000D01*
X111865597Y-106520726D01*
X111856912Y-106495910D01*
X111851980Y-106471568D01*
X111850763Y-106447721D01*
X111853222Y-106424388D01*
X111859318Y-106401587D01*
X111869014Y-106379338D01*
X111882270Y-106357659D01*
X111899048Y-106336570D01*
X111919309Y-106316089D01*
X111943015Y-106296236D01*
X111970126Y-106277029D01*
X112000605Y-106258487D01*
X112034413Y-106240630D01*
X112071510Y-106223477D01*
X112111859Y-106207045D01*
X112155422Y-106191356D01*
X112202158Y-106176426D01*
X112252030Y-106162277D01*
X112304999Y-106148925D01*
X112420073Y-106124693D01*
X112596494Y-106088305D01*
X112783416Y-106042198D01*
X112980511Y-105985409D01*
X113187453Y-105916977D01*
X113403913Y-105835939D01*
X113629565Y-105741333D01*
X113864080Y-105632197D01*
X114107132Y-105507567D01*
X114358394Y-105366483D01*
X114617537Y-105207980D01*
X114884234Y-105031098D01*
X115158159Y-104834874D01*
X115438983Y-104618346D01*
X115726379Y-104380550D01*
X116020020Y-104120525D01*
X116319578Y-103837309D01*
X116506580Y-103649140D01*
X116709087Y-103435835D01*
X116921232Y-103205115D01*
X117137148Y-102964705D01*
X117556819Y-102485698D01*
X117921159Y-102060594D01*
X118273944Y-101642244D01*
X118574625Y-101278780D01*
X118826995Y-100966503D01*
X119034844Y-100701710D01*
X119061778Y-100665269D01*
X119087842Y-100627033D01*
X119113006Y-100587203D01*
X119137244Y-100545979D01*
X119182824Y-100460152D01*
X119224358Y-100371157D01*
X119261618Y-100280598D01*
X119294378Y-100190080D01*
X119322414Y-100101209D01*
X119345499Y-100015587D01*
X119363407Y-99934821D01*
X119375912Y-99860515D01*
X119382788Y-99794274D01*
X119384045Y-99764678D01*
X119383810Y-99737701D01*
X119382055Y-99713542D01*
X119378751Y-99692402D01*
X119373871Y-99674482D01*
X119367386Y-99659982D01*
X119359268Y-99649103D01*
X119349488Y-99642045D01*
X119338019Y-99639009D01*
X119324832Y-99640196D01*
X118932186Y-99741476D01*
X118408272Y-99890439D01*
X117737672Y-100093242D01*
X116904970Y-100356045D01*
X115766196Y-100723990D01*
X115457717Y-100820225D01*
X115157554Y-100910431D01*
X114874621Y-100990748D01*
X114617832Y-101057310D01*
X114200162Y-101151548D01*
X113793023Y-101229480D01*
X113396198Y-101291761D01*
X113009469Y-101339046D01*
X112632620Y-101371991D01*
X112265435Y-101391250D01*
X111907695Y-101397479D01*
X111559185Y-101391333D01*
X111219687Y-101373467D01*
X110888985Y-101344537D01*
X110566861Y-101305196D01*
X110253098Y-101256102D01*
X109947481Y-101197907D01*
X109649791Y-101131269D01*
X109077326Y-100975281D01*
X108533970Y-100793378D01*
X108017987Y-100590802D01*
X107527641Y-100372793D01*
X107061198Y-100144594D01*
X106193076Y-99678587D01*
X105399740Y-99234713D01*
X105164402Y-99111283D01*
X104899666Y-98980387D01*
X104326400Y-98699015D01*
X104040072Y-98549945D01*
X103901841Y-98473622D01*
X103768748Y-98396223D01*
X103642183Y-98317838D01*
X103523531Y-98238554D01*
X103414181Y-98158459D01*
X103315520Y-98077641D01*
X103175895Y-97949644D01*
X103043286Y-97816375D01*
X102917530Y-97678491D01*
X102798464Y-97536650D01*
X102685924Y-97391509D01*
X102579748Y-97243727D01*
X102479773Y-97093961D01*
X102385837Y-96942868D01*
X102297775Y-96791106D01*
X102215426Y-96639334D01*
X102138627Y-96488208D01*
X102067213Y-96338386D01*
X102001024Y-96190527D01*
X101939895Y-96045287D01*
X101832168Y-95765297D01*
X101812852Y-95708161D01*
X101796990Y-95653134D01*
X101784514Y-95600247D01*
X101775358Y-95549529D01*
X101769452Y-95501013D01*
X101766731Y-95454728D01*
X101767126Y-95410705D01*
X101770570Y-95368975D01*
X101776995Y-95329567D01*
X101786334Y-95292514D01*
X101798520Y-95257845D01*
X101813485Y-95225592D01*
X101831162Y-95195784D01*
X101851483Y-95168452D01*
X101874380Y-95143627D01*
X101899786Y-95121340D01*
X101927634Y-95101620D01*
X101957857Y-95084500D01*
X101990386Y-95070009D01*
X102025154Y-95058177D01*
X102062094Y-95049036D01*
X102101138Y-95042616D01*
X102142220Y-95038948D01*
X102185270Y-95038063D01*
X102230223Y-95039990D01*
X102277010Y-95044760D01*
X102325563Y-95052405D01*
X102375817Y-95062954D01*
X102427702Y-95076439D01*
X102481152Y-95092890D01*
X102536099Y-95112337D01*
X102592475Y-95134812D01*
X103464980Y-95466924D01*
X103984595Y-95634284D01*
X104555733Y-95793999D01*
X105175357Y-95939683D01*
X105840428Y-96064950D01*
X106547907Y-96163414D01*
X107294756Y-96228691D01*
X108077936Y-96254393D01*
X108894410Y-96234135D01*
X109741139Y-96161532D01*
X110615084Y-96030197D01*
X111513207Y-95833744D01*
X112432470Y-95565789D01*
X113369833Y-95219945D01*
X114322260Y-94789826D01*
X114558263Y-94668560D01*
X114817117Y-94528663D01*
X115373068Y-94218159D01*
X115929502Y-93908674D01*
X116188958Y-93770052D01*
X116425805Y-93650570D01*
X116883803Y-93440268D01*
X117334140Y-93255207D01*
X117776676Y-93094418D01*
X118211269Y-92956933D01*
X118637775Y-92841783D01*
X119056055Y-92748000D01*
X119465965Y-92674615D01*
X119867364Y-92620660D01*
X120260110Y-92585167D01*
X120644061Y-92567167D01*
X121019075Y-92565692D01*
X121385011Y-92579773D01*
X121741726Y-92608443D01*
X122089078Y-92650731D01*
X122426927Y-92705671D01*
X122755129Y-92772294D01*
X123073543Y-92849631D01*
X123382028Y-92936714D01*
X123680441Y-93032574D01*
X123968640Y-93136243D01*
X124513830Y-93363135D01*
X125016463Y-93609643D01*
X125475405Y-93868018D01*
X125889520Y-94130514D01*
X126257673Y-94389384D01*
X126578729Y-94636879D01*
X127453958Y-95450874D01*
X127467694Y-95357471D01*
X127498112Y-95102472D01*
X127514520Y-94926191D01*
X127529030Y-94723691D01*
X127539620Y-94499700D01*
X127544266Y-94258944D01*
X127540859Y-93985108D01*
X127527069Y-93696076D01*
X127500760Y-93395617D01*
X127459795Y-93087502D01*
X127402039Y-92775498D01*
X127325355Y-92463375D01*
X127279247Y-92308447D01*
X127227607Y-92154902D01*
X127170166Y-92003213D01*
X127106659Y-91853849D01*
X127036817Y-91707282D01*
X126960374Y-91563984D01*
X126877064Y-91424425D01*
X126786618Y-91289076D01*
X126688770Y-91158410D01*
X126583253Y-91032896D01*
X126469800Y-90913006D01*
X126348143Y-90799211D01*
X126218017Y-90691982D01*
X126079153Y-90591791D01*
X125931285Y-90499108D01*
X125774146Y-90414405D01*
X125607468Y-90338153D01*
X125430985Y-90270822D01*
X125244430Y-90212885D01*
X125047536Y-90164812D01*
X124921792Y-90141888D01*
X124787031Y-90124104D01*
X124644518Y-90110881D01*
X124495517Y-90101639D01*
X124183103Y-90092775D01*
X123859901Y-90092872D01*
X123221580Y-90101378D01*
X122926684Y-90100506D01*
X122661445Y-90090027D01*
X122442300Y-90072309D01*
X122227380Y-90049439D01*
X122016688Y-90021639D01*
X121810227Y-89989128D01*
X121410009Y-89910852D01*
X121026748Y-89816372D01*
X120660467Y-89707446D01*
X120311190Y-89585833D01*
X119978938Y-89453292D01*
X119663734Y-89311582D01*
X119365601Y-89162463D01*
X119084561Y-89007693D01*
X118820638Y-88849031D01*
X118573854Y-88688237D01*
X118344231Y-88527069D01*
X118131793Y-88367287D01*
X117936562Y-88210649D01*
X117758560Y-88058914D01*
X117714032Y-88018659D01*
X117673396Y-87979540D01*
X117636615Y-87941595D01*
X117603652Y-87904863D01*
X117574471Y-87869383D01*
X117549033Y-87835194D01*
X117527303Y-87802335D01*
X117509242Y-87770843D01*
X117494815Y-87740759D01*
X117483983Y-87712121D01*
X117476711Y-87684968D01*
X117472960Y-87659338D01*
X117472693Y-87635270D01*
X117475875Y-87612803D01*
X117482467Y-87591976D01*
X117492433Y-87572828D01*
X117505735Y-87555397D01*
X117522337Y-87539722D01*
X117542201Y-87525841D01*
X117565291Y-87513795D01*
X117591569Y-87503621D01*
X117620998Y-87495358D01*
X117653542Y-87489044D01*
X117689162Y-87484720D01*
X117727823Y-87482423D01*
X117769487Y-87482193D01*
X117814117Y-87484067D01*
X117861677Y-87488086D01*
X117912128Y-87494287D01*
X117965433Y-87502709D01*
X118021557Y-87513391D01*
X118080462Y-87526373D01*
X118575803Y-87633199D01*
X119136670Y-87731885D01*
X119753009Y-87812994D01*
X120078839Y-87844007D01*
X120414766Y-87867086D01*
X120759534Y-87881051D01*
X121111886Y-87884722D01*
X121470565Y-87876920D01*
X121834315Y-87856464D01*
X122201878Y-87822175D01*
X122571999Y-87772872D01*
X122943419Y-87707377D01*
X123314883Y-87624509D01*
X123438845Y-87591553D01*
X123569790Y-87552725D01*
X123848543Y-87460477D01*
X124142979Y-87353818D01*
X124444936Y-87238799D01*
X125038758Y-87007893D01*
X125314298Y-86904110D01*
X125564706Y-86816179D01*
X125719020Y-86766504D01*
X125864606Y-86722652D01*
X126001711Y-86684391D01*
X126130584Y-86651489D01*
X126251472Y-86623716D01*
X126364625Y-86600841D01*
X126470290Y-86582631D01*
X126568716Y-86568857D01*
X126759213Y-86545102D01*
X126847028Y-86532548D01*
X126928658Y-86518544D01*
X127003185Y-86502341D01*
X127037497Y-86493180D01*
X127069688Y-86483188D01*
X127099643Y-86472272D01*
X127127247Y-86460338D01*
X127152385Y-86447292D01*
X127174941Y-86433040D01*
X127194801Y-86417489D01*
X127211850Y-86400545D01*
X127225972Y-86382114D01*
X127237054Y-86362103D01*
X127244978Y-86340419D01*
X127249631Y-86316966D01*
X127250898Y-86291653D01*
X127248663Y-86264384D01*
X127242812Y-86235067D01*
X127233229Y-86203607D01*
X127219799Y-86169912D01*
X127202408Y-86133887D01*
X127180939Y-86095439D01*
X127155279Y-86054473D01*
X127125312Y-86010897D01*
X127090924Y-85964617D01*
X127000615Y-85856519D01*
X126895150Y-85749005D01*
X126773415Y-85642915D01*
X126634297Y-85539089D01*
X126476682Y-85438367D01*
X126299457Y-85341589D01*
X126101507Y-85249596D01*
X125881720Y-85163228D01*
X125638982Y-85083325D01*
X125372179Y-85010727D01*
X125080197Y-84946274D01*
X124761923Y-84890808D01*
X124416244Y-84845167D01*
X124042045Y-84810192D01*
X123638214Y-84786724D01*
X123203637Y-84775603D01*
X122938164Y-84776611D01*
X122643708Y-84782966D01*
X122006740Y-84800844D01*
X121683671Y-84806932D01*
X121370508Y-84807498D01*
X121076973Y-84799823D01*
X120940604Y-84792046D01*
X120812788Y-84781190D01*
X120477616Y-84738903D01*
X120153345Y-84681741D01*
X119839822Y-84610436D01*
X119536893Y-84525723D01*
X119244405Y-84428334D01*
X118962204Y-84319004D01*
X118690137Y-84198464D01*
X118428049Y-84067450D01*
X118175788Y-83926693D01*
X117933200Y-83776928D01*
X117700132Y-83618887D01*
X117476429Y-83453304D01*
X117261938Y-83280912D01*
X117056506Y-83102445D01*
X116672205Y-82730218D01*
X116322296Y-82342490D01*
X116005550Y-81945126D01*
X115720741Y-81543994D01*
X115466638Y-81144960D01*
X115242015Y-80753892D01*
X115045642Y-80376654D01*
X114876291Y-80019115D01*
X114732733Y-79687141D01*
X114710882Y-79630772D01*
X114692561Y-79576124D01*
X114677706Y-79523247D01*
X114666253Y-79472189D01*
X114658136Y-79422998D01*
X114653290Y-79375722D01*
X114651652Y-79330410D01*
X114653155Y-79287111D01*
X114657735Y-79245873D01*
X114665327Y-79206744D01*
X114675867Y-79169773D01*
X114689289Y-79135008D01*
X114705529Y-79102498D01*
X114724522Y-79072291D01*
X114746203Y-79044436D01*
X114770507Y-79018980D01*
X114797370Y-78995974D01*
X114826726Y-78975464D01*
X114858511Y-78957499D01*
X114892659Y-78942128D01*
X114929107Y-78929400D01*
X114967789Y-78919362D01*
X115008640Y-78912063D01*
X115051596Y-78907552D01*
X115096591Y-78905878D01*
X115143561Y-78907087D01*
X115192441Y-78911230D01*
X115243167Y-78918353D01*
X115295672Y-78928507D01*
X115349894Y-78941739D01*
X115405765Y-78958098D01*
X115463223Y-78977631D01*
X116095591Y-79203079D01*
X116817300Y-79450126D01*
X117601344Y-79705048D01*
X118420718Y-79954125D01*
X119248417Y-80183634D01*
X120057437Y-80379853D01*
X120446503Y-80461191D01*
X120820773Y-80529061D01*
X121176870Y-80581747D01*
X121511418Y-80617534D01*
X121638124Y-80623362D01*
X121772947Y-80621255D01*
X121914736Y-80612247D01*
X122062337Y-80597375D01*
X122370370Y-80554180D01*
X122687828Y-80499959D01*
X123005493Y-80442997D01*
X123314147Y-80391583D01*
X123462214Y-80370545D01*
X123604571Y-80354002D01*
X123740067Y-80342989D01*
X123867549Y-80338542D01*
X124251238Y-80343868D01*
X124665579Y-80363778D01*
X125567685Y-80441650D01*
X126536812Y-80560766D01*
X127535904Y-80709734D01*
X128527907Y-80877162D01*
X129475765Y-81051659D01*
X131090826Y-81376288D01*
X131151360Y-81387484D01*
X131211661Y-81395537D01*
X131271623Y-81400499D01*
X131331139Y-81402426D01*
X131390103Y-81401370D01*
X131448409Y-81397387D01*
X131505949Y-81390530D01*
X131562618Y-81380854D01*
X131618308Y-81368412D01*
X131672914Y-81353258D01*
X131726328Y-81335448D01*
X131778445Y-81315034D01*
X131829157Y-81292071D01*
X131878358Y-81266613D01*
X131925942Y-81238714D01*
X131971802Y-81208428D01*
X132015832Y-81175810D01*
X132057925Y-81140913D01*
X132097974Y-81103791D01*
X132135873Y-81064499D01*
X132171516Y-81023091D01*
X132204795Y-80979620D01*
X132235605Y-80934141D01*
X132263839Y-80886708D01*
X132289390Y-80837376D01*
X132312152Y-80786197D01*
X132332018Y-80733227D01*
X132348883Y-80678518D01*
X132362638Y-80622127D01*
X132373178Y-80564106D01*
X132380397Y-80504509D01*
X132384186Y-80443391D01*
X132388153Y-80255764D01*
X132387393Y-80061507D01*
X132381097Y-79862151D01*
X132368458Y-79659226D01*
X132348668Y-79454262D01*
X132320919Y-79248788D01*
X132284402Y-79044335D01*
X132238311Y-78842432D01*
X132181837Y-78644608D01*
X132114173Y-78452395D01*
X132034510Y-78267322D01*
X131989926Y-78177941D01*
X131942040Y-78090918D01*
X131890750Y-78006446D01*
X131835956Y-77924714D01*
X131777555Y-77845915D01*
X131715449Y-77770240D01*
X131649535Y-77697879D01*
X131579712Y-77629024D01*
X131505879Y-77563867D01*
X131427937Y-77502598D01*
X131377133Y-77467483D01*
X131322895Y-77434650D01*
X131204945Y-77375378D01*
X131075750Y-77323872D01*
X130936972Y-77279223D01*
X130790274Y-77240523D01*
X130637320Y-77206862D01*
X130479772Y-77177332D01*
X130319294Y-77151023D01*
X129681335Y-77059815D01*
X129388010Y-77009903D01*
X129253582Y-76980688D01*
X129129528Y-76947421D01*
X128931951Y-76883165D01*
X128740719Y-76811617D01*
X128555846Y-76733419D01*
X128377343Y-76649215D01*
X128205223Y-76559648D01*
X128039498Y-76465362D01*
X127880181Y-76367000D01*
X127727283Y-76265205D01*
X127580819Y-76160622D01*
X127440799Y-76053892D01*
X127307236Y-75945660D01*
X127180143Y-75836569D01*
X127059532Y-75727263D01*
X126945415Y-75618384D01*
X126837805Y-75510576D01*
X126736714Y-75404482D01*
X126696549Y-75359794D01*
X126660322Y-75316265D01*
X126627982Y-75273949D01*
X126599476Y-75232901D01*
X126574756Y-75193175D01*
X126553768Y-75154826D01*
X126536462Y-75117907D01*
X126522786Y-75082474D01*
X126512690Y-75048579D01*
X126506122Y-75016279D01*
X126503032Y-74985625D01*
X126503367Y-74956675D01*
X126507077Y-74929480D01*
X126514110Y-74904096D01*
X126524416Y-74880577D01*
X126537943Y-74858978D01*
X126554640Y-74839352D01*
X126574456Y-74821753D01*
X126597339Y-74806237D01*
X126623239Y-74792858D01*
X126652104Y-74781669D01*
X126683883Y-74772724D01*
X126718525Y-74766080D01*
X126755979Y-74761788D01*
X126796193Y-74759905D01*
X126839117Y-74760483D01*
X126884699Y-74763578D01*
X126932888Y-74769244D01*
X126983632Y-74777534D01*
X127036882Y-74788504D01*
X127092584Y-74802208D01*
X127150689Y-74818699D01*
X127854535Y-75024221D01*
X128237173Y-75129596D01*
X128631367Y-75232778D01*
X129030425Y-75330816D01*
X129427657Y-75420757D01*
X129816373Y-75499650D01*
X130189880Y-75564542D01*
X130316836Y-75581924D01*
X130452777Y-75596297D01*
X130746252Y-75618529D01*
X131382070Y-75654468D01*
X131702977Y-75678201D01*
X131859492Y-75693701D01*
X132011595Y-75712459D01*
X132157946Y-75735101D01*
X132297206Y-75762255D01*
X132428034Y-75794546D01*
X132549092Y-75832600D01*
X132718010Y-75895252D01*
X132890205Y-75964010D01*
X133064986Y-76038257D01*
X133241666Y-76117374D01*
X133597965Y-76287751D01*
X133953592Y-76470201D01*
X134303036Y-76659783D01*
X134640787Y-76851556D01*
X134961334Y-77040582D01*
X135259167Y-77221918D01*
X135311369Y-77252762D01*
X135362520Y-77280207D01*
X135412539Y-77304290D01*
X135461340Y-77325049D01*
X135508840Y-77342523D01*
X135554954Y-77356748D01*
X135599600Y-77367762D01*
X135642692Y-77375605D01*
X135684147Y-77380312D01*
X135723881Y-77381923D01*
X135761811Y-77380474D01*
X135797852Y-77376004D01*
X135831920Y-77368551D01*
X135863931Y-77358152D01*
X135893802Y-77344846D01*
X135921448Y-77328669D01*
X135946785Y-77309661D01*
X135969731Y-77287858D01*
X135990200Y-77263298D01*
X136008109Y-77236020D01*
X136023373Y-77206061D01*
X136035910Y-77173459D01*
X136045634Y-77138252D01*
X136052463Y-77100478D01*
X136056311Y-77060173D01*
X136057096Y-77017378D01*
X136054733Y-76972128D01*
X136049138Y-76924462D01*
X136040228Y-76874418D01*
X136027918Y-76822034D01*
X136012125Y-76767347D01*
X135992764Y-76710395D01*
X135910368Y-76500672D01*
X135818109Y-76296305D01*
X135715870Y-76096749D01*
X135603532Y-75901454D01*
X135480981Y-75709876D01*
X135348097Y-75521466D01*
X135204764Y-75335677D01*
X135050864Y-75151964D01*
X134886281Y-74969777D01*
X134710897Y-74788572D01*
X134524595Y-74607800D01*
X134327257Y-74426914D01*
X134118767Y-74245368D01*
X133899007Y-74062615D01*
X133667860Y-73878107D01*
X133425208Y-73691297D01*
X132976137Y-73355705D01*
X132725574Y-73166444D01*
X132470526Y-72968068D01*
X132220645Y-72764472D01*
X132100657Y-72661934D01*
X131985579Y-72559552D01*
X131876618Y-72457813D01*
X131774980Y-72357205D01*
X131681870Y-72258213D01*
X131598497Y-72161326D01*
X131315357Y-71792683D01*
X131035573Y-71387265D01*
X130760103Y-70950341D01*
X130489908Y-70487176D01*
X130225946Y-70003037D01*
X129969176Y-69503192D01*
X129481052Y-68477446D01*
X129033211Y-67452073D01*
X128633326Y-66469207D01*
X128289072Y-65570982D01*
X128008124Y-64799531D01*
X127969762Y-64689921D01*
X127937719Y-64594529D01*
X127912055Y-64513301D01*
X127892825Y-64446183D01*
X127880088Y-64393120D01*
X127873902Y-64354057D01*
X127873284Y-64339759D01*
X127874325Y-64328941D01*
X127877033Y-64321596D01*
X127881415Y-64317717D01*
X127887477Y-64317298D01*
X127895228Y-64320331D01*
X127904675Y-64326810D01*
X127915824Y-64336728D01*
X127943261Y-64366853D01*
X127977594Y-64410654D01*
X128018884Y-64468074D01*
X128067187Y-64539060D01*
X128122561Y-64623557D01*
X128185065Y-64721512D01*
X128425618Y-65082784D01*
X128684553Y-65435082D01*
X128960694Y-65778499D01*
X129252863Y-66113125D01*
X129880575Y-66756372D01*
X130558270Y-67365551D01*
X131276530Y-67941393D01*
X132025934Y-68484629D01*
X132797064Y-68995989D01*
X133580501Y-69476202D01*
X134366825Y-69925999D01*
X135146617Y-70346111D01*
X136648930Y-71100196D01*
X139160732Y-72284263D01*
X139275778Y-72341403D01*
X139397036Y-72404918D01*
X139523334Y-72474261D01*
X139653500Y-72548881D01*
X139786362Y-72628229D01*
X139920749Y-72711755D01*
X140055490Y-72798912D01*
X140189414Y-72889148D01*
X140321348Y-72981916D01*
X140450121Y-73076665D01*
X140574562Y-73172846D01*
X140693500Y-73269911D01*
X140805762Y-73367309D01*
X140910177Y-73464492D01*
X141005575Y-73560910D01*
X141090783Y-73656014D01*
X141294076Y-73906859D01*
X141495931Y-74175766D01*
X141695710Y-74460189D01*
X141892778Y-74757586D01*
X142086496Y-75065412D01*
X142276229Y-75381125D01*
X142641189Y-76026032D01*
X142982563Y-76671959D01*
X143295258Y-77298556D01*
X143574177Y-77885473D01*
X143814227Y-78412361D01*
X143840243Y-78467357D01*
X143867703Y-78519208D01*
X143896518Y-78567892D01*
X143926597Y-78613385D01*
X143957852Y-78655666D01*
X143990192Y-78694712D01*
X144023529Y-78730500D01*
X144057771Y-78763006D01*
X144092830Y-78792210D01*
X144128615Y-78818087D01*
X144165038Y-78840616D01*
X144202008Y-78859772D01*
X144239436Y-78875535D01*
X144277232Y-78887881D01*
X144315307Y-78896787D01*
X144353570Y-78902231D01*
X144391932Y-78904190D01*
X144430304Y-78902642D01*
X144468595Y-78897563D01*
X144506716Y-78888931D01*
X144544577Y-78876723D01*
X144582089Y-78860917D01*
X144619162Y-78841490D01*
X144655707Y-78818420D01*
X144691632Y-78791682D01*
X144726850Y-78761256D01*
X144761270Y-78727118D01*
X144794802Y-78689245D01*
X144827357Y-78647615D01*
X144858845Y-78602205D01*
X144889177Y-78552993D01*
X144918262Y-78499955D01*
X145093556Y-78137862D01*
X145249402Y-77768329D01*
X145386553Y-77392159D01*
X145505763Y-77010152D01*
X145607785Y-76623109D01*
X145693371Y-76231831D01*
X145763275Y-75837118D01*
X145818250Y-75439773D01*
X145886423Y-74640386D01*
X145903915Y-73840078D01*
X145876751Y-73045256D01*
X145810953Y-72262328D01*
X145712547Y-71497701D01*
X145587557Y-70757782D01*
X145442006Y-70048980D01*
X145281919Y-69377702D01*
X145113321Y-68750354D01*
X144942234Y-68173346D01*
X144616695Y-67195975D01*
X144578315Y-67086339D01*
X144546621Y-66990649D01*
X144521792Y-66908752D01*
X144504007Y-66840491D01*
X144497813Y-66811426D01*
X144493447Y-66785712D01*
X144490932Y-66763330D01*
X144490291Y-66744260D01*
X144491545Y-66728483D01*
X144494718Y-66715979D01*
X144499831Y-66706729D01*
X144506908Y-66700714D01*
X144515970Y-66697915D01*
X144527041Y-66698311D01*
X144540142Y-66701884D01*
X144555296Y-66708614D01*
X144572525Y-66718482D01*
X144591853Y-66731469D01*
X144613300Y-66747554D01*
X144636891Y-66766719D01*
X144690590Y-66814211D01*
X144753129Y-66873789D01*
X144824689Y-66945297D01*
X144905448Y-67028582D01*
X145144280Y-67269455D01*
X145404698Y-67517218D01*
X145683769Y-67770273D01*
X145978557Y-68027023D01*
X146603544Y-68545223D01*
X147256181Y-69059041D01*
X147912987Y-69555702D01*
X148550482Y-70022429D01*
X149145188Y-70446449D01*
X149673624Y-70814983D01*
X149725506Y-70848873D01*
X149779087Y-70880147D01*
X149834210Y-70908793D01*
X149890717Y-70934801D01*
X149948453Y-70958159D01*
X150007259Y-70978857D01*
X150066980Y-70996882D01*
X150127458Y-71012225D01*
X150188536Y-71024873D01*
X150250057Y-71034816D01*
X150311864Y-71042042D01*
X150373801Y-71046540D01*
X150435710Y-71048300D01*
X150497434Y-71047310D01*
X150558818Y-71043559D01*
X150619702Y-71037035D01*
X150679931Y-71027729D01*
X150739348Y-71015628D01*
X150797795Y-71000721D01*
X150855116Y-70982997D01*
X150911154Y-70962446D01*
X150965752Y-70939055D01*
X151018753Y-70912815D01*
X151069999Y-70883713D01*
X151119335Y-70851738D01*
X151166603Y-70816881D01*
X151211645Y-70779128D01*
X151254306Y-70738469D01*
X151294428Y-70694894D01*
X151331855Y-70648390D01*
X151366428Y-70598947D01*
X151397992Y-70546554D01*
X151526282Y-70298983D01*
X151642706Y-70039312D01*
X151841676Y-69487181D01*
X151998340Y-68897183D01*
X152116139Y-68276344D01*
X152198510Y-67631687D01*
X152248894Y-66970237D01*
X152270728Y-66299016D01*
X152267453Y-65625049D01*
X152242507Y-64955361D01*
X152199329Y-64296974D01*
X152072034Y-63042203D01*
X151913081Y-61916927D01*
X151749982Y-60977338D01*
X151739542Y-60918019D01*
X151731144Y-60861819D01*
X151724761Y-60808752D01*
X151720368Y-60758833D01*
X151717941Y-60712075D01*
X151717452Y-60668495D01*
X151718878Y-60628105D01*
X151722192Y-60590921D01*
X151727369Y-60556956D01*
X151734384Y-60526226D01*
X151743211Y-60498745D01*
X151753824Y-60474527D01*
X151766199Y-60453587D01*
X151780310Y-60435940D01*
X151796131Y-60421599D01*
X151813636Y-60410579D01*
X151832802Y-60402894D01*
X151853601Y-60398560D01*
X151876009Y-60397591D01*
X151900000Y-60400000D01*
D11*
X173686772Y-106636772D02*
G75*
G02*
X134113228Y-106636772I-19786772J0D01*
G01*
X134113228Y-106636772D02*
G75*
G02*
X173686772Y-106636772I19786772J0D01*
G01*
M02*
