%TF.GenerationSoftware,KiCad,Pcbnew,10.0.0-10.0.0~ubuntu24.04.1*%
%TF.CreationDate,2026-07-22T18:50:33-07:00*%
%TF.ProjectId,hackathon-badge,6861636b-6174-4686-9f6e-2d6261646765,rev?*%
%TF.SameCoordinates,Original*%
%TF.FileFunction,Paste,Bot*%
%TF.FilePolarity,Positive*%
%FSLAX46Y46*%
G04 Gerber Fmt 4.6, Leading zero omitted, Abs format (unit mm)*
G04 Created by KiCad (PCBNEW 10.0.0-10.0.0~ubuntu24.04.1) date 2026-07-22 18:50:33*
%MOMM*%
%LPD*%
G01*
G04 APERTURE LIST*
G04 Aperture macros list*
%AMRotRect*
0 Rectangle, with rotation*
0 The origin of the aperture is its center*
0 $1 length*
0 $2 width*
0 $3 Rotation angle, in degrees counterclockwise*
0 Add horizontal line*
21,1,$1,$2,0,0,$3*%
G04 Aperture macros list end*
%ADD10RotRect,0.700000X0.700000X320.000000*%
%ADD11RotRect,0.700000X0.700000X80.000000*%
%ADD12RotRect,0.700000X0.700000X220.000000*%
%ADD13RotRect,0.700000X0.700000X60.000000*%
%ADD14RotRect,0.700000X0.700000X40.000000*%
%ADD15RotRect,0.700000X0.700000X200.000000*%
%ADD16RotRect,0.700000X0.700000X300.000000*%
%ADD17RotRect,0.700000X0.700000X20.000000*%
%ADD18RotRect,0.700000X0.700000X160.000000*%
%ADD19RotRect,0.700000X0.700000X280.000000*%
%ADD20RotRect,0.700000X0.700000X340.000000*%
%ADD21RotRect,0.700000X0.700000X140.000000*%
%ADD22RotRect,0.700000X0.700000X250.000000*%
%ADD23RotRect,0.700000X0.700000X120.000000*%
G04 APERTURE END LIST*
D10*
%TO.C,D9*%
X138245535Y-122133172D03*
X138952602Y-121290528D03*
X140354465Y-122466828D03*
X139647398Y-123309472D03*
%TD*%
D11*
%TO.C,D4*%
X175182758Y-112196615D03*
X174099471Y-112005591D03*
X174417242Y-110203385D03*
X175500529Y-110394409D03*
%TD*%
D12*
%TO.C,D13*%
X140447397Y-89190525D03*
X141154463Y-90033173D03*
X139752603Y-91209475D03*
X139045537Y-90366827D03*
%TD*%
D13*
%TO.C,D5*%
X172218813Y-118867417D03*
X171266190Y-118317413D03*
X172181187Y-116732583D03*
X173133810Y-117282587D03*
%TD*%
D14*
%TO.C,D6*%
X166952599Y-124309482D03*
X166245540Y-123466827D03*
X167647401Y-122290518D03*
X168354460Y-123133173D03*
%TD*%
D15*
%TO.C,D14*%
X147401712Y-85590216D03*
X147777927Y-86623881D03*
X146058288Y-87249784D03*
X145682073Y-86216119D03*
%TD*%
D16*
%TO.C,D10*%
X134266179Y-116382581D03*
X135218813Y-115832589D03*
X136133821Y-117417419D03*
X135181187Y-117967411D03*
%TD*%
D17*
%TO.C,D7*%
X159828288Y-127829784D03*
X159452073Y-126796119D03*
X161171712Y-126170216D03*
X161547927Y-127203881D03*
%TD*%
D18*
%TO.C,D1*%
X162747932Y-86496119D03*
X162371707Y-87529776D03*
X160652068Y-86903881D03*
X161028293Y-85870224D03*
%TD*%
D19*
%TO.C,D11*%
X132299466Y-110094404D03*
X133382754Y-109903397D03*
X133700534Y-111705596D03*
X132617246Y-111896603D03*
%TD*%
D20*
%TO.C,D8*%
X144952064Y-126703883D03*
X145328293Y-125670224D03*
X147047936Y-126296117D03*
X146671707Y-127329776D03*
%TD*%
D21*
%TO.C,D2*%
X168954466Y-90666828D03*
X168247398Y-91509472D03*
X166845534Y-90333172D03*
X167552602Y-89490528D03*
%TD*%
D22*
%TO.C,D12*%
X133896118Y-97452066D03*
X134929776Y-97828293D03*
X134303882Y-99547934D03*
X133270224Y-99171707D03*
%TD*%
D23*
%TO.C,D3*%
X173533819Y-96917417D03*
X172581187Y-97467411D03*
X171666181Y-95882583D03*
X172618813Y-95332589D03*
%TD*%
M02*
