%TF.GenerationSoftware,KiCad,Pcbnew,10.0.0-10.0.0~ubuntu24.04.1*%
%TF.CreationDate,2026-07-05T10:03:49-07:00*%
%TF.ProjectId,hackathon-badge,6861636b-6174-4686-9f6e-2d6261646765,rev?*%
%TF.SameCoordinates,Original*%
%TF.FileFunction,Profile,NP*%
%FSLAX46Y46*%
G04 Gerber Fmt 4.6, Leading zero omitted, Abs format (unit mm)*
G04 Created by KiCad (PCBNEW 10.0.0-10.0.0~ubuntu24.04.1) date 2026-07-05 10:03:49*
%MOMM*%
%LPD*%
G01*
G04 APERTURE LIST*
%TA.AperFunction,Profile*%
%ADD10C,0.261937*%
%TD*%
%TA.AperFunction,Profile*%
%ADD11C,0.050000*%
%TD*%
G04 APERTURE END LIST*
D10*
X153050000Y-63150000D02*
X153082500Y-63156034D01*
X153116263Y-63165494D01*
X153151251Y-63178407D01*
X153187429Y-63194797D01*
X153224757Y-63214690D01*
X153263198Y-63238112D01*
X153302716Y-63265086D01*
X153343271Y-63295640D01*
X153384827Y-63329797D01*
X153427347Y-63367585D01*
X153470792Y-63409026D01*
X153903556Y-63841478D01*
X154382303Y-64334269D01*
X154886295Y-64872130D01*
X155394795Y-65439791D01*
X155887065Y-66021985D01*
X156120633Y-66313759D01*
X156342368Y-66603440D01*
X156549676Y-66889120D01*
X156739966Y-67168889D01*
X156910646Y-67440839D01*
X157059122Y-67703061D01*
X157112170Y-67816097D01*
X157157709Y-67939887D01*
X157196337Y-68073036D01*
X157228650Y-68214150D01*
X157255247Y-68361834D01*
X157276724Y-68514695D01*
X157293678Y-68671338D01*
X157306707Y-68830368D01*
X157323377Y-69150012D01*
X157331511Y-69462474D01*
X157341286Y-70021229D01*
X157378813Y-70823712D01*
X157442285Y-71728000D01*
X157525619Y-72697576D01*
X157622735Y-73695926D01*
X157833983Y-75632884D01*
X158027378Y-77246752D01*
X158073482Y-77613473D01*
X158087069Y-77704795D01*
X158091943Y-77727441D01*
X158093956Y-77733009D01*
X158095707Y-77734741D01*
X158097213Y-77732636D01*
X158098490Y-77726694D01*
X158100419Y-77703298D01*
X158102226Y-77610452D01*
X158101213Y-77240502D01*
X158108359Y-76812607D01*
X158119698Y-76583571D01*
X158137231Y-76346279D01*
X158161721Y-76102081D01*
X158193932Y-75852329D01*
X158234625Y-75598374D01*
X158284564Y-75341568D01*
X158344511Y-75083263D01*
X158415229Y-74824809D01*
X158497482Y-74567559D01*
X158592030Y-74312862D01*
X158699638Y-74062072D01*
X158821069Y-73816539D01*
X158957084Y-73577615D01*
X159108447Y-73346651D01*
X159184712Y-73245046D01*
X159271331Y-73141349D01*
X159366916Y-73035924D01*
X159470076Y-72929140D01*
X159579422Y-72821362D01*
X159693565Y-72712955D01*
X159930686Y-72495724D01*
X160401361Y-72069836D01*
X160510183Y-71967287D01*
X160612688Y-71867039D01*
X160707485Y-71769458D01*
X160793186Y-71674912D01*
X161016635Y-71405452D01*
X161232025Y-71122282D01*
X161439248Y-70827567D01*
X161638196Y-70523471D01*
X161828762Y-70212159D01*
X162010838Y-69895797D01*
X162184316Y-69576549D01*
X162349088Y-69256581D01*
X162652086Y-68623142D01*
X162918969Y-68012801D01*
X163148875Y-67442877D01*
X163340943Y-66930690D01*
X163362432Y-66874426D01*
X163384904Y-66821554D01*
X163408303Y-66772086D01*
X163432576Y-66726031D01*
X163457670Y-66683400D01*
X163483529Y-66644204D01*
X163510100Y-66608453D01*
X163537329Y-66576158D01*
X163565162Y-66547329D01*
X163593544Y-66521978D01*
X163622422Y-66500114D01*
X163651741Y-66481748D01*
X163681447Y-66466891D01*
X163711487Y-66455553D01*
X163741806Y-66447744D01*
X163772350Y-66443477D01*
X163803065Y-66442760D01*
X163833897Y-66445604D01*
X163864792Y-66452021D01*
X163895695Y-66462020D01*
X163926553Y-66475612D01*
X163957312Y-66492808D01*
X163987917Y-66513619D01*
X164018315Y-66538054D01*
X164048451Y-66566124D01*
X164078272Y-66597841D01*
X164107722Y-66633214D01*
X164136749Y-66672254D01*
X164165298Y-66714972D01*
X164193314Y-66761378D01*
X164220745Y-66811483D01*
X164247535Y-66865297D01*
X164531550Y-67479910D01*
X164835194Y-68180514D01*
X165137193Y-68938737D01*
X165280926Y-69330592D01*
X165416269Y-69726213D01*
X165540561Y-70122054D01*
X165651145Y-70514570D01*
X165745359Y-70900214D01*
X165820545Y-71275440D01*
X165874042Y-71636702D01*
X165903192Y-71980454D01*
X165905335Y-72303149D01*
X165877810Y-72601242D01*
X165866261Y-72659776D01*
X165849599Y-72718374D01*
X165828135Y-72777026D01*
X165802179Y-72835722D01*
X165772042Y-72894452D01*
X165738034Y-72953205D01*
X165700467Y-73011971D01*
X165659651Y-73070739D01*
X165569515Y-73188243D01*
X165470112Y-73305634D01*
X165363929Y-73422829D01*
X165253449Y-73539746D01*
X165029548Y-73772418D01*
X164921097Y-73888007D01*
X164818294Y-74002989D01*
X164723625Y-74117281D01*
X164639574Y-74230800D01*
X164602308Y-74287245D01*
X164568629Y-74343465D01*
X164538847Y-74399452D01*
X164513274Y-74455193D01*
X164415000Y-74724537D01*
X164335695Y-75015498D01*
X164274037Y-75325098D01*
X164228701Y-75650357D01*
X164198363Y-75988297D01*
X164181698Y-76335939D01*
X164177384Y-76690304D01*
X164184096Y-77048413D01*
X164200510Y-77407286D01*
X164225302Y-77763946D01*
X164294723Y-78458709D01*
X164381768Y-79108868D01*
X164475845Y-79690594D01*
X164485352Y-79749286D01*
X164492812Y-79803941D01*
X164498398Y-79854597D01*
X164502280Y-79901289D01*
X164504629Y-79944055D01*
X164505616Y-79982931D01*
X164505400Y-79992943D01*
X164514714Y-79966112D01*
X164529019Y-79928740D01*
X164545897Y-79888325D01*
X164565518Y-79844905D01*
X164588054Y-79798516D01*
X164613675Y-79749196D01*
X164682501Y-79633793D01*
X164768413Y-79514360D01*
X164872802Y-79391141D01*
X164997061Y-79264384D01*
X165142581Y-79134334D01*
X165310754Y-79001237D01*
X165502970Y-78865338D01*
X165720622Y-78726884D01*
X165965101Y-78586121D01*
X166237799Y-78443294D01*
X166540107Y-78298649D01*
X166873416Y-78152432D01*
X167239119Y-78004889D01*
X167638606Y-77856267D01*
X168073270Y-77706810D01*
X168544501Y-77556764D01*
X169689119Y-77224798D01*
X169996400Y-77130465D01*
X170292017Y-77032572D01*
X170565914Y-76931608D01*
X170691575Y-76880127D01*
X170808035Y-76828062D01*
X171229520Y-76611199D01*
X171631743Y-76366836D01*
X172015150Y-76096670D01*
X172380188Y-75802401D01*
X172727305Y-75485729D01*
X173056947Y-75148353D01*
X173369561Y-74791972D01*
X173665595Y-74418285D01*
X173945496Y-74028993D01*
X174209710Y-73625793D01*
X174692867Y-72784471D01*
X175118642Y-71907913D01*
X175490613Y-71009715D01*
X175812355Y-70103471D01*
X176087444Y-69202775D01*
X176319458Y-68321222D01*
X176511971Y-67472408D01*
X176668561Y-66669926D01*
X176792804Y-65927371D01*
X176958552Y-64676421D01*
X176966389Y-64616534D01*
X176976333Y-64559440D01*
X176988301Y-64505184D01*
X177002212Y-64453816D01*
X177017981Y-64405381D01*
X177035528Y-64359927D01*
X177054770Y-64317503D01*
X177075623Y-64278154D01*
X177098006Y-64241929D01*
X177121836Y-64208875D01*
X177147030Y-64179038D01*
X177173507Y-64152467D01*
X177201183Y-64129209D01*
X177229977Y-64109311D01*
X177259805Y-64092821D01*
X177290585Y-64079785D01*
X177322234Y-64070252D01*
X177354671Y-64064268D01*
X177387813Y-64061881D01*
X177421576Y-64063138D01*
X177455880Y-64068087D01*
X177490640Y-64076774D01*
X177525776Y-64089248D01*
X177561203Y-64105556D01*
X177596840Y-64125744D01*
X177632605Y-64149861D01*
X177668414Y-64177953D01*
X177704186Y-64210068D01*
X177739837Y-64246254D01*
X177775286Y-64286557D01*
X177810449Y-64331026D01*
X177845245Y-64379707D01*
X178060493Y-64720890D01*
X178260135Y-65087744D01*
X178444329Y-65478400D01*
X178613233Y-65890989D01*
X178905801Y-66774488D01*
X179139100Y-67723291D01*
X179314392Y-68722447D01*
X179432938Y-69757005D01*
X179496001Y-70812014D01*
X179504842Y-71872522D01*
X179460723Y-72923580D01*
X179364904Y-73950235D01*
X179218649Y-74937537D01*
X179023218Y-75870535D01*
X178779873Y-76734277D01*
X178489877Y-77513813D01*
X178327778Y-77867331D01*
X178154489Y-78194191D01*
X177970169Y-78492524D01*
X177774974Y-78760461D01*
X177692149Y-78855123D01*
X177596699Y-78948153D01*
X177490241Y-79039605D01*
X177374389Y-79129533D01*
X177250757Y-79217992D01*
X177120962Y-79305036D01*
X176849340Y-79475094D01*
X176303197Y-79800610D01*
X176054517Y-79956936D01*
X175941928Y-80033681D01*
X175839327Y-80109553D01*
X175551798Y-80349674D01*
X175280045Y-80608903D01*
X175023745Y-80884674D01*
X174782574Y-81174423D01*
X174556209Y-81475584D01*
X174344325Y-81785593D01*
X174146601Y-82101885D01*
X173962712Y-82421894D01*
X173792334Y-82743057D01*
X173635145Y-83062808D01*
X173490820Y-83378582D01*
X173359036Y-83687814D01*
X173131798Y-84276395D01*
X172950842Y-84808031D01*
X172913845Y-84917265D01*
X172897569Y-84960079D01*
X172907918Y-84945108D01*
X172974566Y-84856014D01*
X173062173Y-84749098D01*
X173162309Y-84638953D01*
X173275767Y-84525817D01*
X173403338Y-84409931D01*
X173545814Y-84291533D01*
X173703988Y-84170863D01*
X173878651Y-84048160D01*
X174070595Y-83923664D01*
X174280612Y-83797614D01*
X174509493Y-83670250D01*
X174758031Y-83541810D01*
X175027018Y-83412535D01*
X175317245Y-83282664D01*
X175629505Y-83152436D01*
X175964588Y-83022091D01*
X176323288Y-82891868D01*
X176573542Y-82807285D01*
X176852443Y-82717484D01*
X177456881Y-82526422D01*
X177762765Y-82427258D01*
X178057991Y-82327069D01*
X178332732Y-82226903D01*
X178577161Y-82127810D01*
X178868478Y-81995033D01*
X179149987Y-81854517D01*
X179421839Y-81706741D01*
X179684189Y-81552184D01*
X179937189Y-81391325D01*
X180180993Y-81224643D01*
X180415753Y-81052617D01*
X180641623Y-80875725D01*
X181067304Y-80509263D01*
X181459261Y-80129088D01*
X181818719Y-79739032D01*
X182146903Y-79342925D01*
X182445037Y-78944601D01*
X182714347Y-78547891D01*
X182956057Y-78156626D01*
X183171393Y-77774638D01*
X183361578Y-77405760D01*
X183527838Y-77053821D01*
X183671398Y-76722655D01*
X183793483Y-76416093D01*
X183815571Y-76360302D01*
X183837907Y-76308044D01*
X183860460Y-76259330D01*
X183883198Y-76214167D01*
X183906091Y-76172565D01*
X183929107Y-76134533D01*
X183952215Y-76100079D01*
X183975384Y-76069213D01*
X183998583Y-76041942D01*
X184021780Y-76018277D01*
X184044945Y-75998226D01*
X184068047Y-75981797D01*
X184091053Y-75969000D01*
X184113934Y-75959844D01*
X184136658Y-75954337D01*
X184159193Y-75952488D01*
X184181509Y-75954307D01*
X184203575Y-75959801D01*
X184225359Y-75968981D01*
X184246830Y-75981854D01*
X184267957Y-75998430D01*
X184288709Y-76018718D01*
X184309054Y-76042726D01*
X184328963Y-76070463D01*
X184348402Y-76101938D01*
X184367342Y-76137161D01*
X184385752Y-76176139D01*
X184403599Y-76218882D01*
X184420853Y-76265398D01*
X184437482Y-76315697D01*
X184453457Y-76369788D01*
X184468744Y-76427679D01*
X184625452Y-77095602D01*
X184778251Y-77855430D01*
X184847547Y-78259672D01*
X184909100Y-78674726D01*
X184960655Y-79096537D01*
X184999955Y-79521050D01*
X185024745Y-79944212D01*
X185032770Y-80361967D01*
X185021775Y-80770260D01*
X184989504Y-81165036D01*
X184933702Y-81542242D01*
X184852112Y-81897822D01*
X184800943Y-82066235D01*
X184742480Y-82227721D01*
X184676444Y-82381774D01*
X184602551Y-82527885D01*
X184571383Y-82580556D01*
X184536205Y-82632563D01*
X184497241Y-82683914D01*
X184454711Y-82734614D01*
X184359845Y-82834088D01*
X184253387Y-82931039D01*
X184137115Y-83025518D01*
X184012808Y-83117579D01*
X183882244Y-83207273D01*
X183747202Y-83294653D01*
X183470797Y-83462679D01*
X183197822Y-83622074D01*
X182942505Y-83773258D01*
X182825915Y-83845901D01*
X182719075Y-83916648D01*
X182361067Y-84174449D01*
X181994825Y-84459012D01*
X181622697Y-84766657D01*
X181247031Y-85093698D01*
X180870176Y-85436455D01*
X180494480Y-85791243D01*
X179755961Y-86522182D01*
X179050262Y-87257052D01*
X178396169Y-87966390D01*
X177812471Y-88620732D01*
X177711832Y-88736709D01*
X177809067Y-88663905D01*
X177957688Y-88576600D01*
X178127314Y-88499793D01*
X178324485Y-88430836D01*
X178555743Y-88367081D01*
X178827629Y-88305880D01*
X179146685Y-88244585D01*
X179952470Y-88111119D01*
X182417892Y-87726539D01*
X182967873Y-87636730D01*
X183592197Y-87527320D01*
X183907949Y-87466786D01*
X184213139Y-87403178D01*
X184498053Y-87337105D01*
X184752974Y-87269176D01*
X185130850Y-87151326D01*
X185496250Y-87021118D01*
X185849351Y-86879258D01*
X186190334Y-86726454D01*
X186519377Y-86563411D01*
X186836658Y-86390838D01*
X187142357Y-86209441D01*
X187436654Y-86019926D01*
X187719726Y-85823001D01*
X187991753Y-85619373D01*
X188252913Y-85409749D01*
X188503386Y-85194835D01*
X188972986Y-84751965D01*
X189401984Y-84296419D01*
X189791811Y-83833853D01*
X190143899Y-83369921D01*
X190459680Y-82910279D01*
X190740585Y-82460581D01*
X190988045Y-82026482D01*
X191203493Y-81613638D01*
X191388360Y-81227704D01*
X191544077Y-80874335D01*
X191568120Y-80819364D01*
X191592279Y-80767955D01*
X191616522Y-80720116D01*
X191640821Y-80675852D01*
X191665145Y-80635170D01*
X191689464Y-80598074D01*
X191713749Y-80564573D01*
X191737969Y-80534671D01*
X191762095Y-80508374D01*
X191786098Y-80485690D01*
X191809946Y-80466623D01*
X191833611Y-80451180D01*
X191857062Y-80439367D01*
X191880270Y-80431190D01*
X191903204Y-80426656D01*
X191925835Y-80425769D01*
X191948134Y-80428537D01*
X191970069Y-80434965D01*
X191991612Y-80445060D01*
X192012733Y-80458827D01*
X192033401Y-80476273D01*
X192053587Y-80497404D01*
X192073261Y-80522225D01*
X192092393Y-80550744D01*
X192110953Y-80582965D01*
X192128912Y-80618895D01*
X192146239Y-80658541D01*
X192162905Y-80701908D01*
X192178880Y-80749002D01*
X192194134Y-80799829D01*
X192208637Y-80854396D01*
X192222359Y-80912708D01*
X192380824Y-81673101D01*
X192508195Y-82381065D01*
X192605280Y-83038905D01*
X192672891Y-83648930D01*
X192711838Y-84213446D01*
X192722930Y-84734760D01*
X192706977Y-85215179D01*
X192664790Y-85657010D01*
X192597179Y-86062559D01*
X192504954Y-86434135D01*
X192388925Y-86774043D01*
X192249902Y-87084591D01*
X192088695Y-87368085D01*
X191906114Y-87626833D01*
X191702970Y-87863141D01*
X191480072Y-88079317D01*
X191238231Y-88277667D01*
X190978256Y-88460499D01*
X190700958Y-88630119D01*
X190407147Y-88788834D01*
X189773226Y-89082777D01*
X189082974Y-89360785D01*
X187559399Y-89942815D01*
X186739037Y-90283749D01*
X185888267Y-90682568D01*
X185654052Y-90804428D01*
X185397419Y-90945245D01*
X185126514Y-91099848D01*
X184849481Y-91263069D01*
X184574462Y-91429735D01*
X184309604Y-91594676D01*
X184063049Y-91752723D01*
X183842942Y-91898703D01*
X183481816Y-92149167D01*
X183148375Y-92392350D01*
X182841566Y-92628225D01*
X182560336Y-92856762D01*
X182303632Y-93077936D01*
X182070403Y-93291719D01*
X181859594Y-93498082D01*
X181670154Y-93696999D01*
X181501029Y-93888443D01*
X181351168Y-94072384D01*
X181219516Y-94248797D01*
X181105022Y-94417653D01*
X181006633Y-94578926D01*
X180923296Y-94732586D01*
X180853958Y-94878608D01*
X180797566Y-95016963D01*
X180778388Y-95071213D01*
X180762545Y-95122172D01*
X180749920Y-95169830D01*
X180740391Y-95214175D01*
X180733839Y-95255197D01*
X180730143Y-95292884D01*
X180729184Y-95327226D01*
X180730841Y-95358212D01*
X180734995Y-95385830D01*
X180741525Y-95410070D01*
X180750313Y-95430920D01*
X180761236Y-95448370D01*
X180774176Y-95462409D01*
X180789013Y-95473025D01*
X180805626Y-95480208D01*
X180823896Y-95483946D01*
X180843702Y-95484229D01*
X180864925Y-95481046D01*
X180887444Y-95474386D01*
X180911140Y-95464237D01*
X180935892Y-95450588D01*
X180961580Y-95433430D01*
X180988085Y-95412750D01*
X181015287Y-95388538D01*
X181043065Y-95360782D01*
X181071299Y-95329472D01*
X181099870Y-95294597D01*
X181128657Y-95256146D01*
X181157541Y-95214107D01*
X181186401Y-95168470D01*
X181215117Y-95119223D01*
X181243570Y-95066357D01*
X181310545Y-94940745D01*
X181379173Y-94819524D01*
X181521004Y-94589939D01*
X181668294Y-94376978D01*
X181820273Y-94180018D01*
X181976171Y-93998435D01*
X182135219Y-93831605D01*
X182296647Y-93678904D01*
X182459686Y-93539709D01*
X182623565Y-93413396D01*
X182787517Y-93299341D01*
X182950770Y-93196920D01*
X183112556Y-93105510D01*
X183272105Y-93024487D01*
X183428647Y-92953228D01*
X183581412Y-92891107D01*
X183729632Y-92837502D01*
X183850881Y-92801833D01*
X183981374Y-92773502D01*
X184119846Y-92751948D01*
X184265030Y-92736612D01*
X184415659Y-92726933D01*
X184570469Y-92722349D01*
X184728193Y-92722302D01*
X184887564Y-92726231D01*
X185206187Y-92743772D01*
X185516208Y-92770491D01*
X185807500Y-92801904D01*
X186069933Y-92833526D01*
X186547908Y-92883232D01*
X187013179Y-92913643D01*
X187465204Y-92926205D01*
X187903441Y-92922366D01*
X188327349Y-92903573D01*
X188736385Y-92871271D01*
X189130009Y-92826909D01*
X189507679Y-92771932D01*
X189868851Y-92707788D01*
X190212987Y-92635924D01*
X190539542Y-92557785D01*
X190847976Y-92474820D01*
X191137747Y-92388474D01*
X191408314Y-92300195D01*
X191889665Y-92123624D01*
X191947279Y-92102460D01*
X192005420Y-92084146D01*
X192063917Y-92068663D01*
X192122599Y-92055996D01*
X192181296Y-92046125D01*
X192239837Y-92039036D01*
X192298051Y-92034709D01*
X192355767Y-92033129D01*
X192412815Y-92034277D01*
X192469023Y-92038136D01*
X192524222Y-92044690D01*
X192578239Y-92053921D01*
X192630905Y-92065811D01*
X192682048Y-92080344D01*
X192731498Y-92097503D01*
X192779084Y-92117269D01*
X192824635Y-92139626D01*
X192867981Y-92164557D01*
X192908950Y-92192044D01*
X192947372Y-92222071D01*
X192983076Y-92254619D01*
X193015891Y-92289672D01*
X193045647Y-92327212D01*
X193072172Y-92367223D01*
X193095296Y-92409687D01*
X193114848Y-92454586D01*
X193130658Y-92501904D01*
X193142554Y-92551624D01*
X193150365Y-92603727D01*
X193153922Y-92658197D01*
X193153052Y-92715017D01*
X193147586Y-92774169D01*
X193117399Y-92950385D01*
X193073054Y-93125249D01*
X193015080Y-93298570D01*
X192944008Y-93470156D01*
X192860367Y-93639818D01*
X192764685Y-93807362D01*
X192657493Y-93972598D01*
X192539320Y-94135334D01*
X192272149Y-94452542D01*
X191967407Y-94757455D01*
X191629329Y-95048541D01*
X191262151Y-95324269D01*
X190870109Y-95583109D01*
X190457437Y-95823529D01*
X190028372Y-96043998D01*
X189587148Y-96242986D01*
X189138001Y-96418961D01*
X188685167Y-96570391D01*
X188232882Y-96695747D01*
X187785379Y-96793497D01*
X187659507Y-96814673D01*
X187524713Y-96833019D01*
X187233539Y-96863148D01*
X186601051Y-96910609D01*
X186280433Y-96935634D01*
X185970694Y-96966650D01*
X185823137Y-96985608D01*
X185682181Y-97007505D01*
X185549118Y-97032824D01*
X185425241Y-97062044D01*
X185145731Y-97143945D01*
X184870585Y-97240269D01*
X184600330Y-97349586D01*
X184335497Y-97470470D01*
X184076616Y-97601490D01*
X183824215Y-97741218D01*
X183578824Y-97888226D01*
X183340974Y-98041086D01*
X183111192Y-98198368D01*
X182890009Y-98358645D01*
X182677954Y-98520487D01*
X182475556Y-98682467D01*
X182283346Y-98843155D01*
X182101852Y-99001123D01*
X181773132Y-99303186D01*
X181690915Y-99384724D01*
X181622696Y-99459297D01*
X181593770Y-99493893D01*
X181568262Y-99526655D01*
X181546146Y-99557551D01*
X181527396Y-99586550D01*
X181511984Y-99613620D01*
X181499883Y-99638731D01*
X181491067Y-99661851D01*
X181485509Y-99682950D01*
X181483182Y-99701995D01*
X181484060Y-99718956D01*
X181488114Y-99733802D01*
X181495319Y-99746500D01*
X181505647Y-99757022D01*
X181519071Y-99765334D01*
X181535566Y-99771406D01*
X181555103Y-99775206D01*
X181577656Y-99776704D01*
X181603198Y-99775869D01*
X181631703Y-99772668D01*
X181663143Y-99767071D01*
X181697491Y-99759047D01*
X181734721Y-99748565D01*
X181774806Y-99735593D01*
X181817719Y-99720100D01*
X181911920Y-99681426D01*
X182017111Y-99632295D01*
X182843791Y-99241563D01*
X183190174Y-99095477D01*
X183506738Y-98978690D01*
X183804598Y-98888536D01*
X184094870Y-98822350D01*
X184388669Y-98777466D01*
X184697109Y-98751217D01*
X185031305Y-98740938D01*
X185402374Y-98743963D01*
X186299585Y-98779261D01*
X187477664Y-98835784D01*
X189025530Y-98892205D01*
X189582591Y-98905481D01*
X190216349Y-98912289D01*
X190537858Y-98910705D01*
X190849583Y-98904430D01*
X191141872Y-98892439D01*
X191405072Y-98873707D01*
X191782436Y-98832391D01*
X192149845Y-98778780D01*
X192507368Y-98713481D01*
X192855074Y-98637099D01*
X193193031Y-98550241D01*
X193521308Y-98453514D01*
X193839973Y-98347523D01*
X194149096Y-98232875D01*
X194448744Y-98110177D01*
X194738987Y-97980034D01*
X195019893Y-97843053D01*
X195291530Y-97699841D01*
X195553967Y-97551003D01*
X195807272Y-97397146D01*
X196051515Y-97238877D01*
X196286764Y-97076802D01*
X196730553Y-96743657D01*
X197139189Y-96402564D01*
X197513220Y-96058372D01*
X197853195Y-95715932D01*
X198159662Y-95380096D01*
X198433171Y-95055713D01*
X198674269Y-94747635D01*
X198883507Y-94460712D01*
X198918994Y-94412048D01*
X198954478Y-94366777D01*
X198989896Y-94324906D01*
X199025182Y-94286442D01*
X199060273Y-94251392D01*
X199095105Y-94219760D01*
X199129612Y-94191555D01*
X199163730Y-94166783D01*
X199197395Y-94145451D01*
X199230543Y-94127564D01*
X199263108Y-94113131D01*
X199295028Y-94102156D01*
X199326236Y-94094647D01*
X199356670Y-94090611D01*
X199386264Y-94090054D01*
X199414954Y-94092982D01*
X199442676Y-94099403D01*
X199469365Y-94109322D01*
X199494957Y-94122747D01*
X199519388Y-94139684D01*
X199542593Y-94160139D01*
X199564507Y-94184120D01*
X199585067Y-94211632D01*
X199604207Y-94242683D01*
X199621864Y-94277278D01*
X199637973Y-94315425D01*
X199652470Y-94357130D01*
X199665290Y-94402400D01*
X199676368Y-94451241D01*
X199685642Y-94503660D01*
X199693045Y-94559663D01*
X199698514Y-94619258D01*
X199717269Y-95201657D01*
X199688260Y-95807450D01*
X199608067Y-96430527D01*
X199473269Y-97064780D01*
X199280448Y-97704100D01*
X199026182Y-98342378D01*
X198874938Y-98659218D01*
X198707051Y-98973507D01*
X198522094Y-99284481D01*
X198319637Y-99591377D01*
X198099255Y-99893430D01*
X197860519Y-100189879D01*
X197603002Y-100479959D01*
X197326276Y-100762906D01*
X197029915Y-101037957D01*
X196713489Y-101304348D01*
X196376573Y-101561316D01*
X196018739Y-101808097D01*
X195639558Y-102043928D01*
X195238604Y-102268045D01*
X194815449Y-102479684D01*
X194369665Y-102678082D01*
X193900825Y-102862475D01*
X193408502Y-103032100D01*
X192892268Y-103186193D01*
X192351695Y-103323990D01*
X192093773Y-103380326D01*
X191806539Y-103436693D01*
X191182864Y-103547846D01*
X190558127Y-103654089D01*
X190009788Y-103752065D01*
X189255456Y-103906520D01*
X188548635Y-104070890D01*
X187887868Y-104243860D01*
X187271695Y-104424116D01*
X186698658Y-104610342D01*
X186167300Y-104801221D01*
X185676161Y-104995439D01*
X185223784Y-105191680D01*
X184808710Y-105388629D01*
X184429481Y-105584971D01*
X184084639Y-105779389D01*
X183772725Y-105970568D01*
X183492282Y-106157193D01*
X183241850Y-106337948D01*
X183019972Y-106511519D01*
X182825190Y-106676588D01*
X182781191Y-106716644D01*
X182741208Y-106755548D01*
X182705192Y-106793260D01*
X182673094Y-106829736D01*
X182644867Y-106864936D01*
X182620463Y-106898818D01*
X182599834Y-106931339D01*
X182582932Y-106962459D01*
X182569709Y-106992135D01*
X182560117Y-107020326D01*
X182554108Y-107046990D01*
X182551633Y-107072085D01*
X182552646Y-107095570D01*
X182557098Y-107117402D01*
X182564940Y-107137540D01*
X182576126Y-107155943D01*
X182590607Y-107172568D01*
X182608334Y-107187374D01*
X182629261Y-107200319D01*
X182653339Y-107211361D01*
X182680519Y-107220459D01*
X182710755Y-107227570D01*
X182743998Y-107232654D01*
X182780200Y-107235667D01*
X182819314Y-107236570D01*
X182861290Y-107235319D01*
X182906081Y-107231873D01*
X182953640Y-107226191D01*
X183003918Y-107218230D01*
X183056867Y-107207949D01*
X183112439Y-107195306D01*
X183170586Y-107180260D01*
X183452292Y-107108952D01*
X183723771Y-107051663D01*
X183985555Y-107007711D01*
X184238173Y-106976410D01*
X184482156Y-106957077D01*
X184718035Y-106949027D01*
X184946341Y-106951577D01*
X185167603Y-106964041D01*
X185382353Y-106985737D01*
X185591121Y-107015980D01*
X185794438Y-107054085D01*
X185992834Y-107099370D01*
X186376988Y-107208737D01*
X186747825Y-107338610D01*
X187109592Y-107483515D01*
X187466534Y-107637979D01*
X188182917Y-107953692D01*
X188550849Y-108103994D01*
X188930935Y-108241963D01*
X189327418Y-108362126D01*
X189533135Y-108413820D01*
X189744544Y-108459010D01*
X189870187Y-108480791D01*
X190004669Y-108499218D01*
X190146739Y-108514413D01*
X190295147Y-108526498D01*
X190605966Y-108541823D01*
X190927116Y-108546165D01*
X191248588Y-108540497D01*
X191560370Y-108525791D01*
X191852452Y-108503019D01*
X192114823Y-108473155D01*
X192419914Y-108427257D01*
X192718756Y-108373539D01*
X193010972Y-108312724D01*
X193296187Y-108245537D01*
X193574022Y-108172702D01*
X193844102Y-108094942D01*
X194106050Y-108012981D01*
X194359488Y-107927545D01*
X194604041Y-107839356D01*
X194839332Y-107749140D01*
X195280618Y-107565519D01*
X195680334Y-107382475D01*
X196035466Y-107205800D01*
X196090532Y-107178918D01*
X196146184Y-107154858D01*
X196202290Y-107133619D01*
X196258716Y-107115196D01*
X196315331Y-107099588D01*
X196372001Y-107086791D01*
X196428594Y-107076801D01*
X196484978Y-107069618D01*
X196541019Y-107065237D01*
X196596586Y-107063655D01*
X196651545Y-107064870D01*
X196705763Y-107068879D01*
X196759110Y-107075678D01*
X196811450Y-107085266D01*
X196862653Y-107097638D01*
X196912585Y-107112793D01*
X196961115Y-107130726D01*
X197008108Y-107151437D01*
X197053433Y-107174920D01*
X197096956Y-107201174D01*
X197138546Y-107230196D01*
X197178070Y-107261982D01*
X197215395Y-107296530D01*
X197250388Y-107333837D01*
X197282917Y-107373899D01*
X197312849Y-107416715D01*
X197340052Y-107462281D01*
X197364393Y-107510595D01*
X197385739Y-107561652D01*
X197403957Y-107615451D01*
X197418916Y-107671989D01*
X197430483Y-107731262D01*
X197463353Y-108008982D01*
X197471236Y-108279310D01*
X197454799Y-108542038D01*
X197414712Y-108796958D01*
X197351643Y-109043860D01*
X197266261Y-109282536D01*
X197159233Y-109512777D01*
X197031229Y-109734375D01*
X196882917Y-109947122D01*
X196714966Y-110150808D01*
X196528045Y-110345226D01*
X196322821Y-110530166D01*
X196099963Y-110705420D01*
X195860140Y-110870779D01*
X195332273Y-111170979D01*
X194744569Y-111429098D01*
X194102375Y-111643466D01*
X193411040Y-111812415D01*
X192675912Y-111934276D01*
X191902340Y-112007381D01*
X191095672Y-112030060D01*
X190261256Y-112000646D01*
X189404441Y-111917469D01*
X189143105Y-111879810D01*
X188854269Y-111831719D01*
X188230693Y-111718836D01*
X187606895Y-111608001D01*
X187317783Y-111562470D01*
X187056059Y-111528395D01*
X186785102Y-111501833D01*
X186521445Y-111482792D01*
X186265007Y-111470993D01*
X186015708Y-111466159D01*
X185773469Y-111468008D01*
X185538208Y-111476264D01*
X185309846Y-111490647D01*
X185088304Y-111510879D01*
X184873500Y-111536679D01*
X184665355Y-111567770D01*
X184463789Y-111603873D01*
X184268721Y-111644709D01*
X184080072Y-111689999D01*
X183897762Y-111739465D01*
X183721711Y-111792826D01*
X183551838Y-111849806D01*
X183230308Y-111973502D01*
X182932531Y-112108322D01*
X182657868Y-112252036D01*
X182405678Y-112402414D01*
X182175320Y-112557223D01*
X181966154Y-112714235D01*
X181777541Y-112871218D01*
X181608838Y-113025941D01*
X181566755Y-113068368D01*
X181528988Y-113110488D01*
X181495467Y-113152249D01*
X181466125Y-113193598D01*
X181440894Y-113234484D01*
X181419704Y-113274854D01*
X181402488Y-113314655D01*
X181389178Y-113353837D01*
X181379704Y-113392345D01*
X181373998Y-113430129D01*
X181371993Y-113467135D01*
X181373620Y-113503312D01*
X181378810Y-113538607D01*
X181387495Y-113572968D01*
X181399606Y-113606343D01*
X181415076Y-113638679D01*
X181433836Y-113669925D01*
X181455818Y-113700027D01*
X181480952Y-113728934D01*
X181509171Y-113756593D01*
X181540407Y-113782952D01*
X181574591Y-113807959D01*
X181611655Y-113831562D01*
X181651530Y-113853708D01*
X181694148Y-113874345D01*
X181739441Y-113893421D01*
X181787340Y-113910883D01*
X181837776Y-113926680D01*
X181890683Y-113940758D01*
X181945990Y-113953066D01*
X182003630Y-113963552D01*
X182063535Y-113972162D01*
X182516967Y-114045478D01*
X182979374Y-114151616D01*
X183447692Y-114288471D01*
X183918858Y-114453936D01*
X184389811Y-114645906D01*
X184857486Y-114862275D01*
X185318822Y-115100938D01*
X185770754Y-115359789D01*
X186210222Y-115636722D01*
X186634161Y-115929631D01*
X187039509Y-116236410D01*
X187423203Y-116554955D01*
X187782180Y-116883159D01*
X188113377Y-117218916D01*
X188413732Y-117560120D01*
X188680181Y-117904667D01*
X188751969Y-118010009D01*
X188823895Y-118125430D01*
X188896072Y-118249369D01*
X188968617Y-118380266D01*
X189264736Y-118942196D01*
X189417960Y-119224309D01*
X189496262Y-119360188D01*
X189575842Y-119490533D01*
X189656816Y-119613784D01*
X189739297Y-119728379D01*
X189823399Y-119832756D01*
X189909236Y-119925355D01*
X190152716Y-120149126D01*
X190420694Y-120363030D01*
X190710019Y-120567085D01*
X191017538Y-120761313D01*
X191340099Y-120945733D01*
X191674550Y-121120367D01*
X192017738Y-121285233D01*
X192366512Y-121440353D01*
X192717718Y-121585747D01*
X193068206Y-121721434D01*
X193754415Y-121963772D01*
X194399922Y-122167528D01*
X194979508Y-122332865D01*
X195037302Y-122349597D01*
X195091708Y-122367451D01*
X195142713Y-122386373D01*
X195190303Y-122406311D01*
X195234465Y-122427213D01*
X195275186Y-122449027D01*
X195312451Y-122471701D01*
X195346247Y-122495182D01*
X195376560Y-122519418D01*
X195403378Y-122544357D01*
X195426686Y-122569947D01*
X195446470Y-122596135D01*
X195462718Y-122622870D01*
X195475416Y-122650098D01*
X195484549Y-122677768D01*
X195490105Y-122705828D01*
X195492070Y-122734225D01*
X195490430Y-122762908D01*
X195485172Y-122791823D01*
X195476281Y-122820919D01*
X195463746Y-122850143D01*
X195447551Y-122879444D01*
X195427684Y-122908768D01*
X195404131Y-122938065D01*
X195376878Y-122967281D01*
X195345911Y-122996364D01*
X195311218Y-123025263D01*
X195272784Y-123053924D01*
X195230596Y-123082296D01*
X195184641Y-123110327D01*
X195134904Y-123137964D01*
X195081372Y-123165155D01*
X194623292Y-123379882D01*
X194182495Y-123570562D01*
X193758320Y-123737977D01*
X193350104Y-123882907D01*
X192957186Y-124006136D01*
X192578904Y-124108446D01*
X192214597Y-124190617D01*
X191863604Y-124253432D01*
X191525262Y-124297673D01*
X191198909Y-124324121D01*
X190883885Y-124333560D01*
X190579528Y-124326770D01*
X190285176Y-124304534D01*
X190000167Y-124267633D01*
X189723840Y-124216849D01*
X189455533Y-124152965D01*
X189194584Y-124076762D01*
X188940333Y-123989023D01*
X188692117Y-123890528D01*
X188449274Y-123782060D01*
X188211143Y-123664402D01*
X187977063Y-123538334D01*
X187518407Y-123264098D01*
X187068014Y-122965609D01*
X186620589Y-122649121D01*
X185713474Y-121987173D01*
X185497986Y-121834340D01*
X185256427Y-121668512D01*
X184996548Y-121495609D01*
X184726104Y-121321555D01*
X184452848Y-121152272D01*
X184184532Y-120993683D01*
X183928910Y-120851709D01*
X183693734Y-120732273D01*
X183488684Y-120637890D01*
X183289616Y-120553173D01*
X183096520Y-120477714D01*
X182909385Y-120411107D01*
X182728200Y-120352943D01*
X182552954Y-120302817D01*
X182383637Y-120260320D01*
X182220238Y-120225045D01*
X182062747Y-120196585D01*
X181911153Y-120174532D01*
X181765446Y-120158480D01*
X181625614Y-120148021D01*
X181491647Y-120142747D01*
X181363534Y-120142252D01*
X181241265Y-120146127D01*
X181124829Y-120153967D01*
X181064459Y-120161483D01*
X181004897Y-120173541D01*
X180946258Y-120189946D01*
X180888658Y-120210505D01*
X180832215Y-120235024D01*
X180777043Y-120263309D01*
X180723260Y-120295166D01*
X180670982Y-120330402D01*
X180620325Y-120368823D01*
X180571406Y-120410235D01*
X180524340Y-120454444D01*
X180479244Y-120501256D01*
X180436235Y-120550478D01*
X180395428Y-120601916D01*
X180356941Y-120655377D01*
X180320889Y-120710665D01*
X180287388Y-120767589D01*
X180256555Y-120825953D01*
X180228507Y-120885564D01*
X180203359Y-120946228D01*
X180181228Y-121007752D01*
X180162230Y-121069942D01*
X180146481Y-121132604D01*
X180134099Y-121195544D01*
X180125198Y-121258568D01*
X180119896Y-121321483D01*
X180118309Y-121384095D01*
X180120553Y-121446210D01*
X180126744Y-121507634D01*
X180136999Y-121568174D01*
X180151434Y-121627635D01*
X180170165Y-121685825D01*
X180260622Y-121907652D01*
X180369028Y-122125861D01*
X180494921Y-122340100D01*
X180637842Y-122550017D01*
X180797328Y-122755261D01*
X180972921Y-122955479D01*
X181164158Y-123150322D01*
X181370581Y-123339437D01*
X181591727Y-123522473D01*
X181827138Y-123699078D01*
X182076351Y-123868901D01*
X182338907Y-124031590D01*
X182614345Y-124186794D01*
X182902205Y-124334161D01*
X183202025Y-124473340D01*
X183513346Y-124603979D01*
X183761167Y-124695693D01*
X184039465Y-124789019D01*
X184643894Y-124984121D01*
X184948225Y-125087705D01*
X185239434Y-125196515D01*
X185376712Y-125253162D01*
X185506621Y-125311454D01*
X185627801Y-125371504D01*
X185738887Y-125433426D01*
X185905782Y-125538642D01*
X186062908Y-125649133D01*
X186210558Y-125764330D01*
X186349025Y-125883660D01*
X186478601Y-126006550D01*
X186599579Y-126132431D01*
X186712252Y-126260728D01*
X186816913Y-126390872D01*
X186913855Y-126522289D01*
X187003370Y-126654409D01*
X187085751Y-126786659D01*
X187161291Y-126918468D01*
X187230283Y-127049264D01*
X187293020Y-127178475D01*
X187349794Y-127305529D01*
X187400899Y-127429855D01*
X187421395Y-127486295D01*
X187437902Y-127541235D01*
X187450514Y-127594617D01*
X187459330Y-127646383D01*
X187464445Y-127696477D01*
X187465955Y-127744842D01*
X187463958Y-127791421D01*
X187458548Y-127836157D01*
X187449824Y-127878992D01*
X187437881Y-127919871D01*
X187422815Y-127958735D01*
X187404724Y-127995528D01*
X187383703Y-128030192D01*
X187359849Y-128062672D01*
X187333258Y-128092909D01*
X187304026Y-128120847D01*
X187272251Y-128146428D01*
X187238028Y-128169597D01*
X187201454Y-128190295D01*
X187162625Y-128208465D01*
X187121638Y-128224051D01*
X187078589Y-128236996D01*
X187033574Y-128247243D01*
X186986691Y-128254734D01*
X186938034Y-128259413D01*
X186887701Y-128261222D01*
X186835788Y-128260105D01*
X186782392Y-128256004D01*
X186727608Y-128248863D01*
X186671534Y-128238625D01*
X186614266Y-128225232D01*
X186555899Y-128208628D01*
X185986199Y-128037518D01*
X185339769Y-127856203D01*
X184635677Y-127675152D01*
X183892991Y-127504831D01*
X183130777Y-127355706D01*
X182748307Y-127292364D01*
X182368104Y-127238246D01*
X181992553Y-127194661D01*
X181624038Y-127162917D01*
X181264942Y-127144323D01*
X180917647Y-127140187D01*
X180790400Y-127144604D01*
X180655323Y-127154840D01*
X180513542Y-127170193D01*
X180366181Y-127189960D01*
X180059224Y-127239929D01*
X179743458Y-127299129D01*
X179121517Y-127422744D01*
X178833352Y-127475922D01*
X178572396Y-127515857D01*
X178427071Y-127533269D01*
X178284239Y-127547876D01*
X178006343Y-127569187D01*
X177739299Y-127580812D01*
X177483700Y-127583770D01*
X177240137Y-127579082D01*
X177009201Y-127567768D01*
X176791484Y-127550848D01*
X176587578Y-127529343D01*
X176527427Y-127523273D01*
X176469231Y-127519607D01*
X176413058Y-127518307D01*
X176358975Y-127519335D01*
X176307047Y-127522654D01*
X176257342Y-127528227D01*
X176209926Y-127536016D01*
X176164866Y-127545984D01*
X176122227Y-127558093D01*
X176082078Y-127572306D01*
X176044484Y-127588585D01*
X176009512Y-127606893D01*
X175977229Y-127627192D01*
X175947700Y-127649445D01*
X175920994Y-127673615D01*
X175897176Y-127699664D01*
X175876313Y-127727554D01*
X175858471Y-127757249D01*
X175843717Y-127788710D01*
X175832119Y-127821900D01*
X175823741Y-127856782D01*
X175818651Y-127893319D01*
X175816916Y-127931472D01*
X175818602Y-127971205D01*
X175823776Y-128012480D01*
X175832504Y-128055259D01*
X175844852Y-128099505D01*
X175860888Y-128145181D01*
X175880678Y-128192249D01*
X175904289Y-128240672D01*
X175931787Y-128290412D01*
X175963239Y-128341432D01*
X176099975Y-128542916D01*
X176242088Y-128734322D01*
X176388863Y-128915875D01*
X176539584Y-129087799D01*
X176693537Y-129250321D01*
X176850007Y-129403664D01*
X177008279Y-129548054D01*
X177167637Y-129683716D01*
X177327368Y-129810876D01*
X177486755Y-129929758D01*
X177645085Y-130040587D01*
X177801641Y-130143589D01*
X177955710Y-130238988D01*
X178106576Y-130327010D01*
X178253523Y-130407880D01*
X178395838Y-130481822D01*
X178510963Y-130535990D01*
X178635738Y-130587582D01*
X178768893Y-130636631D01*
X178909158Y-130683169D01*
X179055261Y-130727229D01*
X179205932Y-130768842D01*
X179515896Y-130844859D01*
X179828885Y-130911478D01*
X180134734Y-130968959D01*
X180423278Y-131017561D01*
X180684352Y-131057540D01*
X181302567Y-131157463D01*
X181895175Y-131271676D01*
X182462713Y-131399395D01*
X183005715Y-131539837D01*
X183524718Y-131692219D01*
X184020258Y-131855757D01*
X184492871Y-132029669D01*
X184943093Y-132213170D01*
X185371459Y-132405477D01*
X185778505Y-132605807D01*
X186164767Y-132813377D01*
X186530782Y-133027403D01*
X186877085Y-133247102D01*
X187204211Y-133471690D01*
X187512697Y-133700385D01*
X187803079Y-133932402D01*
X188075893Y-134166959D01*
X188331674Y-134403272D01*
X188570958Y-134640558D01*
X188794281Y-134878033D01*
X189195188Y-135350418D01*
X189538683Y-135814160D01*
X189829052Y-136262993D01*
X190070582Y-136690649D01*
X190267561Y-137090862D01*
X190424275Y-137457365D01*
X190445265Y-137513433D01*
X190462858Y-137567238D01*
X190477121Y-137618750D01*
X190488120Y-137667941D01*
X190495919Y-137714782D01*
X190500586Y-137759245D01*
X190502185Y-137801301D01*
X190500783Y-137840922D01*
X190496445Y-137878079D01*
X190489237Y-137912743D01*
X190479226Y-137944886D01*
X190466476Y-137974479D01*
X190451055Y-138001494D01*
X190433027Y-138025902D01*
X190412458Y-138047674D01*
X190389415Y-138066782D01*
X190363962Y-138083198D01*
X190336167Y-138096893D01*
X190306094Y-138107837D01*
X190273810Y-138116004D01*
X190239381Y-138121363D01*
X190202871Y-138123886D01*
X190164348Y-138123546D01*
X190123877Y-138120313D01*
X190081524Y-138114158D01*
X190037354Y-138105054D01*
X189991433Y-138092971D01*
X189943828Y-138077881D01*
X189894604Y-138059755D01*
X189843827Y-138038565D01*
X189791562Y-138014283D01*
X189737876Y-137986878D01*
X188979582Y-137610019D01*
X188035462Y-137208370D01*
X187498053Y-137009843D01*
X186919388Y-136819031D01*
X186301202Y-136640573D01*
X185645230Y-136479105D01*
X184953204Y-136339266D01*
X184226858Y-136225693D01*
X183467927Y-136143024D01*
X182678144Y-136095896D01*
X181859243Y-136088948D01*
X181012958Y-136126816D01*
X180141023Y-136214138D01*
X179245171Y-136355553D01*
X178986372Y-136408020D01*
X178700570Y-136471887D01*
X178083781Y-136617506D01*
X177466445Y-136759789D01*
X177179960Y-136819485D01*
X176920203Y-136866115D01*
X176494197Y-136925148D01*
X176079697Y-136965353D01*
X175676618Y-136987545D01*
X175284878Y-136992539D01*
X174904392Y-136981153D01*
X174535076Y-136954200D01*
X174176847Y-136912497D01*
X173829621Y-136856859D01*
X173493314Y-136788102D01*
X173167842Y-136707042D01*
X172853122Y-136614493D01*
X172549070Y-136511271D01*
X172255602Y-136398193D01*
X171972634Y-136276073D01*
X171700082Y-136145727D01*
X171437863Y-136007971D01*
X171185893Y-135863620D01*
X170944088Y-135713490D01*
X170712364Y-135558397D01*
X170490638Y-135399155D01*
X170076843Y-135071490D01*
X169702034Y-134737020D01*
X169365539Y-134402269D01*
X169066688Y-134073761D01*
X168804811Y-133758022D01*
X168579238Y-133461576D01*
X168543281Y-133413540D01*
X168508015Y-133368931D01*
X168473465Y-133327752D01*
X168439657Y-133290007D01*
X168406618Y-133255700D01*
X168374373Y-133224833D01*
X168342949Y-133197412D01*
X168312371Y-133173438D01*
X168282666Y-133152917D01*
X168253859Y-133135850D01*
X168225977Y-133122243D01*
X168199045Y-133112098D01*
X168173089Y-133105419D01*
X168148136Y-133102209D01*
X168124211Y-133102473D01*
X168101341Y-133106213D01*
X168079551Y-133113434D01*
X168058868Y-133124138D01*
X168039317Y-133138330D01*
X168020924Y-133156013D01*
X168003716Y-133177190D01*
X167987718Y-133201866D01*
X167972957Y-133230043D01*
X167959459Y-133261725D01*
X167947248Y-133296916D01*
X167936352Y-133335620D01*
X167926797Y-133377839D01*
X167918608Y-133423578D01*
X167911811Y-133472840D01*
X167906433Y-133525628D01*
X167902499Y-133581947D01*
X167900036Y-133641799D01*
X167889802Y-134151085D01*
X167888685Y-134617891D01*
X167896576Y-135044743D01*
X167913366Y-135434164D01*
X167938945Y-135788680D01*
X167973204Y-136110814D01*
X168016033Y-136403091D01*
X168067323Y-136668035D01*
X168126964Y-136908171D01*
X168194847Y-137126022D01*
X168270863Y-137324115D01*
X168354902Y-137504972D01*
X168446855Y-137671118D01*
X168546612Y-137825078D01*
X168654063Y-137969376D01*
X168769100Y-138106537D01*
X169021492Y-138369542D01*
X169302913Y-138634290D01*
X169612485Y-138920975D01*
X169949335Y-139249793D01*
X170312587Y-139640938D01*
X170503839Y-139866195D01*
X170701364Y-140114607D01*
X170905051Y-140388698D01*
X171114792Y-140690993D01*
X171330476Y-141024016D01*
X171551995Y-141390292D01*
X171682575Y-141619897D01*
X171822231Y-141877405D01*
X171966185Y-142154326D01*
X172109657Y-142442168D01*
X172247867Y-142732440D01*
X172376036Y-143016651D01*
X172489383Y-143286308D01*
X172583130Y-143532921D01*
X172691165Y-143857937D01*
X172782635Y-144175707D01*
X172858172Y-144486240D01*
X172918410Y-144789541D01*
X172963982Y-145085618D01*
X172995522Y-145374480D01*
X173013662Y-145656132D01*
X173019036Y-145930582D01*
X173012277Y-146197838D01*
X172994018Y-146457906D01*
X172964892Y-146710794D01*
X172925532Y-146956510D01*
X172876572Y-147195060D01*
X172818645Y-147426451D01*
X172752383Y-147650692D01*
X172678421Y-147867789D01*
X172597391Y-148077749D01*
X172509927Y-148280580D01*
X172416661Y-148476289D01*
X172318227Y-148664884D01*
X172215258Y-148846371D01*
X172108387Y-149020758D01*
X171885472Y-149348260D01*
X171654548Y-149647449D01*
X171420681Y-149918382D01*
X171188935Y-150161118D01*
X170964377Y-150375714D01*
X170919568Y-150415295D01*
X170875998Y-150450991D01*
X170833704Y-150482849D01*
X170792721Y-150510916D01*
X170753084Y-150535237D01*
X170714829Y-150555859D01*
X170677991Y-150572828D01*
X170642606Y-150586191D01*
X170608709Y-150595993D01*
X170576335Y-150602282D01*
X170545521Y-150605103D01*
X170516300Y-150604502D01*
X170488710Y-150600527D01*
X170462785Y-150593223D01*
X170438561Y-150582636D01*
X170416073Y-150568813D01*
X170395356Y-150551800D01*
X170376447Y-150531643D01*
X170359380Y-150508389D01*
X170344190Y-150482084D01*
X170330915Y-150452775D01*
X170319588Y-150420506D01*
X170310245Y-150385326D01*
X170302922Y-150347279D01*
X170297654Y-150306413D01*
X170294477Y-150262774D01*
X170293426Y-150216408D01*
X170294536Y-150167361D01*
X170297843Y-150115679D01*
X170303382Y-150061409D01*
X170311189Y-150004598D01*
X170321299Y-149945291D01*
X170378073Y-149601197D01*
X170423060Y-149227117D01*
X170451137Y-148828211D01*
X170457186Y-148409638D01*
X170436086Y-147976557D01*
X170382716Y-147534129D01*
X170342329Y-147311022D01*
X170291955Y-147087513D01*
X170230953Y-146864247D01*
X170158684Y-146641868D01*
X170074506Y-146421023D01*
X169977781Y-146202355D01*
X169867868Y-145986510D01*
X169744126Y-145774133D01*
X169605917Y-145565869D01*
X169452600Y-145362362D01*
X169283534Y-145164258D01*
X169098080Y-144972201D01*
X168895598Y-144786837D01*
X168675448Y-144608810D01*
X168436989Y-144438765D01*
X168179581Y-144277349D01*
X167902585Y-144125204D01*
X167605361Y-143982976D01*
X167287268Y-143851311D01*
X166947666Y-143730854D01*
X166694841Y-143655739D01*
X166411487Y-143583153D01*
X166107704Y-143512482D01*
X165793596Y-143443113D01*
X165174815Y-143305826D01*
X164890347Y-143236680D01*
X164635964Y-143166383D01*
X164270607Y-143048417D01*
X163919983Y-142919541D01*
X163583791Y-142780378D01*
X163261732Y-142631551D01*
X162953506Y-142473686D01*
X162658813Y-142307405D01*
X162377353Y-142133332D01*
X162108827Y-141952092D01*
X161852934Y-141764308D01*
X161609374Y-141570604D01*
X161377848Y-141371605D01*
X161158057Y-141167933D01*
X160949699Y-140960213D01*
X160752475Y-140749069D01*
X160390231Y-140319004D01*
X160068926Y-139882728D01*
X159786160Y-139445233D01*
X159539535Y-139011509D01*
X159326653Y-138586548D01*
X159145114Y-138175341D01*
X158992519Y-137782879D01*
X158866470Y-137414154D01*
X158764568Y-137074155D01*
X158747557Y-137016512D01*
X158729731Y-136962211D01*
X158711129Y-136911271D01*
X158691791Y-136863712D01*
X158671755Y-136819553D01*
X158651060Y-136778812D01*
X158629745Y-136741508D01*
X158607849Y-136707661D01*
X158585411Y-136677289D01*
X158562470Y-136650411D01*
X158539064Y-136627047D01*
X158515233Y-136607216D01*
X158491015Y-136590935D01*
X158466450Y-136578226D01*
X158441577Y-136569105D01*
X158416433Y-136563594D01*
X158391059Y-136561709D01*
X158365494Y-136563471D01*
X158339775Y-136568899D01*
X158313942Y-136578011D01*
X158288035Y-136590826D01*
X158262091Y-136607364D01*
X158236150Y-136627643D01*
X158210251Y-136651683D01*
X158184432Y-136679502D01*
X158158733Y-136711120D01*
X158133192Y-136746555D01*
X158107849Y-136785826D01*
X158082743Y-136828953D01*
X158057911Y-136875955D01*
X158033394Y-136926850D01*
X158009230Y-136981657D01*
X157893333Y-137268357D01*
X157792473Y-137543427D01*
X157705969Y-137807637D01*
X157633146Y-138061756D01*
X157573323Y-138306554D01*
X157525823Y-138542800D01*
X157489968Y-138771265D01*
X157465080Y-138992718D01*
X157450479Y-139207929D01*
X157445489Y-139417667D01*
X157449430Y-139622702D01*
X157461624Y-139823803D01*
X157508060Y-140217286D01*
X157579371Y-140604271D01*
X157670130Y-140990916D01*
X157774911Y-141383379D01*
X158004835Y-142210389D01*
X158119127Y-142657250D01*
X158225736Y-143134558D01*
X158319238Y-143648472D01*
X158394205Y-144205147D01*
X158418982Y-144468458D01*
X158438088Y-144761552D01*
X158449639Y-145074185D01*
X158451754Y-145396115D01*
X158442547Y-145717099D01*
X158433111Y-145874036D01*
X158420138Y-146026895D01*
X158403394Y-146174397D01*
X158382642Y-146315260D01*
X158357649Y-146448206D01*
X158328177Y-146571952D01*
X158268211Y-146772741D01*
X158198582Y-146964620D01*
X158119765Y-147147789D01*
X158032239Y-147322452D01*
X157936479Y-147488810D01*
X157832962Y-147647064D01*
X157722166Y-147797417D01*
X157604567Y-147940069D01*
X157480642Y-148075223D01*
X157350867Y-148203080D01*
X157215720Y-148323842D01*
X157075676Y-148437712D01*
X156931214Y-148544889D01*
X156782810Y-148645577D01*
X156476080Y-148828290D01*
X156159303Y-148987464D01*
X155836293Y-149124714D01*
X155510863Y-149241652D01*
X155186827Y-149339893D01*
X154868001Y-149421050D01*
X154558198Y-149486737D01*
X154261232Y-149538567D01*
X153980918Y-149578155D01*
X153920459Y-149584035D01*
X153861344Y-149586383D01*
X153803624Y-149585290D01*
X153747347Y-149580849D01*
X153692562Y-149573150D01*
X153639318Y-149562286D01*
X153587665Y-149548348D01*
X153537652Y-149531427D01*
X153489327Y-149511616D01*
X153442741Y-149489006D01*
X153397941Y-149463687D01*
X153354977Y-149435753D01*
X153313898Y-149405295D01*
X153274754Y-149372404D01*
X153237593Y-149337171D01*
X153202465Y-149299689D01*
X153169418Y-149260049D01*
X153138502Y-149218343D01*
X153109765Y-149174662D01*
X153083258Y-149129098D01*
X153059029Y-149081743D01*
X153037127Y-149032687D01*
X153017601Y-148982023D01*
X153000501Y-148929843D01*
X152985875Y-148876237D01*
X152973773Y-148821298D01*
X152964243Y-148765117D01*
X152957336Y-148707786D01*
X152953099Y-148649396D01*
X152951583Y-148590039D01*
X152952835Y-148529806D01*
X152956906Y-148468790D01*
X152979267Y-148175368D01*
X152993230Y-147890234D01*
X152999082Y-147613119D01*
X152997112Y-147343755D01*
X152987607Y-147081873D01*
X152970856Y-146827204D01*
X152947146Y-146579480D01*
X152916765Y-146338431D01*
X152880002Y-146103789D01*
X152837143Y-145875286D01*
X152734294Y-145435619D01*
X152610520Y-145017279D01*
X152468125Y-144618119D01*
X152309413Y-144235987D01*
X152136687Y-143868733D01*
X151952250Y-143514208D01*
X151758406Y-143170263D01*
X151557458Y-142834746D01*
X151351709Y-142505509D01*
X150935024Y-141857273D01*
X150793988Y-141633895D01*
X150641412Y-141383797D01*
X150482815Y-141115020D01*
X150323715Y-140835610D01*
X150169632Y-140553610D01*
X150026085Y-140277063D01*
X149898592Y-140014014D01*
X149792672Y-139772507D01*
X149718043Y-139584731D01*
X149647998Y-139397931D01*
X149582391Y-139212436D01*
X149521078Y-139028577D01*
X149410752Y-138667087D01*
X149315858Y-138316103D01*
X149235233Y-137978265D01*
X149167717Y-137656216D01*
X149112147Y-137352596D01*
X149067362Y-137070049D01*
X149037915Y-136856515D01*
X149032994Y-136814801D01*
X149036066Y-136856819D01*
X149047569Y-137072143D01*
X149063189Y-137577890D01*
X149064454Y-138067242D01*
X149052002Y-138540435D01*
X149026470Y-138997701D01*
X148988497Y-139439275D01*
X148938719Y-139865391D01*
X148877774Y-140276282D01*
X148806301Y-140672183D01*
X148724936Y-141053327D01*
X148634318Y-141419949D01*
X148535084Y-141772282D01*
X148427872Y-142110560D01*
X148313320Y-142435018D01*
X148192065Y-142745889D01*
X148064745Y-143043406D01*
X147931998Y-143327805D01*
X147794461Y-143599319D01*
X147652772Y-143858182D01*
X147507568Y-144104628D01*
X147359488Y-144338891D01*
X147209170Y-144561204D01*
X147057250Y-144771802D01*
X146751157Y-145158788D01*
X146446311Y-145501720D01*
X146147815Y-145802469D01*
X145860769Y-146062908D01*
X145590275Y-146284907D01*
X145542273Y-146320746D01*
X145495279Y-146352583D01*
X145449331Y-146380476D01*
X145404470Y-146404487D01*
X145360736Y-146424675D01*
X145318169Y-146441100D01*
X145276809Y-146453822D01*
X145236697Y-146462900D01*
X145197871Y-146468394D01*
X145160373Y-146470365D01*
X145124242Y-146468872D01*
X145089519Y-146463975D01*
X145056243Y-146455734D01*
X145024455Y-146444208D01*
X144994194Y-146429458D01*
X144965501Y-146411543D01*
X144938417Y-146390524D01*
X144912980Y-146366460D01*
X144889231Y-146339410D01*
X144867210Y-146309436D01*
X144846957Y-146276596D01*
X144828513Y-146240950D01*
X144811916Y-146202559D01*
X144797209Y-146161483D01*
X144784429Y-146117780D01*
X144773618Y-146071511D01*
X144764816Y-146022736D01*
X144758063Y-145971515D01*
X144753398Y-145917907D01*
X144750862Y-145861973D01*
X144750495Y-145803772D01*
X144752337Y-145743363D01*
X144759338Y-145393816D01*
X144747359Y-145055574D01*
X144718256Y-144727982D01*
X144673885Y-144410389D01*
X144616104Y-144102139D01*
X144546768Y-143802580D01*
X144467735Y-143511058D01*
X144380860Y-143226919D01*
X143626369Y-141141177D01*
X143590553Y-141018812D01*
X143557653Y-140887048D01*
X143527854Y-140747211D01*
X143501340Y-140600629D01*
X143478298Y-140448628D01*
X143458912Y-140292536D01*
X143443367Y-140133677D01*
X143431850Y-139973381D01*
X143424544Y-139812972D01*
X143421635Y-139653779D01*
X143423309Y-139497127D01*
X143429750Y-139344344D01*
X143441144Y-139196756D01*
X143457677Y-139055690D01*
X143479532Y-138922473D01*
X143506896Y-138798432D01*
X143539938Y-138675123D01*
X143576032Y-138553223D01*
X143614947Y-138432849D01*
X143656454Y-138314122D01*
X143700320Y-138197160D01*
X143746317Y-138082085D01*
X143794212Y-137969014D01*
X143843775Y-137858068D01*
X143946984Y-137643028D01*
X144054097Y-137437921D01*
X144163268Y-137243702D01*
X144272653Y-137061328D01*
X144303380Y-137009129D01*
X144330824Y-136957389D01*
X144355028Y-136906246D01*
X144376032Y-136855837D01*
X144393879Y-136806300D01*
X144408609Y-136757773D01*
X144420265Y-136710392D01*
X144428888Y-136664296D01*
X144434519Y-136619623D01*
X144437200Y-136576508D01*
X144436972Y-136535091D01*
X144433877Y-136495509D01*
X144427956Y-136457899D01*
X144419251Y-136422399D01*
X144407803Y-136389146D01*
X144393654Y-136358279D01*
X144376845Y-136329934D01*
X144357417Y-136304249D01*
X144335413Y-136281361D01*
X144310874Y-136261409D01*
X144283841Y-136244530D01*
X144254355Y-136230861D01*
X144222459Y-136220540D01*
X144188193Y-136213704D01*
X144151600Y-136210491D01*
X144112720Y-136211039D01*
X144071595Y-136215484D01*
X144028267Y-136223966D01*
X143982777Y-136236620D01*
X143935166Y-136253586D01*
X143885477Y-136274999D01*
X143833750Y-136300999D01*
X143736996Y-136355038D01*
X143640968Y-136412553D01*
X143545926Y-136473078D01*
X143452129Y-136536144D01*
X143359837Y-136601284D01*
X143269311Y-136668031D01*
X143180811Y-136735917D01*
X143094596Y-136804475D01*
X142998125Y-136887310D01*
X142900590Y-136980129D01*
X142802487Y-137081786D01*
X142704308Y-137191137D01*
X142606547Y-137307039D01*
X142509697Y-137428347D01*
X142414253Y-137553917D01*
X142320707Y-137682605D01*
X142141286Y-137944758D01*
X141975381Y-138205652D01*
X141826940Y-138456134D01*
X141699913Y-138687051D01*
X141460520Y-139129402D01*
X141218526Y-139554146D01*
X140974284Y-139961639D01*
X140728148Y-140352234D01*
X140480471Y-140726286D01*
X140231606Y-141084149D01*
X139981906Y-141426178D01*
X139731725Y-141752726D01*
X139231330Y-142360801D01*
X138733249Y-142911208D01*
X138240307Y-143406783D01*
X137755329Y-143850361D01*
X137281143Y-144244776D01*
X136820573Y-144592864D01*
X136376445Y-144897459D01*
X135951586Y-145161398D01*
X135548822Y-145387514D01*
X135170978Y-145578644D01*
X134820880Y-145737622D01*
X134501355Y-145867282D01*
X134445015Y-145887566D01*
X134390982Y-145904511D01*
X134339292Y-145918187D01*
X134289980Y-145928662D01*
X134243080Y-145936004D01*
X134198628Y-145940282D01*
X134156659Y-145941565D01*
X134117208Y-145939921D01*
X134080310Y-145935419D01*
X134046000Y-145928127D01*
X134014314Y-145918114D01*
X133985287Y-145905449D01*
X133958953Y-145890201D01*
X133935347Y-145872436D01*
X133914506Y-145852226D01*
X133896464Y-145829637D01*
X133881256Y-145804739D01*
X133868917Y-145777600D01*
X133859482Y-145748288D01*
X133852987Y-145716873D01*
X133849467Y-145683423D01*
X133848956Y-145648006D01*
X133851490Y-145610692D01*
X133857104Y-145571548D01*
X133865833Y-145530643D01*
X133877712Y-145488046D01*
X133892777Y-145443825D01*
X133911062Y-145398050D01*
X133932602Y-145350788D01*
X133957434Y-145302108D01*
X133985591Y-145252079D01*
X134017108Y-145200769D01*
X134408994Y-144574710D01*
X134846430Y-143841771D01*
X135304595Y-143027200D01*
X135758667Y-142156244D01*
X135976411Y-141707511D01*
X136183823Y-141254150D01*
X136377800Y-140799317D01*
X136555240Y-140346167D01*
X136713040Y-139897856D01*
X136848096Y-139457540D01*
X136957307Y-139028375D01*
X137037569Y-138613518D01*
X137053831Y-138487494D01*
X137064449Y-138352781D01*
X137070104Y-138210606D01*
X137071478Y-138062194D01*
X137064110Y-137751566D01*
X137047795Y-137430706D01*
X137010131Y-136797529D01*
X136999686Y-136504830D01*
X136998945Y-136368745D01*
X137002101Y-136241137D01*
X137017717Y-135990074D01*
X137042213Y-135742085D01*
X137074891Y-135497605D01*
X137115051Y-135257071D01*
X137161994Y-135020917D01*
X137215023Y-134789582D01*
X137273437Y-134563499D01*
X137336539Y-134343106D01*
X137403630Y-134128837D01*
X137474011Y-133921130D01*
X137546983Y-133720420D01*
X137621847Y-133527143D01*
X137774458Y-133164633D01*
X137926253Y-132837085D01*
X137951542Y-132782151D01*
X137973744Y-132728300D01*
X137992889Y-132675614D01*
X138009003Y-132624172D01*
X138022113Y-132574056D01*
X138032246Y-132525347D01*
X138039431Y-132478126D01*
X138043694Y-132432474D01*
X138045063Y-132388473D01*
X138043564Y-132346202D01*
X138039225Y-132305743D01*
X138032074Y-132267177D01*
X138022137Y-132230585D01*
X138009443Y-132196048D01*
X137994017Y-132163647D01*
X137975888Y-132133463D01*
X137955083Y-132105577D01*
X137931629Y-132080070D01*
X137905554Y-132057023D01*
X137876884Y-132036517D01*
X137845646Y-132018633D01*
X137811870Y-132003452D01*
X137775580Y-131991055D01*
X137736806Y-131981522D01*
X137695573Y-131974936D01*
X137651910Y-131971377D01*
X137605843Y-131970926D01*
X137557400Y-131973663D01*
X137506609Y-131979671D01*
X137453496Y-131989029D01*
X137398089Y-132001820D01*
X137340414Y-132018123D01*
X137056972Y-132114353D01*
X136782224Y-132225391D01*
X136515418Y-132350573D01*
X136255802Y-132489235D01*
X136002621Y-132640710D01*
X135755124Y-132804334D01*
X135274166Y-133165371D01*
X134806904Y-133567026D01*
X134347314Y-134003980D01*
X133889372Y-134470914D01*
X133427054Y-134962509D01*
X132465195Y-135998404D01*
X131953605Y-136532066D01*
X131413543Y-137069113D01*
X130838985Y-137604225D01*
X130223907Y-138132083D01*
X129562285Y-138647369D01*
X128848094Y-139144762D01*
X128625207Y-139286411D01*
X128374477Y-139437743D01*
X128104265Y-139593771D01*
X127822931Y-139749506D01*
X127538837Y-139899961D01*
X127260344Y-140040147D01*
X126995811Y-140165076D01*
X126753601Y-140269762D01*
X126440913Y-140390900D01*
X126130514Y-140499224D01*
X125822607Y-140595189D01*
X125517397Y-140679251D01*
X125215089Y-140751866D01*
X124915889Y-140813488D01*
X124620000Y-140864573D01*
X124327628Y-140905578D01*
X123754253Y-140959163D01*
X123197401Y-140977889D01*
X122658712Y-140965397D01*
X122139824Y-140925332D01*
X121642376Y-140861338D01*
X121168005Y-140777057D01*
X120718350Y-140676134D01*
X120295050Y-140562211D01*
X119899743Y-140438932D01*
X119534068Y-140309941D01*
X119199663Y-140178882D01*
X118898167Y-140049397D01*
X118843939Y-140023962D01*
X118793655Y-139998068D01*
X118747297Y-139971773D01*
X118704844Y-139945136D01*
X118666276Y-139918215D01*
X118631573Y-139891068D01*
X118600715Y-139863754D01*
X118573683Y-139836332D01*
X118550457Y-139808858D01*
X118531016Y-139781393D01*
X118515341Y-139753994D01*
X118503412Y-139726719D01*
X118495210Y-139699627D01*
X118490713Y-139672777D01*
X118489903Y-139646226D01*
X118492759Y-139620034D01*
X118499262Y-139594258D01*
X118509391Y-139568956D01*
X118523128Y-139544188D01*
X118540451Y-139520011D01*
X118561341Y-139496484D01*
X118585778Y-139473666D01*
X118613743Y-139451614D01*
X118645215Y-139430386D01*
X118680175Y-139410043D01*
X118718602Y-139390641D01*
X118760477Y-139372239D01*
X118805780Y-139354895D01*
X118854491Y-139338668D01*
X118906590Y-139323617D01*
X118962058Y-139309799D01*
X119020874Y-139297273D01*
X119944712Y-139096807D01*
X120467873Y-138965655D01*
X121019783Y-138812313D01*
X121591383Y-138635598D01*
X122173615Y-138434328D01*
X122757420Y-138207321D01*
X123333739Y-137953394D01*
X123893515Y-137671364D01*
X124427687Y-137360049D01*
X124682341Y-137193040D01*
X124927198Y-137018266D01*
X125161124Y-136835580D01*
X125382988Y-136644833D01*
X125591657Y-136445878D01*
X125785999Y-136238566D01*
X125964882Y-136022751D01*
X126127173Y-135798285D01*
X126271740Y-135565018D01*
X126397450Y-135322805D01*
X126503172Y-135071496D01*
X126587772Y-134810944D01*
X126617123Y-134687726D01*
X126639990Y-134555202D01*
X126657033Y-134414658D01*
X126668909Y-134267376D01*
X126676276Y-134114642D01*
X126679793Y-133957740D01*
X126677907Y-133636565D01*
X126656883Y-133000700D01*
X126648274Y-132706556D01*
X126647953Y-132441969D01*
X126671589Y-131933197D01*
X126717815Y-131436183D01*
X126784551Y-130951784D01*
X126869720Y-130480856D01*
X126971242Y-130024254D01*
X127087039Y-129582834D01*
X127215031Y-129157453D01*
X127353139Y-128748966D01*
X127499286Y-128358229D01*
X127651392Y-127986099D01*
X127807378Y-127633430D01*
X127965165Y-127301080D01*
X128053486Y-127126593D01*
X127273978Y-128381285D01*
X127130431Y-128602755D01*
X126963684Y-128842606D01*
X126778571Y-129091975D01*
X126680637Y-129217459D01*
X126579922Y-129341999D01*
X126477032Y-129464488D01*
X126372570Y-129583817D01*
X126267140Y-129698879D01*
X126161345Y-129808566D01*
X126055791Y-129911769D01*
X125951080Y-130007382D01*
X125847817Y-130094296D01*
X125746606Y-130171404D01*
X125498224Y-130341345D01*
X125247370Y-130496876D01*
X124994939Y-130638621D01*
X124741826Y-130767204D01*
X124488927Y-130883250D01*
X124237136Y-130987382D01*
X123987350Y-131080225D01*
X123740462Y-131162402D01*
X123497370Y-131234539D01*
X123258967Y-131297258D01*
X123026149Y-131351184D01*
X122799811Y-131396942D01*
X122580849Y-131435155D01*
X122370157Y-131466448D01*
X121977167Y-131510768D01*
X121917426Y-131514998D01*
X121860860Y-131516722D01*
X121807462Y-131515995D01*
X121757227Y-131512870D01*
X121710149Y-131507401D01*
X121666221Y-131499643D01*
X121625439Y-131489649D01*
X121587796Y-131477474D01*
X121553286Y-131463171D01*
X121521903Y-131446793D01*
X121493642Y-131428396D01*
X121468497Y-131408034D01*
X121446461Y-131385759D01*
X121427529Y-131361626D01*
X121411695Y-131335689D01*
X121398954Y-131308003D01*
X121389298Y-131278620D01*
X121382722Y-131247595D01*
X121379222Y-131214983D01*
X121378789Y-131180836D01*
X121381419Y-131145209D01*
X121387106Y-131108155D01*
X121395844Y-131069730D01*
X121407627Y-131029986D01*
X121422449Y-130988978D01*
X121440304Y-130946760D01*
X121461186Y-130903385D01*
X121485090Y-130858908D01*
X121512010Y-130813382D01*
X121541939Y-130766862D01*
X121574872Y-130719402D01*
X121610802Y-130671055D01*
X121790427Y-130425546D01*
X121975965Y-130145863D01*
X122164069Y-129830990D01*
X122258037Y-129660040D01*
X122351390Y-129479911D01*
X122443711Y-129290478D01*
X122534581Y-129091612D01*
X122623581Y-128883186D01*
X122710292Y-128665074D01*
X122794297Y-128437149D01*
X122875177Y-128199284D01*
X122952513Y-127951351D01*
X123025886Y-127693225D01*
X123089641Y-127436809D01*
X123153102Y-127150400D01*
X123285036Y-126529608D01*
X123356454Y-126216224D01*
X123433468Y-125914848D01*
X123474533Y-125771944D01*
X123517551Y-125635980D01*
X123562703Y-125508267D01*
X123610175Y-125390119D01*
X123688209Y-125217980D01*
X123771986Y-125049709D01*
X123861198Y-124885293D01*
X123955537Y-124724716D01*
X124158367Y-124415029D01*
X124378011Y-124120534D01*
X124612006Y-123841121D01*
X124857890Y-123576675D01*
X125113199Y-123327086D01*
X125375471Y-123092241D01*
X125642241Y-122872028D01*
X125911048Y-122666335D01*
X126179427Y-122475049D01*
X126444916Y-122298057D01*
X126705052Y-122135249D01*
X126957371Y-121986512D01*
X127199410Y-121851733D01*
X127428707Y-121730800D01*
X127530949Y-121676235D01*
X127618534Y-121625397D01*
X127691596Y-121578721D01*
X127750265Y-121536638D01*
X127774245Y-121517455D01*
X127794676Y-121499582D01*
X127811575Y-121483074D01*
X127824959Y-121467984D01*
X127834845Y-121454368D01*
X127841249Y-121442278D01*
X127844187Y-121431770D01*
X127843676Y-121422897D01*
X127839733Y-121415713D01*
X127832374Y-121410273D01*
X127821616Y-121406630D01*
X127807475Y-121404839D01*
X127789968Y-121404953D01*
X127769112Y-121407027D01*
X127744922Y-121411115D01*
X127717416Y-121417270D01*
X127652520Y-121436002D01*
X127574558Y-121463654D01*
X127483660Y-121500660D01*
X127379960Y-121547452D01*
X127022621Y-121727788D01*
X126604113Y-121964770D01*
X126120446Y-122265882D01*
X125567631Y-122638606D01*
X124941678Y-123090429D01*
X124238597Y-123628832D01*
X123454400Y-124261301D01*
X122585096Y-124995319D01*
X121689057Y-125779641D01*
X121445967Y-125990163D01*
X121208438Y-126192350D01*
X120983063Y-126379147D01*
X120776441Y-126543498D01*
X120469515Y-126774389D01*
X120168144Y-126988587D01*
X119872362Y-127186595D01*
X119582202Y-127368917D01*
X119297697Y-127536056D01*
X119018880Y-127688514D01*
X118745785Y-127826796D01*
X118478446Y-127951404D01*
X118216896Y-128062843D01*
X117961167Y-128161614D01*
X117711294Y-128248222D01*
X117467310Y-128323169D01*
X117229248Y-128386960D01*
X116997141Y-128440097D01*
X116771023Y-128483083D01*
X116550927Y-128516422D01*
X116336887Y-128540616D01*
X116128936Y-128556171D01*
X115927107Y-128563587D01*
X115731434Y-128563370D01*
X115358688Y-128542046D01*
X115010965Y-128496224D01*
X114688532Y-128429930D01*
X114391656Y-128347192D01*
X114120603Y-128252035D01*
X113875641Y-128148484D01*
X113821876Y-128121976D01*
X113772111Y-128093726D01*
X113726309Y-128063841D01*
X113684431Y-128032429D01*
X113646440Y-127999598D01*
X113612297Y-127965456D01*
X113581965Y-127930110D01*
X113555406Y-127893668D01*
X113532582Y-127856238D01*
X113513455Y-127817928D01*
X113497987Y-127778845D01*
X113486140Y-127739098D01*
X113477876Y-127698793D01*
X113473157Y-127658038D01*
X113471945Y-127616942D01*
X113474203Y-127575612D01*
X113479892Y-127534155D01*
X113488974Y-127492680D01*
X113501412Y-127451294D01*
X113517167Y-127410105D01*
X113536202Y-127369221D01*
X113558479Y-127328749D01*
X113583959Y-127288797D01*
X113612605Y-127249474D01*
X113644379Y-127210885D01*
X113679243Y-127173140D01*
X113717159Y-127136346D01*
X113758088Y-127100611D01*
X113801994Y-127066043D01*
X113848838Y-127032748D01*
X113898582Y-127000836D01*
X113951189Y-126970413D01*
X114537661Y-126632971D01*
X114862556Y-126432386D01*
X115204464Y-126210361D01*
X115560315Y-125966747D01*
X115927041Y-125701398D01*
X116301573Y-125414163D01*
X116680840Y-125104896D01*
X117061775Y-124773449D01*
X117441306Y-124419672D01*
X117816366Y-124043418D01*
X118183885Y-123644539D01*
X118540794Y-123222887D01*
X118884023Y-122778314D01*
X119210503Y-122310671D01*
X119517165Y-121819810D01*
X119645868Y-121589419D01*
X119780679Y-121329615D01*
X120060784Y-120761171D01*
X120341805Y-120193288D01*
X120477761Y-119934185D01*
X120608068Y-119704777D01*
X120736243Y-119497736D01*
X120867175Y-119298713D01*
X121000647Y-119107551D01*
X121136445Y-118924091D01*
X121274353Y-118748175D01*
X121414158Y-118579644D01*
X121698596Y-118264106D01*
X121988038Y-117976210D01*
X122280764Y-117714690D01*
X122575053Y-117478278D01*
X122869188Y-117265708D01*
X123161446Y-117075713D01*
X123450109Y-116907027D01*
X123733457Y-116758383D01*
X124009769Y-116628515D01*
X124277325Y-116516155D01*
X124534407Y-116420037D01*
X124779293Y-116338894D01*
X125010264Y-116271460D01*
X125067803Y-116255076D01*
X125121709Y-116238382D01*
X125171978Y-116221454D01*
X125218605Y-116204368D01*
X125261584Y-116187198D01*
X125300910Y-116170019D01*
X125336579Y-116152908D01*
X125368586Y-116135940D01*
X125396924Y-116119190D01*
X125421590Y-116102733D01*
X125442579Y-116086645D01*
X125459885Y-116071001D01*
X125473503Y-116055876D01*
X125483428Y-116041346D01*
X125489656Y-116027487D01*
X125492180Y-116014372D01*
X125490997Y-116002079D01*
X125486102Y-115990682D01*
X125477488Y-115980257D01*
X125465151Y-115970878D01*
X125449087Y-115962622D01*
X125429289Y-115955564D01*
X125405754Y-115949779D01*
X125378476Y-115945342D01*
X125347449Y-115942329D01*
X125312670Y-115940815D01*
X125274132Y-115940876D01*
X125231832Y-115942586D01*
X125185763Y-115946022D01*
X125135921Y-115951258D01*
X125082301Y-115958371D01*
X125024898Y-115967434D01*
X124695917Y-116035072D01*
X124313871Y-116138548D01*
X123875225Y-116283309D01*
X123376438Y-116474804D01*
X122813974Y-116718481D01*
X122184293Y-117019789D01*
X121483858Y-117384175D01*
X120709131Y-117817089D01*
X119685296Y-118425389D01*
X119408032Y-118588256D01*
X119137441Y-118743300D01*
X118881120Y-118884450D01*
X118646665Y-119005634D01*
X118319450Y-119161197D01*
X117994950Y-119303571D01*
X117673365Y-119433194D01*
X117354891Y-119550503D01*
X117039727Y-119655936D01*
X116728071Y-119749930D01*
X116420119Y-119832922D01*
X116116071Y-119905349D01*
X115520476Y-120020258D01*
X114942867Y-120098155D01*
X114384827Y-120142536D01*
X113847939Y-120156900D01*
X113333785Y-120144744D01*
X112843947Y-120109566D01*
X112380009Y-120054864D01*
X111943553Y-119984135D01*
X111536161Y-119900877D01*
X111159416Y-119808588D01*
X110814901Y-119710765D01*
X110504197Y-119610906D01*
X110447880Y-119590776D01*
X110395521Y-119570064D01*
X110347102Y-119548819D01*
X110302605Y-119527089D01*
X110262013Y-119504922D01*
X110225306Y-119482367D01*
X110192468Y-119459473D01*
X110163480Y-119436288D01*
X110138324Y-119412860D01*
X110116982Y-119389239D01*
X110099436Y-119365472D01*
X110085668Y-119341609D01*
X110075660Y-119317698D01*
X110069395Y-119293787D01*
X110066853Y-119269924D01*
X110068018Y-119246160D01*
X110072870Y-119222541D01*
X110081393Y-119199116D01*
X110093568Y-119175935D01*
X110109377Y-119153046D01*
X110128801Y-119130496D01*
X110151824Y-119108335D01*
X110178427Y-119086611D01*
X110208592Y-119065373D01*
X110242302Y-119044670D01*
X110279537Y-119024549D01*
X110320280Y-119005059D01*
X110364513Y-118986250D01*
X110412218Y-118968168D01*
X110463378Y-118950864D01*
X110517973Y-118934385D01*
X110575986Y-118918781D01*
X110877298Y-118838216D01*
X111201429Y-118742252D01*
X111544750Y-118629737D01*
X111903633Y-118499521D01*
X112274449Y-118350454D01*
X112653571Y-118181385D01*
X113037369Y-117991164D01*
X113422215Y-117778640D01*
X113804480Y-117542662D01*
X114180536Y-117282081D01*
X114546755Y-116995745D01*
X114899508Y-116682504D01*
X115069701Y-116515435D01*
X115235167Y-116341208D01*
X115395452Y-116159680D01*
X115550103Y-115970706D01*
X115698665Y-115774143D01*
X115840687Y-115569848D01*
X115975713Y-115357675D01*
X116103291Y-115137482D01*
X116162601Y-115024504D01*
X116221663Y-114902057D01*
X116339333Y-114634250D01*
X116456873Y-114345060D01*
X116574854Y-114045483D01*
X116693848Y-113746516D01*
X116814427Y-113459156D01*
X116875489Y-113323265D01*
X116937162Y-113194399D01*
X116999517Y-113073934D01*
X117062626Y-112963243D01*
X117205939Y-112738839D01*
X117359232Y-112523707D01*
X117521899Y-112317653D01*
X117693331Y-112120482D01*
X117872920Y-111932000D01*
X118060058Y-111752013D01*
X118254138Y-111580325D01*
X118454551Y-111416743D01*
X118871947Y-111113118D01*
X119307382Y-110839582D01*
X119755994Y-110594581D01*
X120212920Y-110376557D01*
X120673296Y-110183957D01*
X121132260Y-110015225D01*
X121584949Y-109868806D01*
X122026499Y-109743143D01*
X122452047Y-109636682D01*
X122856731Y-109547868D01*
X123584053Y-109416956D01*
X123643717Y-109406420D01*
X123700886Y-109393758D01*
X123755510Y-109379041D01*
X123807539Y-109362337D01*
X123856922Y-109343718D01*
X123903609Y-109323252D01*
X123947551Y-109301009D01*
X123988696Y-109277059D01*
X124026994Y-109251472D01*
X124062396Y-109224317D01*
X124094850Y-109195665D01*
X124124307Y-109165584D01*
X124150717Y-109134144D01*
X124174029Y-109101415D01*
X124194192Y-109067468D01*
X124211157Y-109032371D01*
X124224874Y-108996194D01*
X124235291Y-108959007D01*
X124242360Y-108920880D01*
X124246029Y-108881882D01*
X124246248Y-108842083D01*
X124242967Y-108801553D01*
X124236136Y-108760362D01*
X124225705Y-108718578D01*
X124211622Y-108676273D01*
X124193839Y-108633515D01*
X124172304Y-108590374D01*
X124146968Y-108546921D01*
X124117780Y-108503224D01*
X124084690Y-108459353D01*
X124047648Y-108415379D01*
X124006603Y-108371370D01*
X123826321Y-108193078D01*
X123628179Y-108010084D01*
X123412540Y-107825302D01*
X123179766Y-107641645D01*
X122930220Y-107462027D01*
X122664263Y-107289363D01*
X122382260Y-107126566D01*
X122084571Y-106976549D01*
X121771559Y-106842228D01*
X121443587Y-106726514D01*
X121101017Y-106632323D01*
X120744211Y-106562568D01*
X120373533Y-106520163D01*
X120183105Y-106510127D01*
X119989344Y-106508021D01*
X119792296Y-106514210D01*
X119592006Y-106529057D01*
X119388520Y-106552927D01*
X119181883Y-106586184D01*
X119057068Y-106612002D01*
X118925369Y-106644592D01*
X118787785Y-106683062D01*
X118645316Y-106726522D01*
X118349715Y-106824842D01*
X118046555Y-106932420D01*
X117449526Y-107146814D01*
X117171638Y-107239365D01*
X117041346Y-107278859D01*
X116918154Y-107312642D01*
X116726768Y-107359068D01*
X116538073Y-107399522D01*
X116168899Y-107463300D01*
X115810919Y-107505547D01*
X115464419Y-107527834D01*
X115129686Y-107531734D01*
X114807007Y-107518817D01*
X114496669Y-107490655D01*
X114198958Y-107448820D01*
X113914162Y-107394883D01*
X113642566Y-107330415D01*
X113384458Y-107256989D01*
X113140125Y-107176175D01*
X112909853Y-107089546D01*
X112693929Y-106998672D01*
X112492640Y-106905125D01*
X112306272Y-106810477D01*
X112254039Y-106781590D01*
X112206020Y-106752504D01*
X112162164Y-106723248D01*
X112122423Y-106693847D01*
X112086747Y-106664327D01*
X112055088Y-106634715D01*
X112027396Y-106605038D01*
X112003621Y-106575321D01*
X111983715Y-106545591D01*
X111967628Y-106515875D01*
X111955310Y-106486199D01*
X111946714Y-106456588D01*
X111941789Y-106427070D01*
X111940486Y-106397671D01*
X111942756Y-106368417D01*
X111948550Y-106339335D01*
X111957818Y-106310450D01*
X111970512Y-106281790D01*
X111986581Y-106253380D01*
X112005977Y-106225248D01*
X112028651Y-106197419D01*
X112054553Y-106169919D01*
X112083634Y-106142776D01*
X112115844Y-106116015D01*
X112151135Y-106089663D01*
X112189457Y-106063747D01*
X112230762Y-106038291D01*
X112274999Y-106013324D01*
X112322119Y-105988871D01*
X112372074Y-105964959D01*
X112424814Y-105941613D01*
X112480289Y-105918861D01*
X112623960Y-105859400D01*
X112775697Y-105790901D01*
X112935449Y-105712748D01*
X113103160Y-105624322D01*
X113278778Y-105525006D01*
X113462249Y-105414183D01*
X113653518Y-105291233D01*
X113852533Y-105155540D01*
X114059239Y-105006486D01*
X114273583Y-104843453D01*
X114495511Y-104665823D01*
X114724970Y-104472978D01*
X114961905Y-104264302D01*
X115206263Y-104039175D01*
X115457990Y-103796981D01*
X115717032Y-103537101D01*
X115899411Y-103345961D01*
X116098667Y-103131045D01*
X116527885Y-102664397D01*
X116747883Y-102429922D01*
X116964832Y-102206183D01*
X117173750Y-102001809D01*
X117273640Y-101909580D01*
X117369654Y-101825427D01*
X117586520Y-101647673D01*
X117806631Y-101479786D01*
X118029635Y-101321501D01*
X118255179Y-101172551D01*
X118712478Y-100901590D01*
X119175708Y-100664770D01*
X119642050Y-100459957D01*
X120108682Y-100285019D01*
X120572786Y-100137822D01*
X121031541Y-100016234D01*
X121482127Y-99918121D01*
X121921725Y-99841350D01*
X122347515Y-99783789D01*
X122756675Y-99743304D01*
X123146388Y-99717763D01*
X123513831Y-99705031D01*
X124170634Y-99709468D01*
X124286206Y-99712711D01*
X124386612Y-99714235D01*
X124471828Y-99714126D01*
X124541827Y-99712473D01*
X124596582Y-99709361D01*
X124636069Y-99704878D01*
X124660261Y-99699111D01*
X124666614Y-99695773D01*
X124669133Y-99692147D01*
X124667815Y-99688244D01*
X124662658Y-99684074D01*
X124640810Y-99674978D01*
X124603564Y-99664946D01*
X124550894Y-99654066D01*
X124482773Y-99642425D01*
X124399176Y-99630109D01*
X124300077Y-99617206D01*
X124185450Y-99603803D01*
X123630868Y-99555298D01*
X122973335Y-99528475D01*
X122214784Y-99533597D01*
X121357146Y-99580928D01*
X120891773Y-99623628D01*
X120402353Y-99680730D01*
X119889127Y-99753515D01*
X119352337Y-99843267D01*
X118792224Y-99951268D01*
X118209030Y-100078802D01*
X117602996Y-100227152D01*
X116974364Y-100397600D01*
X116440841Y-100557721D01*
X115835811Y-100746285D01*
X115229582Y-100930188D01*
X114947989Y-101010047D01*
X114692460Y-101076328D01*
X114276835Y-101170105D01*
X113871689Y-101247655D01*
X113476807Y-101309631D01*
X113091971Y-101356685D01*
X112716968Y-101389468D01*
X112351580Y-101408633D01*
X111995592Y-101414832D01*
X111648788Y-101408716D01*
X111310952Y-101390937D01*
X110981869Y-101362148D01*
X110661322Y-101323000D01*
X110349095Y-101274146D01*
X110044974Y-101216237D01*
X109748741Y-101149925D01*
X109179079Y-100994701D01*
X108638383Y-100813688D01*
X108124925Y-100612104D01*
X107636980Y-100395163D01*
X107172820Y-100168081D01*
X106308947Y-99704358D01*
X105519495Y-99262657D01*
X105285310Y-99139831D01*
X105021870Y-99009576D01*
X104451411Y-98729581D01*
X104166485Y-98581240D01*
X104028930Y-98505291D01*
X103896490Y-98428272D01*
X103770544Y-98350270D01*
X103652473Y-98271374D01*
X103543659Y-98191671D01*
X103445482Y-98111249D01*
X103306540Y-97983878D01*
X103174580Y-97851261D01*
X103049439Y-97714052D01*
X102930955Y-97572905D01*
X102818966Y-97428474D01*
X102713310Y-97281415D01*
X102613825Y-97132381D01*
X102520348Y-96982028D01*
X102432717Y-96831009D01*
X102350771Y-96679979D01*
X102274347Y-96529593D01*
X102203284Y-96380505D01*
X102137418Y-96233369D01*
X102076588Y-96088840D01*
X101969388Y-95810221D01*
X101950166Y-95753364D01*
X101934382Y-95698607D01*
X101921968Y-95645978D01*
X101912856Y-95595509D01*
X101906980Y-95547231D01*
X101904272Y-95501172D01*
X101904665Y-95457365D01*
X101908092Y-95415839D01*
X101914486Y-95376625D01*
X101923780Y-95339754D01*
X101935906Y-95305255D01*
X101950798Y-95273159D01*
X101968388Y-95243497D01*
X101988609Y-95216299D01*
X102011395Y-95191596D01*
X102036677Y-95169418D01*
X102064389Y-95149795D01*
X102094463Y-95132758D01*
X102126833Y-95118338D01*
X102161431Y-95106564D01*
X102198190Y-95097468D01*
X102237043Y-95091080D01*
X102277923Y-95087430D01*
X102320763Y-95086548D01*
X102365496Y-95088466D01*
X102412053Y-95093213D01*
X102460369Y-95100820D01*
X102510377Y-95111318D01*
X102562008Y-95124736D01*
X102615196Y-95141106D01*
X102669873Y-95160458D01*
X102725973Y-95182822D01*
X103594207Y-95513309D01*
X104111278Y-95679850D01*
X104679621Y-95838783D01*
X105296212Y-95983754D01*
X105958026Y-96108408D01*
X106662042Y-96206391D01*
X107405235Y-96271348D01*
X108184582Y-96296924D01*
X108997059Y-96276765D01*
X109839643Y-96204517D01*
X110709309Y-96073824D01*
X111603036Y-95878333D01*
X112517798Y-95611688D01*
X113450573Y-95267535D01*
X114398337Y-94839520D01*
X114633185Y-94718850D01*
X114890772Y-94579641D01*
X115444001Y-94270660D01*
X115997710Y-93962691D01*
X116255896Y-93824747D01*
X116491584Y-93705848D01*
X116947339Y-93496576D01*
X117395473Y-93312421D01*
X117835842Y-93152419D01*
X118268307Y-93015607D01*
X118692726Y-92901021D01*
X119108957Y-92807697D01*
X119516861Y-92734671D01*
X119916294Y-92680980D01*
X120307118Y-92645661D01*
X120689189Y-92627749D01*
X121062367Y-92626281D01*
X121426511Y-92640293D01*
X121781480Y-92668822D01*
X122127132Y-92710904D01*
X122463327Y-92765575D01*
X122789923Y-92831871D01*
X123106778Y-92908829D01*
X123413753Y-92995485D01*
X123710704Y-93090876D01*
X123997493Y-93194038D01*
X124540014Y-93419819D01*
X125040186Y-93665119D01*
X125496881Y-93922229D01*
X125908968Y-94183440D01*
X126275319Y-94441042D01*
X126594804Y-94687325D01*
X126594845Y-94687349D01*
X126642709Y-94724386D01*
X126690312Y-94758258D01*
X126737568Y-94788968D01*
X126784394Y-94816518D01*
X126830705Y-94840911D01*
X126876418Y-94862148D01*
X126921447Y-94880233D01*
X126965710Y-94895167D01*
X127009122Y-94906953D01*
X127051598Y-94915593D01*
X127093056Y-94921090D01*
X127133409Y-94923446D01*
X127172575Y-94922664D01*
X127210469Y-94918744D01*
X127247007Y-94911692D01*
X127282105Y-94901507D01*
X127315678Y-94888193D01*
X127347644Y-94871753D01*
X127377916Y-94852188D01*
X127406412Y-94829500D01*
X127433047Y-94803693D01*
X127457737Y-94774769D01*
X127480398Y-94742730D01*
X127500946Y-94707577D01*
X127519296Y-94669315D01*
X127535365Y-94627944D01*
X127549067Y-94583468D01*
X127560321Y-94535889D01*
X127569039Y-94485209D01*
X127575140Y-94431430D01*
X127578539Y-94374555D01*
X127579151Y-94314586D01*
X127571645Y-94096753D01*
X127553528Y-93870797D01*
X127522998Y-93639237D01*
X127478255Y-93404591D01*
X127417494Y-93169380D01*
X127338915Y-92936121D01*
X127292381Y-92821011D01*
X127240716Y-92707333D01*
X127183695Y-92595403D01*
X127121093Y-92485536D01*
X127052686Y-92378046D01*
X126978247Y-92273248D01*
X126897551Y-92171457D01*
X126810373Y-92072987D01*
X126716488Y-91978155D01*
X126615671Y-91887274D01*
X126507696Y-91800660D01*
X126392338Y-91718627D01*
X126269372Y-91641490D01*
X126138573Y-91569564D01*
X125999714Y-91503163D01*
X125852572Y-91442604D01*
X125696921Y-91388200D01*
X125532535Y-91340267D01*
X125359190Y-91299118D01*
X125176659Y-91265070D01*
X125050408Y-91247723D01*
X124915375Y-91234737D01*
X124772807Y-91225547D01*
X124623949Y-91219586D01*
X124312348Y-91215086D01*
X123990540Y-91216706D01*
X123356165Y-91220186D01*
X123063533Y-91212985D01*
X122927716Y-91205167D01*
X122800560Y-91193783D01*
X122568602Y-91164378D01*
X122341192Y-91127505D01*
X122118343Y-91083506D01*
X121900065Y-91032725D01*
X121686370Y-90975503D01*
X121477270Y-90912185D01*
X121272775Y-90843111D01*
X121072897Y-90768626D01*
X120877648Y-90689072D01*
X120687039Y-90604791D01*
X120501081Y-90516127D01*
X120319787Y-90423422D01*
X119971232Y-90227261D01*
X119641465Y-90019050D01*
X119330579Y-89801530D01*
X119038664Y-89577444D01*
X118765812Y-89349533D01*
X118512115Y-89120540D01*
X118277662Y-88893207D01*
X118062547Y-88670275D01*
X117866860Y-88454486D01*
X117690694Y-88248583D01*
X117653202Y-88201891D01*
X117619462Y-88156544D01*
X117589432Y-88112581D01*
X117563068Y-88070040D01*
X117540326Y-88028960D01*
X117521165Y-87989378D01*
X117505540Y-87951334D01*
X117493409Y-87914864D01*
X117484728Y-87880008D01*
X117479455Y-87846804D01*
X117477545Y-87815289D01*
X117478957Y-87785503D01*
X117483647Y-87757484D01*
X117491571Y-87731269D01*
X117502687Y-87706897D01*
X117516951Y-87684407D01*
X117534320Y-87663837D01*
X117554752Y-87645224D01*
X117578203Y-87628607D01*
X117604629Y-87614025D01*
X117633989Y-87601515D01*
X117666238Y-87591117D01*
X117701334Y-87582867D01*
X117739233Y-87576805D01*
X117779892Y-87572969D01*
X117823268Y-87571397D01*
X117869318Y-87572127D01*
X117917999Y-87575198D01*
X117969268Y-87580647D01*
X118023081Y-87588514D01*
X118079396Y-87598835D01*
X118138168Y-87611651D01*
X118631085Y-87717952D01*
X119189207Y-87816155D01*
X119802529Y-87896866D01*
X120126763Y-87927727D01*
X120461046Y-87950692D01*
X120804126Y-87964589D01*
X121154753Y-87968242D01*
X121511676Y-87960478D01*
X121873645Y-87940123D01*
X122239409Y-87906002D01*
X122607717Y-87856941D01*
X122977319Y-87791767D01*
X123346963Y-87709306D01*
X123470413Y-87676317D01*
X123601009Y-87637278D01*
X123879656Y-87545152D01*
X124478855Y-87333425D01*
X124783456Y-87230236D01*
X125080759Y-87139771D01*
X125224181Y-87101874D01*
X125362788Y-87070234D01*
X125495582Y-87045879D01*
X125621568Y-87029832D01*
X125773389Y-87019057D01*
X125922407Y-87015499D01*
X126068615Y-87018880D01*
X126212008Y-87028923D01*
X126352580Y-87045352D01*
X126490325Y-87067887D01*
X126625238Y-87096252D01*
X126757314Y-87130170D01*
X126886546Y-87169362D01*
X127012928Y-87213552D01*
X127136456Y-87262462D01*
X127257123Y-87315814D01*
X127374924Y-87373332D01*
X127489853Y-87434737D01*
X127601905Y-87499752D01*
X127711074Y-87568101D01*
X127920738Y-87713685D01*
X128118803Y-87869272D01*
X128305221Y-88032641D01*
X128479948Y-88201573D01*
X128642938Y-88373847D01*
X128794147Y-88547245D01*
X128933528Y-88719547D01*
X129061037Y-88888533D01*
X129129745Y-88981514D01*
X129190691Y-89061547D01*
X129243813Y-89128627D01*
X129289051Y-89182747D01*
X129326345Y-89223900D01*
X129355634Y-89252082D01*
X129367258Y-89261307D01*
X129376858Y-89267286D01*
X129384427Y-89270019D01*
X129389956Y-89269505D01*
X129393439Y-89265744D01*
X129394868Y-89258734D01*
X129394235Y-89248475D01*
X129391533Y-89234967D01*
X129379890Y-89198197D01*
X129359881Y-89148418D01*
X129331442Y-89085624D01*
X129294516Y-89009810D01*
X129249040Y-88920968D01*
X129194955Y-88819093D01*
X129042483Y-88548531D01*
X128865715Y-88261790D01*
X128663571Y-87963088D01*
X128434974Y-87656646D01*
X128178846Y-87346684D01*
X127894108Y-87037421D01*
X127579683Y-86733077D01*
X127234491Y-86437872D01*
X126857456Y-86156026D01*
X126447498Y-85891757D01*
X126003540Y-85649287D01*
X125524503Y-85432835D01*
X125271494Y-85335684D01*
X125009310Y-85246620D01*
X124737817Y-85166171D01*
X124456881Y-85094863D01*
X124166367Y-85033224D01*
X123866140Y-84981783D01*
X123556064Y-84941065D01*
X123236007Y-84911599D01*
X122972429Y-84899263D01*
X122679719Y-84895856D01*
X122045862Y-84902756D01*
X121724194Y-84906527D01*
X121412355Y-84906154D01*
X121120083Y-84898369D01*
X120984329Y-84890676D01*
X120857120Y-84879904D01*
X120523588Y-84837823D01*
X120200905Y-84780940D01*
X119888917Y-84709985D01*
X119587471Y-84625686D01*
X119296414Y-84528774D01*
X119015595Y-84419979D01*
X118744859Y-84300030D01*
X118484055Y-84169656D01*
X118233029Y-84029589D01*
X117991628Y-83880557D01*
X117759700Y-83723290D01*
X117537093Y-83558518D01*
X117323652Y-83386970D01*
X117119226Y-83209377D01*
X116736806Y-82838973D01*
X116388610Y-82453143D01*
X116073415Y-82057726D01*
X115790000Y-81658558D01*
X115537141Y-81261478D01*
X115313617Y-80872324D01*
X115118205Y-80496933D01*
X114949683Y-80141144D01*
X114806829Y-79810795D01*
X114785084Y-79754702D01*
X114766853Y-79700322D01*
X114752071Y-79647703D01*
X114740674Y-79596895D01*
X114732597Y-79547944D01*
X114727775Y-79500900D01*
X114726144Y-79455810D01*
X114727640Y-79412723D01*
X114732198Y-79371686D01*
X114739753Y-79332749D01*
X114750241Y-79295959D01*
X114763598Y-79261364D01*
X114779759Y-79229013D01*
X114798659Y-79198954D01*
X114820234Y-79171235D01*
X114844419Y-79145904D01*
X114871150Y-79123010D01*
X114900362Y-79102601D01*
X114931991Y-79084724D01*
X114965973Y-79069429D01*
X115002242Y-79056763D01*
X115040734Y-79046774D01*
X115081386Y-79039511D01*
X115124131Y-79035023D01*
X115168906Y-79033356D01*
X115215646Y-79034560D01*
X115264287Y-79038682D01*
X115314764Y-79045771D01*
X115367012Y-79055876D01*
X115420968Y-79069043D01*
X115476566Y-79085322D01*
X115533743Y-79104760D01*
X116163015Y-79329104D01*
X116881191Y-79574940D01*
X117661397Y-79828614D01*
X118476760Y-80076471D01*
X119300408Y-80304856D01*
X120105468Y-80500114D01*
X120492630Y-80581054D01*
X120865067Y-80648591D01*
X121219421Y-80701018D01*
X121552333Y-80736630D01*
X121678418Y-80742430D01*
X121812580Y-80740333D01*
X121953674Y-80731370D01*
X122100553Y-80716571D01*
X122407077Y-80673589D01*
X122722981Y-80619633D01*
X123039091Y-80562950D01*
X123346235Y-80511787D01*
X123493577Y-80490853D01*
X123635239Y-80474390D01*
X123770072Y-80463431D01*
X123896930Y-80459005D01*
X124278741Y-80464306D01*
X124691052Y-80484118D01*
X125588740Y-80561609D01*
X126553121Y-80680142D01*
X127547322Y-80828381D01*
X128534468Y-80994990D01*
X129477685Y-81168632D01*
X131084837Y-81491670D01*
X131145075Y-81502813D01*
X131205081Y-81510826D01*
X131264751Y-81515765D01*
X131323976Y-81517682D01*
X131382652Y-81516632D01*
X131440673Y-81512668D01*
X131497932Y-81505845D01*
X131554324Y-81496216D01*
X131609742Y-81483835D01*
X131664080Y-81468756D01*
X131717234Y-81451033D01*
X131769095Y-81430719D01*
X131819559Y-81407868D01*
X131868520Y-81382535D01*
X131915871Y-81354773D01*
X131961507Y-81324635D01*
X132005321Y-81292176D01*
X132047208Y-81257450D01*
X132087061Y-81220510D01*
X132124774Y-81181410D01*
X132160242Y-81140205D01*
X132193359Y-81096947D01*
X132224018Y-81051690D01*
X132252114Y-81004490D01*
X132277540Y-80955398D01*
X132300190Y-80904470D01*
X132319959Y-80851759D01*
X132336741Y-80797319D01*
X132350429Y-80741203D01*
X132360917Y-80683466D01*
X132368100Y-80624161D01*
X132371871Y-80563343D01*
X132375819Y-80376634D01*
X132375062Y-80183328D01*
X132368798Y-79984948D01*
X132356221Y-79783017D01*
X132336527Y-79579056D01*
X132308914Y-79374588D01*
X132272577Y-79171135D01*
X132226712Y-78970221D01*
X132170514Y-78773366D01*
X132103181Y-78582094D01*
X132023908Y-78397927D01*
X131979542Y-78308983D01*
X131931891Y-78222387D01*
X131880852Y-78138328D01*
X131826326Y-78056997D01*
X131768212Y-77978584D01*
X131706409Y-77903279D01*
X131640818Y-77831273D01*
X131571337Y-77762756D01*
X131497866Y-77697918D01*
X131420304Y-77636949D01*
X131369750Y-77602005D01*
X131315777Y-77569333D01*
X131198405Y-77510350D01*
X131069842Y-77459096D01*
X130931743Y-77414666D01*
X130785764Y-77376155D01*
X130633559Y-77342659D01*
X130476782Y-77313272D01*
X130317089Y-77287091D01*
X129682252Y-77196329D01*
X129390362Y-77146661D01*
X129256590Y-77117588D01*
X129133141Y-77084484D01*
X128936532Y-77020543D01*
X128746237Y-76949345D01*
X128562269Y-76871530D01*
X128384641Y-76787739D01*
X128213364Y-76698611D01*
X128048451Y-76604786D01*
X127889914Y-76506906D01*
X127737765Y-76405610D01*
X127592018Y-76301538D01*
X127452683Y-76195331D01*
X127319775Y-76087629D01*
X127193304Y-75979072D01*
X127073283Y-75870301D01*
X126959724Y-75761955D01*
X126852640Y-75654674D01*
X126752044Y-75549100D01*
X126712076Y-75504631D01*
X126676026Y-75461315D01*
X126643844Y-75419206D01*
X126615479Y-75378360D01*
X126590879Y-75338828D01*
X126569994Y-75300667D01*
X126552772Y-75263929D01*
X126539164Y-75228669D01*
X126529117Y-75194941D01*
X126522582Y-75162798D01*
X126519506Y-75132295D01*
X126519840Y-75103486D01*
X126523532Y-75076424D01*
X126530531Y-75051165D01*
X126540786Y-75027761D01*
X126554247Y-75006267D01*
X126570862Y-74986737D01*
X126590581Y-74969225D01*
X126613352Y-74953785D01*
X126639125Y-74940471D01*
X126667849Y-74929336D01*
X126699473Y-74920436D01*
X126733945Y-74913824D01*
X126771216Y-74909553D01*
X126811233Y-74907679D01*
X126853947Y-74908255D01*
X126899305Y-74911335D01*
X126947258Y-74916973D01*
X126997754Y-74925223D01*
X127050743Y-74936139D01*
X127106173Y-74949775D01*
X127163993Y-74966185D01*
X127864394Y-75170701D01*
X128245159Y-75275560D01*
X128637422Y-75378237D01*
X129034526Y-75475795D01*
X129429813Y-75565296D01*
X129816625Y-75643804D01*
X130188304Y-75708380D01*
X130314639Y-75725676D01*
X130449914Y-75739979D01*
X130741953Y-75762101D01*
X131374659Y-75797864D01*
X131693996Y-75821480D01*
X131849745Y-75836904D01*
X132001103Y-75855570D01*
X132146738Y-75878101D01*
X132285316Y-75905122D01*
X132415504Y-75937254D01*
X132535969Y-75975123D01*
X132704061Y-76037468D01*
X132875413Y-76105889D01*
X133049339Y-76179772D01*
X133225154Y-76258502D01*
X133579709Y-76428045D01*
X133933594Y-76609601D01*
X134281327Y-76798255D01*
X134617423Y-76989091D01*
X134936401Y-77177191D01*
X135232777Y-77357640D01*
X135284723Y-77388334D01*
X135335624Y-77415644D01*
X135385398Y-77439609D01*
X135433960Y-77460267D01*
X135481228Y-77477655D01*
X135527117Y-77491810D01*
X135571544Y-77502771D01*
X135614425Y-77510575D01*
X135655677Y-77515259D01*
X135695217Y-77516862D01*
X135732961Y-77515420D01*
X135768825Y-77510972D01*
X135802726Y-77503556D01*
X135834580Y-77493208D01*
X135864305Y-77479966D01*
X135891815Y-77463869D01*
X135917029Y-77444953D01*
X135939862Y-77423257D01*
X135960231Y-77398818D01*
X135978052Y-77371674D01*
X135993241Y-77341861D01*
X136005716Y-77309419D01*
X136015393Y-77274384D01*
X136022188Y-77236795D01*
X136026018Y-77196688D01*
X136026799Y-77154102D01*
X136024448Y-77109073D01*
X136018881Y-77061641D01*
X136010014Y-77011842D01*
X135997765Y-76959714D01*
X135982049Y-76905295D01*
X135962784Y-76848622D01*
X135880791Y-76639925D01*
X135788984Y-76436559D01*
X135687244Y-76237980D01*
X135575457Y-76043641D01*
X135453505Y-75853001D01*
X135321272Y-75665513D01*
X135178640Y-75480634D01*
X135025494Y-75297820D01*
X134861716Y-75116525D01*
X134687190Y-74936207D01*
X134501800Y-74756319D01*
X134305428Y-74576319D01*
X134097959Y-74395662D01*
X133879275Y-74213803D01*
X133649259Y-74030198D01*
X133407796Y-73844303D01*
X132960923Y-73510355D01*
X132711586Y-73322020D01*
X132457786Y-73124615D01*
X132209128Y-72922015D01*
X132089727Y-72819979D01*
X131975213Y-72718098D01*
X131866786Y-72616858D01*
X131765646Y-72516741D01*
X131672994Y-72418234D01*
X131590029Y-72321821D01*
X131308275Y-71954982D01*
X131029860Y-71551549D01*
X130755739Y-71116764D01*
X130486866Y-70655866D01*
X130224196Y-70174097D01*
X129968683Y-69676698D01*
X129482949Y-68655974D01*
X129037299Y-67635622D01*
X128639372Y-66657568D01*
X128296803Y-65763741D01*
X128017229Y-64996067D01*
X127979055Y-64886994D01*
X127947169Y-64792069D01*
X127921630Y-64711239D01*
X127902494Y-64644449D01*
X127889820Y-64591645D01*
X127883664Y-64552774D01*
X127883049Y-64538546D01*
X127884085Y-64527781D01*
X127886780Y-64520472D01*
X127891140Y-64516612D01*
X127897173Y-64516194D01*
X127904887Y-64519212D01*
X127914287Y-64525659D01*
X127925382Y-64535529D01*
X127952684Y-64565507D01*
X127986850Y-64609092D01*
X128027937Y-64666231D01*
X128076004Y-64736869D01*
X128131108Y-64820952D01*
X128193306Y-64918426D01*
X128432681Y-65277930D01*
X128690349Y-65628504D01*
X128965138Y-65970240D01*
X129255876Y-66303228D01*
X129880515Y-66943325D01*
X130554893Y-67549523D01*
X131269636Y-68122546D01*
X132015372Y-68663123D01*
X132782726Y-69171980D01*
X133562327Y-69649842D01*
X134344802Y-70097438D01*
X135120776Y-70515493D01*
X136615734Y-71265887D01*
X139115238Y-72444159D01*
X139229722Y-72501018D01*
X139350387Y-72564222D01*
X139476066Y-72633225D01*
X139605595Y-72707479D01*
X139737807Y-72786438D01*
X139871536Y-72869556D01*
X140005618Y-72956286D01*
X140138886Y-73046081D01*
X140270175Y-73138394D01*
X140398318Y-73232680D01*
X140522150Y-73328391D01*
X140640506Y-73424980D01*
X140752220Y-73521901D01*
X140856125Y-73618608D01*
X140951056Y-73714554D01*
X141035848Y-73809191D01*
X141238145Y-74058809D01*
X141439012Y-74326400D01*
X141637813Y-74609431D01*
X141833915Y-74905372D01*
X142026684Y-75211691D01*
X142215488Y-75525857D01*
X142578661Y-76167607D01*
X142918364Y-76810372D01*
X143229527Y-77433901D01*
X143507081Y-78017945D01*
X143745955Y-78542255D01*
X143771844Y-78596981D01*
X143799170Y-78648578D01*
X143827844Y-78697024D01*
X143857777Y-78742295D01*
X143888879Y-78784369D01*
X143921061Y-78823223D01*
X143954234Y-78858836D01*
X143988309Y-78891183D01*
X144023196Y-78920244D01*
X144058806Y-78945994D01*
X144095051Y-78968412D01*
X144131840Y-78987476D01*
X144169085Y-79003161D01*
X144206696Y-79015447D01*
X144244584Y-79024309D01*
X144282659Y-79029727D01*
X144320833Y-79031676D01*
X144359017Y-79030135D01*
X144397120Y-79025081D01*
X144435055Y-79016492D01*
X144472730Y-79004344D01*
X144510059Y-78988616D01*
X144546950Y-78969284D01*
X144583315Y-78946326D01*
X144619065Y-78919720D01*
X144654110Y-78889442D01*
X144688361Y-78855471D01*
X144721729Y-78817784D01*
X144754124Y-78776358D01*
X144785458Y-78731171D01*
X144815642Y-78682199D01*
X144844585Y-78629421D01*
X145019020Y-78269100D01*
X145174103Y-77901377D01*
X145310583Y-77527048D01*
X145429209Y-77146910D01*
X145530732Y-76761762D01*
X145615899Y-76372399D01*
X145685461Y-75979619D01*
X145740166Y-75584218D01*
X145808006Y-74788745D01*
X145825413Y-73992354D01*
X145798382Y-73201423D01*
X145732906Y-72422328D01*
X145634982Y-71661444D01*
X145510604Y-70925147D01*
X145365766Y-70219815D01*
X145206463Y-69551822D01*
X145038689Y-68927546D01*
X144868440Y-68353362D01*
X144544493Y-67380776D01*
X144506302Y-67271677D01*
X144474763Y-67176457D01*
X144450056Y-67094960D01*
X144432359Y-67027034D01*
X144426195Y-66998112D01*
X144421850Y-66972524D01*
X144419348Y-66950251D01*
X144418710Y-66931274D01*
X144419958Y-66915575D01*
X144423115Y-66903132D01*
X144428204Y-66893928D01*
X144435246Y-66887943D01*
X144444264Y-66885157D01*
X144455280Y-66885551D01*
X144468317Y-66889107D01*
X144483397Y-66895804D01*
X144500542Y-66905624D01*
X144519775Y-66918547D01*
X144541118Y-66934553D01*
X144564593Y-66953625D01*
X144618029Y-67000884D01*
X144680263Y-67060170D01*
X144751473Y-67131328D01*
X144831837Y-67214204D01*
X145069499Y-67453899D01*
X145328643Y-67700449D01*
X145606347Y-67952265D01*
X145899692Y-68207759D01*
X146521619Y-68723422D01*
X147171060Y-69234724D01*
X147824650Y-69728953D01*
X148459025Y-70193396D01*
X149050818Y-70615338D01*
X149576667Y-70982068D01*
X149628290Y-71015814D01*
X149681601Y-71047002D01*
X149736453Y-71075623D01*
X149792702Y-71101670D01*
X149850201Y-71125134D01*
X149908805Y-71146007D01*
X149968367Y-71164282D01*
X150028743Y-71179950D01*
X150089786Y-71193003D01*
X150151351Y-71203432D01*
X150213291Y-71211231D01*
X150275462Y-71216391D01*
X150337717Y-71218903D01*
X150399910Y-71218760D01*
X150461897Y-71215953D01*
X150523530Y-71210475D01*
X150584665Y-71202317D01*
X150645155Y-71191471D01*
X150704855Y-71177930D01*
X150763619Y-71161684D01*
X150821301Y-71142727D01*
X150877756Y-71121050D01*
X150932837Y-71096644D01*
X150986400Y-71069502D01*
X151038297Y-71039616D01*
X151088384Y-71006978D01*
X151136515Y-70971579D01*
X151182544Y-70933411D01*
X151226325Y-70892467D01*
X151267712Y-70848738D01*
X151306560Y-70802216D01*
X151342723Y-70752893D01*
X151474121Y-70552230D01*
X151597528Y-70345806D01*
X151821288Y-69917524D01*
X152015845Y-69471750D01*
X152183041Y-69012188D01*
X152324720Y-68542541D01*
X152442722Y-68066513D01*
X152538890Y-67587807D01*
X152615067Y-67110127D01*
X152673095Y-66637175D01*
X152714815Y-66172657D01*
X152742071Y-65720274D01*
X152756704Y-65283731D01*
X152755472Y-64472977D01*
X152725857Y-63770023D01*
X152723152Y-63709946D01*
X152722498Y-63652762D01*
X152723859Y-63598500D01*
X152727197Y-63547182D01*
X152732474Y-63498836D01*
X152739652Y-63453486D01*
X152748695Y-63411157D01*
X152759564Y-63371875D01*
X152772222Y-63335665D01*
X152786632Y-63302553D01*
X152802755Y-63272564D01*
X152820555Y-63245723D01*
X152839994Y-63222055D01*
X152861034Y-63201586D01*
X152883638Y-63184342D01*
X152907769Y-63170346D01*
X152933388Y-63159626D01*
X152960458Y-63152206D01*
X152988942Y-63148111D01*
X153018802Y-63147368D01*
X153050000Y-63150000D01*
D11*
X173686772Y-106636772D02*
G75*
G02*
X134113228Y-106636772I-19786772J0D01*
G01*
X134113228Y-106636772D02*
G75*
G02*
X173686772Y-106636772I19786772J0D01*
G01*
M02*
