%TF.GenerationSoftware,KiCad,Pcbnew,10.0.0-10.0.0~ubuntu24.04.1*%
%TF.CreationDate,2026-07-03T06:24:17-07:00*%
%TF.ProjectId,hackathon-badge,6861636b-6174-4686-9f6e-2d6261646765,rev?*%
%TF.SameCoordinates,Original*%
%TF.FileFunction,Soldermask,Bot*%
%TF.FilePolarity,Negative*%
%FSLAX46Y46*%
G04 Gerber Fmt 4.6, Leading zero omitted, Abs format (unit mm)*
G04 Created by KiCad (PCBNEW 10.0.0-10.0.0~ubuntu24.04.1) date 2026-07-03 06:24:17*
%MOMM*%
%LPD*%
G01*
G04 APERTURE LIST*
G04 Aperture macros list*
%AMRotRect*
0 Rectangle, with rotation*
0 The origin of the aperture is its center*
0 $1 length*
0 $2 width*
0 $3 Rotation angle, in degrees counterclockwise*
0 Add horizontal line*
21,1,$1,$2,0,0,$3*%
G04 Aperture macros list end*
%ADD10C,0.000000*%
%ADD11RotRect,0.700000X0.700000X320.000000*%
%ADD12RotRect,0.700000X0.700000X80.000000*%
%ADD13RotRect,0.700000X0.700000X220.000000*%
%ADD14R,4.000000X4.000000*%
%ADD15RotRect,0.700000X0.700000X60.000000*%
%ADD16RotRect,0.700000X0.700000X40.000000*%
%ADD17RotRect,0.700000X0.700000X200.000000*%
%ADD18RotRect,0.700000X0.700000X300.000000*%
%ADD19RotRect,0.700000X0.700000X20.000000*%
%ADD20RotRect,0.700000X0.700000X160.000000*%
%ADD21RotRect,0.700000X0.700000X280.000000*%
%ADD22RotRect,0.700000X0.700000X340.000000*%
%ADD23RotRect,0.700000X0.700000X140.000000*%
%ADD24RotRect,0.700000X0.700000X250.000000*%
%ADD25RotRect,0.700000X0.700000X120.000000*%
G04 APERTURE END LIST*
D10*
%TO.C,G\u002A\u002A\u002A*%
G36*
X154171113Y-72087826D02*
G01*
X154346040Y-72521503D01*
X154517980Y-73245857D01*
X154687286Y-74262163D01*
X154740656Y-74646933D01*
X154944064Y-76086957D01*
X155139546Y-77266394D01*
X155337162Y-78217748D01*
X155546967Y-78973522D01*
X155779020Y-79566219D01*
X156043379Y-80028344D01*
X156350102Y-80392399D01*
X156581265Y-80595240D01*
X156902970Y-80806302D01*
X157204549Y-80873091D01*
X157557232Y-80784947D01*
X158032251Y-80531209D01*
X158351175Y-80330333D01*
X159153886Y-79770680D01*
X159738797Y-79249267D01*
X160162026Y-78698536D01*
X160479695Y-78050928D01*
X160651359Y-77561288D01*
X160858023Y-76980231D01*
X161047531Y-76584931D01*
X161196555Y-76423093D01*
X161208672Y-76421585D01*
X161355500Y-76560813D01*
X161518450Y-76952029D01*
X161643175Y-77397487D01*
X161899316Y-78334629D01*
X162207845Y-79276825D01*
X162539613Y-80146310D01*
X162865470Y-80865319D01*
X163093474Y-81266672D01*
X163331359Y-81602477D01*
X163541717Y-81774092D01*
X163832576Y-81831963D01*
X164293662Y-81827145D01*
X165169274Y-81743425D01*
X166044144Y-81537404D01*
X166979681Y-81187941D01*
X168037295Y-80673900D01*
X168696089Y-80311766D01*
X169508437Y-79859007D01*
X170107051Y-79549437D01*
X170527557Y-79371184D01*
X170805581Y-79312372D01*
X170976749Y-79361128D01*
X171076688Y-79505577D01*
X171081121Y-79516830D01*
X171162426Y-79969876D01*
X171161270Y-80638096D01*
X171082764Y-81456384D01*
X170932013Y-82359634D01*
X170817124Y-82881700D01*
X170583292Y-83923816D01*
X170388141Y-84928988D01*
X170242935Y-85829953D01*
X170158936Y-86559448D01*
X170142494Y-86910691D01*
X170159214Y-87181159D01*
X170261091Y-87312962D01*
X170525698Y-87355895D01*
X170842067Y-87359735D01*
X171451026Y-87291539D01*
X172061024Y-87068688D01*
X172726284Y-86663789D01*
X173501029Y-86049448D01*
X173592783Y-85970069D01*
X174218697Y-85448996D01*
X174718416Y-85095134D01*
X175094298Y-84920202D01*
X175348700Y-84935920D01*
X175483981Y-85154006D01*
X175502499Y-85586179D01*
X175406610Y-86244157D01*
X175198673Y-87139661D01*
X174881045Y-88284408D01*
X174456084Y-89690118D01*
X174386319Y-89914303D01*
X174296560Y-90355530D01*
X174254013Y-90866934D01*
X174253477Y-90920890D01*
X174253477Y-91501810D01*
X175391338Y-91449359D01*
X176042998Y-91400708D01*
X176516876Y-91305992D01*
X176928440Y-91134327D01*
X177233613Y-90956645D01*
X178041734Y-90465755D01*
X178641316Y-90142319D01*
X179061435Y-89981266D01*
X179331166Y-89977523D01*
X179479586Y-90126021D01*
X179535769Y-90421687D01*
X179539026Y-90554544D01*
X179474819Y-90914721D01*
X179275951Y-91454597D01*
X178933053Y-92196551D01*
X178485157Y-93071494D01*
X177974904Y-94054620D01*
X177600774Y-94821817D01*
X177350094Y-95410310D01*
X177210195Y-95857323D01*
X177168404Y-96200079D01*
X177212049Y-96475802D01*
X177274981Y-96626523D01*
X177595217Y-96945534D01*
X178139086Y-97139385D01*
X178862358Y-97203229D01*
X179720805Y-97132221D01*
X180469678Y-96976498D01*
X180971959Y-96845530D01*
X181257967Y-96782758D01*
X181397077Y-96788331D01*
X181458662Y-96862399D01*
X181501641Y-96978714D01*
X181450163Y-97230092D01*
X181167194Y-97558748D01*
X181117107Y-97602702D01*
X180440817Y-98200768D01*
X179803787Y-98800807D01*
X179254104Y-99354555D01*
X178839851Y-99813748D01*
X178622193Y-100106907D01*
X178502354Y-100328273D01*
X178471011Y-100486205D01*
X178565611Y-100595456D01*
X178823603Y-100670775D01*
X179282434Y-100726915D01*
X179979554Y-100778626D01*
X180395090Y-100805275D01*
X181373005Y-100844029D01*
X182209230Y-100816497D01*
X183049744Y-100715316D01*
X183418941Y-100652736D01*
X184047940Y-100551419D01*
X184581624Y-100487408D01*
X184945266Y-100468561D01*
X185048597Y-100481336D01*
X185227448Y-100679302D01*
X185207315Y-101024330D01*
X185012621Y-101472915D01*
X184667788Y-101981552D01*
X184197236Y-102506737D01*
X183636874Y-102996151D01*
X183151005Y-103374378D01*
X182685127Y-103744220D01*
X182417559Y-103961828D01*
X182018332Y-104273338D01*
X181524978Y-104632570D01*
X181292478Y-104793625D01*
X180700648Y-105246299D01*
X180189301Y-105733085D01*
X179804332Y-106200981D01*
X179591638Y-106596982D01*
X179566861Y-106786455D01*
X179748130Y-107091032D01*
X180206134Y-107376732D01*
X180946962Y-107646580D01*
X181686377Y-107839119D01*
X182513520Y-108033352D01*
X183094293Y-108180932D01*
X183469448Y-108296734D01*
X183679738Y-108395629D01*
X183765915Y-108492493D01*
X183769323Y-108599327D01*
X183627713Y-108746132D01*
X183271380Y-108990090D01*
X182749920Y-109300440D01*
X182112929Y-109646426D01*
X181924015Y-109743771D01*
X181235405Y-110102966D01*
X180619155Y-110440011D01*
X180134707Y-110721298D01*
X179841502Y-110913222D01*
X179809601Y-110939193D01*
X179513778Y-111260904D01*
X179194882Y-111696441D01*
X178909172Y-112156755D01*
X178712910Y-112552797D01*
X178658101Y-112761788D01*
X178759210Y-112958277D01*
X179028211Y-113297273D01*
X179413616Y-113726093D01*
X179863936Y-114192057D01*
X180327682Y-114642486D01*
X180753365Y-115024699D01*
X181089498Y-115286016D01*
X181177967Y-115339975D01*
X181496476Y-115500731D01*
X181965864Y-115726890D01*
X182357671Y-115910550D01*
X182955944Y-116248205D01*
X183266503Y-116578732D01*
X183294840Y-116910934D01*
X183138520Y-117161724D01*
X182855200Y-117342065D01*
X182333648Y-117548328D01*
X181626304Y-117764764D01*
X180785607Y-117975623D01*
X179863994Y-118165155D01*
X179698456Y-118194929D01*
X179096407Y-118321198D01*
X178519687Y-118475273D01*
X178193543Y-118585929D01*
X177823240Y-118769147D01*
X177661661Y-118978915D01*
X177630355Y-119245445D01*
X177650469Y-119532980D01*
X177730067Y-119815665D01*
X177898032Y-120147028D01*
X178183251Y-120580599D01*
X178614606Y-121169905D01*
X178804922Y-121422163D01*
X179302707Y-122089523D01*
X179637829Y-122572459D01*
X179832678Y-122914535D01*
X179909648Y-123159317D01*
X179891130Y-123350371D01*
X179847337Y-123450244D01*
X179689338Y-123609320D01*
X179373774Y-123759300D01*
X178871455Y-123907904D01*
X178153193Y-124062854D01*
X177189799Y-124231867D01*
X176455789Y-124347226D01*
X175434914Y-124524302D01*
X174670069Y-124716237D01*
X174123719Y-124944641D01*
X173758327Y-125231124D01*
X173536361Y-125597296D01*
X173420285Y-126064767D01*
X173415735Y-126097500D01*
X173462908Y-126670955D01*
X173724810Y-127396653D01*
X174185921Y-128244599D01*
X174830721Y-129184799D01*
X175358762Y-129852598D01*
X175756901Y-130340822D01*
X176072025Y-130745056D01*
X176264206Y-131013022D01*
X176304299Y-131090620D01*
X176150501Y-131408662D01*
X175757182Y-131693486D01*
X175178225Y-131923754D01*
X174467510Y-132078130D01*
X173678917Y-132135278D01*
X173666193Y-132135286D01*
X173049241Y-132107071D01*
X172565933Y-131995819D01*
X172059276Y-131760409D01*
X171904344Y-131673787D01*
X171379480Y-131380893D01*
X170719615Y-131022024D01*
X170050828Y-130665602D01*
X169922263Y-130598104D01*
X169310832Y-130276728D01*
X168722902Y-129965355D01*
X168261851Y-129718800D01*
X168166074Y-129666941D01*
X167725960Y-129469638D01*
X167328962Y-129359077D01*
X167231608Y-129350487D01*
X166786136Y-129444200D01*
X166265861Y-129684173D01*
X165771737Y-130008655D01*
X165404722Y-130355898D01*
X165292694Y-130536432D01*
X165193405Y-131054716D01*
X165218829Y-131761522D01*
X165356430Y-132585778D01*
X165593673Y-133456410D01*
X165918024Y-134302349D01*
X165980917Y-134438573D01*
X166313062Y-135216762D01*
X166502863Y-135884562D01*
X166584480Y-136544706D01*
X166588658Y-137216078D01*
X166481527Y-137663653D01*
X166227123Y-137947448D01*
X165789482Y-138127479D01*
X165609329Y-138171974D01*
X164774262Y-138252697D01*
X163964521Y-138100336D01*
X163148679Y-137701575D01*
X162295312Y-137043099D01*
X161784924Y-136551442D01*
X161277353Y-136030704D01*
X160652822Y-135388759D01*
X159998616Y-134715377D01*
X159516356Y-134218297D01*
X159008847Y-133709944D01*
X158561320Y-133289711D01*
X158218964Y-132998096D01*
X158026971Y-132875600D01*
X158016552Y-132874186D01*
X157759257Y-132979675D01*
X157397338Y-133251610D01*
X157004559Y-133623187D01*
X156654682Y-134027607D01*
X156505590Y-134242545D01*
X156342434Y-134608643D01*
X156168178Y-135159688D01*
X156015167Y-135790218D01*
X155986316Y-135935733D01*
X155817305Y-136692139D01*
X155614410Y-137389552D01*
X155399965Y-137965527D01*
X155196305Y-138357616D01*
X155073293Y-138488557D01*
X154729513Y-138598685D01*
X154259718Y-138656450D01*
X153818648Y-138649318D01*
X153625153Y-138605853D01*
X153131063Y-138261349D01*
X152636954Y-137650339D01*
X152162939Y-136799266D01*
X152032150Y-136511430D01*
X151648436Y-135684354D01*
X151200560Y-134807000D01*
X150728739Y-133951046D01*
X150273187Y-133188170D01*
X149874118Y-132590051D01*
X149718173Y-132387045D01*
X149333159Y-132037827D01*
X148884560Y-131798541D01*
X148458031Y-131700099D01*
X148139230Y-131773412D01*
X148102946Y-131804139D01*
X148029508Y-132006640D01*
X147954581Y-132426152D01*
X147890561Y-132986375D01*
X147870745Y-133233327D01*
X147752563Y-134140221D01*
X147537301Y-134790597D01*
X147213003Y-135208970D01*
X146809224Y-135409742D01*
X146527140Y-135418101D01*
X146253528Y-135266951D01*
X145958316Y-134924436D01*
X145611429Y-134358700D01*
X145345688Y-133859469D01*
X145027085Y-133262553D01*
X144718391Y-132723098D01*
X144468489Y-132325084D01*
X144387895Y-132214066D01*
X144072983Y-131819130D01*
X143568218Y-132558825D01*
X143104321Y-133108546D01*
X142537857Y-133584143D01*
X141919593Y-133964851D01*
X141300291Y-134229901D01*
X140730718Y-134358527D01*
X140261636Y-134329961D01*
X139943811Y-134123436D01*
X139902573Y-134058405D01*
X139840670Y-133800468D01*
X139790918Y-133322393D01*
X139759145Y-132697614D01*
X139750586Y-132143203D01*
X139716466Y-131093485D01*
X139619820Y-130161602D01*
X139469222Y-129389114D01*
X139273242Y-128817581D01*
X139040455Y-128488560D01*
X138989878Y-128455324D01*
X138701364Y-128365974D01*
X138227222Y-128281961D01*
X137724319Y-128226489D01*
X137237100Y-128200713D01*
X136828992Y-128223805D01*
X136407490Y-128313885D01*
X135880084Y-128489069D01*
X135346690Y-128692153D01*
X134644466Y-128990133D01*
X133946690Y-129326853D01*
X133364872Y-129647041D01*
X133171659Y-129770276D01*
X132515094Y-130207720D01*
X132050282Y-130470675D01*
X131733497Y-130560078D01*
X131521014Y-130476870D01*
X131369105Y-130221987D01*
X131238312Y-129811763D01*
X131106726Y-129088071D01*
X131129331Y-128347458D01*
X131314914Y-127513373D01*
X131594889Y-126705938D01*
X132013386Y-125509618D01*
X132257565Y-124534368D01*
X132329787Y-123766719D01*
X132232413Y-123193197D01*
X132217160Y-123154802D01*
X131947809Y-122654231D01*
X131618086Y-122396623D01*
X131145697Y-122334783D01*
X130834734Y-122361960D01*
X130178533Y-122443894D01*
X129761741Y-122483635D01*
X129532254Y-122474266D01*
X129437967Y-122408872D01*
X129426775Y-122280537D01*
X129437608Y-122176523D01*
X129552650Y-121890812D01*
X129815237Y-121488662D01*
X130131375Y-121100233D01*
X130724550Y-120278619D01*
X131033862Y-119441334D01*
X131087340Y-118902409D01*
X130964634Y-118579653D01*
X130599021Y-118412991D01*
X129996773Y-118403167D01*
X129164161Y-118550920D01*
X128833977Y-118636013D01*
X128256589Y-118787950D01*
X127883173Y-118859537D01*
X127636444Y-118854787D01*
X127439114Y-118777716D01*
X127335643Y-118713854D01*
X127050987Y-118413696D01*
X126962715Y-117997092D01*
X127074388Y-117439623D01*
X127389564Y-116716870D01*
X127711280Y-116136614D01*
X128024869Y-115586552D01*
X128271649Y-115120857D01*
X128418706Y-114803467D01*
X128445384Y-114710430D01*
X128385863Y-114468652D01*
X128239018Y-114100837D01*
X128202369Y-114021939D01*
X128051238Y-113744119D01*
X127874485Y-113580256D01*
X127587436Y-113487002D01*
X127105414Y-113421006D01*
X127007934Y-113410443D01*
X126369794Y-113368091D01*
X125635821Y-113359513D01*
X124881668Y-113380902D01*
X124182990Y-113428451D01*
X123615440Y-113498354D01*
X123254671Y-113586806D01*
X123224287Y-113600805D01*
X122858645Y-113694391D01*
X122627319Y-113559746D01*
X122572552Y-113332313D01*
X122687642Y-113055716D01*
X123003424Y-112660478D01*
X123475665Y-112189936D01*
X124060132Y-111687429D01*
X124712593Y-111196294D01*
X124848274Y-111102618D01*
X125731683Y-110484128D01*
X126390534Y-109969089D01*
X126856191Y-109516968D01*
X127160016Y-109087235D01*
X127333370Y-108639358D01*
X127407616Y-108132804D01*
X127417638Y-107782037D01*
X127415238Y-107717956D01*
X131649790Y-107717956D01*
X131897419Y-110138653D01*
X132410602Y-112527106D01*
X133189340Y-114860802D01*
X134233633Y-117117233D01*
X135543480Y-119273888D01*
X135740657Y-119556170D01*
X136405749Y-120409789D01*
X137244243Y-121360034D01*
X138187097Y-122337862D01*
X139165270Y-123274231D01*
X140109717Y-124100099D01*
X140882475Y-124697988D01*
X142731017Y-125866483D01*
X144745838Y-126880917D01*
X146841972Y-127704357D01*
X148934451Y-128299869D01*
X149395773Y-128398613D01*
X150374422Y-128564913D01*
X151545064Y-128715598D01*
X152806069Y-128838478D01*
X153478332Y-128888297D01*
X153738374Y-128883473D01*
X154218417Y-128855678D01*
X154846131Y-128809645D01*
X155439907Y-128759880D01*
X158051802Y-128390356D01*
X160539728Y-127754823D01*
X162905357Y-126852674D01*
X165150362Y-125683305D01*
X166661472Y-124697988D01*
X167515092Y-124032896D01*
X168465336Y-123194402D01*
X169443165Y-122251548D01*
X170379533Y-121273376D01*
X171205401Y-120328928D01*
X171803290Y-119556170D01*
X173148988Y-117414709D01*
X174229131Y-115170434D01*
X175043719Y-112845854D01*
X175592753Y-110463480D01*
X175876233Y-108045821D01*
X175894158Y-105615388D01*
X175646529Y-103194690D01*
X175133345Y-100806238D01*
X174354607Y-98472541D01*
X173310315Y-96216110D01*
X172000468Y-94059455D01*
X171803290Y-93777173D01*
X171138199Y-92923554D01*
X170299704Y-91973309D01*
X169356850Y-90995481D01*
X168378678Y-90059112D01*
X167434231Y-89233244D01*
X166661472Y-88635355D01*
X164520012Y-87289658D01*
X162275736Y-86209515D01*
X159951156Y-85394926D01*
X157568782Y-84845892D01*
X155151123Y-84562413D01*
X152720690Y-84544487D01*
X150299992Y-84792117D01*
X147911540Y-85305300D01*
X145577843Y-86084038D01*
X143321412Y-87128331D01*
X141164757Y-88438177D01*
X140882475Y-88635355D01*
X140028856Y-89300447D01*
X139078611Y-90138941D01*
X138100783Y-91081795D01*
X137164414Y-92059967D01*
X136338547Y-93004415D01*
X135740657Y-93777173D01*
X134394960Y-95918634D01*
X133314817Y-98162909D01*
X132500228Y-100487489D01*
X131951194Y-102869863D01*
X131667715Y-105287522D01*
X131649790Y-107717956D01*
X127415238Y-107717956D01*
X127397605Y-107247146D01*
X127312383Y-106827759D01*
X127124292Y-106482395D01*
X126795650Y-106169566D01*
X126288775Y-105847791D01*
X125565985Y-105475583D01*
X125134289Y-105268253D01*
X124467565Y-104937319D01*
X123899325Y-104628093D01*
X123482226Y-104371240D01*
X123268928Y-104197424D01*
X123254716Y-104173726D01*
X123162931Y-103599522D01*
X123276614Y-103023905D01*
X123401717Y-102789564D01*
X123720886Y-102499544D01*
X124261369Y-102181878D01*
X124956647Y-101867046D01*
X125740203Y-101585529D01*
X126464284Y-101386215D01*
X127534261Y-101056801D01*
X128333143Y-100628394D01*
X128857759Y-100102741D01*
X128893101Y-100047998D01*
X129116735Y-99561926D01*
X129130253Y-99135137D01*
X128916745Y-98746620D01*
X128459298Y-98375370D01*
X127741003Y-98000376D01*
X126999802Y-97695969D01*
X126384212Y-97450937D01*
X125860238Y-97223302D01*
X125497091Y-97044176D01*
X125378775Y-96967308D01*
X125233121Y-96708717D01*
X125350930Y-96473276D01*
X125702189Y-96274237D01*
X126256885Y-96124853D01*
X126985007Y-96038378D01*
X127519195Y-96022163D01*
X128081886Y-96009621D01*
X128441639Y-95955685D01*
X128688672Y-95835893D01*
X128890303Y-95650368D01*
X129140412Y-95209339D01*
X129287592Y-94587114D01*
X129323977Y-93880322D01*
X129241701Y-93185595D01*
X129123022Y-92791640D01*
X128970600Y-92310854D01*
X128889766Y-91861231D01*
X128885847Y-91774654D01*
X128900078Y-91554662D01*
X128984042Y-91414849D01*
X129199646Y-91320827D01*
X129608795Y-91238208D01*
X129950297Y-91183356D01*
X130694817Y-91058639D01*
X131368110Y-90931504D01*
X131915058Y-90813791D01*
X132280542Y-90717339D01*
X132409546Y-90655145D01*
X132351809Y-90484093D01*
X132197155Y-90109349D01*
X131973415Y-89593047D01*
X131708424Y-88997320D01*
X131430014Y-88384302D01*
X131166019Y-87816125D01*
X130944271Y-87354922D01*
X130834684Y-87139504D01*
X130551332Y-86649772D01*
X130170566Y-86048417D01*
X129770832Y-85458967D01*
X129738819Y-85413828D01*
X129412997Y-84940242D01*
X129166714Y-84551665D01*
X129040845Y-84313688D01*
X129032667Y-84280720D01*
X129173082Y-84224227D01*
X129569298Y-84183343D01*
X130183774Y-84160438D01*
X130978043Y-84157874D01*
X132229566Y-84138433D01*
X133282524Y-84056768D01*
X134110126Y-83916535D01*
X134685580Y-83721391D01*
X134835797Y-83631249D01*
X134983696Y-83378239D01*
X135095704Y-82910282D01*
X135165864Y-82304547D01*
X135188214Y-81638198D01*
X135156797Y-80988403D01*
X135078687Y-80486107D01*
X135013580Y-80033353D01*
X135089448Y-79809779D01*
X135319632Y-79813767D01*
X135717471Y-80043703D01*
X136128390Y-80358970D01*
X136628260Y-80715237D01*
X137205534Y-81049774D01*
X137788771Y-81329878D01*
X138306532Y-81522848D01*
X138687377Y-81595979D01*
X138796732Y-81580445D01*
X138939129Y-81388393D01*
X139071771Y-80962430D01*
X139184272Y-80362287D01*
X139266249Y-79647693D01*
X139307318Y-78878379D01*
X139310124Y-78627472D01*
X139336486Y-77876149D01*
X139418836Y-77380657D01*
X139527565Y-77147045D01*
X139630157Y-77015044D01*
X139718357Y-76958605D01*
X139826363Y-77010562D01*
X139988372Y-77203749D01*
X140238582Y-77571000D01*
X140611189Y-78145150D01*
X140683438Y-78256845D01*
X141245965Y-79058878D01*
X141843448Y-79795306D01*
X142425811Y-80410906D01*
X142942980Y-80850454D01*
X143156879Y-80984549D01*
X143555020Y-81105336D01*
X144154076Y-81177512D01*
X144625087Y-81192294D01*
X145370810Y-81151686D01*
X145936476Y-81000384D01*
X146416457Y-80691818D01*
X146905124Y-80179421D01*
X147057041Y-79992222D01*
X147820763Y-78875835D01*
X148333118Y-77740531D01*
X148619268Y-76513209D01*
X148704486Y-75205705D01*
X148718903Y-74624988D01*
X148767946Y-74275418D01*
X148864663Y-74095292D01*
X148950363Y-74043127D01*
X149239143Y-74084069D01*
X149500942Y-74321530D01*
X149804511Y-74627848D01*
X150228053Y-74984735D01*
X150450246Y-75151165D01*
X150828938Y-75410876D01*
X151070358Y-75517422D01*
X151275149Y-75489749D01*
X151530635Y-75354538D01*
X152106148Y-74911881D01*
X152688840Y-74281425D01*
X153202904Y-73557042D01*
X153572530Y-72832605D01*
X153577450Y-72819997D01*
X153763016Y-72369349D01*
X153913934Y-72053048D01*
X153992845Y-71943550D01*
X154171113Y-72087826D01*
G37*
%TD*%
D11*
%TO.C,D9*%
X138245535Y-122133172D03*
X138952602Y-121290528D03*
X140354465Y-122466828D03*
X139647398Y-123309472D03*
%TD*%
D12*
%TO.C,D4*%
X175182758Y-112196615D03*
X174099471Y-112005591D03*
X174417242Y-110203385D03*
X175500529Y-110394409D03*
%TD*%
D13*
%TO.C,D13*%
X140447397Y-89190525D03*
X141154463Y-90033173D03*
X139752603Y-91209475D03*
X139045537Y-90366827D03*
%TD*%
D14*
%TO.C,TP3*%
X154000000Y-84000000D03*
%TD*%
D15*
%TO.C,D5*%
X172218813Y-118867417D03*
X171266190Y-118317413D03*
X172181187Y-116732583D03*
X173133810Y-117282587D03*
%TD*%
D16*
%TO.C,D6*%
X166952599Y-124309482D03*
X166245540Y-123466827D03*
X167647401Y-122290518D03*
X168354460Y-123133173D03*
%TD*%
D17*
%TO.C,D14*%
X147401712Y-85590216D03*
X147777927Y-86623881D03*
X146058288Y-87249784D03*
X145682073Y-86216119D03*
%TD*%
D18*
%TO.C,D10*%
X134266179Y-116382581D03*
X135218813Y-115832589D03*
X136133821Y-117417419D03*
X135181187Y-117967411D03*
%TD*%
D19*
%TO.C,D7*%
X159828288Y-127829784D03*
X159452073Y-126796119D03*
X161171712Y-126170216D03*
X161547927Y-127203881D03*
%TD*%
D14*
%TO.C,TP2*%
X177000000Y-105500000D03*
%TD*%
D20*
%TO.C,D1*%
X162747932Y-86496119D03*
X162371707Y-87529776D03*
X160652068Y-86903881D03*
X161028293Y-85870224D03*
%TD*%
D21*
%TO.C,D11*%
X132299466Y-110094404D03*
X133382754Y-109903397D03*
X133700534Y-111705596D03*
X132617246Y-111896603D03*
%TD*%
D22*
%TO.C,D8*%
X144952064Y-126703883D03*
X145328293Y-125670224D03*
X147047936Y-126296117D03*
X146671707Y-127329776D03*
%TD*%
D23*
%TO.C,D2*%
X168954466Y-90666828D03*
X168247398Y-91509472D03*
X166845534Y-90333172D03*
X167552602Y-89490528D03*
%TD*%
D24*
%TO.C,D12*%
X133896118Y-97452066D03*
X134929776Y-97828293D03*
X134303882Y-99547934D03*
X133270224Y-99171707D03*
%TD*%
D25*
%TO.C,D3*%
X173533819Y-96917417D03*
X172581187Y-97467411D03*
X171666181Y-95882583D03*
X172618813Y-95332589D03*
%TD*%
D14*
%TO.C,TP1*%
X131000000Y-106000000D03*
%TD*%
%TO.C,TP4*%
X154000000Y-130000000D03*
%TD*%
M02*
