%TF.GenerationSoftware,KiCad,Pcbnew,10.0.0-10.0.0~ubuntu24.04.1*%
%TF.CreationDate,2026-07-03T06:24:17-07:00*%
%TF.ProjectId,hackathon-badge,6861636b-6174-4686-9f6e-2d6261646765,rev?*%
%TF.SameCoordinates,Original*%
%TF.FileFunction,Copper,L2,Bot*%
%TF.FilePolarity,Positive*%
%FSLAX46Y46*%
G04 Gerber Fmt 4.6, Leading zero omitted, Abs format (unit mm)*
G04 Created by KiCad (PCBNEW 10.0.0-10.0.0~ubuntu24.04.1) date 2026-07-03 06:24:17*
%MOMM*%
%LPD*%
G01*
G04 APERTURE LIST*
G04 Aperture macros list*
%AMRotRect*
0 Rectangle, with rotation*
0 The origin of the aperture is its center*
0 $1 length*
0 $2 width*
0 $3 Rotation angle, in degrees counterclockwise*
0 Add horizontal line*
21,1,$1,$2,0,0,$3*%
G04 Aperture macros list end*
%TA.AperFunction,SMDPad,CuDef*%
%ADD10RotRect,0.700000X0.700000X320.000000*%
%TD*%
%TA.AperFunction,SMDPad,CuDef*%
%ADD11RotRect,0.700000X0.700000X80.000000*%
%TD*%
%TA.AperFunction,SMDPad,CuDef*%
%ADD12RotRect,0.700000X0.700000X220.000000*%
%TD*%
%TA.AperFunction,SMDPad,CuDef*%
%ADD13R,4.000000X4.000000*%
%TD*%
%TA.AperFunction,SMDPad,CuDef*%
%ADD14RotRect,0.700000X0.700000X60.000000*%
%TD*%
%TA.AperFunction,SMDPad,CuDef*%
%ADD15RotRect,0.700000X0.700000X40.000000*%
%TD*%
%TA.AperFunction,SMDPad,CuDef*%
%ADD16RotRect,0.700000X0.700000X200.000000*%
%TD*%
%TA.AperFunction,SMDPad,CuDef*%
%ADD17RotRect,0.700000X0.700000X300.000000*%
%TD*%
%TA.AperFunction,SMDPad,CuDef*%
%ADD18RotRect,0.700000X0.700000X20.000000*%
%TD*%
%TA.AperFunction,SMDPad,CuDef*%
%ADD19RotRect,0.700000X0.700000X160.000000*%
%TD*%
%TA.AperFunction,SMDPad,CuDef*%
%ADD20RotRect,0.700000X0.700000X280.000000*%
%TD*%
%TA.AperFunction,SMDPad,CuDef*%
%ADD21RotRect,0.700000X0.700000X340.000000*%
%TD*%
%TA.AperFunction,SMDPad,CuDef*%
%ADD22RotRect,0.700000X0.700000X140.000000*%
%TD*%
%TA.AperFunction,SMDPad,CuDef*%
%ADD23RotRect,0.700000X0.700000X250.000000*%
%TD*%
%TA.AperFunction,SMDPad,CuDef*%
%ADD24RotRect,0.700000X0.700000X120.000000*%
%TD*%
%TA.AperFunction,ViaPad*%
%ADD25C,0.600000*%
%TD*%
%TA.AperFunction,ViaPad*%
%ADD26C,2.500000*%
%TD*%
%TA.AperFunction,Conductor*%
%ADD27C,0.200000*%
%TD*%
G04 APERTURE END LIST*
D10*
%TO.P,D9,1,DOUT_1*%
%TO.N,Net-(D10-DIN)*%
X138245535Y-122133172D03*
%TO.P,D9,2,VSS_2*%
%TO.N,GND*%
X138952602Y-121290528D03*
%TO.P,D9,3,DIN_3*%
%TO.N,Net-(D8-DOUT)*%
X140354465Y-122466828D03*
%TO.P,D9,4,VDD_4*%
%TO.N,+3.7V*%
X139647398Y-123309472D03*
%TD*%
D11*
%TO.P,D4,1,DOUT_1*%
%TO.N,Net-(D4-DOUT)*%
X175182758Y-112196615D03*
%TO.P,D4,2,VSS_2*%
%TO.N,GND*%
X174099471Y-112005591D03*
%TO.P,D4,3,DIN_3*%
%TO.N,Net-(D3-DOUT)*%
X174417242Y-110203385D03*
%TO.P,D4,4,VDD_4*%
%TO.N,+3.7V*%
X175500529Y-110394409D03*
%TD*%
D12*
%TO.P,D13,1,DOUT_1*%
%TO.N,Net-(D13-DOUT)*%
X140447397Y-89190525D03*
%TO.P,D13,2,VSS_2*%
%TO.N,GND*%
X141154463Y-90033173D03*
%TO.P,D13,3,DIN_3*%
%TO.N,Net-(D12-DOUT)*%
X139752603Y-91209475D03*
%TO.P,D13,4,VDD_4*%
%TO.N,+3.7V*%
X139045537Y-90366827D03*
%TD*%
D13*
%TO.P,TP3,1,1_1*%
%TO.N,/LED_DIN*%
X154000000Y-84000000D03*
%TD*%
D14*
%TO.P,D5,1,DOUT_1*%
%TO.N,Net-(D5-DOUT)*%
X172218813Y-118867417D03*
%TO.P,D5,2,VSS_2*%
%TO.N,GND*%
X171266190Y-118317413D03*
%TO.P,D5,3,DIN_3*%
%TO.N,Net-(D4-DOUT)*%
X172181187Y-116732583D03*
%TO.P,D5,4,VDD_4*%
%TO.N,+3.7V*%
X173133810Y-117282587D03*
%TD*%
D15*
%TO.P,D6,1,DOUT_1*%
%TO.N,Net-(D6-DOUT)*%
X166952599Y-124309482D03*
%TO.P,D6,2,VSS_2*%
%TO.N,GND*%
X166245540Y-123466827D03*
%TO.P,D6,3,DIN_3*%
%TO.N,Net-(D5-DOUT)*%
X167647401Y-122290518D03*
%TO.P,D6,4,VDD_4*%
%TO.N,+3.7V*%
X168354460Y-123133173D03*
%TD*%
D16*
%TO.P,D14,1,DOUT_1*%
%TO.N,unconnected-(D14-DOUT-Pad1)*%
X147401712Y-85590216D03*
%TO.P,D14,2,VSS_2*%
%TO.N,GND*%
X147777927Y-86623881D03*
%TO.P,D14,3,DIN_3*%
%TO.N,Net-(D13-DOUT)*%
X146058288Y-87249784D03*
%TO.P,D14,4,VDD_4*%
%TO.N,+3.7V*%
X145682073Y-86216119D03*
%TD*%
D17*
%TO.P,D10,1,DOUT_1*%
%TO.N,Net-(D10-DOUT)*%
X134266179Y-116382581D03*
%TO.P,D10,2,VSS_2*%
%TO.N,GND*%
X135218813Y-115832589D03*
%TO.P,D10,3,DIN_3*%
%TO.N,Net-(D10-DIN)*%
X136133821Y-117417419D03*
%TO.P,D10,4,VDD_4*%
%TO.N,+3.7V*%
X135181187Y-117967411D03*
%TD*%
D18*
%TO.P,D7,1,DOUT_1*%
%TO.N,Net-(D7-DOUT)*%
X159828288Y-127829784D03*
%TO.P,D7,2,VSS_2*%
%TO.N,GND*%
X159452073Y-126796119D03*
%TO.P,D7,3,DIN_3*%
%TO.N,Net-(D6-DOUT)*%
X161171712Y-126170216D03*
%TO.P,D7,4,VDD_4*%
%TO.N,+3.7V*%
X161547927Y-127203881D03*
%TD*%
D13*
%TO.P,TP2,1,1_1*%
%TO.N,+3.7V*%
X177000000Y-105500000D03*
%TD*%
D19*
%TO.P,D1,1,DOUT_1*%
%TO.N,Net-(D1-DOUT)*%
X162747932Y-86496119D03*
%TO.P,D1,2,VSS_2*%
%TO.N,GND*%
X162371707Y-87529776D03*
%TO.P,D1,3,DIN_3*%
%TO.N,/LED_DIN*%
X160652068Y-86903881D03*
%TO.P,D1,4,VDD_4*%
%TO.N,+3.7V*%
X161028293Y-85870224D03*
%TD*%
D20*
%TO.P,D11,1,DOUT_1*%
%TO.N,Net-(D11-DOUT)*%
X132299466Y-110094404D03*
%TO.P,D11,2,VSS_2*%
%TO.N,GND*%
X133382754Y-109903397D03*
%TO.P,D11,3,DIN_3*%
%TO.N,Net-(D10-DOUT)*%
X133700534Y-111705596D03*
%TO.P,D11,4,VDD_4*%
%TO.N,+3.7V*%
X132617246Y-111896603D03*
%TD*%
D21*
%TO.P,D8,1,DOUT_1*%
%TO.N,Net-(D8-DOUT)*%
X144952064Y-126703883D03*
%TO.P,D8,2,VSS_2*%
%TO.N,GND*%
X145328293Y-125670224D03*
%TO.P,D8,3,DIN_3*%
%TO.N,Net-(D7-DOUT)*%
X147047936Y-126296117D03*
%TO.P,D8,4,VDD_4*%
%TO.N,+3.7V*%
X146671707Y-127329776D03*
%TD*%
D22*
%TO.P,D2,1,DOUT_1*%
%TO.N,Net-(D2-DOUT)*%
X168954466Y-90666828D03*
%TO.P,D2,2,VSS_2*%
%TO.N,GND*%
X168247398Y-91509472D03*
%TO.P,D2,3,DIN_3*%
%TO.N,Net-(D1-DOUT)*%
X166845534Y-90333172D03*
%TO.P,D2,4,VDD_4*%
%TO.N,+3.7V*%
X167552602Y-89490528D03*
%TD*%
D23*
%TO.P,D12,1,DOUT_1*%
%TO.N,Net-(D12-DOUT)*%
X133896118Y-97452066D03*
%TO.P,D12,2,VSS_2*%
%TO.N,GND*%
X134929776Y-97828293D03*
%TO.P,D12,3,DIN_3*%
%TO.N,Net-(D11-DOUT)*%
X134303882Y-99547934D03*
%TO.P,D12,4,VDD_4*%
%TO.N,+3.7V*%
X133270224Y-99171707D03*
%TD*%
D24*
%TO.P,D3,1,DOUT_1*%
%TO.N,Net-(D3-DOUT)*%
X173533819Y-96917417D03*
%TO.P,D3,2,VSS_2*%
%TO.N,GND*%
X172581187Y-97467411D03*
%TO.P,D3,3,DIN_3*%
%TO.N,Net-(D2-DOUT)*%
X171666181Y-95882583D03*
%TO.P,D3,4,VDD_4*%
%TO.N,+3.7V*%
X172618813Y-95332589D03*
%TD*%
D13*
%TO.P,TP1,1,1_1*%
%TO.N,GND*%
X131000000Y-106000000D03*
%TD*%
%TO.P,TP4,1,1_1*%
%TO.N,GND*%
X154000000Y-130000000D03*
%TD*%
D25*
%TO.N,GND*%
X146050000Y-126450000D03*
X161610000Y-87200000D03*
X134380000Y-98670000D03*
X151200000Y-127623543D03*
X160320000Y-126550000D03*
D26*
X154100000Y-130200000D03*
D25*
X139580000Y-121740000D03*
X146930000Y-87030000D03*
X174500000Y-111280000D03*
X167650000Y-90950000D03*
X172350000Y-96650000D03*
X140310000Y-90540000D03*
X133190000Y-110920000D03*
X132913229Y-102800000D03*
D26*
X130400000Y-106000000D03*
D25*
X135660000Y-116600000D03*
X167130000Y-123150000D03*
X171730000Y-117570000D03*
%TO.N,+3.7V*%
X171550000Y-94520000D03*
X175017242Y-109410000D03*
X138670000Y-91450000D03*
X136170000Y-118790000D03*
X133400000Y-112780000D03*
X168629756Y-122156693D03*
X172934976Y-116187340D03*
X140770000Y-123860000D03*
X160044532Y-86153094D03*
X133280000Y-100430000D03*
X147880000Y-127310000D03*
D26*
X177200000Y-105600000D03*
D25*
X145010000Y-86929784D03*
X162270000Y-126280000D03*
X166350000Y-89160000D03*
X175310000Y-105570000D03*
D26*
%TO.N,/LED_DIN*%
X154100000Y-83300000D03*
%TD*%
%TO.N,Net-(D10-DIN)*%
D27*
X137980000Y-121867637D02*
X137980000Y-119548021D01*
X137980000Y-119548021D02*
X135991609Y-117559630D01*
X138245535Y-122133172D02*
X137980000Y-121867637D01*
%TO.N,GND*%
X134929776Y-98120224D02*
X134380000Y-98670000D01*
X161939776Y-87529776D02*
X161610000Y-87200000D01*
X131000000Y-104713229D02*
X132913229Y-102800000D01*
X171730000Y-117570000D02*
X171730000Y-118080000D01*
X135660000Y-116600000D02*
X135218813Y-116158813D01*
X160320000Y-126550000D02*
X160073881Y-126796119D01*
X166813173Y-123466827D02*
X167130000Y-123150000D01*
X168247398Y-91509471D02*
X168209471Y-91509471D01*
X135218813Y-116158813D02*
X135218813Y-115832590D01*
X145328293Y-125670224D02*
X145328293Y-125728293D01*
X162371707Y-87529776D02*
X161939776Y-87529776D01*
X145328293Y-125728293D02*
X146050000Y-126450000D01*
X147336119Y-86623881D02*
X146930000Y-87030000D01*
X171492587Y-118317413D02*
X171266190Y-118317413D01*
X141154463Y-90033173D02*
X140816827Y-90033173D01*
X174099471Y-112005591D02*
X174099471Y-111680529D01*
X151623543Y-127623543D02*
X151200000Y-127623543D01*
X139580000Y-121740000D02*
X139402074Y-121740000D01*
X133382754Y-109903397D02*
X133382754Y-110727246D01*
X154000000Y-130000000D02*
X151623543Y-127623543D01*
X133382754Y-110727246D02*
X133190000Y-110920000D01*
X174099471Y-111680529D02*
X174500000Y-111280000D01*
X172581187Y-97467410D02*
X172581187Y-96881187D01*
X147777927Y-86623881D02*
X147336119Y-86623881D01*
X140816827Y-90033173D02*
X140310000Y-90540000D01*
X172581187Y-96881187D02*
X172350000Y-96650000D01*
X166245540Y-123466827D02*
X166813173Y-123466827D01*
X131000000Y-106000000D02*
X131000000Y-104713229D01*
X171730000Y-118080000D02*
X171492587Y-118317413D01*
X139402074Y-121740000D02*
X138952602Y-121290528D01*
X160073881Y-126796119D02*
X159452073Y-126796119D01*
X168209471Y-91509471D02*
X167650000Y-90950000D01*
%TO.N,Net-(D8-DOUT)*%
X144952064Y-126703883D02*
X144020000Y-125771819D01*
X142350000Y-123500000D02*
X141387637Y-123500000D01*
X144020000Y-125771819D02*
X144020000Y-125170000D01*
X141387637Y-123500000D02*
X140354465Y-122466828D01*
X144020000Y-125170000D02*
X142350000Y-123500000D01*
%TO.N,+3.7V*%
X133270224Y-99171707D02*
X133270224Y-100420224D01*
X135181187Y-117967410D02*
X135347410Y-117967410D01*
X166680529Y-89490529D02*
X166350000Y-89160000D01*
X173133810Y-117282587D02*
X173133810Y-116386174D01*
X139647398Y-123309472D02*
X140219472Y-123309472D01*
X146671707Y-127329776D02*
X147860224Y-127329776D01*
X132617246Y-111997246D02*
X133400000Y-112780000D01*
X168354460Y-123133173D02*
X168629756Y-122857877D01*
X161028293Y-85870224D02*
X160327402Y-85870224D01*
X175380000Y-105500000D02*
X175310000Y-105570000D01*
X171828568Y-94798568D02*
X172084791Y-94798568D01*
X139045537Y-90366827D02*
X138670000Y-90742364D01*
X145010000Y-86888192D02*
X145682073Y-86216119D01*
X132617246Y-111896603D02*
X132617246Y-111997246D01*
X145010000Y-86929784D02*
X145010000Y-86888192D01*
X175500529Y-109893287D02*
X175017242Y-109410000D01*
X177000000Y-105500000D02*
X175380000Y-105500000D01*
X135347410Y-117967410D02*
X136170000Y-118790000D01*
X140219472Y-123309472D02*
X140770000Y-123860000D01*
X173133810Y-116386174D02*
X172934976Y-116187340D01*
X161547927Y-127002073D02*
X162270000Y-126280000D01*
X175500529Y-110394409D02*
X175500529Y-109893287D01*
X172084791Y-94798568D02*
X172618813Y-95332590D01*
X147860224Y-127329776D02*
X147880000Y-127310000D01*
X171550000Y-94520000D02*
X171828568Y-94798568D01*
X177000000Y-105500000D02*
X177000000Y-105490000D01*
X177000000Y-105490000D02*
X176970000Y-105460000D01*
X160327402Y-85870224D02*
X160044532Y-86153094D01*
X167552602Y-89490529D02*
X166680529Y-89490529D01*
X168629756Y-122857877D02*
X168629756Y-122156693D01*
X133270224Y-100420224D02*
X133280000Y-100430000D01*
X138670000Y-90742364D02*
X138670000Y-91450000D01*
X161547927Y-127203881D02*
X161547927Y-127002073D01*
%TO.N,Net-(D4-DOUT)*%
X173750000Y-114280000D02*
X172181187Y-115848813D01*
X173750000Y-113770000D02*
X173750000Y-114280000D01*
X172181187Y-115848813D02*
X172181187Y-116732583D01*
X175182758Y-112196615D02*
X175182758Y-112337242D01*
X175182758Y-112337242D02*
X173750000Y-113770000D01*
%TO.N,Net-(D3-DOUT)*%
X174417242Y-101777242D02*
X174417242Y-110203385D01*
X173533819Y-96917417D02*
X173533819Y-100893819D01*
X173533819Y-100893819D02*
X174417242Y-101777242D01*
%TO.N,Net-(D13-DOUT)*%
X146058288Y-87249784D02*
X145778288Y-87529784D01*
X142749475Y-89190525D02*
X144410216Y-87529784D01*
X140447398Y-89190525D02*
X142749475Y-89190525D01*
X145778288Y-87529784D02*
X144410216Y-87529784D01*
%TO.N,Net-(D12-DOUT)*%
X139752602Y-91595582D02*
X139752602Y-91209475D01*
X133896118Y-97452066D02*
X139752602Y-91595582D01*
%TO.N,/LED_DIN*%
X154000000Y-84000000D02*
X156050000Y-86050000D01*
X156050000Y-86050000D02*
X158840000Y-86050000D01*
X158840000Y-86050000D02*
X159693881Y-86903881D01*
X159693881Y-86903881D02*
X160652068Y-86903881D01*
%TO.N,Net-(D5-DOUT)*%
X170677919Y-119260000D02*
X167647401Y-122290518D01*
X172218813Y-118867417D02*
X171826230Y-119260000D01*
X171826230Y-119260000D02*
X170677919Y-119260000D01*
%TO.N,Net-(D6-DOUT)*%
X166952599Y-124309482D02*
X164170518Y-124309482D01*
X161871928Y-125470000D02*
X161171712Y-126170216D01*
X163010000Y-125470000D02*
X161871928Y-125470000D01*
X164170518Y-124309482D02*
X163010000Y-125470000D01*
%TO.N,Net-(D10-DOUT)*%
X134266179Y-116382581D02*
X134266179Y-112271241D01*
X134266179Y-112271241D02*
X133700534Y-111705596D01*
%TO.N,Net-(D7-DOUT)*%
X159129784Y-127829784D02*
X158323543Y-127023543D01*
X158323543Y-127023543D02*
X148783543Y-127023543D01*
X159828288Y-127829784D02*
X159129784Y-127829784D01*
X148220000Y-126460000D02*
X147211819Y-126460000D01*
X148783543Y-127023543D02*
X148220000Y-126460000D01*
X147211819Y-126460000D02*
X147047936Y-126296117D01*
%TO.N,Net-(D1-DOUT)*%
X166584985Y-90333172D02*
X166845534Y-90333172D01*
X162747932Y-86496119D02*
X166584985Y-90333172D01*
%TO.N,Net-(D11-DOUT)*%
X133513229Y-108086771D02*
X133513229Y-101326771D01*
X132299466Y-109300534D02*
X133513229Y-108086771D01*
X134303882Y-100536118D02*
X134303882Y-99547934D01*
X132299466Y-110094404D02*
X132299466Y-109300534D01*
X133513229Y-101326771D02*
X134303882Y-100536118D01*
%TO.N,Net-(D2-DOUT)*%
X168954466Y-90666828D02*
X169070000Y-90782362D01*
X169070000Y-90782362D02*
X169070000Y-92975523D01*
X170997239Y-94902762D02*
X170997239Y-95213641D01*
X170997239Y-95213641D02*
X171666181Y-95882583D01*
X169070000Y-92975523D02*
X170997239Y-94902762D01*
%TD*%
M02*
